<svg width="40" height="40" viewBox="0 0 40 40" fill="none" xmlns="http://www.w3.org/2000/svg">
<path d="M16.4 19.0979C16.4 18.8592 16.4948 18.6303 16.6636 18.4615C16.8324 18.2928 17.0613 18.1979 17.3 18.1979H22.7C22.9387 18.1979 23.1676 18.2928 23.3364 18.4615C23.5052 18.6303 23.6 18.8592 23.6 19.0979C23.6 19.3366 23.5052 19.5656 23.3364 19.7343C23.1676 19.9031 22.9387 19.9979 22.7 19.9979H17.3C17.0613 19.9979 16.8324 19.9031 16.6636 19.7343C16.4948 19.5656 16.4 19.3366 16.4 19.0979ZM17.3 21.7979C17.0613 21.7979 16.8324 21.8928 16.6636 22.0615C16.4948 22.2303 16.4 22.4592 16.4 22.6979C16.4 22.9366 16.4948 23.1655 16.6636 23.3343C16.8324 23.5031 17.0613 23.5979 17.3 23.5979H20.9C21.1387 23.5979 21.3676 23.5031 21.5364 23.3343C21.7052 23.1655 21.8 22.9366 21.8 22.6979C21.8 22.4592 21.7052 22.2303 21.5364 22.0615C21.3676 21.8928 21.1387 21.7979 20.9 21.7979H17.3ZM11 19.9979C11.0005 18.0248 11.6493 16.1064 12.8468 14.5382C14.0442 12.9699 15.7239 11.8386 17.6272 11.3184C19.5306 10.7982 21.5522 10.9179 23.3808 11.6591C25.2095 12.4003 26.7438 13.722 27.7478 15.4206C28.7518 17.1192 29.1698 19.1007 28.9373 21.0602C28.7049 23.0196 27.835 24.8483 26.4614 26.2649C25.0879 27.6815 23.2869 28.6075 21.3356 28.9003C19.3843 29.1932 17.3908 28.8366 15.662 27.8855L12.1628 28.9511C12.0067 28.9987 11.8407 29.0029 11.6824 28.9633C11.5241 28.9238 11.3795 28.842 11.2641 28.7266C11.1488 28.6112 11.0669 28.4667 11.0274 28.3084C10.9878 28.1501 10.9921 27.984 11.0396 27.8279L12.1052 24.3233C11.3794 22.9972 10.9993 21.5097 11 19.9979ZM20 12.7979C18.7219 12.7978 17.4668 13.138 16.3636 13.7834C15.2604 14.4288 14.3489 15.3562 13.7227 16.4704C13.0965 17.5846 12.7782 18.8454 12.8005 20.1233C12.8228 21.4013 13.1848 22.6502 13.8494 23.7419C13.9154 23.8504 13.9577 23.9716 13.9735 24.0975C13.9893 24.2235 13.9783 24.3513 13.9412 24.4727L13.2518 26.7389L15.5144 26.0495C15.6362 26.0124 15.7645 26.0016 15.8907 26.0177C16.017 26.0339 16.1385 26.0766 16.247 26.1431C17.1959 26.7225 18.2661 27.0742 19.3737 27.1707C20.4813 27.2673 21.5962 27.106 22.6311 26.6995C23.6659 26.2931 24.5926 25.6525 25.3384 24.828C26.0842 24.0035 26.629 23.0174 26.93 21.9471C27.231 20.8769 27.28 19.7514 27.0733 18.659C26.8665 17.5666 26.4096 16.5369 25.7383 15.6507C25.067 14.7644 24.1996 14.0456 23.204 13.5507C22.2085 13.0558 21.1118 12.7981 20 12.7979Z" fill="#002E75"/>
</svg>
