<svg width="40" height="40" viewBox="0 0 40 40" fill="none" xmlns="http://www.w3.org/2000/svg">
<path d="M25.7751 13.3638L25.7778 15.2741V22.6977H24.8889V13.0246C24.8889 12.4876 24.6782 11.9727 24.3031 11.593C23.928 11.2133 23.4193 11 22.8889 11H14.8889C14.3585 11 13.8497 11.2133 13.4747 11.593C13.0996 11.9727 12.8889 12.4876 12.8889 13.0246V16.74C12.3529 17.1035 12 17.7208 12 18.4235V26.072C12 26.456 12.0747 26.8363 12.2199 27.1911C12.3651 27.5459 12.5779 27.8683 12.8461 28.1399C13.1144 28.4114 13.4329 28.6268 13.7834 28.7738C14.1339 28.9208 14.5095 28.9964 14.8889 28.9964H16.9929C17.0338 28.9988 17.075 29 17.1164 29H22.8889C22.9493 29 23.0092 28.9988 23.0684 28.9964H25.1111C25.4905 28.9964 25.8661 28.9208 26.2166 28.7738C26.5671 28.6268 26.8856 28.4114 27.1539 28.1399C27.4221 27.8683 27.6349 27.5459 27.7801 27.1911C27.9253 26.8363 28 26.456 28 26.072V24.7223C28 24.0204 27.6471 23.4022 27.1111 23.0387V15.2741C27.1112 14.8549 26.9828 14.4459 26.7434 14.1037C26.5041 13.7616 26.1658 13.503 25.7751 13.3638ZM14.2222 16.3989V13.0246C14.2222 12.8456 14.2925 12.674 14.4175 12.5474C14.5425 12.4208 14.7121 12.3497 14.8889 12.3497H22.8889C23.0657 12.3497 23.2353 12.4208 23.3603 12.5474C23.4853 12.674 23.5556 12.8456 23.5556 13.0246V22.6977H23.4702C23.3784 22.6977 23.2876 22.6785 23.2035 22.6413C23.1194 22.6042 23.0437 22.5498 22.9813 22.4817L17.9947 17.0468C17.8077 16.8427 17.5812 16.6799 17.3294 16.5684C17.0775 16.457 16.8056 16.3993 16.5307 16.3989H14.2222ZM13.3333 18.4235C13.3333 18.2445 13.4036 18.0729 13.5286 17.9463C13.6536 17.8198 13.8232 17.7487 14 17.7487H16.5298C16.6216 17.7486 16.7124 17.7678 16.7965 17.805C16.8806 17.8421 16.9563 17.8965 17.0187 17.9646L22.0053 23.4004C22.1925 23.6044 22.4191 23.7672 22.6712 23.8785C22.9232 23.9898 23.1952 24.0473 23.4702 24.0474H26C26.1768 24.0474 26.3464 24.1185 26.4714 24.2451C26.5964 24.3716 26.6667 24.5433 26.6667 24.7223V26.072C26.6667 26.4896 26.5028 26.8901 26.2111 27.1855C25.9193 27.4808 25.5237 27.6467 25.1111 27.6467H14.8889C14.4763 27.6467 14.0807 27.4808 13.7889 27.1855C13.4972 26.8901 13.3333 26.4896 13.3333 26.072V18.4235Z" fill="#002E75"/>
</svg>
