<svg width="40" height="40" viewBox="0 0 40 40" fill="none" xmlns="http://www.w3.org/2000/svg">
<path d="M17.275 19.55C17.096 19.55 16.9243 19.6211 16.7977 19.7477C16.6711 19.8743 16.6 20.046 16.6 20.225C16.6 20.404 16.6711 20.5757 16.7977 20.7023C16.9243 20.8289 17.096 20.9 17.275 20.9H23.125C23.304 20.9 23.4757 20.8289 23.6023 20.7023C23.7289 20.5757 23.8 20.404 23.8 20.225C23.8 20.046 23.7289 19.8743 23.6023 19.7477C23.4757 19.6211 23.304 19.55 23.125 19.55H17.275ZM17.275 22.025C17.096 22.025 16.9243 22.0961 16.7977 22.2227C16.6711 22.3493 16.6 22.521 16.6 22.7C16.6 22.879 16.6711 23.0507 16.7977 23.1773C16.9243 23.3039 17.096 23.375 17.275 23.375H23.125C23.304 23.375 23.4757 23.3039 23.6023 23.1773C23.7289 23.0507 23.8 22.879 23.8 22.7C23.8 22.521 23.7289 22.3493 23.6023 22.2227C23.4757 22.0961 23.304 22.025 23.125 22.025H17.275ZM17.275 24.5C17.096 24.5 16.9243 24.5711 16.7977 24.6977C16.6711 24.8243 16.6 24.996 16.6 25.175C16.6 25.354 16.6711 25.5257 16.7977 25.6523C16.9243 25.7789 17.096 25.85 17.275 25.85H23.125C23.304 25.85 23.4757 25.7789 23.6023 25.6523C23.7289 25.5257 23.8 25.354 23.8 25.175C23.8 24.996 23.7289 24.8243 23.6023 24.6977C23.4757 24.5711 23.304 24.5 23.125 24.5H17.275ZM21.6265 11.5274L26.8726 16.7726C27.2102 17.1101 27.3999 17.5678 27.4 18.0452V27.2C27.4 27.6774 27.2104 28.1352 26.8728 28.4728C26.5352 28.8104 26.0774 29 25.6 29H14.8C14.3226 29 13.8648 28.8104 13.5272 28.4728C13.1896 28.1352 13 27.6774 13 27.2V12.8C13 12.3226 13.1896 11.8648 13.5272 11.5272C13.8648 11.1896 14.3226 11 14.8 11H20.3548C20.38 11.0006 20.4046 11.0027 20.4286 11.0063C20.4466 11.0093 20.4643 11.0114 20.4817 11.0126C20.6752 11.0261 20.866 11.063 21.0433 11.1368C21.0946 11.1584 21.1441 11.1872 21.1927 11.2151L21.2377 11.2412L21.28 11.2628C21.3049 11.2749 21.3292 11.2881 21.3529 11.3024C21.4231 11.3501 21.4861 11.4068 21.55 11.4644L21.5824 11.4914L21.6265 11.5274ZM25.6 27.65C25.7193 27.65 25.8338 27.6026 25.9182 27.5182C26.0026 27.4338 26.05 27.3193 26.05 27.2V18.2H22C21.5226 18.2 21.0648 18.0104 20.7272 17.6728C20.3896 17.3352 20.2 16.8774 20.2 16.4V12.35H14.8C14.6807 12.35 14.5662 12.3974 14.4818 12.4818C14.3974 12.5662 14.35 12.6807 14.35 12.8V27.2C14.35 27.3193 14.3974 27.4338 14.4818 27.5182C14.5662 27.6026 14.6807 27.65 14.8 27.65H25.6ZM25.0402 16.85L21.55 13.3589V16.4C21.55 16.5193 21.5974 16.6338 21.6818 16.7182C21.7662 16.8026 21.8807 16.85 22 16.85H25.0402Z" fill="#002E75"/>
</svg>
