<svg width="40" height="40" viewBox="0 0 40 40" fill="none" xmlns="http://www.w3.org/2000/svg">
<path fill-rule="evenodd" clip-rule="evenodd" d="M18.7393 12C17.9653 12 17.3203 12.574 17.2523 13.3227C17.1108 14.8872 17.0751 16.459 17.1453 18.028L16.8923 18.0455L15.4023 18.1504C15.1847 18.1658 14.975 18.2358 14.7936 18.3536C14.6122 18.4715 14.4655 18.633 14.3677 18.8224C14.2699 19.0118 14.2245 19.2227 14.2358 19.4343C14.2471 19.6459 14.3148 19.851 14.4323 20.0295C15.5296 21.6951 16.9422 23.1435 18.5953 24.2978L19.1913 24.7144C19.4275 24.8789 19.7107 24.9673 20.0013 24.9673C20.2919 24.9673 20.5752 24.8789 20.8113 24.7144L21.4073 24.2978C23.062 23.1453 24.4749 21.6966 25.5703 20.0295C25.6878 19.851 25.7555 19.6459 25.7668 19.4343C25.7781 19.2227 25.7327 19.0118 25.6349 18.8224C25.5371 18.633 25.3904 18.4715 25.209 18.3536C25.0277 18.2358 24.8179 18.1658 24.6003 18.1504L23.1103 18.0455L22.8573 18.028C22.9273 16.4596 22.8913 14.8873 22.7503 13.3227C22.7182 12.9614 22.5476 12.6249 22.2722 12.38C21.9968 12.135 21.6368 11.9994 21.2633 12H18.7393ZM18.6833 18.667C18.5693 16.9312 18.5904 15.1895 18.7463 13.4567H21.2563C21.4126 15.1895 21.434 16.9312 21.3203 18.667C21.3141 18.7632 21.3276 18.8597 21.3601 18.9508C21.3926 19.042 21.4433 19.1259 21.5095 19.1978C21.5756 19.2697 21.6558 19.3282 21.7454 19.3697C21.835 19.4113 21.9321 19.4352 22.0313 19.4401C22.3553 19.4556 22.6786 19.475 23.0013 19.4983L24.0823 19.575C23.1214 20.9477 21.9199 22.1459 20.5323 23.1149L20.0023 23.4849L19.4703 23.1149C18.0827 22.1459 16.8812 20.9477 15.9203 19.575L17.0013 19.4974C17.3246 19.4747 17.648 19.4556 17.9713 19.4401C18.0706 19.4354 18.1678 19.4115 18.2575 19.37C18.3472 19.3285 18.4275 19.2701 18.4938 19.1981C18.56 19.1262 18.6109 19.0422 18.6434 18.9511C18.676 18.8599 18.6895 18.7633 18.6833 18.667Z" fill="#002E75"/>
<path d="M12 28.2753C11.9988 27.8731 12.3342 27.5464 12.7484 27.5464H27.2516C27.6641 27.5464 27.9988 27.8705 28 28.271C28.0012 28.6733 27.6658 29 27.2516 29H12.7484C12.3359 29 12.0012 28.6759 12 28.2753Z" fill="#002E75"/>
</svg>
