<svg width="70" height="70" viewBox="0 0 70 70" fill="none" xmlns="http://www.w3.org/2000/svg">
<path d="M56.0342 37.0219C56.5783 37.0231 56.9633 37.0281 57.4274 37.0253C58.085 37.0267 58.7891 37.0158 59.4433 37.0301C59.4871 37.9304 59.4413 38.8717 59.4556 39.7734C59.4864 41.749 59.431 43.8093 59.496 45.7801L59.498 47.5868L59.5021 47.6374C59.5759 48.6977 59.5076 51.0178 59.5076 51.0178L59.5137 52.022C59.5137 52.022 59.5411 56.6793 59.4837 56.7641C59.4809 57.3704 59.5076 59.387 59.4426 60.0911C59.4155 60.4079 59.4545 60.439 59.4297 60.9203C59.5131 61.042 59.4761 61.9033 59.4741 62.1023H64.0514C64.3638 62.1023 66.0803 62.0558 66.2861 62.1556L66.3011 62.2103C66.269 62.2513 66.1938 62.3046 66.1555 62.306C65.4323 62.3224 64.493 62.3115 63.7869 62.3108L56.5777 62.3203L17.7735 62.3169L8.32556 62.3101L5.28083 62.308C5.04772 62.308 3.8487 62.3415 3.71677 62.2609C3.68532 62.174 3.68122 62.2157 3.71882 62.133C3.88835 62.0469 4.62936 62.1023 4.86384 62.1036L7.12311 62.1064L14.9174 62.0989C14.3466 61.5205 14.5722 61.2724 14.3815 61.0167C14.3603 61.0208 14.1997 61.0502 14.1887 61.0434C12.3916 59.9045 10.496 58.9147 8.66598 57.8291C8.89772 57.3417 9.64831 56.1242 9.9402 55.6307L12.019 52.0616C12.1263 51.927 12.531 51.2099 12.6349 51.0294C13.3008 49.8892 13.9597 48.7455 14.6119 47.5971C14.7671 47.3695 15.0603 46.8171 15.2134 46.5533C15.2927 46.4165 15.331 46.3017 15.4602 46.219C15.692 46.1636 15.9237 46.3735 16.1999 46.5068C16.6018 46.733 17.0065 46.9545 17.4146 47.1705C18.4311 47.7242 19.4052 48.2178 20.4183 48.7558C20.4669 48.6013 20.5243 48.4386 20.5605 48.2814C20.6193 48.0271 20.3301 47.9567 20.1962 47.8104C20.0998 47.7058 20.0136 47.5821 19.9309 47.4672C20.0724 46.8041 20.4532 46.2463 20.7075 45.6249C20.7205 45.5935 20.6419 45.4069 20.6685 45.346C20.7676 45.1191 20.89 44.8983 21.0035 44.6775C21.2393 44.2277 21.4649 43.7738 21.6809 43.3144C20.8039 42.3908 20.5885 40.0557 21.3473 38.9989C21.5456 38.7234 21.7698 38.4711 21.9687 38.1943C22.0036 37.4505 22.0425 36.8271 22.4548 36.1831C22.9169 35.4613 23.502 35.0395 24.3319 34.8522C24.7708 34.3108 25.2643 33.9266 26.0149 33.9628C26.3157 33.9772 26.7915 34.1782 27.0622 34.0216C27.2584 33.9075 27.2714 33.5916 27.2973 33.3825C26.9487 33.3257 26.7156 33.2724 26.4134 33.0543C25.8645 32.6578 25.5535 31.8478 26.0053 31.2626C26.3116 30.8661 26.7443 30.8463 27.2057 30.7868C27.1688 30.119 27.2761 29.5106 28.0691 29.421C29.0528 29.3103 29.9271 30.6467 29.1779 31.4021C29.2654 31.6379 29.3549 31.8874 29.4431 32.1226C29.7706 32.999 29.8711 33.3503 28.8286 33.524C28.8689 33.8692 28.9168 34.2137 28.9715 34.5569C29.4288 35.2391 29.668 35.7518 30.1917 37.0397C30.1917 37.0397 31.3278 37.039 31.5301 37.0383C48.2696 36.9831 46.4648 37 56.0342 37.0219Z" fill="#002C6E"/>
<path d="M53.716 42.9084L59.2695 42.8975L59.2825 55.2835C59.2934 56.3287 59.2968 57.3732 59.2913 58.4185C59.2843 59.7834 59.2705 60.8276 59.2749 62.1085L53.7201 62.1215C53.6941 55.7292 53.787 49.2979 53.716 42.9084Z" fill="#FFB700"/>
<path d="M35.6554 42.8949H46.4535C48.3457 42.8942 50.4163 42.8415 52.2941 42.8935L52.2955 62.1305L51.1388 62.1141L44.739 62.1038L43.2009 62.1059C41.1481 62.1175 38.8102 62.1531 36.769 62.0956L36.7888 62.0546C36.888 61.8434 36.9078 61.8147 36.8312 61.6C36.3753 61.1878 36.1921 61.0292 35.6589 60.7011L35.6541 48.4682C35.6541 46.6396 35.6192 44.7105 35.6561 42.8949H35.6554Z" fill="#FBFCFF"/>
<path d="M36.8452 44H43.2054L43.204 56.345C43.204 58.2522 43.1801 60.2039 43.202 62.1064C41.1491 62.118 38.8112 62.1535 36.77 62.0961L36.7898 62.0551C36.889 61.8439 36.9088 61.8151 36.8322 61.6005L36.8459 44.0007L36.8452 44Z" fill="#FBFCFF"/>
<path d="M41.8565 53.002C41.9256 53.1865 41.8812 55.7732 41.8935 56.2032L41.1784 55.4287L40.3062 54.5312C40.8004 54.0212 41.3479 53.5105 41.8559 53.002H41.8565Z" fill="#FFB700"/>
<path d="M35.6556 42.8949H46.4537C48.3459 42.8942 50.4165 42.8415 52.2943 42.8935L52.2957 62.1305L51.139 62.1141L51.1322 44.0146L44.729 43.9996L44.7392 62.1045L43.2011 62.1066C43.1799 60.2041 43.2039 58.2518 43.2032 56.3453L43.2046 44.0002H36.8444L36.8307 61.6C36.3748 61.1878 36.1916 61.0292 35.6584 60.7011L35.6536 48.4682C35.6536 46.6396 35.6187 44.7105 35.6556 42.8949Z" fill="#FFB700"/>
<path d="M46.0743 52.9019C46.5419 53.2765 47.2569 54.0305 47.702 54.4775L46.9247 55.2466C46.6451 55.5118 46.3594 55.7716 46.0688 56.0252L46.0743 52.9019Z" fill="#FFB700"/>
<path d="M21.1612 59.9309C21.8004 59.2356 22.3855 58.4926 22.9659 57.7406C24.342 55.9571 25.902 53.8209 26.7038 51.697C27.1946 50.2703 27.6103 48.8156 28.0744 47.3808C28.1722 47.0786 28.4155 45.9842 28.6555 45.8755C28.7539 45.8946 28.7238 45.868 28.7676 45.9322C28.7471 46.1667 28.5304 46.7204 28.4593 46.9768C28.2234 47.8237 27.8222 48.856 27.6342 49.6934L27.6253 49.7344C28.2761 51.1768 29.1456 52.561 29.7301 54.0479C30.1703 55.1676 30.5456 56.3017 30.9537 57.433L31.4828 58.8959C31.5812 59.168 31.826 59.6793 31.7337 59.9322C31.7337 60.6589 31.7556 61.3937 31.7474 62.1184L28.7211 62.104C28.7184 61.9974 28.7307 61.7998 28.6753 61.7212L28.4846 61.7273C28.4695 61.8394 28.4695 61.9919 28.4654 62.1074L22.9604 62.1013C22.432 61.2878 21.7573 60.6801 21.1592 59.9309H21.1612Z" fill="#FBFCFF"/>
<path d="M28.7036 52.5225C28.8991 52.8034 29.1506 53.3653 29.2874 53.6853C30.1466 55.6909 30.7598 57.8121 31.5836 59.8314C31.6143 59.9066 31.669 59.9135 31.7346 59.9313C31.7346 60.6579 31.7565 61.3928 31.7483 62.1174L28.722 62.103C28.7063 61.4912 28.7183 60.8813 28.7077 60.2573L28.6879 55.7258C28.679 54.7899 28.6393 53.4344 28.7029 52.5225H28.7036Z" fill="#FFB700"/>
<path d="M28.4842 61.8092C28.4028 61.5118 28.4527 57.9346 28.452 57.5299L28.4479 54.0381C28.4479 53.3784 28.4247 52.5574 28.4794 51.9155C28.5867 52.1404 28.6605 52.2751 28.7036 52.5232C28.64 53.4352 28.6797 54.7907 28.6886 55.7266L28.7084 61.8304L28.4848 61.8099L28.4842 61.8092Z" fill="#002C6E"/>
<path d="M29.058 35.0337C29.3048 35.4069 29.6493 36.2532 29.8373 36.6887C30.4115 37.9916 30.9194 39.3226 31.3583 40.6774C31.5709 41.3405 31.7452 42.0385 31.9517 42.707C32.3194 43.9006 32.7125 45.1105 33.0119 46.3239C32.2183 46.5112 31.4267 46.7108 30.6392 46.9228C30.4279 46.4169 30.2892 46.0956 30.0014 45.6308H27.7024C26.3407 45.6321 24.8669 45.6581 23.5161 45.6089C24.0377 44.5138 24.6229 43.4371 25.1554 42.3468C25.236 42.182 25.3317 42.018 25.4261 41.8607C27.0872 41.2872 28.0962 40.5421 28.4141 38.6875C28.6301 37.4283 28.2309 36.2505 27.4987 35.2258C28.0271 35.4507 28.7299 35.6646 29.058 35.0344V35.0337Z" fill="#FBFCFF"/>
<path d="M29.5997 41.0059L29.6872 41.0605C29.733 41.1556 29.8328 41.5268 29.8417 41.6122C29.8984 42.1516 30.6887 44.8422 30.5977 45.1949C30.5499 45.186 30.4514 45.1819 30.4419 45.1218C30.3489 44.5537 29.4336 41.3504 29.5997 41.0059Z" fill="#002C6E"/>
<path d="M15.5482 46.4316C15.8538 46.5376 16.5408 46.9279 16.8313 47.0858C17.3591 47.3716 17.9128 47.6621 18.4351 47.9574C16.2906 51.7794 14.0143 55.6 11.8992 59.4281C11.081 58.979 9.69395 58.2353 8.95703 57.7369L13.3512 50.2023C14.045 49.0156 14.8018 47.5732 15.5489 46.4323L15.5482 46.4316Z" fill="#FBFCFF"/>
<path d="M18.652 48.0742C18.803 48.1412 18.9712 48.2314 19.1154 48.3135C19.6069 48.5924 20.1299 48.8173 20.6228 49.0914C20.067 50.1503 19.4333 51.2461 18.8488 52.2961L15.2846 58.7438C15.1649 58.9639 14.251 60.7207 14.1648 60.7665C13.4676 60.3652 12.7758 59.9537 12.0908 59.5319C12.4422 58.8169 12.9091 58.0636 13.3015 57.3663L15.962 52.6823L17.5514 49.9186C17.8508 49.3929 18.3061 48.5206 18.6526 48.0742H18.652Z" fill="#FBFCFF"/>
<path d="M23.4229 45.8341L24.289 45.832C24.3888 50.2255 23.7072 52.0712 21.3119 55.8535C20.6461 56.9056 19.8948 58.08 19.0677 58.9974C18.8503 59.238 18.1831 60.2531 18.3027 60.4821C18.4894 60.8403 19.9276 61.8377 20.2838 62.1057L16.5158 62.107L16.0981 62.1009C16.5397 61.4651 17.0825 60.3598 17.4872 59.6454L20.9476 53.4042C21.4138 52.5442 22.3024 50.84 22.865 50.1024C22.4556 49.7955 21.128 49.1584 20.588 48.8426C20.67 48.5876 20.7466 48.3791 20.845 48.1296C22.3578 48.6888 22.0263 47.5478 22.6552 46.7392C22.7481 46.7419 22.8172 46.7419 22.9102 46.7392C23.0886 46.6318 23.323 46.0487 23.4222 45.8354L23.4229 45.8341Z" fill="#FBFCFF"/>
<path d="M32.2294 42.9216L34.229 42.9141L34.2536 54.1476L34.2556 57.5895C34.2556 58.1165 34.2782 58.9279 34.2337 59.4174C34.2399 59.4509 34.2454 59.4844 34.2501 59.5179C34.2686 59.6389 34.2946 59.7558 34.2201 59.8569L34.164 59.8221C33.9022 59.3723 33.6376 57.8458 33.4825 57.2791C32.643 54.2241 31.6839 51.2026 30.6045 48.2235C30.4835 47.8893 29.8389 46.0319 29.8745 45.8508L29.9237 45.8494C30.193 46.116 30.3981 46.8099 30.5369 47.1913C30.6353 47.1482 30.7269 47.0922 30.8301 47.1011C30.8698 47.1879 30.8547 47.1845 30.867 47.2665C30.9204 47.6281 31.0639 47.9925 31.2027 48.3295C31.2628 48.4751 31.3326 48.6412 31.431 48.7636C31.5643 48.9297 31.8227 48.7212 31.9642 48.8442C32.0401 48.9194 32.0791 48.9215 32.1809 48.9276C32.2363 48.9119 32.5371 48.741 32.5179 48.7226C32.7312 48.9263 33.3164 48.592 33.4558 48.4122C33.5105 48.3418 33.4203 47.9091 33.3909 47.8127C33.3423 47.6008 33.274 47.3711 33.2302 47.1537C33.1639 46.8235 33.2466 46.4927 33.1632 46.1659C32.9035 45.0729 32.5637 43.988 32.2288 42.9195L32.2294 42.9216Z" fill="#FFB700"/>
<path d="M34.2337 59.4181C34.2399 59.4516 34.2454 59.4851 34.2501 59.5186C34.2686 59.6396 34.2946 59.7564 34.2201 59.8576L34.164 59.8228C33.9022 59.373 33.6376 57.8465 33.4825 57.2798C32.643 54.2248 31.6839 51.2033 30.6045 48.2242C30.4835 47.8899 29.8389 46.0326 29.8745 45.8515L29.9237 45.8501C30.193 46.1167 30.3981 46.8105 30.5369 47.192C31.7181 50.1191 32.5589 53.4113 33.5255 56.426C33.8202 57.3461 34.015 58.4624 34.2344 59.4181H34.2337Z" fill="#FBFCFF"/>
<path d="M26.2721 35.452C26.7048 35.5013 27.0452 36.0857 27.2264 36.4474C27.9674 37.9253 27.5408 39.9241 26 40.6781C26.0991 40.4662 26.445 39.8599 26.4204 39.6801L26.3609 39.635C26.2769 39.6596 26.2215 39.7238 26.1846 39.8011C25.1975 41.873 24.0565 43.9416 23.1057 46.0266L22.8268 46.5604C22.3496 46.3362 21.3721 45.7285 20.8594 45.4332C21.0214 45.0203 21.2757 44.5972 21.4739 44.1986C21.8649 43.4118 22.2908 42.64 22.6853 41.8553C23.3709 40.4607 24.0695 39.073 24.7805 37.6915C25.1065 37.0537 25.4326 36.4022 25.7758 35.7733C25.905 35.5361 26.0171 35.517 26.2721 35.4507V35.452Z" fill="#FBFCFF"/>
<path d="M20.8195 49.2329C21.1846 49.384 22.1484 49.9425 22.5326 50.1544L18.3518 57.6664C17.8117 58.631 17.2683 59.6399 16.7111 60.5915C16.5382 60.4131 16.4924 60.368 16.2873 60.2292C15.3692 59.6194 15.3241 59.9817 14.5845 60.4985C14.7991 60.0221 15.1088 59.5046 15.3617 59.0404L16.7282 56.5412C18.0612 54.0885 19.4257 51.6521 20.8195 49.2336V49.2329Z" fill="#FBFCFF"/>
<path d="M31.952 59.9612C32.6588 59.9427 33.4279 59.9421 34.1347 59.9468C34.618 60.2442 36.3892 61.3974 36.6572 61.7693C36.6476 61.8965 36.6271 61.8835 36.5375 62.0065C36.2935 62.1672 35.2291 62.1091 34.8771 62.1091L31.9568 62.1077C31.9499 61.392 31.9486 60.6769 31.952 59.9612Z" fill="#FBFCFF"/>
<path d="M19.5247 58.8135C19.6601 58.8374 20.8933 59.7076 20.9828 59.8279C20.9828 59.8594 20.9883 60.0563 20.9999 60.0706C21.5536 60.7583 22.2037 61.3763 22.7198 62.094L21.6876 62.0961C20.4441 62.1022 20.4257 61.9696 19.4174 61.1972C19.1009 60.9545 18.7372 60.7467 18.4487 60.4562C18.7741 59.791 18.984 59.3125 19.5254 58.8135H19.5247Z" fill="#FBFCFF"/>
<path d="M20.9077 45.7188C21.3377 45.9095 22.0411 46.3545 22.4718 46.6081C22.3754 46.8234 22.2838 47.0504 22.1799 47.2609C21.9851 47.6561 21.8818 48.1585 21.3466 48.0525L21.3076 48.056C21.1873 48.0061 21.0438 47.9514 20.9289 47.8946C21.026 47.6855 21.1292 47.4872 21.1839 47.2637L21.1586 47.2521C20.961 47.4824 20.8879 47.6752 20.7293 47.9158L20.4682 47.7265C20.5372 47.5815 20.7245 47.2356 20.7115 47.1003L20.6801 47.0866C20.5167 47.2404 20.5194 47.5754 20.3116 47.6458C19.9685 47.3204 20.7211 46.0599 20.9091 45.7188H20.9077Z" fill="#FBFCFF"/>
<path d="M21.3076 48.0551C21.3555 47.8664 21.3719 47.7625 21.4778 47.595L21.5236 47.5752C21.5229 47.716 21.4143 47.9259 21.3466 48.0523L21.3076 48.0558V48.0551Z" fill="#002C6E"/>
<path d="M32.8246 46.5922L32.9032 46.6011C33.0003 46.7337 33.2149 47.9977 33.2874 48.2465C33.3045 48.306 33.2074 48.4516 33.098 48.4673C32.934 48.3688 32.9463 48.0161 32.7925 47.8903L32.7323 47.9108C32.6804 48.1029 32.882 48.3654 32.8103 48.5486C32.7002 48.6129 32.7576 48.6006 32.6332 48.5883C32.3919 48.401 32.4644 48.1528 32.3229 47.9778H32.2695C32.0815 48.2109 32.4281 48.3244 32.3119 48.6375C32.223 48.7134 32.1731 48.7045 32.0556 48.7134C31.9722 48.4837 31.9031 48.1761 31.8136 47.9737C31.7233 47.9389 31.7691 47.945 31.6734 47.9703C31.6317 48.2219 31.9646 48.4358 31.7104 48.6628L31.6434 48.6573C31.3754 48.4146 31.0609 47.4022 30.981 47.0365C31.5941 46.8827 32.2087 46.7337 32.8246 46.5908V46.5922Z" fill="#FBFCFF"/>
<path d="M15.1414 60.3307C15.3096 60.3108 15.4607 60.3156 15.6275 60.3252C16.9509 60.4045 16.551 61.1838 15.9488 61.8927C15.0054 62.5913 14.0012 61.0108 15.1414 60.33V60.3307Z" fill="#FBFCFF"/>
<path d="M27.1953 34.5145C27.3901 34.2506 27.2254 34.1843 27.5631 33.9594C27.7176 33.6381 27.5132 33.1555 27.6964 32.9907C27.9493 33.0837 28.03 33.4296 28.5871 33.5082C28.6295 33.783 28.8899 34.9185 28.7402 35.0921C28.408 35.477 27.5022 35.0873 27.2377 34.7141L27.1953 34.5138V34.5145Z" fill="#FBFCFF"/>
<path d="M28.9865 31.5532C29.072 31.6257 29.4493 32.8404 29.5156 33.053C29.0487 33.3224 28.9489 33.3107 28.4096 33.2909C28.2038 33.1597 28.0835 33.0373 27.9058 32.8705C27.7725 32.7762 27.4977 32.8746 27.3897 32.6914C27.3063 32.5506 27.268 32.3318 27.443 32.2464C27.6057 32.2669 27.7007 32.3674 27.8094 32.4836L27.836 32.5123C27.8873 32.4289 27.9529 32.2847 27.9981 32.1931C27.9775 32.0639 27.9447 31.9695 27.9974 31.8547C28.1676 31.6729 28.601 31.692 28.9865 31.5532Z" fill="#FBFCFF"/>
<path d="M27.2376 34.715C27.1173 34.6391 26.8541 34.4395 26.861 34.2891C26.9615 34.2508 26.9109 34.2529 27.0182 34.2898C27.1016 34.38 27.1207 34.393 27.157 34.5154H27.1952L27.2376 34.7143V34.715Z" fill="#FBFCFF"/>
<path d="M39.814 20.1039L49.2729 20.1258C49.4848 20.4334 49.6994 20.7875 49.8799 21.1156C50.3037 21.8881 50.8103 22.6428 51.2286 23.4159C51.0167 23.8274 49.9154 25.2678 49.6112 25.6854C48.5612 27.1518 47.4989 28.6092 46.425 30.0577C46.1386 30.4282 45.8385 30.8302 45.5363 31.1836C45.3675 31.3784 44.77 32.1645 44.6299 32.2117C44.4487 32.1734 43.9053 31.3682 43.7364 31.1569C43.4479 30.811 43.1602 30.4344 42.8874 30.0755C41.6426 28.4513 40.4107 26.8168 39.1919 25.1728C38.8166 24.6587 38.215 23.902 37.8965 23.392C38.3148 22.6858 38.7271 21.9756 39.1317 21.2612C39.3307 20.9146 39.5986 20.4238 39.8153 20.1025L39.814 20.1039Z" fill="#002C6E"/>
<path d="M41.7402 23.5104L47.5064 23.5083C47.3662 24.0415 47.1126 24.7812 46.9451 25.3171L45.4747 29.9136C45.3318 30.3107 44.9593 31.8434 44.638 31.9773L44.5826 31.9459C44.342 31.5077 44.1841 30.9349 44.0255 30.455L43.2079 27.9496C42.8887 27.0042 42.5742 26.0574 42.2639 25.1093C42.0998 24.6205 41.8605 23.9957 41.7402 23.5097V23.5104Z" fill="#FBFCFF"/>
<path d="M42.9326 20.2979L46.2528 20.3054C46.3964 20.5686 46.6172 21.1455 46.7389 21.449C46.9802 22.0506 47.2618 22.7034 47.4635 23.3125H46.2809L41.7466 23.307C42.0501 22.3835 42.5519 21.205 42.9333 20.2979H42.9326Z" fill="#FBFCFF"/>
<path d="M38.2046 23.5123L41.5057 23.5103C42.0642 25.1174 42.6049 26.7313 43.1271 28.3508C43.4443 29.3256 43.7684 30.2669 44.065 31.2499C43.9563 31.1385 43.4799 30.5007 43.3582 30.3448C42.758 29.5854 42.1701 28.8163 41.5945 28.0384C40.4885 26.5536 39.2717 25.021 38.2053 23.5123H38.2046Z" fill="#FBFCFF"/>
<path d="M47.7071 23.5088C48.7079 23.4978 49.9336 23.4821 50.9262 23.5204C50.7088 23.9299 49.7948 25.1015 49.4626 25.5486C48.5281 26.8051 47.6333 28.1059 46.7043 29.3583C46.2565 29.9851 45.765 30.586 45.2749 31.1807C46.0706 28.6166 46.9224 26.0846 47.7071 23.5088Z" fill="#FBFCFF"/>
<path d="M39.9281 20.2957C40.8018 20.2711 41.8203 20.2848 42.698 20.3005C42.333 21.2794 41.9017 22.3362 41.5024 23.3035L41.0239 23.3069H38.1665C38.7448 22.298 39.332 21.2944 39.9281 20.2957Z" fill="#FBFCFF"/>
<path d="M46.4849 20.2998C47.3441 20.2793 48.3025 20.2923 49.1639 20.3046C49.3272 20.535 49.6109 21.0538 49.7654 21.3184L50.9323 23.3117C49.8939 23.3336 48.7585 23.3165 47.7181 23.3097C47.5725 23.0301 47.3284 22.4025 47.1972 22.0813C46.9723 21.531 46.6646 20.8549 46.4849 20.2991V20.2998Z" fill="#FBFCFF"/>
<path d="M32.9301 22.7144C33.1071 22.8675 33.4469 23.4759 33.747 23.7302C33.9657 23.9161 34.5878 24.3099 34.6985 24.4732C34.6322 24.625 34.2446 24.8055 34.0778 24.9374C33.5877 25.3243 33.3293 25.6647 32.982 26.1645L32.9034 26.1747C32.7346 26.0503 32.5322 25.6121 32.2615 25.3448C31.8835 24.9709 31.5772 24.7932 31.189 24.4616C31.5226 24.1567 31.9607 23.953 32.2807 23.6105C32.5404 23.333 32.6771 22.9837 32.9308 22.7144H32.9301Z" fill="#002C6E"/>
<path d="M32.923 23.0591C33.0208 23.1637 33.1821 23.407 33.3045 23.5479C33.6429 23.9375 33.9601 24.1665 34.3764 24.4652C33.69 25.0552 33.5226 25.0675 32.9313 25.8529C32.9128 25.8352 32.6257 25.4599 32.5614 25.3867C32.2073 24.9827 31.9291 24.7729 31.5039 24.4673C32.154 24.0154 32.5108 23.7481 32.9224 23.0598L32.923 23.0591Z" fill="#FFB700"/>
<path d="M56.143 22.7116C56.2763 22.7957 56.6461 23.5087 56.912 23.7432C57.2265 24.0214 57.6633 24.167 57.9066 24.409C57.9183 24.5396 57.7221 24.6134 57.6024 24.6749C56.9031 25.0358 56.5771 25.4959 56.1977 26.1617C56.0056 26.105 55.6686 25.4289 55.4724 25.2225C55.2051 24.9401 54.6356 24.7255 54.436 24.4678C54.516 24.2477 54.9433 24.1417 55.1928 23.9168C55.6296 23.5237 55.8285 23.1922 56.143 22.7109V22.7116Z" fill="#002C6E"/>
<path d="M56.1686 23.0889C56.2862 23.1846 56.3683 23.3937 56.4749 23.5305C56.803 23.9509 57.1469 24.1737 57.5974 24.4328C56.8242 24.8826 56.6403 25.0754 56.1529 25.8109C56.1037 25.8055 55.941 25.5437 55.9034 25.4808C55.63 25.0241 55.1727 24.7534 54.7358 24.441C55.3866 24.0979 55.7578 23.6959 56.1686 23.0889Z" fill="#FFB700"/>
<path d="M38.5383 14.9121C38.6641 14.9716 38.7475 15.1213 38.8199 15.2396C39.1945 15.85 39.7708 16.2314 40.356 16.6245C40.1728 16.7797 39.8528 16.9759 39.6402 17.1461C39.1439 17.5439 38.9922 17.8529 38.6299 18.3267C38.5239 18.2419 38.1466 17.5986 37.9094 17.3635C37.6667 17.1229 36.9975 16.8022 36.9141 16.6245C37.0221 16.3907 37.5771 16.1795 37.8082 15.9505C38.1555 15.606 38.3011 15.3312 38.539 14.9128L38.5383 14.9121Z" fill="#002C6E"/>
<path d="M38.5868 15.2686C38.6777 15.3362 38.891 15.6979 39.0031 15.8202C39.3189 16.1654 39.6204 16.389 40.0025 16.6508C39.2772 17.1266 39.1132 17.3022 38.6155 17.9845C38.1698 17.2749 37.8937 17.0302 37.167 16.6275C37.8526 16.2721 38.1657 15.8927 38.5868 15.2686Z" fill="#FFB700"/>
<path d="M44.6528 11.9785L44.7376 12.0175C44.9625 12.3333 45.1888 12.6642 45.452 12.954C45.6611 13.1844 46.3153 13.4339 46.3741 13.6581C46.3085 13.7668 45.6789 14.1182 45.454 14.352C45.1143 14.7061 45.0186 14.8503 44.7369 15.2659L44.7 15.2707C44.5783 15.2167 44.1743 14.5461 43.9774 14.3684C43.7724 14.1831 43.1722 13.8126 43.0566 13.6547C43.1024 13.464 43.5816 13.2521 43.8045 13.0401C44.2017 12.6621 44.35 12.4146 44.6528 11.9785Z" fill="#002C6E"/>
<path d="M44.6899 12.272C44.7446 12.3191 44.9367 12.5987 44.9866 12.6732C45.325 13.1798 45.606 13.337 46.1248 13.6214C45.461 14.0589 45.1568 14.2701 44.7412 14.9435C44.6243 14.9059 44.2668 14.3378 44.1068 14.21C43.856 14.0097 43.5894 13.8189 43.333 13.6289C44.0412 13.1559 44.2094 12.9638 44.6899 12.272Z" fill="#FFB700"/>
<path d="M50.257 14.9844C50.5161 15.0165 50.8169 15.7069 51.0896 15.94C51.4369 16.236 51.7575 16.3967 52.1253 16.651C51.307 17.1268 50.9263 17.4337 50.4238 18.2376L50.3473 18.267C50.2577 18.2185 49.6008 17.1527 49.2754 17.0577C49.2248 17.0427 48.7053 16.7029 48.6943 16.6824C48.7326 16.4521 49.4101 16.1889 49.6657 15.8881C49.9508 15.5531 50.0533 15.4615 50.2393 15.0268L50.257 14.9844Z" fill="#002C6E"/>
<path d="M50.3318 15.2974C50.3496 15.3138 50.6846 15.7561 50.7181 15.8005C51.0182 16.1983 51.3258 16.3727 51.7332 16.6393C51.0571 17.1109 50.8466 17.2962 50.3599 17.96C50.2389 17.8663 50.0099 17.4596 49.8738 17.3222C49.6018 17.0487 49.2634 16.8402 48.9448 16.6242C49.6305 16.3419 49.9565 15.8996 50.3325 15.2974H50.3318Z" fill="#FFB700"/>
<path d="M56.0342 37.0219C56.5783 37.0231 56.9633 37.0281 57.4274 37.0253C58.085 37.0267 58.7891 37.0158 59.4433 37.0301C59.4871 37.9304 59.4413 38.8717 59.4556 39.7734C59.4864 41.749 59.431 43.8093 59.496 45.7801L59.498 47.5868L59.5021 47.6374C59.5759 48.6977 59.5076 51.0178 59.5076 51.0178L59.5137 52.022C59.5137 52.022 59.5411 56.6793 59.4837 56.7641C59.4809 57.3704 59.5076 59.387 59.4426 60.0911C59.4155 60.4079 59.4545 60.439 59.4297 60.9203C59.5131 61.042 59.4761 61.9033 59.4741 62.1023H64.0514C64.3638 62.1023 66.0803 62.0558 66.2861 62.1556L66.3011 62.2103C66.269 62.2513 66.1938 62.3046 66.1555 62.306C65.4323 62.3224 64.493 62.3115 63.7869 62.3108L56.5777 62.3203L17.7735 62.3169L8.32556 62.3101L5.28083 62.308C5.04772 62.308 3.8487 62.3415 3.71677 62.2609C3.68532 62.174 3.68122 62.2157 3.71882 62.133C3.88835 62.0469 4.62936 62.1023 4.86384 62.1036L7.12311 62.1064L14.9174 62.0989C14.3466 61.5205 14.5722 61.2724 14.3815 61.0167C14.3603 61.0208 14.1997 61.0502 14.1887 61.0434C12.3916 59.9045 10.496 58.9147 8.66598 57.8291C8.89772 57.3417 9.64831 56.1242 9.9402 55.6307L12.019 52.0616C12.1263 51.927 12.531 51.2099 12.6349 51.0294C13.3008 49.8892 13.9597 48.7455 14.6119 47.5971C14.7671 47.3695 15.0603 46.8171 15.2134 46.5533C15.2927 46.4165 15.331 46.3017 15.4602 46.219C15.692 46.1636 15.9237 46.3735 16.1999 46.5068C16.6018 46.733 17.0065 46.9545 17.4146 47.1705C18.4311 47.7242 19.4052 48.2178 20.4183 48.7558C20.4669 48.6013 20.5243 48.4386 20.5605 48.2814C20.6193 48.0271 20.3301 47.9567 20.1962 47.8104C20.0998 47.7058 20.0136 47.5821 19.9309 47.4672C20.0724 46.8041 20.4532 46.2463 20.7075 45.6249C20.7205 45.5935 20.6419 45.4069 20.6685 45.346C20.7676 45.1191 20.89 44.8983 21.0035 44.6775C21.2393 44.2277 21.4649 43.7738 21.6809 43.3144C20.8039 42.3908 20.5885 40.0557 21.3473 38.9989C21.5456 38.7234 21.7698 38.4711 21.9687 38.1943C22.0036 37.4505 22.0425 36.8271 22.4548 36.1831C22.9169 35.4613 23.502 35.0395 24.3319 34.8522C24.7708 34.3108 25.2643 33.9266 26.0149 33.9628C26.3157 33.9772 26.7915 34.1782 27.0622 34.0216C27.2584 33.9075 27.2714 33.5916 27.2973 33.3825C26.9487 33.3257 26.7156 33.2724 26.4134 33.0543C25.8645 32.6578 25.5535 31.8478 26.0053 31.2626C26.3116 30.8661 26.7443 30.8463 27.2057 30.7868C27.1688 30.119 27.2761 29.5106 28.0691 29.421C29.0528 29.3103 29.9271 30.6467 29.1779 31.4021C29.2654 31.6379 29.3549 31.8874 29.4431 32.1226C29.7706 32.999 29.8711 33.3503 28.8286 33.524C28.8689 33.8692 28.9168 34.2137 28.9715 34.5569C29.4288 35.2391 29.668 35.7518 30.1917 37.0397C30.1917 37.0397 31.3278 37.039 31.5301 37.0383C48.2696 36.9831 46.4648 37 56.0342 37.0219Z" fill="#9AA5BB"/>
<path d="M53.716 42.9084L59.2695 42.8975L59.2825 55.2835C59.2934 56.3287 59.2968 57.3732 59.2913 58.4185C59.2843 59.7834 59.2705 60.8276 59.2749 62.1085L53.7201 62.1215C53.6941 55.7292 53.787 49.2979 53.716 42.9084Z" fill="#EEF3FC"/>
<path d="M35.6554 42.8949H46.4535C48.3457 42.8942 50.4163 42.8415 52.2941 42.8935L52.2955 62.1305L51.1388 62.1141L44.739 62.1038L43.2009 62.1059C41.1481 62.1175 38.8102 62.1531 36.769 62.0956L36.7888 62.0546C36.888 61.8434 36.9078 61.8147 36.8312 61.6C36.3753 61.1878 36.1921 61.0292 35.6589 60.7011L35.6541 48.4682C35.6541 46.6396 35.6192 44.7105 35.6561 42.8949H35.6554Z" fill="#ECEFF6"/>
<path d="M36.8452 44H43.2054L43.204 56.345C43.204 58.2522 43.1801 60.2039 43.202 62.1064C41.1491 62.118 38.8112 62.1535 36.77 62.0961L36.7898 62.0551C36.889 61.8439 36.9088 61.8151 36.8322 61.6005L36.8459 44.0007L36.8452 44Z" fill="#ECEFF6"/>
<path d="M41.8565 53.002C41.9256 53.1865 41.8812 55.7732 41.8935 56.2032L41.1784 55.4287L40.3062 54.5312C40.8004 54.0212 41.3479 53.5105 41.8559 53.002H41.8565Z" fill="#EEF3FC"/>
<path d="M35.6556 42.8949H46.4537C48.3459 42.8942 50.4165 42.8415 52.2943 42.8935L52.2957 62.1305L51.139 62.1141L51.1322 44.0146L44.729 43.9996L44.7392 62.1045L43.2011 62.1066C43.1799 60.2041 43.2039 58.2518 43.2032 56.3453L43.2046 44.0002H36.8444L36.8307 61.6C36.3748 61.1878 36.1916 61.0292 35.6584 60.7011L35.6536 48.4682C35.6536 46.6396 35.6187 44.7105 35.6556 42.8949Z" fill="#EEF3FC"/>
<path d="M46.0743 52.9019C46.5419 53.2765 47.2569 54.0305 47.702 54.4775L46.9247 55.2466C46.6451 55.5118 46.3594 55.7716 46.0688 56.0252L46.0743 52.9019Z" fill="#EEF3FC"/>
<path d="M21.1612 59.9309C21.8004 59.2356 22.3855 58.4926 22.9659 57.7406C24.342 55.9571 25.902 53.8209 26.7038 51.697C27.1946 50.2703 27.6103 48.8156 28.0744 47.3808C28.1722 47.0786 28.4155 45.9842 28.6555 45.8755C28.7539 45.8946 28.7238 45.868 28.7676 45.9322C28.7471 46.1667 28.5304 46.7204 28.4593 46.9768C28.2234 47.8237 27.8222 48.856 27.6342 49.6934L27.6253 49.7344C28.2761 51.1768 29.1456 52.561 29.7301 54.0479C30.1703 55.1676 30.5456 56.3017 30.9537 57.433L31.4828 58.8959C31.5812 59.168 31.826 59.6793 31.7337 59.9322C31.7337 60.6589 31.7556 61.3937 31.7474 62.1184L28.7211 62.104C28.7184 61.9974 28.7307 61.7998 28.6753 61.7212L28.4846 61.7273C28.4695 61.8394 28.4695 61.9919 28.4654 62.1074L22.9604 62.1013C22.432 61.2878 21.7573 60.6801 21.1592 59.9309H21.1612Z" fill="#ECEFF6"/>
<path d="M28.7036 52.5225C28.8991 52.8034 29.1506 53.3653 29.2874 53.6853C30.1466 55.6909 30.7598 57.8121 31.5836 59.8314C31.6143 59.9066 31.669 59.9135 31.7346 59.9313C31.7346 60.6579 31.7565 61.3928 31.7483 62.1174L28.722 62.103C28.7063 61.4912 28.7183 60.8813 28.7077 60.2573L28.6879 55.7258C28.679 54.7899 28.6393 53.4344 28.7029 52.5225H28.7036Z" fill="#EEF3FC"/>
<path d="M28.4842 61.8092C28.4028 61.5118 28.4527 57.9346 28.452 57.5299L28.4479 54.0381C28.4479 53.3784 28.4247 52.5574 28.4794 51.9155C28.5867 52.1404 28.6605 52.2751 28.7036 52.5232C28.64 53.4352 28.6797 54.7907 28.6886 55.7266L28.7084 61.8304L28.4848 61.8099L28.4842 61.8092Z" fill="#9AA5BB"/>
<path d="M29.058 35.0337C29.3048 35.4069 29.6493 36.2532 29.8373 36.6887C30.4115 37.9916 30.9194 39.3226 31.3583 40.6774C31.5709 41.3405 31.7452 42.0385 31.9517 42.707C32.3194 43.9006 32.7125 45.1105 33.0119 46.3239C32.2183 46.5112 31.4267 46.7108 30.6392 46.9228C30.4279 46.4169 30.2892 46.0956 30.0014 45.6308H27.7024C26.3407 45.6321 24.8669 45.6581 23.5161 45.6089C24.0377 44.5138 24.6229 43.4371 25.1554 42.3468C25.236 42.182 25.3317 42.018 25.4261 41.8607C27.0872 41.2872 28.0962 40.5421 28.4141 38.6875C28.6301 37.4283 28.2309 36.2505 27.4987 35.2258C28.0271 35.4507 28.7299 35.6646 29.058 35.0344V35.0337Z" fill="#ECEFF6"/>
<path d="M29.5997 41.0059L29.6872 41.0605C29.733 41.1556 29.8328 41.5268 29.8417 41.6122C29.8984 42.1516 30.6887 44.8422 30.5977 45.1949C30.5499 45.186 30.4514 45.1819 30.4419 45.1218C30.3489 44.5537 29.4336 41.3504 29.5997 41.0059Z" fill="#9AA5BB"/>
<path d="M15.5482 46.4316C15.8538 46.5376 16.5408 46.9279 16.8313 47.0858C17.3591 47.3716 17.9128 47.6621 18.4351 47.9574C16.2906 51.7794 14.0143 55.6 11.8992 59.4281C11.081 58.979 9.69395 58.2353 8.95703 57.7369L13.3512 50.2023C14.045 49.0156 14.8018 47.5732 15.5489 46.4323L15.5482 46.4316Z" fill="#ECEFF6"/>
<path d="M18.652 48.0742C18.803 48.1412 18.9712 48.2314 19.1154 48.3135C19.6069 48.5924 20.1299 48.8173 20.6228 49.0914C20.067 50.1503 19.4333 51.2461 18.8488 52.2961L15.2846 58.7438C15.1649 58.9639 14.251 60.7207 14.1648 60.7665C13.4676 60.3652 12.7758 59.9537 12.0908 59.5319C12.4422 58.8169 12.9091 58.0636 13.3015 57.3663L15.962 52.6823L17.5514 49.9186C17.8508 49.3929 18.3061 48.5206 18.6526 48.0742H18.652Z" fill="#ECEFF6"/>
<path d="M23.4229 45.8341L24.289 45.832C24.3888 50.2255 23.7072 52.0712 21.3119 55.8535C20.6461 56.9056 19.8948 58.08 19.0677 58.9974C18.8503 59.238 18.1831 60.2531 18.3027 60.4821C18.4894 60.8403 19.9276 61.8377 20.2838 62.1057L16.5158 62.107L16.0981 62.1009C16.5397 61.4651 17.0825 60.3598 17.4872 59.6454L20.9476 53.4042C21.4138 52.5442 22.3024 50.84 22.865 50.1024C22.4556 49.7955 21.128 49.1584 20.588 48.8426C20.67 48.5876 20.7466 48.3791 20.845 48.1296C22.3578 48.6888 22.0263 47.5478 22.6552 46.7392C22.7481 46.7419 22.8172 46.7419 22.9102 46.7392C23.0886 46.6318 23.323 46.0487 23.4222 45.8354L23.4229 45.8341Z" fill="#ECEFF6"/>
<path d="M32.2294 42.9216L34.229 42.9141L34.2536 54.1476L34.2556 57.5895C34.2556 58.1165 34.2782 58.9279 34.2337 59.4174C34.2399 59.4509 34.2454 59.4844 34.2501 59.5179C34.2686 59.6389 34.2946 59.7558 34.2201 59.8569L34.164 59.8221C33.9022 59.3723 33.6376 57.8458 33.4825 57.2791C32.643 54.2241 31.6839 51.2026 30.6045 48.2235C30.4835 47.8893 29.8389 46.0319 29.8745 45.8508L29.9237 45.8494C30.193 46.116 30.3981 46.8099 30.5369 47.1913C30.6353 47.1482 30.7269 47.0922 30.8301 47.1011C30.8698 47.1879 30.8547 47.1845 30.867 47.2665C30.9204 47.6281 31.0639 47.9925 31.2027 48.3295C31.2628 48.4751 31.3326 48.6412 31.431 48.7636C31.5643 48.9297 31.8227 48.7212 31.9642 48.8442C32.0401 48.9194 32.0791 48.9215 32.1809 48.9276C32.2363 48.9119 32.5371 48.741 32.5179 48.7226C32.7312 48.9263 33.3164 48.592 33.4558 48.4122C33.5105 48.3418 33.4203 47.9091 33.3909 47.8127C33.3423 47.6008 33.274 47.3711 33.2302 47.1537C33.1639 46.8235 33.2466 46.4927 33.1632 46.1659C32.9035 45.0729 32.5637 43.988 32.2288 42.9195L32.2294 42.9216Z" fill="#EEF3FC"/>
<path d="M34.2337 59.4181C34.2399 59.4516 34.2454 59.4851 34.2501 59.5186C34.2686 59.6396 34.2946 59.7564 34.2201 59.8576L34.164 59.8228C33.9022 59.373 33.6376 57.8465 33.4825 57.2798C32.643 54.2248 31.6839 51.2033 30.6045 48.2242C30.4835 47.8899 29.8389 46.0326 29.8745 45.8515L29.9237 45.8501C30.193 46.1167 30.3981 46.8105 30.5369 47.192C31.7181 50.1191 32.5589 53.4113 33.5255 56.426C33.8202 57.3461 34.015 58.4624 34.2344 59.4181H34.2337Z" fill="#ECEFF6"/>
<path d="M26.2721 35.452C26.7048 35.5013 27.0452 36.0857 27.2264 36.4474C27.9674 37.9253 27.5408 39.9241 26 40.6781C26.0991 40.4662 26.445 39.8599 26.4204 39.6801L26.3609 39.635C26.2769 39.6596 26.2215 39.7238 26.1846 39.8011C25.1975 41.873 24.0565 43.9416 23.1057 46.0266L22.8268 46.5604C22.3496 46.3362 21.3721 45.7285 20.8594 45.4332C21.0214 45.0203 21.2757 44.5972 21.4739 44.1986C21.8649 43.4118 22.2908 42.64 22.6853 41.8553C23.3709 40.4607 24.0695 39.073 24.7805 37.6915C25.1065 37.0537 25.4326 36.4022 25.7758 35.7733C25.905 35.5361 26.0171 35.517 26.2721 35.4507V35.452Z" fill="#ECEFF6"/>
<path d="M20.8195 49.2329C21.1846 49.384 22.1484 49.9425 22.5326 50.1544L18.3518 57.6664C17.8117 58.631 17.2683 59.6399 16.7111 60.5915C16.5382 60.4131 16.4924 60.368 16.2873 60.2292C15.3692 59.6194 15.3241 59.9817 14.5845 60.4985C14.7991 60.0221 15.1088 59.5046 15.3617 59.0404L16.7282 56.5412C18.0612 54.0885 19.4257 51.6521 20.8195 49.2336V49.2329Z" fill="#ECEFF6"/>
<path d="M31.952 59.9612C32.6588 59.9427 33.4279 59.9421 34.1347 59.9468C34.618 60.2442 36.3892 61.3974 36.6572 61.7693C36.6476 61.8965 36.6271 61.8835 36.5375 62.0065C36.2935 62.1672 35.2291 62.1091 34.8771 62.1091L31.9568 62.1077C31.9499 61.392 31.9486 60.6769 31.952 59.9612Z" fill="#ECEFF6"/>
<path d="M19.5247 58.8135C19.6601 58.8374 20.8933 59.7076 20.9828 59.8279C20.9828 59.8594 20.9883 60.0563 20.9999 60.0706C21.5536 60.7583 22.2037 61.3763 22.7198 62.094L21.6876 62.0961C20.4441 62.1022 20.4257 61.9696 19.4174 61.1972C19.1009 60.9545 18.7372 60.7467 18.4487 60.4562C18.7741 59.791 18.984 59.3125 19.5254 58.8135H19.5247Z" fill="#ECEFF6"/>
<path d="M20.9077 45.7188C21.3377 45.9095 22.0411 46.3545 22.4718 46.6081C22.3754 46.8234 22.2838 47.0504 22.1799 47.2609C21.9851 47.6561 21.8818 48.1585 21.3466 48.0525L21.3076 48.056C21.1873 48.0061 21.0438 47.9514 20.9289 47.8946C21.026 47.6855 21.1292 47.4872 21.1839 47.2637L21.1586 47.2521C20.961 47.4824 20.8879 47.6752 20.7293 47.9158L20.4682 47.7265C20.5372 47.5815 20.7245 47.2356 20.7115 47.1003L20.6801 47.0866C20.5167 47.2404 20.5194 47.5754 20.3116 47.6458C19.9685 47.3204 20.7211 46.0599 20.9091 45.7188H20.9077Z" fill="#ECEFF6"/>
<path d="M21.3076 48.0551C21.3555 47.8664 21.3719 47.7625 21.4778 47.595L21.5236 47.5752C21.5229 47.716 21.4143 47.9259 21.3466 48.0523L21.3076 48.0558V48.0551Z" fill="#9AA5BB"/>
<path d="M32.8246 46.5922L32.9032 46.6011C33.0003 46.7337 33.2149 47.9977 33.2874 48.2465C33.3045 48.306 33.2074 48.4516 33.098 48.4673C32.934 48.3688 32.9463 48.0161 32.7925 47.8903L32.7323 47.9108C32.6804 48.1029 32.882 48.3654 32.8103 48.5486C32.7002 48.6129 32.7576 48.6006 32.6332 48.5883C32.3919 48.401 32.4644 48.1528 32.3229 47.9778H32.2695C32.0815 48.2109 32.4281 48.3244 32.3119 48.6375C32.223 48.7134 32.1731 48.7045 32.0556 48.7134C31.9722 48.4837 31.9031 48.1761 31.8136 47.9737C31.7233 47.9389 31.7691 47.945 31.6734 47.9703C31.6317 48.2219 31.9646 48.4358 31.7104 48.6628L31.6434 48.6573C31.3754 48.4146 31.0609 47.4022 30.981 47.0365C31.5941 46.8827 32.2087 46.7337 32.8246 46.5908V46.5922Z" fill="#ECEFF6"/>
<path d="M15.1414 60.3307C15.3096 60.3108 15.4607 60.3156 15.6275 60.3252C16.9509 60.4045 16.551 61.1838 15.9488 61.8927C15.0054 62.5913 14.0012 61.0108 15.1414 60.33V60.3307Z" fill="#ECEFF6"/>
<path d="M27.1953 34.5145C27.3901 34.2506 27.2254 34.1843 27.5631 33.9594C27.7176 33.6381 27.5132 33.1555 27.6964 32.9907C27.9493 33.0837 28.03 33.4296 28.5871 33.5082C28.6295 33.783 28.8899 34.9185 28.7402 35.0921C28.408 35.477 27.5022 35.0873 27.2377 34.7141L27.1953 34.5138V34.5145Z" fill="#ECEFF6"/>
<path d="M28.9865 31.5532C29.072 31.6257 29.4493 32.8404 29.5156 33.053C29.0487 33.3224 28.9489 33.3107 28.4096 33.2909C28.2038 33.1597 28.0835 33.0373 27.9058 32.8705C27.7725 32.7762 27.4977 32.8746 27.3897 32.6914C27.3063 32.5506 27.268 32.3318 27.443 32.2464C27.6057 32.2669 27.7007 32.3674 27.8094 32.4836L27.836 32.5123C27.8873 32.4289 27.9529 32.2847 27.9981 32.1931C27.9775 32.0639 27.9447 31.9695 27.9974 31.8547C28.1676 31.6729 28.601 31.692 28.9865 31.5532Z" fill="#ECEFF6"/>
<path d="M27.2376 34.715C27.1173 34.6391 26.8541 34.4395 26.861 34.2891C26.9615 34.2508 26.9109 34.2529 27.0182 34.2898C27.1016 34.38 27.1207 34.393 27.157 34.5154H27.1952L27.2376 34.7143V34.715Z" fill="#ECEFF6"/>
<path d="M39.814 20.1039L49.2729 20.1258C49.4848 20.4334 49.6994 20.7875 49.8799 21.1156C50.3037 21.8881 50.8103 22.6428 51.2286 23.4159C51.0167 23.8274 49.9154 25.2678 49.6112 25.6854C48.5612 27.1518 47.4989 28.6092 46.425 30.0577C46.1386 30.4282 45.8385 30.8302 45.5363 31.1836C45.3675 31.3784 44.77 32.1645 44.6299 32.2117C44.4487 32.1734 43.9053 31.3682 43.7364 31.1569C43.4479 30.811 43.1602 30.4344 42.8874 30.0755C41.6426 28.4513 40.4107 26.8168 39.1919 25.1728C38.8166 24.6587 38.215 23.902 37.8965 23.392C38.3148 22.6858 38.7271 21.9756 39.1317 21.2612C39.3307 20.9146 39.5986 20.4238 39.8153 20.1025L39.814 20.1039Z" fill="#9AA5BB"/>
<path d="M41.7402 23.5104L47.5064 23.5083C47.3662 24.0415 47.1126 24.7812 46.9451 25.3171L45.4747 29.9136C45.3318 30.3107 44.9593 31.8434 44.638 31.9773L44.5826 31.9459C44.342 31.5077 44.1841 30.9349 44.0255 30.455L43.2079 27.9496C42.8887 27.0042 42.5742 26.0574 42.2639 25.1093C42.0998 24.6205 41.8605 23.9957 41.7402 23.5097V23.5104Z" fill="#ECEFF6"/>
<path d="M42.9326 20.2979L46.2528 20.3054C46.3964 20.5686 46.6172 21.1455 46.7389 21.449C46.9802 22.0506 47.2618 22.7034 47.4635 23.3125H46.2809L41.7466 23.307C42.0501 22.3835 42.5519 21.205 42.9333 20.2979H42.9326Z" fill="#ECEFF6"/>
<path d="M38.2046 23.5123L41.5057 23.5103C42.0642 25.1174 42.6049 26.7313 43.1271 28.3508C43.4443 29.3256 43.7684 30.2669 44.065 31.2499C43.9563 31.1385 43.4799 30.5007 43.3582 30.3448C42.758 29.5854 42.1701 28.8163 41.5945 28.0384C40.4885 26.5536 39.2717 25.021 38.2053 23.5123H38.2046Z" fill="#ECEFF6"/>
<path d="M47.7071 23.5088C48.7079 23.4978 49.9336 23.4821 50.9262 23.5204C50.7088 23.9299 49.7948 25.1015 49.4626 25.5486C48.5281 26.8051 47.6333 28.1059 46.7043 29.3583C46.2565 29.9851 45.765 30.586 45.2749 31.1807C46.0706 28.6166 46.9224 26.0846 47.7071 23.5088Z" fill="#ECEFF6"/>
<path d="M39.9281 20.2957C40.8018 20.2711 41.8203 20.2848 42.698 20.3005C42.333 21.2794 41.9017 22.3362 41.5024 23.3035L41.0239 23.3069H38.1665C38.7448 22.298 39.332 21.2944 39.9281 20.2957Z" fill="#ECEFF6"/>
<path d="M46.4849 20.2998C47.3441 20.2793 48.3025 20.2923 49.1639 20.3046C49.3272 20.535 49.6109 21.0538 49.7654 21.3184L50.9323 23.3117C49.8939 23.3336 48.7585 23.3165 47.7181 23.3097C47.5725 23.0301 47.3284 22.4025 47.1972 22.0813C46.9723 21.531 46.6646 20.8549 46.4849 20.2991V20.2998Z" fill="#ECEFF6"/>
<path d="M32.9301 22.7144C33.1071 22.8675 33.4469 23.4759 33.747 23.7302C33.9657 23.9161 34.5878 24.3099 34.6985 24.4732C34.6322 24.625 34.2446 24.8055 34.0778 24.9374C33.5877 25.3243 33.3293 25.6647 32.982 26.1645L32.9034 26.1747C32.7346 26.0503 32.5322 25.6121 32.2615 25.3448C31.8835 24.9709 31.5772 24.7932 31.189 24.4616C31.5226 24.1567 31.9607 23.953 32.2807 23.6105C32.5404 23.333 32.6771 22.9837 32.9308 22.7144H32.9301Z" fill="#9AA5BB"/>
<path d="M32.923 23.0591C33.0208 23.1637 33.1821 23.407 33.3045 23.5479C33.6429 23.9375 33.9601 24.1665 34.3764 24.4652C33.69 25.0552 33.5226 25.0675 32.9313 25.8529C32.9128 25.8352 32.6257 25.4599 32.5614 25.3867C32.2073 24.9827 31.9291 24.7729 31.5039 24.4673C32.154 24.0154 32.5108 23.7481 32.9224 23.0598L32.923 23.0591Z" fill="#EEF3FC"/>
<path d="M56.143 22.7116C56.2763 22.7957 56.6461 23.5087 56.912 23.7432C57.2265 24.0214 57.6633 24.167 57.9066 24.409C57.9183 24.5396 57.7221 24.6134 57.6024 24.6749C56.9031 25.0358 56.5771 25.4959 56.1977 26.1617C56.0056 26.105 55.6686 25.4289 55.4724 25.2225C55.2051 24.9401 54.6356 24.7255 54.436 24.4678C54.516 24.2477 54.9433 24.1417 55.1928 23.9168C55.6296 23.5237 55.8285 23.1922 56.143 22.7109V22.7116Z" fill="#9AA5BB"/>
<path d="M56.1686 23.0889C56.2862 23.1846 56.3683 23.3937 56.4749 23.5305C56.803 23.9509 57.1469 24.1737 57.5974 24.4328C56.8242 24.8826 56.6403 25.0754 56.1529 25.8109C56.1037 25.8055 55.941 25.5437 55.9034 25.4808C55.63 25.0241 55.1727 24.7534 54.7358 24.441C55.3866 24.0979 55.7578 23.6959 56.1686 23.0889Z" fill="#EEF3FC"/>
<path d="M38.5383 14.9121C38.6641 14.9716 38.7475 15.1213 38.8199 15.2396C39.1945 15.85 39.7708 16.2314 40.356 16.6245C40.1728 16.7797 39.8528 16.9759 39.6402 17.1461C39.1439 17.5439 38.9922 17.8529 38.6299 18.3267C38.5239 18.2419 38.1466 17.5986 37.9094 17.3635C37.6667 17.1229 36.9975 16.8022 36.9141 16.6245C37.0221 16.3907 37.5771 16.1795 37.8082 15.9505C38.1555 15.606 38.3011 15.3312 38.539 14.9128L38.5383 14.9121Z" fill="#9AA5BB"/>
<path d="M38.5868 15.2686C38.6777 15.3362 38.891 15.6979 39.0031 15.8202C39.3189 16.1654 39.6204 16.389 40.0025 16.6508C39.2772 17.1266 39.1132 17.3022 38.6155 17.9845C38.1698 17.2749 37.8937 17.0302 37.167 16.6275C37.8526 16.2721 38.1657 15.8927 38.5868 15.2686Z" fill="#EEF3FC"/>
<path d="M44.6528 11.9785L44.7376 12.0175C44.9625 12.3333 45.1888 12.6642 45.452 12.954C45.6611 13.1844 46.3153 13.4339 46.3741 13.6581C46.3085 13.7668 45.6789 14.1182 45.454 14.352C45.1143 14.7061 45.0186 14.8503 44.7369 15.2659L44.7 15.2707C44.5783 15.2167 44.1743 14.5461 43.9774 14.3684C43.7724 14.1831 43.1722 13.8126 43.0566 13.6547C43.1024 13.464 43.5816 13.2521 43.8045 13.0401C44.2017 12.6621 44.35 12.4146 44.6528 11.9785Z" fill="#9AA5BB"/>
<path d="M44.6899 12.272C44.7446 12.3191 44.9367 12.5987 44.9866 12.6732C45.325 13.1798 45.606 13.337 46.1248 13.6214C45.461 14.0589 45.1568 14.2701 44.7412 14.9435C44.6243 14.9059 44.2668 14.3378 44.1068 14.21C43.856 14.0097 43.5894 13.8189 43.333 13.6289C44.0412 13.1559 44.2094 12.9638 44.6899 12.272Z" fill="#EEF3FC"/>
<path d="M50.257 14.9844C50.5161 15.0165 50.8169 15.7069 51.0896 15.94C51.4369 16.236 51.7575 16.3967 52.1253 16.651C51.307 17.1268 50.9263 17.4337 50.4238 18.2376L50.3473 18.267C50.2577 18.2185 49.6008 17.1527 49.2754 17.0577C49.2248 17.0427 48.7053 16.7029 48.6943 16.6824C48.7326 16.4521 49.4101 16.1889 49.6657 15.8881C49.9508 15.5531 50.0533 15.4615 50.2393 15.0268L50.257 14.9844Z" fill="#9AA5BB"/>
<path d="M50.3318 15.2974C50.3496 15.3138 50.6846 15.7561 50.7181 15.8005C51.0182 16.1983 51.3258 16.3727 51.7332 16.6393C51.0571 17.1109 50.8466 17.2962 50.3599 17.96C50.2389 17.8663 50.0099 17.4596 49.8738 17.3222C49.6018 17.0487 49.2634 16.8402 48.9448 16.6242C49.6305 16.3419 49.9565 15.8996 50.3325 15.2974H50.3318Z" fill="#EEF3FC"/>
</svg>
