<svg width="24" height="24" viewBox="0 0 24 24" fill="none" xmlns="http://www.w3.org/2000/svg">
<path d="M12.3592 7.00466C12.8141 6.97402 13.2442 7.09417 13.6081 7.37276C14.0075 7.67817 14.269 8.12892 14.3357 8.62644C14.3662 8.86392 14.3525 9.20037 14.3537 9.4463C14.3545 9.61907 14.3662 9.99563 14.3381 10.14C14.3181 10.2422 14.2737 10.3381 14.2088 10.4198C14.0952 10.5657 13.9279 10.6601 13.744 10.682C13.5582 10.7054 13.3711 10.6522 13.2258 10.5345C12.9507 10.3123 12.9641 10.0728 12.9651 9.75151L12.9671 9.20541C12.9679 8.95261 12.9974 8.6595 12.7747 8.48715C12.706 8.43372 12.6108 8.38635 12.5206 8.38897C12.3099 8.39502 12.0926 8.42002 11.8826 8.43856L8.77694 8.70627C8.45519 8.73409 8.12961 8.75647 7.80928 8.79215C7.55039 8.82098 7.39498 9.04918 7.39215 9.29814C7.38992 9.48803 7.38972 9.68116 7.38992 9.87327L7.38972 16.4648C7.38972 16.5515 7.38972 16.6406 7.39275 16.7235C7.39942 16.9466 7.55403 17.1748 7.78786 17.204C8.04533 17.2363 8.30806 17.2538 8.56736 17.276L11.7434 17.5506C11.8432 17.5592 11.9394 17.5685 12.0457 17.5768C12.4052 17.6048 12.781 17.7135 12.9345 17.2766C12.9766 17.1571 12.9673 17 12.9669 16.8716L12.9651 16.3316C12.9641 16.0393 12.9329 15.8304 13.1106 15.5796C13.2385 15.4323 13.3796 15.34 13.5782 15.3182C13.765 15.2964 13.9529 15.3498 14.1001 15.4668C14.456 15.7548 14.3381 16.2271 14.3547 16.6315C14.3808 17.269 14.3422 17.8175 13.9178 18.3301C13.6043 18.7123 13.1494 18.952 12.6561 18.9946C12.4107 19.0173 11.9556 18.9627 11.6894 18.9397L8.42043 18.6571C8.15689 18.6347 7.66902 18.6073 7.43034 18.5507C7.15245 18.4835 6.89377 18.3531 6.67489 18.1697C6.30545 17.8608 6.05202 17.3835 6.01099 16.9041C5.99543 16.721 6.00089 16.4955 6.00109 16.3088L6.00068 9.55093C6.00068 9.36466 5.99563 9.17476 6.02393 8.99031C6.07748 8.64438 6.22582 8.31983 6.45278 8.05252C6.67691 7.78662 6.97198 7.58947 7.30403 7.48404C7.5708 7.40018 7.86607 7.3897 8.14558 7.36611L12.3592 7.00466Z" fill="#002E75"/>
<path d="M16.3108 9.90351C16.4272 9.88174 16.6795 9.94342 16.7643 10.02C16.9739 10.2093 17.1795 10.4919 17.3559 10.7117L18.6245 12.2891C18.772 12.4726 18.9586 12.6564 18.9923 12.8983C19.0212 13.1061 18.9685 13.2799 18.8387 13.4432C18.6948 13.6244 18.5489 13.8051 18.4036 13.9859L17.1324 15.5673C17.0354 15.6879 16.9062 15.8669 16.7908 15.957C16.3678 16.2878 15.7385 16.0153 15.6783 15.4867C15.636 15.1174 15.8913 14.8888 16.099 14.6308L16.5433 14.0788C16.6457 13.9496 16.7498 13.8216 16.8555 13.695C15.9596 13.6839 15.0461 13.6922 14.149 13.6924L13.4416 13.6936C13.2805 13.694 13.0964 13.7033 12.9392 13.6764C12.6148 13.6212 12.3909 13.3311 12.3848 13.0116C12.382 12.8278 12.4517 12.65 12.5791 12.5169C12.6807 12.4127 12.8125 12.3431 12.956 12.3177C13.0429 12.3026 13.2668 12.3071 13.3614 12.3071L14.0946 12.3079C15.0083 12.3085 15.9394 12.3165 16.8517 12.3046L16.1376 11.4182C15.9634 11.2017 15.7064 10.9504 15.6783 10.6706C15.6384 10.2754 15.9141 9.94 16.3108 9.90351Z" fill="#002E75"/>
</svg>
