<svg width="21" height="14" viewBox="0 0 21 14" fill="none" xmlns="http://www.w3.org/2000/svg">
<path fill-rule="evenodd" clip-rule="evenodd" d="M0 0.982987C3.45874e-08 0.199185 0.881854 -0.268304 1.54023 0.166471L10.652 6.18396C11.2399 6.57247 11.2401 7.4286 10.652 7.817L1.54023 13.8335C0.881854 14.2683 -3.45874e-08 13.8008 0 13.017V0.982987ZM1.9814 11.1789L8.3213 7.00144L1.9814 2.8144V11.1789Z" fill="#F6F9FF"/>
<path fill-rule="evenodd" clip-rule="evenodd" d="M9.907 0.982987C9.907 0.199185 10.7889 -0.268304 11.4472 0.166471L20.559 6.18396C21.1469 6.57247 21.1471 7.4286 20.559 7.817L11.4472 13.8335C10.7889 14.2683 9.907 13.8008 9.907 13.017V0.982987ZM11.8884 11.1789L18.2283 7.00144L11.8884 2.8144V11.1789Z" fill="#F6F9FF"/>
</svg>
