<svg width="32" height="32" viewBox="0 0 32 32" fill="none" xmlns="http://www.w3.org/2000/svg">
<path fill-rule="evenodd" clip-rule="evenodd" d="M15.3115 3.01865C22.4806 2.63767 28.6018 8.13905 28.9844 15.3069C29.3671 22.4748 23.8669 28.5963 16.6978 28.981C9.52665 29.3657 3.40147 23.8639 3.01884 16.6932C2.63581 9.52284 8.13998 3.39964 15.3115 3.01865ZM26.6258 15.4807C26.3394 9.61815 21.3575 5.09623 15.4936 5.37651C9.6216 5.65762 5.09104 10.6472 5.37788 16.518C5.66474 22.3888 10.6601 26.9141 16.5314 26.6215C22.3944 26.3293 26.9123 21.3433 26.6258 15.4807Z" fill="#002E75"/>
<path d="M14.1849 13.4745C14.8408 13.4766 15.0899 13.4932 15.7458 13.4924C16.1618 13.492 16.4922 13.5393 16.8016 13.845C17.1062 14.1463 17.1514 14.4874 17.151 14.898C17.1506 15.3143 17.151 15.7302 17.151 16.1453V19.4052C17.7991 19.4093 18.6658 19.2815 19.1323 19.7163C19.3657 19.9366 19.5001 20.2423 19.5051 20.5633C19.5104 20.8835 19.3871 21.1921 19.1631 21.4206C19.0123 21.5727 18.8216 21.6791 18.6132 21.7276C18.3482 21.7876 17.7835 21.7679 17.4884 21.7675L15.78 21.765L14.7356 21.7491C14.4516 21.7496 13.9613 21.7693 13.7036 21.706C13.5138 21.6591 13.3395 21.5642 13.1977 21.4298C12.9663 21.2062 12.834 20.8997 12.8295 20.5783C12.8287 20.254 12.9585 19.9429 13.1899 19.7156C13.6568 19.2611 14.5314 19.386 15.1902 19.3881C15.1766 19.0355 15.1902 18.5657 15.1902 18.2053V15.8463C14.5281 15.8446 13.6827 15.9733 13.1903 15.5138C12.9668 15.3021 12.8361 15.0099 12.8278 14.7021C12.8192 14.3828 12.9405 14.0733 13.1636 13.8444C13.4739 13.5238 13.7719 13.4831 14.1849 13.4745Z" fill="#002E75"/>
<path d="M15.8414 8.91826C16.4854 8.8262 17.0833 9.27006 17.1811 9.91324C17.279 10.5564 16.8404 11.1581 16.1981 11.2621C15.5475 11.3669 14.9364 10.9214 14.8369 10.2704C14.7379 9.61898 15.1891 9.01155 15.8414 8.91826Z" fill="#002E75"/>
</svg>
