<svg width="22" height="18" viewBox="0 0 22 18" fill="none" xmlns="http://www.w3.org/2000/svg">
<path fill-rule="evenodd" clip-rule="evenodd" d="M12.1337 0.000514726C12.5594 -0.00114529 12.9852 0.0012325 13.4109 0.00732092C15.0119 0.0230969 16.9065 0.0804453 17.5803 1.87033C17.8891 2.69009 17.8855 3.60811 17.8978 4.47408C17.9058 5.14828 17.9081 5.82282 17.9053 6.49703C17.9909 6.45745 18.077 6.41957 18.1639 6.38359C18.8817 6.09356 19.6847 6.10276 20.3962 6.40855C21.4331 6.85442 22.1624 7.89959 21.9688 9.06448C21.9146 9.39048 21.7912 9.68174 21.6768 9.98975L20.7649 12.4449C20.6425 12.7748 20.516 13.1329 20.3752 13.4533C20.0097 14.2853 19.3031 14.9793 18.5077 15.4003C18.3075 15.5063 18.112 15.5845 17.902 15.6672C17.908 16.0755 17.9017 16.4853 17.905 16.8935C17.9061 17.0512 17.914 17.2578 17.8794 17.41C17.8486 17.5395 17.7845 17.6587 17.6934 17.7556C17.5564 17.9011 17.3565 17.9965 17.1561 17.9995C16.9493 18.0042 16.7493 17.9256 16.6 17.7817C16.4985 17.6812 16.4277 17.5536 16.3955 17.4142C16.3568 17.2534 16.3687 16.9288 16.3692 16.7464V15.9425C16.051 15.9298 15.6396 15.9437 15.3134 15.9437L5.63344 15.9414C5.61776 16.3609 5.63805 16.7939 5.63119 17.2157C5.62403 17.659 5.27334 18.0276 4.8218 17.9984C4.61529 17.9865 4.42204 17.8912 4.28672 17.7341C4.03042 17.438 4.10357 17.023 4.09809 16.653C4.09369 16.3333 4.09014 15.9821 4.11049 15.6657C4.00489 15.6378 3.8557 15.5752 3.75427 15.5285C2.68766 15.0369 1.91117 14.257 1.49559 13.1505L0.609546 10.7611L0.311946 9.96176C0.187092 9.62554 0.0595736 9.32401 0.0158477 8.96314C-0.0333445 8.54728 0.0325195 8.12558 0.205982 7.74483C0.78467 6.4703 2.34292 5.87939 3.63891 6.31364C3.80145 6.36816 3.9413 6.42906 4.09696 6.50157C4.10851 5.78228 4.08822 5.05691 4.10335 4.33568C4.12755 3.16798 4.12811 1.85809 4.99202 0.962457C5.94668 -0.0272311 7.59016 0.0183076 8.8721 0.00391782C8.94609 0.00253397 9.02057 0.00154774 9.09455 0.00127097L12.1337 0.000514726ZM20.4489 8.77862C20.5157 8.02221 19.6122 7.57376 18.9601 7.74672C18.2057 7.91112 18.109 8.41735 17.8659 9.02705L17.2613 10.5195C17.1284 10.8497 16.9986 11.1747 16.8528 11.4977C16.5685 12.1272 15.9908 12.5542 15.3036 12.6226C14.8875 12.6638 14.4476 12.6483 14.0279 12.6483L8.59029 12.6476C8.19368 12.6478 7.79687 12.648 7.40026 12.6483C7.00066 12.6486 6.64711 12.6671 6.26208 12.5296C5.77282 12.3596 5.37266 11.998 5.15209 11.5272C5.01651 11.2366 4.88224 10.8751 4.76206 10.5751L4.12665 9.00738C3.90966 8.48182 3.82255 8.00161 3.21694 7.79626C2.99146 7.71962 2.8113 7.70798 2.57401 7.72706C2.24102 7.76168 1.97661 7.8818 1.75937 8.14413C1.35674 8.63069 1.63014 9.10106 1.81799 9.60671L2.75062 12.1197C3.00583 12.8077 3.14271 13.25 3.746 13.7324C4.1632 14.0623 4.65866 14.2776 5.18366 14.3571C5.53103 14.4077 5.81481 14.3984 6.16439 14.3979H15.8071C16.1214 14.3982 16.4318 14.4057 16.745 14.3661C17.4942 14.2718 18.2203 13.8915 18.6903 13.2923C19.0107 12.884 19.2151 12.2101 19.4005 11.7113L20.0103 10.071C20.1198 9.76493 20.4235 9.06453 20.4489 8.77862ZM12.0266 1.54212C10.8456 1.53686 9.66457 1.53964 8.48357 1.55044L8.48432 1.55119C7.80167 1.56891 6.58864 1.53847 6.07871 2.0541C5.70083 2.43633 5.6775 3.29644 5.6511 3.80707C5.62333 4.48287 5.63139 5.18468 5.63194 5.86519V7.57014C5.63165 7.74419 5.61072 8.56323 5.65824 8.6856C5.9319 9.38748 6.22469 10.0922 6.50633 10.7921C6.59461 11.011 6.71423 11.0919 6.94634 11.1029C7.19162 11.1148 7.43803 11.1094 7.68358 11.1094H14.4773C14.6822 11.1094 14.8821 11.1156 15.0868 11.0942C15.331 11.0688 15.3949 11.0037 15.4922 10.7815C15.6833 10.3443 15.8521 9.89912 16.0333 9.45773C16.1321 9.21112 16.2934 8.8462 16.3625 8.60015C16.3759 8.55273 16.3715 8.09904 16.3715 8.02654L16.37 6.9867C16.37 5.90895 16.3844 4.81989 16.3467 3.74657C16.3283 3.21986 16.2805 2.35631 15.865 2.0004C15.3523 1.56121 14.2731 1.56805 13.6375 1.55422C13.1006 1.54259 12.5635 1.5388 12.0266 1.54212Z" fill="#F6F9FF"/>
</svg>
