<svg width="24" height="14" viewBox="0 0 24 14" fill="none" xmlns="http://www.w3.org/2000/svg">
<path d="M22.6667 4.79897H19.8562L15.6752 0.409914C15.5516 0.279677 15.4046 0.176408 15.2428 0.106056C15.081 0.0357048 14.9075 -0.000338799 14.7324 2.39991e-06H4.02667C3.80718 -6.49918e-05 3.59107 0.0567503 3.39752 0.165406C3.20397 0.274063 3.03896 0.431199 2.91714 0.622869L0.0952395 5.06591C0.032888 5.16459 -0.000249611 5.28043 1.4157e-06 5.39884V10.1978C1.4157e-06 10.569 0.140477 10.9251 0.390526 11.1875C0.640574 11.45 0.979713 11.5975 1.33333 11.5975H3.10476C3.23591 12.2755 3.58632 12.8851 4.09662 13.323C4.60691 13.7608 5.2457 14 5.90476 14C6.56382 14 7.20262 13.7608 7.71291 13.323C8.2232 12.8851 8.57361 12.2755 8.70476 11.5975H15.2952C15.4264 12.2755 15.7768 12.8851 16.2871 13.323C16.7974 13.7608 17.4362 14 18.0952 14C18.7543 14 19.3931 13.7608 19.9034 13.323C20.4137 12.8851 20.7641 12.2755 20.8952 11.5975H22.6667C23.0203 11.5975 23.3594 11.45 23.6095 11.1875C23.8595 10.9251 24 10.569 24 10.1978V6.19867C24 5.82745 23.8595 5.47143 23.6095 5.20893C23.3594 4.94644 23.0203 4.79897 22.6667 4.79897ZM4.21375 1.46605C4.23111 1.43873 4.25462 1.41632 4.28219 1.4008C4.30976 1.38528 4.34055 1.37713 4.37184 1.37707L14.2459 1.39535C14.2963 1.39558 14.3446 1.41679 14.3802 1.45434L17.767 4.82484L1.99767 4.80655L4.21375 1.46605ZM5.90476 12.7972C4.95048 12.7566 4.22774 11.9355 4.22342 10.9329C4.21907 9.92547 4.94589 9.0924 5.90476 9.05155C6.90241 9.00905 7.7328 9.88473 7.72827 10.9329C7.72377 11.9764 6.898 12.8396 5.90476 12.7972ZM18.0952 12.7972C17.1647 12.7802 16.4762 11.9739 16.4399 10.9976C16.402 9.97952 17.1248 9.06929 18.0952 9.05155C19.0811 9.03353 19.8481 9.96329 19.8095 10.9976C19.7725 11.9908 19.0419 12.8146 18.0952 12.7972ZM22.4101 10.0426C22.4101 10.0957 22.39 10.1465 22.3543 10.184C22.3186 10.2215 22.2701 10.2426 22.2196 10.2426L20.9212 10.2167C20.7901 9.53868 20.4397 8.9291 19.9294 8.49126C19.4191 8.05341 18.7803 7.81422 18.1212 7.81422C17.4622 7.81422 16.8234 8.05341 16.3131 8.49126C15.8028 8.9291 15.4524 9.53868 15.3212 10.2167H8.73075C8.5996 9.53868 8.24919 8.9291 7.7389 8.49126C7.22861 8.05341 6.58981 7.81422 5.93075 7.81422C5.27169 7.81422 4.6329 8.05341 4.1226 8.49126C3.61231 8.9291 3.2619 9.53868 3.13075 10.2167L1.71795 10.2243C1.66743 10.2243 1.61898 10.2032 1.58326 10.1657C1.54754 10.1282 1.52747 10.0774 1.52747 10.0243L1.49771 6.2027L22.1898 6.22099C22.2404 6.22099 22.2888 6.24206 22.3245 6.27956C22.3603 6.31705 22.3803 6.36791 22.3803 6.42095L22.4101 10.0426Z" fill="#F6F9FF"/>
</svg>
