<svg width="80" height="74" viewBox="0 0 80 74" fill="none" xmlns="http://www.w3.org/2000/svg">
<path d="M18.9881 7.02422C19.2162 7.00391 19.4576 7.00391 19.6873 7.00391C22.7795 7.00703 25.7436 8.23828 27.9271 10.4281C29.8545 12.3594 31.0584 14.8953 31.3365 17.6094C31.4146 18.3961 31.4006 19.2141 31.4021 20.0055L31.4053 23.057L48.5865 23.0641C48.5975 21.9992 48.5834 20.9297 48.5881 19.8648C48.5912 19.1758 48.5725 18.493 48.6318 17.8047C48.8732 15.0695 50.0506 12.5008 51.9647 10.5328C54.1443 8.31016 57.1209 7.05 60.2342 7.03203C63.4186 7.01719 66.4787 8.26641 68.7436 10.5055C70.2795 12.0258 71.4545 13.9781 72.0131 16.075C72.4764 17.8148 72.3959 19.4938 72.4022 21.2766L72.4037 25.9328L72.4068 41.6156C73.0193 41.6117 73.9037 41.5578 74.467 41.6797C76.4045 42.1141 76.8615 44.1047 76.3904 45.8078C76.1912 46.5266 76.0311 47.4344 75.8631 48.1703L74.6326 53.7266L73.5193 58.6133C73.4436 58.9477 73.3701 59.2922 73.2912 59.625C72.9287 61.1508 72.9928 61.9516 71.592 62.8508C72.3045 62.85 79.342 62.832 79.4787 62.8953L79.4912 62.9852C79.3264 63.1359 77.4326 63.0562 77.0897 63.0562H13.524L6.14668 63.0539C5.38262 63.0555 0.67793 63.1187 0.412305 63.0227L0.393555 62.9383C0.468555 62.8656 0.520117 62.8398 0.642773 62.8422C1.45605 62.8594 2.28574 62.85 3.09824 62.85L8.41621 62.857C6.90684 62.0523 6.96621 60.825 6.60684 59.3164C6.14043 57.3172 5.69199 55.3133 5.25996 53.3062C4.79668 51.2422 4.35059 49.1734 3.92324 47.1016C3.58262 45.4227 2.95996 43.7453 4.32324 42.3055C5.16777 41.4133 6.40605 41.6148 7.52871 41.6094C7.59824 36.25 7.54512 30.7266 7.53574 25.3547L7.52559 21.0633C7.52246 19.5797 7.45918 18.2836 7.75996 16.8148C8.17949 14.8133 9.09199 12.9484 10.4139 11.3883C12.5646 8.83516 15.6568 7.26016 18.9873 7.02187L18.9881 7.02422Z" fill="#002C6E"/>
<path d="M7.92656 23.4652C12.5867 23.4152 17.3781 23.4621 22.0477 23.4676H27.4727C28.625 23.466 29.8352 23.4457 30.9797 23.4808C31.0383 26.698 30.9727 30.0394 30.9836 33.2621L30.9883 41.7683C30.9891 43.3316 30.9961 44.8996 30.9914 46.4605C30.9891 47.3988 30.6586 48.2519 29.9695 48.8949C29.107 49.6996 28.1867 49.7012 27.0805 49.6855C26.7398 49.6808 26.0195 49.7168 25.7125 49.6637C25.1523 49.566 25.1906 49.4269 24.5391 49.4129L23.8625 48.7379C24.1828 48.5308 24.607 48.3519 24.957 48.1605C25.618 47.7988 26.1992 47.2144 26.5344 46.5371C26.6188 46.3668 26.718 46.1207 26.6508 45.9371C26.175 45.5941 26.8352 44.8074 26.7883 44.1723C26.7383 44.0973 26.7047 44.0746 26.5992 44.0582C26.268 44.0066 25.2719 43.9848 25.0141 44.1527C24.8656 44.2488 24.6664 45.2777 24.618 45.4879C24.5414 45.5012 24.3156 45.5512 24.257 45.5707C23.6984 45.7551 22.7891 47.0293 22.5391 47.5176C22.4 47.423 22.2594 47.3207 22.1219 47.223C22.1555 47.391 24.107 49.298 24.3578 49.5324C22.6438 50.3957 20.9961 51.3855 19.25 52.2004C17.9906 52.7887 17.2648 53.1191 16.1938 51.9176C15.7805 52.4347 15.3695 52.7949 14.7734 53.0988L14.7352 53.1722C14.5844 52.9965 13.6984 53.309 13.4641 52.1418C13.3242 51.4418 13.1992 50.616 13.093 49.8965C13.1648 49.6777 13.1641 49.5785 13.1781 49.3543C13.0477 49.0012 12.8695 48.3215 12.7625 47.9426C12.5023 47.0105 12.2492 46.0762 12.0039 45.1402C11.7617 44.2144 11.5984 43.1652 10.9 42.4613C9.98672 41.5402 9.14141 41.616 7.92891 41.6223L7.92578 23.466L7.92656 23.4652Z" fill="#FBFCFF"/>
<path d="M16.5006 44.5977C16.7092 45.0766 17.3037 45.6211 17.8576 45.3781C18.0443 45.2969 18.1873 45.1414 18.2529 44.9484C18.2826 44.8586 18.3061 44.7437 18.324 44.65C19.3639 45.0477 20.3318 45.8734 21.2271 46.5352C21.4279 46.6836 21.9654 47.0812 22.1217 47.2234C22.1553 47.3914 24.1068 49.2984 24.3576 49.5328C22.6436 50.3961 20.9959 51.3859 19.2498 52.2008C17.9904 52.7891 17.2646 53.1195 16.1936 51.918C15.7803 52.4352 15.3693 52.7953 14.7732 53.0992L14.735 53.1727C14.5842 52.9969 13.6982 53.3094 13.4639 52.1422C13.324 51.4422 13.199 50.6164 13.0928 49.8969C13.1646 49.6781 13.1639 49.5789 13.1779 49.3547C13.3014 49.1336 13.4084 48.3633 13.5092 48.0617C13.9256 46.8078 14.1873 45.1492 15.7107 44.8016C15.9084 44.7562 16.3561 44.6859 16.5006 44.5984V44.5977Z" fill="#FFB700"/>
<path d="M16.421 43.5282C16.0671 43.2352 15.8671 43.0712 15.671 42.6306C15.0749 41.3032 15.6132 39.9266 17.2054 39.8235C17.8733 39.7806 18.3429 39.9016 18.8475 40.3579C19.4499 40.9024 19.7483 41.511 19.0311 42.0821C19.0335 42.5391 19.1264 43.6696 18.7913 44.0337C18.5405 44.3071 18.3093 44.1087 18.3241 44.6485C18.3061 44.7423 18.2827 44.8571 18.253 44.947C18.1874 45.1391 18.0436 45.2954 17.8577 45.3766C17.3038 45.6204 16.7093 45.0751 16.5007 44.5962C16.4827 44.2376 16.4718 43.8829 16.421 43.5274V43.5282Z" fill="#002C6E"/>
<path d="M17.0288 42.0905C17.6217 42.0717 18.2147 42.0709 18.8077 42.0873C18.8507 43.0897 19.0632 44.4186 17.5999 44.0514C17.2053 43.8662 17.1132 43.6702 16.8053 43.3795C16.5522 43.1413 15.8569 42.6202 16.4225 42.2897C16.7905 42.2733 16.7577 42.567 17.01 42.6623L17.0655 42.617C17.0928 42.4483 17.053 42.2631 17.028 42.0897L17.0288 42.0905Z" fill="#FBFCFF"/>
<path d="M16.7153 43.6063C17.2028 44.1773 18.0263 44.343 18.1013 44.4469C18.1357 44.6914 18.0794 44.8727 17.9614 45.0844C17.4263 45.4211 17.013 45.0727 16.7036 44.6227C16.7013 44.2758 16.6997 43.9531 16.7153 43.6055V43.6063Z" fill="#FBFCFF"/>
<path d="M31.4006 23.4677C32.2131 23.4474 33.06 23.4545 33.8732 23.4654C38.76 23.5341 43.6811 23.3779 48.5639 23.4709C48.6092 23.7584 48.5936 24.3685 48.592 24.6771L48.5873 26.7873L48.5951 34.5435L48.592 42.999V45.2951C48.592 46.9279 48.5748 48.0013 49.7943 49.2529C51.1654 50.6591 52.9561 50.3373 54.7373 50.3685C53.8943 52.1763 53.0678 54.0216 52.1631 55.7959L46.8889 55.7849C45.9623 55.7818 44.8982 55.806 43.985 55.7748L43.9865 55.1591C45.6201 55.0568 47.3311 55.0466 48.942 54.7107C48.9475 54.3927 48.999 53.7545 48.8623 53.4966C48.3568 53.0498 46.0303 53.0271 45.3014 53.0263C45.4131 52.2818 45.5279 51.5263 45.6818 50.792C45.8443 50.0177 43.5037 50.1365 43.5537 50.7068C43.6186 51.4568 43.8303 52.2677 43.8803 53.0334L39.8897 53.0357C39.1092 53.0365 37.9459 53.0131 37.2037 53.1123C37.1811 52.481 37.1865 51.9591 37.2404 51.3302C37.3936 51.1216 37.5443 50.9388 37.5404 50.6646C37.5311 50.0013 35.5748 50.1138 35.3068 50.4857C35.1389 50.7185 35.2951 51.0279 35.4928 51.2271C35.5693 51.9162 35.5795 52.3959 35.5647 53.0841C34.8115 53.1013 33.46 53.149 32.7959 53.538C32.6584 53.6185 32.6811 54.5873 32.8248 54.6326C34.26 55.0888 36.2568 55.1193 37.7592 55.1638V55.7529L29.6521 55.7584L27.2514 52.0474C26.9014 51.506 26.3084 50.6576 26.0146 50.1224C26.8256 50.1107 27.767 50.1459 28.5545 50.0638C29.8342 49.9318 31.0561 48.6763 31.31 47.4427C31.4482 46.8021 31.4123 46.0474 31.4107 45.3881L31.4061 43.0427L31.4084 34.6873L31.4154 30.0693C31.3787 29.4498 31.4084 28.4927 31.4068 27.8521L31.4014 23.4662L31.4006 23.4677Z" fill="#FBFCFF"/>
<path d="M31.4009 23.4677C32.2134 23.4474 33.0603 23.4545 33.8735 23.4654C38.7603 23.5341 43.6813 23.3779 48.5642 23.4709C48.6095 23.7584 48.5938 24.3685 48.5923 24.6771L48.5876 26.7873L48.5954 34.5435C48.3853 34.4154 47.0704 34.4771 46.722 34.4896C45.879 34.5201 44.9634 34.4466 44.1306 34.4982C43.8884 34.513 43.6485 34.5498 43.4134 34.6091C42.4345 34.8474 36.8634 36.806 36.3267 36.5584C36.2985 36.4904 36.261 36.4209 36.3204 36.3474C36.8767 35.6607 38.2126 34.9935 38.8251 34.4302C37.2118 34.4654 35.5985 34.4802 33.9853 34.474C33.5009 34.4709 32.0165 34.3779 31.4899 34.4834C31.4517 34.4912 31.4212 34.6365 31.4079 34.6888L31.4149 30.0709C31.3782 29.4513 31.4079 28.4943 31.4063 27.8537L31.4009 23.4677Z" fill="#FBFCFF"/>
<path d="M48.5638 23.4712C48.6091 23.7587 48.5935 24.3688 48.592 24.6774L48.5873 26.7876L48.5951 34.5438C48.3849 34.4157 47.0701 34.4774 46.7216 34.4899C45.8787 34.5204 44.9631 34.447 44.1302 34.4985C43.8881 34.5134 43.6482 34.5501 43.4131 34.6095C42.4341 34.8478 36.8631 36.8063 36.3263 36.5587C36.2982 36.4907 36.2607 36.4212 36.3201 36.3478C36.8763 35.661 38.2123 34.9938 38.8248 34.4306C37.2115 34.4657 35.5982 34.4806 33.9849 34.4743C32.3193 34.4636 30.5284 34.7784 28.9999 34C27.4076 33.1892 28.7192 33.0142 28.9999 32.5C29.7422 31.1401 37.3612 32.0956 38.3459 32.0829C38.6443 31.7626 39.0248 31.3517 39.5162 31.447C39.7646 31.6267 39.6662 31.8751 39.574 32.1243C40.2646 32.1149 40.9662 32.1329 41.6537 32.1056C42.8966 31.2251 44.0521 30.1087 45.356 29.3079C45.8146 29.0259 46.2404 28.9376 46.7709 28.886C46.4998 29.6337 45.5341 31.3235 45.1185 32.079C46.2591 32.0907 47.3998 32.0923 48.5404 32.0821C48.5865 30.0837 48.5084 28.0142 48.542 26.0118C48.5529 25.3556 48.4865 24.0509 48.5646 23.472L48.5638 23.4712Z" fill="#D9E4F8"/>
<path d="M49.0149 23.4768L71.9969 23.458V41.6135C70.6063 41.6111 69.7782 41.8674 69.0665 43.1494C68.9337 41.9307 68.8251 40.3674 67.7993 39.5275C66.8805 38.776 65.2462 38.8518 64.5063 39.8205C63.9962 40.4885 63.9563 41.4213 63.7352 42.2002C63.3891 43.4197 62.8438 44.1369 63.6571 45.3385C63.2868 45.9729 62.768 48.0893 62.4805 48.9174C62.3844 49.083 62.3212 49.2119 62.1884 49.351C62.0149 49.4229 61.3462 49.226 61.1282 49.2158C61.0009 49.1971 60.9251 48.9736 60.8305 48.9127C59.5727 48.1033 59.4134 46.876 58.6493 45.6705L58.6212 45.626C58.3298 45.6979 57.693 45.9768 57.3696 46.1064C57.5751 46.5229 57.7719 46.9455 58.0079 47.3463C58.154 47.5947 58.3212 47.7104 58.5118 47.9174C58.1751 47.7729 58.1032 47.7096 57.7251 47.7385C57.6196 47.8033 57.6509 47.7588 57.6227 47.8721C57.6993 48.0182 57.6946 48.0174 57.8118 48.1299L57.7899 48.1729C57.7024 48.2471 57.7321 48.2189 57.6735 48.3244C57.7118 48.6119 58.1727 48.701 58.429 48.9479C57.5766 48.9861 56.5962 48.8783 55.7157 49.1041C55.3352 49.2018 55.0915 49.6369 54.9305 49.9783C53.261 49.9494 51.3837 50.2869 50.0805 49.0049C48.9391 47.8822 49.004 46.758 49.0118 45.283L49.0188 43.0885L49.0055 34.5307C49.0016 33.7072 48.9829 32.8393 49.0079 32.0197L49.0141 23.4768H49.0149Z" fill="#FBFCFF"/>
<path d="M49.4815 32.1257C50.0159 31.2132 50.63 30.4241 51.7182 30.1413C51.7917 30.1226 51.8651 30.1046 51.9385 30.0874C51.837 30.7077 51.6135 31.3397 51.4628 31.9132C51.1643 33.0507 50.9034 34.1101 49.5815 34.3796C49.451 34.4062 49.1362 34.4835 49.0065 34.5296C49.0026 33.7062 48.9839 32.8382 49.0089 32.0187L49.055 32.1007C49.2346 32.139 49.2948 32.1304 49.4815 32.1257Z" fill="#D9E4F8"/>
<path d="M19.2864 7.41572C19.4333 7.40947 19.5794 7.40557 19.7263 7.40635C22.6888 7.41182 25.5278 8.59541 27.6169 10.6962C28.4692 11.5478 29.1864 12.5251 29.7427 13.5946C30.9349 15.8907 30.9903 17.5282 30.9856 20.0032L30.9778 23.0634L19.7747 23.0548L7.93251 23.0579L7.92626 20.2313C7.92548 19.6626 7.90751 18.9665 7.95048 18.4063C8.1372 15.8556 9.15126 13.436 10.8395 11.5149C13.0411 9.00791 15.9739 7.63604 19.2864 7.4165V7.41572Z" fill="#FBFCFF"/>
<path d="M59.614 7.46036C63.95 7.01739 68.3906 9.70645 70.4718 13.4283C71.8523 15.8971 71.9921 17.4236 71.9992 20.1338L72.0062 23.0736L61.3593 23.0604H49.0179V19.8666C49.0179 19.0408 48.9976 18.1986 49.0929 17.3791C49.3703 15.09 50.3453 12.9416 51.8859 11.2252C53.8515 8.98223 56.6375 7.6252 59.6148 7.46036H59.614Z" fill="#FBFCFF"/>
<path d="M5.8694 41.8258C6.58971 41.7735 7.16549 41.9141 7.74596 42.3625C8.4944 42.9399 8.59362 43.6946 8.82799 44.568L9.51784 47.2438L11.3749 54.2336C11.6569 55.2899 11.9413 56.5352 12.253 57.5578C13.4803 57.6 14.9108 57.568 16.1491 57.568L24.2202 57.5594C24.2186 58.2844 24.2717 60.8094 24.1358 61.3485C24.0546 61.6735 23.8921 61.9727 23.6624 62.2164C23.2296 62.6828 22.7694 62.8344 22.1577 62.8586L12.9928 62.8563L10.5756 62.8617C9.41158 62.8688 8.00377 62.9492 7.39909 61.5938C7.06784 60.8508 6.88971 59.6782 6.70612 58.861C6.33737 57.2758 5.98112 55.6875 5.63659 54.0969C5.21784 52.2117 4.81002 50.3242 4.41237 48.4344C4.16237 47.2867 3.8858 46.068 3.69284 44.9149C3.56784 44.1696 3.83424 43.2266 4.31002 42.6461C4.73893 42.1219 5.20143 41.9016 5.8694 41.8266V41.8258Z" fill="#FBFCFF"/>
<path d="M73.3717 41.8576C73.5037 41.8482 73.6365 41.8404 73.7686 41.8349C74.4201 41.8107 75.0982 42.0162 75.5639 42.481C76.8693 43.7849 76.2615 45.4545 75.9232 46.974L75.0436 50.9295C74.5412 53.2201 74.0256 55.5076 73.4967 57.7927C73.2787 58.7568 73.067 59.724 72.849 60.688C72.6998 61.3498 72.5928 61.7021 72.1225 62.2037C71.4076 62.9662 70.4021 62.8459 69.4568 62.8482L67.2053 62.8521L58.799 62.849C58.0178 62.8576 56.7639 62.9802 56.1436 62.4498C55.4936 61.8943 55.7631 60.667 55.7373 59.9021C55.7115 59.1349 55.6748 58.367 55.6553 57.6021C56.8818 57.5584 58.3201 57.588 59.5576 57.5841H67.7107C68.0318 56.5857 68.3131 55.3537 68.5967 54.3216L70.724 46.4435C70.8396 46.017 70.9475 45.5748 71.0568 45.1466C71.4576 43.5755 71.5521 42.2959 73.3717 41.8576Z" fill="#FBFCFF"/>
<path d="M56.8554 49.1235C57.3374 49.1055 57.9897 49.1422 58.4827 49.1594C59.0679 49.6094 60.0522 50.5297 60.735 50.8657C60.8319 50.9883 61.9569 51.6782 62.2155 51.8321C63.421 52.5493 64.7241 53.7352 66.1054 52.6813C65.9397 53.2461 65.4272 54.5485 65.1249 55.0586C65.0233 55.2305 63.4264 55.175 63.0897 55.1743L59.8585 55.1657C59.2663 54.461 58.6413 53.8024 58.0452 53.0938C58.1569 52.8125 58.3155 52.6563 58.2475 52.3672L58.1952 52.3438C58.0077 52.5383 57.1546 54.736 57.028 55.1172C54.6827 55.1282 55.6327 56.8836 55.4468 58.3758C55.4108 58.6625 54.9897 59.3164 54.8225 59.5961C54.146 59.6055 53.1311 59.3758 52.7733 58.7774C52.5171 58.3493 53.221 56.7977 53.3913 56.3454C53.846 55.136 54.3272 53.936 54.8343 52.7477C55.278 51.6993 55.7507 50.5704 56.3155 49.5758C56.4257 49.3821 56.6639 49.2282 56.8554 49.1227V49.1235Z" fill="#FBFCFF"/>
<path d="M66.307 43.1572L66.6078 44.5314C67.7289 44.6885 68.968 46.1064 68.7859 47.2666C68.7367 47.5791 68.4813 47.983 68.4492 48.2182C67.9578 49.3385 67.3547 50.4189 66.8039 51.5111C66.7094 51.6986 66.6062 51.9119 66.4984 52.0916C66.3828 52.1783 66.1828 52.4963 66.0891 52.633L66.1039 52.6814C64.7227 53.7353 63.4195 52.5494 62.2141 51.8322C61.9555 51.6783 60.8305 50.9885 60.7336 50.8658C60.6547 50.765 60.4219 50.6088 60.3086 50.526C60.6062 50.133 60.6898 49.7416 61.093 49.2799C62.0414 49.6549 62.9312 50.1635 63.868 50.5643C63.9687 50.6072 63.9906 50.5861 64.0898 50.5635C64.2039 50.4682 64.3281 50.2768 64.2172 50.1432C64.1195 50.2104 64.1125 50.2799 64.0727 50.3963L64.0562 50.4447C63.4891 50.2549 62.732 49.8682 62.1711 49.5986C62.4289 49.4041 62.525 49.2393 62.4797 48.9182C62.7672 48.0908 63.2859 45.9736 63.6562 45.3393L63.6797 45.3643C64.3023 44.7783 64.5594 44.808 65.3828 45.001C65.4555 44.7064 65.4969 43.9611 65.5062 43.6533C65.9062 43.4986 65.9922 43.4471 66.3055 43.1572H66.307Z" fill="#FFB700"/>
<path d="M66.3072 43.1572L66.608 44.5314C66.5846 44.8486 66.5604 44.9189 66.3166 45.1283C65.9861 45.4127 65.5697 45.4713 65.3838 45.001C65.4564 44.7064 65.4979 43.9611 65.5072 43.6533C65.9072 43.4986 65.9932 43.4471 66.3064 43.1572H66.3072Z" fill="#FBFCFF"/>
<path d="M43.9827 55.9805L52.0757 55.9969C51.8608 56.457 51.4835 57.2227 51.3483 57.6883C51.7757 57.868 52.2218 58.0781 52.646 58.2695C52.4444 58.2656 52.2616 58.2266 52.0601 58.2148C51.2554 58.1664 50.4069 58.0258 49.6069 58.1758C49.3515 58.2234 49.0655 58.3961 48.9382 58.6227C48.4155 59.5516 49.5257 60.0359 50.1819 60.3664C50.5085 60.5266 50.9187 60.7 51.2562 60.8516C50.7101 60.9391 49.9007 60.9859 49.5569 61.457C49.1476 62.018 49.421 62.5141 49.9062 62.8664L43.4312 62.868C44.2952 62.2016 43.9905 61.4773 43.9843 60.4898L43.9819 55.9805H43.9827Z" fill="#FBFCFF"/>
<path d="M33.5634 55.9725C34.9665 55.9623 36.3688 55.9623 37.772 55.9725C37.7915 57.7271 37.7665 59.4873 37.7673 61.2428C37.7673 61.9248 37.6665 62.4162 38.2907 62.8576L34.2563 62.8592C33.6212 62.8592 32.6267 62.8912 32.0165 62.8131L32.0306 62.7803C32.2946 62.7279 32.7181 62.5397 32.9829 62.4342C33.6938 62.1498 34.4376 61.9123 35.1407 61.6123C35.3306 61.5186 35.5696 61.3654 35.629 61.149C35.7188 60.8217 35.4087 60.6467 35.254 60.4279C34.7329 59.6889 33.8712 59.9756 33.1306 59.7748C32.8024 59.6857 32.5142 59.3053 32.1923 59.2076C31.9735 59.1428 31.6649 59.4123 31.4978 59.5357C31.154 59.0131 30.9603 58.299 30.7063 57.7139C30.4337 57.0857 30.1532 56.5857 29.8149 55.9936C31.0181 55.9529 32.3501 55.9764 33.5634 55.9732V55.9725Z" fill="#FBFCFF"/>
<path d="M7.32666 41.8492C7.91104 41.8414 8.6501 41.7844 9.22041 41.8601C10.8642 42.0797 11.2806 43.2203 11.6415 44.5797C12.1181 46.375 12.5899 48.1391 13.0938 49.8961C13.2001 50.6156 13.3243 51.4414 13.4649 52.1414C13.6985 53.3086 14.5853 52.9953 14.736 53.1719C14.8478 53.7539 15.0087 54.5125 15.0517 55.0937C14.0118 55.0992 12.8454 55.1031 11.8149 55.0617C11.0821 52.4211 10.4032 49.7531 9.69697 47.1047C9.39463 45.9711 9.1251 44.8219 8.81025 43.6898C8.55557 42.775 8.14775 42.3055 7.32744 41.8492H7.32666Z" fill="#FBFCFF"/>
<path d="M38.435 55.961C39.9592 55.9204 41.6881 55.9564 43.2178 55.961L43.2264 60.1618C43.228 60.8454 43.3272 61.2103 42.8655 61.6743C42.4912 61.922 41.7865 62.0321 41.3631 62.0173C40.5451 61.9884 38.6131 62.1946 38.467 61.0767C38.403 60.5868 38.4256 59.7782 38.4264 59.2696L38.435 55.961Z" fill="#FBFCFF"/>
<path d="M56.3696 55.3355C56.8587 55.3003 57.4922 55.3167 57.9915 55.3175L60.8204 55.3284C63.2149 55.3308 65.7391 55.2901 68.1235 55.3456C68.0618 55.6401 67.6766 57.1675 67.5454 57.3808L67.4313 57.4034L55.629 57.3972C55.5719 56.4862 55.3977 55.7964 56.3696 55.3355Z" fill="#FBFCFF"/>
<path d="M11.8711 55.2945L24.2148 55.2891L24.2195 57.3664L12.407 57.3734C12.2664 56.7125 12.0461 55.9563 11.8711 55.2945Z" fill="#FBFCFF"/>
<path d="M69.7127 46.6092C69.926 46.2733 70.2494 45.7663 70.1119 45.3506C69.8385 44.5217 68.6838 44.217 69.276 43.1819C70.1189 41.7092 71.1908 41.8248 72.6713 41.842C71.2096 42.8186 71.2744 43.4748 70.8572 45.1225C70.7471 45.5584 70.6346 46.0256 70.5205 46.4616L69.165 51.5397C68.8533 52.71 68.526 54.017 68.1682 55.1702L65.3525 55.1678C65.7166 54.2623 66.2119 53.0123 66.4994 52.0913C66.6072 51.9116 66.7096 51.6991 66.8049 51.5108C67.3557 50.4178 67.958 49.3381 68.4502 48.2178C68.9533 48.2592 69.9799 48.2428 70.0064 47.5475C70.0182 47.2264 69.8424 46.8991 69.7143 46.61L69.7127 46.6092Z" fill="#FBFCFF"/>
<path d="M23.2812 52.994C24.3085 52.8636 24.403 53.3175 24.8952 54.0182C26.3187 56.0487 27.7062 58.0987 29.2452 60.0425C28.9757 60.2589 28.3749 60.6214 28.4296 60.9792C28.5843 61.1706 28.8069 61.1761 29.0499 61.2206C29.2843 61.1026 29.671 60.7682 29.9483 60.5862C30.371 60.8761 32.0444 61.6237 31.8702 62.2034C31.3015 62.5823 26.3702 62.2761 25.464 62.3495C24.5585 62.4229 24.6929 61.687 24.6882 61.0651C24.6858 60.7745 24.6944 60.4237 24.6976 60.1073C24.8296 60.0675 28.353 60.0471 28.446 60.0792L28.4788 60.1456C28.3593 60.3893 27.9515 60.5573 27.8319 60.8198L27.8585 60.8729C27.9452 60.9003 27.939 60.9034 28.0265 60.8815C28.2616 60.4503 28.4202 60.5448 28.6921 60.2221C28.703 60.0425 28.7358 59.8456 28.6413 59.6761C28.3538 59.1581 27.9983 58.6651 27.6616 58.1784C27.0022 57.2354 26.3358 56.2987 25.6624 55.3659C25.1983 54.7143 24.7397 54.062 24.3077 53.3886C24.2437 53.2893 23.9851 53.1354 23.8616 53.1214C22.9007 53.0096 21.864 53.694 21.1343 54.2511C20.7093 54.5753 20.4116 54.9651 19.9194 55.2339C20.6655 54.2261 22.0671 53.3081 23.2812 52.994Z" fill="#FBFCFF"/>
<path d="M50.0775 58.3143C50.7908 58.3135 51.7166 58.3471 52.4174 58.4768C53.0463 60.0127 54.5018 59.5564 54.8057 59.8924C54.9182 60.0166 54.9221 60.2439 54.908 60.4018C54.8908 60.6041 54.3689 61.3908 54.2088 61.5197L54.1268 61.4807C53.2479 61.008 52.3768 60.8611 51.5158 60.2369C50.9877 59.8541 49.4549 59.3588 49.1572 58.7486C49.1971 58.3924 49.783 58.3338 50.076 58.3135L50.0775 58.3143Z" fill="#FBFCFF"/>
<path d="M45.2687 53.2031C46.2766 53.2367 47.8398 53.268 48.7836 53.6242C47.1109 54.2469 39.1445 54.2336 37.0469 54.1516C36.882 54.1344 36.7945 54.1383 36.6484 54.0688C37.1352 53.9164 37.1734 53.8117 37.2 53.3117C39.3672 53.2141 41.7344 53.2547 43.9148 53.25C44.2039 53.9938 44.9516 53.9141 45.268 53.2031H45.2687Z" fill="#FBFCFF"/>
<path d="M55.94 49.2069L56.3807 49.1929C55.8893 49.7819 55.3541 51.0765 55.0275 51.8249C54.1416 53.8608 53.3229 55.9249 52.5721 58.0132L52.1533 57.8265L51.5908 57.5507C51.9643 56.5241 52.6549 55.3093 53.115 54.3108C53.7682 52.8913 54.4088 51.4562 55.0994 50.0546C55.2994 49.6483 55.4986 49.3444 55.94 49.2062V49.2069Z" fill="#FBFCFF"/>
<path d="M30.9764 59.1079C31.0857 59.1462 31.2639 59.5321 31.3295 59.6556C31.2623 59.6962 31.0467 59.8243 31.0131 59.8728C30.7475 60.2618 31.1615 60.5142 31.4943 60.4603C31.5842 60.3868 31.5959 60.3767 31.6975 60.322C31.9045 60.329 32.1326 60.4509 32.3279 60.5376C32.6115 60.3454 32.7264 60.2274 32.9225 59.961C33.8912 60.0493 34.6951 59.9095 35.2732 60.7993C34.9443 60.9493 34.5936 61.0681 34.2521 61.1899C33.5248 61.447 32.7881 61.7001 32.0732 61.9892C31.642 61.2282 31.1732 61.136 30.4928 60.6993C30.1553 60.4829 29.9154 60.2532 29.542 60.054C30.0225 59.7243 30.4842 59.4642 30.9771 59.1079H30.9764Z" fill="#FBFCFF"/>
<path d="M24.3166 45.7578L24.4572 45.7609C24.6369 45.9086 24.4416 46.1828 24.3861 46.3508C24.3158 46.5641 24.1018 46.6133 24.1096 46.8227C24.3377 46.9484 25.9393 46.2016 26.3064 46.0914C26.0713 46.3484 25.908 46.3992 25.7455 46.7148L25.7799 46.7414C26.0104 46.6781 26.151 46.5625 26.3447 46.4266C26.1119 46.8461 25.8955 47.1023 25.5799 47.4625C24.9268 48.0578 24.3744 48.1148 23.6807 48.6023C23.376 48.2867 23.0439 47.9656 22.7314 47.6547C22.9213 47.1555 23.8385 45.9664 24.3166 45.7578Z" fill="#FBFCFF"/>
<path d="M64.4093 41.0649C64.9703 41.5188 65.4492 41.836 66.0476 42.236L66.0937 42.2181C66.1234 42.1274 66.1562 42.0384 66.1914 41.9501C66.3031 41.8681 66.2429 41.8853 66.3789 41.8962C66.7851 42.1696 66.4382 42.7165 66.2461 43.0103C65.9437 43.3103 65.3437 43.7579 64.9125 43.6915C64.175 43.5782 64.3148 41.5806 64.4093 41.0649Z" fill="#FBFCFF"/>
<path d="M51.4414 61.0493C51.5328 61.0493 52.5007 61.6923 52.7414 61.7704C52.9437 61.836 53.8172 62.1087 53.9 62.2103L53.8562 62.2649C53.5359 62.3892 52.4984 62.3329 52.0898 62.3267C51.8062 62.3267 49.5843 62.3962 49.5726 62.004C49.5476 61.1931 50.8414 61.1142 51.4414 61.0493Z" fill="#FBFCFF"/>
<path d="M35.742 51.1968C36.1623 51.2147 36.617 51.2108 37.0396 51.2147C37.0029 51.7007 37.0178 53.4843 36.9303 53.7382C36.8068 53.7976 36.6748 53.8374 36.5389 53.8569C35.8209 53.9616 35.7561 53.3577 35.7693 52.8077C35.7826 52.2741 35.7693 51.7296 35.7412 51.1968H35.742Z" fill="#FFB700"/>
<path d="M25.5931 44.2171C25.9048 44.1952 26.2728 44.2038 26.5892 44.2038C26.5298 44.6147 26.2946 45.4147 26.1868 45.8694C25.8235 46.0077 25.5501 46.1233 25.1985 46.2897C24.9485 46.4171 24.7423 46.489 24.479 46.5851C24.7626 45.946 24.9665 44.946 25.161 44.2327L25.5938 44.2171H25.5931Z" fill="#FFB700"/>
<path d="M43.8516 51.1357C44.507 51.2857 44.7344 51.2889 45.3977 51.1873C45.2648 51.824 45.2094 52.5232 45.0719 53.1615C45.0352 53.2404 44.9906 53.3154 44.9383 53.3842C44.7898 53.5834 44.4023 53.6443 44.275 53.4639C43.9305 52.9771 43.8883 51.7154 43.8516 51.1357Z" fill="#FFB700"/>
<path d="M59.524 47.8193C59.585 47.8787 59.7756 48.1732 59.8842 48.2936C60.2209 48.667 60.5404 48.9279 60.924 49.2436C60.6303 49.5678 60.4943 49.9264 60.335 50.3264C59.917 50.0717 59.5787 49.8537 59.1779 49.5732C59.0834 49.4146 58.7951 48.9631 58.8482 48.7936C58.9342 48.7936 58.9803 48.7959 59.0639 48.8068L59.1357 48.817L59.1553 48.7732C58.9732 48.4467 58.7771 48.5412 58.5584 48.017L58.5381 47.967C58.7709 48.1006 59.4881 48.6615 59.6951 48.6115C59.6115 48.3982 59.3748 48.2537 59.1881 48.1404L59.524 47.8193Z" fill="#FBFCFF"/>
<path d="M42.7939 55.1905L43.2166 55.1851L43.2143 55.7577L38.858 55.7546L38.4385 55.7515L38.4447 55.2116C39.8947 55.2171 41.3447 55.2101 42.7947 55.1905H42.7939Z" fill="#FBFCFF"/>
<path d="M55.2831 59.3049C55.394 59.2963 55.3979 59.2978 55.5088 59.3158C55.626 59.5244 55.4557 61.3713 55.5682 61.7736C55.6432 62.0416 55.6315 62.0439 55.7581 62.333C55.3385 62.3533 54.8393 62.3431 54.4127 62.3447C54.2643 62.3447 54.2331 62.3447 54.087 62.3213C54.0799 62.0697 54.8331 61.1056 54.969 60.7947C55.1752 60.3228 55.137 60.1642 54.9862 59.7056C55.0893 59.5353 55.1542 59.4588 55.2838 59.3056L55.2831 59.3049Z" fill="#FBFCFF"/>
<path d="M49.6639 62.3921L55.9584 62.5429L56.3639 62.853L52.4857 62.8397C51.7928 62.8382 50.9279 62.871 50.2443 62.7749C50.0889 62.753 49.7811 62.5069 49.6631 62.3921H49.6639Z" fill="#FBFCFF"/>
<path d="M31.9414 62.3743C31.9829 62.5673 32.0032 62.6157 31.9141 62.7782C31.8227 62.8485 31.7414 62.8532 31.6274 62.8548C30.2539 62.8759 28.8649 62.8665 27.4914 62.8657L25.8961 62.8642C25.6352 62.8642 25.3579 62.8642 25.0954 62.8571C24.9704 62.854 24.9571 62.8009 24.8766 62.7079C24.8344 62.5978 24.7914 62.5157 24.793 62.3985C24.8391 62.422 25.0711 62.5368 25.1063 62.5368C27.2266 62.5649 29.3641 62.5821 31.4868 62.5392C31.6633 62.5353 31.7938 62.4587 31.9422 62.3735L31.9414 62.3743Z" fill="#FBFCFF"/>
<path d="M57.9493 53.3154C58.2298 53.5131 59.2876 54.8014 59.5704 55.1318L58.8478 55.1287L57.229 55.1209C57.461 54.5162 57.7009 53.9139 57.9485 53.3154H57.9493Z" fill="#FBFCFF"/>
<path d="M58.4479 45.8291L58.5314 45.8369C58.6979 45.9744 59.3705 47.433 59.5135 47.7283C59.2822 47.951 59.1979 48.1471 58.9104 47.9549C58.7721 47.8393 58.5799 47.7182 58.4479 47.5963C58.0697 47.2463 57.8361 46.6682 57.6104 46.2033C57.883 46.0916 58.1775 45.951 58.4479 45.8291Z" fill="#FFB700"/>
<path d="M35.5648 53.3096C35.6352 53.7572 35.7367 53.9018 36.157 54.051L36.2125 54.1322C35.1906 54.0432 33.882 53.9439 32.8945 53.6557C33.7312 53.415 34.6938 53.3486 35.5641 53.3104L35.5648 53.3096Z" fill="#FBFCFF"/>
<path d="M35.3845 60.9546C35.4548 61.064 35.4353 61.0046 35.4345 61.1429C35.2579 61.4444 32.6954 62.3327 32.2087 62.514C32.1813 62.3976 32.1712 62.3358 32.1548 62.2202C32.1665 62.196 32.1774 62.1718 32.1892 62.1476C33.0923 61.7897 34.5431 61.3022 35.3837 60.9554L35.3845 60.9546Z" fill="#FBFCFF"/>
<path d="M35.686 50.4514C36.0453 50.4155 37.3633 50.2905 37.3813 50.7748C37.3 50.9381 37.3063 50.9303 37.1602 51.0397C36.711 51.0499 35.825 51.1303 35.4688 50.9038C35.3336 50.6764 35.4992 50.578 35.6867 50.4514H35.686Z" fill="#FBFCFF"/>
<path d="M49 58.9383C49.2539 59.132 49.4937 59.3633 49.7555 59.5344C50.2703 59.8711 50.8695 60.1172 51.4102 60.4078C51.593 60.5063 51.8359 60.593 51.8937 60.7773C51.8734 60.7852 51.7625 60.8266 51.7437 60.8195C50.9812 60.5305 49.857 60.0922 49.2516 59.5516C49.0016 59.3289 49.0039 59.1633 49 58.9375V58.9383Z" fill="#FBFCFF"/>
<path d="M24.4234 61.0664L24.4922 61.0703C24.475 61.6828 24.4359 62.3125 24.7453 62.8648L23.1953 62.8586C23.9188 62.3414 24.2641 61.9773 24.4234 61.0672V61.0664Z" fill="#FBFCFF"/>
<path d="M44.3614 50.4564C44.6559 50.4407 45.5122 50.4017 45.5098 50.8243C45.3833 51.0064 45.2012 51.022 44.9903 51.0665C44.6153 51.0845 44.0122 51.0939 43.763 50.7735C43.7512 50.4915 44.1442 50.49 44.3614 50.4564Z" fill="#FBFCFF"/>
<path d="M51.983 60.8462C52.2533 60.8806 53.8587 61.5126 54.1025 61.7103C54.1337 61.8321 54.1072 61.8353 54.0626 61.9767C53.5744 61.8649 52.3001 61.4907 51.9494 61.0571C51.908 61.0063 51.9556 60.9282 51.9822 60.847L51.983 60.8462Z" fill="#FBFCFF"/>
<path d="M32.068 59.374C32.1672 59.3865 32.1258 59.3647 32.2016 59.4217C32.0711 59.685 31.4687 59.8842 31.4047 60.3334C31.2625 60.2553 31.2109 60.2287 31.168 60.0912C31.2367 59.8732 31.832 59.5396 32.068 59.374Z" fill="#FBFCFF"/>
<path d="M29.4119 60.1274C29.4268 60.311 29.2963 60.5173 29.1549 60.6259C28.94 60.7899 28.8838 60.9782 28.6088 60.9806L28.5674 60.9095C28.6033 60.7485 29.2424 60.2657 29.4119 60.1274Z" fill="#FBFCFF"/>
<path d="M32.3619 59.5742L32.4369 59.5953C32.4994 59.7547 32.0705 59.9023 31.926 60.2813C31.7775 60.2453 31.7939 60.2742 31.7197 60.1797C31.7658 59.9508 32.1557 59.7227 32.3619 59.575V59.5742Z" fill="#FBFCFF"/>
<path d="M32.5893 59.8037C32.7018 59.8303 32.6643 59.7982 32.7205 59.8795C32.6908 60.0662 32.4369 60.2459 32.2893 60.3717C32.1752 60.3053 32.2041 60.3514 32.1689 60.2514C32.2588 60.0467 32.4119 59.9459 32.5885 59.8045L32.5893 59.8037Z" fill="#FBFCFF"/>
<path d="M57.8119 48.1307C58.0135 48.2205 58.2752 48.3619 58.4119 48.5354L58.4236 48.615L58.3588 48.6291L58.4119 48.5439L58.3135 48.6166C58.0299 48.4846 57.9893 48.4213 57.79 48.1729L57.8119 48.1299V48.1307Z" fill="#FBFCFF"/>
<path d="M24.4232 61.0666C24.4091 60.7166 24.4099 60.4697 24.4529 60.1182C24.5247 60.4229 24.5029 60.7588 24.4919 61.0705L24.4232 61.0666Z" fill="#FBFCFF"/>
<path d="M57.7876 47.8643C58.0149 47.8955 58.2806 48.0541 58.4368 48.2244C58.2181 48.1994 57.9243 48.0369 57.7876 47.8643Z" fill="#FBFCFF"/>
<path d="M36.1572 54.0498C36.29 54.0521 36.5268 54.0475 36.6486 54.0686C36.7955 54.1381 36.883 54.135 37.0471 54.1514C36.7533 54.1561 36.5049 54.1662 36.2127 54.1311L36.1572 54.0498Z" fill="#FBFCFF"/>
<path d="M30.9858 31H31.4133V35L30.9858 34.997V31Z" fill="#002C6E"/>
</svg>
