<svg width="80" height="74" viewBox="0 0 80 74" fill="none" xmlns="http://www.w3.org/2000/svg">
<path d="M24.0696 9.99042L24.0103 9.91152C23.7306 9.85136 23.2009 9.6873 23.0142 9.47402C22.7525 9.18105 23.0181 8.78105 23.3103 8.62558C25.1704 7.64042 27.5517 7.15058 29.629 7.53808C29.9931 7.60605 30.5728 7.76698 30.7423 8.08261C31.1337 8.8123 30.0634 9.20605 29.8853 9.76777C29.8829 9.77949 29.8806 9.7912 29.8782 9.80292C29.8603 9.9498 29.8439 9.99902 29.9181 10.1326H32.2243V21.2592V24.4154C32.2243 25.0451 32.2493 25.9107 32.1681 26.5092L32.1923 26.6178C32.247 26.5967 32.215 26.61 32.2853 26.5756L32.3282 26.7193C32.2821 27.2623 32.5361 28.1467 32.6368 28.7185C33.2853 29.1357 33.9095 29.599 34.5478 30.0326C35.5103 30.6873 36.4634 31.3428 37.4009 32.0342L37.4829 31.9959L37.5368 31.8326C37.5486 32.0076 37.5196 32.0076 37.6064 32.1256C37.9181 32.174 38.1181 31.6225 38.3196 31.46C38.4275 31.374 38.7665 31.2318 38.9087 31.1592L39.0165 31.142C40.0548 31.0654 41.4431 30.5701 42.5001 30.4209C43.1454 30.3295 43.4689 30.0678 43.872 29.5732L44.0095 29.7146C44.1673 29.7865 44.6228 30.117 44.79 30.2295C45.2236 30.5209 45.554 30.7139 46.0306 30.9225C46.2407 30.2459 47.0165 27.1248 47.2181 26.8412L47.2595 26.835C47.272 26.8678 47.2845 26.9014 47.297 26.9342C46.9642 28.3201 46.3212 30.6139 45.9228 31.8967C45.9423 32.0467 45.9634 32.1162 45.8876 32.2545C45.94 32.935 45.4571 36.6553 45.6993 36.9029C45.629 38.7185 45.6103 40.5451 45.5829 42.3623C45.5821 42.4209 45.5657 42.4467 45.5361 42.4928C45.1337 42.4185 44.4743 42.5021 44.029 42.4475C43.9759 42.342 43.9525 42.1271 43.9142 41.9842C43.9118 42.1303 43.9259 42.324 43.8642 42.4482C43.4181 42.4865 39.1462 42.4982 38.9673 42.4287C38.9142 42.3303 38.89 42.0021 38.8743 41.8725L38.8696 42.4615C38.5525 42.4646 37.7978 42.5209 37.5736 42.4139C37.5157 42.3092 37.5329 42.3193 37.5282 42.1865C37.4993 42.3053 37.5017 42.3435 37.4392 42.4451C37.1142 42.485 36.5267 42.4709 36.1853 42.4701L34.0048 42.4615C33.7626 42.4607 33.1501 42.4482 32.9243 42.481L32.9165 42.6037C32.997 44.7842 33.0939 46.9646 33.2064 49.1436C33.4329 54.1904 33.6032 59.2451 33.7814 64.2943C33.8095 65.0834 33.4212 64.5811 33.4462 65.3889C33.8212 65.5998 34.2009 65.8076 34.5736 66.0217C35.3673 66.4771 36.2736 66.6748 37.0837 67.067C37.4626 67.2506 37.4618 67.9834 37.3946 68.3279C36.5431 68.3334 29.6282 68.3943 29.2821 68.2685C29.1384 68.0967 29.1236 67.917 29.1275 67.6967C29.1415 66.885 29.1189 66.2443 29.5361 65.5217L29.5329 64.935C29.2759 64.924 28.79 64.9412 28.5962 64.7248C28.5415 64.6639 28.5181 64.4303 28.5103 64.3365C28.3306 61.9787 28.172 59.6139 27.9962 57.2568L27.647 52.6357C27.6126 52.1521 27.5501 51.6115 27.5275 51.1365C27.0064 52.2404 26.5446 53.3662 25.9907 54.4568C25.3853 55.6482 24.7915 56.8584 24.1337 58.0217C23.6571 58.8592 23.1603 59.685 22.6431 60.4982C22.3259 60.9943 21.7931 61.7732 21.5361 62.2693C21.5142 62.917 21.6064 64.7701 21.322 65.21C21.015 65.8076 20.4454 66.0818 19.7986 66.0881C20.0321 66.5185 20.8415 67.7443 20.5892 68.1943C20.1782 68.9295 19.2431 68.2076 18.7837 67.8998L17.015 66.7123C16.7079 66.506 16.3853 66.2435 16.0486 66.0928C16.0314 66.085 16.0134 66.0779 15.9962 66.0709C15.8228 65.9959 13.2837 66.0709 12.8993 66.0717C12.8548 67.3084 11.5517 67.0935 11.6736 66.0787C10.9189 66.0654 10.0486 66.1217 9.29777 66.0467C8.7298 65.9904 8.43293 65.5084 8.45637 64.942C8.50402 63.8029 8.57902 62.6459 8.64465 61.499C8.74387 59.6115 8.83293 57.724 8.91105 55.8365C9.00012 53.6826 9.09934 51.5287 9.21027 49.3756C9.2509 48.5146 9.28918 47.6482 9.33215 46.7889C9.37355 45.9459 9.53137 45.3818 10.1236 44.7686C11.015 43.8467 12.1634 44.0131 13.3267 44.0092L16.5157 44.0029C16.5501 43.5451 16.6212 43.1021 16.6493 42.6303L16.6782 42.5178C16.6728 42.1967 16.8228 41.2592 16.8642 40.856C16.9564 40.1568 17.0118 39.4529 17.1142 38.756C17.2173 38.0576 17.7993 37.9928 18.372 37.9279L18.4657 37.9443C18.5564 37.9357 18.7056 37.9521 18.7884 37.9248C19.1446 37.81 19.0431 35.9209 19.0626 35.5045C19.1423 33.7748 19.5603 31.7357 19.8837 30.0209C20.2696 27.9248 20.7251 25.842 21.2478 23.7756C21.8111 21.5537 22.604 18.0475 24.9431 17.0834C25.015 16.3014 25.1157 15.51 25.1884 14.7201C23.7157 13.9654 24.1025 11.8537 24.1806 10.4592L24.0681 9.99042H24.0696Z" fill="#002C6E"/>
<path d="M45.8851 32.2529C45.9374 32.9334 45.4546 36.6537 45.6968 36.9014C45.6265 38.717 45.6077 40.5436 45.5804 42.3607C45.5796 42.4193 45.5632 42.4451 45.5335 42.4912C45.1312 42.417 44.4718 42.5006 44.0265 42.4459C43.9734 42.3404 43.9499 42.1256 43.9116 41.9826C43.9093 42.1287 43.9234 42.3225 43.8616 42.4467C43.4155 42.485 39.1437 42.4967 38.9648 42.4271C38.9116 42.3287 38.8874 42.0006 38.8718 41.8709C38.8452 41.2248 38.8679 40.4209 38.8679 39.7553L38.8726 36.0771L38.9851 36.1225C39.3195 36.3115 40.439 37.0717 40.8015 36.8318C41.2179 36.5561 41.2804 36.9428 41.6929 36.7951C41.8077 36.7545 41.8726 36.5451 42.0655 36.4873C42.2655 36.5389 42.4202 36.5803 42.607 36.4646C42.746 36.3779 42.6702 36.2584 42.7741 36.1256L42.9906 36.1045C43.6343 35.5975 42.1984 34.8318 41.889 34.5303C41.7187 34.3639 41.5749 34.31 41.6491 34.0568C41.8585 33.8451 43.5312 33.4529 43.8905 33.4256L44.0085 33.4162C44.0937 33.3693 44.4257 33.2662 44.539 33.2279C45.2171 32.999 45.4226 32.7693 45.8859 32.2537L45.8851 32.2529Z" fill="#FBFCFF"/>
<path d="M45.8852 32.2529C45.9375 32.9334 45.4547 36.6537 45.6969 36.9014C45.6266 38.717 45.6078 40.5436 45.5805 42.3607C45.5797 42.4193 45.5633 42.4451 45.5336 42.4912C45.1313 42.417 44.4719 42.5006 44.0266 42.4459C43.9735 42.3404 43.95 42.1256 43.9117 41.9826C43.8688 40.7943 43.9039 39.4076 43.9086 38.2037C43.8414 36.7982 43.8891 34.86 43.8906 33.4256L44.0086 33.4162C44.0938 33.3693 44.4258 33.2662 44.5391 33.2279C45.2172 32.999 45.4227 32.7693 45.886 32.2537L45.8852 32.2529Z" fill="#FBFCFF"/>
<path d="M43.8899 33.4249L44.0078 33.4155C44.0719 34.1241 44.0211 35.5335 44.025 36.2929C44.0282 36.964 44.0664 38.2999 44.018 38.9054C44.043 40.0718 44.0281 41.2765 44.0266 42.4452C43.9735 42.3397 43.95 42.1249 43.9117 41.9819C43.8688 40.7937 43.9039 39.4069 43.9086 38.203C43.8414 36.7976 43.8891 34.8593 43.8906 33.4249H43.8899Z" fill="#2238A5"/>
<path d="M38.8736 36.0771L38.9861 36.1225L38.9892 40.399C38.9892 40.8248 39.0157 42.0904 38.9657 42.4271C38.9126 42.3287 38.8884 42.0006 38.8728 41.8709C38.8462 41.2248 38.8689 40.4209 38.8689 39.7553L38.8736 36.0771Z" fill="#002C6E"/>
<path d="M37.3976 35.1873L37.4625 35.3021L37.5421 35.299C37.7328 35.4021 38.7531 35.9678 38.8734 36.0772L38.8687 39.7553C38.8687 40.4209 38.846 41.2248 38.8726 41.8709L38.8679 42.46C38.5507 42.4631 37.796 42.5193 37.5718 42.4123C37.514 42.3076 37.5312 42.3178 37.5265 42.185C37.4976 42.3037 37.5 42.342 37.4375 42.4436C37.1125 42.4834 36.525 42.4693 36.1835 42.4686L34.0031 42.46C33.7609 42.4592 33.1484 42.4467 32.9226 42.4795C32.8187 42.3396 32.3429 38.1225 32.3343 37.7459L32.3015 37.6303C33.9515 37.6654 35.7328 37.6342 37.3929 37.635L37.3968 35.1865L37.3976 35.1873Z" fill="#FBFCFF"/>
<path d="M37.5422 35.2993C37.7329 35.4024 38.7532 35.9681 38.8735 36.0774L38.8688 39.7556C38.8688 40.4212 38.8461 41.2251 38.8727 41.8712L38.868 42.4603C38.5508 42.4634 37.7961 42.5196 37.5719 42.4126C37.5141 42.3079 37.5313 42.3181 37.5266 42.1853C37.575 41.7298 37.5407 40.4267 37.5399 39.9259L37.5415 35.3001L37.5422 35.2993Z" fill="#FBFCFF"/>
<path d="M37.3976 35.1876L37.4624 35.3024L37.5421 35.2993L37.5405 39.9251C37.5405 40.4259 37.5757 41.729 37.5272 42.1845C37.4983 42.3032 37.5007 42.3415 37.4382 42.4431C37.3937 42.1095 37.4155 41.2438 37.4155 40.861C37.4202 39.8243 37.4179 38.7884 37.4077 37.7517L32.3351 37.7454L32.3022 37.6298C33.9522 37.6649 35.7335 37.6337 37.3937 37.6345L37.3976 35.186V35.1876Z" fill="#2238A5"/>
<path d="M29.9173 10.1321H32.2235V21.2587V24.4149C32.2235 25.0446 32.2485 25.9103 32.1673 26.5087C31.7603 24.8056 30.5954 20.7634 29.6392 19.3868C29.2524 18.8306 28.7118 18.404 28.1938 17.9767C28.2173 17.5282 28.2782 17.0501 28.3298 16.6024C28.3978 16.6095 28.4665 16.6142 28.5345 16.6157C30.0415 16.6548 30.2134 14.8415 30.1204 13.7587C30.0673 13.1462 30.0829 12.4493 30.0626 11.8259C30.4235 11.772 31.2618 11.7165 31.3931 11.3345C31.2954 10.9267 30.2899 10.8321 29.972 10.536C29.8985 10.4673 29.9173 10.2423 29.9173 10.1313V10.1321Z" fill="#FBFCFF"/>
<path d="M46.029 30.922C46.2391 30.2454 47.0149 27.1243 47.2165 26.8407L47.2579 26.8345C47.2704 26.8673 47.2829 26.9009 47.2954 26.9337C46.9626 28.3196 46.3196 30.6134 45.9212 31.8962C45.1016 33.011 44.6712 33.0228 43.3868 33.3423C42.768 33.5017 42.1477 33.6532 41.5251 33.7962C41.2079 33.454 40.9993 33.4313 40.7149 33.1509C40.7383 33.0517 40.8032 32.9001 40.7876 32.8228C40.6274 32.0345 38.7883 32.6454 38.2977 32.3345C38.2329 32.2907 38.1649 32.1735 38.1782 32.0923C38.2969 31.3548 39.2665 31.3134 39.7821 31.1915C40.968 30.9103 42.1837 30.8048 43.3087 30.3571C43.5266 30.2704 43.8516 29.8946 44.0087 29.7142C44.1665 29.786 44.6219 30.1165 44.7891 30.229C45.2227 30.5204 45.5532 30.7134 46.0298 30.922H46.029Z" fill="#FBFCFF"/>
<path d="M32.5454 33.2983C33.6337 34.0647 34.5899 34.7554 35.7243 35.4772C35.904 35.2624 36.2313 34.7538 36.4228 34.4937C36.7157 34.728 37.0837 34.9429 37.3985 35.1874L37.3946 37.6358C35.7345 37.6351 33.9532 37.6663 32.3032 37.6312L32.3384 37.5507C32.4399 37.4733 32.8454 37.3554 33.004 37.2952C32.9321 36.9647 32.879 36.2765 32.836 35.8999C32.7282 35.0343 32.6313 34.1671 32.547 33.2983H32.5454Z" fill="#FBFCFF"/>
<path d="M24.0696 9.99093C24.2985 9.37531 28.7477 8.82922 29.5219 9.10265C29.875 9.22687 29.8165 9.81203 29.8172 10.0652C28.8852 9.80812 26.3961 10.3277 25.3399 10.3792C25.054 10.3933 24.4625 10.5191 24.1821 10.4605L24.0696 9.99172V9.99093Z" fill="#FFB700"/>
<path d="M19.9467 64.6123C20.5405 63.8787 20.9842 63.0068 21.5358 62.2686C21.5139 62.9162 21.6061 64.7693 21.3217 65.2092C21.2585 65.1373 21.285 65.1576 21.196 65.1131C20.9819 65.3514 20.0194 66.2037 19.7116 65.8412C19.5241 65.6201 18.7506 64.5623 18.9913 64.2873C19.1538 64.2311 19.7131 64.5248 19.9467 64.6115V64.6123Z" fill="#FFB700"/>
<path d="M17.2102 44.1884C18.261 44.186 19.7586 44.1407 20.8266 44.236C20.8672 44.2399 21.0493 44.6274 21.1977 44.5813C21.4891 44.5813 21.4844 44.2329 21.7086 44.1157C21.8383 44.1345 21.7805 44.1095 21.8821 44.2071C21.9126 44.4798 21.8266 45.2782 21.8016 45.597L21.5797 48.447C21.5727 48.5337 21.5047 49.2735 21.5126 49.3149L21.4938 49.4454C21.1657 49.9681 20.7633 50.7923 20.4797 51.3595C19.8266 52.6665 19.1922 53.9907 18.5461 55.3024C17.8805 56.6446 17.2258 57.9915 16.5813 59.3439C16.2751 59.9806 15.9516 60.629 15.6633 61.2751C15.5805 61.461 15.6774 61.6728 15.6493 61.7282C15.5805 61.8634 15.3446 62.1767 15.2555 62.3017C14.8594 62.8587 14.0219 63.886 13.8024 64.4946L13.7829 64.5478C14.1985 65.1478 15.0641 65.4407 15.6938 65.8782C14.3532 65.8751 12.7915 65.9118 11.468 65.8649C11.354 65.8759 11.3594 65.8806 11.2524 65.8454C11.1993 65.7032 11.3204 64.1524 11.336 63.8985L11.5594 59.6579L12.0087 50.4126L12.1282 47.8446C12.1844 46.5267 12.0993 45.2149 13.4524 44.4845C13.8274 44.2821 14.1626 44.2173 14.5836 44.1938C15.0344 44.1938 16.0282 44.1618 16.4446 44.204C16.5571 44.3353 16.4133 44.6782 16.8227 44.7032C17.1047 44.5806 17.154 44.4782 17.2118 44.1876L17.2102 44.1884Z" fill="#FFB700"/>
<path d="M11.4663 65.8654C11.3523 65.8764 11.3577 65.8811 11.2507 65.8459C11.1976 65.7037 11.3187 64.1529 11.3343 63.899L11.5577 59.6584L12.0069 50.4131L12.1265 47.8451C12.1827 46.5271 12.0976 45.2154 13.4507 44.485C13.8257 44.2826 14.1608 44.2178 14.5819 44.1943C14.2413 51.4146 13.8593 58.6326 13.4358 65.8482C12.9905 65.842 11.8929 65.8084 11.4663 65.8654Z" fill="#FBFCFF"/>
<path d="M11.611 44.2025C12.2204 44.1643 12.9485 44.183 13.5681 44.1854C11.8173 45.101 12.0118 46.4861 11.9329 48.2182L11.7532 51.7572L11.0431 65.8674L10.6298 65.8736C9.87743 65.8893 8.61415 66.0814 8.654 65.0479C8.67431 64.5127 8.69384 63.9729 8.72118 63.4385L8.9329 59.2752L9.35165 50.3369C9.41337 49.0939 9.47353 47.8471 9.53447 46.6041C9.60009 45.269 10.3751 44.5377 11.611 44.201V44.2025Z" fill="#FBFCFF"/>
<path d="M26.6703 11.7197C27.6953 11.9229 28.8453 11.8877 29.8851 11.8455C29.9078 12.6916 29.9664 13.5299 29.9656 14.3814C29.9656 15.0322 29.8992 15.6174 29.3992 16.1104C29.064 16.4408 28.4734 16.5283 28.0375 16.3596C27.8422 16.2838 27.5578 16.0135 27.3609 16.0088C27.2422 16.2744 27.9945 16.5088 28.1679 16.5721C28.1312 16.8986 28.1015 17.226 28.0781 17.5541C28.0632 17.6697 28.0687 17.7236 27.9961 17.815C27.8562 17.7971 27.2632 17.5049 27.0679 17.4455C26.382 17.2369 25.8101 17.0963 25.0984 17.0447C25.2195 16.2807 25.2953 15.4041 25.3617 14.6291C24.8343 14.3213 24.2476 13.8268 24.4437 13.1205C24.4922 12.9471 24.6515 12.7486 24.8226 12.6822C25.3304 12.4838 25.4679 12.8604 25.8179 13.0822C25.8554 13.1041 26.0359 13.0252 26.0859 12.9963C26.6242 12.6893 26.5367 12.2557 26.6586 11.7627L26.6695 11.7205L26.6703 11.7197Z" fill="#FBFCFF"/>
<path d="M27.6961 14.7954C27.9633 14.8993 27.8321 15.2032 28.1375 15.3993C28.5524 15.6642 28.9657 15.1673 29.1953 15.1282L29.236 15.2415C28.7211 15.8938 27.6446 15.7532 27.6961 14.7954Z" fill="#002C6E"/>
<path d="M28.9415 13.4275L28.8251 13.4838C28.6111 13.7799 28.9384 13.9939 28.8712 14.2533C28.7337 14.3338 28.7095 14.3361 28.7267 14.483C28.8837 14.4455 28.8884 14.4486 29.0259 14.3713C29.1205 14.1994 28.9673 13.7002 28.9408 13.4268L28.9415 13.4275Z" fill="#002C6E"/>
<path d="M27.8551 12.3911C28.0181 12.3919 28.2724 12.5112 28.184 12.6481C28.1089 12.7646 27.9671 12.6297 27.8293 12.6442C27.7036 12.6575 27.6237 12.773 27.5129 12.7122C27.3758 12.6369 27.6718 12.3902 27.8551 12.3911Z" fill="#002C6E"/>
<path d="M29.4398 12.3594C29.6028 12.3602 29.8571 12.4794 29.7687 12.6164C29.6936 12.7328 29.5518 12.5979 29.414 12.6125C29.2883 12.6258 29.2084 12.7413 29.0976 12.6805C28.9605 12.6052 29.2566 12.3585 29.4398 12.3594Z" fill="#002C6E"/>
<path d="M29.5789 13.0478C29.7032 13.0696 29.7353 13.1878 29.7687 13.3095C29.8139 13.4746 29.8361 13.7713 29.6687 13.7361C29.5582 13.7129 29.4953 13.5049 29.4953 13.5049C29.4953 13.5049 29.4001 13.0165 29.5789 13.0478Z" fill="#002C6E"/>
<path d="M28.0132 13.0742C28.1375 13.096 28.1696 13.2141 28.203 13.3359C28.2482 13.5009 28.2705 13.7976 28.103 13.7625C27.9925 13.7393 27.9296 13.5312 27.9296 13.5312C27.9296 13.5312 27.8345 13.0429 28.0132 13.0742Z" fill="#002C6E"/>
<path d="M18.3304 38.7118L18.3992 38.686L18.4765 38.772L18.5101 38.7665L18.5789 38.7157C18.6625 38.8462 18.5867 38.7212 18.6453 38.8337C18.6781 38.8962 18.7039 38.9235 18.7492 38.9743C18.921 39.1681 18.9851 39.4314 19.1289 39.6415C19.2851 39.8704 20.2984 39.8845 20.5695 39.9024C20.8132 39.9181 21.0046 39.8704 21.2328 39.7837C21.2 40.1767 21.046 42.2618 20.9609 42.5017L20.9679 42.6306C20.9804 42.8056 20.8875 43.7767 20.8679 44.0079L17.2156 44.0064L17.3625 42.6313L17.4101 42.5079C17.332 42.2899 17.7039 39.1978 17.7914 38.7806C17.9718 38.7478 18.1484 38.7321 18.3304 38.7126V38.7118Z" fill="#FBFCFF"/>
<path d="M17.3625 42.6311C18.5476 42.6225 19.7843 42.6077 20.9679 42.6296C20.9804 42.8046 20.8875 43.7756 20.8679 44.0069L17.2156 44.0053L17.3625 42.6303V42.6311Z" fill="#FBFCFF"/>
<path d="M18.3304 38.7119C18.4632 38.8291 18.3991 39.4424 18.4046 39.6486C18.3921 40.5963 18.389 41.5439 18.3952 42.4908C18.096 42.4947 17.7015 42.4877 17.4109 42.5072C17.3327 42.2893 17.7046 39.1971 17.7921 38.7799C17.9726 38.7471 18.1491 38.7314 18.3312 38.7119H18.3304Z" fill="#FBFCFF"/>
<path d="M18.4039 39.6485L18.4617 39.4321C18.4742 39.5743 18.4906 39.7001 18.5102 39.8407C18.5172 40.7212 18.5187 41.6017 18.5156 42.4829C19.257 42.4884 20.2492 42.4571 20.9617 42.5009L20.9687 42.6298C19.7852 42.6071 18.5484 42.622 17.3633 42.6313L17.4109 42.5079C17.7023 42.4884 18.0961 42.4954 18.3953 42.4915C18.3891 41.5438 18.393 40.5962 18.4047 39.6493L18.4039 39.6485Z" fill="#2238A5"/>
<path d="M18.3304 38.7118L18.3991 38.686L18.4765 38.772L18.5101 38.7665C18.5124 39.1048 18.5249 39.5079 18.5101 39.8415C18.4905 39.7009 18.4741 39.5743 18.4616 39.4329L18.4038 39.6493C18.3983 39.4423 18.4624 38.8298 18.3296 38.7126L18.3304 38.7118Z" fill="#002C6E"/>
<path d="M37.6844 32.6038C38.2243 32.6616 40.3547 32.4514 40.5813 32.8358C40.5305 33.0405 40.0407 33.31 39.8149 33.4858C39.9829 33.6334 40.1797 33.7272 40.3727 33.8358C41.1188 34.2561 41.8625 34.6725 42.5094 35.2413C42.6899 35.3998 43.0493 35.6436 42.9063 35.9038C42.6243 36.0123 40.8774 34.6045 40.568 34.5608L40.5344 34.617C40.5891 34.8952 40.8102 34.9288 41.0313 35.0678C41.4532 35.3327 41.893 35.5756 42.3063 35.853C42.4516 35.9506 42.6227 36.1702 42.4868 36.3334C42.1071 36.3959 41.3032 35.803 40.9594 35.5842C40.7907 35.4756 40.2172 35.0608 40.0422 35.1623C40.0508 35.1944 40.0602 35.2264 40.0688 35.2584C40.5055 35.5803 41.418 35.992 41.7602 36.3655C41.8126 37.2522 39.7336 35.4264 39.4313 35.5608L39.4204 35.6436C39.5743 35.8944 40.6493 36.2498 40.7329 36.6311L40.6836 36.7022C40.1954 36.7858 37.0735 34.7241 36.5188 34.3139C36.8329 33.7967 37.329 33.1413 37.6852 32.603L37.6844 32.6038Z" fill="#FBFCFF"/>
<path d="M16.128 62.1572C17.0061 62.7635 17.9835 63.3135 18.8085 63.951C18.5694 64.39 18.4444 64.4572 18.4585 64.9471C18.2475 65.1799 18.0319 65.1596 17.7796 64.9963C17.0514 64.5236 16.2819 63.765 16.0038 62.9252C15.9022 62.6197 15.9741 62.4174 16.1272 62.158L16.128 62.1572Z" fill="#FBFCFF"/>
<path d="M23.9234 50.9197C24.0719 50.9705 24.0281 50.9236 24.0969 51.0299C24.0617 51.2471 23.8813 51.7705 23.8 51.9947C23.1617 53.7533 22.2281 55.4479 21.3734 57.1119C20.3398 59.1338 19.2875 61.1455 18.2164 63.1471C18.15 63.1064 18.0961 63.0697 18.0313 63.026C18.0281 62.9229 19.1977 60.7643 19.3188 60.5338C20.0383 59.165 20.7484 57.7916 21.4492 56.4135C22.4977 54.3643 23.1773 53.0814 23.9234 50.9189V50.9197Z" fill="#FBFCFF"/>
<path d="M24.8272 21.6797C25.1022 21.7367 25.2804 22.1117 25.4187 22.3508C26.1749 23.6008 26.6312 24.8172 27.1929 26.1672C27.8358 27.7125 28.3147 29.8664 29.5413 31.0469C30.2046 31.6859 31.1882 32.1586 31.9116 32.725C32.0866 32.8617 32.0608 32.8734 32.0897 33.0758C31.214 32.5781 29.6749 31.5984 29.0249 30.8602C28.2796 30.0141 27.828 28.5188 27.421 27.4672C26.9812 26.3289 26.5429 25.0016 25.9866 23.9211C25.7796 23.5117 25.5616 23.107 25.3335 22.7086C25.2093 22.4938 24.8093 21.9055 24.8272 21.6805V21.6797Z" fill="#FBFCFF"/>
<path d="M24.8313 38.3076L24.9766 38.3521C25.2094 38.9623 25.4079 39.7842 25.5758 40.4209L26.504 44.0154C26.8704 45.3904 27.218 46.7709 27.5462 48.1561C27.6337 48.5146 27.9212 49.5498 27.9446 49.8623C27.8977 49.8506 27.7383 49.8146 27.7298 49.7811C26.7837 46.0576 25.8071 42.3279 24.8532 38.6014C24.8141 38.4506 24.818 38.424 24.8313 38.3084V38.3076Z" fill="#FBFCFF"/>
<path d="M29.7446 64.9314C30.8586 64.9009 32.0899 64.9267 33.2125 64.9259C33.2297 65.3103 33.2852 65.3892 32.9461 65.6056C32.0555 66.1306 30.7196 65.7392 29.7336 65.5791L29.7446 64.9314Z" fill="#FBFCFF"/>
<path d="M29.0366 19.957C29.1569 19.975 29.1694 19.9477 29.2366 20.0469C29.503 20.4437 29.9132 21.5805 30.0616 21.9844C30.3405 22.743 32.2851 28.7891 32.2038 29.2828C32.1304 29.2734 32.0429 29.2797 32.0226 29.2328C31.8241 28.7727 31.6249 27.8523 31.4905 27.368C30.9772 25.5297 30.4069 23.707 29.7812 21.9039C29.6554 21.5523 29.0382 20.193 29.0366 19.957Z" fill="#FBFCFF"/>
<path d="M21.6243 39.5376C21.7118 39.6298 21.7016 39.8212 21.6915 39.9462C21.5704 41.3634 21.4618 42.7892 21.2876 44.2001C21.2774 44.2853 21.2118 44.3438 21.1524 44.3978C21.093 44.3235 21.0571 44.2587 21.0594 44.1603C21.0821 43.4188 21.1665 42.6587 21.2337 41.9165C21.2962 41.2298 21.3266 40.497 21.4469 39.8228C21.4672 39.7071 21.5446 39.6212 21.6235 39.5384L21.6243 39.5376Z" fill="#FBFCFF"/>
<path d="M21.953 38.6304C22.0913 38.6343 22.1796 38.6202 22.2897 38.6991C22.3585 38.839 22.3342 39.1218 22.3186 39.2811C22.2131 40.3351 22.1678 41.4054 22.0241 42.453C21.9913 42.4835 21.9592 42.5147 21.9264 42.5452C21.8186 42.5249 21.7436 42.5265 21.6725 42.4476C21.6663 41.9937 21.8475 39.9093 22.0217 39.5882C22.0842 39.4733 22.1178 39.3757 22.1491 39.2483L22.1608 39.1976C22.1022 38.9632 22.0483 38.8483 21.953 38.6304Z" fill="#FBFCFF"/>
<path d="M17.4421 39.6147C17.4867 40.2468 17.0296 43.489 16.9546 44.346C16.9461 44.4421 16.8164 44.4616 16.7265 44.4913C16.7187 44.4733 16.7101 44.4554 16.7031 44.4374C16.5976 44.1671 17.0507 41.053 17.1343 40.6444C17.2078 40.2882 17.2968 39.9491 17.4421 39.6155V39.6147Z" fill="#FBFCFF"/>
<path d="M19.2648 36.95C19.5085 37.0211 19.9648 37.2164 20.0273 37.4859C19.7281 37.8266 19.6156 39.1609 19.5796 39.6555C19.4195 39.675 19.3828 39.6539 19.2679 39.5766C19.0593 39.2125 19.4062 38.4617 19.4796 37.9742L19.4875 37.9187L19.157 37.7914C19.1804 37.5047 19.2226 37.2336 19.264 36.9492L19.2648 36.95Z" fill="#FBFCFF"/>
<path d="M20.5735 37.7217C20.711 37.7451 20.8461 37.7779 20.9828 37.8076C20.918 38.3639 20.9055 39.2717 20.718 39.7529C20.5477 39.8045 20.5141 39.8271 20.3797 39.7264C20.3758 39.7115 20.561 37.9529 20.5735 37.7217Z" fill="#FBFCFF"/>
<path d="M20.0743 37.729C20.2766 37.7899 20.3446 37.8587 20.3524 38.0868C20.3665 38.4688 20.3079 39.3978 20.0743 39.6837C19.9571 39.6876 19.9126 39.6985 19.8048 39.6493C19.718 39.4728 20.0102 37.997 20.0743 37.729Z" fill="#FBFCFF"/>
<path d="M21.3234 37.5884C21.4164 37.6282 21.5055 37.6438 21.5398 37.7548C21.6383 38.0751 21.2992 39.4728 21.1758 39.7157L20.9641 39.7251C20.9258 39.6634 21.0086 39.3915 21.0305 39.2915C21.1391 38.7946 21.1063 38.2782 21.1516 37.7728C21.1617 37.6587 21.2305 37.6446 21.3234 37.5892V37.5884Z" fill="#FBFCFF"/>
<path d="M27.9212 50.3057C27.9517 50.3057 28.0345 50.3072 28.0548 50.3213C28.2712 50.4689 29.0329 51.4494 29.0915 51.6353L29.0493 51.6885C28.8642 51.6783 28.9454 51.708 28.7977 51.5932C28.5626 51.315 28.3212 51.0182 28.0696 50.7572C28.0337 50.89 28.0313 50.9393 27.9438 51.0486C27.8251 51.0635 27.8837 51.0705 27.7696 50.9979C27.6657 50.808 27.7563 50.4432 27.9204 50.3057H27.9212Z" fill="#FBFCFF"/>
<path d="M21.6492 42.6013C21.7726 42.5958 21.9195 42.5794 22.0171 42.6349C22.0429 42.9692 21.9656 43.6708 21.9249 44.0099C21.7851 44.0091 21.6742 44.0224 21.5476 43.9661C21.4828 43.7247 21.6132 42.888 21.6484 42.6005L21.6492 42.6013Z" fill="#FBFCFF"/>
<path d="M40.3593 33.3214C40.7117 33.312 41.4164 33.8074 41.4335 34.1745L41.3671 34.2042C41.0812 34.0222 40.4382 33.6745 40.2117 33.4824L40.3593 33.3214Z" fill="#FBFCFF"/>
<path d="M21.5117 49.3149C21.6875 49.3274 21.6844 49.3212 21.8281 49.486C22.0141 49.7001 22.4172 50.1813 22.4062 50.4727C22.2148 50.4993 21.6289 49.6313 21.4922 49.4454L21.5109 49.3149H21.5117Z" fill="#FBFCFF"/>
<path d="M19.0352 37.958C19.0977 37.9955 19.1696 38.0213 19.1938 38.0768C19.2845 38.2869 19.0907 38.8713 19.0321 39.0955C18.6595 38.7955 18.8673 38.3236 19.0352 37.958Z" fill="#FBFCFF"/>
<path d="M29.9171 10.1319C29.8428 9.99834 29.86 9.94912 29.8772 9.80225L29.9202 9.9749C30.0327 10.0429 32.5374 9.99287 32.8952 9.99131L38.5538 10.0007L70.796 9.99209C71.6366 9.99209 78.1335 9.92959 78.3491 10.0577C77.9944 10.1343 76.1999 10.1046 75.753 10.1046C73.903 10.0968 72.0522 10.1038 70.2022 10.1241L70.2108 16.8632L71.1139 16.8647L72.1546 16.8608V19.2093C71.5038 19.2241 70.8538 19.2312 70.203 19.2304L70.1928 37.7968C71.9928 37.8155 73.7936 37.8233 75.5936 37.8194C76.1569 37.8194 78.0717 37.7554 78.4835 37.864C78.196 37.9976 71.0764 37.9296 70.1913 37.9226L70.1796 42.4905C72.3764 42.5077 76.0717 42.4655 78.3913 42.528C78.41 42.5476 78.4296 42.5663 78.4491 42.5858V42.539L78.4999 42.5726C78.1335 42.6929 75.5022 42.6249 74.9491 42.6249L68.1631 42.621L64.7296 42.6163C64.3233 42.6163 63.3452 42.6444 63.0053 42.6108C62.9991 42.5858 62.9694 42.5218 62.9577 42.496C62.7155 42.2046 62.546 41.2647 62.2772 40.9327C61.9538 40.5335 61.7139 40.6358 61.3382 40.4718C61.2749 40.4444 60.9952 39.8843 60.9038 39.7694C60.5702 39.3499 60.1905 38.9476 59.8327 38.546C59.7491 38.0155 59.4421 37.0741 59.2944 36.5022L58.0288 31.6483L57.8967 31.8054C57.1928 32.0897 55.8546 32.564 55.1256 32.614L55.0217 32.6343C54.9772 32.7937 55.0796 33.0483 55.1327 33.2194C55.0272 33.414 55.0506 37.0429 55.0397 37.571C51.5491 38.4116 49.0225 38.053 45.696 36.9015C45.4538 36.6538 45.9374 32.9335 45.8842 32.253C45.96 32.1147 45.9389 32.0452 45.9194 31.8952C46.3178 30.6124 46.9616 28.3187 47.2936 26.9327C47.2811 26.8999 47.2686 26.8663 47.2561 26.8335L47.2147 26.8397C47.0131 27.1233 46.2374 30.2444 46.0272 30.921C45.5507 30.7124 45.2202 30.5194 44.7866 30.228C44.6186 30.1155 44.1639 29.7851 44.0061 29.7132L43.8686 29.5718C43.4655 30.0663 43.1421 30.328 42.4967 30.4194C41.4397 30.5694 40.0514 31.0647 39.0131 31.1405L38.9053 31.1577C38.7624 31.2304 38.4233 31.3718 38.3163 31.4585C38.1139 31.6202 37.9147 32.1718 37.603 32.1241C37.5171 32.0061 37.5452 32.0061 37.5335 31.8312L37.4796 31.9944L37.3975 32.0327C36.46 31.3413 35.5069 30.6858 34.5444 30.0312C33.9069 29.5976 33.2827 29.1343 32.6335 28.7171C32.5327 28.1452 32.2788 27.2616 32.3249 26.7179L32.2819 26.5741C32.2116 26.6093 32.2428 26.596 32.1889 26.6163L32.1647 26.5077C32.246 25.9093 32.2202 25.0437 32.2202 24.414V21.2577L32.2217 10.1319H29.9155H29.9171Z" fill="#FBFCFF"/>
<path d="M53.9772 10.1049L54.0194 10.0869C54.0632 10.215 54.0499 11.508 54.071 11.7783C54.0835 12.5541 54.0968 13.5627 54.0569 14.3291C54.9569 14.5666 55.839 15.5244 56.3061 16.308C57.1311 17.6908 57.2382 19.7893 55.6429 20.6791C54.8671 21.1119 54.0194 21.2314 53.139 21.0541C53.0983 21.5674 53.1202 22.2033 53.1163 22.7307C56.5343 23.4471 56.7874 27.0807 57.6069 29.8814C57.7663 30.4268 57.8577 31.1252 58.0296 31.6463L57.8976 31.8033C57.1937 32.0877 55.8554 32.5619 55.1265 32.6119L55.0226 32.6322C54.978 32.7916 55.0804 33.0463 55.1335 33.2174C55.028 33.4119 55.0515 37.0408 55.0405 37.5689C51.5499 38.4096 49.0233 38.051 45.6968 36.8994C45.4546 36.6518 45.9382 32.9314 45.8851 32.251C45.9608 32.1127 45.9397 32.0432 45.9202 31.8932C46.3187 30.6104 46.9624 28.3166 47.2944 26.9307C47.2819 26.8979 47.2694 26.8643 47.2569 26.8314L47.2155 26.8377C47.014 27.1213 46.2382 30.2424 46.028 30.9189C45.5515 30.7104 45.221 30.5174 44.7874 30.226C44.6194 30.1135 44.1647 29.783 44.0069 29.7111L43.8694 29.5697C43.4968 29.1229 44.0569 29.1072 44.1007 28.4963C44.0468 27.9564 44.0757 26.9244 44.0765 26.3447L44.0726 22.5705C44.0624 18.6096 44.0108 14.5299 44.0679 10.5822C44.1194 10.4064 44.089 10.2932 44.1569 10.115C46.3944 10.0721 48.6561 10.1299 50.8913 10.1088C51.7147 10.101 53.2015 10.1689 53.978 10.1025L53.9772 10.1049Z" fill="#FFB700"/>
<path d="M53.9773 10.1049L54.0195 10.0869C54.0632 10.215 54.0499 11.508 54.071 11.7783C54.0835 12.5541 54.0968 13.5627 54.057 14.3291L53.9562 14.2455L53.8843 14.2338C53.5374 14.1729 53.2156 14.0494 52.8523 14.0041C51.8249 13.8752 50.7515 14.1736 49.8929 14.7393C48.9398 15.3674 47.5734 17.076 49.557 17.4533C49.1273 19.0354 48.4781 20.3682 50.3148 21.2853C50.3101 21.7416 50.2984 22.1979 50.2796 22.6533C47.2945 22.84 46.4218 24.7127 44.989 27.0369C44.871 27.2283 44.3312 28.2432 44.2109 28.2846C44.164 28.4033 44.1765 28.401 44.1007 28.4986C44.0468 27.9588 44.0757 26.9268 44.0765 26.3471L44.0726 22.5729C44.0624 18.6119 44.0109 14.5322 44.0679 10.5846C44.1195 10.4088 44.089 10.2955 44.157 10.1174C46.3945 10.0744 48.6562 10.1322 50.8913 10.1111C51.7148 10.1033 53.2015 10.1713 53.9781 10.1049H53.9773Z" fill="#FBFCFF"/>
<path d="M44.1562 10.118C44.2093 10.4648 44.1828 11.5422 44.1828 11.9586L44.1796 15.6672L44.2109 28.2844C44.164 28.4031 44.1765 28.4008 44.1007 28.4984C44.0468 27.9586 44.0757 26.9266 44.0765 26.3469L44.0726 22.5727C44.0624 18.6117 44.0109 14.532 44.0679 10.5844C44.1195 10.4086 44.089 10.2953 44.157 10.1172L44.1562 10.118Z" fill="#2238A5"/>
<path d="M53.9775 10.1049L54.0197 10.0869C54.0634 10.215 54.0501 11.508 54.0712 11.7783C54.0837 12.5541 54.097 13.5627 54.0571 14.3291L53.9564 14.2455C53.9423 13.1049 53.9618 11.9635 53.9564 10.8221C53.9556 10.5822 53.9532 10.3432 53.9767 10.1049H53.9775Z" fill="#002C6E"/>
<path d="M49.7968 17.2866C50.8578 16.2546 51.3562 16.8132 52.2515 17.6757C52.5664 17.9788 52.5953 18.7265 52.8484 18.7585C53.2015 18.6132 53.4999 18.4546 53.8851 18.6054C54.3148 18.7741 54.5578 19.2218 54.3179 19.6476C54.0343 20.1499 53.6335 20.1905 53.1164 20.1077L53.1179 20.8835C53.057 21.2788 53.1624 22.5843 53.0359 22.7507L52.9445 22.7851C52.4257 22.9491 51.7898 23.9155 51.107 23.8351C50.5664 23.771 50.3625 23.2437 50.4218 22.7593L50.282 22.653C50.2999 22.1976 50.3124 21.7413 50.3171 21.2851C48.4804 20.3679 49.1304 19.0351 49.5593 17.453C49.6289 17.2984 49.5773 17.3515 49.6976 17.2663L49.7992 17.2874L49.7968 17.2866Z" fill="#FBFCFF"/>
<path d="M49.5579 17.4533C49.6274 17.2986 49.5758 17.3518 49.6961 17.2666L49.7977 17.2877C49.4602 18.5689 48.5821 20.6041 50.4329 21.0799C50.6727 21.1416 50.9375 21.0463 51.1032 21.1564L51.1211 21.2064C50.9344 21.3275 50.718 21.3119 50.504 21.3057C50.4836 21.7455 50.4711 22.3369 50.4204 22.7604L50.2805 22.6541C50.2985 22.1986 50.311 21.7424 50.3157 21.2861C48.479 20.3689 49.129 19.0361 49.5579 17.4541V17.4533Z" fill="#002C6E"/>
<path d="M52.943 22.7853C52.9031 22.486 52.9086 20.3212 53.0102 20.1251L53.1156 20.1079L53.1172 20.8837C53.0563 21.279 53.1617 22.5845 53.0352 22.7509L52.9438 22.7853H52.943Z" fill="#002C6E"/>
<path d="M49.6929 19.6102C49.9078 19.6297 50.1554 19.882 50.4312 19.8695C50.632 19.8609 50.8828 19.6813 51.0375 19.7961L51.0414 19.893C50.9226 19.9664 50.7898 20.0148 50.6515 20.0344C50.3195 20.0781 49.739 20.0297 49.6921 19.6094L49.6929 19.6102Z" fill="#002C6E"/>
<path d="M50.2776 18.5313C50.3736 18.5314 50.5441 18.6296 50.4675 18.6875C50.3125 18.8047 50.2776 18.9379 50.4675 19.0391C50.6203 19.1205 50.625 19.3125 50.5079 19.3516C50.1563 19.3125 50.0847 18.8477 50.2768 18.5313C50.2768 18.5313 50.2773 18.5312 50.2776 18.5313Z" fill="#002C6E"/>
<path d="M51.4094 18.3126C51.4987 18.3248 51.5339 18.4045 51.554 18.4923C51.5817 18.6139 51.5464 18.79 51.4219 18.7829C51.3244 18.7774 51.2793 18.6869 51.2618 18.5908C51.2398 18.4698 51.2876 18.296 51.4094 18.3126Z" fill="#002C6E"/>
<path d="M49.8403 18.1417C49.9296 18.1539 49.9648 18.2336 49.9849 18.3214C50.0126 18.443 49.9773 18.6191 49.8528 18.612C49.7553 18.6065 49.7102 18.516 49.6927 18.4199C49.6707 18.2989 49.7185 18.1251 49.8403 18.1417Z" fill="#002C6E"/>
<path d="M53.2329 26.7518C53.254 26.7588 53.2767 26.7635 53.297 26.7736C53.3024 26.7768 53.3563 26.8236 53.3618 26.8322C53.4938 27.0432 54.897 32.0783 54.986 32.6057L54.9048 32.6104C54.7696 32.4502 53.2321 26.9854 53.2337 26.751L53.2329 26.7518Z" fill="#FBFCFF"/>
<path d="M29.9171 10.1319C29.8428 9.99834 29.86 9.94912 29.8772 9.80225L29.9202 9.9749C30.0327 10.0429 32.5374 9.99287 32.8952 9.99131L38.5538 10.0007L70.796 9.99209C71.6366 9.99209 78.1335 9.92959 78.3491 10.0577C77.9944 10.1343 76.1999 10.1046 75.753 10.1046C73.903 10.0968 72.0522 10.1038 70.2022 10.1241L70.2108 16.8632L71.1139 16.8647C70.7944 16.9022 70.4272 16.8874 70.1022 16.8843C70.0483 16.2835 70.0796 15.1476 70.0796 14.503L70.0811 10.1304L68.878 10.1288L68.8733 16.8812L68.7569 16.8397C68.7085 14.6569 68.7506 12.3187 68.7506 10.1241C67.1647 10.053 65.3975 10.1843 63.8405 10.1022L63.7756 10.078L63.7397 10.1202C60.5241 10.0999 57.3077 10.1007 54.0921 10.1226C54.0921 10.6624 54.1006 11.2444 54.0725 11.7796C54.0514 11.5093 54.0647 10.2163 54.021 10.0882L53.9788 10.1062C53.2022 10.1726 51.7155 10.1046 50.8921 10.1124C48.6569 10.1335 46.3944 10.0757 44.1577 10.1187C44.0889 10.2968 44.1202 10.4101 44.0686 10.5858C44.0124 14.5335 44.0639 18.6132 44.0733 22.5741L44.0772 26.3483C44.0772 26.9288 44.0475 27.9601 44.1014 28.4999C44.0577 29.1101 43.4975 29.1257 43.8702 29.5733C43.4671 30.0679 43.1436 30.3296 42.4983 30.421C41.4413 30.571 40.053 31.0663 39.0147 31.1421L38.9069 31.1593C38.7639 31.2319 38.4249 31.3733 38.3178 31.4601C38.1155 31.6218 37.9163 32.1733 37.6046 32.1257C37.5186 32.0077 37.5467 32.0077 37.535 31.8327L37.4811 31.996L37.3991 32.0343C36.4616 31.3429 35.5085 30.6874 34.546 30.0327C33.9085 29.5991 33.2842 29.1358 32.635 28.7187C32.5342 28.1468 32.2803 27.2632 32.3264 26.7194L32.2835 26.5757C32.2131 26.6108 32.2444 26.5976 32.1905 26.6179L32.1663 26.5093C32.2475 25.9108 32.2217 25.0452 32.2217 24.4155V21.2593L32.2233 10.1335H29.9171V10.1319Z" fill="#FBFCFF"/>
<path d="M38.9836 10.1203L42.3992 10.1172C42.7008 10.1172 43.7859 10.0977 44.0312 10.1516C44.0766 10.3282 44.068 10.3992 44.0664 10.5844C44.0102 14.5321 44.0617 18.6117 44.0711 22.5727L44.075 26.3469C44.075 26.9274 44.0453 27.9586 44.0992 28.4985C44.0555 29.1086 43.4953 29.1242 43.868 29.5719C43.4648 30.0664 43.1414 30.3282 42.4961 30.4196C41.4391 30.5696 40.0508 31.0649 39.0125 31.1407L38.9836 23.2344C38.982 21.9133 39.0133 20.4907 38.9797 19.1774C38.8227 19.0571 39.0047 18.1914 38.8734 17.8992C38.857 17.6024 38.8703 17.1922 38.8703 16.8867C38.8883 15.4157 38.8602 13.9344 38.8742 12.4602C39.0039 12.0547 38.807 10.8961 38.9812 10.5891C38.9984 10.4703 38.9844 10.2477 38.9812 10.1196L38.9836 10.1203Z" fill="#FBFCFF"/>
<path d="M40.679 16.8475C40.7548 17.0076 40.7204 18.8326 40.7235 19.1646C40.1595 19.1631 39.5407 19.1498 38.9821 19.1771C38.8251 19.0568 39.0071 18.1912 38.8759 17.899C38.8595 17.6021 38.8728 17.192 38.8728 16.8865C38.9423 16.8404 40.4376 16.8717 40.6782 16.8467L40.679 16.8475Z" fill="#002C6E"/>
<path d="M38.8767 12.46C39.0063 12.0545 38.8095 10.8959 38.9837 10.5889C39.0001 12.6654 39.0032 14.742 38.9923 16.8186C39.3157 16.8186 40.4352 16.8014 40.6782 16.8475C40.4376 16.8717 38.9415 16.8404 38.8728 16.8873C38.8907 15.4162 38.8626 13.935 38.8767 12.4607V12.46Z" fill="#002C6E"/>
<path d="M38.8741 10.1142L38.9655 10.0845L38.9843 10.1212C38.9882 10.2493 39.0015 10.472 38.9843 10.5907C38.8101 10.8978 39.0069 12.0563 38.8773 12.4618C38.8632 13.9368 38.8905 15.4181 38.8734 16.8884C38.8734 17.1931 38.8593 17.604 38.8765 17.9009C39.0077 18.1923 38.8257 19.0579 38.9827 19.179C39.0163 20.4931 38.9851 21.9149 38.9866 23.236L39.0155 31.1423L38.9077 31.1595C38.7648 31.2321 38.4257 31.3735 38.3187 31.4603C38.1163 31.622 37.9171 32.1735 37.6054 32.1259C37.5194 32.0079 37.5476 32.0079 37.5359 31.8329C37.5484 31.6501 37.5359 31.329 37.5343 31.1353C37.4734 31.0501 37.4999 30.7384 37.5046 30.6267C37.4788 30.7095 37.4468 30.7704 37.4202 30.8642C37.378 30.0821 37.3913 28.6188 37.4226 27.8313C37.3921 27.2954 37.4124 26.5446 37.4116 25.997V22.2126L37.4101 20.2001C37.4101 19.9642 37.396 19.379 37.4335 19.1728C37.4944 19.1524 37.4663 19.1626 37.5163 19.0923C37.5023 18.297 37.4984 17.5009 37.5054 16.7056C37.5984 14.6899 37.5382 12.1688 37.5405 10.1298C37.9827 10.1313 38.4351 10.1399 38.8757 10.1142H38.8741Z" fill="#FBFCFF"/>
<path d="M38.8759 17.8999C39.0072 18.1913 38.8251 19.0569 38.9822 19.178C39.0158 20.4921 38.9845 21.914 38.9861 23.2351L39.015 31.1413L38.9072 31.1585C38.8673 30.6507 38.8822 29.9124 38.8814 29.3952L38.8759 26.428C38.872 23.5999 38.8462 20.7249 38.8759 17.8999Z" fill="#002C6E"/>
<path d="M37.5148 19.0913C37.5531 19.4085 37.5375 19.9452 37.5375 20.2874V22.3304L37.5383 25.5062C37.5383 26.0085 37.557 26.6741 37.5328 27.164C37.4547 27.3077 37.4875 27.6452 37.4891 27.8265C37.4328 27.8374 37.4555 27.8405 37.4219 27.8304C37.3914 27.2944 37.4117 26.5437 37.4109 25.996V22.2116L37.4094 20.1991C37.4094 19.9632 37.3953 19.378 37.4328 19.1718C37.4938 19.1515 37.4656 19.1616 37.5156 19.0913H37.5148Z" fill="#002C6E"/>
<path d="M37.5328 27.1641C37.5531 28.2508 37.5906 30.0766 37.5328 31.1344C37.4719 31.0492 37.4985 30.7375 37.5031 30.6258C37.4774 30.7086 37.4453 30.7695 37.4188 30.8633C37.3766 30.0813 37.3899 28.618 37.4211 27.8305C37.4547 27.8406 37.4328 27.8367 37.4883 27.8266C37.4867 27.6453 37.4539 27.3086 37.532 27.1641H37.5328Z" fill="#2238A5"/>
<path d="M38.8741 10.1142L38.9655 10.0845L38.9842 10.1212C38.9882 10.2493 39.0014 10.472 38.9842 10.5907C38.81 10.8978 39.0069 12.0563 38.8772 12.4618C38.8522 11.7376 38.8741 10.8509 38.8741 10.1149V10.1142Z" fill="#002C6E"/>
<path d="M29.9171 10.1319C29.8428 9.99834 29.86 9.94912 29.8772 9.80225L29.9202 9.9749C30.0327 10.0429 32.5374 9.99287 32.8952 9.99131L38.5538 10.0007L70.796 9.99209C71.6366 9.99209 78.1335 9.92959 78.3491 10.0577C77.9944 10.1343 76.1999 10.1046 75.753 10.1046C73.903 10.0968 72.0522 10.1038 70.2022 10.1241L70.2108 16.8632L71.1139 16.8647C70.7944 16.9022 70.4272 16.8874 70.1022 16.8843C70.0483 16.2835 70.0796 15.1476 70.0796 14.503L70.0811 10.1304L68.878 10.1288L68.8733 16.8812L68.7569 16.8397C68.7085 14.6569 68.7506 12.3187 68.7506 10.1241C67.1647 10.053 65.3975 10.1843 63.8405 10.1022L63.7756 10.078L63.7397 10.1202C60.5241 10.0999 57.3077 10.1007 54.0921 10.1226C54.0921 10.6624 54.1006 11.2444 54.0725 11.7796C54.0514 11.5093 54.0647 10.2163 54.021 10.0882L53.9788 10.1062C53.2022 10.1726 51.7155 10.1046 50.8921 10.1124C48.6569 10.1335 46.3944 10.0757 44.1577 10.1187C44.0889 10.2968 44.1202 10.4101 44.0686 10.5858C44.0694 10.3999 44.0788 10.3288 44.0335 10.153C43.7881 10.0983 42.7022 10.1187 42.4014 10.1187L38.9858 10.1218L38.9671 10.0851L38.8756 10.1147C38.4342 10.1405 37.9827 10.1319 37.5405 10.1304C37.5389 12.1687 37.5983 14.6905 37.5053 16.7062L37.3756 16.8038C37.4319 14.6507 37.4038 12.2929 37.3999 10.128C35.7858 10.1202 33.9421 10.0687 32.3452 10.1257L32.3405 20.7202C32.3405 22.6804 32.3842 24.771 32.328 26.7202L32.285 26.5765C32.2147 26.6116 32.246 26.5983 32.1921 26.6187L32.1678 26.5101C32.2491 25.9116 32.2233 25.046 32.2233 24.4163V21.2601L32.2249 10.1343H29.9186L29.9171 10.1319Z" fill="#2238A5"/>
<path d="M37.3743 16.8018L37.5039 16.7041C37.4969 17.4994 37.5 18.2955 37.5149 19.0908C37.4657 19.1611 37.493 19.151 37.4321 19.1713C36.9235 19.1346 36.2078 19.1549 35.6836 19.1549C35.6758 18.376 35.6766 17.5971 35.6852 16.8189C36.1563 16.8182 36.9352 16.8432 37.3743 16.8018Z" fill="#002C6E"/>
<path d="M37.4187 30.8635C37.4453 30.7697 37.4773 30.708 37.5031 30.626C37.4977 30.7377 37.4719 31.0494 37.5328 31.1346C37.5344 31.3283 37.5469 31.6494 37.5344 31.8322L37.4805 31.9955L37.3984 32.0338C37.4281 31.7072 37.3969 31.2322 37.4195 30.8635H37.4187Z" fill="#002C6E"/>
<path d="M54.0907 10.122C57.3063 10.1001 60.5228 10.0993 63.7384 10.1197C63.7024 13.5884 63.736 17.0939 63.7353 20.5657L63.7368 42.4861L62.9571 42.4939C62.7149 42.2025 62.5454 41.2626 62.2767 40.9306C61.9532 40.5314 61.7134 40.6337 61.3376 40.4697C61.2743 40.4423 60.9946 39.8822 60.9032 39.7673C60.5696 39.3478 60.1899 38.9454 59.8321 38.5439C59.7485 38.0134 59.4415 37.072 59.2939 36.5001L58.0282 31.6462C57.8563 31.1243 57.7649 30.4267 57.6056 29.8814C56.7868 27.0806 56.5337 23.447 53.1149 22.7306C53.1196 22.2032 53.097 21.5673 53.1376 21.054C54.0181 21.2314 54.8649 21.1118 55.6415 20.679C57.2368 19.7892 57.1298 17.6907 56.3048 16.3079C55.8376 15.5243 54.9556 14.5665 54.0556 14.329C54.0962 13.5626 54.0829 12.554 54.0696 11.7782C54.097 11.2431 54.0884 10.6611 54.0892 10.1212L54.0907 10.122Z" fill="#FBFCFF"/>
<path d="M68.8774 10.1274L70.0806 10.129L70.079 14.5017C70.079 15.1462 70.0478 16.2821 70.1017 16.8829C70.4274 16.8868 70.7938 16.9017 71.1134 16.8634L72.154 16.8595V19.2079C71.5032 19.2228 70.8532 19.2298 70.2024 19.229L70.104 19.1938C70.0423 19.8743 70.0735 21.1259 70.072 21.8587L70.0681 27.0142L70.0462 42.4853L68.8696 42.4868L68.8837 27.5485L68.8946 22.1704C68.8962 21.1938 68.9298 20.0478 68.8845 19.0892C68.8657 18.3626 68.8743 17.6087 68.8735 16.8798L68.8782 10.1274H68.8774Z" fill="#FBFCFF"/>
<path d="M71.114 16.8643L72.1546 16.8604V19.2088C71.5039 19.2236 70.8539 19.2307 70.2031 19.2299L70.1046 19.1947C70.1281 18.4611 70.1101 17.6221 70.1023 16.8846C70.4281 16.8885 70.7945 16.9033 71.114 16.865V16.8643Z" fill="#002C6E"/>
<path d="M63.7392 10.1193L63.7751 10.0771L63.8399 10.1014C63.9142 10.9592 63.8563 12.8436 63.8571 13.7654L63.8626 21.2561L63.8579 42.4889C65.4892 42.4967 67.1204 42.4959 68.7517 42.4865L68.7642 24.6107L68.7704 20.7881C68.7704 20.5279 68.7587 19.3639 68.8009 19.2029C68.8524 19.1748 68.8446 19.1592 68.8829 19.0904C68.929 20.0482 68.8954 21.1943 68.8931 22.1717L68.8821 27.5498L68.8681 42.4881L70.0446 42.4865L70.0665 27.0154L70.0704 21.86C70.072 21.1271 70.0407 19.8756 70.1024 19.1951L70.2009 19.2303L70.1907 37.7967C71.9907 37.8154 73.7915 37.8232 75.5915 37.8193C76.1548 37.8193 78.0696 37.7553 78.4813 37.8639C78.1938 37.9975 71.0743 37.9295 70.1892 37.9225L70.1774 42.4904C72.3743 42.5076 76.0696 42.4654 78.3892 42.5279C78.4079 42.5475 78.4274 42.5662 78.447 42.5857V42.5389L78.4978 42.5725C78.1313 42.6928 75.5001 42.6248 74.947 42.6248L68.161 42.6209L64.7274 42.6162C64.3212 42.6162 63.3431 42.6443 63.0032 42.6107C62.997 42.5857 62.9673 42.5217 62.9556 42.4959L63.7353 42.4881L63.7337 20.5678C63.7337 17.0959 63.7009 13.5896 63.7368 10.1217L63.7392 10.1193Z" fill="#2238A5"/>
<path d="M68.7563 16.8389L68.8727 16.8803C68.8742 17.6092 68.8648 18.3623 68.8836 19.0896C68.8445 19.1592 68.8531 19.174 68.8016 19.2021C68.1945 19.2037 67.5875 19.2021 66.9805 19.1982V16.86C67.5727 16.8623 68.1648 16.8561 68.7563 16.8389Z" fill="#002C6E"/>
<path d="M57.8976 31.804L58.0296 31.647L59.2952 36.5009C59.4429 37.0728 59.7499 38.0142 59.8335 38.5446C60.1921 38.9462 60.571 39.3485 60.9046 39.7681C60.996 39.8829 61.2749 40.4431 61.339 40.4704C61.7148 40.6345 61.9546 40.5321 62.278 40.9313C62.5476 41.2634 62.7163 42.2032 62.9585 42.4946C62.9702 42.5204 62.9999 42.5853 63.0062 42.6095C63.0647 43.004 63.5194 44.1384 63.6749 44.5368C64.0413 45.4774 64.3897 46.3767 64.7163 47.3345L64.764 47.3126C65.7921 46.8509 66.8788 46.4673 67.914 46.0313C69.5835 45.3274 70.0179 46.6321 70.5429 47.8735L71.4476 49.9931C72.7538 53.0423 74.039 56.1009 75.3015 59.1681C75.7374 60.2149 76.2218 61.3095 76.5522 62.3845C76.6554 62.7196 76.2054 63.3767 75.8874 63.5165C75.121 63.854 74.2835 64.1509 73.5062 64.4571L66.9718 66.9829C66.8983 67.3532 66.8241 67.6345 66.553 67.9235C66.3124 68.1798 65.9804 68.329 65.6288 68.3392C65.2538 68.3462 64.8929 68.197 64.6335 67.9267C64.0272 67.3056 64.1554 66.6548 64.7202 66.086C64.5827 65.6548 64.3499 65.1102 64.1772 64.6767C63.8577 63.8665 63.5327 63.0595 63.2022 62.254L60.5101 55.5368C59.9343 54.122 59.3249 52.7134 58.7937 51.2821C58.3905 50.197 59.2546 49.4626 60.2015 49.1712C59.7304 47.8407 59.1757 46.536 58.6897 45.2118C58.3827 44.3751 57.8608 43.4931 57.9233 42.5985L55.0327 42.5962L55.046 42.4798C55.0093 42.2829 55.0241 41.2665 55.0249 40.9938C55.0249 39.8524 55.0304 38.711 55.0421 37.5704C55.0538 37.0423 55.0296 33.4134 55.1351 33.2188C55.0819 33.047 54.9796 32.7923 55.0241 32.6337L55.128 32.6134C55.8569 32.5634 57.1952 32.0892 57.8991 31.8048L57.8976 31.804Z" fill="#002C6E"/>
<path d="M55.1265 32.6123C55.8554 32.5623 57.1937 32.0881 57.8976 31.8037C58.2804 33.3826 58.6874 34.9553 59.1194 36.5209C59.2616 37.0537 59.6179 38.1896 59.671 38.66C60.2171 39.267 61.1593 40.2506 61.3483 41.1482C61.3601 41.2029 61.2812 41.3498 61.2515 41.4053L61.1913 41.435C60.9335 41.2115 60.0249 39.9865 59.6476 39.9857L59.5562 40.0467C59.5827 40.3068 60.8358 40.9709 60.8218 41.4693C60.7319 41.5482 60.7819 41.5318 60.6702 41.5279C60.4272 41.3709 59.996 40.8873 59.9718 40.5889C59.8733 40.5889 59.9187 40.5865 59.8116 40.6646C59.7147 41.0607 60.453 41.4287 60.5194 41.8701C60.4624 42.0357 60.2562 42.1506 60.1421 42.0186C59.8702 41.7045 59.6726 41.2287 59.3835 40.9357C59.2702 40.9693 59.3116 40.9342 59.2444 41.0248C59.3304 41.4615 60.0312 41.8076 59.8296 42.2342C59.3601 42.5193 59.0702 41.3068 58.7226 41.1936L58.6671 41.2396C58.6702 41.4396 59.1077 41.9311 59.2585 42.2537L59.2905 42.3209L58.9179 42.4568C58.389 41.7928 57.9452 40.8271 57.5296 40.0748C57.1647 39.4139 56.9327 38.4771 56.7085 37.742L55.728 34.5264C55.6288 34.2021 55.2366 32.8514 55.1265 32.6123Z" fill="#FBFCFF"/>
<path d="M55.0406 37.5713C55.0523 37.0432 55.0281 33.4143 55.1336 33.2197C55.8367 35.3674 56.4109 37.5705 57.1578 39.701C57.3726 40.3127 58.0195 41.3854 58.3398 41.9877C58.057 42.208 58.0757 42.3455 57.9195 42.4908L57.9218 42.6002L55.0312 42.5978L55.0445 42.4814C55.0078 42.2846 55.0226 41.2682 55.0234 40.9955C55.0234 39.8541 55.0289 38.7127 55.0406 37.5721V37.5713Z" fill="#FBFCFF"/>
<path d="M55.0445 42.4805L56.8664 42.4727C57.1273 42.4719 57.6758 42.4586 57.9195 42.4899L57.9219 42.5993L55.0312 42.5969L55.0445 42.4805Z" fill="#2238A5"/>
<path d="M65.354 47.2845C65.504 47.4477 66.2758 49.3095 66.4461 49.7017L70.8508 60.0696C71.4407 61.4642 72.2204 63.1509 72.75 64.5321C70.8454 65.2595 68.8219 66.0212 66.9313 66.7743C66.8704 66.4673 66.8344 66.3735 66.661 66.1134C66.1368 65.5368 65.4922 65.5579 64.8782 65.9571C64.4563 64.7243 63.8446 63.3095 63.354 62.0813L60.4547 54.8571C60.1415 54.0782 59.8211 53.3017 59.4954 52.5282C59.1289 51.6548 58.336 50.3696 59.5282 49.697C60.0649 49.3938 60.7704 49.1587 61.3516 48.922L65.3547 47.2837L65.354 47.2845Z" fill="#FFB700"/>
<path d="M68.5585 45.9939C69.7804 45.9705 70.1718 47.4861 70.571 48.4236L71.9562 51.7049C73.0226 54.1752 74.064 56.6564 75.0804 59.1471C75.4796 60.1268 76.0531 61.4049 76.3835 62.3807C76.2117 63.2588 75.8421 63.3432 75.0687 63.6299L74.596 63.7978C74.2289 63.0033 73.9046 62.1416 73.5476 61.3354C72.3023 58.5275 71.1695 55.6713 69.9835 52.8408C69.4531 51.565 68.9093 50.2947 68.3523 49.0299C68.0312 48.29 67.5476 47.2361 67.3093 46.4986C67.7062 46.3268 68.15 46.1205 68.5585 45.9932V45.9939Z" fill="#FFB700"/>
<path d="M62.5905 42.4586L62.6319 42.5875C62.7944 42.9805 62.9296 43.4297 63.0835 43.8352L64.4757 47.4336L60.471 49.0547C59.7233 47.1766 59.0108 45.2422 58.3093 43.3445C58.221 43.1063 58.1913 42.9688 58.3616 42.7789C58.4554 42.7094 58.5702 42.6102 58.6624 42.5344C59.1757 42.8188 59.0038 43.2352 59.9397 43.0508C60.4015 42.9594 60.903 42.6633 61.296 42.5758C61.3233 42.5641 61.3616 42.5359 61.3874 42.5188L61.3218 42.4633C61.7546 42.4461 62.1593 42.4524 62.5913 42.4586H62.5905Z" fill="#FBFCFF"/>
<path d="M62.5907 42.4586L62.6321 42.5875C62.1868 42.5914 61.7407 42.5875 61.2954 42.5758C61.3228 42.5641 61.361 42.5359 61.3868 42.5188L61.3212 42.4633C61.754 42.4461 62.1587 42.4524 62.5907 42.4586Z" fill="#2238A5"/>
<path d="M67.0726 46.5811C67.1983 46.7279 68.0741 48.8811 68.2218 49.2232L72.0054 58.1686C72.7929 60.0467 73.6007 62.035 74.4452 63.8811C74.1515 63.9811 73.8491 64.1053 73.5585 64.2186C73.0663 62.8264 72.346 61.3553 71.789 59.9803C70.8476 57.6584 69.7976 55.3857 68.7952 53.0896C67.8991 51.0521 67.0249 49.0053 66.1733 46.9482C66.4749 46.8295 66.7749 46.7068 67.0733 46.5811H67.0726Z" fill="#FFB700"/>
<path d="M65.9358 47.0438C66.0116 47.0773 66.0421 47.1547 66.0772 47.2328L70.9015 58.3359C71.7327 60.2891 72.5499 62.3508 73.3983 64.2836L73.0179 64.432L72.9304 64.4563C72.8413 64.2852 72.7632 64.0141 72.6671 63.8133C72.3421 63.1375 72.0702 62.4539 71.7812 61.768L69.6343 56.6898L66.7874 50.0172C66.6007 49.5836 65.6671 47.5656 65.6187 47.2234C65.6952 47.1039 65.7796 47.1039 65.9351 47.043L65.9358 47.0438Z" fill="#FFB700"/>
<path d="M59.0288 42.6232C59.3882 42.4708 59.4749 42.4919 59.8522 42.4247C59.878 42.4201 60.0147 42.256 60.0468 42.2177C60.6218 42.2216 60.5632 42.3177 60.7593 41.7607C60.8241 41.5755 61.5507 41.8286 61.5218 41.1177C61.5179 41.0224 61.5093 40.9279 61.496 40.8333C62.0483 40.6966 62.464 42.0591 62.5913 42.4591C62.1593 42.4529 61.7546 42.4466 61.3218 42.4638C61.1062 42.3646 61.1733 42.3552 60.9476 42.47C60.7929 42.549 60.5991 42.6341 60.4351 42.6966C59.8382 42.9255 59.5249 43.0935 59.0288 42.624V42.6232Z" fill="#FBFCFF"/>
<path d="M45.6968 36.9018C49.0233 38.0533 51.5499 38.4119 55.0405 37.5713C55.0288 38.7127 55.0226 39.8541 55.0233 40.9947C55.0233 41.2674 55.0077 42.2838 55.0444 42.4807L55.0312 42.5971L54.996 55.44C54.9921 56.9916 54.9757 58.5432 54.9476 60.0947C54.9351 60.9025 54.9343 62.2229 54.8405 63.0041C54.603 63.0229 54.2733 63.0189 54.028 63.0229C54.0304 63.5471 53.939 64.8572 54.003 65.3025C54.1054 66.0104 54.7077 67.3439 54.6304 68.151C54.628 68.1791 54.5843 68.2979 54.5468 68.2986C51.214 68.3885 47.8405 68.3041 44.4999 68.3221C44.3335 68.3229 44.1413 68.3127 44.0304 68.2658C43.8483 67.958 44.1296 67.2838 44.3968 67.1721C45.8663 66.5588 47.1202 66.1018 48.4616 65.1955C48.4077 64.7932 48.2585 63.3705 48.171 63.0564C48.0522 62.9994 48.0499 63.0018 47.953 62.915C47.5843 61.6158 47.3929 60.1525 47.0702 58.8346C45.7499 53.4369 45.4624 48.1447 45.5804 42.5971L45.5319 42.4893C45.5616 42.4424 45.578 42.4174 45.5788 42.3588C45.6061 40.5416 45.6249 38.715 45.6952 36.8994L45.6968 36.9018Z" fill="#002C6E"/>
<path d="M48.3921 63.0298C49.1952 63.0275 50.2788 62.9947 51.0483 63.0681C51.1202 63.5361 51.1147 64.6439 51.1233 65.165L48.6444 65.1837C48.5897 64.5064 48.4093 63.6962 48.3921 63.0298Z" fill="#FBFCFF"/>
<path d="M51.2532 63.0232C52.1227 63.0131 52.9922 63.0131 53.861 63.0232C53.8704 63.6842 53.8227 64.46 53.7954 65.1287C53.6852 65.2154 51.5954 65.1639 51.2899 65.1615C51.2876 64.4467 51.2899 63.7381 51.2532 63.024V63.0232Z" fill="#FBFCFF"/>
<path d="M48.6117 49.2549L48.7523 49.2955C48.8218 49.4408 49.0586 52.2979 49.1 52.6791C49.4007 55.2908 49.8218 57.8877 50.3609 60.4611C50.4289 60.7939 50.9757 62.8166 50.9367 62.9736C50.7593 62.9166 50.7437 62.8721 50.6851 62.6908C50.3343 61.5947 50.125 60.4588 49.9039 59.3314C49.3304 56.5002 48.9172 53.6385 48.6656 50.7611C48.639 50.4603 48.514 49.4588 48.6117 49.2557V49.2549Z" fill="#FBFCFF"/>
<path d="M12.0946 10.1029L5.02197 10.0974C4.51729 10.0974 1.81729 10.1365 1.55557 10.0435L1.52588 10.006C1.93916 9.96228 2.62197 9.97946 3.054 9.97946H5.6501L14.1235 9.97712L20.7563 9.97478L22.6407 9.97009C22.9446 9.96931 23.4337 9.95212 23.7228 9.99275L23.7282 10.0185C23.2493 10.1427 22.286 10.0935 21.7431 10.0943L18.5048 10.1021L18.4821 29.0927L18.4962 35.2951C18.4954 35.7623 18.5251 37.5435 18.4681 37.9427L18.3743 37.9263C17.8017 37.9912 17.2196 38.0552 17.1165 38.7545C17.0134 39.4521 16.9579 40.1552 16.8665 40.8545C16.8251 41.2584 16.6743 42.1959 16.6806 42.5162L16.6517 42.6287L6.1165 42.6123L3.45244 42.6177C2.94385 42.6201 2.05947 42.6756 1.6001 42.5631L1.6251 42.5365C2.6126 42.4506 4.26338 42.492 5.28916 42.4888L12.1126 42.4779V39.4076C12.1134 39.1263 12.1337 38.124 12.0759 37.9115L12.0657 37.7865C12.1517 37.5607 12.1087 33.7818 12.1087 33.2459L12.1056 19.2248L11.1134 19.2209C10.8446 19.2271 10.5688 19.217 10.2993 19.2099C10.2884 18.4302 10.2868 17.6498 10.2946 16.8701C10.9095 16.8795 11.5243 16.8795 12.1392 16.8701C12.0688 16.5802 12.0993 14.8818 12.1001 14.4943L12.0962 10.1013L12.0946 10.1029Z" fill="#FBFCFF"/>
<path d="M12.2258 10.104L13.4415 10.1056V15.1915C13.443 16.111 13.425 17.1587 13.468 18.0634C13.4618 18.4462 13.4602 18.8282 13.461 19.211C13.4079 19.9478 13.4407 21.2071 13.4391 21.9696L13.4329 27.2595L13.418 42.4798L12.2336 42.4813L12.2258 10.1048V10.104Z" fill="#FBFCFF"/>
<path d="M12.0946 10.1029L5.02197 10.0974C4.51729 10.0974 1.81729 10.1365 1.55557 10.0435L1.52588 10.006C1.93916 9.96228 2.62197 9.97946 3.054 9.97946H5.6501L14.1235 9.97712L20.7563 9.97478L22.6407 9.97009C22.9446 9.96931 23.4337 9.95212 23.7228 9.99275L23.7282 10.0185C23.2493 10.1427 22.286 10.0935 21.7431 10.0943L18.5048 10.1021L18.4821 29.0927L18.4962 35.2951C18.4954 35.7623 18.5251 37.5435 18.4681 37.9427L18.3743 37.9263C18.3501 37.1388 18.3821 36.1709 18.3845 35.3662L18.3743 30.9709L18.3806 10.0951L13.579 10.0998C13.5274 12.2818 13.5642 14.6787 13.5829 16.8685L13.5993 16.8795L13.4884 16.931C13.4884 17.2201 13.5032 17.7967 13.4704 18.0623C13.4274 17.1584 13.4454 16.1099 13.4431 15.1904V10.1045L12.2282 10.1029L12.236 42.4795L13.4204 42.4779L13.4353 27.2576L13.4415 21.9677C13.4431 21.2052 13.411 19.9459 13.4634 19.2092C13.7712 19.1802 15.0962 19.1685 15.4157 19.2037C14.9423 19.2506 14.0821 19.2263 13.579 19.2256L13.5556 42.4873C14.1845 42.4959 14.8142 42.4982 15.4431 42.4951C15.7907 42.4943 16.3524 42.4787 16.6813 42.5154L16.6524 42.6279L6.11729 42.6115L3.45322 42.617C2.94463 42.6193 2.06025 42.6748 1.60088 42.5623L1.62588 42.5357C2.61338 42.4498 4.26416 42.4912 5.28994 42.4881L12.1134 42.4771V39.4068C12.1142 39.1256 12.1345 38.1232 12.0767 37.9107L12.0665 37.7857C12.1524 37.5599 12.1095 33.781 12.1095 33.2451L12.1063 19.224L11.1142 19.2201C10.8454 19.2263 10.5696 19.2162 10.3001 19.2092C10.2892 18.4295 10.2876 17.649 10.2954 16.8693C10.9103 16.8787 11.5251 16.8787 12.1399 16.8693C12.0696 16.5795 12.1001 14.881 12.1009 14.4935L12.097 10.1006L12.0946 10.1029Z" fill="#2238A5"/>
<path d="M12.1375 16.8719C12.2555 17.0109 12.1875 18.893 12.193 19.2211C11.9086 19.1828 11.393 19.1687 11.1117 19.2219C10.843 19.2281 10.5672 19.218 10.2977 19.2109C10.2867 18.4313 10.2852 17.6508 10.293 16.8711C10.9078 16.8805 11.5227 16.8805 12.1375 16.8711V16.8719Z" fill="#002C6E"/>
<path d="M13.4868 16.9311L13.4985 16.5107C13.5329 16.5326 13.5454 16.7225 13.5649 16.8037L13.5813 16.8693L13.5978 16.8803L13.4868 16.9318V16.9311Z" fill="#002C6E"/>
<path d="M13.4867 16.9314L13.5976 16.8799C14.189 16.8822 14.8249 16.8744 15.4124 16.8994V19.2049C15.0945 19.1697 13.7695 19.1814 13.4617 19.2104C13.4601 18.8275 13.4624 18.4455 13.4687 18.0627C13.5015 17.7971 13.4867 17.2205 13.4867 16.9314Z" fill="#002C6E"/>
<path d="M38.8728 41.8711C38.8884 42.0008 38.9126 42.3281 38.9657 42.4273C39.1446 42.4969 43.4165 42.4852 43.8626 42.4469C43.9235 42.3219 43.9095 42.1281 43.9126 41.9828C43.9501 42.1258 43.9743 42.3406 44.0274 42.4461C44.4735 42.5008 45.1321 42.4172 45.5345 42.4914L45.5829 42.5992C44.2267 42.5445 42.5196 42.5953 41.1345 42.5953L32.9165 42.6023L32.9243 42.4797C33.1501 42.4469 33.7626 42.4594 34.0048 42.4602L36.1853 42.4688C36.5267 42.4695 37.1142 42.4836 37.4392 42.4438C37.5017 42.3414 37.4985 42.3031 37.5282 42.1852C37.5321 42.318 37.5157 42.3078 37.5735 42.4125C37.7978 42.5195 38.5517 42.4633 38.8696 42.4602L38.8743 41.8711H38.8728Z" fill="#2238A5"/>
<path d="M12.0743 37.913L4.8977 37.9208C4.29302 37.9208 2.10317 37.9692 1.6438 37.8653L1.65864 37.8396C2.47114 37.7528 4.33677 37.7981 5.21099 37.7966L12.0641 37.788L12.0743 37.913Z" fill="#2238A5"/>
</svg>
