<svg width="102" height="68" viewBox="0 0 102 68" fill="none" xmlns="http://www.w3.org/2000/svg">
<path d="M61.5258 28.8568C60.275 28.9005 59.5758 28.3091 59.5883 27.0412C59.6039 25.4224 61.125 23.9943 62.7289 24.0294C64.4844 24.0677 65.8789 25.5857 65.8867 27.3162C65.8867 27.4419 65.8664 27.5998 65.8531 27.7263C67.7476 28.6193 68.5398 30.1599 66.9008 31.8185C67.7484 33.7779 69.4969 37.4271 68.682 39.4919C68.5094 39.9248 68.2445 40.3154 67.907 40.6365L67.8976 40.5873C67.8015 40.0544 67.7711 39.4693 67.7078 38.9279C67.5461 37.5357 67.4117 36.1341 67.2031 34.749C67.1914 34.6701 67.1469 34.5951 67.0836 34.5466C66.975 34.556 67.0265 34.5388 66.9375 34.6279C66.9242 34.7912 67.0805 36.0505 67.1078 36.2919L67.6164 40.706C67.8773 43.1107 68.0094 45.6537 68.1469 48.0763C68.2281 49.5123 68.3461 51.3154 68.325 52.7255L67.8703 52.7412C67.793 53.7943 67.6398 54.9584 67.5219 56.0146C67.3586 57.4724 67.2031 58.9318 67.0555 60.3912C66.9078 61.7669 66.7398 62.7005 66.7508 64.0959H73.7883C74.8883 64.0959 76.2656 64.0583 77.3508 64.1029C76.8203 64.3373 71.2625 64.0099 70.3851 64.1466C69.5773 64.2716 67.3351 63.9685 66.5125 64.1998C63.8594 64.274 61.0445 64.1568 58.3719 64.2068C58.4094 64.1443 58.4101 64.1591 58.4805 64.1138C58.4562 63.8091 58.45 62.9224 58.4867 62.6357C58.5437 62.574 58.5226 62.5888 58.5828 62.5505C58.6359 62.5169 61.1062 53.5349 61.3203 52.7044L61.2906 52.6724C61.193 52.656 61.2195 52.6732 61.1453 52.6232C61.3039 52.6209 61.6765 52.6498 61.7867 52.5857C60.3469 52.563 58.8687 52.5787 57.4258 52.5771C57.4539 52.4365 57.4609 52.2912 57.4719 52.1474C57.4453 52.1138 57.4625 52.1326 57.4094 52.0927L57.3625 52.0591L57.3695 52.0123C57.5953 52.0162 58.7086 52.0763 58.857 52.0005C57.6398 51.881 56.2375 52.1037 55.0086 51.938C54.5234 51.8724 53.9086 51.1318 53.9656 50.6982C54.164 49.1709 54.6187 47.6607 54.95 46.156C55.1265 45.3638 55.7937 45.3123 56.4594 45.3294C56.4383 45.5419 56.4015 45.681 56.5219 45.8529L56.6101 45.9068L56.6211 45.9607L56.5914 45.9724C56.9109 46.5099 57.4422 46.1357 57.8383 45.9404L57.8398 45.7537C58.0492 45.6052 58.2234 44.2748 58.3164 43.9013C58.0039 43.824 57.5703 43.7029 57.2601 43.6623C57.1633 43.6021 57.1547 43.5287 57.018 43.4623C57.3094 40.6279 57.6703 37.7357 58.168 34.9334C58.4726 33.2154 58.6547 31.488 60.1812 30.4013C60.7203 30.0107 61.0242 29.7951 61.6695 29.5419L61.5258 28.8607V28.8568Z" fill="#809DCA"/>
<path d="M58.2336 45.0915C58.3813 44.3172 58.5633 43.868 58.7289 43.1579L59.9078 38.1172C60.1086 37.2665 60.3164 36.4165 60.532 35.5696C60.5977 35.3118 60.6453 34.9579 60.7508 34.7329C60.8508 34.6579 60.7953 34.6751 60.9234 34.6821L60.9789 34.7524C61.0234 35.0485 60.4977 36.9797 60.3844 37.4297L59.3086 41.7962L59.3727 41.8352L59.4305 41.8368C59.8031 41.8493 60.4516 42.0243 60.918 42.043C63.3406 42.1383 65.2625 42.1219 67.5102 41.1258C67.7141 43.6274 67.882 46.1321 68.0117 48.6391C68.0781 49.9079 68.1797 51.3188 68.1703 52.5774C66.0703 52.5774 63.882 52.5477 61.7867 52.5852C60.3469 52.5626 58.8687 52.5782 57.4258 52.5766C57.4539 52.436 57.4609 52.2907 57.4719 52.1469C58.2336 52.1087 59.2375 52.3063 59.8805 51.8282C60.5094 51.3602 60.5555 50.7508 60.4117 50.0407C60.143 48.7133 59.9258 47.3626 59.6359 46.0391C59.4813 45.3383 58.8602 45.1368 58.2328 45.093L58.2336 45.0915Z" fill="#FBFCFF"/>
<path d="M59.3725 41.8343C59.3045 42.0562 59.2717 42.1507 59.1717 42.3655L59.1076 42.3702V42.4233L59.1045 42.4171C59.1209 42.2187 59.2318 41.9858 59.3084 41.7944L59.3725 41.8335V41.8343Z" fill="#FBFCFF"/>
<path d="M63.5032 46.8025C63.5329 46.8213 63.5711 46.8557 63.5993 46.8791C63.6766 47.3182 63.8211 51.3213 63.7415 51.5291C63.5055 51.4072 63.5555 48.0166 63.4782 47.5111C63.4555 47.365 63.4641 46.9447 63.5032 46.8018V46.8025Z" fill="#002C6E"/>
<path d="M61.3213 52.7021C61.7322 52.7678 63.2619 52.7232 63.7791 52.7287L64.4393 62.4443C63.6916 62.8287 62.9916 63.2545 62.2611 63.6678C62.008 63.8107 62.0666 64.0451 61.9252 64.0646C61.0307 64.1904 59.2994 64.0037 58.4807 64.1123C58.4564 63.8076 58.4502 62.9209 58.4869 62.6342C58.5439 62.5725 58.5229 62.5873 58.583 62.549C58.6361 62.5154 61.1064 53.5334 61.3205 52.7029L61.3213 52.7021Z" fill="#FBFCFF"/>
<path d="M58.226 45.2451C58.6275 45.2787 58.9994 45.3498 59.2736 45.6756C59.383 45.8053 59.4353 45.9623 59.4822 46.1225C59.6603 46.7412 60.3705 50.4123 60.3002 50.9107C60.2541 51.2365 59.9986 51.5623 59.7306 51.7404C59.4588 51.9209 59.1799 51.9873 58.858 51.9975C57.6408 51.8779 56.2385 52.1006 55.0096 51.935C54.5244 51.8693 53.9096 51.1287 53.9666 50.6951C54.165 49.1678 54.6197 47.6576 54.951 46.1529C55.1275 45.3607 55.7947 45.3092 56.4603 45.3264C56.4392 45.5389 56.4025 45.6779 56.5228 45.8498L56.6111 45.9037L56.6221 45.9576L56.5924 45.9693C56.9119 46.5068 57.4431 46.1326 57.8392 45.9373C58.0275 47.2162 58.4205 48.5217 58.6103 49.8068C58.6346 49.9701 58.6971 50.4482 58.8197 50.5537L58.8658 50.524C58.8869 50.2639 58.8049 49.999 58.7572 49.7404C58.5213 48.4584 58.2299 47.1889 58.0033 45.9053L58.2267 45.2451H58.226Z" fill="#FBFCFF"/>
<path d="M56.5219 45.8501L56.6102 45.904L56.6212 45.9579L56.5915 45.9696C56.4001 46.5329 55.5532 50.2579 55.3579 50.4478L55.3024 50.4142C55.2469 50.0814 56.2962 46.7212 56.3798 46.1149C56.3915 46.0313 56.4641 45.9173 56.5227 45.8509L56.5219 45.8501Z" fill="#002C6E"/>
<path d="M57.3737 47.3174L57.437 47.3697C57.5057 47.5885 57.5635 48.59 57.4854 48.8197C57.3034 48.6416 57.2588 47.5002 57.3737 47.3174Z" fill="#002C6E"/>
<path d="M62.5646 24.1878C62.6732 24.1823 62.7436 24.1839 62.8537 24.1917C63.6654 24.2511 64.4193 24.6339 64.9467 25.255C65.6295 26.0519 65.7568 26.8105 65.6732 27.8112C66.0857 28.0027 66.6264 28.2675 66.942 28.5894C68.6154 30.2972 66.8959 32.3112 64.949 32.3394C64.5537 32.3323 64.0959 32.2136 63.6498 31.9698C62.3115 31.2402 61.5092 29.448 61.7092 27.9612C61.9639 27.8597 62.299 27.7331 62.424 27.4839C62.5115 27.3105 62.4865 26.8456 62.2967 26.7745C61.2271 26.3753 61.0904 26.1675 60.6709 25.0409C61.2232 24.5003 61.7959 24.2456 62.5646 24.1878Z" fill="#FBFCFF"/>
<path d="M63.9272 52.729H67.739C67.6069 53.5485 67.5116 54.6712 67.4163 55.5134C67.1937 57.4767 66.9835 59.4415 66.7851 61.4079C66.7554 61.747 66.7163 62.0853 66.6686 62.4228L64.5874 62.4095C64.403 59.1923 64.0937 55.9235 63.928 52.729H63.9272Z" fill="#FBFCFF"/>
<path d="M64.5467 62.5713C65.2271 62.5713 65.9068 62.5744 66.5865 62.583V64.0924L64.2771 64.09C63.9686 64.09 62.3795 64.1416 62.2217 64.0338L62.2232 63.9533C62.4568 63.6604 64.1506 62.7799 64.5467 62.5713Z" fill="#FBFCFF"/>
<path d="M60.5468 25.1758C60.6273 25.2367 60.6976 25.5469 60.7617 25.6789C60.8914 25.9453 60.9961 26.2039 61.1968 26.4273C61.5156 26.7812 62.0882 26.6383 62.2984 27.0719C62.5422 27.5734 61.8093 27.7172 61.4914 27.8531C61.4656 27.9555 61.5109 28.4273 61.5109 28.5992C61.4304 28.6781 61.3492 28.6977 61.2398 28.7047C60.4047 28.7586 59.789 28.0531 59.7437 27.2625C59.6945 26.3992 60.0164 25.8094 60.5468 25.1766V25.1758Z" fill="#FBFCFF"/>
<path d="M34.1797 43.3476C34.1797 42.8874 34.1078 41.2038 34.2867 40.9077C34.3719 41.0444 34.3383 43.0327 34.3367 43.3499C34.8719 43.3499 35.8008 43.3226 36.3031 43.371C36.143 43.3882 36.0516 43.396 35.8906 43.3952L35.8727 43.4312L35.9828 43.5093C36.2906 44.7648 40.9203 61.4358 40.9797 61.5085L41.0883 61.5405L41.1289 61.6749C40.9102 61.6765 39.1539 62.3249 38.9102 62.4608C38.832 62.5538 38.8383 62.5483 38.8047 62.6663L38.768 62.5437C38.7539 62.5358 38.5812 62.4476 38.5867 62.4624C37.8164 60.5726 37.0406 58.6788 36.2633 56.7921L31.9578 46.4312L31.1875 44.5538C31.0633 44.2483 30.893 43.5655 30.5977 43.4593C30.4836 43.4866 30.5336 43.4593 30.45 43.5577C30.4188 43.7749 32.1922 47.7046 32.4234 48.378C31.625 49.9905 30.7773 52.0624 30.0484 53.7319L26.2672 62.4046C26.6594 62.6382 28.3844 63.5163 28.5 63.8187C28.4906 63.9304 28.4797 63.9616 28.5086 64.0702C28.9227 64.1202 30.068 64.0882 30.5602 64.0882L34.8922 64.0897L49.5 64.0929C49.9164 64.0929 53.6102 64.1265 53.7492 64.0421C53.7563 64.0023 53.7633 63.9624 53.7719 63.9226C53.843 63.6179 55.6477 62.6812 56.0023 62.4554C56.0273 62.1733 56.0664 61.8874 56.1008 61.6062C56.4875 58.4522 57.0156 55.2999 57.318 52.1374C56.5383 52.1202 55.7438 52.1913 54.9797 52.0897C54.4062 52.0132 53.7117 51.1741 53.8055 50.6257C53.9594 49.7296 54.1273 48.7147 54.3789 47.8366C54.7805 46.4382 54.5828 45.003 56.4695 45.1858L56.4875 45.128C56.6437 44.6054 57.2516 43.9366 57.018 43.4593C57.1547 43.5257 57.1641 43.5991 57.2602 43.6593C57.5695 43.6999 58.0039 43.821 58.3164 43.8983C58.2234 44.2718 58.0492 45.6023 57.8398 45.7507L57.8383 45.9374C57.4422 46.1327 56.9109 46.5069 56.5914 45.9694L56.6211 45.9577L56.6102 45.9038L56.5219 45.8499C56.4016 45.678 56.4383 45.539 56.4594 45.3265C55.7938 45.3093 55.1266 45.3608 54.95 46.153C54.6195 47.6577 54.1648 49.1679 53.9656 50.6952C53.9094 51.1288 54.5234 51.8694 55.0086 51.9351C56.2367 52.1007 57.6398 51.878 58.857 51.9976C58.7086 52.0741 57.5953 52.0132 57.3695 52.0093L57.3625 52.0562L57.4094 52.0897C57.4625 52.1296 57.4453 52.1108 57.4719 52.1444C57.4609 52.2882 57.4539 52.4335 57.4258 52.5741C58.8688 52.5757 60.3469 52.5601 61.7867 52.5827C61.6766 52.6468 61.3039 52.6179 61.1453 52.6202C61.2203 52.6702 61.1938 52.653 61.2906 52.6694L61.3203 52.7015C61.1055 53.5327 58.6359 62.514 58.5828 62.5476C58.5219 62.5858 58.5438 62.5718 58.4867 62.6327C58.45 62.9194 58.4555 63.8062 58.4805 64.1108C58.4102 64.1562 58.4094 64.1413 58.3719 64.2038C61.0445 64.1538 63.8594 64.271 66.5125 64.1968C66.7086 64.1968 66.8672 64.1843 67.0547 64.239C65.2336 64.3007 63.0094 64.2429 61.1562 64.2429L49.2828 64.2444L12.2648 64.2515H4.20312C3.70859 64.2499 0.2625 64.278 0.13125 64.203L0.125 64.1382C0.264844 64.0476 3.55781 64.0921 4.01172 64.0921L11.6078 64.0952C12.9578 64.0952 14.4156 64.1202 15.7562 64.0843L16.6297 64.0913L21.6125 64.0882C22.7281 64.0897 23.9883 64.121 25.0906 64.0741C24.4008 63.9218 23.8398 63.9288 23.5398 63.2202C23.5906 62.971 23.6781 62.7296 23.7367 62.4749C23.8141 62.1585 23.8133 61.8085 23.9023 61.4944C24.2328 60.3218 24.5852 59.1507 24.9258 57.9812L26.5883 52.2343C27.1648 50.1999 27.7562 48.1694 28.3609 46.1437C28.6125 45.289 28.8242 44.3241 29.1281 43.5054L29.2375 43.4202L29.2219 43.3515C30.8758 43.3304 32.5289 43.3608 34.1789 43.3444L34.1797 43.3476Z" fill="#002C6E"/>
<path d="M57.2602 43.6587C57.5696 43.6993 58.004 43.8204 58.3165 43.8978C58.2235 44.2712 58.0493 45.6017 57.8399 45.7501C57.4407 45.8228 57.5876 46.0813 57.1165 45.9204L57.0282 46.0306C56.9141 46.0681 56.9735 46.0634 56.843 46.0251C56.8149 45.9478 56.7969 45.8696 56.7805 45.7892L56.6352 45.7423C56.436 45.2884 56.9469 44.5439 57.1219 44.1251C57.1852 43.9728 57.2219 43.8181 57.2602 43.6587Z" fill="#FBFCFF"/>
<path d="M57.4101 52.7298C58.639 52.7087 59.9077 52.7267 61.1397 52.7298C60.4366 55.5845 59.5429 58.4376 58.7983 61.2892L58.4687 62.4431L56.1616 62.447C56.5366 59.2072 57.0718 55.9869 57.4108 52.7291L57.4101 52.7298Z" fill="#FBFCFF"/>
<path d="M24.0135 62.1272C24.9994 62.3085 26.0338 62.3577 26.8658 62.9405C27.1846 63.164 28.1635 63.5749 28.3346 63.8897C28.3213 64.0366 28.3502 63.978 28.2728 64.0804L28.1346 64.0921C26.9096 64.0937 25.8228 64.1288 24.6119 63.8226C23.4158 63.5194 23.7181 63.0796 24.0127 62.1265L24.0135 62.1272Z" fill="#FBFCFF"/>
<path d="M56.071 62.6141C56.7077 62.5758 57.6546 62.6048 58.3147 62.604V64.0915H56.2304C55.5507 64.0868 54.753 64.1344 54.0788 64.0712C53.9913 64.0626 53.9968 64.0446 53.9624 63.9899C54.0515 63.6907 55.6773 62.8602 56.071 62.6141Z" fill="#FBFCFF"/>
<path d="M22.0063 42.1139C22.3337 40.9233 22.6728 39.7358 23.0235 38.5514C23.1985 37.9538 23.4173 37.1679 23.6235 36.5952C23.7251 36.3124 24.3306 35.4022 24.5149 35.1155L26.0556 32.7163C26.4603 32.0882 26.8587 31.4538 27.2579 30.8218C27.5798 30.3116 27.7673 29.9522 28.3071 29.6374C28.6931 29.4155 29.122 29.2788 29.5649 29.2366C30.1931 29.1749 33.2274 29.5608 33.9142 29.7155C35.7587 31.4968 36.4024 35.8468 36.4454 38.3452C36.4485 38.5561 36.4501 38.7663 36.4493 38.9772V40.1077C36.4462 40.5663 36.4165 43.0514 36.304 43.3718C35.8017 43.3233 34.8728 43.3499 34.3376 43.3507C34.3392 43.0327 34.3728 41.0452 34.2876 40.9085C34.1087 41.2038 34.1813 42.8874 34.1806 43.3483C32.5313 43.3647 30.8774 43.3343 29.2235 43.3554L28.4431 43.3421L28.4392 40.0788L28.4423 38.9608L28.4478 36.1038C28.4485 35.6218 28.4212 34.6514 28.5157 34.2233C28.6173 33.7639 29.8306 32.3085 29.8056 31.8546C29.529 32.1514 28.7618 33.4577 28.5001 33.8764L27.1337 36.0858C26.8142 36.5936 26.2938 37.3577 26.0618 37.8725C25.5524 39.0038 25.0728 40.1702 24.5751 41.3077C24.3626 41.7929 24.1212 42.4288 23.8688 42.8811C23.3142 42.6389 22.5649 42.2905 22.0071 42.1147L22.0063 42.1139Z" fill="#FBFCFF"/>
<path d="M28.4416 38.9612C30.1728 38.9519 31.9041 38.955 33.6354 38.9722V40.0972C31.9025 40.0761 30.1705 40.0698 28.4385 40.0792L28.4416 38.9612Z" fill="#FFB700"/>
<path d="M35.5556 38.9766H36.4493V40.1078H35.5532L35.5548 38.9766H35.5556Z" fill="#FFB700"/>
<path d="M34.1767 35.2749C34.2689 35.3093 34.2376 35.2905 34.3071 35.3608C34.3696 35.5944 34.3501 35.7569 34.3048 35.9944L34.2165 35.9538C34.0907 35.7835 34.1525 35.4851 34.1775 35.2749H34.1767Z" fill="#002C6E"/>
<path d="M34.1072 33.5376L34.2056 33.6126C34.2947 33.8563 34.2697 33.9798 34.2361 34.2407C34.2048 34.2196 34.1627 34.1782 34.133 34.1517C34.0587 33.9446 34.0119 33.7415 34.1072 33.5376Z" fill="#002C6E"/>
<path d="M33.7518 31.729C33.9939 31.7837 33.983 32.1962 34.0041 32.4087C33.9447 32.3907 33.9205 32.3767 33.8643 32.3509C33.7424 32.1267 33.7604 31.9915 33.751 31.7298L33.7518 31.729Z" fill="#002C6E"/>
<path d="M34.2062 37.4212L34.2906 37.4532C34.4039 37.5985 34.339 37.947 34.3179 38.1313L34.2086 38.0563C34.1414 37.8048 34.1671 37.6821 34.2054 37.4204L34.2062 37.4212Z" fill="#002C6E"/>
<path d="M23.8631 43.2366C23.9873 43.2968 24.2396 43.3905 24.2787 43.5366C24.3599 43.8397 22.2248 49.8624 21.949 50.5804C22.3584 50.7655 22.6716 51.0585 22.5302 51.5507C22.3287 52.2546 22.0685 52.9507 21.8279 53.6429C21.3802 54.9522 20.924 56.2577 20.4584 57.5608L19.3365 60.7335C19.0857 61.4515 18.8459 62.2397 18.5248 62.9226C18.2631 63.4796 17.5349 63.428 17.056 63.2999C16.9295 63.6077 16.8513 63.8538 16.5232 63.9991C16.392 64.0038 16.2552 63.9999 16.124 63.9991C15.4974 63.7569 15.3982 63.4124 15.542 62.7812C14.9037 62.614 13.9998 62.2905 13.3427 62.0804C12.6888 63.3538 11.4654 62.6874 11.8685 61.4351C11.2591 61.1593 10.4459 61.0905 10.0685 60.5015C9.57086 59.7249 10.0716 58.8108 10.3591 58.0272L11.3279 55.4179L12.592 51.9171C12.8341 51.2452 13.0756 50.5226 13.3779 49.8772C13.4865 49.646 13.742 49.4062 13.9631 49.2796C14.7607 48.8241 15.8677 49.4687 16.7248 49.7062C17.2748 49.1749 17.6224 49.3358 18.2732 49.5577C18.5435 48.8366 19.0545 47.2827 19.356 46.6687L19.3912 46.7327L18.7216 48.5491C18.6162 48.8335 18.4318 49.2577 18.3802 49.5343C18.4599 49.5226 18.4451 49.5226 18.5209 49.4905C18.6591 49.5624 18.6146 49.5226 18.6982 49.7015C18.7662 49.6991 18.7779 49.7116 18.8177 49.6835C19.0029 49.8085 21.0498 50.3265 21.4123 50.4218L23.1099 45.553C23.2513 45.1397 23.3959 44.7272 23.5451 44.3163C23.6216 44.1061 23.8185 43.6616 23.8021 43.453C23.8599 43.3546 23.8459 43.3569 23.8638 43.2358L23.8631 43.2366Z" fill="#002C6E"/>
<path d="M13.5322 61.9851C13.715 61.8101 13.9557 61.6085 14.0479 61.3796C14.2494 60.8772 14.4197 60.3437 14.5963 59.8312L15.6189 56.871L17.2307 52.3241C17.4822 51.6218 17.7322 50.9194 17.9924 50.2202C18.0541 50.0554 18.058 49.9421 18.0533 49.7687L18.0947 49.7124C18.7814 49.8507 19.6635 50.1366 20.358 50.3155C20.7104 50.4062 21.7361 50.6757 22.0213 50.8007C22.1229 50.8444 22.2104 50.9163 22.2729 51.0069C22.3768 51.1577 22.4174 51.3983 22.365 51.5671C22.165 52.2046 21.9307 52.8554 21.7135 53.4866C21.2221 54.9304 20.7189 56.3702 20.2041 57.8054C19.8447 58.8085 19.49 59.814 19.14 60.821C18.9236 61.4452 18.7197 62.0749 18.4658 62.6843C18.2432 63.2194 17.6822 63.3671 17.176 63.1319L17.0471 63.0999C16.7064 62.9741 16.2994 62.8499 15.9502 62.7335L15.8471 62.7233C15.4799 62.6062 15.1158 62.4796 14.7541 62.3452L14.6088 62.3116C14.2682 62.1866 13.8846 62.0858 13.533 61.9851H13.5322Z" fill="#FBFCFF"/>
<path d="M17.3508 62.2076C17.9633 60.3389 18.7039 58.3623 19.3617 56.4951L20.3078 53.824C20.4453 53.4303 20.8664 52.0326 21.0875 51.7998C21.1773 52.1084 20.8156 52.8889 20.7094 53.1896L20.0141 55.1826L17.4555 62.4256L17.1758 63.1311L17.0469 63.099C17.1367 62.7936 17.243 62.5061 17.3516 62.2076H17.3508Z" fill="#FFB700"/>
<path d="M16.0962 61.8116L18.197 55.9296C18.3681 55.439 19.6704 51.6179 19.8196 51.5171C19.9954 51.746 19.0259 54.1038 18.8642 54.5561C17.9642 57.0116 17.0892 59.4772 16.2415 61.9515C16.1618 62.1687 16.0407 62.5335 15.9493 62.7335L15.8462 62.7233C15.8649 62.4437 16.0024 62.0858 16.0962 61.8124V61.8116Z" fill="#FFB700"/>
<path d="M17.3282 54.4587C17.4978 53.9837 18.3321 51.4665 18.5438 51.1962L18.5892 51.1938C18.6142 51.6196 17.6446 54.054 17.4696 54.6196C16.7149 56.7243 15.9298 58.8173 15.2267 60.9415C15.072 61.4079 14.8954 61.8759 14.7532 62.3454L14.6079 62.3118C15.3548 59.7829 16.4345 56.9618 17.3274 54.4595L17.3282 54.4587Z" fill="#FFB700"/>
<path d="M14.4288 49.2602C15.0514 49.2188 15.7639 49.5727 16.3639 49.7524C16.4506 49.7703 16.8413 49.9578 16.8358 50.0516C16.7811 50.9563 16.1702 52.4563 15.8881 53.268L14.4788 57.318L13.6592 59.6617C13.5085 60.0906 13.3538 60.5742 13.1631 60.9813C13.035 61.2539 12.703 61.3836 12.4327 61.4711C11.878 61.2547 11.2592 61.0867 10.728 60.8508C9.42486 60.2735 10.2678 58.743 10.5881 57.8672L11.6928 54.868L12.821 51.7633C13.0366 51.1695 13.2444 50.55 13.5077 49.9774C13.6999 49.561 14.0108 49.3985 14.4303 49.2594L14.4288 49.2602Z" fill="#FBFCFF"/>
<path d="M29.4506 23.6429C30.3936 22.7858 32.1248 22.5686 33.342 22.6561C33.9295 22.7335 34.3553 22.81 34.7365 23.2929C34.2607 23.9788 34.1592 24.0882 34.2209 24.9296C34.5342 25.0561 35.1842 25.2999 35.4389 25.4804C35.0115 25.6741 34.5475 25.7921 34.0967 25.9296C34.1123 26.414 34.1678 26.8952 34.1842 27.3765C34.2123 28.196 34.3295 28.5632 33.3912 28.6421L33.3881 29.46C34.1904 29.61 35.5686 30.0444 36.3873 30.2897C37.3326 30.5733 38.61 30.8999 39.5107 31.2288C40.7318 30.2218 41.9498 28.9999 43.1436 27.9507C43.3521 27.7671 43.3811 27.6991 43.6654 27.6475C43.7772 27.6272 44.0904 27.6296 44.0787 27.5319C44.074 27.4929 44.1529 27.339 44.1904 27.2999C45.1053 26.3663 46.1928 25.5819 47.2217 24.778C47.324 24.6983 47.4826 24.6843 47.5998 24.7171C48.0076 25.189 46.7615 26.0999 46.4303 26.4507C47.9326 27.9507 46.8068 28.0265 45.6842 29.1311C45.4514 29.36 45.2084 29.7171 44.9615 29.9718L41.6053 33.3991C41.3303 33.6819 40.1717 35.0288 39.8514 34.9585C38.6053 34.6858 37.2498 34.2499 36.0404 33.8225C36.6975 36.6171 36.6732 39.2569 36.5576 42.1155C36.5467 42.3757 36.5389 43.2897 36.4381 43.4561C36.3068 43.5382 36.1443 43.5124 35.9818 43.5108L35.8717 43.4327L35.8897 43.3968C36.0498 43.3968 36.142 43.3897 36.3022 43.3725C36.4154 43.053 36.4451 40.5679 36.4482 40.1085V38.978C36.4482 38.7671 36.4467 38.5569 36.4436 38.346C36.4014 35.8468 35.7576 31.4975 33.9123 29.7163C33.2264 29.5624 30.1912 29.1765 29.5631 29.2374C29.1201 29.2804 28.6912 29.4171 28.3053 29.6382C27.7654 29.953 27.5787 30.3124 27.2561 30.8225C26.8568 31.4546 26.4584 32.089 26.0537 32.7171L24.5131 35.1163C24.3287 35.403 23.7232 36.3132 23.6217 36.596C23.4154 37.1686 23.1967 37.9546 23.0217 38.5522C22.6709 39.7366 22.3318 40.9241 22.0045 42.1147C22.5623 42.2905 23.3115 42.6397 23.8662 42.8811C24.1178 42.4288 24.36 41.7921 24.5725 41.3077C25.0709 40.1702 25.5506 39.0038 26.0592 37.8725C26.2912 37.3577 26.8123 36.5936 27.1311 36.0858L28.4975 33.8764C28.7592 33.4585 29.5264 32.1515 29.8029 31.8546C29.8279 32.3085 28.6146 33.7639 28.5131 34.2233C28.4186 34.6522 28.4459 35.6218 28.4451 36.1038L28.4396 38.9608L28.4365 40.0788L28.4404 43.3421L29.2209 43.3554L29.2365 43.4241L29.1271 43.5093L28.2795 43.4936C28.2576 42.3522 28.2779 41.1296 28.2779 39.9827C28.2725 38.1468 28.2795 36.31 28.2982 34.4741C27.5412 35.8444 26.5857 37.0429 25.9584 38.4843C25.2904 40.0171 24.6631 41.5999 23.9545 43.1124C23.2568 42.814 22.6748 42.5132 21.9357 42.253C21.6959 42.6858 21.3967 42.8436 21.3959 43.2546C21.4865 43.8561 21.7646 44.339 22.4311 44.4647C23.4943 44.6663 23.5209 43.3765 23.7834 43.1725L23.8615 43.2358C23.8436 43.3569 23.8576 43.3546 23.7998 43.453C23.8162 43.6624 23.6193 44.1061 23.5428 44.3163C23.3943 44.7272 23.249 45.1397 23.1076 45.553L21.41 50.4218C21.0475 50.3272 19.0006 49.8093 18.8154 49.6835C18.7756 49.7124 18.7646 49.6999 18.6959 49.7015C18.6123 49.5225 18.6568 49.5624 18.5186 49.4905C18.4428 49.5225 18.4576 49.5218 18.3779 49.5343C18.4295 49.2577 18.6139 48.8335 18.7193 48.5491L19.3889 46.7327L19.3537 46.6686C19.4506 46.3054 20.774 42.6249 20.9021 42.5663C21.0701 42.4897 21.3061 42.61 21.467 42.6694C21.9717 42.0585 22.0209 41.3819 22.2553 40.6397C22.6771 39.3046 22.9795 37.8733 23.4607 36.5585C23.7514 35.7647 24.8021 34.553 25.2045 33.7561C25.942 32.6241 26.6373 31.4647 27.3787 30.335C28.1553 29.1515 29.3498 28.9561 30.649 29.1327C30.649 28.8546 30.6443 28.5757 30.6373 28.2975C30.6154 28.2718 30.5943 28.246 30.5732 28.2202C29.9576 27.4632 29.7553 26.5155 29.8115 25.5554C29.824 25.3413 29.9818 24.9913 29.9771 24.8311C29.6584 24.4249 29.5623 24.1311 29.4482 23.6413L29.4506 23.6429Z" fill="#002C6E"/>
<path d="M18.8182 49.6842C18.9518 49.2521 21.1455 43.3311 21.2283 43.2217L21.2658 43.2623C21.3658 44.4303 22.5377 45.1811 23.458 44.2209C23.5885 44.0842 23.7127 43.6514 23.8018 43.4537C23.8182 43.6631 23.6213 44.1068 23.5447 44.317C23.3963 44.7279 23.251 45.1404 23.1096 45.5537L21.4119 50.4225C21.0494 50.3279 19.0025 49.81 18.8174 49.6842H18.8182Z" fill="#FBFCFF"/>
<path d="M43.6608 27.7728C43.7226 27.7704 43.9976 27.7548 44.0327 27.7743C44.4999 28.0462 45.0694 28.6689 45.364 29.1087C45.3218 29.2165 45.2257 29.4689 45.1538 29.5454C44.6054 30.1275 44.0163 30.7158 43.4608 31.2868L41.3632 33.4243C41.0515 33.7447 40.271 34.5947 39.9647 34.7923C39.4976 34.8142 36.6202 33.8525 35.996 33.6454L35.914 33.3814C35.5187 32.0947 35.1413 30.8931 34.2671 29.8423C35.2319 30.1118 36.1944 30.3908 37.1538 30.6806C37.9288 30.9079 38.7913 31.1423 39.546 31.4048C40.2374 30.854 43.153 27.997 43.6616 27.772L43.6608 27.7728Z" fill="#FBFCFF"/>
<path d="M32.7454 22.7498C33.0603 22.7576 34.6681 22.8193 34.4548 23.3928C34.2978 23.817 34.0822 23.9678 34.0345 24.492C33.1744 24.7021 30.8767 25.1975 30.0954 24.7568C29.8704 24.4959 29.4369 23.8615 29.7556 23.5803C30.4478 22.9701 31.9056 22.7982 32.7447 22.749L32.7454 22.7498Z" fill="#FFB700"/>
<path d="M33.9305 26.0115C34.0211 26.3365 33.9828 26.9482 34.025 27.31C34.2711 29.3967 32.8711 28.1037 32.443 28.1764L32.4328 28.2404C32.5594 28.442 33.0031 28.5639 33.2359 28.6467L33.2328 29.4365C32.6555 29.3631 32.0773 29.292 31.5 29.2248C31.3672 29.1982 30.9539 29.1662 30.7992 29.1506L30.7891 28.3443C31.6008 28.385 31.7984 28.1029 32.0992 27.3896C31.9906 27.299 31.8602 27.1975 31.7906 27.0615C31.6961 26.8771 31.5789 26.2982 31.9227 26.2896C32.2047 26.2826 32.2312 26.4709 32.3867 26.6529C32.5484 26.6303 32.4227 26.4865 32.6344 26.4256C33.0781 26.2982 33.4969 26.1693 33.9313 26.0107L33.9305 26.0115Z" fill="#FBFCFF"/>
<path d="M47.4248 24.8193C47.4912 24.8529 47.4693 24.8334 47.517 24.8912C47.8271 25.2662 45.4381 26.8834 45.3998 27.3037L45.4436 27.3279C45.5678 27.2725 46.1873 26.6928 46.3561 26.5545C47.2021 27.6295 47.2561 27.6311 46.1568 28.5061C45.9381 28.6912 45.7232 28.8803 45.5115 29.0732C45.2295 28.6061 44.5834 28.035 44.1904 27.5779C44.6639 26.9186 46.6756 25.3693 47.4256 24.8193H47.4248Z" fill="#FBFCFF"/>
<path d="M41.1291 61.6758C41.9205 61.768 43.3611 61.7609 44.2033 61.7875C43.3307 62.2211 42.4533 62.6461 41.5721 63.0617C41.0197 63.3258 40.1385 63.8469 39.5424 63.7836C39.1096 63.7375 39.0213 62.7469 38.9111 62.4617C39.1549 62.3266 40.9111 61.6773 41.1299 61.6758H41.1291Z" fill="#FBFCFF"/>
<path d="M41.0885 61.5413C41.6252 61.5585 43.8635 61.5624 44.2127 61.7155L44.2799 61.7968C44.215 62.0585 43.4994 62.2976 43.2439 62.4257C42.5674 62.7663 41.8846 63.0944 41.1947 63.4085C40.5877 63.6921 39.49 64.3819 39.0338 63.496C38.9182 63.271 38.8588 62.9179 38.8057 62.6663C38.8393 62.5483 38.833 62.5538 38.9111 62.4608C39.0221 62.746 39.1096 63.7366 39.5424 63.7827C40.1393 63.846 41.0197 63.3249 41.5721 63.0608C42.4533 62.6444 43.3307 62.2194 44.2033 61.7866C43.3611 61.7601 41.9205 61.7671 41.1291 61.6749L41.0885 61.5405V61.5413Z" fill="#002C6E"/>
<path d="M77.3502 64.1022C77.8182 64.0967 79.6236 64.0561 80.0002 64.1178V64.2256C79.4283 64.2709 78.6697 64.2498 78.083 64.249L74.9502 64.2451C72.3666 64.2436 69.6236 64.2959 67.0549 64.2404C66.8674 64.1857 66.7088 64.1982 66.5127 64.1982C67.3354 63.967 69.5775 64.2701 70.3854 64.1451C71.2627 64.0092 76.8205 64.3357 77.351 64.1014L77.3502 64.1022Z" fill="#002C6E"/>
<path d="M98.118 6.15489C98.4407 6.23592 98.8238 6.3896 98.9771 6.6978C99.6282 8.01165 98.3471 8.4575 97.5266 8.90463C96.7537 9.31609 95.9868 9.73934 95.2257 10.1751C95.1907 10.3665 95.0047 11.0534 94.934 11.2359C94.5598 12.2063 94.1659 15.1693 93.6231 15.8693C93.5096 15.924 93.4968 15.9126 93.3727 15.9032C93.1528 15.7599 92.952 14.4358 92.8815 14.0844C92.7239 13.3023 92.5557 12.5227 92.3752 11.7456C91.2588 12.3409 90.1478 12.9477 89.0433 13.5649L88.6528 12.9569C88.363 12.4911 88.0763 12.0229 87.7926 11.5532C88.7645 10.9634 89.8414 10.4482 90.8249 9.86044C89.5616 9.14806 88.2366 8.52587 86.9889 7.78488C86.9055 7.73525 86.8663 7.68088 86.8248 7.59788C86.811 7.34332 87.0387 7.2291 87.2579 7.25408C89.5739 7.51649 92.0006 7.63301 94.2999 7.9606C95.0525 7.61807 95.7732 7.15215 96.5093 6.77401C97.0453 6.49837 97.4919 6.14823 98.1185 6.15587L98.118 6.15489Z" fill="#002C6E"/>
<path d="M98.0524 6.30065C99.4951 6.62663 99.137 8.01067 98.0416 8.44536C96.9863 8.86497 89.544 13.3193 89.0841 13.3108L88.9964 13.2056C88.6783 12.7537 88.2958 12.0901 87.9991 11.6023C88.5663 11.2595 89.2899 10.8872 89.8796 10.564C91.0605 9.90565 92.2471 9.25737 93.4393 8.61988L95.8693 7.29469C96.4424 6.98007 97.4393 6.35066 98.0524 6.30065Z" fill="#FBFCFF"/>
<path d="M94.0758 8.07164C94.0468 8.12141 91.2955 9.62274 91.0222 9.7773C89.907 9.19924 88.7969 8.61049 87.692 8.01278C87.4871 7.90213 87.0399 7.71811 86.9978 7.49552L87.0594 7.43399C87.3874 7.34448 93.2729 7.99451 94.0758 8.07164Z" fill="#FBFCFF"/>
<path d="M94.9912 10.3076C95.0007 10.3344 95.0096 10.3603 95.0191 10.3871C94.4898 12.1117 94.1696 13.9032 93.6337 15.6225C93.5976 15.7381 93.5055 15.7594 93.4604 15.7721C93.3317 15.6309 93.1722 14.7342 93.1221 14.4959C92.9298 13.5478 92.7314 12.601 92.5252 11.6557C93.3367 11.1877 94.1589 10.7379 94.9912 10.3076Z" fill="#FBFCFF"/>
<path d="M43.9229 10.1892C44.5635 10.1673 45.0205 10.654 44.6244 11.2212C44.151 11.8986 43.5244 12.5837 42.9744 13.2072L43.3244 14.9861C43.3994 15.3642 43.4916 15.7493 43.5189 16.1337C43.5385 16.4079 43.3783 16.4517 43.1455 16.4603C42.8299 16.3454 42.1713 14.7634 41.9385 14.329C41.1885 15.0572 40.7479 15.5868 40.1002 16.4111C39.901 16.4087 39.2986 15.7431 39.1494 15.5759L39.1713 15.5454L39.2088 15.4947C39.5596 15.0142 40.5275 14.004 40.9697 13.5322C40.3588 13.3595 39.7432 13.197 39.1322 13.0236C38.876 12.9509 38.5424 12.8533 38.4814 12.5665C38.533 12.4251 38.54 12.3806 38.6393 12.265C39.0361 12.1353 41.358 12.3275 41.9564 12.34C42.4619 11.8306 43.4213 10.5767 43.9244 10.1892H43.9229Z" fill="#809DCA"/>
<path d="M58.2739 32.8359L58.3169 32.8867C58.1028 33.5836 57.9927 34.5008 57.8599 35.2266C57.7982 35.5641 57.7739 35.918 57.6755 36.2469C57.6021 36.2391 57.5513 36.1469 57.4864 36.0719C56.8271 34.8383 57.1466 33.6242 58.2739 32.8359Z" fill="#809DCA"/>
</svg>
