<svg width="24" height="24" viewBox="0 0 24 24" fill="none" xmlns="http://www.w3.org/2000/svg">
<path d="M9.13656 17.2731C6.86249 17.2731 4.93809 16.4853 3.36336 14.9098C1.78862 13.3342 1.00084 11.4098 1 9.13656C0.999166 6.86333 1.78695 4.93893 3.36336 3.36336C4.93976 1.78779 6.86416 1 9.13656 1C11.409 1 13.3338 1.78779 14.911 3.36336C16.4883 4.93893 17.2756 6.86333 17.2731 9.13656C17.2731 10.0545 17.1271 10.9203 16.835 11.734C16.5429 12.5477 16.1465 13.2674 15.6458 13.8933L22.6558 20.9033C22.8853 21.1328 23 21.4248 23 21.7795C23 22.1342 22.8853 22.4263 22.6558 22.6558C22.4263 22.8853 22.1342 23 21.7795 23C21.4248 23 21.1328 22.8853 20.9033 22.6558L13.8933 15.6458C13.2674 16.1465 12.5477 16.5429 11.734 16.835C10.9203 17.1271 10.0545 17.2731 9.13656 17.2731ZM9.13656 14.7696C10.7013 14.7696 12.0315 14.2221 13.1272 13.1272C14.2229 12.0323 14.7704 10.7021 14.7696 9.13656C14.7687 7.571 14.2213 6.24119 13.1272 5.14714C12.0332 4.05309 10.7029 3.50522 9.13656 3.50356C7.57017 3.50189 6.24036 4.04975 5.14714 5.14714C4.05392 6.24453 3.50606 7.57434 3.50356 9.13656C3.50105 10.6988 4.04891 12.029 5.14714 13.1272C6.24537 14.2255 7.57517 14.7729 9.13656 14.7696Z" fill="#002E75"/>
</svg>
