<svg width="40" height="40" viewBox="0 0 40 40" fill="none" xmlns="http://www.w3.org/2000/svg">
<path d="M8.44445 28C8.03519 28 7.69238 27.864 7.416 27.592C7.13963 27.32 7.00097 26.9838 7 26.5833C6.99904 26.1829 7.13771 25.8467 7.416 25.5747C7.6943 25.3027 8.03712 25.1667 8.44445 25.1667H31.5555C31.9648 25.1667 32.3081 25.3027 32.5854 25.5747C32.8628 25.8467 33.001 26.1829 33 26.5833C32.999 26.9838 32.8604 27.3205 32.584 27.5934C32.3076 27.8663 31.9648 28.0019 31.5555 28H8.44445ZM8.44445 20.9167C8.03519 20.9167 7.69238 20.7807 7.416 20.5087C7.13963 20.2367 7.00097 19.9004 7 19.5C6.99904 19.0995 7.13771 18.7633 7.416 18.4913C7.6943 18.2193 8.03712 18.0833 8.44445 18.0833H31.5555C31.9648 18.0833 32.3081 18.2193 32.5854 18.4913C32.8628 18.7633 33.001 19.0995 33 19.5C32.999 19.9004 32.8604 20.2371 32.584 20.5101C32.3076 20.783 31.9648 20.9185 31.5555 20.9167H8.44445ZM8.44445 13.8333C8.03519 13.8333 7.69238 13.6973 7.416 13.4253C7.13963 13.1533 7.00097 12.8171 7 12.4167C6.99904 12.0162 7.13771 11.68 7.416 11.408C7.6943 11.136 8.03712 11 8.44445 11H31.5555C31.9648 11 32.3081 11.136 32.5854 11.408C32.8628 11.68 33.001 12.0162 33 12.4167C32.999 12.8171 32.8604 13.1538 32.584 13.4267C32.3076 13.6997 31.9648 13.8352 31.5555 13.8333H8.44445Z" fill="#002E75"/>
<path d="M8.44445 28C8.03519 28 7.69238 27.864 7.416 27.592C7.13963 27.32 7.00097 26.9838 7 26.5833C6.99904 26.1829 7.13771 25.8467 7.416 25.5747C7.6943 25.3027 8.03712 25.1667 8.44445 25.1667H31.5555C31.9648 25.1667 32.3081 25.3027 32.5854 25.5747C32.8628 25.8467 33.001 26.1829 33 26.5833C32.999 26.9838 32.8604 27.3205 32.584 27.5934C32.3076 27.8663 31.9648 28.0019 31.5555 28H8.44445ZM8.44445 20.9167C8.03519 20.9167 7.69238 20.7807 7.416 20.5087C7.13963 20.2367 7.00097 19.9004 7 19.5C6.99904 19.0995 7.13771 18.7633 7.416 18.4913C7.6943 18.2193 8.03712 18.0833 8.44445 18.0833H31.5555C31.9648 18.0833 32.3081 18.2193 32.5854 18.4913C32.8628 18.7633 33.001 19.0995 33 19.5C32.999 19.9004 32.8604 20.2371 32.584 20.5101C32.3076 20.783 31.9648 20.9185 31.5555 20.9167H8.44445ZM8.44445 13.8333C8.03519 13.8333 7.69238 13.6973 7.416 13.4253C7.13963 13.1533 7.00097 12.8171 7 12.4167C6.99904 12.0162 7.13771 11.68 7.416 11.408C7.6943 11.136 8.03712 11 8.44445 11H31.5555C31.9648 11 32.3081 11.136 32.5854 11.408C32.8628 11.68 33.001 12.0162 33 12.4167C32.999 12.8171 32.8604 13.1538 32.584 13.4267C32.3076 13.6997 31.9648 13.8352 31.5555 13.8333H8.44445Z" fill="#F6F9FF"/>
</svg>
