<svg width="26" height="26" viewBox="0 0 26 26" fill="none" xmlns="http://www.w3.org/2000/svg">
<path d="M7.8 11.697C7.8 11.3522 7.93696 11.0216 8.18076 10.7778C8.42455 10.534 8.75521 10.397 9.09999 10.397H16.9C17.2448 10.397 17.5754 10.534 17.8192 10.7778C18.063 11.0216 18.2 11.3522 18.2 11.697C18.2 12.0418 18.063 12.3725 17.8192 12.6163C17.5754 12.8601 17.2448 12.997 16.9 12.997H9.09999C8.75521 12.997 8.42455 12.8601 8.18076 12.6163C7.93696 12.3725 7.8 12.0418 7.8 11.697ZM9.09999 15.597C8.75521 15.597 8.42455 15.734 8.18076 15.9778C7.93696 16.2216 7.8 16.5522 7.8 16.897C7.8 17.2418 7.93696 17.5725 8.18076 17.8163C8.42455 18.0601 8.75521 18.197 9.09999 18.197H14.3C14.6448 18.197 14.9754 18.0601 15.2192 17.8163C15.463 17.5725 15.6 17.2418 15.6 16.897C15.6 16.5522 15.463 16.2216 15.2192 15.9778C14.9754 15.734 14.6448 15.597 14.3 15.597H9.09999ZM1.46472e-06 12.997C0.000653485 10.1469 0.937928 7.37598 2.66758 5.1107C4.39723 2.84542 6.82339 1.21133 9.57268 0.459928C12.322 -0.291477 15.242 -0.118555 17.8834 0.95208C20.5248 2.02272 22.7411 3.93173 24.1913 6.38531C25.6415 8.8389 26.2452 11.7011 25.9095 14.5314C25.5737 17.3616 24.3172 20.0031 22.3332 22.0494C20.3492 24.0956 17.7478 25.4331 14.9292 25.856C12.1106 26.279 9.23119 25.764 6.734 24.3902L1.6796 25.9294C1.45416 25.9981 1.21428 26.0042 0.985643 25.9471C0.757001 25.8899 0.54819 25.7717 0.381545 25.6051C0.2149 25.4384 0.0966901 25.2296 0.0395596 25.001C-0.0175709 24.7723 -0.0114729 24.5325 0.0572013 24.307L1.5964 19.2448C0.547988 17.3293 -0.00103498 15.1806 1.46472e-06 12.997ZM13 2.59703C11.1538 2.59687 9.34091 3.08816 7.74742 4.02041C6.15393 4.95267 4.83733 6.2923 3.93283 7.90171C3.02833 9.51111 2.56855 11.3323 2.60071 13.1782C2.63286 15.024 3.1558 16.8281 4.1158 18.405C4.21109 18.5617 4.27217 18.7367 4.29503 18.9186C4.31788 19.1006 4.30199 19.2853 4.2484 19.4606L3.2526 22.734L6.5208 21.7382C6.69671 21.6846 6.88199 21.669 7.0644 21.6923C7.24682 21.7156 7.42221 21.7773 7.579 21.8734C8.94966 22.7103 10.4955 23.2183 12.0954 23.3577C13.6952 23.4972 15.3057 23.2642 16.8004 22.6771C18.2952 22.09 19.6337 21.1647 20.711 19.9737C21.7883 18.7828 22.5752 17.3585 23.01 15.8125C23.4448 14.2666 23.5156 12.6409 23.2169 11.063C22.9183 9.48509 22.2583 7.99776 21.2886 6.71761C20.319 5.43745 19.0661 4.39923 17.628 3.68434C16.19 2.96944 14.6059 2.59728 13 2.59703Z" fill="#F6F9FF"/>
</svg>
