<svg width="16" height="17" viewBox="0 0 16 17" fill="none" xmlns="http://www.w3.org/2000/svg">
<path fill-rule="evenodd" clip-rule="evenodd" d="M6.73931 2.05222e-06C5.96531 2.05222e-06 5.32031 0.573957 5.25231 1.32272C5.1108 2.88719 5.07506 4.45898 5.14531 6.02799L4.89231 6.04547L3.40231 6.15036C3.1847 6.1658 2.97496 6.23585 2.7936 6.35365C2.61225 6.47145 2.4655 6.63297 2.36772 6.8224C2.26995 7.01182 2.22449 7.22265 2.23582 7.43426C2.24714 7.64586 2.31484 7.85099 2.43231 8.02955C3.52959 9.69514 4.94222 11.1435 6.59531 12.2978L7.19131 12.7144C7.42745 12.8789 7.71072 12.9673 8.00131 12.9673C8.29189 12.9673 8.57516 12.8789 8.81131 12.7144L9.4073 12.2978C11.062 11.1453 12.4749 9.6966 13.5703 8.02955C13.6878 7.85099 13.7555 7.64586 13.7668 7.43426C13.7781 7.22265 13.7327 7.01182 13.6349 6.8224C13.5371 6.63297 13.3904 6.47145 13.209 6.35365C13.0277 6.23585 12.8179 6.1658 12.6003 6.15036L11.1103 6.04547L10.8573 6.02799C10.9273 4.45957 10.8913 2.88726 10.7503 1.32272C10.7182 0.961385 10.5476 0.624922 10.2722 0.379958C9.99682 0.134994 9.63675 -0.00060841 9.26331 2.05222e-06H6.73931ZM6.68331 6.66701C6.56932 4.93119 6.59038 3.18949 6.74631 1.45674H9.25631C9.41256 3.18946 9.43396 4.93116 9.32031 6.66701C9.31409 6.76324 9.32761 6.85972 9.36009 6.95083C9.39256 7.04195 9.44334 7.1259 9.50948 7.19781C9.57562 7.26972 9.6558 7.32817 9.74538 7.36975C9.83496 7.41133 9.93214 7.43523 10.0313 7.44006C10.3553 7.45559 10.6786 7.47502 11.0013 7.49833L12.0823 7.57505C11.1214 8.9477 9.91986 10.1459 8.53231 11.1149L8.00231 11.4849L7.47031 11.1149C6.08275 10.1459 4.88117 8.9477 3.92031 7.57505L5.00131 7.49735C5.32464 7.47469 5.64797 7.45559 5.97131 7.44006C6.07055 7.43536 6.16785 7.41155 6.25754 7.37002C6.34723 7.32849 6.42753 7.27007 6.49378 7.19814C6.56002 7.12622 6.61089 7.04223 6.64343 6.95105C6.67596 6.85987 6.68952 6.76332 6.68331 6.66701Z" fill="#F6F9FF"/>
<path d="M3.32099e-06 16.2753C-0.00121732 15.8731 0.334206 15.5464 0.748395 15.5464H15.2516C15.6641 15.5464 15.9988 15.8705 16 16.271C16.0012 16.6733 15.6658 17 15.2516 17H0.748394C0.335928 17 0.00121889 16.6759 3.32099e-06 16.2753Z" fill="#F6F9FF"/>
</svg>
