<svg width="26" height="26" viewBox="0 0 26 26" fill="none" xmlns="http://www.w3.org/2000/svg">
<path d="M12.8001 20.8026C13.2173 20.8026 13.5701 20.6584 13.8585 20.37C14.1469 20.0816 14.2907 19.7292 14.2899 19.3128C14.2891 18.8965 14.1453 18.5437 13.8585 18.2545C13.5716 17.9653 13.2189 17.8215 12.8001 17.8231C12.3814 17.8246 12.029 17.9689 11.743 18.2557C11.457 18.5425 11.3128 18.8949 11.3104 19.3128C11.308 19.7308 11.4522 20.0835 11.743 20.3712C12.0338 20.6588 12.3862 20.8026 12.8001 20.8026ZM12.9789 8.5269C13.4755 8.5269 13.9077 8.68581 14.2756 9.00362C14.6435 9.32144 14.827 9.71871 14.8262 10.1954C14.8262 10.6324 14.6924 11.0198 14.4246 11.3575C14.1568 11.6951 13.8537 12.013 13.5152 12.3109C13.0584 12.7082 12.6563 13.1452 12.3091 13.6219C11.9619 14.0986 11.7879 14.635 11.7871 15.2309C11.7871 15.509 11.8916 15.7425 12.1005 15.9316C12.3095 16.1208 12.5526 16.2149 12.8299 16.2141C13.1279 16.2141 13.3814 16.1148 13.5903 15.9162C13.7993 15.7175 13.9332 15.4692 13.992 15.1713C14.0714 14.7541 14.2502 14.3819 14.5283 14.0545C14.8064 13.7272 15.1043 13.4141 15.4221 13.1154C15.879 12.6784 16.2715 12.2017 16.5997 11.6852C16.9278 11.1688 17.0915 10.5927 17.0907 9.95708C17.0907 8.94403 16.6787 8.11493 15.8548 7.46976C15.0308 6.82459 14.0722 6.50161 12.9789 6.50081C12.2241 6.50081 11.5042 6.65972 10.8193 6.97754C10.1345 7.29536 9.61283 7.78201 9.2545 8.43751C9.11545 8.67588 9.07096 8.92933 9.12101 9.19789C9.17107 9.46645 9.30495 9.66985 9.52265 9.8081C9.80074 9.96701 10.0888 10.0167 10.3867 9.95708C10.6847 9.89749 10.933 9.72865 11.1316 9.45056C11.3501 9.1526 11.6234 8.92417 11.9516 8.76526C12.2797 8.60635 12.6222 8.5269 12.9789 8.5269Z" fill="#002E75"/>
<path fill-rule="evenodd" clip-rule="evenodd" d="M12.3115 0.0186515C19.4806 -0.362325 25.6018 5.13905 25.9844 12.3069C26.3671 19.4748 20.8669 25.5963 13.6978 25.981C6.52665 26.3657 0.401472 20.8639 0.0188384 13.6932C-0.364193 6.52284 5.13998 0.399636 12.3115 0.0186515ZM23.6258 12.4807C23.3394 6.61815 18.3575 2.09623 12.4936 2.37651C6.6216 2.65762 2.09104 7.64722 2.37788 13.518C2.66474 19.3888 7.66014 23.9141 13.5314 23.6215C19.3944 23.3293 23.9123 18.3433 23.6258 12.4807Z" fill="#002E75"/>
<path d="M12.8001 20.8026C13.2173 20.8026 13.5701 20.6584 13.8585 20.37C14.1469 20.0816 14.2907 19.7292 14.2899 19.3128C14.2891 18.8965 14.1453 18.5437 13.8585 18.2545C13.5716 17.9653 13.2189 17.8215 12.8001 17.8231C12.3814 17.8246 12.029 17.9689 11.743 18.2557C11.457 18.5425 11.3128 18.8949 11.3104 19.3128C11.308 19.7308 11.4522 20.0835 11.743 20.3712C12.0338 20.6588 12.3862 20.8026 12.8001 20.8026ZM12.9789 8.5269C13.4755 8.5269 13.9077 8.68581 14.2756 9.00362C14.6435 9.32144 14.827 9.71871 14.8262 10.1954C14.8262 10.6324 14.6924 11.0198 14.4246 11.3575C14.1568 11.6951 13.8537 12.013 13.5152 12.3109C13.0584 12.7082 12.6563 13.1452 12.3091 13.6219C11.9619 14.0986 11.7879 14.635 11.7871 15.2309C11.7871 15.509 11.8916 15.7425 12.1005 15.9316C12.3095 16.1208 12.5526 16.2149 12.8299 16.2141C13.1279 16.2141 13.3814 16.1148 13.5903 15.9162C13.7993 15.7175 13.9332 15.4692 13.992 15.1713C14.0714 14.7541 14.2502 14.3819 14.5283 14.0545C14.8064 13.7272 15.1043 13.4141 15.4221 13.1154C15.879 12.6784 16.2715 12.2017 16.5997 11.6852C16.9278 11.1688 17.0915 10.5927 17.0907 9.95708C17.0907 8.94403 16.6787 8.11493 15.8548 7.46976C15.0308 6.82459 14.0722 6.50161 12.9789 6.50081C12.2241 6.50081 11.5042 6.65972 10.8193 6.97754C10.1345 7.29536 9.61283 7.78201 9.2545 8.43751C9.11545 8.67588 9.07096 8.92933 9.12101 9.19789C9.17107 9.46645 9.30495 9.66985 9.52265 9.8081C9.80074 9.96701 10.0888 10.0167 10.3867 9.95708C10.6847 9.89749 10.933 9.72865 11.1316 9.45056C11.3501 9.1526 11.6234 8.92417 11.9516 8.76526C12.2797 8.60635 12.6222 8.5269 12.9789 8.5269Z" fill="#F6F9FF"/>
<path fill-rule="evenodd" clip-rule="evenodd" d="M12.3115 0.0186515C19.4806 -0.362325 25.6018 5.13905 25.9844 12.3069C26.3671 19.4748 20.8669 25.5963 13.6978 25.981C6.52665 26.3657 0.401472 20.8639 0.0188384 13.6932C-0.364193 6.52284 5.13998 0.399636 12.3115 0.0186515ZM23.6258 12.4807C23.3394 6.61815 18.3575 2.09623 12.4936 2.37651C6.6216 2.65762 2.09104 7.64722 2.37788 13.518C2.66474 19.3888 7.66014 23.9141 13.5314 23.6215C19.3944 23.3293 23.9123 18.3433 23.6258 12.4807Z" fill="#F6F9FF"/>
</svg>
