<svg width="20" height="16" viewBox="0 0 20 16" fill="none" xmlns="http://www.w3.org/2000/svg">
<path d="M3.21429 0C2.3618 0 1.54424 0.344804 0.941442 0.95856C0.338647 1.57231 0 2.40475 0 3.27273V12.7273C0 13.5953 0.338647 14.4277 0.941442 15.0414C1.54424 15.6552 2.3618 16 3.21429 16H16.7857C17.6382 16 18.4558 15.6552 19.0586 15.0414C19.6614 14.4277 20 13.5953 20 12.7273V3.27273C20 2.40475 19.6614 1.57231 19.0586 0.95856C18.4558 0.344804 17.6382 0 16.7857 0H3.21429ZM18.5714 3.92945L10 8.62836L1.42857 3.92945V3.27273C1.42857 2.79052 1.61671 2.32805 1.9516 1.98708C2.28648 1.6461 2.74068 1.45455 3.21429 1.45455H16.7857C17.2593 1.45455 17.7135 1.6461 18.0484 1.98708C18.3833 2.32805 18.5714 2.79052 18.5714 3.27273V3.92945ZM1.42857 5.58109L9.66143 10.0953C9.76549 10.1523 9.88182 10.1822 10 10.1822C10.1182 10.1822 10.2345 10.1523 10.3386 10.0953L18.5714 5.58109V12.7273C18.5714 13.2095 18.3833 13.6719 18.0484 14.0129C17.7135 14.3539 17.2593 14.5455 16.7857 14.5455H3.21429C2.74068 14.5455 2.28648 14.3539 1.9516 14.0129C1.61671 13.6719 1.42857 13.2095 1.42857 12.7273V5.58109Z" fill="#002E75"/>
</svg>
