<svg width="32" height="32" viewBox="0 0 32 32" fill="none" xmlns="http://www.w3.org/2000/svg">
<path d="M9.5 10C9.5 9.33696 9.76339 8.70107 10.2322 8.23223C10.7011 7.76339 11.337 7.5 12 7.5C12.663 7.5 13.2989 7.76339 13.7678 8.23223C14.2366 8.70107 14.5 9.33696 14.5 10C14.5 10.663 14.2366 11.2989 13.7678 11.7678C13.2989 12.2366 12.663 12.5 12 12.5C11.337 12.5 10.7011 12.2366 10.2322 11.7678C9.76339 11.2989 9.5 10.663 9.5 10ZM12 6C10.9391 6 9.92172 6.42143 9.17157 7.17157C8.42143 7.92172 8 8.93913 8 10C8 11.0609 8.42143 12.0783 9.17157 12.8284C9.92172 13.5786 10.9391 14 12 14C13.0609 14 14.0783 13.5786 14.8284 12.8284C15.5786 12.0783 16 11.0609 16 10C16 8.93913 15.5786 7.92172 14.8284 7.17157C14.0783 6.42143 13.0609 6 12 6ZM19.5 11C19.5 10.6022 19.658 10.2206 19.9393 9.93934C20.2206 9.65804 20.6022 9.5 21 9.5C21.3978 9.5 21.7794 9.65804 22.0607 9.93934C22.342 10.2206 22.5 10.6022 22.5 11C22.5 11.3978 22.342 11.7794 22.0607 12.0607C21.7794 12.342 21.3978 12.5 21 12.5C20.6022 12.5 20.2206 12.342 19.9393 12.0607C19.658 11.7794 19.5 11.3978 19.5 11ZM21 8C20.2044 8 19.4413 8.31607 18.8787 8.87868C18.3161 9.44129 18 10.2044 18 11C18 11.7956 18.3161 12.5587 18.8787 13.1213C19.4413 13.6839 20.2044 14 21 14C21.7956 14 22.5587 13.6839 23.1213 13.1213C23.6839 12.5587 24 11.7956 24 11C24 10.2044 23.6839 9.44129 23.1213 8.87868C22.5587 8.31607 21.7956 8 21 8ZM8.25 16C7.65326 16 7.08097 16.2371 6.65901 16.659C6.23705 17.081 6 17.6533 6 18.25V18.528C6.00105 18.5975 6.00572 18.667 6.014 18.736C6.09712 19.48 6.36453 20.1915 6.792 20.806C7.61 21.974 9.172 23 12 23C13.369 23 14.441 22.76 15.276 22.38C15.1242 21.8761 15.0343 21.3556 15.008 20.83C14.363 21.21 13.413 21.5 12 21.5C9.578 21.5 8.514 20.65 8.02 19.945C7.74025 19.5409 7.56409 19.0742 7.507 18.586L7.5 18.507V18.25C7.5 18.0511 7.57902 17.8603 7.71967 17.7197C7.86032 17.579 8.05109 17.5 8.25 17.5H15.732C15.981 17.023 16.287 16.581 16.641 16.183C16.36 16.0606 16.0565 15.9983 15.75 16H8.25ZM27 20.5C27 19.0413 26.4205 17.6424 25.3891 16.6109C24.3576 15.5795 22.9587 15 21.5 15C20.0413 15 18.6424 15.5795 17.6109 16.6109C16.5795 17.6424 16 19.0413 16 20.5C16 21.9587 16.5795 23.3576 17.6109 24.3891C18.6424 25.4205 20.0413 26 21.5 26C22.9587 26 24.3576 25.4205 25.3891 24.3891C26.4205 23.3576 27 21.9587 27 20.5ZM22 21L22.001 23.503C22.001 23.6356 21.9483 23.7628 21.8546 23.8566C21.7608 23.9503 21.6336 24.003 21.501 24.003C21.3684 24.003 21.2412 23.9503 21.1474 23.8566C21.0537 23.7628 21.001 23.6356 21.001 23.503V21H18.496C18.3634 21 18.2362 20.9473 18.1424 20.8536C18.0487 20.7598 17.996 20.6326 17.996 20.5C17.996 20.3674 18.0487 20.2402 18.1424 20.1464C18.2362 20.0527 18.3634 20 18.496 20H21V17.5C21 17.3674 21.0527 17.2402 21.1464 17.1464C21.2402 17.0527 21.3674 17 21.5 17C21.6326 17 21.7598 17.0527 21.8536 17.1464C21.9473 17.2402 22 17.3674 22 17.5V20H24.497C24.6296 20 24.7568 20.0527 24.8506 20.1464C24.9443 20.2402 24.997 20.3674 24.997 20.5C24.997 20.6326 24.9443 20.7598 24.8506 20.8536C24.7568 20.9473 24.6296 21 24.497 21H22Z" fill="#002E75"/>
<path d="M9.5 10C9.5 9.33696 9.76339 8.70107 10.2322 8.23223C10.7011 7.76339 11.337 7.5 12 7.5C12.663 7.5 13.2989 7.76339 13.7678 8.23223C14.2366 8.70107 14.5 9.33696 14.5 10C14.5 10.663 14.2366 11.2989 13.7678 11.7678C13.2989 12.2366 12.663 12.5 12 12.5C11.337 12.5 10.7011 12.2366 10.2322 11.7678C9.76339 11.2989 9.5 10.663 9.5 10ZM12 6C10.9391 6 9.92172 6.42143 9.17157 7.17157C8.42143 7.92172 8 8.93913 8 10C8 11.0609 8.42143 12.0783 9.17157 12.8284C9.92172 13.5786 10.9391 14 12 14C13.0609 14 14.0783 13.5786 14.8284 12.8284C15.5786 12.0783 16 11.0609 16 10C16 8.93913 15.5786 7.92172 14.8284 7.17157C14.0783 6.42143 13.0609 6 12 6ZM19.5 11C19.5 10.6022 19.658 10.2206 19.9393 9.93934C20.2206 9.65804 20.6022 9.5 21 9.5C21.3978 9.5 21.7794 9.65804 22.0607 9.93934C22.342 10.2206 22.5 10.6022 22.5 11C22.5 11.3978 22.342 11.7794 22.0607 12.0607C21.7794 12.342 21.3978 12.5 21 12.5C20.6022 12.5 20.2206 12.342 19.9393 12.0607C19.658 11.7794 19.5 11.3978 19.5 11ZM21 8C20.2044 8 19.4413 8.31607 18.8787 8.87868C18.3161 9.44129 18 10.2044 18 11C18 11.7956 18.3161 12.5587 18.8787 13.1213C19.4413 13.6839 20.2044 14 21 14C21.7956 14 22.5587 13.6839 23.1213 13.1213C23.6839 12.5587 24 11.7956 24 11C24 10.2044 23.6839 9.44129 23.1213 8.87868C22.5587 8.31607 21.7956 8 21 8ZM8.25 16C7.65326 16 7.08097 16.2371 6.65901 16.659C6.23705 17.081 6 17.6533 6 18.25V18.528C6.00105 18.5975 6.00572 18.667 6.014 18.736C6.09712 19.48 6.36453 20.1915 6.792 20.806C7.61 21.974 9.172 23 12 23C13.369 23 14.441 22.76 15.276 22.38C15.1242 21.8761 15.0343 21.3556 15.008 20.83C14.363 21.21 13.413 21.5 12 21.5C9.578 21.5 8.514 20.65 8.02 19.945C7.74025 19.5409 7.56409 19.0742 7.507 18.586L7.5 18.507V18.25C7.5 18.0511 7.57902 17.8603 7.71967 17.7197C7.86032 17.579 8.05109 17.5 8.25 17.5H15.732C15.981 17.023 16.287 16.581 16.641 16.183C16.36 16.0606 16.0565 15.9983 15.75 16H8.25ZM27 20.5C27 19.0413 26.4205 17.6424 25.3891 16.6109C24.3576 15.5795 22.9587 15 21.5 15C20.0413 15 18.6424 15.5795 17.6109 16.6109C16.5795 17.6424 16 19.0413 16 20.5C16 21.9587 16.5795 23.3576 17.6109 24.3891C18.6424 25.4205 20.0413 26 21.5 26C22.9587 26 24.3576 25.4205 25.3891 24.3891C26.4205 23.3576 27 21.9587 27 20.5ZM22 21L22.001 23.503C22.001 23.6356 21.9483 23.7628 21.8546 23.8566C21.7608 23.9503 21.6336 24.003 21.501 24.003C21.3684 24.003 21.2412 23.9503 21.1474 23.8566C21.0537 23.7628 21.001 23.6356 21.001 23.503V21H18.496C18.3634 21 18.2362 20.9473 18.1424 20.8536C18.0487 20.7598 17.996 20.6326 17.996 20.5C17.996 20.3674 18.0487 20.2402 18.1424 20.1464C18.2362 20.0527 18.3634 20 18.496 20H21V17.5C21 17.3674 21.0527 17.2402 21.1464 17.1464C21.2402 17.0527 21.3674 17 21.5 17C21.6326 17 21.7598 17.0527 21.8536 17.1464C21.9473 17.2402 22 17.3674 22 17.5V20H24.497C24.6296 20 24.7568 20.0527 24.8506 20.1464C24.9443 20.2402 24.997 20.3674 24.997 20.5C24.997 20.6326 24.9443 20.7598 24.8506 20.8536C24.7568 20.9473 24.6296 21 24.497 21H22Z" fill="#F6F9FF"/>
</svg>
