<svg width="146" height="185" viewBox="0 0 146 185" fill="none" xmlns="http://www.w3.org/2000/svg">
<path d="M70.2963 185C57.5944 185 44.9493 183.307 32.6954 179.966C20.3838 176.612 9.76896 171.762 1.13907 165.552L0 164.735L17.6095 130.103L19.1644 131.269C26.1671 136.429 33.9986 140.357 42.3224 142.887C51.0497 145.631 60.1454 147.026 69.2944 147.024C79.2996 147.024 87.2536 145.097 92.925 141.3C98.4545 137.593 101.144 132.483 101.144 125.682C101.144 111.986 90.7463 105.374 69.3133 105.374H48.7735V75.8098L83.572 36.4456H9.40031V0H137.833V29.0497L98.9744 73.2831C113.559 76.1168 125.02 81.9919 133.059 90.7573C141.646 100.132 145.999 111.887 145.999 125.682C146.052 136.134 143.135 146.386 137.587 155.247C131.991 164.243 123.38 171.535 111.99 176.919C100.6 182.303 86.6392 185 70.2963 185ZM4.18739 163.71C12.2927 169.306 22.1466 173.713 33.5554 176.82C45.5294 180.084 57.885 181.738 70.2963 181.741C86.1524 181.741 99.7116 179.13 110.596 173.982C121.409 168.872 129.557 161.991 134.812 153.537C140.043 145.187 142.793 135.524 142.743 125.673C142.743 112.713 138.674 101.709 130.653 92.9487C122.633 84.188 110.804 78.4498 95.5763 75.9467L92.6697 75.4745L134.567 27.7746V3.2162H12.6613V33.1396H90.7746L52.0204 76.9952V102.059H69.2707C92.5563 102.059 104.362 109.993 104.362 125.644C104.362 133.508 101.111 139.676 94.702 143.973C88.4919 148.134 79.9376 150.245 69.2707 150.245C59.7885 150.247 50.3616 148.803 41.3158 145.962C33.2729 143.498 25.6649 139.793 18.7674 134.981L4.18739 163.71Z" fill="#002E75"/>
</svg>
