<svg width="147" height="186" viewBox="0 0 147 186" fill="none" xmlns="http://www.w3.org/2000/svg">
<path d="M147 186H8.81833V156.863L9.32787 156.391L78.1805 91.297C85.3191 84.4873 90.1883 78.5796 92.6417 73.7533C95.0952 68.927 96.2889 64.214 96.2889 59.5577C96.2889 52.8755 94.1138 47.9123 89.641 44.3752C85.1681 40.8382 78.289 38.9822 69.3527 38.9822C61.8036 38.9822 54.9245 40.432 48.8805 43.2938C42.7959 46.2019 37.5668 50.6368 33.7021 56.1671L32.7962 57.4374L0 36.2905L0.943638 34.9115C8.02093 24.3334 17.9575 15.9417 30.4088 9.97254C42.8601 4.00343 57.2081 1 73.1933 1C86.6118 1 98.5442 3.23368 108.651 7.64441C118.757 12.0551 126.867 18.454 132.543 26.5812C138.219 34.7085 141.126 44.4602 141.126 55.4682C141.173 65.1607 139.026 74.7381 134.846 83.4814C130.689 92.1423 122.579 102.097 110.783 113.072L72.7215 149.043H147V186ZM12.0597 182.737H143.697V152.31H64.493L108.528 110.692C120.064 99.9909 127.92 90.362 131.897 82.0741C135.865 73.7711 137.902 64.6766 137.856 55.4729C137.856 45.145 135.167 36.0544 129.864 28.4513C124.56 20.8482 116.955 14.8366 107.339 10.6384C97.643 6.38826 86.1542 4.26318 73.1839 4.26318C57.6894 4.26318 43.7707 7.17218 31.8101 12.9099C20.4345 18.3643 11.2812 25.9106 4.5814 35.3554L31.9752 53.0172C36.0507 47.6013 41.3749 43.2526 47.4933 40.3423C53.9761 37.2727 61.3318 35.7191 69.3574 35.7191C79.0391 35.7191 86.5458 37.7686 91.6603 41.811C96.8928 45.9478 99.5444 51.9169 99.5444 59.553C99.5444 64.7477 98.1997 70.0037 95.5481 75.2267C92.8965 80.4496 87.8386 86.5888 80.4499 93.644L12.0597 158.27V182.737Z" fill="#002E75"/>
</svg>
