<svg width="40" height="40" viewBox="0 0 40 40" fill="none" xmlns="http://www.w3.org/2000/svg">
<path d="M15.6145 7.7676C12.7261 8.74954 10.235 10.6133 8.50738 13.0851C6.77971 15.5569 5.90646 18.5065 6.01589 21.5006C6.12532 24.4947 7.21166 27.3755 9.11535 29.7199C11.019 32.0642 13.6397 33.7486 16.5925 34.5255C18.9864 35.1308 21.4944 35.1574 23.9011 34.603C26.0813 34.1231 28.0969 33.0966 29.7507 31.624C31.4719 30.0445 32.7212 28.0352 33.3643 25.812C34.0634 23.3945 34.1878 20.852 33.7279 18.38H20.2852V23.8445H28.0703C27.9147 24.716 27.5813 25.5478 27.09 26.2902C26.5987 27.0325 25.9596 27.67 25.211 28.1647C24.2604 28.7809 23.1887 29.1955 22.0649 29.382C20.9378 29.5873 19.7817 29.5873 18.6545 29.382C17.5121 29.1505 16.4314 28.6885 15.4813 28.0253C13.9549 26.9664 12.8087 25.4622 12.2064 23.7272C11.5939 21.9597 11.5939 20.0435 12.2064 18.276C12.6351 17.0371 13.3439 15.909 14.2797 14.9761C15.3507 13.8888 16.7066 13.1116 18.1987 12.7298C19.6907 12.348 21.2612 12.3763 22.7379 12.8115C23.8915 13.1586 24.9464 13.7649 25.8186 14.5821C26.6964 13.7263 27.5727 12.8683 28.4475 12.0081C28.8992 11.5456 29.3916 11.1051 29.8365 10.6315C28.5052 9.41751 26.9426 8.47286 25.2381 7.8517C22.1342 6.74728 18.738 6.7176 15.6145 7.7676Z" fill="white"/>
<path d="M15.6145 7.7676C18.7378 6.71689 22.134 6.74557 25.2381 7.84927C26.9429 8.47465 28.5048 9.42384 29.8343 10.6424C29.3825 11.116 28.906 11.5586 28.4453 12.019C27.569 12.8762 26.6934 13.7308 25.8186 14.5821C24.9464 13.7649 23.8915 13.1586 22.7379 12.8115C21.2617 12.3747 19.6912 12.3446 18.1988 12.7249C16.7064 13.1051 15.3497 13.8809 14.2775 14.967C13.3416 15.9 12.6329 17.028 12.2042 18.2669L7.52225 14.7147C9.19809 11.4581 12.0997 8.96722 15.6145 7.7676Z" fill="#E01B41"/>
<path d="M6.28005 18.2336C6.5317 17.0115 6.94949 15.828 7.52225 14.7147L12.2042 18.2757C11.5917 20.0432 11.5917 21.9594 12.2042 23.7269C10.6443 24.9073 9.08364 26.0935 7.52224 27.2857C6.08842 24.4889 5.65112 21.3023 6.28005 18.2336Z" fill="#FFCC00"/>
<path d="M20.2852 18.3777H33.728C34.1878 20.8497 34.0634 23.3921 33.3644 25.8097C32.7212 28.0328 31.4719 30.0421 29.7507 31.6216C28.2397 30.4663 26.722 29.32 25.211 28.1647C25.9601 27.6695 26.5995 27.0312 27.0909 26.288C27.5822 25.5449 27.9153 24.7122 28.0704 23.8399H20.2852C20.2829 22.0206 20.2852 20.1992 20.2852 18.3777Z" fill="#0E4B9C"/>
<path d="M7.51999 27.2859C9.08138 26.1055 10.642 24.9192 12.2019 23.727C12.8054 25.4626 13.9532 26.9671 15.4813 28.0253C16.4344 28.6854 17.5174 29.1435 18.6613 29.3707C19.7884 29.5761 20.9446 29.5761 22.0717 29.3707C23.1955 29.1843 24.2672 28.7697 25.2178 28.1535C26.7288 29.3088 28.2465 30.4552 29.7575 31.6105C28.104 33.0839 26.0883 34.1112 23.9079 34.5917C21.5012 35.1462 18.9931 35.1196 16.5993 34.5143C14.706 34.0189 12.9375 33.1456 11.4047 31.9492C9.78227 30.6869 8.45717 29.0962 7.51999 27.2859Z" fill="#34C759"/>
</svg>
