<svg width="40" height="41" viewBox="0 0 40 41" fill="none" xmlns="http://www.w3.org/2000/svg">
<path d="M0 6.00001C0 2.6863 2.68629 0 6 0H34C37.3137 0 40 2.68629 40 6V34.0507C40 37.3644 37.3137 40.0507 34 40.0507H6C2.68629 40.0507 0 37.3644 0 34.0507V6.00001Z" fill="#002E75"/>
<path d="M29.1593 10.7452L20.8353 29.7668C20.7641 29.9442 20.5862 30.0507 20.4084 30.0507H19.6613C19.4835 30.0507 19.3056 29.9442 19.2345 29.7668L10.8393 10.7452C10.697 10.3904 10.946 10 11.3373 10H14.7523C14.9657 10 15.1436 10.142 15.2503 10.3194L20.0527 21.924L24.8194 10.3194C24.8906 10.1065 25.104 10 25.3174 10H28.6613C29.0526 10 29.3016 10.3904 29.1593 10.7452Z" fill="#FBFCFF"/>
</svg>
