<svg width="259" height="269" viewBox="0 0 259 269" fill="none" xmlns="http://www.w3.org/2000/svg">
<path fill-rule="evenodd" clip-rule="evenodd" d="M191.127 1.60175C230.074 12.5918 237.604 65.9574 243.949 106.033C248.841 136.936 235.858 165.697 221.504 193.478C208.7 218.26 193.393 242.377 167.819 253.386C141.822 264.577 113.291 259.881 86.1944 251.726C54.7173 242.252 16.7598 234.524 4.09466 204.11C-8.60324 173.617 10.738 139.985 27.9217 111.789C42.2525 88.275 67.4968 78.0644 90.2918 62.6744C124.153 39.8131 151.834 -9.48596 191.127 1.60175Z" fill="#F1F7FF"/>
<path d="M163.583 23C165.014 23.6594 168.693 26.9032 170.083 28.0727C172.256 29.8944 174.444 31.6944 176.651 33.4751C196.035 49.367 215.279 65.4226 234.386 81.6442C235.084 82.2434 238.558 85.1479 238.841 85.7303C238.925 86.972 238.082 87.9081 237.257 88.7937C235.171 91.034 233.407 93.9843 231.393 96.2174C229.055 99.4781 226.22 102.578 223.745 105.754C223.249 106.389 222.691 107.116 222.164 107.718C224.678 112.559 226.824 117.233 229.205 122.089L243.924 152.364C247.758 160.185 251.51 168.042 255.182 175.939C256.018 177.761 259.38 183.854 258.965 185.454C258.172 186.544 252.054 189.187 250.545 189.909L237.178 196.293C235.282 197.188 233.211 198.076 231.354 199C231.03 198.557 231.052 198.572 230.586 198.288C230.134 198.256 230.31 198.187 230.01 198.422C229.097 196.856 227.888 194.004 227.001 192.228L219.116 176.322L198.341 134.443C196.852 131.385 195.109 127.968 193.739 124.919C192.695 122.548 191.609 120.197 190.488 117.861C190.057 116.958 189.366 115.363 188.834 114.578C189.707 114.249 190.976 113.541 191.849 113.101L196.777 110.68L203.739 107.277C205.211 106.558 206.855 105.802 208.221 104.9C208.6 104.649 208.525 104.69 208.583 104.337C208.436 103.971 208.293 103.899 207.989 103.648C202.499 98.5276 196.214 93.5391 190.488 88.5987L162.039 63.9138C155.785 58.5619 149.104 53.1186 143 47.6561C143.691 47.0184 145.277 45.0644 145.981 44.251C148.088 41.8302 150.17 39.3877 152.222 36.9187L158.123 29.7115C159.87 27.6131 162.014 25.1874 163.578 23H163.583Z" fill="#FFB700"/>
<path d="M222.589 107.998C222.19 107.572 221.749 107.169 222.173 106.596C223.269 105.113 230.13 96.3044 231.224 96C231.687 96.0846 231.584 96.1015 232 96.4542C229.617 99.7278 226.727 102.84 224.203 106.029C223.698 106.666 223.129 107.396 222.592 108L222.589 107.998Z" fill="#002C6E"/>
<path d="M172.636 53C174.117 53.2877 177.779 56.8587 179.145 57.9998C181.826 60.2435 184.536 62.55 187.192 64.8202C190.012 67.2451 192.847 69.6556 195.699 72.0467C199.129 74.8875 202.593 77.7477 205.93 80.6973C206.447 81.1542 206.895 81.471 207 82.1044C206.863 82.5227 206.601 82.6895 206.268 82.9893C205.957 83.0062 205.827 83.0304 205.561 82.8225C200.596 78.959 195.959 74.7425 191.161 70.7049L178.181 59.7938C176.244 58.1401 174.286 56.4984 172.403 54.7915C171.642 54.1025 172.097 53.5609 172.636 53Z" fill="#FBFCFF"/>
<path d="M212.51 128C212.868 128.038 212.856 128.041 213.187 128.184C213.935 129.008 215.197 131.748 215.75 132.837L221.021 143.396L230.06 161.178C230.879 162.776 234.791 169.895 235 171.297C234.854 171.755 234.886 171.617 234.398 171.968C234.099 172.016 234.213 172.011 233.906 171.947C232.817 170.611 231.127 166.956 230.282 165.294C224.816 154.554 219.406 143.778 213.969 133.021C213.284 131.667 212.486 130.176 212.011 128.772C211.928 128.523 212.356 128.162 212.512 128.002L212.51 128Z" fill="#FBFCFF"/>
<path d="M187.05 116.017C187.101 116.143 187.154 116.266 187.21 116.389C187.691 117.454 189.601 122.013 190.435 122.326L190.725 122.138C191.531 120.843 188.513 117.006 188.431 115.412C188.421 115.222 188.585 115.178 188.81 115C189.342 115.783 190.034 117.384 190.464 118.288C191.586 120.626 192.67 122.984 193.717 125.358C195.088 128.413 196.831 131.838 198.321 134.9L219.102 176.852L226.989 192.786C227.877 194.565 229.086 197.422 230 198.991C228.851 199.577 229.013 197.427 227.891 196.703C227.517 196.631 227.521 196.597 227.181 196.749C226.69 197.631 227.758 199.08 228.223 199.888C224.849 201.409 221.522 203.084 218.171 204.646L182.942 221.207L145.072 238.935C132.945 244.53 120.862 250.219 108.822 256C108.261 254.995 107.773 253.992 107.287 252.951C105.12 248.32 102.862 243.764 100.715 239.123L90.3337 217.085L75.5205 186.003C73.6344 181.979 71.7386 178.274 70 174.164C70.6795 173.561 78.7245 169.921 80.1318 169.242L102.552 158.16L154.029 132.564L171.751 123.681C176.48 121.26 182.24 118.122 187.05 116.02V116.017Z" fill="#FBFCFF"/>
<path d="M174.503 153.021C187.505 152.481 198.479 162.385 198.982 175.109C199.488 187.834 189.329 198.539 176.325 198.986C163.388 199.43 152.519 189.55 152.018 176.89C151.517 164.23 161.57 153.557 174.503 153.019V153.021Z" fill="#002C6E"/>
<path d="M173.209 154.074C185.344 153.082 195.977 162.136 196.931 174.276C197.885 186.414 188.799 197.021 176.658 197.936C164.569 198.849 154.02 189.812 153.069 177.725C152.119 165.638 161.125 155.063 173.207 154.074H173.209Z" fill="#FBFCFF"/>
<path d="M181.63 172.02C186.203 171.648 189.189 176.578 187.542 180.652C187.052 181.861 185.706 182.575 184.493 182.976C179.956 183.39 176.723 178.307 178.492 174.261C179.024 173.042 180.393 172.394 181.633 172.02H181.63Z" fill="#002C6E"/>
<path d="M181.578 173C185.306 172.947 188.34 179.532 183.492 180.996C179.792 181.196 176.555 174.245 181.578 173Z" fill="#FBFCFF"/>
<path d="M165.187 169.001C170.576 168.896 174.183 179.002 166.92 180C161.295 180.002 157.834 170.422 165.187 169.001Z" fill="#002C6E"/>
<path d="M165.203 170.012C168.921 169.688 172.384 175.78 167.831 177.963C167.229 178.01 166.746 178.054 166.178 177.815C163.153 176.537 161.326 171.476 165.203 170.012Z" fill="#FBFCFF"/>
<path d="M174.212 164C174.479 164.082 174.891 164.203 174.895 164.666C174.926 171.829 175.051 178.992 174.977 186.158C174.973 186.523 174.904 186.693 174.775 187C174.57 186.966 174.102 186.86 174.096 186.506C173.984 179.408 173.998 172.286 174.004 165.184C174.004 164.707 174.069 164.421 174.214 164H174.212Z" fill="#002C6E"/>
<path d="M134.09 200.019C137.369 199.647 140.16 204.765 137.623 208.101C136.603 209.44 134.548 212.328 133.455 213.618C136.071 215.796 143.21 222.249 143.949 225.226C144.022 225.519 144.037 225.892 143.852 226.146C143.666 226.399 143.432 226.524 143.127 226.573C140.543 227.002 132.367 219.993 130.162 218.312C128.524 220.817 126.163 223.69 124.738 226.141C125.65 228.065 126.736 229.987 127.648 231.914C127.924 232.499 128.085 233.077 127.846 233.689C127.121 234.247 126.787 233.986 126.214 233.438C124.94 231.575 123.684 229.702 122.442 227.816C120.812 227.751 115.864 228.131 115.012 227.772C114.685 227.46 114.703 227.487 114.561 227.055C114.785 226.031 116.174 225.87 117.067 225.709C118.304 225.487 119.592 225.224 120.839 225.095C122.581 222.093 124.177 218.654 125.56 215.466C122.857 214.92 112.875 212.872 111.306 210.906C111.033 210.56 110.935 210.106 111.043 209.679C111.77 206.743 124.772 209.828 127.112 210.347C128.203 206.038 129.268 200.566 134.09 200.019Z" fill="#002C6E"/>
<path d="M164.323 139C164.539 139.01 164.755 139.051 164.959 139.124C167 139.82 165.619 141.651 164.391 142.274C162.901 143.029 161.38 143.723 159.885 144.472L150.369 149.292L120.363 164.246L95.2715 176.876C92.2821 178.346 87.7082 180.788 84.7092 182C83.0859 181.99 82.3482 180.001 83.7143 179.271C86.3883 177.84 89.118 176.496 91.8211 175.116L112.208 164.911C124.464 158.764 136.756 152.688 149.083 146.683C154.13 144.192 159.259 141.386 164.321 139.002L164.323 139Z" fill="#002C6E"/>
<path d="M131.895 187.025C132.998 186.8 133.596 188.145 132.128 188.876C130.937 189.509 129.738 190.157 128.537 190.778L120.329 194.968C120.329 194.968 115.793 197.215 111.154 199.634C106.516 202.052 102.738 203.87 98.3083 205.876C97.154 206.398 96.4635 205.142 97.5285 204.531C102.854 201.473 110.572 197.954 110.572 197.954L131.895 187.025Z" fill="#FFB700"/>
<path d="M127.943 178C128.36 178.04 128.674 178.183 128.98 178.485C129.119 179.286 128.494 179.806 127.835 180.152C119.433 184.559 110.942 188.797 102.547 193.225C99.4319 194.868 96.1919 196.283 93.1148 198C92.463 197.958 91.9094 197.715 92.0124 196.84C92.0484 196.53 92.4294 196.231 92.6954 196.09C94.5359 195.123 96.4004 194.202 98.2552 193.262L108.184 188.171L119.716 182.28C122.474 180.84 125.11 179.324 127.94 178H127.943Z" fill="#FFB700"/>
<path d="M191.456 124C192.823 124.414 194.569 128.933 194.988 130.325C195.067 130.588 194.727 130.831 194.547 131C193.629 130.635 191.34 125.864 191 124.798C191.012 124.416 191.187 124.298 191.456 124.002V124Z" fill="#002C6E"/>
<path d="M222.513 187.003C223.409 187.421 225.5 192.781 225.983 194.061C226.086 194.338 225.698 194.782 225.547 195C225.498 194.974 225.164 194.802 225.133 194.759C224.444 193.748 222.129 188.731 222 187.823C222.059 187.41 222.235 187.295 222.513 187V187.003Z" fill="#002C6E"/>
<path d="M218.307 178C218.627 178.051 218.569 178.039 218.869 178.145C219.745 179.078 221.123 182.242 221.74 183.5C222.035 184.105 222.098 184.407 221.831 185C220.336 184.668 218.802 180.158 218.041 178.819C217.897 178.565 218.168 178.222 218.31 178H218.307Z" fill="#002C6E"/>
<path d="M196.588 133C197.583 133.436 199.771 138.124 199.995 139.305C200.045 139.566 199.689 139.839 199.521 140C198.625 139.284 196.23 134.815 196 133.764C196.153 133.28 196.148 133.401 196.588 133.002V133Z" fill="#002C6E"/>
<path d="M213.025 169C213.601 169.012 213.966 168.931 214.255 169.529C215.188 171.462 216.339 173.434 217 175.475C216.959 175.636 216.915 175.798 216.874 175.959C216.568 176.02 216.623 176.001 216.303 175.979C216.196 175.91 215.933 175.741 215.846 175.594C214.796 173.828 213.859 171.748 213.028 169.859C212.972 169.732 213.016 169.135 213.028 169.002L213.025 169Z" fill="#002C6E"/>
<path d="M200.276 142L200.784 142.084C201.682 142.85 203.345 146.585 203.889 147.846C204.111 148.357 203.962 148.572 203.774 149C203.67 148.98 203.198 148.886 203.126 148.797C201.901 147.299 200.904 144.645 200.052 142.84C199.886 142.489 200.163 142.183 200.276 142Z" fill="#002C6E"/>
<path d="M209.324 160L209.808 160.139C210.588 160.868 212.437 165 212.948 166.188C213.089 166.515 212.913 166.737 212.77 167C212.493 166.966 212.354 166.934 212.083 166.868C211.237 166.122 209.478 162.224 209.05 161.002C208.899 160.573 209.118 160.329 209.324 160Z" fill="#002C6E"/>
<path d="M205.082 151.007C205.499 150.995 205.477 150.982 205.865 151.116C206.896 152.067 208.299 155.281 208.833 156.64C209.082 157.274 209.052 157.448 208.748 158L208.224 157.929C207.676 157.498 206.591 155.371 206.3 154.683C205.827 153.568 204.681 152.08 205.085 151.007H205.082Z" fill="#002C6E"/>
<path d="M142.569 47C148.656 52.4634 155.322 57.9075 161.563 63.2602L189.946 87.949C195.657 92.8902 201.927 97.8794 207.407 103.001C207.711 103.251 207.853 103.324 208 103.689C207.942 104.043 208.017 104.002 207.638 104.253C206.276 105.155 204.636 105.908 203.167 106.63L196.221 110.034L191.304 112.455C190.433 112.893 189.167 113.603 188.297 113.933C188.072 114.111 187.908 114.154 187.918 114.344C187.998 115.935 191.007 119.767 190.207 121.059L189.917 121.247C189.085 120.934 187.18 116.383 186.7 115.319C186.645 115.196 186.592 115.073 186.541 114.948C181.744 117.047 176 120.181 171.282 122.597L153.607 131.466L102.268 157.021L79.9069 168.085C78.5033 168.764 70.4797 172.398 69.8021 173C69.421 172.865 69.3559 172.742 69.1967 172.379C69.216 172.271 69.2329 172.165 69.2522 172.057C70.6678 171.265 72.2475 170.54 73.5763 169.621C73.721 169.522 73.8175 169.44 73.9381 169.356C67.1733 163.58 59.6104 158.201 53 152.371L113.627 81.2173L133.569 57.6789L138.85 51.3755C139.316 50.8172 140.91 48.8412 141.392 48.4826L141.674 48.6101L142.318 47.8616L142.154 47.722C142.157 47.3586 142.265 47.3682 142.574 47.0048L142.569 47Z" fill="#FBFCFF"/>
<path d="M206.619 104.557C205.718 103.653 200.885 99.9695 201.405 99.0462C202.858 98.4719 206.744 103.432 207.983 103.779L208.406 103.522C208.71 103.774 208.853 103.847 209 104.215C208.942 104.571 209.017 104.53 208.638 104.782C207.273 105.691 205.631 106.449 204.16 107.176L197.205 110.603L192.28 113.041C191.409 113.482 190.141 114.196 189.269 114.528C189.044 114.708 188.88 114.751 188.89 114.943C188.969 116.545 191.983 120.402 191.182 121.704L190.892 121.893C190.059 121.578 188.151 116.995 187.67 115.924C187.614 115.801 187.561 115.677 187.511 115.551C182.707 117.664 176.954 120.819 172.23 123.252L154.53 132.182L103.118 157.912L80.7254 169.052C79.3198 169.735 71.2848 173.394 70.6062 174C70.2246 173.864 70.1594 173.741 70 173.375C70.0193 173.266 70.0362 173.159 70.0555 173.05C71.4732 172.253 73.0551 171.523 74.3858 170.598C74.5307 170.498 74.6273 170.416 74.748 170.331C77.168 169.221 79.996 168 82.2662 166.677C83.2612 166.229 84.4543 165.599 85.4614 165.104C89.0357 163.607 92.8273 161.484 96.3002 159.763C97.2808 159.276 100.688 157.636 101.382 157.054C101.804 156.926 103.294 156.119 103.777 155.881C105.267 155.149 106.762 154.422 108.257 153.698C110.11 152.954 114.271 150.7 116.203 149.714C120.21 147.693 124.228 145.701 128.264 143.736C128.619 142.12 128.901 140.564 130.08 139.306C131.676 137.603 133.959 136.839 136.243 137.377C137.233 137.61 137.953 137.942 138.69 138.645C140.344 137.944 157.771 129.298 158.136 128.891C166.441 119.603 174.805 109.747 183.057 100.343C183.412 99.938 183.538 99.9598 184.028 99.9695C184.349 100.207 184.257 100.052 184.32 100.44C184.035 101.377 182.869 102.434 182.217 103.195L177.3 108.858L161.423 127.112C163.263 126.356 165.966 124.936 167.779 124.032C172.081 121.9 176.36 119.721 180.616 117.497C189.233 113.074 197.903 108.761 206.626 104.554L206.619 104.557Z" fill="#002C6E"/>
<path d="M133.424 139.013C134.869 138.949 135.681 139.118 137 139.573C135.211 140.289 133.399 141.102 131.632 141.871C130.762 142.26 129.886 142.638 129 143C129.654 140.847 130.757 139.407 133.424 139.013Z" fill="#FBFCFF"/>
<path d="M101 157C105.365 151.372 110.256 145.886 114.88 140.463C122.196 131.756 129.564 123.092 136.988 114.477L156.738 91.1837C157.699 90.0731 158.508 89.0371 159.559 87.7795C160.364 86.717 162.959 83.3271 163.977 86.0111C164.376 87.0615 159.456 92.2992 158.685 93.2123L149.723 103.866L124.573 133.63C120.707 138.068 116.89 142.552 113.125 147.074C111.701 148.772 108.887 151.818 107.836 153.663C106.349 154.384 104.863 155.106 103.382 155.834C102.904 156.068 101.42 156.87 101 157Z" fill="#FFB700"/>
<path d="M82 167C83.6847 164.166 87.731 159.55 90 156.848L100.671 144.034C104.116 139.931 107.461 135.602 111.098 131.65C111.682 131.016 112.339 130.651 112.987 131.487C113.043 131.91 112.914 132.102 112.668 132.44C110.297 135.704 107.485 138.584 104.897 141.664L91.2075 158.175C89.5252 160.175 86.5331 163.286 85.2209 165.423C84.2057 165.918 83.003 166.548 82 167Z" fill="#FFB700"/>
<path d="M142.002 48.7474L142.571 48C143.18 48.4038 144 48.8027 144 49.7063C143.421 50.5907 142.42 49.2425 142 48.7474H142.002Z" fill="#002C6E"/>
<path d="M132.093 77.0048C132.203 77 132.316 77 132.427 77C134.697 77.0168 134.129 78.8284 133.093 80.0425C128.508 85.4123 123.944 90.823 119.359 96.1929L92.6588 127.457L79.0237 143.646C77.7446 145.165 71.1037 153.364 69.9761 153.992C67.5549 154.122 67.5789 152.577 68.8653 151.024C75.2705 143.341 81.7575 135.723 88.319 128.175C95.3493 119.765 102.442 111.405 109.598 103.098C115.277 96.2769 121.006 89.4961 126.786 82.7562C127.7 81.7028 131.114 77.5927 132.095 77.0048H132.093Z" fill="#002C6E"/>
<path d="M154.952 79.0024C155.459 79.1551 155.598 79.1478 155.931 79.5282C156.097 80.1169 155.96 80.4488 155.552 80.9189C153.496 83.286 151.437 85.6724 149.433 88.0831C142.851 96.1729 136.159 104.168 129.356 112.069C128.346 113.249 125.183 117.38 124.159 118C123.556 117.932 123.312 117.932 123.002 117.377C122.925 116.464 125.121 114.245 125.814 113.44L130.633 107.839L149.004 85.8663C150.823 83.6566 153.309 81.2169 154.952 79V79.0024Z" fill="#FFB700"/>
<path d="M172.122 95C172.703 95.1268 172.869 95.1466 173 95.7332C172.731 96.5609 166.962 102.829 165.933 104C165.392 103.928 165.479 104.015 165.098 103.737C165.057 103.62 164.96 103.324 165.018 103.237C166.066 101.743 171.023 95.8401 172.119 95H172.122Z" fill="#002C6E"/>
<path d="M161.058 107C161.622 107.064 161.807 107.057 162 107.61C161.817 108.445 156.732 113.926 155.776 114.979C155.588 115.017 155.462 114.993 155.262 114.984C155.125 114.864 155.026 114.833 155.002 114.64C154.882 113.603 160.07 108.117 161.058 107Z" fill="#002C6E"/>
<path d="M151.054 119.003C151.682 119.095 151.924 119.169 152 119.787C151.527 120.697 146.681 126.366 145.814 127C145.521 126.99 145.562 126.977 145.272 126.888C144.939 126.525 145.02 126.732 145 126.256C145.331 125.513 150.235 119.836 151.054 119V119.003Z" fill="#002C6E"/>
<path d="M170.111 72C170.171 72.0025 170.231 72.0025 170.289 72.0102C171.166 72.1096 175.392 76.147 175.917 77.0824C176.098 77.4061 175.94 77.6686 175.85 78C174.556 77.8471 171.081 74.2277 170.111 72.9992C169.898 72.729 170.046 72.3059 170.111 72.0025V72Z" fill="#002C6E"/>
<path d="M162.135 65C163.145 65.1606 167.047 68.9686 167.922 69.9295C168.067 70.4647 167.996 70.3628 167.827 71C166.307 70.5438 164.286 68.2345 162.976 67.1716C162.294 66.6185 161.733 65.9303 162.135 65Z" fill="#002C6E"/>
<path d="M193.325 92C194.308 92.3132 198.437 96.2504 198.99 97.1316C199.019 97.6307 199.004 97.483 198.718 98C198.624 97.9898 198.405 97.9694 198.348 97.9287C197.379 97.2615 193.313 93.6604 193 92.9092C193.002 92.3413 192.981 92.5424 193.322 92H193.325Z" fill="#002C6E"/>
<path d="M154.178 58C155.007 58.0558 159.195 61.5089 159.928 62.2254C160.049 62.6562 160.017 62.5089 159.837 63C159.77 63 159.267 63 159.157 62.933C157.599 61.9509 155.075 60.2009 154.063 58.7701C153.902 58.5446 154.092 58.183 154.178 58Z" fill="#002C6E"/>
<path d="M185.41 85C186.506 85.4392 190.608 89.0915 191 90.2444C190.96 90.7699 191.03 90.519 190.71 91C189.491 90.3464 185.595 87.0131 185 85.8549C185.042 85.3634 185.075 85.468 185.41 85Z" fill="#002C6E"/>
<path d="M146.389 52C147.424 52.379 151.348 55.3622 152 56.2372C151.972 56.6701 151.939 56.5812 151.628 57C150.536 56.89 146.564 53.6916 146 52.8119C146.01 52.3627 146.061 52.4469 146.389 52Z" fill="#002C6E"/>
<path d="M178.48 79C179.128 79.1561 183.543 82.6192 184 83.1843C184 83.6614 183.99 83.5251 183.681 84C182.767 83.7471 178.442 80.5106 178 79.7938C178.008 79.4398 178.221 79.2858 178.48 79Z" fill="#002C6E"/>
<path d="M162.225 22.0048H162.614C162.822 22.246 163.039 22.5186 163.267 22.7381C161.703 24.9307 159.56 27.3622 157.814 29.4656L151.916 36.6899C149.865 39.1623 147.785 41.6131 145.678 44.0397C144.975 44.855 143.391 46.8136 142.7 47.4528C142.39 47.8171 142.282 47.8074 142.279 48.1716L142.443 48.3115L141.798 49.0617L141.516 48.9339C141.033 49.2933 139.436 51.2736 138.969 51.8333L133.678 58.1506L113.701 81.7413L52.9665 153.054C59.5886 158.896 67.165 164.287 73.9417 170.076C73.8209 170.16 73.7243 170.24 73.5793 170.341C72.2506 171.263 70.6681 171.989 69.2475 172.782C69.2282 172.891 69.2113 172.997 69.192 173.106C69.3538 173.467 69.4167 173.593 69.7984 173.728C71.5354 177.841 73.4295 181.548 75.314 185.574L90.1141 216.676L100.486 238.728C102.631 243.371 104.888 247.932 107.052 252.564C107.54 253.606 108.028 254.609 108.586 255.615C120.615 249.831 132.688 244.138 144.804 238.54L182.64 220.801L217.838 204.229C221.189 202.666 224.513 200.988 227.881 199.468C227.42 198.66 226.349 197.213 226.84 196.327C227.18 196.178 227.173 196.209 227.55 196.281C228.673 197.005 228.512 199.157 229.657 198.571C229.956 198.334 229.78 198.404 230.232 198.435C230.698 198.72 230.676 198.706 231 199.149C230.676 199.762 230.311 199.917 229.669 200.22C224.325 202.758 218.901 205.223 213.554 207.746C198.448 214.988 183.283 222.111 168.062 229.113C139.851 242.561 111.57 255.856 83.2141 269H82.528C81.1847 266.557 79.3824 262.437 78.0899 259.788C73.3861 249.968 68.7644 240.112 64.2248 230.215L50.9129 202.102C48.2964 196.612 45.4625 190.811 43.0079 185.263C43.7593 184.887 44.5058 184.501 45.2451 184.103C44.745 183.471 44.1531 182.981 43.5467 182.445C40.8022 180.002 37.6204 177.763 34.9073 175.322C33.3804 173.95 34.0327 173.108 35.0232 171.931C37.4199 169.082 40.133 165.968 42.5199 163.173L60.2409 142.549L117.605 74.9005L137.389 51.5366C140.037 48.4153 143.391 44.8115 145.852 41.6758C151.392 35.1968 156.685 28.4693 162.223 22L162.225 22.0048Z" fill="#002C6E"/>
</svg>
