<svg width="100" height="80" viewBox="0 0 100 80" fill="none" xmlns="http://www.w3.org/2000/svg">
<path d="M41.1431 13.8507C43.6336 10.6444 46.8149 8.04241 50.4514 6.23946C58.4514 2.28375 67.6925 1.65862 76.1517 4.50172C87.9495 8.38602 96.3104 18.8766 95.7592 31.4879C95.7364 32.0106 95.7344 33.3685 95.5823 33.8249L95.5709 33.9005C95.5037 34.5411 95.4375 35.0576 95.3248 35.691C94.7901 38.0849 94.2202 40.2522 93.1766 42.4908C93.7879 43.4482 94.2502 44.7502 94.5915 45.8183C97.1875 53.9274 94.3071 62.701 88.1367 68.382C86.9504 69.4739 85.8303 70.5079 84.4351 71.3917L84.3813 71.4259C82.3242 72.8366 80.1336 74.0444 77.8417 75.0307C76.8436 75.4334 75.3698 76.0523 74.3366 76.2717C74.3128 76.844 74.2569 77.1514 73.8443 77.583C78.7808 77.6648 83.98 77.583 88.9351 77.583H93.0908C93.5231 77.583 94.8501 77.5095 95.151 77.6751L95.2544 77.7993C94.9659 78.0322 93.0608 77.9173 92.5809 77.9184L87.3062 77.9266L72.719 77.9111C70.1054 78.0094 66.8206 77.9256 64.177 77.9204H20.249C18.4659 77.9204 6.44163 78.0622 5.79832 77.8231L5.8521 77.7569C6.55643 77.4516 7.71894 77.582 8.51842 77.5841L13.216 77.5892C14.0062 77.5892 15.1077 77.6244 15.8689 77.5644L15.9423 77.5582C15.329 77.051 15.3135 76.6112 15.5069 75.8774C13.6887 74.5329 14.422 72.8904 14.846 71.0533C14.4075 70.8649 13.698 70.3599 13.337 70.0266C11.4257 68.5507 8.75216 66.2634 7.39004 64.2514C6.97531 63.8125 6.50058 63.0818 6.15307 62.5716C4.15281 59.6312 2.43181 55.1601 2.35114 51.5894C1.99742 48.6304 2.64383 45.6786 3.5757 42.8976C5.14157 38.9232 8.24848 34.6322 11.7836 32.1441C6.83568 24.6125 9.30446 14.2627 16.6342 9.20366C20.49 6.5365 25.2444 5.50566 29.8583 6.33572C34.6148 7.22063 38.4261 9.89503 41.142 13.8518L41.1431 13.8507Z" fill="#D9F4FB"/>
<path d="M77.7884 40.0929C78.7408 39.1064 80.0928 37.6065 81.1153 36.7563C81.9576 37.686 83.4209 39.1446 84.3352 40.0474C84.326 41.4192 84.2961 42.8819 84.327 44.2506H92.3742L93.0991 42.538C93.7076 43.4935 94.1679 44.793 94.5077 45.859C97.0923 53.9524 94.2245 62.709 88.0813 68.3791C86.9002 69.4689 85.7851 70.5008 84.396 71.383L84.3424 71.4171C82.2944 72.825 80.1134 74.0305 77.8316 75.0149C76.8379 75.4168 75.3706 76.0345 74.3419 76.2535C74.3182 76.8247 74.2626 77.1315 73.8518 77.5623L73.549 77.6263C73.1536 77.6325 72.7201 77.6635 72.3422 77.5633C71.8572 76.8991 71.7563 76.3237 72.0766 75.548C70.1417 75.4529 67.4625 75.5118 65.4895 75.549C64.986 75.299 64.7729 75.2587 64.2096 75.2629L64.0788 75.2195C64.0469 75.1554 64.0716 72.2114 64.0716 71.9418C64.0727 66.9257 64.0757 61.9147 64.086 56.8975C64.0902 55.1455 64.6112 54.7974 65.8592 53.7252C65.8643 53.7159 65.8705 53.7066 65.8757 53.6973C66.1959 53.6384 67.4604 53.6942 67.8537 53.7024C67.8506 50.996 67.8023 48.146 67.862 45.451C68.0525 44.8715 67.794 43.7713 68.0308 43.3437C68.3295 43.4666 68.1441 43.4057 68.4736 43.3819L68.5663 43.6174C68.5828 43.8467 68.6034 44.073 68.6044 44.3033C68.7836 44.1918 76.8421 44.2517 77.7832 44.2527L77.7863 40.0929H77.7884Z" fill="#A4DFFA"/>
<path d="M93.1042 42.6421C93.7114 43.5943 94.1707 44.8893 94.5097 45.9516C97.0887 54.017 94.2272 62.7433 88.0973 68.3937C86.9188 69.4797 85.8061 70.5081 84.42 71.3872L84.3666 71.4212C84.308 69.1287 84.3594 66.6087 84.3604 64.3018L84.3491 52.4008C84.3522 49.7388 84.3913 47.0068 84.3512 44.3509H92.3808L93.1042 42.6441V42.6421Z" fill="#D9F4FB"/>
<path d="M68.6959 53.7911C70.2495 53.7931 72.5107 53.5204 73.603 54.5978C74.0391 55.03 74.3211 55.5898 74.406 56.1928C74.5035 56.8421 74.4773 58.0131 74.4773 58.7015L74.471 62.6765C74.4668 66.6084 74.4668 70.5433 74.4857 74.4761C74.4867 74.7643 74.471 75.536 74.428 75.7768L74.5276 76.2584C74.5035 76.8274 74.4469 77.133 74.0286 77.5621L73.7204 77.6259C73.3179 77.6321 72.8765 77.663 72.4918 77.5632C71.998 76.9015 71.8953 76.3283 72.2213 75.5556C70.2516 75.4609 67.5239 75.5196 65.5153 75.5566C65.0027 75.3076 64.7857 75.2674 64.2123 75.2716L64.0791 75.2283C64.0466 75.1645 64.0718 72.2319 64.0718 71.9633C64.0728 66.9665 64.076 61.9747 64.0865 56.9769C64.0907 55.2317 64.6211 54.8849 65.8916 53.8168C65.8969 53.8075 65.9032 53.7983 65.9084 53.789C66.2345 53.7304 67.5218 53.7859 67.9222 53.7942L68.6948 53.7911H68.6959Z" fill="#FECA03"/>
<path d="M72.1097 75.6342C72.9179 75.2254 73.7701 75.2136 74.4232 75.848L74.5277 76.3111C74.5024 76.8584 74.443 77.1524 74.0043 77.5651L73.681 77.6265C73.2588 77.6324 72.7959 77.6621 72.3923 77.5661C71.8744 76.9297 71.7667 76.3784 72.1086 75.6352L72.1097 75.6342Z" fill="#000002"/>
<path d="M65.722 55.7431C65.9504 55.7244 66.1263 55.6902 66.3097 55.8136C66.3733 56.2957 66.3425 57.4643 66.3415 58.0117V62.0825L66.3434 69.1715C66.3434 70.5174 66.3761 72.0478 66.3144 73.3791C66.0786 73.3833 65.9363 73.4092 65.7576 73.2796C65.6902 72.7819 65.7136 71.7139 65.7127 71.1789V67.4856C65.6902 63.5714 65.694 59.6583 65.7211 55.7441L65.722 55.7431Z" fill="#FEA201"/>
<path d="M67.7232 55.7339C67.9164 55.7245 68.0474 55.7028 68.2298 55.7847C68.3553 55.986 68.3156 71.7833 68.2713 73.3653L68.237 73.3684C67.9968 73.3891 67.9155 73.4151 67.7575 73.2574C67.5859 72.5821 67.6934 67.2955 67.6934 66.3245L67.6907 59.7195C67.6907 58.4518 67.6591 56.9818 67.7223 55.7339H67.7232Z" fill="#FEA201"/>
<path d="M69.6494 55.7281C69.8853 55.725 70.0654 55.6991 70.2465 55.834C70.2985 56.3802 70.2667 57.4809 70.2648 58.0655L70.2619 62.0509L70.2551 69.3902C70.2542 70.6912 70.2889 72.0463 70.2503 73.3381C70.0442 73.3713 69.8795 73.4295 69.711 73.3225C69.5665 73.0006 69.6388 57.4207 69.6503 55.7281H69.6494Z" fill="#FEA201"/>
<path d="M71.755 55.7241C71.9389 55.7458 72.0559 55.7375 72.2004 55.8551C72.2594 56.1399 72.2319 58.6191 72.2319 59.0782V67.1978L72.2338 71.3247C72.2338 71.887 72.2378 72.5019 72.224 73.0693C72.2201 73.2241 72.0608 73.2942 71.933 73.384C71.6468 73.2561 71.6331 73.2406 71.6252 72.9177C71.5987 71.8756 71.6016 70.8315 71.6016 69.7885L71.6055 64.2141L71.6026 58.9916C71.6026 58.4386 71.5062 56.0213 71.755 55.7252V55.7241Z" fill="#FEA201"/>
<path d="M73.3284 57.686L73.4784 57.8318C73.5491 58.3857 73.5182 59.5559 73.5193 60.1451L73.5215 64.6396V70.2053C73.5237 70.7394 73.6274 73.3974 73.3957 73.7107L73.2633 73.5577C73.1981 73.236 73.2246 72.3323 73.2257 71.9627L73.2313 69.0039C73.2213 65.3465 73.2136 61.6714 73.229 58.0129C73.229 57.8672 73.2434 57.812 73.3284 57.6871V57.686Z" fill="#FEA201"/>
<path d="M68.0167 45.412C68.2098 44.8304 67.9477 43.7261 68.1879 43.2969C68.4907 43.4203 68.3027 43.3591 68.6369 43.3352L68.7308 43.5716C68.7475 43.8018 68.7684 44.0289 68.7695 44.2601C68.9511 44.1481 77.1223 44.2083 78.0766 44.2093L78.0683 66.8663C78.0683 67.8927 77.9586 74.6218 78.1247 75.0842C77.1171 75.4876 75.6292 76.1076 74.5862 76.3274L74.487 75.8422C74.5298 75.5995 74.5455 74.8219 74.5444 74.5316C74.5256 70.5688 74.5256 66.605 74.5298 62.6422L74.5361 58.6369C74.5361 57.9432 74.5632 56.7633 74.4651 56.1091C74.3805 55.5015 74.0996 54.9385 73.6653 54.502C72.5773 53.4174 70.3252 53.6912 68.7778 53.6891L68.0083 53.6922C68.0052 50.9757 67.9561 48.1151 68.0167 45.4099V45.412Z" fill="#D9F4FB"/>
<path d="M68.0114 45.4258C68.1711 44.8403 67.9545 43.7289 68.153 43.2969C68.4033 43.4211 68.2479 43.3595 68.5241 43.3355L68.6018 43.5734C68.6156 43.8051 68.6329 44.0337 68.6337 44.2664L68.6406 53.7589L68.0045 53.762C68.0019 51.0278 67.9614 48.1485 68.0114 45.4258Z" fill="#000002"/>
<path d="M75.3757 22.6938C76.0661 23.5032 77.0977 25.031 77.4709 26.022C73.4733 28.4169 68.4223 30.4701 63.7695 30.9604C63.1848 31.0224 61.3539 31.2226 61.132 31.7997C61.1082 31.8596 61.0895 31.9205 61.075 31.9834C60.9703 32.4407 60.934 35.0999 60.9174 35.7534C60.7516 41.7066 60.8884 47.6639 61.3269 53.6037C58.2292 53.8577 58.4593 56.0565 58.4417 58.4225C58.4314 59.9214 58.4282 61.4203 58.4345 62.9191C58.3619 62.7199 58.3816 60.9712 58.3774 60.613C57.1686 60.7327 55.3751 60.6749 54.1186 60.6708C53.2021 60.7348 53.2436 60.8215 53.0808 60.0442L52.8931 60.0009C52.5842 59.9833 52.2638 59.9606 51.957 59.9389C51.2831 59.8894 51.2468 60.133 51.2064 60.6801C50.1852 60.6739 48.7773 60.6233 47.7831 60.6677C46.9879 60.6006 46.1969 60.4963 45.4121 60.3549C45.7086 58.406 45.9066 55.785 46.0652 53.8236C46.6033 47.6196 46.7536 41.3886 46.5173 35.166C45.5168 39.9176 45.7656 44.0581 45.4359 48.8624L44.6159 48.8263C43.8155 48.8088 43.0152 48.8077 42.2148 48.8232C41.4331 48.8428 41.6467 48.273 41.6156 47.6608C41.2776 41.1295 41.5451 34.6096 43.9814 28.4499C44.2033 27.8883 44.6957 26.8364 45.1654 26.5288C46.058 25.9445 48.6094 25.3086 49.5279 25.0113C49.8078 24.3662 50.0318 24.2743 50.7046 24.1865C50.8 23.9729 50.8415 23.8273 51.0436 23.7251C52.3136 23.531 53.3016 23.4443 54.5892 23.6559C54.9749 23.7199 55.5306 23.8892 55.8406 23.9254L55.8686 24.2371C56.2698 24.4622 56.9696 24.8028 57.2173 25.1455L57.2578 25.2013C60.1917 26.022 66.0078 26.1242 68.92 25.2643C71.1468 24.6057 73.2753 23.6023 75.3767 22.6959L75.3757 22.6938Z" fill="#051D50"/>
<path d="M50.8847 23.8702C52.1743 23.6719 53.1775 23.5833 54.4849 23.7995C54.8765 23.8649 55.4408 24.0378 55.7555 24.0748L55.7839 24.3933C56.1913 24.6232 56.9019 24.9712 57.1535 25.3213L57.1945 25.3783C56.3492 25.47 56.0997 26.2157 55.4197 26.5669C53.368 27.6268 50.2552 27.7291 49.3457 25.1842C49.6299 24.5251 49.8573 24.4312 50.5405 24.3416C50.6374 24.1233 50.6795 23.9746 50.8847 23.8702Z" fill="#FECA03"/>
<path d="M50.9978 23.8839C52.2847 23.6718 53.2858 23.577 54.5905 23.8083C54.9813 23.8782 55.5444 24.0633 55.8585 24.1028L55.8869 24.4435C55.328 24.29 53.8142 24.6139 53.123 24.6387C52.0326 24.677 51.7227 24.6669 50.6543 24.3893C50.7509 24.1558 50.793 23.9967 50.9978 23.885V23.8839Z" fill="white"/>
<path d="M32.135 28.9152C32.6808 28.88 33.2936 28.9225 33.5222 29.5303C34.411 29.9673 35.3965 30.3691 35.7436 31.3954C35.8599 31.7381 35.9959 32.4112 36.0185 32.7312C36.1339 34.4015 37.2893 49.7308 37.1421 50.116L36.9526 50.2144C37.0185 50.612 37.1874 51.7253 37.1462 52.0929C37.8331 52.7919 38.0432 53.2972 38.0926 54.2841C41.8247 54.2365 41.3489 54.5088 41.4076 58.2482C41.4076 58.2679 41.4076 58.2875 41.4066 58.3072C41.4086 59.1709 41.3953 60.312 41.4787 61.1539C41.6568 62.9454 40.5199 63.0086 39.0658 63.019C38.5292 63.0231 37.9155 63.0003 37.3748 63.0469C36.691 63.1391 36.3615 63.2954 35.6395 63.2872L35.5469 63.3472C34.3018 63.4176 32.7509 63.4342 31.5594 63.5378C31.0156 63.575 30.3318 63.5605 29.7767 63.5626C28.7191 63.5781 27.6604 63.574 26.6028 63.5523C26.1888 63.4456 25.6595 63.486 25.2239 63.4943C24.9149 63.5026 24.5308 63.4777 24.2167 63.4663C24.1055 63.4301 23.6163 63.428 23.469 63.4239L22.639 63.3576C22.8903 62.0921 23.0684 60.2996 23.2373 58.9855C23.4093 58.2285 23.6276 56.2993 23.744 55.4739L24.8686 47.1637C24.9252 46.8219 24.9664 46.4616 25.0107 46.1178L24.5885 45.5969C23.78 44.494 22.4402 42.1019 21.9614 40.8271C21.5845 39.8237 22.5422 37.1748 22.8934 36.0781C23.467 34.2856 24.0529 32.0788 24.9849 30.4302L25.0622 30.4043C25.5462 30.279 27.2392 31.5507 27.7995 31.85C29.5718 32.7985 30.3256 30.0792 31.2092 29.84L31.2556 29.8182C31.3246 29.7105 31.9806 29.0747 32.1361 28.9173L32.135 28.9152Z" fill="#000002"/>
<path d="M37.1419 52.1285C37.8295 52.8227 38.0398 53.3246 38.0893 54.3047C41.8251 54.2574 41.3488 54.5279 41.4076 58.2417C41.4076 58.2613 41.4076 58.2808 41.4065 58.3004C41.4086 59.1581 41.3952 60.2915 41.4787 61.1276C41.657 62.9069 40.519 62.9697 39.0634 62.9799C38.5264 62.984 37.912 62.9614 37.3708 63.0077C36.6863 63.0992 36.3564 63.2545 35.6338 63.2463C35.3988 63.0406 34.7947 63.1034 34.4689 63.1034C33.5247 63.126 32.4805 63.0992 31.5475 63.125C29.8807 63.1928 29.692 62.0605 29.7436 60.6792C29.7982 59.2095 29.7281 57.6709 29.724 56.194C29.7229 55.7631 29.724 55.1584 30.0745 54.8601C30.627 54.388 31.6197 54.2831 32.3279 54.3109C32.8423 54.2975 33.3567 54.2759 33.87 54.2461C34.0205 54.2461 34.2762 54.2564 34.4164 54.243H36.3626C36.3276 53.9201 36.3337 53.7308 36.3461 53.4028L36.3801 53.4048C36.477 53.2526 36.7646 53.0459 36.9182 52.9245C36.9224 52.7672 37.0842 52.3043 37.1409 52.1274L37.1419 52.1285Z" fill="#051D50"/>
<path d="M37.2086 52.1274C37.8999 52.838 38.1113 53.3516 38.161 54.3548C41.9168 54.3064 41.438 54.5832 41.4971 58.3842C41.4971 58.4042 41.4971 58.4242 41.496 58.4442C41.2484 58.5379 41.0359 59.0305 40.7913 59.2421C40.1249 59.82 38.9051 59.6136 38.0667 59.6126C36.4852 59.6094 34.8861 59.4242 33.3057 59.3758C31.7967 58.4989 31.7304 56.7158 31.6879 55.14C31.6682 54.4264 31.7988 54.4548 32.3698 54.3621C32.887 54.3485 33.4041 54.3264 33.9202 54.2958C34.0715 54.2958 34.3285 54.3064 34.4695 54.2927H36.4261C36.3909 53.9621 36.3971 53.7685 36.4096 53.4327L36.4438 53.4348C36.5412 53.279 36.8303 53.0674 36.9847 52.9432C36.9889 52.7822 37.1516 52.3085 37.2086 52.1274Z" fill="#03327A"/>
<path d="M36.2649 53.2316C36.3486 53.0884 36.597 52.8939 36.7296 52.7798C36.9228 53.0197 37.2264 53.4386 37.246 53.7627C37.0724 54.2077 36.6824 54.0761 36.2907 54.0481C36.2827 53.7907 36.2649 53.4841 36.2658 53.2316H36.2649Z" fill="#D9F4FB"/>
<path d="M32.4147 60.9915C34.1838 60.903 34.5104 60.8256 34.1962 62.8566C33.964 62.8865 33.7296 62.9053 33.4952 62.9153C32.0736 62.9783 32.3276 62.1818 32.4137 60.9915H32.4147Z" fill="#03327A"/>
<path d="M33.0557 60.9577C33.4344 60.9804 33.9049 60.969 34.2902 60.9702C34.2945 61.3697 34.3415 62.1348 34.2138 62.4845C34.1952 62.5367 34.0795 62.5628 34.0118 62.59C33.5698 62.5991 33.1517 62.5696 32.7108 62.5435C32.6889 62.1927 32.6005 61.3902 32.7621 61.0814C32.8101 60.9906 32.9334 60.9883 33.0557 60.9565V60.9577Z" fill="#051D50"/>
<path d="M34.6304 50.6208C35.324 50.4884 36.0372 50.3188 36.7289 50.1641C36.7914 50.5738 36.9517 51.7209 36.9126 52.0997C36.8588 52.2843 36.7055 52.7634 36.7015 52.9266C36.557 53.0525 36.2834 53.267 36.1916 53.4249L36.1593 53.4228C35.7627 53.2841 34.8531 53.7504 34.6411 52.949C34.6694 52.8893 34.7632 52.6748 34.7984 52.6321C35.1081 52.2587 34.7584 51.182 34.6294 50.6208H34.6304Z" fill="#FEA774"/>
<path d="M25.1455 30.4643C25.6348 30.3364 27.3462 31.6345 27.9125 31.94C29.704 32.9083 30.466 30.1324 31.3592 29.8882C30.5337 31.3417 29.3407 33.401 27.4898 32.0817C26.9131 31.6705 25.589 30.9527 25.1455 30.4643Z" fill="#03327A"/>
<path d="M33.9755 54.4125C33.9663 53.7163 34.1037 52.3514 34.8853 52.1274C35.1396 52.5733 34.635 52.9504 34.5427 53.3783C34.4689 53.7184 34.6545 54.0713 34.5191 54.4093C34.3786 54.4231 34.1253 54.4136 33.9755 54.4125Z" fill="#03327A"/>
<path d="M32.248 28.9159C32.799 28.8779 33.4176 28.9237 33.6484 29.5792C32.6535 29.3447 32.3967 29.865 31.3591 29.8874C31.4288 29.7712 32.091 29.0856 32.248 28.9159Z" fill="#FECA03"/>
<path d="M32.5477 33.4854C32.662 34.2667 32.7073 35.7501 32.7711 36.6058C33.0542 40.4096 33.1963 44.2784 33.7883 48.0503C33.8974 48.7431 34.0951 49.9698 34.2846 50.6192L34.3021 50.679L34.1765 50.8182C34.161 50.8182 34.0632 50.813 34.0416 50.8069C33.953 50.778 33.8686 50.7924 33.8326 50.6883C33.6534 50.1729 33.5525 48.975 33.4743 48.4586C33.0275 45.5299 31.8702 35.9202 32.5477 33.4884V33.4854Z" fill="#03327A"/>
<path d="M25.2097 34.1412C25.4783 35.3613 25.6384 36.6246 25.7096 37.8632C25.7295 38.2049 25.7388 38.5856 25.7996 38.9191L25.6804 38.8422C25.5379 39.033 25.49 39.1634 25.3989 39.3727C25.3218 38.9745 25.3452 38.3557 25.3207 37.9247C25.2459 36.6338 25.0426 35.429 25.2097 34.1401V34.1412Z" fill="#03327A"/>
<path d="M25.3971 39.5783C25.4759 39.3682 25.5173 39.2385 25.6406 39.0459L25.7437 39.1231C25.7134 40.2764 25.8669 41.1928 26.1266 42.3162C25.7295 41.58 25.5244 40.7954 25.1455 40.0756C25.2203 39.9284 25.3334 39.7234 25.3981 39.5783H25.3971Z" fill="white"/>
<path d="M13.1952 39.7406C14.2582 39.7457 18.6705 39.6093 19.4654 39.8056L19.5312 39.9689C19.1132 40.2758 18.9016 40.2241 18.3963 40.2024L18.3778 41.6706L19.4726 41.6933L19.488 51.7186C19.5086 53.2406 19.5209 54.7615 19.524 56.2834C19.5219 56.8155 19.4706 58.5244 19.5425 58.947C19.713 59.0627 20.0108 59.0142 20.2398 59.0121L20.2152 59.0958H19.7191C19.0382 59.1516 18.5965 59.2601 18.0152 59.662C17.1124 60.2861 16.9235 61.3141 16.7026 62.3215C16.5034 63.2287 16.3011 64.1482 16.1018 65.0595L14.7584 71.0946C14.3229 70.9065 13.6184 70.4023 13.2599 70.0696C11.3619 68.5962 8.70695 66.3128 7.35431 64.3043C6.94245 63.8662 6.47103 63.1367 6.12594 62.6273C4.1396 59.692 2.43056 55.2285 2.35045 51.6639C1.9992 48.7099 2.64111 45.7632 3.5665 42.9869C6.05199 42.9921 8.6597 42.9446 11.1288 43.0035C11.0908 42.6739 11.1021 42.0849 11.098 41.7357C11.6772 41.6613 12.5903 41.7088 13.2004 41.7016C13.187 41.0486 13.1849 40.3946 13.1952 39.7416V39.7406Z" fill="#A4DFFA"/>
<path d="M19.5001 51.557C19.5203 53.0917 19.5324 54.6253 19.5354 56.1599C19.5334 56.6965 19.4829 58.4197 19.5536 58.8458C19.7214 58.9625 20.0144 58.9135 20.2398 58.9114L20.2155 58.9958H19.7275C19.0575 59.0521 18.6229 59.1615 18.0509 59.5667C17.1627 60.196 16.9767 61.2327 16.7595 62.2484C16.5634 63.1632 16.3643 64.0904 16.1683 65.0093L14.8465 71.0947C14.418 70.9051 13.7248 70.3967 13.3721 70.0612C13.3963 69.7893 13.3933 69.383 13.3994 69.1007C13.5166 67.641 13.4519 65.1542 13.4469 63.6404L13.4509 56.5839C13.4479 54.9285 13.4095 53.1156 13.459 51.4727C15.1709 51.6466 17.678 51.4727 19.5011 51.557H19.5001Z" fill="#D9F4FB"/>
<path d="M13.5248 39.7406C14.5965 39.7457 19.0453 39.6093 19.8468 39.8057L19.9131 39.969C19.4916 40.2761 19.2783 40.2244 18.7688 40.2027L18.7501 41.6716L19.854 41.6944L19.8696 51.7249C18.0014 51.6422 15.4322 51.8128 13.678 51.6412C13.6273 53.2714 13.6666 55.0702 13.6697 56.7128L13.6656 63.7144C13.6708 65.2175 13.737 67.6851 13.6169 69.1324C13.5455 66.2616 13.6045 63.1707 13.6045 60.2855L13.618 42.6857L13.5952 41.7667C12.9355 41.7709 12.0491 41.8009 11.4102 41.7357C11.9942 41.6613 12.9148 41.7088 13.5299 41.7016C13.5165 41.0483 13.5144 40.3939 13.5248 39.7406Z" fill="#C1EBFB"/>
<path d="M15.3542 40.0326L16.2988 40.0259C16.3124 40.3611 16.349 40.9787 16.2338 41.2785L16.081 41.334H15.0233C15.0328 41.0161 14.9479 40.407 15.0925 40.1216C15.1322 40.0431 15.2328 40.0527 15.3542 40.0316V40.0326Z" fill="#D9F4FB"/>
<path d="M17.8314 40.0263C17.9001 40.0234 18.045 40.0377 18.1213 40.0434C18.3467 40.3305 18.2995 40.9428 18.161 41.269C17.971 41.3558 17.6424 41.331 17.4105 41.33L17.1464 41.3157L17.0551 41.2108C16.9735 40.7921 16.9123 40.5165 17.0551 40.1092C17.2763 40.0062 17.5705 40.0291 17.8325 40.0263H17.8314Z" fill="#D9F4FB"/>
<path d="M13.7158 40.0259C14.069 40.0384 14.0661 39.9796 14.2826 40.1561C14.3953 40.4222 14.3394 40.9845 14.3375 41.3172C14.0122 41.3317 13.9862 41.3751 13.7817 41.2217C13.652 40.9449 13.7128 40.375 13.7158 40.0259Z" fill="#D9F4FB"/>
<path d="M2.57983 51.4987C4.3012 51.4883 6.06708 51.5091 7.78314 51.4727L7.78844 59.6461C7.79162 60.9133 7.86263 63.0264 7.74392 64.227C7.31888 63.7859 6.83236 63.0514 6.47622 62.5384C4.42627 59.5826 2.66251 55.0881 2.57983 51.4987Z" fill="#D9F4FB"/>
<path d="M20.419 58.9983C20.4737 59.1302 20.4592 59.091 20.5883 59.19L20.7379 59.1487L20.8102 58.9941C20.9836 59.1662 20.9371 59.1147 21.2437 59.1322C21.7299 59.1271 22.3977 59.1034 22.8684 59.1343L23.077 59.0776C22.9077 60.3854 22.7281 62.1693 22.4772 63.4287L23.3092 63.4947C23.4568 63.4988 23.9471 63.5008 24.0586 63.5369C24.3734 63.5482 24.7585 63.5719 25.0681 63.5647C25.5048 63.5555 26.0364 63.5163 26.4503 63.6224C27.5104 63.6451 28.5715 63.6482 29.6316 63.6327C30.188 63.6307 30.8734 63.6451 31.4184 63.608C31.5681 66.1102 31.7023 68.6145 31.8199 71.1188C31.8633 71.8969 32.1275 75.2061 31.9861 75.7739C32.5869 76.1016 34.1641 76.4087 34.6193 75.7461C35.3243 76.0089 36.7612 76.418 37.1235 77.0951C37.17 77.1817 37.266 77.4682 37.3042 77.5795C40.3678 77.6269 43.4614 77.5372 46.5178 77.597C46.8203 77.6949 50.6282 77.6877 50.8811 77.6021C51.8751 77.528 53.6691 77.5867 54.7199 77.5918L54.724 75.9893L54.7674 75.9945L54.8944 75.8615C56.485 75.3627 56.8071 75.6111 58.2852 75.7214L58.3358 75.675L58.2109 75.473C58.7755 75.1236 59.4723 75.2751 60.0338 75.5523L60.6955 75.5802C61.0175 75.5843 61.4077 75.6008 61.7236 75.5884C62.2428 75.5853 62.859 75.5668 63.3679 75.6018C63.6043 75.4771 63.8469 75.3885 64.0967 75.2906C64.6613 75.2865 64.8739 75.3256 65.3797 75.576C67.3575 75.5389 70.0433 75.4792 71.9829 75.575C71.6619 76.349 71.763 76.923 72.2492 77.5857C72.628 77.6856 73.0626 77.6547 73.459 77.6485L73.7625 77.5846C78.6893 77.666 83.8783 77.5846 88.8237 77.5846H92.9712C93.4027 77.5846 94.727 77.5115 95.0274 77.6764L95.1306 77.8C94.8426 78.0319 92.9413 77.9175 92.4623 77.9185L87.198 77.9268L72.6394 77.9113C70.031 78.0092 66.7526 77.9258 64.1142 77.9206H20.2724C18.4928 77.9206 6.49214 78.0618 5.8501 77.8237L5.90377 77.7578C6.60672 77.4537 7.76695 77.5836 8.56486 77.5857L13.2532 77.5908C14.0419 77.5908 15.1412 77.6259 15.9009 77.5661L15.9742 77.5599C15.3621 77.0549 15.3466 76.6169 15.5396 75.8863C13.725 74.5475 14.4568 72.912 14.88 71.0828L16.2302 65.0632C16.4304 64.1542 16.6338 63.237 16.834 62.3322C17.057 61.3274 17.2459 60.3019 18.1532 59.6795C18.7375 59.2786 19.1813 59.1704 19.8657 59.1157H20.3643L20.389 59.0312L20.4179 59.0003L20.419 58.9983Z" fill="#03327A"/>
<path d="M64.0967 75.3672C64.6613 75.3632 64.8739 75.4012 65.3797 75.6445C67.3575 75.6085 70.0433 75.5504 71.9829 75.6435C71.6619 76.3954 71.763 76.953 72.2492 77.5967C72.628 77.6938 73.0626 77.6638 73.459 77.6578L73.7625 77.5957C78.6893 77.6748 83.8783 77.5957 88.8237 77.5957H92.9712C93.4027 77.5957 94.727 77.5246 95.0274 77.6848L95.1306 77.805C94.8426 78.0302 92.9413 77.9191 92.4623 77.9201L87.198 77.9281L72.6394 77.9131C70.031 78.0082 66.7526 77.9271 64.1142 77.9221H20.2724C18.4928 77.9221 6.49214 78.0592 5.8501 77.828L5.90377 77.7639C6.60672 77.4686 7.76694 77.5947 8.56486 77.5967L13.2532 77.6017C14.0419 77.6017 15.1412 77.6358 15.9009 77.5777L15.9742 77.5717C15.3621 77.0811 15.3466 76.6557 15.5396 75.9458C15.8369 75.9879 16.0526 76.0189 16.352 76.0279C16.4728 76.046 16.5688 76.066 16.6916 76.057C16.9135 76.084 17.2758 76.1391 17.4885 76.1481C17.8384 76.1421 18.9305 76.105 19.204 76.1711L19.2206 76.122C19.8151 75.4793 20.5624 75.5484 21.1663 76.1341C22.2842 76.12 23.6344 76.1891 24.7151 76.107L24.7729 76.1501C25.287 76.5395 25.3902 76.7538 26.1385 76.6196C26.1375 76.3353 26.0993 75.9959 26.2954 75.7907C26.9592 76.1371 28.0544 76.1471 28.7346 75.8457C29.5955 76.2612 30.958 76.6386 31.2863 77.4616L31.2956 77.5807C31.5041 77.6498 31.6073 77.6348 31.8251 77.6328C31.8137 77.2563 31.7487 76.087 31.9882 75.8357C32.5889 76.1541 34.1662 76.4524 34.6214 75.8087C35.3264 76.064 36.7633 76.4614 37.1256 77.1192C37.172 77.2033 37.268 77.4816 37.3062 77.5897C40.3699 77.6358 43.4635 77.5487 46.5199 77.6067C46.8223 77.7018 50.6302 77.6948 50.8831 77.6117C51.8772 77.5397 53.6712 77.5967 54.722 77.6017L54.7261 76.045L54.7695 76.05L54.8964 75.9208C56.4871 75.4363 56.8091 75.6775 58.2873 75.7847L58.3379 75.7396L58.213 75.5434C58.7776 75.204 59.4744 75.3512 60.0359 75.6205L60.6975 75.6475C61.0196 75.6515 61.4098 75.6675 61.7256 75.6555C62.2449 75.6525 62.8611 75.6345 63.37 75.6685C63.6064 75.5474 63.8489 75.4613 64.0987 75.3662L64.0967 75.3672Z" fill="#051D50"/>
<path d="M64.3047 75.3465C64.8768 75.3425 65.0923 75.3799 65.6048 75.6188C67.6087 75.5834 70.3301 75.5264 72.2953 75.6178C71.9701 76.3562 72.0726 76.9039 72.5652 77.5361C70.237 77.5332 67.6474 77.5922 65.3402 77.5233C65.108 77.6374 64.4564 77.6276 64.1667 77.6354L63.8435 77.5214C63.6762 77.3464 63.5507 77.1261 63.421 76.9226C63.4021 76.4388 63.377 76.0957 63.5663 75.6444C63.8059 75.5254 64.0516 75.4408 64.3047 75.3474V75.3465Z" fill="#D9F4FB"/>
<path d="M64.2495 75.3465C64.7863 75.3425 64.9885 75.3799 65.4694 75.6188C65.8276 76.2874 65.7776 76.9845 65.2211 77.5233C65.0032 77.6374 64.3918 77.6276 64.1199 77.6354L63.8167 77.5214C63.6597 77.3464 63.5419 77.1261 63.4202 76.9226C63.4025 76.4388 63.379 76.0957 63.5566 75.6444C63.7813 75.5254 64.012 75.4408 64.2495 75.3474V75.3465Z" fill="#000002"/>
<path d="M58.4239 75.5365C59.0011 75.209 59.7134 75.351 60.2875 75.6108C60.5556 76.4531 60.5661 76.8028 59.9963 77.5253L59.9783 77.5649C59.9424 77.5881 59.9076 77.6123 59.8728 77.6354C58.4724 77.5755 56.2278 77.5794 54.9108 77.5755C54.9382 76.996 54.9382 76.6038 54.9055 76.0252L55.0353 75.9006C56.6615 75.4331 56.9908 75.6659 58.502 75.7692L58.5537 75.7258L58.426 75.5365H58.4239Z" fill="url(#paint0_linear_4753_49508)"/>
<path d="M34.8585 75.6729C35.5713 75.9409 37.0241 76.3581 37.3904 77.0487C37.4373 77.137 37.5344 77.4292 37.573 77.5427C37.2464 77.6551 32.5029 77.6583 32.0302 77.5879C32.0187 77.1927 31.9529 75.965 32.1951 75.7012C32.8025 76.0355 34.3972 76.3487 34.8574 75.6729H34.8585Z" fill="#000002"/>
<path d="M26.1302 76.5378C26.1291 76.2412 26.0903 75.887 26.2895 75.6729C26.9637 76.0343 28.0762 76.0448 28.7671 75.7303C29.6416 76.1639 31.0256 76.5577 31.359 77.4164L31.2332 77.5752C30.8652 77.6682 26.8652 77.6254 26.2277 77.6243C26.2151 77.3005 26.2004 77.1479 26.1428 76.8293L26.1302 76.5378Z" fill="#000002"/>
<path d="M21.1211 76.0287C22.243 76.0136 23.5979 76.0882 24.6825 75.9995L24.7405 76.046C25.2564 76.4669 25.36 76.6984 26.111 76.5534L26.1234 76.8552C26.1224 77.0965 26.1524 77.4005 26.0437 77.5952C25.2864 77.6655 24.0009 77.6222 23.2043 77.6136C22.3849 77.6049 21.3552 77.646 20.5669 77.6114L20.6301 77.5357C21.0859 76.9883 21.1677 76.7481 21.1211 76.0287Z" fill="white"/>
<path d="M60.7653 75.6994C61.09 75.7033 61.4834 75.719 61.8019 75.7072C62.3253 75.7043 62.9466 75.6866 63.4597 75.72C63.2713 76.171 63.2973 76.5139 63.315 76.9973C63.4441 77.2017 63.5679 77.4218 63.7355 77.5957C62.9987 77.6694 60.6748 77.6163 59.811 77.6202C60.372 76.8863 60.3626 76.5306 60.0983 75.6729L60.7653 75.6994Z" fill="#D9F4FB"/>
<path d="M19.2742 76.1074C19.8657 75.4938 20.6092 75.5597 21.2099 76.1188C21.2551 76.7554 21.175 76.9666 20.7232 77.4502L20.6605 77.5171L20.6133 77.5362C20.2405 77.6891 20.1183 77.6538 19.7661 77.5047C19.2865 77.0698 19.3019 76.7448 19.2588 76.1542L19.2752 76.1074H19.2742Z" fill="#000002"/>
<path d="M15.7627 75.9995C16.0381 76.0399 16.238 76.0697 16.5153 76.0784C16.6272 76.0957 16.7161 76.115 16.8299 76.1063C17.0355 76.1323 17.3712 76.1852 17.5681 76.1938C17.6886 76.9086 17.6408 77.0616 17.1407 77.5773C16.8519 77.6946 16.4866 77.6023 16.1653 77.5619C15.5983 77.0905 15.5839 76.6816 15.7627 75.9995Z" fill="#000002"/>
<path d="M17.4188 76.0169C17.7595 76.0103 18.8229 75.9694 19.0892 76.0423C19.1315 76.7244 19.1164 77.1008 19.5858 77.6019C18.9747 77.6582 17.5947 77.6306 16.9695 77.603C17.4952 77.0114 17.5454 76.8359 17.4188 76.0158V76.0169Z" fill="white"/>
<path d="M29.9163 63.5976C30.4791 63.5955 31.1724 63.61 31.7238 63.5728C31.8752 66.0829 32.0109 68.595 32.13 71.1072C32.1738 71.8877 32.4411 75.2073 32.2981 75.7769C32.0558 76.0354 32.1206 77.2439 32.1331 77.6326C31.9128 77.6347 31.8083 77.6492 31.5974 77.5789L31.588 77.4559C31.256 76.6061 29.8777 76.2163 29.0068 75.7873C28.3187 76.0985 27.2119 76.0881 26.5395 75.7304C26.5979 75.4575 26.6178 75.4068 26.5186 75.1412C26.6961 74.8155 25.962 66.1501 25.8346 65.2692C25.8399 64.712 25.6895 64.0793 25.9704 63.6906C26.2659 63.5273 26.3087 63.5872 26.6971 63.5872C27.7695 63.61 28.8429 63.6131 29.9153 63.5976H29.9163Z" fill="#0190FD"/>
<path d="M29.651 63.5976C30.1996 63.5955 30.8754 63.61 31.4128 63.5728C31.5604 66.0829 31.6927 68.595 31.8088 71.1072C31.8515 71.8877 32.1121 75.2073 31.9726 75.7769C31.7365 76.0354 31.7996 77.2439 31.8118 77.6326C31.597 77.6347 31.4953 77.6492 31.2897 77.5789L31.2805 77.4559C30.9568 76.6061 29.6133 76.2163 28.7645 75.7873C28.5915 75.38 29.5116 64.9271 29.651 63.5986V63.5976Z" fill="#D9F4FB"/>
<path d="M22.89 59.0512L23.0975 58.9941C22.9291 60.3105 22.7504 62.1062 22.5008 63.3738L23.3286 63.4402C23.4754 63.4444 23.9632 63.4464 24.0741 63.4828C24.3873 63.4942 24.7704 63.518 25.0785 63.5108C25.5129 63.5014 26.0418 63.462 26.4536 63.5689C26.0715 63.5689 26.0294 63.5077 25.7388 63.6726C25.4625 64.0626 25.6104 64.6965 25.6053 65.2566C25.7306 66.1404 26.4525 74.8355 26.2779 75.1623C26.3755 75.4289 26.356 75.4797 26.2985 75.7536C26.1034 75.9662 26.1414 76.3179 26.1424 76.6125C25.3979 76.7515 25.2952 76.5295 24.7837 76.126L24.7262 76.0814C23.651 76.1664 22.3078 76.0949 21.1956 76.1094C20.5948 75.5025 19.8503 75.4299 19.2598 76.0969C19.2197 74.932 20.4028 69.8251 20.6842 68.488C20.9974 66.9994 22.3098 59.8624 22.889 59.0533L22.89 59.0512Z" fill="#051D50"/>
<path d="M23.4276 63.5728C23.5726 63.5769 24.0545 63.579 24.164 63.6153C24.1123 63.6309 23.9824 63.6849 23.9733 63.7233C23.8881 64.1241 23.6477 65.3265 23.5818 65.6546C23.1932 67.6408 22.7804 69.6219 22.3432 71.5968C22.2113 72.2042 21.9049 74.4085 21.4109 74.6919L21.2862 74.6421C21.0021 74.0451 21.7244 71.6134 21.8918 70.817C22.3837 68.3977 22.895 65.9837 23.4276 63.5728Z" fill="#040526"/>
<path d="M25.0528 63.5875C25.4952 63.5782 26.0337 63.5389 26.4531 63.6455C26.0641 63.6455 26.0212 63.5844 25.7252 63.749C25.4439 64.1381 25.5945 64.7704 25.5893 65.3292C24.9608 66.2192 23.8658 74.1547 23.3137 74.6649C23.1087 74.698 23.069 74.7104 22.8734 74.6452C22.7531 74.3327 23.2823 72.4906 23.3827 72.0414C23.7571 70.3277 24.1419 68.616 24.5362 66.9074C24.7704 65.8922 25.08 64.7042 25.264 63.7034L25.0528 63.5896V63.5875Z" fill="#040526"/>
<path d="M26.3847 75.019C26.4832 75.3113 26.4635 75.367 26.4055 75.6672C26.2085 75.9003 26.2469 76.2858 26.2479 76.6087C25.4965 76.7611 25.3928 76.5177 24.8766 76.0754L24.8186 76.0265C25.5555 75.8025 25.8872 75.6365 26.3847 75.019Z" fill="#D9F4FB"/>
<path d="M14.8689 71.0682L16.2348 64.9948C16.4374 64.0777 16.6431 63.1523 16.8457 62.2393C17.0713 61.2255 17.2624 60.1909 18.1804 59.5629C18.7714 59.1584 19.2205 59.0492 19.9129 58.9941C19.5923 59.33 19.1463 59.7677 19.0001 60.2024C18.597 61.3992 18.3464 62.7416 18.0801 63.9789L16.7455 70.1854C16.4332 71.637 16.0719 73.1041 15.8411 74.5661C15.7816 74.9466 16.4019 75.8221 16.358 76C16.0552 75.9906 15.8369 75.9584 15.5362 75.9147C13.7003 74.564 14.4407 72.9138 14.8689 71.0682Z" fill="#03327A"/>
<path d="M20.0628 58.9941H20.567C20.2549 59.3906 19.7423 59.7185 19.5732 60.201C19.2924 61.0001 19.1201 61.8562 18.9385 62.6833L18.1347 66.4201C17.6889 68.5153 17.2327 70.6073 16.7807 72.7015C16.5573 73.7371 16.1293 75.0612 16.8527 75.9973C16.7285 76.0076 16.6314 75.9859 16.5093 75.9672C16.5531 75.7897 15.9331 74.9149 15.9926 74.5362C16.2222 73.0771 16.5845 71.6129 16.8966 70.1642L18.2307 63.97C18.4969 62.7351 18.7475 61.3965 19.1504 60.201C19.2966 59.7672 19.7423 59.3293 20.0628 58.9952V58.9941Z" fill="#051D50"/>
<path d="M70.8153 33.5402C73.3612 33.562 95.0038 33.3812 95.4303 33.5786L95.4582 33.801L95.4468 33.8769C95.3799 34.5201 95.3139 35.0386 95.2016 35.6745C94.6689 38.0781 94.1012 40.254 93.0617 42.5016L92.3363 44.2255H84.2845C84.2536 42.8487 84.2835 41.3763 84.2927 39.9963C83.3768 39.0891 81.9127 37.6208 81.071 36.6856C80.0489 37.5408 78.6951 39.0496 77.7421 40.042L77.739 44.2266C76.7962 44.2255 68.7341 44.1653 68.5548 44.2775C68.5548 44.0458 68.5342 43.8182 68.5167 43.5875C68.528 43.4119 68.5208 43.389 68.6022 43.2394C68.6537 43.2301 68.8341 43.1989 68.8608 43.1563C69.9365 41.4531 67.2515 41.8761 66.3521 41.8854C66.7807 40.2748 67.3927 38.6797 67.8171 37.0628C67.9377 36.6046 67.7471 36.2097 67.6677 35.7265L70.7813 35.7244L70.8153 33.5402Z" fill="#88D1F4"/>
<path d="M94.4953 33.8479L95.4582 33.812C95.3956 34.3971 95.3341 34.8687 95.2292 35.4472L94.4771 35.4415L94.4953 33.8479Z" fill="#D9F4FB"/>
<path d="M72.5654 33.8178L73.5031 33.812C73.5379 34.3253 73.5369 34.9185 73.5465 35.4385L72.5751 35.4472C72.5664 34.906 72.5683 34.359 72.5654 33.8168V33.8178Z" fill="#D9F4FB"/>
<path d="M88.2216 33.812L88.4436 33.8271C88.5989 34.0608 88.6549 35.1852 88.4918 35.4104L88.1328 35.4472C87.9514 35.4425 87.8404 35.4293 87.66 35.4038C87.5731 35.2332 87.6195 34.1372 87.6397 33.8855C87.7362 33.812 88.0769 33.8196 88.2216 33.812Z" fill="#D9F4FB"/>
<path d="M71.2571 33.8149L72.1861 33.812C72.193 34.368 72.2009 34.8816 72.2382 35.4347L71.2581 35.4472V33.8149H71.2571Z" fill="#D9F4FB"/>
<path d="M76.8169 33.812L77.789 33.8149L77.798 35.4472L76.851 35.4423C76.8269 34.9113 76.8259 34.347 76.8169 33.812Z" fill="#D9F4FB"/>
<path d="M90.7953 33.8186C91.0326 33.8139 91.3164 33.7825 91.4851 33.9147C91.5407 34.242 91.5629 35.0926 91.4689 35.3989L91.3265 35.4427C91.1225 35.4455 90.7327 35.4703 90.5862 35.3647C90.5347 35.0269 90.5347 34.1906 90.6327 33.8719L90.7953 33.8177V33.8186Z" fill="#D9F4FB"/>
<path d="M91.8601 33.812L92.8216 33.8159L92.8412 35.4452L91.8766 35.4472C91.8601 34.9121 91.8642 34.35 91.8601 33.812Z" fill="#D9F4FB"/>
<path d="M84.9929 33.812L85.974 33.8198L85.9656 35.4375L85.0024 35.4472L84.9929 33.812Z" fill="#D9F4FB"/>
<path d="M78.4524 33.812L79.4303 33.8169L79.4335 35.4472L78.4577 35.4394L78.4524 33.812Z" fill="#D9F4FB"/>
<path d="M74.202 33.813L75.1456 33.8169C75.1946 34.3441 75.1807 34.9073 75.1786 35.4394L74.2009 35.4472V33.812L74.202 33.813Z" fill="#D9F4FB"/>
<path d="M93.1876 33.812L94.1471 33.8404L94.1493 35.4472H93.1833C93.1615 34.9021 93.1637 34.3561 93.1876 33.812Z" fill="#D9F4FB"/>
<path d="M75.5349 33.814L76.4899 33.812V35.4472L75.5122 35.4442C75.5036 34.9005 75.5111 34.3567 75.536 33.814H75.5349Z" fill="#D9F4FB"/>
<path d="M82.3876 33.812L83.3509 33.8149L83.3576 35.4472L82.3765 35.4414L82.3876 33.813V33.812Z" fill="#D9F4FB"/>
<path d="M81.0686 33.8208L82.0316 33.812C82.0401 34.2746 82.0749 35.0099 82.0169 35.4472H81.0813C81.1045 34.9641 81.0749 34.3155 81.0686 33.8208Z" fill="#D9F4FB"/>
<path d="M89.2655 33.8159L90.1581 33.812L90.225 35.4453L89.2439 35.4472C89.2439 34.9041 89.2514 34.36 89.2655 33.8169V33.8159Z" fill="#D9F4FB"/>
<path d="M83.6948 33.813L84.6125 33.8178C84.6521 34.3342 84.6521 34.924 84.6657 35.4472L83.6846 35.4385L83.6948 33.812V33.813Z" fill="#D9F4FB"/>
<path d="M86.301 33.812H87.2821L87.2798 35.4472L86.3425 35.4251C86.2941 34.9449 86.3068 34.3056 86.301 33.812Z" fill="#D9F4FB"/>
<path d="M79.7605 33.812H80.6893C80.6848 34.3964 80.6904 34.856 80.7416 35.4394L79.7639 35.4472L79.7616 33.813L79.7605 33.812Z" fill="#D9F4FB"/>
<path d="M66.4971 41.7144C67.4093 41.7052 70.1323 41.2849 69.0414 42.9771C69.0142 43.0194 68.8314 43.0504 68.7791 43.0597C68.6966 43.2084 68.7039 43.2311 68.6924 43.4056L68.5984 43.1702C68.263 43.1939 68.4521 43.2548 68.1491 43.132C67.9087 43.5594 68.172 44.659 67.9777 45.2382C67.9171 47.9308 67.9662 50.7803 67.9693 53.4853C67.5702 53.477 66.287 53.4223 65.9621 53.4801C65.9568 53.4894 65.9516 53.4987 65.9454 53.508C64.6789 54.5797 64.1492 54.9276 64.146 56.6786C64.1345 61.6922 64.1324 66.7016 64.1314 71.7151C64.1314 71.9846 64.1063 74.927 64.1387 74.9911L64.2714 75.0344C64.0185 75.1325 63.773 75.2203 63.5337 75.3462C63.0186 75.3111 62.3948 75.3297 61.8692 75.3328C61.5494 75.3462 61.1545 75.3297 60.8285 75.3245L60.1587 75.2967C59.5902 75.0189 58.8849 74.8672 58.3134 75.2172C58.0772 74.7071 58.2172 64.1959 58.2172 62.7959C58.212 61.2968 58.2141 59.7977 58.2245 58.2985C58.2413 55.9322 58.0103 53.7331 61.1325 53.4791C61.5421 53.4936 61.726 53.4709 62.1043 53.6588C62.447 53.4843 62.7155 53.5008 63.0896 53.4781L63.0792 46.6196C63.0792 45.5778 63.1325 44.5165 63.0896 43.4768C63.0729 43.0597 62.5212 42.782 62.517 42.3174C62.516 42.1563 62.5881 42.0324 62.7009 41.9199C63.0792 41.541 65.8273 41.7093 66.4981 41.7144H66.4971Z" fill="#FEA201"/>
<path d="M61.1296 53.7628C61.5388 53.7773 61.7226 53.7545 62.1004 53.9429C61.6777 54.4307 61.0326 55.1059 60.9146 55.7241C60.7298 56.6903 60.781 57.8988 60.7852 58.8919L60.7987 63.0082L60.7914 70.7666C60.7893 72.38 60.7528 74.0669 60.8259 75.6731L60.1567 75.6451C59.5889 75.3665 58.8842 75.2143 58.3132 75.5654C58.0773 75.0538 58.2172 64.5108 58.2172 63.1066C58.212 61.6029 58.2141 60.0993 58.2245 58.5957C58.2412 56.2222 58.0105 54.0165 61.1296 53.7617V53.7628Z" fill="#FEA201"/>
<path d="M65.8787 43.2969H67.6406L67.6476 44.3375L67.6595 45.5317C67.6019 48.2188 67.6486 51.0625 67.6516 53.762C67.272 53.7537 66.0516 53.6991 65.7425 53.7568C65.0737 53.7579 64.4049 53.7558 63.7351 53.7486C63.8494 50.536 63.75 46.5548 63.7421 43.2989L65.8787 43.2969Z" fill="#D9F4FB"/>
<path d="M65.9208 43.2969H67.6534L67.6602 44.278L65.698 44.2683L65.9208 43.2969Z" fill="#A4DFFA"/>
<path d="M66.5019 41.7145C67.4124 41.7052 70.1304 41.2848 69.0416 42.9775C69.0144 43.0199 68.8319 43.0508 68.7798 43.0601C68.6974 43.2089 68.7047 43.2316 68.6932 43.4061L68.5993 43.1706C68.2645 43.1944 68.4533 43.2553 68.1509 43.1324C67.911 43.56 68.1738 44.6599 67.9798 45.2393L67.9673 44.0423L67.96 43.0013H66.1108H63.8684C63.8767 46.2648 63.981 50.2554 63.8611 53.4755C62.8087 53.5974 61.9451 54.8832 61.8346 55.8498C61.7146 56.9012 61.7574 58.063 61.7584 59.1278V64.2245L61.7814 71.4672C61.7887 72.3616 61.7543 74.2856 61.8554 75.1221L61.8815 75.3411C61.5624 75.3545 61.1681 75.338 60.8427 75.3328C60.7697 73.73 60.8062 72.0486 60.8083 70.4396L60.8156 62.7022L60.802 58.597C60.7968 57.6065 60.7468 56.4024 60.9314 55.4378C61.0492 54.8212 61.6938 54.1489 62.1162 53.6614C62.4583 53.4869 62.7263 53.5034 63.0997 53.4807L63.0893 46.6201C63.0893 45.578 63.1425 44.5163 63.0997 43.4763C63.083 43.0591 62.5323 42.7813 62.5282 42.3166C62.5271 42.1554 62.5991 42.0315 62.7117 41.9189C63.0893 41.5399 65.8323 41.7083 66.5019 41.7134V41.7145Z" fill="#000002"/>
<path d="M62.1964 58.667L62.313 58.7636C62.4664 59.254 62.4588 71.3054 62.3282 72.0754C62.1432 71.8904 62.1153 71.7547 62.114 71.5213C62.0938 67.524 62.1077 63.5258 62.1001 59.5285C62.1001 59.2314 62.109 58.9579 62.1964 58.668V58.667Z" fill="#FECA03"/>
<path d="M51.1143 60.7254C51.1533 60.1766 51.1893 59.9322 51.8588 59.9819C52.1631 60.0047 52.4809 60.0264 52.7873 60.044L52.9735 60.0875C53.1349 60.8672 53.0938 60.7803 54.0028 60.7161C55.2491 60.7192 57.0281 60.7771 58.2272 60.6581C58.2302 61.0174 58.2117 62.7715 58.2837 62.9714C58.2837 64.3755 58.147 74.9191 58.3783 75.4296L58.5027 75.6325L58.4524 75.6791C56.9798 75.5683 56.659 75.3188 55.0743 75.82L54.9478 75.9535L54.9047 75.9484L54.9005 77.5586C53.8537 77.5534 52.0655 77.4944 51.0762 77.5689C50.8243 77.6549 47.0318 77.6621 46.7295 77.5638C46.8704 76.7302 46.9804 76.5086 47.3773 75.7692C47.5295 72.117 47.4565 68.3819 47.5933 64.7214C47.6416 63.4332 47.6159 61.9825 47.7167 60.7119C48.7028 60.6663 50.0993 60.7171 51.1122 60.7243L51.1143 60.7254Z" fill="#03327A"/>
<path d="M53.9251 60.6877C55.1929 60.6908 57.0025 60.7491 58.2222 60.6294C58.2254 60.9905 58.2065 62.7533 58.2798 62.9541C58.2798 64.3651 58.1406 74.9605 58.376 75.4735L58.5026 75.6775L58.4513 75.7243C56.9534 75.6129 56.627 75.3622 55.0151 75.8658L54.8864 76L54.8425 75.9948C54.7013 75.6192 54.5506 72.538 54.5161 71.8553C54.3278 68.1446 54.081 64.3964 53.9241 60.6877H53.9251Z" fill="#03327A"/>
<path d="M52.749 59.9756L52.9384 60.0194C53.1027 60.8052 53.0609 60.7175 53.9861 60.6528C54.1431 64.3718 54.3902 68.1304 54.5786 71.8515C54.6131 72.536 54.7638 75.6257 54.9051 76.0024L54.9009 77.625C53.8354 77.6198 52.0152 77.5603 51.0083 77.6355L50.9832 76.569C50.9738 76.3332 50.9905 76.1694 51.0439 75.9367C51.5107 73.8852 52.1209 60.6966 52.749 59.9756Z" fill="#D9F4FB"/>
<path d="M47.3631 75.9687C48.4474 75.6336 49.8374 75.5263 50.9065 75.9499C50.9035 76.1877 50.8763 76.5605 50.9568 76.7607L50.9809 77.891C50.7345 77.9828 47.0252 77.9906 46.7295 77.8855C46.8673 76.9951 46.9749 76.7584 47.3631 75.9687Z" fill="#000002"/>
<path d="M24.7969 30.5653C24.7355 30.52 24.4153 30.3664 24.3304 30.3375C21.9784 29.5399 22.0593 26.7428 23.824 25.3289C24.2823 24.8888 25.3841 24.2777 25.6736 23.7397C26.668 21.8898 26.2567 20.0409 28.5176 18.9371C29.7309 18.3538 31.1252 18.2827 32.3907 18.7403C34.0439 19.3318 34.6997 20.179 34.0623 21.8702C34.2045 22.2144 34.2137 23.0049 34.2076 23.4058C34.1841 24.9372 34.5728 26.6305 32.6721 27.0654C32.6209 27.9661 32.3866 28.3207 31.9017 29.0596C31.7472 29.2163 31.0956 29.849 31.027 29.9562L30.981 29.9779C30.1033 30.2159 29.3544 32.9223 27.5938 31.9782C27.0373 31.6804 25.3554 30.4138 24.8746 30.5395L24.7979 30.5653H24.7969Z" fill="#040526"/>
<path d="M32.8223 23.2154C33.4925 22.6559 33.7015 22.493 34.1451 21.7124C34.2821 22.0591 34.2909 22.8552 34.285 23.259C34.2624 24.8015 34.6369 26.5069 32.8055 26.945C32.6547 26.318 32.5295 25.9786 32.2545 25.3973C31.9756 24.8088 31.4069 23.4915 31.8484 22.9144C32.3019 22.6331 32.4921 22.8895 32.8233 23.2165L32.8223 23.2154Z" fill="#FEA774"/>
<path d="M55.7155 16.9358C56.0969 16.8075 56.9869 16.4953 57.3431 16.4795L57.3326 16.8338C57.6195 18.9051 57.857 21.7702 55.8437 23.0266C55.9141 23.4398 55.9109 23.5776 55.8941 24.0013C55.5799 23.9645 55.0167 23.7921 54.6258 23.7269C53.3208 23.5103 52.3194 23.5997 51.0322 23.7973C51.1026 23.5113 51.1615 23.2117 51.2224 22.9225C49.8207 21.8427 49.3079 19.2573 49.3479 17.5751C49.4802 17.6424 49.6158 17.7044 49.7534 17.7591C51.8193 18.5623 53.8472 17.758 55.7144 16.9369L55.7155 16.9358Z" fill="url(#paint1_linear_4753_49508)"/>
<path d="M56.7209 17.2436C56.8745 17.1074 57.153 16.928 57.331 16.8066C57.6201 18.8858 57.8595 21.7618 55.8303 23.023C55.9012 23.4378 55.898 23.5761 55.8811 24.0014C55.5644 23.9645 54.9968 23.7914 54.6028 23.7259C53.2874 23.5085 52.2781 23.5982 50.9807 23.7967C51.0517 23.5096 51.111 23.2088 51.1724 22.9186C51.9964 23.3914 53.209 23.46 54.0298 22.9386C54.8485 22.4183 55.1185 21.5919 55.3134 20.699C55.0232 20.1639 54.5604 18.8436 55.1662 18.3993C56.131 18.07 55.9467 19.2478 56.166 19.7249C56.3556 19.841 56.2666 19.8251 56.5017 19.7745C56.6394 19.5634 56.6966 17.6742 56.7199 17.2457L56.7209 17.2436Z" fill="#FEA774"/>
<path d="M48.0381 16.0249C48.0319 15.9062 48.0814 15.7339 48.1256 15.6235C48.6567 14.2679 50.8872 13.0741 52.0863 12.472C53.4388 11.8247 55.0538 11.2614 56.5339 11.7732C57.3758 12.0642 57.7268 12.9144 57.4016 13.7456C57.2822 14.1796 57.0876 14.5348 56.89 14.9362C56.5215 15.7076 55.4531 16.4159 55.4058 16.9613C53.5778 17.782 51.5902 18.5859 49.5666 17.783C49.4307 17.7284 49.299 17.6674 49.1693 17.5991C49.0396 17.266 48.2913 17.2334 48.0381 16.0249Z" fill="#014FAB"/>
<path d="M48.0376 16.0821C48.6746 16.1926 49.1677 16.8501 50.4219 16.9717C52.7426 17.1967 54.6358 16.665 56.404 15.1302C56.6407 14.9247 57.5258 13.8612 57.5216 13.8633C57.4007 14.2856 57.2036 14.6312 57.0035 15.0218C56.6302 15.7723 55.5481 16.4615 55.5001 16.9922C53.6486 17.7908 51.6354 18.573 49.5858 17.7918C49.4482 17.7386 49.3147 17.6793 49.1833 17.6129C49.052 17.2887 48.2941 17.257 48.0376 16.0811V16.0821Z" fill="#051D50"/>
<path d="M31.686 63.4358C32.8587 63.3334 34.3851 63.3159 35.6105 63.2456C35.5263 64.588 34.6415 75.0026 34.829 75.6061C34.382 76.2716 32.8323 75.9626 32.2435 75.634C32.3823 75.0646 32.1229 71.7463 32.0803 70.9661C31.9648 68.455 31.833 65.9448 31.686 63.4347V63.4358Z" fill="#0190FD"/>
<path d="M23.1061 47.2222L24.8181 47.2764L23.6489 55.4742C23.528 56.2894 23.301 58.1915 23.1222 58.9383L22.9059 58.9944C22.4177 58.9638 21.725 58.9883 21.2207 58.9924C21.5355 56.2833 22.301 53.2064 22.6586 50.4697C22.7774 49.5564 23.1275 48.0915 23.1061 47.2212V47.2222Z" fill="#D9F4FB"/>
<path d="M24.7085 45.5864L25.1454 46.1037C25.0996 46.4461 25.058 46.804 24.9983 47.1423L23.2946 47.0878C23.3159 47.9639 22.9675 49.4396 22.8492 50.3579C22.4944 53.1128 21.7326 56.2101 21.4182 58.9373C21.1018 58.9198 21.1497 58.9712 20.9707 58.7995L20.8961 58.9537L20.7416 58.9949C20.6084 58.8961 20.6234 58.9352 20.5669 58.8036C20.6724 57.8976 20.9153 56.678 21.0719 55.7515L22.0064 50.143C22.0437 49.9116 22.439 47.4971 22.423 47.459C21.4385 45.0579 22.8236 45.7468 24.6339 45.5936L24.7085 45.5864Z" fill="#040526"/>
<path d="M20.8943 58.8575C21.358 55.9446 22.2687 50.4764 22.8007 47.3152C22.8154 47.2304 23.064 47.2324 23.1826 47.2212C23.2036 48.0917 22.8605 49.5579 22.744 50.4703C22.3947 53.2074 21.6445 56.2849 21.335 58.9944C21.0233 58.9771 21.0706 59.0282 20.8943 58.8575Z" fill="#88D1F4"/>
<path d="M42.1727 48.867C42.9524 48.852 43.7322 48.853 44.512 48.8701C44.6079 49.8054 45.3281 51.2088 45.017 51.687C44.8968 51.679 44.8705 51.687 44.7614 51.6307L44.6311 51.8568C44.7119 52.0477 44.7786 52.1421 44.7281 52.338C44.1797 52.7449 43.3474 51.9803 42.9989 51.5805C42.1686 50.6281 42.101 50.0545 42.1727 48.866V48.867Z" fill="#FEA774"/>
<path d="M44.6568 52.1266C44.5606 51.8516 44.3979 51.4429 44.4507 51.1455C44.5818 51.2439 44.6985 51.6805 44.7675 51.8859L44.6576 52.1266H44.6568Z" fill="white"/>
<path d="M57.0369 14.8438C57.6294 15.0372 58.2292 15.1991 58.8299 15.3651C58.4414 15.7653 57.7217 16.3447 57.1476 16.364C56.8001 16.3783 55.9307 16.6817 55.5596 16.806C55.6067 16.2775 56.6709 15.5912 57.0379 14.8438H57.0369Z" fill="#03327A"/>
<path d="M74.8075 12.9211C77.3854 12.6365 79.3386 13.9383 80.5355 16.1735C82.2983 15.3907 83.0753 15.7507 84.339 17.0891C83.0598 17.1571 81.579 17.1278 80.2854 17.1257L73.7763 17.1163C70.6479 17.0901 67.5184 17.0891 64.3899 17.1111C65.9768 14.6572 68.4003 13.6955 71.0513 15.2034C72.209 13.8995 73.0127 13.19 74.8075 12.9211Z" fill="#C1EBFB"/>
<path d="M81.1851 21.4017C81.5427 21.3548 81.9233 21.3864 82.0495 21.7911C81.7826 22.4353 80.1049 22.1377 79.6701 22.6076C79.7514 22.7411 79.8797 22.8308 80.0017 22.9338L80.0079 23.0714C79.6107 23.4975 79.9985 23.3303 79.9954 23.7431C79.986 25.3099 78.5232 25.3639 77.2407 25.2895C76.7172 24.9388 75.8925 23.4995 75.5088 22.895C75.832 22.6963 76.7235 22.2151 77.0551 22.1499C78.2906 21.9063 79.9704 21.523 81.1851 21.4027V21.4017Z" fill="#FEA774"/>
<defs>
<linearGradient id="paint0_linear_4753_49508" x1="60.22" y1="76.9332" x2="55.0089" y2="75.9824" gradientUnits="userSpaceOnUse">
<stop/>
<stop offset="1" stop-color="#010018"/>
</linearGradient>
<linearGradient id="paint1_linear_4753_49508" x1="57.5911" y1="17.2186" x2="50.6826" y2="22.1762" gradientUnits="userSpaceOnUse">
<stop stop-color="#000002"/>
<stop offset="1" stop-color="#010017"/>
</linearGradient>
</defs>
</svg>
