<svg width="480" height="260" viewBox="0 0 480 260" fill="none" xmlns="http://www.w3.org/2000/svg">
<g>
<path d="M0 10C0 6.68629 2.68629 4 6 4H101.213C103.122 4 104.918 4.9086 106.048 6.44706L126.702 34.5529C127.832 36.0914 129.628 37 131.537 37H451C454.314 37 457 39.6863 457 43V254C457 257.314 454.314 260 451 260H6C2.68629 260 0 257.314 0 254V10Z" fill="#FBFCFF"/>
<path d="M6 4.5H101.213C102.963 4.5 104.609 5.33291 105.646 6.74316L126.299 34.8486C127.524 36.5153 129.469 37.5 131.537 37.5H451C454.038 37.5 456.5 39.9624 456.5 43V254C456.5 257.038 454.038 259.5 451 259.5H6C2.96243 259.5 0.5 257.038 0.5 254V10C0.500002 6.96243 2.96244 4.5 6 4.5Z" stroke="#3A78FE"/>
</g>
</svg>
