<svg width="383" height="154" viewBox="0 0 383 154" fill="none" xmlns="http://www.w3.org/2000/svg">
<g>
<path d="M23 10C23 6.68629 25.6863 4 29 4H124.213C126.122 4 127.918 4.9086 129.048 6.44706L149.702 34.5529C150.832 36.0914 152.628 37 154.537 37H354C357.314 37 360 39.6863 360 43V148C360 151.314 357.314 154 354 154H29C25.6863 154 23 151.314 23 148V10Z" fill="#ECEFF6"/>
<path d="M29 4.5H124.213C125.963 4.5 127.609 5.33291 128.646 6.74316L149.299 34.8486C150.524 36.5153 152.469 37.5 154.537 37.5H354C357.038 37.5 359.5 39.9624 359.5 43V148C359.5 151.038 357.038 153.5 354 153.5H29C25.9624 153.5 23.5 151.038 23.5 148V10C23.5 6.96243 25.9624 4.5 29 4.5Z" stroke="#D9E4F8"/>
</g>
</svg>
