<svg width="24" height="24" viewBox="0 0 24 24" fill="none" xmlns="http://www.w3.org/2000/svg">
<path d="M7.1125 7C6.55223 7 6.01491 7.21401 5.61874 7.59494C5.22257 7.97587 5 8.49253 5 9.03125V14.9688C5 15.5075 5.22257 16.0241 5.61874 16.4051C6.01491 16.786 6.55223 17 7.1125 17H15.8875C16.1649 17 16.4396 16.9475 16.6959 16.8454C16.9522 16.7433 17.1851 16.5937 17.3813 16.4051C17.5774 16.2164 17.733 15.9925 17.8392 15.7461C17.9454 15.4996 18 15.2355 18 14.9688V9.03125C18 8.7645 17.9454 8.50037 17.8392 8.25392C17.733 8.00748 17.5774 7.78356 17.3813 7.59494C17.1851 7.40632 16.9522 7.2567 16.6959 7.15462C16.4396 7.05254 16.1649 7 15.8875 7H7.1125ZM5.975 9.03125C5.975 8.4275 6.4846 7.9375 7.1125 7.9375H15.8875C16.5154 7.9375 17.025 8.4275 17.025 9.03125V14.9688C17.025 15.2588 16.9052 15.537 16.6918 15.7421C16.4785 15.9473 16.1892 16.0625 15.8875 16.0625H7.1125C6.81082 16.0625 6.52149 15.9473 6.30817 15.7421C6.09484 15.537 5.975 15.2588 5.975 14.9688V9.03125ZM6.95 9.34375C6.95 9.21943 7.00136 9.1002 7.09279 9.01229C7.18421 8.92439 7.30821 8.875 7.4375 8.875H11.0125C11.1418 8.875 11.2658 8.92439 11.3572 9.01229C11.4486 9.1002 11.5 9.21943 11.5 9.34375C11.5 9.46807 11.4486 9.5873 11.3572 9.67521C11.2658 9.76311 11.1418 9.8125 11.0125 9.8125H7.4375C7.30821 9.8125 7.18421 9.76311 7.09279 9.67521C7.00136 9.5873 6.95 9.46807 6.95 9.34375ZM7.6 12.625C7.42761 12.625 7.26228 12.6908 7.14038 12.8081C7.01848 12.9253 6.95 13.0842 6.95 13.25V14.5C6.95 14.6658 7.01848 14.8247 7.14038 14.9419C7.26228 15.0592 7.42761 15.125 7.6 15.125H12.15C12.3224 15.125 12.4877 15.0592 12.6096 14.9419C12.7315 14.8247 12.8 14.6658 12.8 14.5V13.25C12.8 13.0842 12.7315 12.9253 12.6096 12.8081C12.4877 12.6908 12.3224 12.625 12.15 12.625H7.6ZM6.95 10.9062C6.95 10.7819 7.00136 10.6627 7.09279 10.5748C7.18421 10.4869 7.30821 10.4375 7.4375 10.4375H14.2625C14.3918 10.4375 14.5158 10.4869 14.6072 10.5748C14.6986 10.6627 14.75 10.7819 14.75 10.9062C14.75 11.0306 14.6986 11.1498 14.6072 11.2377C14.5158 11.3256 14.3918 11.375 14.2625 11.375H7.4375C7.30821 11.375 7.18421 11.3256 7.09279 11.2377C7.00136 11.1498 6.95 11.0306 6.95 10.9062Z" fill="#002E75"/>
</svg>
