<svg width="24" height="24" viewBox="0 0 24 24" fill="none" xmlns="http://www.w3.org/2000/svg">
<path d="M12.6375 6C13.0254 6 13.3974 6.14972 13.6716 6.41622C13.9459 6.68272 14.1 7.04417 14.1 7.42105V8.52632H15.8875C16.1649 8.52632 16.4396 8.57941 16.6959 8.68256C16.9522 8.78572 17.1851 8.93691 17.3813 9.12752C17.5774 9.31812 17.733 9.5444 17.8392 9.79344C17.9454 10.0425 18 10.3094 18 10.5789V15.9474C18 16.2169 17.9454 16.4838 17.8392 16.7329C17.733 16.9819 17.5774 17.2082 17.3813 17.3988C17.1851 17.5894 16.9522 17.7406 16.6959 17.8438C16.4396 17.9469 16.1649 18 15.8875 18H7.1125C6.55223 18 6.01491 17.7837 5.61874 17.3988C5.22257 17.0139 5 16.4918 5 15.9474V10.5789C5 10.0346 5.22257 9.51246 5.61874 9.12752C6.01491 8.74257 6.55223 8.52632 7.1125 8.52632H8.9V7.42105C8.9 7.04417 9.05408 6.68272 9.32836 6.41622C9.60263 6.14972 9.97462 6 10.3625 6H12.6375ZM17.025 13.2549C16.6857 13.4669 16.2908 13.5794 15.8875 13.5789H12.8C12.8 13.7465 12.7315 13.9071 12.6096 14.0255C12.4877 14.144 12.3224 14.2105 12.15 14.2105H10.85C10.6776 14.2105 10.5123 14.144 10.3904 14.0255C10.2685 13.9071 10.2 13.7465 10.2 13.5789H7.1125C6.70918 13.5794 6.31427 13.4669 5.975 13.2549V15.9474C5.975 16.5575 6.4846 17.0526 7.1125 17.0526H15.8875C16.1892 17.0526 16.4785 16.9362 16.6918 16.7289C16.9052 16.5216 17.025 16.2405 17.025 15.9474V13.2549ZM7.1125 9.47368C6.81082 9.47368 6.52149 9.59013 6.30817 9.79741C6.09484 10.0047 5.975 10.2858 5.975 10.5789V11.5263C5.975 12.1364 6.4846 12.6316 7.1125 12.6316H10.2V12.3158C10.2 12.1483 10.2685 11.9876 10.3904 11.8692C10.5123 11.7508 10.6776 11.6842 10.85 11.6842H12.15C12.3224 11.6842 12.4877 11.7508 12.6096 11.8692C12.7315 11.9876 12.8 12.1483 12.8 12.3158V12.6316H15.8875C16.1892 12.6316 16.4785 12.5151 16.6918 12.3079C16.9052 12.1006 17.025 11.8194 17.025 11.5263V10.5789C17.025 10.2858 16.9052 10.0047 16.6918 9.79741C16.4785 9.59013 16.1892 9.47368 15.8875 9.47368H7.1125ZM10.3625 6.94737C10.2332 6.94737 10.1092 6.99727 10.0178 7.08611C9.92636 7.17494 9.875 7.29542 9.875 7.42105V8.52632H13.125V7.42105C13.125 7.29542 13.0736 7.17494 12.9822 7.08611C12.8908 6.99727 12.7668 6.94737 12.6375 6.94737H10.3625Z" fill="#002E75"/>
</svg>
