<svg width="24" height="24" viewBox="0 0 24 24" fill="none" xmlns="http://www.w3.org/2000/svg">
<path d="M10.1968 16.0661C10.1968 15.7162 10.3341 15.3807 10.5785 15.1333C10.8229 14.8859 11.1544 14.747 11.5 14.747C11.8456 14.747 12.1771 14.8859 12.4215 15.1333C12.6659 15.3807 12.8032 15.7162 12.8032 16.0661C12.8032 16.4159 12.6659 16.7515 12.4215 16.9988C12.1771 17.2462 11.8456 17.3852 11.5 17.3852C11.1544 17.3852 10.8229 17.2462 10.5785 16.9988C10.3341 16.7515 10.1968 16.4159 10.1968 16.0661Z" fill="#002E75"/>
<path fill-rule="evenodd" clip-rule="evenodd" d="M7.69633 11.3146L7.42179 8.81801C7.38696 8.49799 7.38696 8.17507 7.42179 7.85505L7.44177 7.67478C7.55319 6.66423 8.02872 5.73072 8.77742 5.05277C9.52611 4.37482 10.4954 4 11.5 4C12.5046 4 13.4739 4.37482 14.2226 5.05277C14.9713 5.73072 15.4468 6.66423 15.5582 7.67478L15.5782 7.85505C15.613 8.17575 15.613 8.49673 15.5782 8.81801L15.3037 11.3155L15.9005 11.363C16.3576 11.3998 16.7894 11.5906 17.1267 11.905C17.4641 12.2194 17.6876 12.6391 17.7615 13.0972C18.0795 15.0634 18.0795 17.0688 17.7615 19.035C17.6876 19.493 17.4641 19.9128 17.1267 20.2272C16.7894 20.5415 16.3576 20.7324 15.9005 20.7692L14.6008 20.8747C12.5365 21.0418 10.4635 21.0418 8.3992 20.8747L7.09946 20.7692C6.64235 20.7324 6.21062 20.5415 5.87327 20.2272C5.53592 19.9128 5.31241 19.493 5.23846 19.035C4.92051 17.0688 4.92051 15.0634 5.23846 13.0972C5.31241 12.6391 5.53592 12.2194 5.87327 11.905C6.21062 11.5906 6.64235 11.3998 7.09946 11.363L7.69633 11.3146ZM11.1751 5.33731C11.5392 5.29399 11.9081 5.32399 12.2607 5.42558C12.6133 5.52717 12.9426 5.69834 13.2296 5.92924C13.5166 6.16014 13.7556 6.44621 13.9329 6.77098C14.1103 7.09576 14.2224 7.45283 14.2628 7.82164L14.2828 8.00192C14.3071 8.22529 14.3071 8.44924 14.2828 8.67378L14.0039 11.2153C12.3364 11.1069 10.6636 11.1069 8.99608 11.2153L8.71806 8.67378C8.69384 8.4505 8.69384 8.2252 8.71806 8.00192L8.73717 7.82164C8.80647 7.18966 9.08518 6.60007 9.52788 6.14893C9.97059 5.6978 10.5512 5.41172 11.1751 5.33731ZM14.4974 12.574C12.5023 12.4129 10.4977 12.4129 8.50259 12.574L7.20372 12.6795C7.03687 12.6926 6.87922 12.7621 6.75603 12.8768C6.63284 12.9914 6.55124 13.1446 6.5243 13.3118C6.22931 15.1364 6.22931 16.9975 6.5243 18.8221C6.55106 18.9895 6.63258 19.1429 6.75579 19.2577C6.879 19.3725 7.03675 19.4421 7.20372 19.4553L8.50346 19.5608C10.4983 19.7218 12.5017 19.7218 14.4974 19.5608L15.7972 19.4553C15.964 19.4419 16.1215 19.3723 16.2445 19.2574C16.3676 19.1426 16.449 18.9894 16.4757 18.8221C16.7707 16.9975 16.7707 15.1364 16.4757 13.3118C16.449 13.1446 16.3676 12.9913 16.2445 12.8765C16.1215 12.7617 15.964 12.692 15.7972 12.6786L14.4974 12.574Z" fill="#002E75"/>
</svg>
