<svg width="24" height="24" viewBox="0 0 24 24" fill="none" xmlns="http://www.w3.org/2000/svg">
<path d="M9.275 11.55C9.09598 11.55 8.92429 11.6211 8.7977 11.7477C8.67112 11.8743 8.6 12.046 8.6 12.225C8.6 12.404 8.67112 12.5757 8.7977 12.7023C8.92429 12.8289 9.09598 12.9 9.275 12.9H15.125C15.304 12.9 15.4757 12.8289 15.6023 12.7023C15.7289 12.5757 15.8 12.404 15.8 12.225C15.8 12.046 15.7289 11.8743 15.6023 11.7477C15.4757 11.6211 15.304 11.55 15.125 11.55H9.275ZM9.275 14.025C9.09598 14.025 8.92429 14.0961 8.7977 14.2227C8.67112 14.3493 8.6 14.521 8.6 14.7C8.6 14.879 8.67112 15.0507 8.7977 15.1773C8.92429 15.3039 9.09598 15.375 9.275 15.375H15.125C15.304 15.375 15.4757 15.3039 15.6023 15.1773C15.7289 15.0507 15.8 14.879 15.8 14.7C15.8 14.521 15.7289 14.3493 15.6023 14.2227C15.4757 14.0961 15.304 14.025 15.125 14.025H9.275ZM9.275 16.5C9.09598 16.5 8.92429 16.5711 8.7977 16.6977C8.67112 16.8243 8.6 16.996 8.6 17.175C8.6 17.354 8.67112 17.5257 8.7977 17.6523C8.92429 17.7789 9.09598 17.85 9.275 17.85H15.125C15.304 17.85 15.4757 17.7789 15.6023 17.6523C15.7289 17.5257 15.8 17.354 15.8 17.175C15.8 16.996 15.7289 16.8243 15.6023 16.6977C15.4757 16.5711 15.304 16.5 15.125 16.5H9.275ZM13.6265 3.5274L18.8726 8.7726C19.2102 9.11009 19.3999 9.56785 19.4 10.0452V19.2C19.4 19.6774 19.2104 20.1352 18.8728 20.4728C18.5352 20.8104 18.0774 21 17.6 21H6.8C6.32261 21 5.86477 20.8104 5.52721 20.4728C5.18964 20.1352 5 19.6774 5 19.2V4.8C5 4.32261 5.18964 3.86477 5.52721 3.52721C5.86477 3.18964 6.32261 3 6.8 3H12.3548C12.38 3.0006 12.4046 3.0027 12.4286 3.0063C12.4466 3.0093 12.4643 3.0114 12.4817 3.0126C12.6752 3.0261 12.866 3.063 13.0433 3.1368C13.0946 3.1584 13.1441 3.1872 13.1927 3.2151L13.2377 3.2412L13.28 3.2628C13.3049 3.27487 13.3292 3.28809 13.3529 3.3024C13.4231 3.3501 13.4861 3.4068 13.55 3.4644L13.5824 3.4914L13.6265 3.5274ZM17.6 19.65C17.7193 19.65 17.8338 19.6026 17.9182 19.5182C18.0026 19.4338 18.05 19.3193 18.05 19.2V10.2H14C13.5226 10.2 13.0648 10.0104 12.7272 9.67279C12.3896 9.33523 12.2 8.87739 12.2 8.4V4.35H6.8C6.68065 4.35 6.56619 4.39741 6.4818 4.4818C6.39741 4.56619 6.35 4.68065 6.35 4.8V19.2C6.35 19.3193 6.39741 19.4338 6.4818 19.5182C6.56619 19.6026 6.68065 19.65 6.8 19.65H17.6ZM17.0402 8.85L13.55 5.3589V8.4C13.55 8.51935 13.5974 8.63381 13.6818 8.7182C13.7662 8.80259 13.8807 8.85 14 8.85H17.0402Z" fill="#002E75"/>
</svg>
