<svg width="24" height="24" viewBox="0 0 24 24" fill="none" xmlns="http://www.w3.org/2000/svg">
<path d="M11.682 13.3801C12.1186 13.4239 12.5231 13.6248 12.8172 13.9437C13.1113 14.2627 13.2742 14.6771 13.2742 15.1068C13.2742 15.9991 12.7187 16.7374 11.9716 17.2246C11.221 17.7153 10.2163 18 9.13712 18C8.05792 18 7.05319 17.7153 6.3026 17.2246C5.55437 16.7386 5 15.9991 5 15.1068C5 14.6464 5.1868 14.2048 5.51931 13.8793C5.85183 13.5537 6.30281 13.3709 6.77305 13.3709H11.5012L11.682 13.3801ZM16.227 13.3709C16.6972 13.3709 17.1482 13.5537 17.4807 13.8793C17.8132 14.2048 18 14.6464 18 15.1068C18 15.9111 17.4905 16.5083 16.8381 16.8751C16.1903 17.2397 15.3428 17.4214 14.4539 17.4214C14.1552 17.4206 13.8637 17.3994 13.5792 17.3577C13.8558 17.0383 14.0875 16.6714 14.2423 16.2583C14.3125 16.2621 14.383 16.2641 14.4539 16.2641C15.1974 16.2641 15.8274 16.1102 16.2494 15.8729C16.6667 15.638 16.818 15.3672 16.818 15.1068C16.818 14.9533 16.7557 14.8061 16.6449 14.6976C16.534 14.5891 16.3837 14.5281 16.227 14.5281H14.3948C14.3057 14.1082 14.1224 13.7129 13.8582 13.3709H16.227ZM6.77305 14.5281C6.6163 14.5281 6.46597 14.5891 6.35514 14.6976C6.2443 14.8061 6.18203 14.9533 6.18203 15.1068C6.18203 15.4922 6.42199 15.9123 6.95745 16.2618C7.48936 16.6089 8.25768 16.8427 9.13712 16.8427C10.0154 16.8427 10.7849 16.6089 11.3168 16.2618C11.8522 15.9123 12.0922 15.4922 12.0922 15.1068C12.0922 14.9734 12.0452 14.8441 11.959 14.7407C11.8729 14.6374 11.7529 14.5664 11.6194 14.5397L11.5012 14.5281H6.77305ZM9.41017 7.0162C10.0657 7.08207 10.673 7.38355 11.1147 7.86237C11.5564 8.34119 11.8011 8.96333 11.8014 9.60852L11.7872 9.8747C11.7194 10.5161 11.4112 11.1101 10.9222 11.5421C10.4332 11.9741 9.7981 12.2133 9.13948 12.2136L8.86761 12.1997C8.25866 12.1389 7.68979 11.8742 7.25696 11.4505C6.82414 11.0267 6.55386 10.4697 6.49173 9.87354L6.47754 9.60736C6.47754 8.91605 6.75796 8.25303 7.25713 7.76409C7.75631 7.27515 8.43338 7.00031 9.13948 7L9.41017 7.0162ZM14.7518 8.1596C15.0234 8.1596 15.2924 8.21198 15.5434 8.31376C15.7943 8.41554 16.0224 8.56472 16.2145 8.75278C16.4065 8.94084 16.5589 9.16411 16.6629 9.40982C16.7668 9.65553 16.8203 9.91889 16.8203 10.1849C16.8203 10.4508 16.7668 10.7142 16.6629 10.9599C16.5589 11.2056 16.4065 11.4289 16.2145 11.6169C16.0224 11.805 15.7943 11.9542 15.5434 12.0559C15.2924 12.1577 15.0234 12.2101 14.7518 12.2101C14.2032 12.2101 13.677 11.9967 13.2891 11.6169C12.9012 11.2371 12.6832 10.722 12.6832 10.1849C12.6832 9.64772 12.9012 9.13259 13.2891 8.75278C13.677 8.37297 14.2032 8.1596 14.7518 8.1596ZM9.13948 8.1596C8.94514 8.1596 8.75269 8.19708 8.57314 8.26989C8.39359 8.34271 8.23045 8.44943 8.09303 8.58398C7.95561 8.71852 7.8466 8.87825 7.77223 9.05404C7.69785 9.22983 7.65957 9.41825 7.65957 9.60852C7.65957 9.7988 7.69785 9.98721 7.77223 10.163C7.8466 10.3388 7.95561 10.4985 8.09303 10.6331C8.23045 10.7676 8.39359 10.8743 8.57314 10.9472C8.75269 11.02 8.94514 11.0574 9.13948 11.0574C9.53197 11.0574 9.90839 10.9048 10.1859 10.6331C10.4635 10.3613 10.6194 9.9928 10.6194 9.60852C10.6194 9.22424 10.4635 8.8557 10.1859 8.58398C9.90839 8.31225 9.53197 8.1596 9.13948 8.1596ZM14.7518 9.31689C14.5167 9.31689 14.2912 9.40833 14.1249 9.57111C13.9586 9.73388 13.8652 9.95465 13.8652 10.1849C13.8652 10.415 13.9586 10.6358 14.1249 10.7986C14.2912 10.9614 14.5167 11.0528 14.7518 11.0528C14.9869 11.0528 15.2124 10.9614 15.3786 10.7986C15.5449 10.6358 15.6383 10.415 15.6383 10.1849C15.6383 9.95465 15.5449 9.73388 15.3786 9.57111C15.2124 9.40833 14.9869 9.31689 14.7518 9.31689Z" fill="#002E75"/>
</svg>
