<svg width="24" height="24" viewBox="0 0 24 24" fill="none" xmlns="http://www.w3.org/2000/svg">
<path d="M12.0002 9.68141C11.4079 9.68141 10.8399 9.92591 10.4211 10.3611C10.0023 10.7963 9.76706 11.3866 9.76706 12.0021C9.76706 12.6176 10.0023 13.2078 10.4211 13.6431C10.8399 14.0783 11.4079 14.3228 12.0002 14.3228C12.5924 14.3228 13.1604 14.0783 13.5792 13.6431C13.998 13.2078 14.2333 12.6176 14.2333 12.0021C14.2333 11.3866 13.998 10.7963 13.5792 10.3611C13.1604 9.92591 12.5924 9.68141 12.0002 9.68141ZM10.6603 12.0021C10.6603 11.6328 10.8015 11.2786 11.0527 11.0175C11.304 10.7564 11.6448 10.6097 12.0002 10.6097C12.3555 10.6097 12.6963 10.7564 12.9476 11.0175C13.1989 11.2786 13.34 11.6328 13.34 12.0021C13.34 12.3714 13.1989 12.7255 12.9476 12.9867C12.6963 13.2478 12.3555 13.3945 12.0002 13.3945C11.6448 13.3945 11.304 13.2478 11.0527 12.9867C10.8015 12.7255 10.6603 12.3714 10.6603 12.0021ZM10.5888 18.3273C11.0511 18.442 11.525 18.5 12.0002 18.5C12.4749 18.4994 12.948 18.441 13.4097 18.3259C13.5423 18.2933 13.662 18.2189 13.7523 18.1129C13.8427 18.0069 13.8993 17.8744 13.9144 17.7337L14.0189 16.7451C14.0289 16.6372 14.0635 16.5333 14.1198 16.4421C14.1761 16.3509 14.2525 16.2749 14.3427 16.2204C14.4329 16.166 14.5342 16.1347 14.6384 16.1291C14.7425 16.1234 14.8465 16.1437 14.9416 16.1881L15.8148 16.5854C15.9397 16.6427 16.0788 16.6581 16.2126 16.6294C16.3463 16.6007 16.4682 16.5294 16.5611 16.4253C17.2062 15.7029 17.6878 14.8397 17.9706 13.899C18.011 13.7629 18.0097 13.6172 17.9669 13.4819C17.9241 13.3466 17.8419 13.2285 17.7317 13.1439L16.9595 12.5521C16.875 12.4883 16.8063 12.4046 16.759 12.3079C16.7117 12.2112 16.6871 12.1042 16.6872 11.9957C16.6874 11.8872 16.7122 11.7803 16.7598 11.6837C16.8073 11.5871 16.8762 11.5036 16.9608 11.44L17.729 10.8506C17.8402 10.7665 17.9231 10.6482 17.9662 10.5124C18.0092 10.3767 18.0101 10.2303 17.9688 10.094C17.6865 9.15294 17.2047 8.28965 16.5588 7.56773C16.4654 7.46397 16.3434 7.39285 16.2095 7.36417C16.0756 7.33549 15.9364 7.35067 15.8112 7.4076L14.9421 7.8049C14.8468 7.84806 14.7431 7.86731 14.6394 7.86111C14.5356 7.85491 14.4347 7.82342 14.3449 7.7692C14.255 7.71498 14.1786 7.63954 14.122 7.54899C14.0654 7.45844 14.0301 7.35531 14.0189 7.24794L13.9135 6.26397C13.8985 6.1216 13.8411 5.98766 13.7492 5.88089C13.6574 5.77412 13.5357 5.69986 13.4012 5.66848C12.9427 5.56157 12.4746 5.5051 12.0046 5.5C11.532 5.50583 11.0611 5.56229 10.5996 5.66848C10.465 5.69913 10.3431 5.773 10.2512 5.87962C10.1592 5.98624 10.1019 6.12022 10.0873 6.26258L9.98144 7.24747C9.96988 7.355 9.93424 7.45823 9.8774 7.54887C9.82055 7.63952 9.74406 7.71508 9.65407 7.76949C9.56407 7.8239 9.46307 7.85565 9.35914 7.8622C9.25522 7.86875 9.15126 7.84993 9.05559 7.80722L8.18647 7.40946C8.0611 7.3539 7.92234 7.33969 7.78895 7.36875C7.65556 7.3978 7.53396 7.46871 7.44061 7.57191C6.79469 8.29457 6.31248 9.15821 6.02929 10.0996C5.98912 10.2356 5.99058 10.3812 6.03346 10.5163C6.07635 10.6514 6.15853 10.7693 6.26867 10.8538L7.0391 11.4442C7.12302 11.5084 7.19125 11.5922 7.23827 11.6888C7.28529 11.7854 7.3098 11.8922 7.3098 12.0005C7.3098 12.1087 7.28529 12.2155 7.23827 12.3121C7.19125 12.4088 7.12302 12.4926 7.0391 12.5567L6.26867 13.1485C6.15817 13.2332 6.07578 13.3516 6.03296 13.4871C5.99014 13.6227 5.98901 13.7688 6.02973 13.905C6.31269 14.8471 6.79491 15.7114 7.44106 16.4346C7.50251 16.5032 7.57699 16.5578 7.65979 16.5949C7.74258 16.6321 7.83189 16.651 7.92207 16.6504C8.01273 16.6504 8.1025 16.6309 8.18602 16.5933L9.05917 16.1946C9.1544 16.1519 9.25796 16.1329 9.36152 16.1393C9.46508 16.1457 9.56576 16.1772 9.65546 16.2314C9.74516 16.2856 9.82138 16.3609 9.87799 16.4512C9.93461 16.5416 9.97004 16.6444 9.98144 16.7516L10.0864 17.7384C10.1019 17.8783 10.1584 18.0099 10.2483 18.1153C10.3382 18.2208 10.457 18.2945 10.5888 18.3273ZM13.0457 17.4617C12.3566 17.6091 11.6459 17.6091 10.9569 17.4617L10.8698 16.6541C10.8272 16.259 10.6459 15.8942 10.3606 15.6293C10.1374 15.4247 9.86293 15.29 9.56907 15.2407C9.27521 15.1914 8.97394 15.2296 8.70008 15.3508L7.98281 15.6757C7.51976 15.1254 7.16365 14.487 6.93414 13.796L7.57013 13.3077C7.76662 13.1572 7.92633 12.9609 8.03641 12.7345C8.14648 12.5081 8.20383 12.258 8.20383 12.0044C8.20383 11.7508 8.14648 11.5007 8.03641 11.2743C7.92633 11.0479 7.76662 10.8516 7.57013 10.7011L6.93548 10.2138C7.1652 9.52337 7.5213 8.88568 7.98415 8.33587L8.69874 8.66077C8.8957 8.75115 9.1087 8.79764 9.32401 8.79723C9.70743 8.79598 10.077 8.64832 10.3625 8.38235C10.648 8.11638 10.8295 7.75064 10.8724 7.35469L10.9591 6.54384C11.3048 6.47422 11.6558 6.43709 12.0073 6.43245C12.3566 6.43709 12.7049 6.47422 13.0479 6.54384L13.131 7.35144C13.1724 7.74765 13.3533 8.11397 13.6388 8.37997C13.8625 8.58536 14.1376 8.72057 14.4323 8.76986C14.7269 8.81916 15.029 8.78053 15.3034 8.65845L16.018 8.33355C16.4812 8.88342 16.8376 9.52127 17.0675 10.2119L16.432 10.6974C16.2345 10.8473 16.0738 11.0436 15.9631 11.2702C15.8523 11.4969 15.7946 11.7474 15.7946 12.0016C15.7946 12.2558 15.8523 12.5064 15.9631 12.733C16.0738 12.9596 16.2345 13.1559 16.432 13.3058L17.0671 13.7932C16.8365 14.4823 16.481 15.1192 16.0198 15.6692L15.3052 15.3443C15.0816 15.2409 14.8376 15.194 14.5931 15.2073C14.3487 15.2207 14.1108 15.2939 13.8988 15.4211C13.6869 15.5483 13.5069 15.7259 13.3736 15.9392C13.2403 16.1525 13.1575 16.3956 13.1319 16.6486L13.0457 17.4617Z" fill="#002E75"/>
</svg>
