<svg width="100" height="88" viewBox="0 0 100 88" fill="none" xmlns="http://www.w3.org/2000/svg">
<path d="M15.2676 6.3223L51.1661 6.34183L63.4141 6.33011C65.3584 6.32816 67.3028 6.33402 69.2471 6.31937C69.7559 6.31547 70.5596 6.63187 70.6211 7.18754C70.7569 8.41605 70.7081 9.72269 70.709 10.9668L70.7051 18.1631L70.7159 44.0752C77.1309 46.3682 79.379 48.17 84.2745 52.8721C85.5118 52.0088 87.0284 51.4825 88.5235 51.3203C90.9483 51.0684 93.3731 51.7969 95.2559 53.3448C97.1495 54.8828 98.4297 57.3389 98.67 59.753C99.2041 65.1094 95.6407 69.7354 90.2452 70.2461C89.1084 70.4834 87.253 69.9737 86.1631 69.625C84.9073 71.2666 83.4102 72.2012 81.3028 72.1045C77.0577 71.9092 74.3418 73.1026 72.0645 68.6055C70.5245 68.5645 68.8926 68.5928 67.3467 68.5948L61.8204 68.5899C61.0967 69.7276 60.2471 70.7012 59.0264 71.3242C58.4219 71.6319 57.7725 71.8418 57.1016 71.9453C56.2344 72.0781 54.8233 72.0352 53.8995 72.0352C53.1241 72.0352 51.8663 72.0616 51.1192 71.9922C50.7657 71.96 50.418 71.8887 50.0811 71.7784C48.3848 71.2149 47.5567 70.0244 46.7969 68.5225L32.2393 68.5147C32.2022 68.586 32.1641 68.6563 32.125 68.7266C31.2979 70.2237 30.3663 71.0909 28.6866 71.5889C27.75 71.8662 25.462 71.8633 24.5293 71.6651C23.9961 71.5498 23.4834 71.3535 23.0079 71.085C21.5001 70.2305 21.1309 69.1631 20.2803 67.791C20.1622 67.5996 20.1026 67.3692 20.044 67.1573C19.1358 67.1553 18.2276 67.1602 17.3184 67.1719C16.7334 67.1787 15.9883 67.2364 15.4278 67.1358C14.5684 66.9824 14.5655 66.1416 14.5606 65.4903L14.5752 23.6202L14.5801 11.3399C14.5821 10.6006 14.4874 7.41605 14.6651 6.91215C14.7725 6.60941 14.9864 6.45707 15.2657 6.3223H15.2676Z" fill="#002C6E"/>
<path d="M15.1349 6.90907C15.3487 6.787 15.5001 6.79872 15.7462 6.79775C20.0821 6.78993 24.421 6.79482 28.7569 6.79384L50.9405 6.78505H63.381C65.3243 6.78505 67.8126 6.70888 69.7003 6.80263C69.9386 6.97353 70.2081 7.16005 70.2257 7.4745C70.2833 8.51454 70.255 9.67275 70.254 10.7118L70.2511 17.7997L70.2589 43.9559C64.3546 42.4335 58.3663 43.1034 52.335 42.9413C51.4132 42.9169 50.4688 42.9559 49.5509 43.0419C47.9893 43.2011 46.4434 43.4921 44.9317 43.913C41.8302 44.7558 39.67 46.0028 36.9532 47.5702C36.9015 47.6102 36.7843 47.7118 36.7315 47.7313C34.4434 49.3739 33.2403 50.4218 31.3087 52.3798C30.6114 52.5018 30.0577 52.6776 29.3878 52.8895C29.1651 52.9599 28.5724 53.1591 28.3809 53.1815C28.2227 53.2616 28.1505 53.3026 27.9767 53.3515C20.588 56.369 19.7423 58.9179 19.9913 66.7157L17.172 66.7186C16.5753 66.7216 15.5977 66.8524 15.1358 66.4774C15.0421 66.4022 14.9112 66.2802 14.9063 66.1513C14.8907 65.7392 14.8936 65.3251 14.8936 64.912V61.9745C14.8966 58.2128 14.8741 54.3466 14.9376 50.5888C14.921 50.0165 14.9161 49.2811 14.9464 48.7128C14.9181 48.0038 14.9317 47.2011 14.9415 46.4892L14.9288 46.3475C14.8878 45.7577 14.9112 44.8456 14.9083 44.2372C14.8927 42.955 14.8995 41.6718 14.9288 40.3895C14.9249 40.2489 14.9347 40.0595 14.9376 39.9149C14.9308 38.7636 14.8546 36.6425 14.9376 35.5741C14.8653 34.16 14.9063 31.7108 14.9395 30.2665C14.877 29.1268 14.9356 27.3778 14.9337 26.1796L14.9444 17.0565L14.9415 10.5673C14.9395 9.48427 14.9278 8.36708 14.9532 7.2831C14.9571 7.13466 15.047 7.01943 15.1368 6.90712L15.1349 6.90907Z" fill="#FBFCFF"/>
<path d="M14.9376 30.2695C14.8751 29.1299 14.9337 27.3809 14.9317 26.1826L14.9424 17.0596L14.9395 10.5703C14.9376 9.4873 14.9258 8.37012 14.9512 7.28613C14.9551 7.1377 15.045 7.02246 15.1348 6.91016C15.0342 9.22559 15.1299 11.9688 15.1329 14.3311L15.1309 30.0635L15.1348 35.9541C15.1348 36.8955 15.1622 38.0137 15.127 38.9443C15.1397 39.6699 15.1426 40.3955 15.1358 41.1201C15.088 41.2627 15.0938 41.415 15.0147 41.5244C14.9503 41.2529 14.9415 40.6953 14.9268 40.3936C14.9229 40.2529 14.9327 40.0635 14.9356 39.9189C14.9288 38.7676 14.8526 36.6465 14.9356 35.5781C14.8633 34.1641 14.9044 31.7148 14.9376 30.2705V30.2695Z" fill="#002C6E"/>
<path d="M14.9376 30.2695L14.962 30.2031C15.0499 29.9521 15.0694 29.9043 15.0596 29.627C15.1505 29.8428 15.0294 35.3125 14.9356 35.5762C14.8633 34.1621 14.9044 31.7129 14.9376 30.2686V30.2695Z" fill="#002C6E"/>
<path d="M14.9268 40.3916C14.9405 40.6943 14.9503 41.251 15.0147 41.5225C15.0948 41.4141 15.089 41.2617 15.1358 41.1182V66.4775C15.0411 66.4023 14.9102 66.2803 14.9054 66.1514C14.8897 65.7393 14.8927 65.3252 14.8927 64.9121V61.9746C14.8956 58.2129 14.8731 54.3467 14.9366 50.5889C14.92 50.0166 14.9151 49.2813 14.9454 48.7129C14.9171 48.0039 14.9308 47.2012 14.9405 46.4893L14.9278 46.3477C14.8868 45.7578 14.9102 44.8457 14.9073 44.2373C14.8917 42.9551 14.8985 41.6719 14.9278 40.3896L14.9268 40.3916Z" fill="#002C6E"/>
<path d="M14.9268 46.3496C14.9404 46.0762 14.9687 45.3115 15.0234 45.0732C15.0059 45.2939 15.0186 45.0283 15.0322 45.1797C15.085 45.7539 15.1562 46.4844 15.0937 47.0527L15.042 47.0772C14.9355 46.8467 15.0137 46.709 14.9404 46.4902L14.9277 46.3486L14.9268 46.3496Z" fill="#002C6E"/>
<path d="M36.7295 47.7324C36.3428 47.6962 35.6963 47.7138 35.2939 47.7148H32.7783L24.5781 47.705L22.2559 47.7099C21.9326 47.7099 21.2236 47.7324 20.9414 47.6787L20.9297 47.6269C21.209 47.5253 23.2969 47.5732 23.7461 47.5703C28.1465 47.5419 32.5537 47.6152 36.9531 47.5703C36.9014 47.6103 36.7842 47.7119 36.7314 47.7314L36.7295 47.7324Z" fill="#002C6E"/>
<path d="M27.9746 53.3523C27.6914 53.239 27.1045 53.3074 26.8369 53.2849C26.2266 53.2332 21.0156 53.3806 20.8594 53.197C21.0986 53.0935 21.6689 53.1385 21.957 53.1394H24.123L26.7285 53.1424C27.1816 53.1424 27.9512 53.1267 28.3799 53.1824C28.2217 53.2625 28.1494 53.3035 27.9756 53.3523H27.9746Z" fill="#002C6E"/>
<path d="M25.7157 11.0908C28.7802 10.8389 31.4687 13.1172 31.7226 16.1816C31.9774 19.2461 29.7011 21.9365 26.6366 22.1924C23.5692 22.4492 20.8759 20.1699 20.621 17.1025C20.3661 14.0352 22.6483 11.3428 25.7157 11.0908Z" fill="#FFB700"/>
<path d="M28.0107 14.0059C28.3467 14.209 29.0352 14.7334 29.4014 14.9854C28.1865 16.4062 27.0039 17.8545 25.8555 19.3291C25.4053 18.9375 24.7451 18.5049 24.2451 18.1592L22.709 17.1289C23.0537 16.7939 23.5078 16.1846 23.834 15.9551C24.4355 16.3535 24.8311 16.6602 25.4707 17.0195C26.2793 16.168 27.2305 14.915 28.0117 14.0059H28.0107Z" fill="#FBFCFF"/>
<path d="M29.7119 28.6163C30.7276 28.4561 31.6807 29.1495 31.8428 30.1641C32.0049 31.1788 31.3135 32.1338 30.2979 32.2969C29.2803 32.46 28.3233 31.7676 28.1612 30.7501C27.999 29.7325 28.6944 28.7764 29.7119 28.6163Z" fill="#002C6E"/>
<path d="M29.712 29.0683C30.0118 29.0527 30.2608 29.0361 30.5421 29.1601C30.8692 29.3027 31.1251 29.5713 31.2511 29.9052C31.3936 30.2822 31.3819 30.7011 31.2188 31.0693C31.0255 31.499 30.7345 31.6855 30.3145 31.8408C28.3722 32.039 28.0763 29.5957 29.712 29.0683Z" fill="#FBFCFF"/>
<path d="M25.7186 28.6104C26.743 28.4815 27.6746 29.213 27.7937 30.2384C27.9129 31.2638 27.1727 32.1895 26.1463 32.2989C25.1336 32.4073 24.2225 31.6788 24.1053 30.6671C23.9881 29.6554 24.7078 28.7374 25.7186 28.6104Z" fill="#002C6E"/>
<path d="M25.7158 29.0682C25.9912 29.0565 26.2226 29.0477 26.4824 29.1561C26.8271 29.3006 27.0937 29.5858 27.2168 29.9383C27.5215 30.7928 27.084 31.5614 26.248 31.8494C24.5107 32.1463 23.9082 29.6004 25.7158 29.0682Z" fill="#FBFCFF"/>
<path d="M20.9316 28.5839C21.5137 28.5839 22.8438 28.4696 23.2656 28.9296C23.7354 29.4423 23.5508 29.9169 23.0654 30.3339C23.6797 30.7225 23.832 30.9501 23.6621 31.6767C23.1885 32.4882 21.7959 32.245 20.9434 32.245L20.9316 28.5839Z" fill="#002C6E"/>
<path d="M21.4404 30.5928C22.0781 30.5831 23.8662 30.5362 23.0605 31.6915C22.5664 31.9014 21.9766 31.8477 21.4365 31.8409L21.4395 30.5928H21.4404Z" fill="#FBFCFF"/>
<path d="M21.4355 29.0146C22.1025 29.0166 23.4961 28.9199 22.8535 30.0195C22.4619 30.2744 21.9072 30.2099 21.4355 30.2031V29.0146Z" fill="#FBFCFF"/>
<path d="M20.792 36.6542C20.9219 36.6474 21.0527 36.6435 21.1826 36.6396C25.2852 36.5458 64.3584 36.7187 64.3799 36.7294C64.4189 36.749 64.4434 36.7909 64.4756 36.8212C63.2529 36.8564 61.9404 36.8329 60.7129 36.832L54.1602 36.8241L33.1543 36.7792L24.2305 36.7822C23.8008 36.7822 21.0889 36.8066 20.833 36.747L20.791 36.6542H20.792Z" fill="#002C6E"/>
<path d="M20.6445 23.7654C20.9395 23.7205 21.7734 23.739 22.1123 23.739H24.8633L34.8506 23.7439L54.6885 23.74L61.2471 23.7429C62.2158 23.7429 63.1924 23.7498 64.1611 23.7341C64.3633 23.7312 64.374 23.7322 64.4775 23.8357C62.2285 23.8894 59.8135 23.8455 57.5479 23.8455H44.2295L28.877 23.8582C26.2656 23.8601 23.6514 23.865 21.04 23.863C20.8545 23.863 20.791 23.8708 20.6455 23.7644L20.6445 23.7654Z" fill="#002C6E"/>
<path d="M39.4414 31.2598C39.4483 30.5928 39.4199 29.499 39.4658 28.8076C39.4727 28.708 39.586 28.6123 39.6914 28.5674C39.8184 28.582 39.7764 28.5518 39.8487 28.623C39.96 29.0801 39.8994 31.5869 39.8936 32.2266C39.7803 32.2305 39.6787 32.2275 39.5655 32.2266C39.5293 32.2051 37.7832 29.8994 37.5147 29.585C37.5049 30.3525 37.5137 31.1318 37.5108 31.8994C37.5108 32.0674 37.4385 32.1377 37.3272 32.2275C37.1504 32.2275 37.2295 32.252 37.084 32.1514C36.9961 31.4521 37.0567 29.4072 37.0606 28.625C37.1289 28.6191 37.416 28.5977 37.4512 28.6484C38.0801 29.5557 38.7412 30.4053 39.4414 31.2598Z" fill="#002C6E"/>
<path d="M42.1777 28.5871C42.8467 28.5266 43.1777 28.6887 43.7021 29.052C43.5761 29.1789 43.497 29.2883 43.3301 29.3371C43.164 29.3283 43.0254 29.1877 42.8867 29.0793C42.8008 29.0656 42.7148 29.0539 42.6289 29.0441C40.6592 28.8147 40.6006 31.8879 42.5058 31.8449C43.3349 31.8264 43.2373 31.4992 43.2148 30.8166L42.3593 30.8234C42.3496 30.6672 42.3349 30.6125 42.3926 30.465C42.6386 30.2414 43.3047 30.3508 43.6699 30.3664C43.6777 30.8713 43.6728 31.3762 43.6543 31.8811C43.4394 32.0109 43.2558 32.1037 43.0156 32.1809C42.5195 32.3449 41.9785 32.298 41.5185 32.05C40.1025 31.2736 40.331 28.9738 42.1787 28.5871H42.1777Z" fill="#002C6E"/>
<path d="M34.7178 18.2969C40.2656 18.2129 45.9873 18.2793 51.5469 18.2793L60.0195 18.2822C60.4853 18.2822 64.3066 18.2334 64.4912 18.3594L64.4473 18.4219L43.5059 18.4199L37.0908 18.418C36.7803 18.418 34.8242 18.4854 34.6855 18.3848L34.7178 18.2969Z" fill="#002C6E"/>
<path d="M32.8633 30.546C33.4141 30.0333 33.8984 29.5401 34.3516 28.9337C34.4697 28.7755 34.9414 28.5596 35.1484 28.6329C35.127 28.88 33.9902 30.0391 33.7471 30.2921C34.0068 30.627 34.294 30.9669 34.5645 31.296C34.7266 31.4815 35.2441 32.0177 35.249 32.2208C35.0391 32.2569 35.0332 32.254 34.8184 32.2384C34.5547 32.1036 33.6904 30.9473 33.4385 30.626C33.2119 30.8516 33.1289 30.9356 32.8643 31.1202C32.8574 31.4874 32.9727 31.9708 32.7588 32.2159C32.6152 32.2794 32.6231 32.2706 32.4668 32.2393C32.3594 31.9649 32.4199 29.129 32.4238 28.6231C32.5723 28.6231 32.7256 28.6016 32.8408 28.6798C32.8906 29.0538 32.8643 30.1143 32.8623 30.546H32.8633Z" fill="#002C6E"/>
<path d="M34.5264 12.6329C34.8437 12.5607 36.2158 12.5949 36.6201 12.5958L40.9268 12.6017H58.877C59.5449 12.6017 64.2627 12.5451 64.5791 12.6837C64.1338 12.7433 62.835 12.7111 62.3223 12.7111H57.8535H42.3145H37.3037C36.8799 12.7111 34.7637 12.7579 34.5254 12.6349L34.5264 12.6329Z" fill="#002C6E"/>
<path d="M20.7539 42.125C21.0879 42.0518 22.7168 42.0801 23.1318 42.0801L28.293 42.083L40.6797 42.0967C42.8545 42.0986 45.0352 42.0967 47.21 42.1055C47.3682 42.1055 47.4072 42.1026 47.541 42.1758C47.1602 42.2471 45.9053 42.2149 45.4395 42.2139L41.2402 42.207L25.4209 42.1983C24.8047 42.1983 20.9902 42.2451 20.7549 42.126L20.7539 42.125Z" fill="#002C6E"/>
<path d="M35.6947 28.6164C35.8646 28.6115 36.0179 28.5842 36.1605 28.6633C36.2357 29.4065 36.181 31.4045 36.1791 32.2375C36.0013 32.2434 35.8783 32.2688 35.7259 32.1838C35.6693 31.8381 35.6937 31.2678 35.6937 30.8938V28.6164H35.6947Z" fill="#002C6E"/>
<path d="M32.1192 52.1904C32.7266 51.5693 33.3624 50.9746 34.0225 50.4101C38.292 46.7265 43.6973 44.0859 49.3506 43.5214C51.3125 43.3252 54.0909 43.4033 56.1465 43.4169C58.6534 43.4326 61.7461 43.3437 64.2042 43.5224C69.6475 43.499 75.7911 46.0976 79.9346 49.5175C81.209 50.5693 82.668 51.9599 83.8614 53.124C83.6612 53.2939 83.4336 53.4785 83.2413 53.6543C81.6954 55.2148 81.1016 56.2275 80.462 58.3183C79.8985 58.5361 79.7393 58.6201 79.2696 58.9951C79.253 58.2568 79.2022 54.8613 78.7627 54.3964C78.5948 54.3447 78.6768 54.3457 78.5088 54.3916C78.4532 54.4726 78.3946 54.5429 78.4151 54.6484C79.0831 57.9492 78.667 61.2392 78.2793 64.5478C78.1465 65.6806 78.0381 66.9794 77.7647 68.1201H62.0586C62.1055 68.0078 62.1504 67.8964 62.1934 67.7832C63.6163 64.1308 62.4288 59.2197 58.5264 57.7246C57.1934 57.2099 55.709 57.2587 54.4131 57.8603C50.6768 59.5732 49.586 64.5332 51.2442 68.0683C49.2208 68.1123 47.0606 68.0732 45.0206 68.0732L33.8067 68.0576C29.6065 68.0341 25.2461 68.1064 21.0665 68.0234C20.9346 67.9052 20.8145 67.7929 20.7325 67.6337C20.2588 66.7158 20.3721 62.8984 20.5167 61.7539C20.6055 61.0478 20.7696 60.3662 20.9766 59.6865C22.7872 60.3837 24.9717 60.7158 26.9239 60.6855C28.1211 60.6669 29.002 59.9755 29.7754 59.1064C32.5704 59.0625 35.7979 59.0791 38.584 59.1503C38.9561 59.6464 39.7178 60.4121 40.3731 60.4492C42.4825 60.5712 44.8067 60.7998 46.9014 60.6181C48.917 60.3359 50.3663 58.0332 51.0489 56.3105C51.2666 55.7607 50.6475 55.5156 50.2022 55.5205C47.2403 55.5537 40.7501 56.7421 38.5909 58.6894L29.9092 58.6767C28.8262 57.1953 25.7862 56.3252 24.0635 55.8798C26.418 54.2695 28.9415 53.4111 31.6993 52.7548C33.3487 52.3623 34.294 52.3544 35.9668 52.3525L39.5098 52.3505L47.6172 52.332C48.504 52.3291 50.8477 52.4502 51.5508 52.1533C52.5147 51.747 53.8438 50.0888 54.6778 49.3105C55.4366 48.6025 56.1368 47.8886 56.9688 47.2236C57.8233 46.5537 58.7168 45.9355 59.6456 45.372C59.9131 45.2099 60.5293 44.956 60.626 44.8759C60.6514 44.7021 60.6729 44.7744 60.5918 44.6464C60.3389 44.5341 56.0811 44.5468 55.5245 44.5439C54.043 44.5371 52.5547 44.5136 51.0762 44.6171C45.7471 44.9882 41.6124 46.7773 37.129 49.5761C36.0918 50.2236 34.3106 51.5712 33.2823 51.9462C32.917 52.08 32.5069 52.125 32.1241 52.1865L32.1192 52.1904Z" fill="#FFB700"/>
<path d="M64.2031 43.5226C69.6465 43.4992 75.79 46.0978 79.9336 49.5177C81.208 50.5695 82.667 51.9601 83.8603 53.1242C83.6602 53.2941 83.4326 53.4787 83.2402 53.6545C83.0713 53.4621 83.0176 53.4074 82.9014 53.1818C82.46 53.3234 78.3975 53.1154 77.7266 53.09L70.0156 52.8205L53.8779 52.507C54.334 51.9992 54.9941 51.341 55.4873 50.8488C57.8994 48.4406 60.8242 45.8849 64.2842 45.2795C65.2705 45.1066 66.1348 45.1515 67.1104 45.1447C66.623 44.7843 65.8437 44.342 65.3154 44.0617C64.9512 43.8693 64.5664 43.7502 64.2031 43.5226Z" fill="#002C6E"/>
<path d="M64.2031 43.5226C69.6465 43.4992 75.79 46.0978 79.9336 49.5177C81.208 50.5695 82.667 51.9601 83.8603 53.1242C83.6602 53.2941 83.4326 53.4787 83.2402 53.6545C83.0713 53.4621 83.0176 53.4074 82.9014 53.1818C82.5508 52.7531 81.4248 51.7619 80.9795 51.3771C77.0703 47.9796 72.2461 45.8127 67.1104 45.1457C66.623 44.7853 65.8438 44.3429 65.3154 44.0627C64.9512 43.8703 64.5664 43.7511 64.2031 43.5236V43.5226Z" fill="#FBFCFF"/>
<path d="M24.0635 61.6023C25.1943 61.5681 26.501 61.5994 27.6416 61.6023L34.5186 61.6111L40.4961 61.6003C41.5801 61.5984 42.6621 61.6062 43.75 61.6091C45.291 61.613 46.3369 62.6404 46.9004 64.0027C47.083 64.4441 47.3545 65.4558 47.1572 65.906C46.9395 66.116 45.7998 66.0359 45.4346 66.03H22.1729C22.1826 64.8816 22.127 63.1042 22.8564 62.158C23.1934 61.7214 23.5615 61.6443 24.0635 61.6033V61.6023Z" fill="#002C6E"/>
<path d="M24.0157 62.0447C25.4864 61.991 27.2032 62.0281 28.6944 62.035L35.8399 62.0447H41.1944C42.1319 62.0457 43.1173 62.0291 44.0499 62.0779C44.5147 62.1023 44.88 62.2371 45.2393 62.5311C46.2676 63.3709 46.6251 64.3348 46.8028 65.5857H45.5313L22.6719 65.574C22.6524 64.6785 22.6739 63.1805 23.2247 62.4471C23.4503 62.1473 23.6661 62.0877 24.0157 62.0438V62.0447Z" fill="#FBFCFF"/>
<path d="M69.6944 54.1865L69.9219 54.2012C70.2432 54.4375 70.3253 55.6006 70.3799 56.0352C70.7403 58.9404 70.7198 61.8809 70.3184 64.7812C70.2237 65.4551 70.0762 66.3926 69.8331 67.0088C69.6514 67.0029 69.6407 66.9697 69.544 66.873C69.4649 66.5869 69.5665 66.2402 69.6319 65.9551C69.9385 64.6045 70.0635 63.1807 70.1309 61.8018C70.1983 60.1621 70.1573 58.5205 70.0089 56.8867C69.9639 56.3721 69.6495 54.5049 69.6944 54.1865Z" fill="#002C6E"/>
<path d="M88.8268 51.8612C93.7487 51.5077 98.0241 55.2118 98.3766 60.1327C98.7282 65.0546 95.0231 69.329 90.1022 69.6806C85.1823 70.0311 80.9098 66.328 80.5573 61.4081C80.2057 56.4882 83.9069 52.2147 88.8268 51.8612Z" fill="#12A156"/>
<path d="M92.337 56.6016C92.8527 56.6641 93.0275 56.8848 93.4103 57.1758C95.1847 58.5234 94.6212 58.5527 93.5695 60.0283C92.2531 61.8887 90.9318 63.7275 89.6486 65.6133C88.8868 66.7324 88.1886 65.8486 87.4445 65.2187C87.0323 64.8691 86.6368 64.5098 86.215 64.168C85.5929 63.6533 84.4113 62.8252 84.0382 62.2178C83.8361 61.8896 85.2823 59.3203 86.0636 59.8643C86.8693 60.4258 87.6818 61.1611 88.4445 61.7549C89.2023 60.71 89.9523 59.6592 90.6935 58.6035C91.0753 58.0615 91.799 56.8809 92.337 56.6025V56.6016Z" fill="#FBFCFF"/>
<path d="M56.297 57.8439C57.4571 57.7805 58.6036 58.1203 59.5421 58.8068C63.9767 62.0373 62.9884 70.5402 57.0431 71.3928C53.6495 71.676 51.3849 68.5773 51.0421 65.4699C50.6681 62.0803 52.588 58.1916 56.297 57.8439Z" fill="#FBFCFF"/>
<path d="M56.5236 60.625C60.7238 60.6162 61.2004 67.9453 56.9738 68.7207C52.3811 68.8193 52.2365 61.1133 56.5236 60.625Z" fill="#002C6E"/>
<path d="M56.1837 61.1065C56.7023 61.0713 57.1466 61.0547 57.628 61.3008C59.4308 62.2217 59.8683 64.8448 59.0401 66.5538C58.631 67.3995 58.0343 67.9337 57.1651 68.2335C56.6524 68.3428 56.1173 68.2735 55.6505 68.0362C53.1798 66.7803 53.2823 61.9717 56.1837 61.1065Z" fill="#FBFCFF"/>
<path d="M49.458 55.989C49.7334 55.9421 50.4795 55.8738 50.5938 56.1794C50.4873 57.1277 49.0713 58.8523 48.3291 59.4587C47.9317 59.783 47.4942 60.0242 46.9922 60.1404C45.794 60.4177 41.9102 60.1208 40.5381 59.9783C40.0879 59.8855 38.9561 59.3464 39.1328 58.8142C39.4805 58.491 40.2393 58.1951 40.6983 58.0056C43.6055 56.8025 46.3496 56.2751 49.458 55.989Z" fill="#FBFCFF"/>
<path d="M80.2803 58.8906C80.3818 59.04 80.2656 59.6309 80.249 59.8613C80.2285 60.1514 80.2217 60.3906 80.2324 60.6836C78.9053 62.4307 79.2705 65.6191 80.4629 67.3516C81.2402 68.4805 82.6611 69.1797 83.9033 68.3066C84.6455 68.8701 84.9277 69.0293 85.7559 69.4297C85.3701 69.9678 84.9658 70.2578 84.4209 70.6172C84.3809 70.6406 84.3398 70.6631 84.2988 70.6846C81.9121 71.9502 79.2891 70.7158 78.0977 68.4404C78.4707 67.6699 78.5791 65.9863 78.6807 65.1016L79.2598 59.6602C79.5801 59.3086 79.875 59.1309 80.2803 58.8916V58.8906Z" fill="#FBFCFF"/>
<path d="M23.5684 56.25C23.7354 56.25 24.3301 56.4199 24.5107 56.4687C26.0186 56.874 28.252 57.666 29.3789 58.7168C28.9199 59.5107 27.9668 60.1016 27.0625 60.2178C25.3877 60.2578 22.665 59.9189 21.1309 59.2344C21.6855 57.9941 22.4395 57.0088 23.5684 56.251V56.25Z" fill="#FBFCFF"/>
<path d="M80.2343 61.6152C80.3075 61.8467 80.3935 62.6035 80.456 62.8994C80.6474 63.8115 81.0009 64.6729 81.4501 65.4854C81.79 66.1016 82.2011 66.6758 82.6747 67.1963C82.8456 67.3838 83.4072 67.8779 83.455 68.0195C83.3398 68.167 83.2968 68.1377 83.0761 68.207C80.0605 68.459 79.3339 63.7656 80.2343 61.6143V61.6152Z" fill="#FBFCFF"/>
</svg>
