<svg width="100" height="78" viewBox="0 0 100 78" fill="none" xmlns="http://www.w3.org/2000/svg">
<path d="M9.03427 51.7043C8.75888 51.4807 8.1163 50.1662 7.93856 49.7892C5.73349 45.1232 5.25985 38.923 6.00985 33.8557C6.38388 31.4846 6.98446 29.1555 7.80185 26.8986C8.43075 25.1496 9.56063 22.9309 10.5235 21.3478C14.2218 15.2121 19.6544 10.3098 26.1358 7.25898C34.5636 3.29608 44.4308 3.07343 53.1583 6.21894C62.5831 9.71015 70.1114 16.9924 73.9151 26.2951C74.5645 27.8898 75.0772 29.4357 75.4786 31.1135C75.5479 31.4016 75.7726 32.9377 75.8331 33.0168C77.3009 32.134 78.3526 31.5568 80.085 31.2228C80.6515 31.1164 81.2257 31.0529 81.8018 31.0305C82.962 30.9826 84.3057 31.01 85.4757 31.0109L91.6876 31.0187C92.0499 31.0187 94.8145 30.9855 94.9669 31.0803L94.963 31.1984C94.8448 31.2814 93.627 31.2453 93.4024 31.2443L86.047 31.2336C81.2745 31.2297 78.5235 30.8273 74.6339 34.3078C77.046 34.34 79.4581 34.3517 81.8702 34.3449C83.0118 34.3449 84.2325 34.3039 85.3663 34.3947C85.838 34.4328 86.5714 35.049 86.5723 35.5549C86.6163 36.1594 86.6104 36.7521 86.6065 37.3576L86.589 40.173C86.5841 41.2512 86.587 42.3303 86.5977 43.4094C86.6026 44.1223 86.6446 44.8967 86.5548 45.6047C86.505 45.9904 86.4015 46.1848 86.1124 46.4494C85.9024 46.6437 85.6417 46.7736 85.3595 46.8234C84.9473 46.8928 84.2374 46.8713 83.7931 46.8713H81.1739H70.7325L67.2364 46.8752C65.8399 46.8791 64.3946 46.8195 63.0411 47.175C61.2843 47.6369 59.3624 48.842 58.1065 50.1437C59.5138 50.3039 61.4093 49.8088 62.4298 51.051C63.2393 52.0363 63.4513 54.1066 63.3966 55.3488C63.2989 57.5432 60.4737 57.2932 58.9181 57.2941C57.6475 57.2892 56.3761 57.3029 55.1056 57.3361C55.0802 57.8488 55.0675 58.3615 55.0655 58.8752C54.5069 58.9064 53.9903 58.885 53.4317 58.8684C53.5069 60.4934 53.5743 62.4309 53.7091 64.0383C54.1524 64.0373 54.6417 64.0246 55.0811 64.0392C55.4796 64.4738 55.6358 64.591 56.2657 64.6008C57.3438 64.6174 58.4317 64.6066 59.5098 64.6047L65.7589 64.6154C66.0391 62.5256 66.7579 60.9211 68.4767 59.6027C69.9054 58.5158 71.7081 58.0412 73.4874 58.2844C75.2647 58.5256 76.8692 59.4728 77.9395 60.9123C78.8223 62.0969 79.1104 63.1701 79.2472 64.6096L89.3868 64.6164L92.7296 64.6232C93.1817 64.6242 94.4884 64.5666 94.8468 64.7228L94.8223 64.7756C94.294 64.925 91.3438 64.8439 90.587 64.8527C86.8331 64.8976 83.004 64.7853 79.255 64.8391C79.1104 66.8889 78.5089 68.5363 76.9112 69.9221C75.5616 71.0891 73.8057 71.675 72.0255 71.5539C70.21 71.4367 68.5216 70.5812 67.3526 69.1867C66.2862 67.9318 65.7667 66.4787 65.7686 64.8391C62.4727 64.76 59.0352 64.9338 55.7374 64.7678C55.4854 64.7551 55.1202 64.4436 54.9454 64.2629C54.5352 64.2639 54.1192 64.2609 53.7091 64.2678L54.0177 69.8947C54.6944 70.0959 56.96 70.8693 57.1515 71.5353C57.1095 71.6506 57.1065 71.675 56.9835 71.7238C56.5245 71.9055 51.5616 71.798 50.6632 71.7961C50.1925 71.5305 50.0216 71.3898 49.8858 70.8459C49.5304 69.423 49.3155 67.9357 49.089 66.4875L47.9815 59.4562C47.8175 58.383 47.6407 56.7961 47.4288 55.7814C46.9649 57.3517 46.5518 58.9963 46.1358 60.5861C45.3214 63.6965 44.5382 66.8156 43.7843 69.9416C44.3341 70.2228 46.8438 71.2648 46.5216 71.965C46.1026 72.2473 44.588 71.9377 44.044 71.8596C42.7384 71.673 41.4268 71.4436 40.1222 71.2404C40.047 71.2287 39.9552 71.1994 39.8819 71.1779C39.5069 70.8127 39.2765 70.4875 39.2979 69.9367C39.335 68.9641 39.4542 67.9338 39.5518 66.9631L40.1798 61.0549C40.503 57.9182 40.8585 54.7853 41.2462 51.6564C41.3946 50.4055 41.5206 48.7268 41.7267 47.5266C41.8038 47.0715 41.9337 46.6271 42.1124 46.2014C40.9718 46.6789 40.4278 46.7434 39.1827 46.8059C39.4405 48.2512 39.5655 49.7238 39.7735 51.1828C39.9308 52.2824 40.0099 53.4875 38.835 54.0881C38.3849 54.3186 37.8643 54.2668 37.3966 54.4514C37.5841 55.0539 36.8966 55.4465 36.4229 55.1652C36.1251 54.9885 36.2081 54.6428 35.8194 54.6965C34.0323 54.9445 32.2638 55.3322 30.4864 55.6369C30.2081 55.6848 29.5987 55.757 29.379 55.8713L29.3858 55.9348C29.4034 56.1232 29.4229 56.4631 29.2491 56.5646C28.63 56.925 28.2755 56.6467 28.1124 56.0881C27.5255 56.1838 26.9474 56.3547 26.4366 55.9787C26.2638 55.8547 26.127 55.6867 26.0401 55.4924C25.8731 55.1115 25.7667 54.3225 25.6778 53.8996C25.4561 52.84 25.3009 51.6789 25.0352 50.633C24.7569 53.8478 24.588 57.2082 24.3497 60.4504C24.1934 62.5314 24.0479 64.6125 23.9142 66.6955C23.8321 67.8625 23.7081 69.0959 23.6622 70.259C24.3595 70.4455 26.1407 70.8811 26.2608 71.7453C26.2208 71.8352 26.2384 71.8498 26.1388 71.8879C25.7979 72.0197 20.9727 72.0148 20.3292 71.9533L20.254 71.8742L20.2667 71.7902C20.6768 71.6349 25.2257 71.7805 26.1007 71.7121C24.6583 70.1154 21.6397 70.4162 19.6368 70.4523L19.7179 71.0236C19.9337 71.2687 20.2052 71.5002 20.2042 71.8186L20.1456 71.9357C19.6388 71.9797 19.0997 71.9768 18.587 71.9699C17.214 71.9514 15.8263 72.0256 14.4571 71.9514C14.211 71.9377 14.0069 71.5891 13.8858 71.3986C12.2481 71.3644 10.6095 71.3527 8.97079 71.3625C8.54501 71.3625 6.41708 71.4221 6.1788 71.2717C6.5997 71.0246 11.9727 71.173 12.7862 71.1603C13.0313 71.1643 13.2843 71.1721 13.5284 71.1691C13.6798 71.1721 13.6964 71.175 13.8429 71.1457C13.9776 70.9758 13.9434 70.7853 13.9542 70.5402C13.796 70.7687 13.7491 70.8518 13.5313 71.0305C13.2433 71.0842 13.1212 71.0773 12.837 71.0275C12.8018 71.009 12.7667 70.9904 12.7315 70.9709C12.3526 70.7551 12.2774 70.5314 12.1671 70.134C12.1573 70.0607 12.1495 70.0646 12.1153 69.9953C12.0782 69.9855 11.9796 69.9592 11.9454 69.9621C11.5343 69.9943 8.96103 69.8781 8.78134 70.0344C8.71298 70.5129 8.50497 70.9143 7.98935 71.0168C7.72372 71.0686 7.44931 71.0129 7.2247 70.8625C6.86044 70.6213 6.81845 70.3762 6.73251 69.9855C5.4747 69.965 4.80087 69.0012 4.86728 67.8225C4.91903 66.9045 4.95224 65.9689 4.9952 65.049L5.16317 60.9611C5.2452 59.2346 5.30185 57.4816 5.41903 55.758C5.47274 55.3605 5.53427 54.8478 5.71591 54.4934C6.3497 53.258 7.16122 52.5842 8.53427 52.3273L8.84579 52.2443L8.96981 52.2482C9.01278 52.0461 9.0206 51.9133 9.03622 51.7053L9.03427 51.7043Z" fill="#D9E4F8"/>
<path d="M47.2306 27.7578C45.7677 25.5371 45.4698 24.4629 48.1319 23.21C48.6417 22.9707 49.3683 22.3594 49.9425 22.3613C50.4444 22.665 49.9845 23.5918 49.7931 23.9736C50.5138 24.6729 50.6309 25.4395 50.8497 26.374C51.1231 27.5439 50.4649 27.9121 49.4903 28.125C49.5401 28.669 49.5987 29.0723 49.754 29.5947C49.8624 29.6553 49.9688 29.7178 50.0743 29.7822C51.4386 30.6367 51.6241 33.0342 51.9767 34.5479C52.7335 34.1387 53.5128 33.7744 54.2891 33.4023C54.5626 33.9883 54.9845 34.709 55.3058 35.2813L56.7843 37.9521C57.1378 38.585 57.5802 39.3311 57.8927 39.9727C57.5606 40.1602 57.1778 40.334 56.8233 40.5322L57.1212 41.2373C56.5089 41.5879 53.4747 42.9258 53.2599 43.2578C53.0392 43.5996 52.8995 43.6748 52.5372 43.8398C52.7169 45.4189 52.7882 47.5918 52.8819 49.2334L53.4239 58.6611L54.8243 58.6758C54.8839 55.2529 55.3292 52.5889 57.8995 50.0107C58.6817 49.2295 59.5626 48.5537 60.5196 48C63.3175 46.3936 65.3849 46.666 68.4708 46.6523C68.7091 46.0859 68.9464 45.3633 69.1632 44.7734L70.7569 40.4063C72.0714 36.8379 72.7296 35.4199 75.8341 33.0156C77.3018 32.1328 78.3536 31.5557 80.086 31.2217C80.6524 31.1152 81.2266 31.0518 81.8028 31.0293C82.963 30.9815 84.3067 31.0088 85.4767 31.0098L91.6886 31.0176C92.0509 31.0176 94.8155 30.9844 94.9679 31.0791L94.964 31.1973C94.8458 31.2803 93.628 31.2441 93.4034 31.2432L86.0479 31.2324C81.2755 31.2285 78.5245 30.8262 74.6349 34.3066C77.047 34.3389 79.4591 34.3506 81.8712 34.3438C83.0128 34.3438 84.2335 34.3027 85.3673 34.3936C85.839 34.4316 86.5724 35.0479 86.5733 35.5537C86.6173 36.1582 86.6114 36.751 86.6075 37.3564L86.5899 40.1719C86.5851 41.25 86.588 42.3291 86.5987 43.4082C86.6036 44.1211 86.6456 44.8955 86.5558 45.6035C86.506 45.9893 86.4024 46.1836 86.1134 46.4482C85.9034 46.6426 85.6427 46.7725 85.3604 46.8223C84.9483 46.8916 84.2384 46.8701 83.794 46.8701H81.1749H70.7335L67.2374 46.874C65.8409 46.8779 64.3956 46.8184 63.0421 47.1738C61.2852 47.6357 59.3634 48.8408 58.1075 50.1426C59.5147 50.3027 61.4102 49.8076 62.4308 51.0498C63.2403 52.0352 63.4522 54.1055 63.3976 55.3477C63.2999 57.542 60.4747 57.292 58.919 57.293C57.6485 57.2881 56.377 57.3018 55.1065 57.335C55.0811 57.8477 55.0685 58.3604 55.0665 58.874C54.5079 58.9053 53.9913 58.8838 53.4327 58.8672C53.5079 60.4922 53.5753 62.4297 53.71 64.0371C54.1534 64.0361 54.6427 64.0234 55.0821 64.0381C55.4806 64.4727 55.6368 64.5899 56.2667 64.5996C57.3448 64.6162 58.4327 64.6055 59.5108 64.6035L65.7599 64.6143C66.0401 62.5244 66.7589 60.9199 68.4776 59.6016C69.9063 58.5147 71.7091 58.04 73.4884 58.2832C75.2657 58.5244 76.8702 59.4717 77.9405 60.9111C78.8233 62.0957 79.1114 63.1689 79.2481 64.6084L89.3878 64.6152L92.7306 64.6221C93.1827 64.6231 94.4893 64.5654 94.8477 64.7217L94.8233 64.7744C94.295 64.9238 91.3448 64.8428 90.588 64.8516C86.8341 64.8965 83.005 64.7842 79.256 64.8379C79.1114 66.8877 78.5099 68.5352 76.9122 69.9209C75.5626 71.0879 73.8067 71.6738 72.0265 71.5527C70.211 71.4356 68.5226 70.5801 67.3536 69.1856C66.2872 67.9307 65.7677 66.4775 65.7696 64.8379C62.4737 64.7588 59.0362 64.9326 55.7384 64.7666C55.4864 64.7539 55.1212 64.4424 54.9464 64.2617C54.5362 64.2627 54.1202 64.2598 53.71 64.2666L54.0186 69.8936C54.6954 70.0947 56.961 70.8682 57.1524 71.5342C57.1104 71.6494 57.1075 71.6738 56.9845 71.7227C56.5255 71.9043 51.5626 71.7969 50.6642 71.7949C50.1934 71.5293 50.0225 71.3887 49.8868 70.8447C49.5313 69.4219 49.3165 67.9346 49.0899 66.4863L47.9825 59.4551C47.8184 58.3818 47.6417 56.7949 47.4298 55.7803C46.9659 57.3506 46.5528 58.9951 46.1368 60.585C45.3224 63.6953 44.5391 66.8145 43.7852 69.9404C44.335 70.2217 46.8448 71.2637 46.5225 71.9639C46.1036 72.2461 44.589 71.9365 44.045 71.8584C42.7393 71.6719 41.4278 71.4424 40.1231 71.2393C40.0479 71.2275 39.9561 71.1982 39.8829 71.1768C39.5079 70.8115 39.2774 70.4863 39.2989 69.9356C39.336 68.9629 39.4552 67.9326 39.5528 66.9619L40.1808 61.0537C40.504 57.917 40.8595 54.7842 41.2472 51.6553C41.3956 50.4043 41.5216 48.7256 41.7276 47.5254C41.8048 47.0703 41.9347 46.626 42.1134 46.2002C40.9727 46.6777 40.4288 46.7422 39.1837 46.8047C39.4415 48.25 39.5665 49.7227 39.7745 51.1816C39.9317 52.2813 40.0108 53.4863 38.836 54.0869C38.3858 54.3174 37.8653 54.2656 37.3975 54.4502C37.585 55.0527 36.8975 55.4453 36.4239 55.1641C36.1261 54.9873 36.2091 54.6416 35.8204 54.6953C34.0333 54.9434 32.2647 55.3311 30.4874 55.6357C30.2091 55.6836 29.5997 55.7559 29.38 55.8701L29.3868 55.9336C29.4044 56.1221 29.4239 56.4619 29.2501 56.5635C28.6309 56.9238 28.2765 56.6455 28.1134 56.0869C27.5265 56.1826 26.9483 56.3535 26.4376 55.9775C26.2647 55.8535 26.128 55.6856 26.0411 55.4912C25.8741 55.1104 25.7677 54.3213 25.6788 53.8984C25.4571 52.8389 25.3018 51.6777 25.0362 50.6318C24.7579 53.8467 24.589 57.207 24.3507 60.4492C24.1944 62.5303 24.0489 64.6113 23.9151 66.6943C23.8331 67.8613 23.7091 69.0947 23.6632 70.2578C24.3604 70.4443 26.1417 70.8799 26.2618 71.7441C26.2218 71.834 26.2393 71.8486 26.1397 71.8867C25.7989 72.0186 20.9737 72.0137 20.3302 71.9522L20.255 71.8731L20.2677 71.7891C20.6778 71.6338 25.2267 71.7793 26.1017 71.7109C24.6593 70.1143 21.6407 70.415 19.6378 70.4512L19.7188 71.0225C19.9347 71.2676 20.2061 71.499 20.2052 71.8174L20.1466 71.9346C19.6397 71.9785 19.1007 71.9756 18.588 71.9688C17.2149 71.9502 15.8272 72.0244 14.4581 71.9502C14.212 71.9365 14.0079 71.5879 13.8868 71.3975C12.2491 71.3633 10.6104 71.3516 8.97177 71.3613C8.54599 71.3613 6.41806 71.4209 6.17978 71.2705C6.60067 71.0234 11.9737 71.1719 12.7872 71.1592C13.0323 71.1631 13.2852 71.1709 13.5294 71.168C13.6808 71.1709 13.6974 71.1738 13.8438 71.1445C13.9786 70.9746 13.9444 70.7842 13.9552 70.5391C13.797 70.7676 13.7501 70.8506 13.5323 71.0293C13.2442 71.083 13.1222 71.0762 12.838 71.0264C12.8028 71.0078 12.7677 70.9893 12.7325 70.9697C12.3536 70.7539 12.2784 70.5303 12.1681 70.1328C12.1583 70.0596 12.1505 70.0635 12.1163 69.9941C12.0792 69.9844 11.9806 69.958 11.9464 69.9609C11.5352 69.9932 8.962 69.877 8.78231 70.0332C8.71396 70.5117 8.50595 70.9131 7.99032 71.0156C7.7247 71.0674 7.45028 71.0117 7.22567 70.8613C6.86142 70.6201 6.81942 70.375 6.73349 69.9844C5.47567 69.9639 4.80185 69 4.86825 67.8213C4.92001 66.9033 4.95321 65.9678 4.99618 65.0479L5.16415 60.96C5.24618 59.2334 5.30282 57.4805 5.42001 55.7568C5.47372 55.3594 5.53524 54.8467 5.71688 54.4922C6.35067 53.2568 7.1622 52.583 8.53524 52.3262L8.84677 52.2432L8.97079 52.2471C9.01376 52.0449 9.02157 51.9121 9.0372 51.7041C9.32138 49.7529 9.41903 47.6572 9.74911 45.6768C9.39755 45.6963 9.07528 45.79 8.88095 45.457C8.87704 44.9023 9.99032 44.96 10.419 44.9307C10.8106 43.3887 11.4229 41.6113 11.8888 40.0762C12.7296 37.3066 13.5772 34.0908 14.9015 31.5547C15.6778 30.0664 16.9229 28.4619 18.5899 28.1377C18.7599 28.1045 19.0108 28.0166 19.0987 27.8535C19.0509 27.5137 18.5567 27.5088 18.3136 27.3154C17.6466 26.7832 17.4298 25.8008 17.6622 25.0137C17.8429 24.4121 18.2618 23.9102 18.8214 23.625C19.961 23.0371 21.2393 23.5791 21.753 24.7178C22.0411 25.3555 22.0616 26.4365 21.8126 27.0986C21.6563 27.5156 21.4005 27.7266 21.0001 27.8857L20.9337 27.9111C21.3048 28.0498 21.7032 28.1397 22.0802 28.2774C22.9317 28.5879 23.71 29.2979 24.2384 30.0273C25.546 31.8594 26.3975 33.9844 27.295 36.0352C27.9337 37.4951 28.5343 38.9746 29.1661 40.4365C29.7345 41.752 30.2579 43.0967 30.8497 44.3994C31.962 44.5078 32.9952 45.0205 33.2608 46.2031C33.8712 46.1201 34.5011 45.9629 35.1075 45.9004C36.8556 45.7197 37.9181 44.8857 39.1007 46.6143C41.2579 46.417 41.7354 46.3828 43.3595 44.9316C42.5401 43.5117 41.7677 41.8672 41.046 40.3867C41.3009 40.2012 41.838 39.9375 42.13 39.7871C42.1202 38.668 42.8175 36.3203 43.1036 35.1641C43.8214 32.2647 43.7979 29.8848 47.1768 29.0996C47.2179 28.6465 47.2227 28.2109 47.2315 27.7568L47.2306 27.7578Z" fill="#002C6E"/>
<path d="M9.51083 52.2578C10.0284 52.2236 12.3048 52.2998 12.5694 52.2031L12.6212 51.999L12.6378 52.1904C12.7843 52.3125 12.964 52.3525 13.129 52.2314L13.8194 52.2178C13.7843 58.1152 13.7852 64.0127 13.8214 69.9102C13.5265 69.9121 12.3858 69.8809 12.2003 70.0146L12.1622 70.1348C12.1524 70.0615 12.1446 70.0654 12.1104 69.9961C12.0733 69.9863 11.9747 69.96 11.9405 69.9629C11.5294 69.9951 8.95614 69.8789 8.77646 70.0352C8.7081 70.5137 8.50009 70.915 7.98446 71.0176C7.71884 71.0693 7.44442 71.0137 7.21981 70.8633C6.85556 70.6221 6.81356 70.377 6.72763 69.9863C5.46981 69.9658 4.79599 69.002 4.86239 67.8232C4.91415 66.9053 4.94735 65.9697 4.99032 65.0498L5.15829 60.9619C5.24032 59.2354 5.29696 57.4824 5.41415 55.7588C5.46786 55.3613 5.52938 54.8486 5.71102 54.4941C6.34481 53.2588 7.15634 52.585 8.52938 52.3281L8.84091 52.2451L8.96493 52.249C9.18075 52.2969 9.28329 52.2754 9.5079 52.2598L9.51083 52.2578Z" fill="#FFB700"/>
<path d="M8.84362 52.2441L8.9149 52.2871C8.82897 52.3838 8.83971 52.3643 8.72643 52.4365C8.45787 53.042 8.38463 55.6738 8.28502 57.4443C8.0985 60.7627 7.81725 65.5693 7.58873 69.0283C7.55553 69.042 7.52233 69.0557 7.4901 69.0693C7.27819 68.8594 7.47252 67.2422 7.49498 66.8369L7.786 61.9033L8.08385 56.7764C8.12877 55.8877 8.15904 52.9961 8.53307 52.3262L8.84459 52.2432L8.84362 52.2441Z" fill="#002C6E"/>
<path d="M6.72949 69.9862C7.0498 69.9569 8.6123 69.8651 8.77832 70.035C8.70996 70.5135 8.50195 70.9149 7.98633 71.0174C7.7207 71.0692 7.44629 71.0135 7.22168 70.8631C6.85742 70.6219 6.81543 70.3768 6.72949 69.9862Z" fill="#002C6E"/>
<path d="M58.1055 50.1455C59.5127 50.3057 61.4082 49.8105 62.4287 51.0527C63.2383 52.0381 63.4502 54.1084 63.3955 55.3506C63.2978 57.5449 60.4727 57.2949 58.917 57.2959C57.6465 57.291 56.375 57.3047 55.1045 57.3379C55.2783 54.5674 56.0107 52.1094 58.1055 50.1465V50.1455Z" fill="#002E75"/>
<path d="M10.2979 45.6571L10.3799 45.6356C11.2588 45.41 10.9834 45.872 11.4346 46.1034C12.2441 46.5184 12.5371 45.953 13.1455 45.6639C13.1934 45.6415 13.2129 45.6669 13.2695 45.7001C13.3135 45.9667 13.1064 47.5819 13.0605 47.9882C12.9072 49.3241 12.7607 50.662 12.6211 51.9999L12.5693 52.204C12.3047 52.2997 10.0283 52.2235 9.51074 52.2587C9.52148 51.7372 9.72852 50.2059 9.80859 49.6122C9.97168 48.3993 10.0732 46.8153 10.2979 45.6581V45.6571Z" fill="#D9E4F8"/>
<path d="M13.7373 46.71C13.8975 46.9756 13.7588 50.4072 13.8252 51.0547C13.8271 51.4424 13.8252 51.8311 13.8193 52.2187L13.1289 52.2324L13.7373 46.71Z" fill="#FBFCFF"/>
<path d="M13.7373 46.71C13.7539 46.5107 13.7588 46.2578 13.8311 46.0781C13.9189 46.5566 13.8945 50.5322 13.8252 51.0547C13.7588 50.4063 13.8975 46.9756 13.7373 46.71Z" fill="#D9E4F8"/>
<path d="M52.0635 44.0037C52.1777 43.9998 52.1328 43.9949 52.2432 44.0467C52.4189 44.3631 52.4775 46.4461 52.5049 46.8963L52.8203 52.1062L53.8027 69.8807C52.501 69.9314 51.1992 69.9559 49.8965 69.9539C49.5127 67.9812 49.2031 65.8104 48.8857 63.8104C48.3516 60.5203 47.8633 57.2234 47.4209 53.9197C47.3623 53.4676 46.9541 49.9637 46.8047 49.7713L46.7324 49.7762C46.7119 49.8094 46.6914 49.8426 46.6709 49.8758C46.8281 51.575 47.2002 53.3553 47.3066 55.0477C47.3271 55.3816 47.0215 56.3543 46.9307 56.6727C46.3467 58.701 45.8037 60.9246 45.2803 62.9686C44.7051 65.2127 44.0801 67.6014 43.582 69.8602C42.291 69.7781 40.8711 69.5457 39.5566 69.4373C39.8691 65.9227 40.2295 62.4119 40.6377 58.9061C41.0107 55.3084 41.417 51.7146 41.8584 48.1248C42.0732 46.4227 42.2266 46.1141 43.501 45.1287C43.6631 45.4441 44.0518 46.3367 44.3828 46.4061C44.5078 46.3631 44.5615 46.3377 44.6934 46.3221C44.8359 46.4529 45.0859 46.8973 45.2012 47.0877C46.6045 46.5525 48.3779 45.4217 49.8115 44.8113C50.7412 44.4158 51.3623 44.6346 52.0625 44.0027L52.0635 44.0037Z" fill="#FBFCFF"/>
<path d="M14.0939 45.1262C17.8146 45.0989 21.5343 45.1076 25.2541 45.1555C25.215 45.9192 25.1105 46.8381 25.0461 47.6174C24.8957 49.3948 24.759 51.1721 24.634 52.9514L23.8898 63.5598C23.755 65.7873 23.5968 68.0129 23.4152 70.2375L19.592 70.2307C19.2834 68.509 19.1623 65.1565 19.1457 63.3254C19.1232 60.9231 19.049 57.8196 19.2277 55.4553C19.3195 54.0198 19.5871 51.4953 19.6789 49.9407C19.6613 49.9182 19.6447 49.8957 19.6271 49.8733L19.5256 49.885C19.4386 50.0032 19.4172 50.1672 19.4045 50.3127C19.217 52.6242 19.0343 54.9397 18.8439 57.2512C18.4914 61.595 18.1017 65.9358 17.6769 70.2727C16.5441 70.217 15.2101 70.2444 14.0597 70.2434C13.9552 66.3254 14.0158 62.1936 14.0177 58.2532C14.0138 55.8127 14.0256 53.3733 14.0529 50.9328C14.0431 48.9973 14.0568 47.0627 14.0929 45.1282L14.0939 45.1262Z" fill="#FBFCFF"/>
<path d="M21.2179 28.2822C22.7784 28.6455 23.5841 29.3506 24.4415 30.7207C25.6212 32.6045 26.4708 34.7041 27.3487 36.7422L29.4386 41.6475C29.8106 42.5371 30.1573 43.4375 30.5626 44.3115C30.7804 44.7803 30.9708 44.6475 31.2657 44.9395C31.4776 45.4521 30.6671 45.9775 30.2042 45.8828C29.7696 45.7939 29.7599 45.4658 29.5186 45.1543L29.4015 45.1455C29.1671 45.251 29.0235 45.4277 28.839 45.6133C28.5929 45.124 28.2393 44.5605 27.9591 44.0801L26.1651 41.0117L24.6817 38.3965C24.4679 38.0166 24.0313 37.1279 23.7667 36.8701L23.6993 36.875C23.6788 36.9443 23.6681 37.0303 23.7042 37.0967C24.377 38.335 25.1095 39.541 25.7569 40.7939C25.6632 42.1025 25.4522 43.627 25.3009 44.9395L19.3585 44.9326C17.6046 44.9434 15.8507 44.9336 14.0968 44.9043C14.1065 44.0625 14.2101 43.1348 14.252 42.2812C14.2804 41.7041 14.2765 41.0127 14.3731 40.4551C14.5509 39.4297 15.6143 36.6113 15.5509 35.75L15.5489 35.7881L15.464 35.7969C15.1339 36.5586 14.7472 38.3193 14.4815 39.1885C13.9825 40.8174 13.4679 42.4609 12.8897 44.0664C12.6378 44.5957 12.9386 45.2744 12.631 45.7656C12.3575 46.2031 11.2686 45.9717 11.2452 45.4414C11.2413 45.3623 11.4239 45.2559 11.4933 45.2021L11.503 45.1162C11.3819 44.9531 11.3917 44.9102 11.2335 44.8437C11.0186 44.9102 10.9122 44.9736 10.7237 44.8955C10.6759 44.7354 10.8145 44.2617 10.8761 44.0742C11.8917 40.9971 12.7218 37.8584 13.7872 34.7978C14.1143 33.8564 14.4718 32.8818 14.9317 31.998C15.8809 30.1729 16.6407 29.001 18.6192 28.3447C19.3136 29.3789 20.7823 29.541 21.2159 28.2832L21.2179 28.2822Z" fill="#FBFCFF"/>
<path d="M72.1662 58.4296C75.7345 58.2362 78.7843 60.9716 78.9806 64.5399C79.1769 68.1083 76.4455 71.161 72.8771 71.3602C69.3039 71.5604 66.2463 68.8241 66.05 65.2509C65.8537 61.6776 68.592 58.6229 72.1652 58.4296H72.1662Z" fill="#FBFCFF"/>
<path d="M72.0574 60.6708C74.3885 60.4452 76.4578 62.1591 76.6717 64.4911C76.8855 66.8232 75.1619 68.8847 72.8289 69.0868C70.5115 69.288 68.4676 67.579 68.2556 65.2626C68.0437 62.9462 69.7429 60.8945 72.0574 60.6708Z" fill="#002C6E"/>
<path d="M37.2853 45.7908C38.1564 45.7097 38.8644 46.2869 38.9846 47.1531C39.2248 48.8865 39.5178 50.6492 39.6262 52.3933C39.6642 53.0066 39.1408 53.7576 38.5432 53.9334C37.5969 54.1921 36.5217 54.323 35.5461 54.491L30.5637 55.3806C29.6066 55.5505 28.4992 55.7029 27.5646 55.9236C27.4406 55.9461 27.2443 55.9832 27.1213 55.9793C26.8654 55.9685 26.6242 55.8562 26.4514 55.6658C26.091 55.2761 25.8976 53.7839 25.7834 53.2078C25.5598 52.0711 25.3098 50.8718 25.1633 49.7224C25.1125 49.3211 25.2209 48.366 25.2473 47.8962C25.7746 47.7859 26.3488 47.7087 26.8849 47.6209C30.339 47.0564 33.8156 46.2566 37.2844 45.7898L37.2853 45.7908Z" fill="#FFB700"/>
<path d="M53.0605 34.2559C53.1553 34.3594 53.4072 34.8389 53.4834 34.9863C54.376 36.7295 55.416 38.4258 56.2764 40.1816C55.0215 40.8164 53.7588 41.4346 52.4883 42.0361C52.3574 41.9873 51.9805 41.8516 51.8887 41.7773C51.2695 41.2793 51.0664 41.207 50.3418 41.6104C49.6133 41.2666 48.8057 40.7715 48.0889 40.3691C48.8564 40.0518 50.0205 39.4346 50.8018 39.0508C51.2471 38.8105 52.5801 38.2383 52.8037 37.9258L52.7754 37.8623C52.5078 37.8369 51.123 38.6406 50.7695 38.8027C49.79 39.252 48.8096 39.8535 47.7959 40.2246C47.2881 39.9971 46.4541 39.5156 45.9365 39.2422C46.0762 38.6426 46.2314 38.1133 46.4062 37.5234C47.125 37.1221 48.1973 36.6582 48.9766 36.2822C50.3418 35.6152 51.7041 34.9395 53.0615 34.2568L53.0605 34.2559Z" fill="#FBFCFF"/>
<path d="M46.9746 29.3787C47.7783 29.3113 48.6484 31.2186 49.7383 29.8269C51.3818 30.865 51.2305 32.8514 51.8037 34.6385C51.5352 34.7576 51.251 34.9031 50.9873 35.0359C49.4951 35.7889 47.9727 36.4822 46.4785 37.2283C46.5938 36.7693 46.707 36.3103 46.8174 35.8504C46.9014 35.5018 47.3525 34.0525 47.1396 33.8299C46.958 34.0115 46.4609 36.3143 46.3545 36.7352C45.2881 36.5877 44.1602 36.3904 43.0957 36.2176C43.2773 35.5018 43.4551 34.785 43.6279 34.0662C44.1592 31.8084 44.3457 30.0135 46.9766 29.3787H46.9746Z" fill="#FFB700"/>
<path d="M43.0381 36.4268C43.9942 36.5322 45.3028 36.7978 46.292 36.9531C46.127 37.6807 45.7823 38.6543 45.7149 39.3721C46.5928 39.8281 47.4649 40.293 48.3331 40.7666C48.9581 41.1143 49.5967 41.502 50.25 41.7949C50.4375 41.8789 50.8262 41.873 51.0411 41.8857C51.7461 41.9277 53.0225 42.209 53.1573 43.0391C52.9688 43.1816 52.3018 43.0478 52.0186 43.0137C52.4502 43.248 52.6426 43.2725 53.1192 43.376C52.6807 43.5156 52.4844 43.499 52.2872 43.8564C51.8291 43.7822 51.7129 43.7393 51.2823 43.5801C51.4493 43.707 51.6143 43.8379 51.7764 43.9717L51.7559 44.0498C51.459 44.208 51.0332 44.1973 50.7217 44.082C50.5948 44.1172 50.6465 44.083 50.5743 44.2002C50.6612 44.3164 50.6993 44.2969 50.8653 44.3555C49.9834 44.4443 49.3077 43.5117 48.4571 43.126C46.6778 42.3193 43.7959 41.9326 42.5498 40.3779C42.0342 39.7344 42.8223 37.2852 43.0372 36.4258L43.0381 36.4268Z" fill="#FBFCFF"/>
<path d="M42.125 40.0732C42.2295 40.1816 42.3545 40.5879 42.5293 40.7725C43.2373 41.5176 44.4482 41.9287 45.3906 42.3037C45.1064 42.4404 43.4971 43.249 43.3936 43.4248C43.7979 43.4717 45.2998 42.6484 45.5938 42.3594C46.5234 42.6934 48.373 43.1895 49.0508 43.7549C47.4512 44.541 45.9277 45.3848 44.3564 46.1934C43.8154 45.375 43.2539 44.2783 42.7959 43.4111C42.3057 42.4814 41.7559 41.4316 41.3701 40.457C41.584 40.333 41.8975 40.1865 42.126 40.0723L42.125 40.0732Z" fill="#FBFCFF"/>
<path d="M49.6515 22.5732C49.7365 22.5791 49.9044 22.6025 49.9269 22.7061C50.1798 23.8721 48.3849 24.6689 47.4933 25.0293C48.2785 25.6348 47.8429 25.6387 47.5597 26.3223C47.4289 26.6387 47.8156 27.2598 48.1525 26.9883C48.1984 26.8135 48.215 26.8828 48.1652 26.7461C48.0548 26.7832 48.0255 26.792 47.9113 26.8115C47.7697 26.6914 47.6935 26.6074 47.6964 26.4199C47.8234 26.2295 48.0656 26.1855 48.2892 26.1152C48.3712 25.9912 48.5431 25.6797 48.715 25.7178C48.9181 26.0234 49.0773 26.0703 49.4396 25.9824L49.465 25.9307L49.3078 25.7832C49.4367 25.7461 49.3722 25.752 49.505 25.792L49.5675 25.9727C49.7668 25.9326 49.8566 25.8965 49.922 25.7021C49.0207 24.2471 48.7824 25.6543 48.2609 25.8223L48.1603 25.7471C48.1222 25.4678 48.0158 25.249 48.0109 25.0713C48.091 24.918 49.3468 24.2441 49.5871 24.085C49.8087 24.3027 50.3126 24.877 50.2052 25.1924L49.9738 25.249L49.9171 25.2949C49.9103 25.4736 49.9054 25.4717 49.9611 25.6523C50.1027 25.7656 50.13 25.7295 50.3517 25.748C51.0568 26.4453 50.7101 27.8369 49.633 27.876C49.3849 27.8848 48.839 27.8008 48.6447 27.8711C48.7853 28.0791 49.0363 28.1084 49.2765 28.165C49.3146 28.5859 49.3996 28.9902 49.4621 29.3984C49.6085 30.3486 48.675 30.1162 48.1691 29.7832C47.8419 29.5674 47.6867 29.4102 47.422 29.1387C47.4357 28.6758 47.4748 28.2246 47.5109 27.7637C47.4396 27.6621 47.3703 27.5596 47.3029 27.4561C45.171 24.1855 47.1017 24.1289 49.6535 22.5742L49.6515 22.5732Z" fill="#FBFCFF"/>
<path d="M25.9385 41.1641C26.1328 41.3164 28.2852 45.0703 28.6865 45.7197C28.3516 46.2578 28.3027 46.5537 28.2236 47.166L27.6797 47.2568L25.2812 47.6592C25.4062 45.4854 25.8418 43.2051 25.9395 41.1641H25.9385Z" fill="#D9E4F8"/>
<path d="M19.3694 23.6601C20.4387 23.5771 21.2551 23.9286 21.6457 25.0321C21.6867 25.1464 21.6721 25.1503 21.6145 25.2411C21.3781 25.2812 20.7405 25.1845 20.4299 25.1649C20.2922 25.9462 20.4504 26.3163 19.883 27.0058C19.761 27.1181 19.5998 27.2411 19.4446 27.3007C19.1858 27.4023 18.8967 27.3896 18.6477 27.2655C17.7961 26.8407 17.5764 25.414 18.0442 24.6454C18.3899 24.0761 18.7561 23.8437 19.3694 23.6601Z" fill="#FBFCFF"/>
<path d="M53.209 70.1164C53.4609 70.0998 53.7559 70.1027 54.001 70.1437C54.4355 70.216 56.748 71.0891 56.7891 71.4728C56.541 71.6906 54.2012 71.592 53.7236 71.5891C53.0205 71.5822 51.0312 71.7697 50.5283 71.4113C50.1211 71.1213 50.0635 70.6516 49.9736 70.1975C51.0527 70.176 52.1309 70.1486 53.21 70.1164H53.209Z" fill="#FBFCFF"/>
<path d="M39.5196 69.6553C40.7735 69.7842 42.3008 69.8926 43.5264 70.1465C44.0137 70.2471 46.2374 71.3574 46.3262 71.8291C45.6485 71.9512 40.9717 71.1826 40.0215 70.9834C39.5704 70.5381 39.5176 70.2539 39.5196 69.6543V69.6553Z" fill="#FBFCFF"/>
<path d="M18.792 60.1836C18.8027 59.9228 18.833 59.3037 18.9092 59.0752C18.9766 59.5322 18.9453 60.8926 18.9453 61.4326C18.9453 61.9873 18.9785 63.0752 18.9385 63.5723C18.9424 65.5898 19.0967 68.9727 19.4941 70.9434C18.8955 70.6543 18.5508 70.5342 17.9082 70.3516C17.9463 69.417 18.1104 68.2178 18.2051 67.2617C18.3555 65.7051 18.4893 64.1465 18.6074 62.5879C18.6543 62.0059 18.8076 60.7139 18.792 60.1846V60.1836Z" fill="#FBFCFF"/>
<path d="M18.792 60.1836C18.8027 59.9228 18.833 59.3037 18.9092 59.0752C18.9766 59.5322 18.9453 60.8926 18.9453 61.4326C18.9453 61.9873 18.9785 63.0752 18.9385 63.5723C18.8486 63.042 18.8975 60.6572 18.8818 59.9395L18.792 60.1846V60.1836Z" fill="#FBFCFF"/>
<path d="M54.1514 33.709C54.2393 33.7695 57.2813 39.3145 57.5928 39.8652C57.3027 40.0244 57.0147 40.1865 56.7285 40.3535C56.5322 40.2617 53.6963 34.9043 53.3008 34.1533L54.1523 33.709H54.1514Z" fill="#FBFCFF"/>
<path d="M14.1306 70.4795C15.2322 70.4385 19.7615 70.2988 19.9558 71.75L16.6765 71.7607C16.0564 71.7666 15.4392 71.7744 14.8191 71.7715C13.9851 71.7676 14.0925 71.1045 14.1306 70.4795Z" fill="#FBFCFF"/>
<path d="M20.624 25.3779C21.1533 25.4453 21.1562 25.5869 21.7217 25.4092C21.7461 25.9883 21.792 26.6465 21.5195 27.1709C21.0898 27.9971 20.332 27.459 20.084 27.5371C20.3223 27.9092 21.5166 28.0166 20.6143 28.752C19.9941 29.0654 19.334 28.9648 18.9473 28.3564C18.9727 28.2012 19.1035 28.2314 19.2881 28.0283C19.3682 27.2529 19.7666 27.623 20.1914 27.0342C20.3721 26.7832 20.4121 26.3389 20.6152 26.0381C20.7559 26.0352 20.7852 26.0342 20.9219 26.0068C21.0078 25.8809 21 25.9443 20.9834 25.8193C20.8311 25.834 20.7939 25.8496 20.6475 25.8057C20.5645 25.6299 20.6045 25.6055 20.625 25.377L20.624 25.3779Z" fill="#FBFCFF"/>
<path d="M49.2324 43.9131C49.4199 43.9805 49.8896 44.3184 50.0547 44.4551C48.5879 45.1182 47.1318 45.9814 45.7305 46.6045L45.2725 46.791L44.8809 46.1738C45.9141 45.5273 48.0811 44.502 49.2324 43.9131Z" fill="#FBFCFF"/>
<path d="M56.4141 40.3604C56.6094 40.5996 56.7295 40.875 56.8389 41.1592C55.7246 41.665 54.4619 42.3291 53.3525 42.876C53.166 42.5234 53.0947 42.4287 52.8076 42.1641C53.9902 41.5498 55.2187 40.9678 56.4131 40.3594L56.4141 40.3604Z" fill="#FBFCFF"/>
<path d="M31.5625 45.3223C32.2968 45.3174 32.3935 45.7139 32.6142 46.334C31.5654 46.5196 30.5302 46.7295 29.4755 46.9122C29.2519 46.9561 29.163 47.0196 28.999 46.9415C28.9414 46.584 29.3261 46.1065 29.5009 45.8116C29.4951 45.7471 29.4892 45.6827 29.4824 45.6182L29.5283 45.5948C30.0322 46.7081 31.0224 45.9444 31.5615 45.3223H31.5625Z" fill="#FBFCFF"/>
<path d="M13.9875 41.5654L14.0109 41.5898C14.1164 41.8779 13.8742 44.7246 13.841 45.2061C13.6554 45.1309 13.4328 45.0615 13.2414 44.9961C13.0363 44.9346 13.1027 44.9941 12.9982 44.8564C12.9845 44.4014 13.8019 42.1221 13.9875 41.5654Z" fill="#FBFCFF"/>
<path d="M89.6758 34.3564C89.8887 34.3447 90.4365 34.3203 90.6182 34.3379C91.2842 34.4004 94.7129 34.2168 95.0293 34.4336V34.5009C94.8594 34.582 94.3203 34.5537 94.0908 34.5547C93.2647 34.5586 92.4395 34.5566 91.6133 34.5488C91.0352 34.542 90.4063 34.4961 89.836 34.5742C88.4209 34.7695 88.6582 35.998 88.6563 37.0244L88.6524 39.7519L88.6406 43.3681C88.6377 44.541 88.2988 46.4707 89.9043 46.6142C90.5352 46.6152 94.6143 46.5742 94.9404 46.6611L94.9668 46.7207C94.7315 46.9482 91.9873 46.8173 91.4697 46.8408C89.8223 46.915 88.4151 47.0595 88.4209 44.9248C88.4297 41.9004 88.4141 38.8545 88.4287 35.8281C88.4326 35.0039 88.9424 34.5761 89.6738 34.3574L89.6758 34.3564Z" fill="#002C6E"/>
</svg>
