<svg width="100" height="81" viewBox="0 0 100 81" fill="none" xmlns="http://www.w3.org/2000/svg">
<path d="M21.5098 8.0438C22.8584 6.83384 25.4258 5.5233 27.0703 4.74498C37.2266 -0.0626408 49.2109 -0.403461 60.1719 0.932477C69.7109 2.09459 78.7227 5.91685 85.1611 13.2001C85.5146 13.5965 86.4482 14.6463 86.7041 15.076C79.2852 17.6571 73.4648 25.9735 69.4697 32.3905C68.582 33.8065 67.7305 35.246 66.918 36.7069C66.6377 37.202 65.5283 38.9754 65.5801 39.4442C65.3623 39.4461 64.3926 39.4237 64.2744 39.4491C64.1934 39.3622 64.1191 39.3221 64.0205 39.2587C64.1211 39.1063 64.5479 38.1649 64.6465 37.9569C64.9775 37.2645 65.3242 36.5809 65.6885 35.9051C66.5469 34.2792 67.3281 32.7079 68.335 31.1649C69.1035 29.9881 69.7734 28.701 70.5557 27.5311C71.4795 26.1737 72.4521 24.8514 73.4717 23.5643C74.5322 22.244 75.876 21.1073 76.8008 19.701C77.7363 18.2782 77.4062 16.8436 75.6084 16.4481L75.3887 16.495C75.207 16.2948 72.4365 16.1551 71.9482 16.1102C63.0068 15.2655 54.0508 14.5868 45.084 14.0741C44.8897 14.5506 45.0039 15.0252 45.5176 15.1629C46.6133 15.4569 47.9824 15.4833 49.1104 15.5487L52.7559 15.7655C57.4053 16.0672 69.0713 16.868 74.3232 17.453C74.3408 17.4823 74.3584 17.5116 74.375 17.5399L74.3682 17.6258C73.8457 17.7362 67.6738 17.037 66.6748 16.9559C61.3799 16.5555 56.0811 16.1922 50.7813 15.867C49.7324 15.8055 45.9541 15.7333 45.2012 15.2547C44.9678 15.1063 44.8213 14.9149 44.7637 14.6415C44.7197 14.4315 44.7607 14.2528 44.8115 14.0487C44.4785 13.9237 40.7441 13.6835 40.1631 13.6337C40.542 12.9354 42.251 10.2528 42.3213 9.75963C42.3496 9.55943 42.21 9.32701 42.084 9.1815C41.8984 8.96763 41.6826 8.86509 41.4072 8.81431C40.7607 8.6942 40.0732 8.69712 39.416 8.66294L36.292 8.50963C33.3945 8.37584 30.4961 8.27134 27.5967 8.19615C25.5674 8.15611 23.5391 8.10435 21.5107 8.04185L21.5098 8.0438Z" fill="#D9E4F8"/>
<path d="M45.083 14.0751C45.7471 12.9257 47.3174 10.5077 48.6602 10.0732C49.4043 9.83195 50.7617 9.99797 51.5586 9.98039C57.4219 10.2431 63.3711 10.8095 69.1338 11.9472C71.6191 12.4384 74.373 12.8017 76.6914 13.8085C78.2832 14.4999 75.5342 15.9052 75.3877 16.495C75.2061 16.2948 72.4355 16.1552 71.9473 16.1103C63.0059 15.2655 54.0498 14.5868 45.083 14.0741V14.0751Z" fill="#D9E4F8"/>
<path d="M44.8106 14.0506C45.1554 13.2869 46.7501 11.1775 47.3839 10.5828C47.672 10.3132 48.0177 10.0681 48.3858 9.92263C50.2755 9.17556 62.7354 10.616 65.2618 11.0007C67.0147 11.2674 68.7677 11.6287 70.5089 11.9646C72.3136 12.3132 74.8155 12.6795 76.4581 13.447C76.7852 13.5994 77.2735 13.8543 77.3966 14.2127C77.46 14.3982 77.4102 14.5945 77.3224 14.7625C76.9893 15.3992 76.1534 15.9851 75.6075 16.448L75.3878 16.4949C75.5343 15.905 78.2823 14.4998 76.6915 13.8084C74.3731 12.8015 71.6192 12.4373 69.1339 11.947C63.3722 10.8093 57.422 10.2429 51.5587 9.98024C50.7628 9.99782 49.4054 9.8318 48.6602 10.073C47.3175 10.5076 45.7462 12.9246 45.0831 14.075C44.8888 14.5515 45.003 15.0261 45.5167 15.1638C46.6124 15.4578 47.9815 15.4841 49.1095 15.5496L52.755 15.7664C57.4044 16.0681 69.0704 16.8689 74.3224 17.4539C74.3399 17.4832 74.3575 17.5125 74.3741 17.5408L74.3673 17.6267C73.8448 17.7371 67.6729 17.0379 66.6739 16.9568C61.379 16.5564 56.0802 16.1931 50.7804 15.8679C49.7315 15.8064 45.9532 15.7341 45.2003 15.2556C44.9669 15.1072 44.8204 14.9158 44.7628 14.6424C44.7188 14.4324 44.7599 14.2537 44.8106 14.0496V14.0506Z" fill="#002C6E"/>
<path d="M86.7039 15.0762C87.2547 15.6895 87.6502 16.2715 88.1102 16.9502C81.0281 19.9209 76.7869 25.8301 72.8123 32.124C71.8289 33.6523 70.9061 35.2188 70.0457 36.8193C69.6473 37.5459 69.1336 38.4609 68.8006 39.209C72.2967 39.2188 75.7928 39.209 79.2879 39.1807C81.4627 39.1807 83.9627 39.2383 86.116 39.1611C85.3582 37.6846 85.6395 35.8828 85.7918 34.2725C86.0623 31.4189 86.5916 28.5498 87.4578 25.8154C88.0105 24.1328 88.8357 21.6475 90.4549 20.7705C93.1209 25.6045 95.283 30.6992 96.9061 35.9746C97.5301 38.0205 97.9734 39.8398 98.49 41.8984L93.0701 40.8418C92.0174 40.6328 90.6785 40.3252 89.6326 40.2061C89.6365 40.9355 89.6346 41.6738 89.6482 42.4023C91.0174 42.6553 92.3797 42.9414 93.7478 43.2041C95.4275 43.5254 97.2049 43.8438 98.8602 44.2949C99.5457 50.1592 98.9842 56.1631 97.1736 61.8018C96.9275 62.5674 96.6795 63.3867 96.3641 64.125C93.573 64.1025 90.783 64.0967 87.992 64.1084C85.8279 64.1084 83.5564 64.0762 81.4002 64.1162C80.7654 61.1455 80.2869 58.1914 79.7146 55.2119C79.6395 54.8174 79.2361 52.4473 79.1219 52.2383L79.0096 52.1816C79.0603 52.1104 79.073 52.0439 79.1033 51.9561C79.1189 51.6025 78.9451 50.7031 78.91 50.2891C78.781 48.7715 78.866 46.8955 79.367 45.4648C79.8982 43.9766 80.993 42.7568 82.4148 42.0674L82.3728 42.2236L82.4471 42.2275C82.534 42.2334 82.5018 42.2246 82.5574 42.2441C82.8738 42.3037 84.0223 42.2529 84.4021 42.2598C85.9363 42.2842 87.9344 42.1377 89.4178 42.3818L89.3894 40.1592C88.2488 39.9541 87.3387 39.877 86.2937 39.3447C85.2801 39.4248 84.1619 39.4063 83.1365 39.4072L78.6434 39.4092L65.5799 39.4453C65.5281 38.9775 66.6375 37.2031 66.9178 36.708C67.7303 35.2471 68.5809 33.8076 69.4695 32.3916C73.4656 25.9746 79.285 17.6582 86.7039 15.0771V15.0762Z" fill="#002C6E"/>
<path d="M23.552 21.3134C24.8616 19.6484 25.969 18.4374 27.967 17.5351C29.7893 16.7363 31.8196 16.3037 33.8254 16.1123C36.469 15.8603 40.4172 15.4482 42.4729 17.4873C42.9661 17.9765 43.2102 18.6669 43.01 19.3251C42.9631 19.4804 42.8782 19.7216 42.8938 19.8749L42.761 20.0292C41.4407 22.122 39.5471 23.8808 37.7932 25.6132C37.3118 26.0888 36.1389 27.0839 35.5383 27.3701C34.9534 27.1093 34.2756 26.8535 33.6809 27.1464C32.009 27.9697 32.426 30.0195 33.3508 31.2363C33.9358 32.0058 34.2981 32.3125 35.0559 32.8251C35.1038 34.9785 35.0579 37.1318 34.9202 39.2812C34.845 40.4199 34.7454 41.8408 34.4387 42.9404C36.4465 43.0273 37.7346 43.1357 39.7063 43.4628L39.7698 43.5058L39.8938 43.4765L39.9163 43.3642C39.9875 43.5146 39.9358 43.4638 40.1155 43.5283C40.4612 43.6533 40.9172 43.7333 41.2522 43.8593C43.1917 44.374 45.2786 45.4306 46.9348 46.5615C47.0959 46.6718 47.592 46.9804 47.6399 47.1376L47.5754 47.1748C44.2473 47.9277 43.1204 51.8271 43.9172 54.7792C44.7737 57.9501 46.0403 61.0429 47.05 64.1611L42.8342 64.1738C42.5374 64.1738 41.0901 64.1562 40.8967 64.1894L40.7512 64.1777C40.6135 64.0576 40.2473 62.8671 40.1477 62.583C39.7229 61.3437 39.2688 60.1152 38.7854 58.8974C37.6936 56.1406 36.6194 53.5937 35.2629 50.9414C34.303 49.0634 33.4407 47.3808 32.1555 45.6435C30.7571 43.7539 28.3215 41.1201 25.9172 40.665C24.6106 40.539 23.2053 40.9716 22.2356 41.8603C21.8313 42.2304 21.5022 42.6601 21.0989 42.9462C21.7454 41.331 23.7581 40.4912 25.3879 40.4013C24.3801 40.0927 23.8469 40.0898 22.8088 40.0039C22.2297 39.956 21.3596 39.6162 20.7942 39.413C20.8137 39.7148 20.8801 40.2968 20.7356 40.5576C20.5374 40.3662 20.5344 39.6386 20.511 39.3388L14.7532 37.6523C13.5422 37.2919 12.2141 36.8691 11.0012 36.5576C11.0979 36.9599 11.2454 37.3408 11.3684 37.7363L11.3176 37.8144L11.219 37.8017C10.8088 37.4746 10.9573 36.7031 10.6829 36.4169L10.6995 36.3886C10.47 36.29 10.1702 36.3515 9.98364 36.246C9.90552 36.2763 9.95239 36.2695 9.84302 36.2334C9.72876 36.0546 9.26099 35.9453 9.06177 35.8632C8.61353 35.6777 8.30884 35.456 8.1272 34.9951C7.40356 33.1621 8.16919 27.8642 8.55786 25.8505C8.64478 25.4023 8.70532 24.8515 8.88599 24.4335L8.97974 24.3994C9.04517 24.4755 9.04614 24.5283 9.02856 24.6259C8.92017 25.2539 8.77075 25.8779 8.66528 26.5097C8.35962 28.3505 7.60962 33.4814 8.39966 35.0263C8.52661 35.2744 8.69946 35.4541 8.94946 35.5791C9.79126 36 11.7483 36.5214 12.7268 36.8066C15.4934 37.6132 18.3225 38.332 21.0471 39.2685C19.2766 37.1376 18.8469 29.8369 18.5403 27.0214C18.1262 23.2138 18.0696 19.6181 13.0715 19.7802C12.76 19.79 11.8743 19.8134 11.6204 19.7021L11.6467 19.6445C12.1663 19.4218 14.0305 19.5898 14.6633 19.6611C18.3254 20.0712 18.4944 24.0996 18.7737 26.9697C18.886 28.1972 19.011 29.4228 19.1477 30.6484C19.3684 32.4638 19.9299 38.1835 21.4045 39.289C22.2864 39.9492 23.7522 39.9335 24.7893 39.7871C26.011 39.6142 27.3801 39.1201 28.1292 38.0791C28.9739 36.9042 28.5237 34.5322 28.304 33.1728C27.6047 28.8457 25.8704 23.0761 22.1389 20.4062C21.4749 19.9228 20.7502 19.5292 19.9827 19.2382C18.2395 18.5849 15.0461 18.1982 13.1702 18.5107C12.9475 18.5478 12.4358 18.6308 12.2649 18.5068C13.0813 17.916 16.1262 18.2265 17.1887 18.3564C19.6965 18.6621 21.7395 19.5117 23.5452 21.3134H23.552Z" fill="#002E75"/>
<path d="M34.4395 42.9404C36.4473 43.0273 37.7354 43.1357 39.707 43.4629L39.7705 43.5059L39.8945 43.4766L39.917 43.3643C39.9883 43.5146 39.9365 43.4639 40.1162 43.5283C40.4619 43.6533 40.918 43.7334 41.2529 43.8594C43.1924 44.374 45.2793 45.4307 46.9355 46.5615C47.0967 46.6719 47.5928 46.9805 47.6406 47.1377L47.5762 47.1748C44.248 47.9277 43.1211 51.8271 43.918 54.7793C44.7744 57.9502 46.041 61.043 47.0508 64.1611L42.835 64.1738C42.5381 64.1738 41.0908 64.1562 40.8975 64.1894C40.7861 63.498 40.002 61.4932 39.7246 60.7559C37.8438 55.7588 35.7373 50.709 32.8447 46.2031C33.5303 45.2978 34.1377 44.0332 34.4385 42.9404H34.4395Z" fill="#FFB700"/>
<path d="M41.2529 43.8594C43.1924 44.374 45.2793 45.4307 46.9355 46.5615C47.0967 46.6719 47.5928 46.9805 47.6406 47.1377L47.5762 47.1748C46.5488 47.0498 44.0674 45.1631 42.8447 44.7734C42.5547 44.6807 41.2803 44.1035 41.042 43.9609L41.252 43.8604L41.2529 43.8594Z" fill="#FFB700"/>
<path d="M39.916 43.3643C39.9873 43.5146 39.9355 43.4639 40.1152 43.5283C40.4609 43.6533 40.917 43.7334 41.252 43.8594L41.042 43.96C40.6836 43.7861 40.167 43.6504 39.7695 43.5049L39.8936 43.4756L39.916 43.3633V43.3643Z" fill="#FBFCFF"/>
<path d="M2.6329 41.4202C5.7999 41.2414 9.64755 42.4211 12.171 44.342C13.3663 45.2493 14.4405 46.3069 15.3663 47.4875C18.6427 51.7522 20.6007 58.8498 21.3253 64.0998L20.7393 64.1077L5.68662 64.0979C5.44247 62.6262 5.27451 60.9953 5.05087 59.4905C4.64169 56.8332 4.18564 54.1838 3.68076 51.5432C3.35947 49.8733 3.0206 48.2014 2.68076 46.5325C2.49716 45.6311 2.1329 44.5862 2.01474 43.6838C1.97861 43.4084 2.33896 41.6907 2.45517 41.4719L2.63388 41.4202H2.6329Z" fill="#002C6E"/>
<path d="M60.5849 39.3701C62.4521 35.417 64.8788 31.1201 67.2548 27.4434C68.7001 25.208 72.7802 19.0469 75.0858 18.0879L75.0409 18.1475C74.6571 18.6436 74.1405 18.9326 73.703 19.3545C73.1913 19.8477 72.579 20.4834 72.1357 21.0322C69.2148 24.6572 66.6991 28.5352 64.4071 32.583C63.1464 34.8096 61.7802 37.2168 60.7528 39.5586L44.9403 39.6758C43.1884 39.6963 41.3808 39.667 39.6356 39.7314C39.6874 40.9082 39.8222 42.1768 39.9169 43.3633L39.8944 43.4756L39.7704 43.5049L39.7069 43.4619C37.7353 43.1348 36.4472 43.0264 34.4394 42.9395C34.746 41.8398 34.8456 40.4189 34.9208 39.2803C35.0585 37.1309 35.1044 34.9775 35.0565 32.8242C34.2987 32.3115 33.9355 32.0049 33.3515 31.2353C32.4267 30.0186 32.0097 27.9678 33.6815 27.1455C34.2763 26.8525 34.955 27.1084 35.539 27.3691C36.1396 27.083 37.3124 26.0879 37.7939 25.6123C39.5487 23.8799 41.4413 22.1211 42.7616 20.0283L42.8944 19.874C43.7099 21.2949 44.3993 23.5137 44.453 25.1855C44.5214 27.2832 46.3466 26.541 46.0399 28.1826C45.9892 28.4561 45.4814 28.918 45.247 29.1172C45.3095 30.8242 45.7489 34.2168 44.5263 35.4355C43.2167 36.7412 41.1855 36.5811 39.5653 36.749C39.578 37.6006 39.5653 38.6543 39.6317 39.4883L53.3856 39.3936C55.6913 39.3857 58.3065 39.4346 60.5829 39.3682L60.5849 39.3701Z" fill="#FBFCFF"/>
<path d="M60.5852 39.3701C62.4524 35.417 64.8791 31.1201 67.2551 27.4434C68.7004 25.208 72.7805 19.0469 75.0862 18.0879L75.0413 18.1475C74.6575 18.6436 74.1409 18.9326 73.7034 19.3545C73.1916 19.8477 72.5793 20.4834 72.136 21.0322C69.2151 24.6572 66.6995 28.5352 64.4075 32.583C63.1467 34.8096 61.7805 37.2168 60.7532 39.5586L44.9407 39.6758C43.1887 39.6963 41.3811 39.667 39.636 39.7314C39.6877 40.9082 39.8225 42.1768 39.9172 43.3633L39.8948 43.4756L39.7707 43.5049L39.7073 43.4619C39.4915 41.0918 39.3372 38.9248 39.3499 36.5332C44.9797 36.291 45.4387 35.332 45.0393 29.7432C45.0217 29.4932 45.0159 29.2012 45.0188 28.9482C45.3059 28.7842 45.6409 28.5205 45.7805 28.1885C46.1731 27.2568 44.967 27.0391 44.6174 26.5156C44.1145 25.7617 44.1487 24.1455 43.925 23.1807C43.6135 21.833 43.2913 21.2197 42.762 20.0303L42.8948 19.876C43.7102 21.2969 44.3997 23.5156 44.4534 25.1875C44.5217 27.2852 46.3469 26.543 46.0403 28.1846C45.9895 28.458 45.4817 28.9199 45.2473 29.1191C45.3098 30.8262 45.7493 34.2188 44.5266 35.4375C43.217 36.7432 41.1858 36.583 39.5657 36.751C39.5784 37.6025 39.5657 38.6562 39.6321 39.4902L53.386 39.3955C55.6916 39.3877 58.3069 39.4365 60.5832 39.3701H60.5852Z" fill="#002C6E"/>
<path d="M41.8271 26.1562C41.9404 26.1689 41.8906 26.1475 41.9775 26.2197L41.957 26.3232C41.417 26.9873 40.4082 27.001 39.6484 26.7979C39.5322 26.7393 39.4932 26.7266 39.4766 26.6055C39.9258 26.3623 40.417 27.1543 41.8262 26.1562H41.8271Z" fill="#002C6E"/>
<path d="M40.7891 32.0215C40.9375 32.0439 41.2969 32.1797 41.458 32.2324C42.2383 32.4883 42.7021 32.459 43.4805 32.292L43.5557 32.3428L43.54 32.4736C42.957 32.707 40.8916 32.7275 40.7891 32.0205V32.0215Z" fill="#002C6E"/>
<path d="M47.9414 47.334C49.0576 48.2451 50.1846 49.5596 51.0772 50.6963C51.5088 51.2461 51.8653 51.917 52.2871 52.4795C52.7598 53.1104 53.2822 53.7041 53.7403 54.3457C54.003 54.7139 55.0967 56.2441 55.3662 56.4414C55.3906 56.4854 55.4551 56.5937 55.4707 56.6348C55.5752 56.9121 56.2383 57.9238 56.4307 58.2461C57.2988 59.6982 58.2285 61.084 59.0078 62.5928C59.2764 63.1123 59.6104 63.6475 59.8311 64.1904C59.2022 64.1963 58.5518 64.21 57.9258 64.1963L57.6905 64.2041C57.1211 64.1357 55.1836 64.1846 54.4951 64.1846H47.3526C46.3897 61.3682 45.4297 58.5322 44.4951 55.7168C43.8828 53.873 43.6963 51.585 44.6621 49.8438C45.4932 48.3447 46.374 47.8184 47.9405 47.333L47.9414 47.334Z" fill="#FFB700"/>
<path d="M57.6913 64.2051C57.3309 63.2109 56.8036 62.0537 56.369 61.0762C55.8876 59.9775 55.3964 58.8828 54.8944 57.7939C54.6786 57.335 53.6327 55.292 53.6679 54.957C53.8847 54.9893 53.9794 55.2168 54.0663 55.4131C54.3681 56.0918 54.6737 56.7686 54.9813 57.4443C55.6874 58.9805 56.3788 60.5225 57.0556 62.0713C57.2597 62.5381 57.8202 63.7754 57.9266 64.1973L57.6913 64.2051Z" fill="#002C6E"/>
<path d="M21.5098 8.04395C23.5381 8.10645 25.5674 8.1582 27.5957 8.19824C30.4951 8.27344 33.3936 8.37793 36.291 8.51172L39.415 8.66504C40.0713 8.69824 40.7588 8.69629 41.4062 8.81641C41.6816 8.86719 41.8975 8.96973 42.083 9.1836C42.209 9.3291 42.3486 9.56152 42.3203 9.76172C42.251 10.2549 40.542 12.9375 40.1621 13.6357C38.9609 15.6357 37.874 15.2549 35.8164 15.1719L32.4834 15.0508C28.2783 14.8975 24.0713 14.7871 19.8643 14.7207C18.3262 14.6963 16.3008 14.6084 14.8057 14.6494L14.7275 14.5977C14.748 14.5332 14.7383 14.5049 14.8057 14.4756C15.3115 14.2598 31.4814 14.7959 33.6113 14.8652L36.4668 14.9707C37.8125 15.0195 38.6533 15.2539 39.5977 14.0703C39.2285 13.9199 36.6816 13.8652 36.0547 13.8418C32.9238 13.7236 29.792 13.6299 26.6592 13.5605C23.1924 13.4717 19.1533 13.2441 15.7197 13.3184C17.0508 11.8379 18.3223 10.5586 19.8545 9.29492C20.168 9.03613 20.7939 8.44336 21.1475 8.31934C21.2754 8.06836 21.249 8.0791 21.5088 8.04395H21.5098Z" fill="#D9E4F8"/>
<path d="M21.5098 8.04395C23.5381 8.10645 25.5674 8.1582 27.5957 8.19824C30.4951 8.27344 33.3936 8.37793 36.291 8.51172L39.415 8.66504C40.0713 8.69824 40.7588 8.69629 41.4062 8.81641C41.6816 8.86719 41.8975 8.96973 42.083 9.1836C42.209 9.3291 42.3486 9.56152 42.3203 9.76172C42.251 10.2549 40.542 12.9375 40.1621 13.6357C38.9609 15.6357 37.874 15.2549 35.8164 15.1719L32.4834 15.0508C28.2783 14.8975 24.0713 14.7871 19.8643 14.7207C18.3262 14.6963 16.3008 14.6084 14.8057 14.6494L14.7275 14.5977C14.748 14.5332 14.7383 14.5049 14.8057 14.4756C15.3115 14.2598 31.4814 14.7959 33.6113 14.8652L36.4668 14.9707C37.8125 15.0195 38.6533 15.2539 39.5977 14.0703C39.873 13.7207 42.0674 9.95996 42.0918 9.72559C42.1055 9.59082 42.0283 9.42578 41.9346 9.33399C41.7686 9.17188 41.5176 9.08203 41.2939 9.04199C40.7812 8.9502 40.2227 8.95899 39.7031 8.92969C38.5273 8.86035 37.3506 8.80274 36.1738 8.75879C33.0625 8.6084 29.9482 8.49707 26.834 8.4248C24.9492 8.38184 23.0273 8.37598 21.1475 8.32031C21.2754 8.06934 21.249 8.08008 21.5088 8.04492L21.5098 8.04395Z" fill="#002C6E"/>
<path d="M9.84668 36.2334C9.95605 36.2705 9.90918 36.2764 9.9873 36.2461C10.1738 36.3506 10.4736 36.29 10.7031 36.3887L10.6865 36.417C9.67773 36.3096 7.33691 36.5439 6.34961 36.8037C5.80371 36.9473 4.92383 37.3076 4.37988 37.5342C10.2256 37.9092 16.4531 39.6611 20.1221 44.5928C21.8584 46.9268 23.1289 49.7969 24.1035 52.5371C24.5625 53.8623 24.9951 55.1973 25.4014 56.5391C25.627 57.2871 27.4502 63.8164 27.3457 64.1133L27.248 64.1357C27.0879 64.0039 26.7129 62.2725 26.6348 61.96C25.9932 59.3438 25.25 56.7529 24.4043 54.1953C22.6709 48.9629 20.4824 43.5811 15.4277 40.7646C12.748 39.2715 9.81348 38.3594 6.77051 37.9775C5.64941 37.8369 4.59863 37.707 3.4707 37.8721C5.21582 36.5166 7.7041 36.2246 9.84473 36.2353L9.84668 36.2334Z" fill="#002C6E"/>
<path d="M72.0127 42.8691C73.6387 42.8261 75.6553 43.205 77.3115 43.2656C78.1641 43.2968 78.041 44.6601 77.5264 45.2021C77.4131 45.2529 77.2471 45.2832 77.123 45.2588C75.4668 44.9199 73.793 44.6181 72.1436 44.2539C71.7344 44.1631 71.6133 43.4922 71.6885 43.1562C71.7168 43.0283 71.9053 42.9336 72.0127 42.8691Z" fill="#002C6E"/>
<path d="M71.9465 43.1141C72.4387 43.0682 77.2102 43.4032 77.5149 43.5663C77.594 43.6083 77.6555 43.7294 77.6799 43.8143C77.7824 44.1786 77.6701 44.6073 77.4973 44.9306C77.3723 45.0077 77.2541 45.0526 77.1047 45.0243C75.7014 44.7684 74.3039 44.4227 72.8928 44.1874C72.2688 44.0829 71.6516 43.9423 71.9465 43.1141Z" fill="#FBFCFF"/>
<path d="M58.2336 43.1321C58.7024 43.1174 59.553 42.9895 59.4856 43.7551C59.4563 44.0901 59.1809 44.2512 58.8616 44.2698C58.1916 44.3088 57.5139 44.303 56.8401 44.3128C55.5813 44.3323 54.3225 44.3577 53.0647 44.3899C52.7375 44.3948 52.2844 44.4407 52.0227 44.2258C51.6243 43.9133 51.8225 43.302 52.3225 43.2512C52.9036 43.1926 53.5149 43.1985 54.1008 43.1877L58.2346 43.1331L58.2336 43.1321Z" fill="#002C6E"/>
<path d="M57.4551 43.3777C57.8887 43.3709 58.3164 43.3201 58.75 43.3445C59.0996 43.364 59.4219 43.5984 59.1309 43.9529C58.7988 44.1179 54.6553 44.1267 53.918 44.1384C53.4971 44.1492 52.627 44.1902 52.2598 44.1101C52.1172 44.0154 52.126 43.9998 52.0654 43.8425C52.0879 43.6365 52.0518 43.7253 52.168 43.5613C52.5039 43.3728 56.7207 43.3884 57.4551 43.3787V43.3777Z" fill="#FBFCFF"/>
<path d="M64.0205 39.2578C64.1191 39.3213 64.1934 39.3613 64.2744 39.4482C65.7646 42.0791 66.2852 45.3272 66.7383 48.2871C66.9189 49.4883 67.0693 50.6943 67.1875 51.9023C67.3066 53.1152 68.1748 63.7568 67.8301 64.2266L67.7598 64.1904C67.6475 64.0137 67.6553 62.5303 67.6445 62.2246C67.5937 60.7344 67.5215 59.2451 67.4268 57.7578C67.1387 53.2725 66.7578 48.7129 65.8066 44.3066C65.5742 43.2314 65.1563 41.834 64.7168 40.8242C64.5596 40.4619 64.1787 39.8086 64.001 39.4209C64.0068 39.3662 64.0137 39.3125 64.0195 39.2578H64.0205Z" fill="#002C6E"/>
<path d="M55.3672 56.4414C56.793 56.3213 58.291 56.3975 59.7246 56.3819C61.0107 56.3682 63.1816 56.7002 62.9316 54.6592C62.8516 54.0489 62.5264 53.4981 62.0312 53.1348C60.7119 52.1631 54.0449 52.9727 53.6953 52.6045C53.7178 52.5176 53.6953 52.5215 53.7686 52.4873C54.0156 52.3702 59.9551 52.3985 60.6152 52.4424C60.9941 52.4678 61.3779 52.543 61.7305 52.6875C62.3047 52.9239 62.7578 53.4541 62.9873 54.0225C63.1904 54.5264 63.2705 55.1787 63.0322 55.6817C62.8447 56.0782 62.4805 56.3536 62.0713 56.4922C61.8408 56.5703 61.5928 56.6094 61.3496 56.6241C60.5762 56.6719 59.7734 56.6172 58.9971 56.6192C57.8262 56.6231 56.6426 56.669 55.4727 56.6348C55.457 56.5948 55.3926 56.4854 55.3682 56.4414H55.3672Z" fill="#002C6E"/>
<path d="M79.0107 52.1815C77.3047 51.6161 75.5654 51.162 73.8652 50.5956C73.5137 50.4784 72.665 50.2977 72.417 50.119L72.4355 50.0321C72.6543 49.9569 78.415 51.7528 79.1045 51.9559C79.0742 52.0438 79.0625 52.1112 79.0107 52.1815Z" fill="#002C6E"/>
<path d="M82.416 42.0676C83.458 41.5305 86.3145 40.4319 87.4385 40.5871L87.5078 40.635L87.4883 40.7346C87.1113 40.8586 86.3516 40.9289 85.9102 41.0227C84.7451 41.2844 83.6182 41.6946 82.5566 42.2434C82.501 42.2248 82.5342 42.2327 82.4463 42.2268L82.3721 42.2229L82.4141 42.0666L82.416 42.0676Z" fill="#002C6E"/>
<path d="M1.62207 45.627C1.69824 45.6494 1.66016 45.6309 1.73145 45.6894C1.67773 45.9375 1.46191 46.3164 1.33984 46.5498C0.974609 47.248 0.658203 47.9473 0.345703 48.6709L0.330078 48.6846L0.293945 48.6445C0.417969 47.8994 1.1709 46.25 1.62207 45.627Z" fill="#002C6E"/>
</svg>
