<svg width="40" height="40" viewBox="0 0 40 40" fill="none" xmlns="http://www.w3.org/2000/svg">
<path d="M30.7036 30.9981C29.3225 32.982 27.8581 34.9179 25.6283 34.9499C23.3985 34.9979 22.683 33.686 20.1536 33.686C17.6076 33.686 16.8256 34.9179 14.7122 34.9979C12.5323 35.0779 10.8849 32.886 9.48714 30.9501C6.64164 26.9984 4.46175 19.7189 7.39045 14.8232C8.83817 12.3914 11.4341 10.8555 14.2463 10.8075C16.3763 10.7755 18.4064 12.1994 19.721 12.1994C21.0189 12.1994 23.4817 10.4875 26.061 10.7435C27.1426 10.7915 30.1711 11.1595 32.1181 13.9113C31.9683 14.0073 28.5071 15.9591 28.5404 20.0069C28.5903 24.8385 32.9501 26.4544 33 26.4704C32.9501 26.5824 32.3011 28.7743 30.7036 30.9981ZM21.202 5.39984C22.4167 4.07193 24.4302 3.064 26.0942 3C26.3106 4.87188 25.5285 6.75975 24.3636 8.10366C23.2155 9.46357 21.3185 10.5195 19.4547 10.3755C19.2051 8.53563 20.137 6.61576 21.202 5.39984Z" fill="#262626"/>
</svg>
