<svg width="80" height="80" viewBox="0 0 80 80" fill="none" xmlns="http://www.w3.org/2000/svg">
<g clip-path="url(#clip0_4681_44103)">
<path d="M38.1528 39.5127L12.2324 66.6694C12.5235 67.701 13.0466 68.6523 13.7617 69.4507C14.4768 70.2491 15.365 70.8735 16.3584 71.276C17.3517 71.6786 18.424 71.8487 19.4932 71.7733C20.5624 71.6979 21.6002 71.3791 22.5272 70.8412L51.6925 54.2306L38.1528 39.5127Z" fill="#D62828"/>
<path d="M64.3612 34.8969L51.7492 27.6729L37.5527 40.1307L51.8069 54.1919L64.3229 47.0454C65.4317 46.4648 66.3604 45.5918 67.0084 44.521C67.6564 43.4503 67.999 42.2226 67.999 40.971C67.999 39.7194 67.6564 38.4917 67.0084 37.421C66.3604 36.3502 65.4317 35.4772 64.3229 34.8966L64.3612 34.8969Z" fill="#FFB700"/>
<path d="M12.2319 15.1377C12.0754 15.7169 11.9974 16.3146 12.0001 16.9146V64.8924C12.0016 65.4922 12.0795 66.0894 12.2319 66.6695L39.0408 40.2082L12.2319 15.1377Z" fill="#1E5CC4"/>
<path d="M38.3459 40.9037L51.7505 27.673L22.6239 10.985C21.528 10.3433 20.2817 10.0034 19.0117 10C15.8602 9.99389 13.0895 12.0856 12.2324 15.1185L38.3459 40.9037Z" fill="#12A156"/>
</g>
<defs>
<clipPath id="clip0_4681_44103">
<rect width="56" height="61.9062" fill="white" transform="translate(12 10)"/>
</clipPath>
</defs>
</svg>
