<svg width="40" height="40" viewBox="0 0 40 40" fill="none" xmlns="http://www.w3.org/2000/svg">
<path d="M12 20.0012C11.9998 18.8518 12.2473 17.7158 12.7257 16.6707C13.204 15.6256 13.9019 14.6958 14.7719 13.9446C15.6419 13.1935 16.6636 12.6387 17.7673 12.3179C18.871 11.9971 20.0309 11.9179 21.168 12.0857C21.2645 12.0998 21.3557 12.1382 21.4331 12.1975C21.5105 12.2567 21.5714 12.3348 21.6102 12.4242C21.6489 12.5137 21.6641 12.6116 21.6543 12.7085C21.6445 12.8055 21.6101 12.8984 21.5543 12.9783C21.3355 13.2916 21.1988 13.6548 21.1566 14.0346C21.1145 14.4144 21.1682 14.7987 21.3129 15.1524C21.4577 15.5061 21.6888 15.8179 21.9851 16.0592C22.2814 16.3005 22.6335 16.4636 23.0091 16.5337C23.1227 16.5549 23.2272 16.6101 23.3089 16.6919C23.3905 16.7737 23.4454 16.8784 23.4663 16.992C23.5363 17.3679 23.6995 17.7201 23.9408 18.0166C24.1822 18.3131 24.4941 18.5443 24.848 18.689C25.2018 18.8338 25.5863 18.8874 25.9663 18.8451C26.3462 18.8028 26.7095 18.6659 27.0229 18.4469C27.1028 18.3913 27.1955 18.3572 27.2923 18.3475C27.3892 18.3379 27.4868 18.3531 27.5761 18.3918C27.6654 18.4305 27.7433 18.4914 27.8025 18.5686C27.8617 18.6458 27.9002 18.7369 27.9143 18.8332C27.9714 19.2149 28 19.6042 28 20.0012C28 22.1229 27.1571 24.1577 25.6569 25.658C24.1566 27.1583 22.1217 28.0012 20 28.0012C17.8783 28.0012 15.8434 27.1583 14.3431 25.658C12.8429 24.1577 12 22.1229 12 20.0012ZM19.9347 13.6884C14.0747 13.6888 11.2591 20.3216 15.6061 24.5469C19.9523 28.7714 26.6373 25.7101 26.4713 19.8526C25.5976 20.1608 24.7925 20.2058 23.9661 19.7874C23.1396 19.3689 22.5024 18.6095 22.2337 17.723C21.3471 17.4543 20.5878 16.8171 20.1693 15.9906C19.8314 15.3232 19.8786 14.4004 20.1289 13.6907L19.9347 13.6884ZM20.8571 20.0012C20.8571 20.2285 20.7668 20.4465 20.6061 20.6072C20.4453 20.768 20.2273 20.8583 20 20.8583C19.7727 20.8583 19.5547 20.768 19.3939 20.6072C19.2332 20.4465 19.1429 20.2285 19.1429 20.0012C19.1429 19.7738 19.2332 19.5558 19.3939 19.3951C19.5547 19.2343 19.7727 19.144 20 19.144C20.2273 19.144 20.4453 19.2343 20.6061 19.3951C20.7668 19.5558 20.8571 19.7738 20.8571 20.0012ZM16.8571 24.0012C17.0845 24.0012 17.3025 23.9108 17.4632 23.7501C17.624 23.5894 17.7143 23.3713 17.7143 23.144C17.7143 22.9167 17.624 22.6987 17.4632 22.5379C17.3025 22.3772 17.0845 22.2869 16.8571 22.2869C16.6298 22.2869 16.4118 22.3772 16.2511 22.5379C16.0903 22.6987 16 22.9167 16 23.144C16 23.3713 16.0903 23.5894 16.2511 23.7501C16.4118 23.9108 16.6298 24.0012 16.8571 24.0012ZM17.1429 18.0012C17.1429 18.2285 17.0526 18.4465 16.8918 18.6072C16.7311 18.768 16.513 18.8583 16.2857 18.8583C16.0584 18.8583 15.8404 18.768 15.6796 18.6072C15.5189 18.4465 15.4286 18.2285 15.4286 18.0012C15.4286 17.7738 15.5189 17.5558 15.6796 17.3951C15.8404 17.2343 16.0584 17.144 16.2857 17.144C16.513 17.144 16.7311 17.2343 16.8918 17.3951C17.0526 17.5558 17.1429 17.7738 17.1429 18.0012ZM22 24.5726C22.2273 24.5726 22.4453 24.4823 22.6061 24.3215C22.7668 24.1608 22.8571 23.9428 22.8571 23.7154C22.8571 23.4881 22.7668 23.2701 22.6061 23.1093C22.4453 22.9486 22.2273 22.8583 22 22.8583C21.7727 22.8583 21.5547 22.9486 21.3939 23.1093C21.2332 23.2701 21.1429 23.4881 21.1429 23.7154C21.1429 23.9428 21.2332 24.1608 21.3939 24.3215C21.5547 24.4823 21.7727 24.5726 22 24.5726Z" fill="#002E75"/>
</svg>
