<svg width="24" height="24" viewBox="0 0 24 24" fill="none" xmlns="http://www.w3.org/2000/svg">
<path d="M11.8605 17.4C12.1493 17.4 12.3935 17.3002 12.5931 17.1005C12.7928 16.9009 12.8923 16.6569 12.8918 16.3687C12.8912 16.0806 12.7917 15.8363 12.5931 15.6361C12.3946 15.436 12.1504 15.3364 11.8605 15.3375C11.5707 15.3386 11.3268 15.4384 11.1288 15.637C10.9308 15.8355 10.8309 16.0794 10.8293 16.3687C10.8276 16.658 10.9275 16.9023 11.1288 17.1013C11.3301 17.3005 11.574 17.4 11.8605 17.4ZM11.9843 8.9025C12.328 8.9025 12.6272 9.0125 12.8819 9.2325C13.1365 9.4525 13.2636 9.7275 13.263 10.0575C13.263 10.36 13.1704 10.6281 12.985 10.8619C12.7997 11.0956 12.5898 11.3156 12.3555 11.5219C12.0393 11.7969 11.761 12.0994 11.5206 12.4294C11.2803 12.7594 11.1598 13.1306 11.1593 13.5431C11.1593 13.7356 11.2316 13.8973 11.3763 14.0282C11.5209 14.1591 11.6892 14.2243 11.8812 14.2237C12.0874 14.2237 12.2629 14.155 12.4075 14.0175C12.5522 13.88 12.6448 13.7081 12.6855 13.5019C12.7405 13.2131 12.8643 12.9555 13.0568 12.7289C13.2493 12.5022 13.4555 12.2856 13.6755 12.0788C13.9918 11.7762 14.2635 11.4462 14.4906 11.0887C14.7178 10.7312 14.8311 10.3325 14.8305 9.8925C14.8305 9.19125 14.5454 8.61732 13.975 8.17072C13.4047 7.72412 12.7411 7.50055 11.9843 7.5C11.4618 7.5 10.9635 7.61 10.4894 7.83C10.0153 8.05 9.65421 8.38688 9.40616 8.84062C9.30991 9.00562 9.27911 9.18107 9.31376 9.36697C9.34841 9.55287 9.44108 9.69367 9.59178 9.78937C9.78428 9.89937 9.98366 9.93375 10.1899 9.8925C10.3962 9.85125 10.568 9.73438 10.7055 9.54187C10.8568 9.33563 11.046 9.1775 11.2731 9.0675C11.5003 8.9575 11.7373 8.9025 11.9843 8.9025Z" fill="#002E75"/>
<path fill-rule="evenodd" clip-rule="evenodd" d="M11.5223 3.01291C16.4849 2.74919 20.7221 6.55736 20.987 11.5191C21.2518 16.4809 17.4445 20.7183 12.4819 20.9846C7.51788 21.2509 3.27791 17.4424 3.01304 12.4787C2.7479 7.51525 6.558 3.27664 11.5223 3.01291ZM19.3543 11.6394C19.156 7.58122 15.7074 4.45105 11.6484 4.64507C7.58361 4.83966 4.44746 8.29357 4.64602 12.3575C4.84459 16.4214 8.30251 19.5539 12.3667 19.3513C16.4252 19.149 19.5526 15.6976 19.3543 11.6394Z" fill="#002E75"/>
</svg>
