<svg width="24" height="24" viewBox="0 0 24 24" fill="none" xmlns="http://www.w3.org/2000/svg">
<path d="M6.62511 20C6.17823 20 5.79582 19.8435 5.47786 19.5304C5.1599 19.2173 5.00065 18.8405 5.00011 18.4V5.6C5.00011 5.16 5.15936 4.78347 5.47786 4.4704C5.79636 4.15733 6.17877 4.00053 6.62511 4H16.3751C16.822 4 17.2047 4.1568 17.5232 4.4704C17.8417 4.784 18.0006 5.16053 18.0001 5.6V18.4C18.0001 18.84 17.8411 19.2168 17.5232 19.5304C17.2052 19.844 16.8225 20.0005 16.3751 20H6.62511ZM6.24783 18.7205H16.9466L16.7999 5.34633H14.7501L14.7501 10.5C14.7501 10.66 14.6824 10.7768 14.547 10.8504C14.4116 10.924 14.2761 10.9205 14.1407 10.84L13.1454 10.24C13.01 10.16 12.8711 10.12 12.7286 10.12C12.5861 10.12 12.4475 10.16 12.3126 10.24L11.3173 10.84C11.1819 10.92 11.0432 10.9235 10.9013 10.8504C10.7594 10.7773 10.6881 10.6605 10.6876 10.5L10.6876 5.34633H6.24783L6.24783 18.7205ZM10.9013 10.8504C10.7594 10.7773 10.6881 10.6605 10.6876 10.5C10.6871 10.6605 10.7588 10.7773 10.9013 10.8504Z" fill="#002E75"/>
</svg>
