<svg width="24" height="24" viewBox="0 0 24 24" fill="none" xmlns="http://www.w3.org/2000/svg">
<path d="M12.007 5.08964L17.0626 6.93882C17.3379 7.03951 17.5753 7.21979 17.7428 7.45557C17.9103 7.69135 18 7.97139 18 8.25825V12.0362C18 13.2136 17.6639 14.3678 17.0293 15.3694C16.3947 16.371 15.4866 17.1804 14.4069 17.707L11.9846 18.8884C11.8342 18.9618 11.6682 19 11.5 19C11.3318 19 11.1658 18.9618 11.0154 18.8884L8.59306 17.707C7.51336 17.1804 6.60533 16.371 5.97072 15.3694C5.3361 14.3678 4.99997 13.2136 5 12.0362V8.25825C4.99996 7.97139 5.0897 7.69135 5.25722 7.45557C5.42474 7.21979 5.66206 7.03951 5.93744 6.93882L10.993 5.08964C11.3199 4.97012 11.6801 4.97012 12.007 5.08964ZM11.5 6.40907L6.44444 8.25825V12.0362C6.44461 12.9519 6.70617 13.8495 7.19983 14.6283C7.69348 15.4072 8.39973 16.0366 9.23944 16.4461L11.5 17.5499L13.7606 16.4475C14.6005 16.0379 15.3069 15.4083 15.8006 14.6291C16.2942 13.85 16.5557 12.9521 16.5556 12.0362V8.25825L11.5 6.40907ZM11.5 13.4057C11.6915 13.4057 11.8752 13.4799 12.0107 13.612C12.1461 13.7441 12.2222 13.9233 12.2222 14.1101C12.2222 14.2969 12.1461 14.4761 12.0107 14.6082C11.8752 14.7403 11.6915 14.8146 11.5 14.8146C11.3085 14.8146 11.1248 14.7403 10.9893 14.6082C10.8539 14.4761 10.7778 14.2969 10.7778 14.1101C10.7778 13.9233 10.8539 13.7441 10.9893 13.612C11.1248 13.4799 11.3085 13.4057 11.5 13.4057ZM11.5 8.47452C11.6915 8.47452 11.8752 8.54874 12.0107 8.68084C12.1461 8.81295 12.2222 8.99213 12.2222 9.17897V11.9968C12.2222 12.1836 12.1461 12.3628 12.0107 12.4949C11.8752 12.627 11.6915 12.7012 11.5 12.7012C11.3085 12.7012 11.1248 12.627 10.9893 12.4949C10.8539 12.3628 10.7778 12.1836 10.7778 11.9968V9.17897C10.7778 8.99213 10.8539 8.81295 10.9893 8.68084C11.1248 8.54874 11.3085 8.47452 11.5 8.47452Z" fill="#002E75"/>
</svg>
