<svg width="24" height="24" viewBox="0 0 24 24" fill="none" xmlns="http://www.w3.org/2000/svg">
<path d="M7.92857 8C7.41708 8 6.92654 8.19395 6.56487 8.53919C6.20319 8.88443 6 9.35267 6 9.84091V15.1591C6 15.6473 6.20319 16.1156 6.56487 16.4608C6.92654 16.806 7.41708 17 7.92857 17H16.0714C16.5829 17 17.0735 16.806 17.4351 16.4608C17.7968 16.1156 18 15.6473 18 15.1591V9.84091C18 9.35267 17.7968 8.88443 17.4351 8.53919C17.0735 8.19395 16.5829 8 16.0714 8H7.92857ZM17.1429 10.2103L12 12.8535L6.85714 10.2103V9.84091C6.85714 9.56966 6.97003 9.30953 7.17096 9.11773C7.37189 8.92593 7.64441 8.81818 7.92857 8.81818H16.0714C16.3556 8.81818 16.6281 8.92593 16.829 9.11773C17.03 9.30953 17.1429 9.56966 17.1429 9.84091V10.2103ZM6.85714 11.1394L11.7969 13.6786C11.8593 13.7107 11.9291 13.7275 12 13.7275C12.0709 13.7275 12.1407 13.7107 12.2031 13.6786L17.1429 11.1394V15.1591C17.1429 15.4303 17.03 15.6905 16.829 15.8823C16.6281 16.0741 16.3556 16.1818 16.0714 16.1818H7.92857C7.64441 16.1818 7.37189 16.0741 7.17096 15.8823C6.97003 15.6905 6.85714 15.4303 6.85714 15.1591V11.1394Z" fill="#002E75"/>
</svg>
