<svg width="24" height="24" viewBox="0 0 24 24" fill="none" xmlns="http://www.w3.org/2000/svg">
<path d="M9.91667 8.75C9.91667 8.21128 10.1362 7.69462 10.5269 7.31369C10.9176 6.93276 11.4475 6.71875 12 6.71875C12.5525 6.71875 13.0824 6.93276 13.4731 7.31369C13.8638 7.69462 14.0833 8.21128 14.0833 8.75C14.0833 9.28872 13.8638 9.80538 13.4731 10.1863C13.0824 10.5672 12.5525 10.7812 12 10.7812C11.4475 10.7812 10.9176 10.5672 10.5269 10.1863C10.1362 9.80538 9.91667 9.28872 9.91667 8.75ZM12 5.5C11.1159 5.5 10.2681 5.84241 9.64298 6.4519C9.01786 7.0614 8.66667 7.88805 8.66667 8.75C8.66667 9.61195 9.01786 10.4386 9.64298 11.0481C10.2681 11.6576 11.1159 12 12 12C12.8841 12 13.7319 11.6576 14.357 11.0481C14.9821 10.4386 15.3333 9.61195 15.3333 8.75C15.3333 7.88805 14.9821 7.0614 14.357 6.4519C13.7319 5.84241 12.8841 5.5 12 5.5ZM8.875 12.8125C8.37772 12.8125 7.90081 13.0051 7.54917 13.3479C7.19754 13.6908 7 14.1558 7 14.6406V14.8665C7.00087 14.923 7.00477 14.9794 7.01167 15.0355C7.08093 15.64 7.30377 16.2181 7.66 16.7174C8.34167 17.6664 9.64333 18.5 12 18.5C14.3567 18.5 15.6583 17.6672 16.34 16.7166C16.6962 16.2172 16.9191 15.6392 16.9883 15.0347C16.9942 14.9788 16.9981 14.9227 17 14.8665V14.6406C17 14.1558 16.8025 13.6908 16.4508 13.3479C16.0992 13.0051 15.6223 12.8125 15.125 12.8125H8.875ZM8.25 14.8494V14.6406C8.25 14.479 8.31585 14.324 8.43306 14.2097C8.55027 14.0955 8.70924 14.0312 8.875 14.0312H15.125C15.2908 14.0312 15.4497 14.0955 15.5669 14.2097C15.6842 14.324 15.75 14.479 15.75 14.6406V14.8494L15.7442 14.9144C15.6962 15.3109 15.5491 15.6898 15.3158 16.0178C14.905 16.5906 14.0183 17.2812 12 17.2812C9.98167 17.2812 9.095 16.5906 8.68333 16.0178C8.45034 15.6897 8.30354 15.3108 8.25583 14.9144L8.25 14.8494Z" fill="#002E75"/>
</svg>
