<svg width="24" height="24" viewBox="0 0 24 24" fill="none" xmlns="http://www.w3.org/2000/svg">
<path fill-rule="evenodd" clip-rule="evenodd" d="M11.5016 6.15979C10.5394 6.1596 9.59511 6.41934 8.76843 6.91156C7.94174 7.40378 7.26339 8.11021 6.80507 8.95616C6.34676 9.80211 6.1255 10.7562 6.16469 11.7175C6.20387 12.6788 6.50205 13.6117 7.0277 14.4176C7.08993 14.4964 7.13082 14.5899 7.14643 14.6891C7.16204 14.7883 7.15185 14.8899 7.11684 14.984L6.48449 16.6675L8.79663 16.2496L8.8022 16.2487C8.94252 16.2228 9.08746 16.2499 9.20891 16.3249C9.93241 16.6681 10.7238 16.8442 11.5246 16.8401C12.3254 16.8361 13.115 16.652 13.835 16.3016C14.555 15.9511 15.187 15.4432 15.6841 14.8154C16.1813 14.1876 16.5309 13.4561 16.7071 12.6749C16.8833 11.8938 16.8815 11.083 16.7019 10.3026C16.5224 9.5222 16.1696 8.79219 15.6698 8.16657C15.1699 7.54096 14.5358 7.03577 13.8142 6.6884C13.0927 6.34103 12.3023 6.16037 11.5016 6.15979ZM8.8217 17.4243C9.63884 17.7948 10.547 18 11.5016 18C12.9372 17.9997 14.3323 17.524 15.4692 16.6473C16.6061 15.7707 17.4208 14.5423 17.7861 13.1539C18.1514 11.7655 18.0467 10.2952 17.4885 8.97252C16.9302 7.64985 15.9498 6.54921 14.7002 5.84239C13.4506 5.13556 12.0022 4.86232 10.5809 5.06531C9.15972 5.2683 7.84568 5.93611 6.84393 6.96449C5.84217 7.99288 5.20906 9.32398 5.04342 10.75C4.87777 12.1761 5.18891 13.6169 5.92827 14.8475L5.03777 17.2163C5.00167 17.3123 4.99167 17.4162 5.00879 17.5173C5.02591 17.6185 5.06953 17.7133 5.13521 17.7921C5.2009 17.8709 5.28629 17.9309 5.38271 17.9659C5.47912 18.001 5.5831 18.0099 5.68406 17.9916L8.8217 17.4243Z" fill="#002E75"/>
</svg>
