<svg width="40" height="36" viewBox="0 0 40 36" fill="none" xmlns="http://www.w3.org/2000/svg">
<path d="M18.0869 6.93759C18.6099 5.68747 20.3895 5.68747 20.9137 6.93759L23.0484 12.0379L28.5893 12.4797C29.9463 12.5881 30.4975 14.2715 29.4625 15.1516L25.2408 18.7461L26.5304 24.1203C26.8464 25.4361 25.4061 26.4769 24.2438 25.7721L19.5003 22.8921L14.7568 25.7721C13.5933 26.4781 12.153 25.4361 12.469 24.1203L13.7586 18.7461L9.53688 15.1516C8.50318 14.2715 9.0531 12.5881 10.4114 12.4797L15.9522 12.0379L18.0869 6.93759ZM19.5003 8.3143L17.5762 12.9119C17.4679 13.17 17.2902 13.3935 17.0624 13.5577C16.8347 13.722 16.5658 13.8207 16.2853 13.8431L11.292 14.2411L15.0961 17.4802C15.5321 17.8515 15.7219 18.4345 15.5896 18.9896L14.4261 23.8318L18.7018 21.2366C18.9421 21.0908 19.2182 21.0136 19.4997 21.0136C19.7813 21.0136 20.0573 21.0908 20.2976 21.2366L24.5721 23.8318L23.411 18.9896C23.3455 18.7172 23.357 18.4322 23.4441 18.1659C23.5312 17.8995 23.6905 17.6623 23.9046 17.4802L27.7087 14.2423L22.7153 13.8431C22.4346 13.821 22.1655 13.7223 21.9375 13.558C21.7095 13.3938 21.5316 13.1702 21.4232 12.9119L19.5003 8.3143Z" fill="#002E75"/>
<path d="M18.0869 6.93759C18.6099 5.68747 20.3895 5.68747 20.9137 6.93759L23.0484 12.0379L28.5893 12.4797C29.9463 12.5881 30.4975 14.2715 29.4625 15.1516L25.2408 18.7461L26.5304 24.1203C26.8464 25.4361 25.4061 26.4769 24.2438 25.7721L19.5003 22.8921L14.7568 25.7721C13.5933 26.4781 12.153 25.4361 12.469 24.1203L13.7586 18.7461L9.53688 15.1516C8.50318 14.2715 9.0531 12.5881 10.4114 12.4797L15.9522 12.0379L18.0869 6.93759ZM19.5003 8.3143L17.5762 12.9119C17.4679 13.17 17.2902 13.3935 17.0624 13.5577C16.8347 13.722 16.5658 13.8207 16.2853 13.8431L11.292 14.2411L15.0961 17.4802C15.5321 17.8515 15.7219 18.4345 15.5896 18.9896L14.4261 23.8318L18.7018 21.2366C18.9421 21.0908 19.2182 21.0136 19.4997 21.0136C19.7813 21.0136 20.0573 21.0908 20.2976 21.2366L24.5721 23.8318L23.411 18.9896C23.3455 18.7172 23.357 18.4322 23.4441 18.1659C23.5312 17.8995 23.6905 17.6623 23.9046 17.4802L27.7087 14.2423L22.7153 13.8431C22.4346 13.821 22.1655 13.7223 21.9375 13.558C21.7095 13.3938 21.5316 13.1702 21.4232 12.9119L19.5003 8.3143Z" fill="#F6F9FF"/>
</svg>
