<svg width="24" height="24" viewBox="0 0 24 24" fill="none" xmlns="http://www.w3.org/2000/svg">
<path d="M11.8605 17.3999C12.1493 17.3999 12.3935 17.3001 12.5931 17.1004C12.7928 16.9008 12.8923 16.6568 12.8918 16.3686C12.8912 16.0804 12.7917 15.8362 12.5931 15.636C12.3946 15.4358 12.1504 15.3363 11.8605 15.3374C11.5707 15.3385 11.3268 15.4383 11.1288 15.6369C10.9308 15.8354 10.8309 16.0793 10.8293 16.3686C10.8276 16.6579 10.9275 16.9021 11.1288 17.1012C11.3301 17.3003 11.574 17.3999 11.8605 17.3999ZM11.9843 8.90238C12.328 8.90238 12.6272 9.01238 12.8819 9.23238C13.1365 9.45238 13.2636 9.72738 13.263 10.0574C13.263 10.3599 13.1704 10.628 12.985 10.8618C12.7997 11.0955 12.5898 11.3155 12.3555 11.5218C12.0393 11.7968 11.761 12.0993 11.5206 12.4293C11.2803 12.7593 11.1598 13.1305 11.1593 13.543C11.1593 13.7355 11.2316 13.8972 11.3763 14.0281C11.5209 14.159 11.6892 14.2242 11.8812 14.2236C12.0874 14.2236 12.2629 14.1549 12.4075 14.0174C12.5522 13.8799 12.6448 13.708 12.6855 13.5018C12.7405 13.213 12.8643 12.9553 13.0568 12.7287C13.2493 12.5021 13.4555 12.2854 13.6755 12.0786C13.9918 11.7761 14.2635 11.4461 14.4906 11.0886C14.7178 10.7311 14.8311 10.3324 14.8305 9.89238C14.8305 9.19113 14.5454 8.6172 13.975 8.1706C13.4047 7.724 12.7411 7.50043 11.9843 7.49988C11.4618 7.49988 10.9635 7.60988 10.4894 7.82988C10.0153 8.04988 9.65421 8.38675 9.40616 8.8405C9.30991 9.0055 9.27911 9.18095 9.31376 9.36685C9.34841 9.55275 9.44108 9.69355 9.59178 9.78925C9.78428 9.89925 9.98366 9.93363 10.1899 9.89238C10.3962 9.85113 10.568 9.73425 10.7055 9.54175C10.8568 9.3355 11.046 9.17738 11.2731 9.06738C11.5003 8.95738 11.7373 8.90238 11.9843 8.90238Z" fill="#002E75"/>
<path fill-rule="evenodd" clip-rule="evenodd" d="M11.5223 3.01279C16.4849 2.74907 20.7221 6.55724 20.987 11.519C21.2518 16.4807 17.4445 20.7182 12.4819 20.9845C7.51788 21.2508 3.27791 17.4423 3.01304 12.4786C2.7479 7.51513 6.558 3.27651 11.5223 3.01279ZM19.3543 11.6393C19.156 7.5811 15.7074 4.45093 11.6484 4.64495C7.58361 4.83954 4.44746 8.29345 4.64602 12.3573C4.84459 16.4212 8.30251 19.5537 12.3667 19.3512C16.4252 19.1489 19.5526 15.6975 19.3543 11.6393Z" fill="#002E75"/>
</svg>
