<svg width="24" height="24" viewBox="0 0 24 24" fill="none" xmlns="http://www.w3.org/2000/svg">
<path d="M6.89583 6C6.39303 6 5.91081 6.19974 5.55528 6.55528C5.19974 6.91081 5 7.39303 5 7.89583V16.2917C5 17.01 5.28534 17.6988 5.79325 18.2067C6.30116 18.7147 6.99004 19 7.70833 19H15.2917C16.01 19 16.6988 18.7147 17.2067 18.2067C17.7147 17.6988 18 17.01 18 16.2917V14.6667H14.75V7.89583C14.75 7.39303 14.5503 6.91081 14.1947 6.55528C13.8392 6.19974 13.357 6 12.8542 6H6.89583ZM14.75 15.75H16.9167V16.2917C16.9167 16.7226 16.7455 17.136 16.4407 17.4407C16.136 17.7455 15.7226 17.9167 15.2917 17.9167H14.75V15.75ZM6.08333 7.89583C6.08333 7.68034 6.16894 7.47368 6.32131 7.32131C6.47368 7.16894 6.68034 7.08333 6.89583 7.08333H12.8542C13.0697 7.08333 13.2763 7.16894 13.4287 7.32131C13.5811 7.47368 13.6667 7.68034 13.6667 7.89583V17.9167H7.70833C7.27736 17.9167 6.86403 17.7455 6.55928 17.4407C6.25454 17.136 6.08333 16.7226 6.08333 16.2917V7.89583ZM7.70833 9.79167C7.70833 9.64801 7.7654 9.51023 7.86698 9.40865C7.96857 9.30707 8.10634 9.25 8.25 9.25H11.5C11.6437 9.25 11.7814 9.30707 11.883 9.40865C11.9846 9.51023 12.0417 9.64801 12.0417 9.79167C12.0417 9.93533 11.9846 10.0731 11.883 10.1747C11.7814 10.2763 11.6437 10.3333 11.5 10.3333H8.25C8.10634 10.3333 7.96857 10.2763 7.86698 10.1747C7.7654 10.0731 7.70833 9.93533 7.70833 9.79167ZM7.70833 12.5C7.70833 12.3563 7.7654 12.2186 7.86698 12.117C7.96857 12.0154 8.10634 11.9583 8.25 11.9583H11.5C11.6437 11.9583 11.7814 12.0154 11.883 12.117C11.9846 12.2186 12.0417 12.3563 12.0417 12.5C12.0417 12.6437 11.9846 12.7814 11.883 12.883C11.7814 12.9846 11.6437 13.0417 11.5 13.0417H8.25C8.10634 13.0417 7.96857 12.9846 7.86698 12.883C7.7654 12.7814 7.70833 12.6437 7.70833 12.5ZM8.25 14.6667C8.10634 14.6667 7.96857 14.7237 7.86698 14.8253C7.7654 14.9269 7.70833 15.0647 7.70833 15.2083C7.70833 15.352 7.7654 15.4898 7.86698 15.5914C7.96857 15.6929 8.10634 15.75 8.25 15.75H9.875C10.0187 15.75 10.1564 15.6929 10.258 15.5914C10.3596 15.4898 10.4167 15.352 10.4167 15.2083C10.4167 15.0647 10.3596 14.9269 10.258 14.8253C10.1564 14.7237 10.0187 14.6667 9.875 14.6667H8.25Z" fill="#002E75"/>
</svg>
