<svg width="24" height="24" viewBox="0 0 24 24" fill="none" xmlns="http://www.w3.org/2000/svg">
<path fill-rule="evenodd" clip-rule="evenodd" d="M14.273 7.41372C14.2231 7.27852 14.0636 7.14967 13.7923 7.15545C9.8308 7.24385 7.81176 8.06545 6.91938 8.58747C6.59236 8.77872 6.38291 9.15254 6.33236 9.64278C6.25089 10.4323 6.15556 11.715 6.15556 13.3871C6.15556 14.9708 6.24107 16.1419 6.31878 16.8789C6.3572 17.2432 6.60189 17.5029 6.9292 17.5598C7.6962 17.6924 8.99678 17.8443 10.9309 17.8443C12.8474 17.8443 14.1549 17.695 14.9369 17.563C15.2792 17.5052 15.5352 17.2293 15.5696 16.8457C15.6002 16.499 15.632 16.0616 15.6571 15.5353C15.2377 15.5578 14.8172 15.5464 14.3996 15.5012C13.8386 15.4367 13.4304 14.9887 13.398 14.4328C13.3726 13.9361 13.371 13.4385 13.3931 12.9416C13.4249 12.2503 14.0399 11.8274 14.6613 11.8438C15.0017 11.8522 15.3423 11.8462 15.6822 11.8259C15.6586 11.0563 15.6204 10.3959 15.582 9.87187C15.5574 9.53561 15.318 9.26376 14.986 9.17854C14.8917 9.15435 14.7939 9.14625 14.6968 9.15456C13.3916 9.2655 11.3177 9.40532 9.14642 9.40532C8.99319 9.40532 8.84623 9.34444 8.73787 9.23609C8.62952 9.12774 8.56864 8.98078 8.56864 8.82754C8.56864 8.6743 8.62952 8.52734 8.73787 8.41899C8.84623 8.31063 8.99319 8.24976 9.14642 8.24976C11.1938 8.24976 13.1597 8.12265 14.4522 8.01576C14.4046 7.81165 14.3448 7.61061 14.273 7.41372ZM16.8355 11.7338C16.815 11.0845 16.7813 10.4357 16.7344 9.78781C16.6824 9.07078 16.2493 8.4959 15.664 8.2047C15.5918 7.72514 15.4618 7.29874 15.3572 7.01447C15.0949 6.30178 14.3976 5.98603 13.7666 6.00047C9.65516 6.09205 7.4336 6.94803 6.33582 7.59023C5.59916 8.02096 5.25884 8.78796 5.18287 9.52463C5.09793 10.3488 5 11.6714 5 13.3871C5 15.0124 5.08782 16.224 5.16987 17.0002C5.25884 17.8452 5.86349 18.5481 6.73218 18.6983C7.56938 18.8433 8.9364 18.9999 10.9309 18.9999C12.9075 18.9999 14.2797 18.8459 15.1293 18.7023C16.026 18.5513 16.6431 17.8175 16.7205 16.9476C16.756 16.5467 16.7927 16.0333 16.8196 15.4105C16.8957 15.3977 16.9709 15.3845 17.0452 15.3706C17.5557 15.2744 17.9437 14.8636 17.9769 14.3315C17.9905 14.1177 18 13.8467 18 13.5096C18 13.2383 17.9939 13.0008 17.9844 12.7969C17.9552 12.1579 17.4231 11.7367 16.8355 11.7338ZM15.1111 13.0043C15.2643 13.0043 15.4113 13.0652 15.5197 13.1735C15.628 13.2819 15.6889 13.4288 15.6889 13.5821V13.871C15.6889 14.0242 15.628 14.1712 15.5197 14.2795C15.4113 14.3879 15.2643 14.4487 15.1111 14.4487C14.9579 14.4487 14.8109 14.3879 14.7026 14.2795C14.5942 14.1712 14.5333 14.0242 14.5333 13.871V13.5821C14.5333 13.4288 14.5942 13.2819 14.7026 13.1735C14.8109 13.0652 14.9579 13.0043 15.1111 13.0043Z" fill="#002E75"/>
</svg>
