<svg width="70" height="70" viewBox="0 0 70 70" fill="none" xmlns="http://www.w3.org/2000/svg">
<path d="M15.3594 28.8487C15.272 28.6757 15.3078 28.0847 15.3157 27.8547C15.3673 25.8328 15.7101 23.8291 16.334 21.9055C17.9845 16.7961 21.6096 12.5587 26.4016 10.137C31.0462 7.77462 36.4389 7.35228 41.3948 8.96277C49.3956 11.5836 55.0554 19.1791 55.2993 27.5877C55.3072 27.8553 55.3624 28.7619 55.2386 28.9184C55.2168 29.217 55.2356 29.7558 55.2362 30.0684L55.2404 32.3797L55.2453 39.5395L55.2671 62.0802C55.9413 62.0924 56.6555 62.0802 57.3327 62.0796L57.357 51.4161L57.3497 48.5847C57.3473 48.1927 57.3188 47.3019 57.3697 46.9493C57.0566 46.4626 56.5038 45.8243 56.2538 45.3783C56.5924 44.8024 57.1288 44.2017 57.5342 43.6628C57.7059 43.434 58.3249 43.5062 58.6046 43.5075L60.2381 43.5196C60.6174 43.9686 61.2916 44.8764 61.6229 45.3631C61.28 45.9074 60.8298 46.3995 60.4882 46.9657C60.5136 48.6156 60.49 50.3372 60.49 51.9913L60.4936 62.0796C60.7133 62.0766 61.149 62.0389 61.3134 62.1858L61.2952 62.2319C61.0052 62.3563 59.0567 62.2981 58.6258 62.2993L47.3591 62.3023C46.9422 62.3023 44.2389 62.3424 44.0817 62.2799C44.0283 62.2586 44.0356 62.2483 44.0132 62.1998L44.0544 62.1415C44.3263 62.0292 46.563 62.0832 46.9762 62.0845L51.8125 62.082L51.815 52.4841C51.8465 51.9325 51.8289 51.2273 51.8289 50.6679C51.8326 49.6138 51.8259 48.5598 51.8095 47.5058C51.7573 45.391 51.8405 43.1846 51.8216 41.0596C51.3404 41.5262 50.8665 42.0578 50.3981 42.5426C48.827 44.1713 47.2736 45.8158 45.7365 47.4766L37.0894 56.4951L34.3187 59.4011C33.9698 59.7676 33.4412 60.3684 33.0923 60.7003C33.0529 61.0213 33.0456 61.3733 33.031 61.6985C33.3223 61.7186 33.5936 61.7841 33.6597 62.1288C33.636 62.2064 33.6312 62.2392 33.5511 62.278C33.3891 62.3557 29.6183 62.2902 29.1426 62.2883L11.9273 62.2774C11.5984 62.2762 9.33496 62.3357 9.19903 62.2289C9.18022 62.1421 9.17537 62.1828 9.21421 62.1027C9.42416 62.0353 9.86046 62.0729 10.0965 62.0705L10.0941 52.0739L10.0971 48.8286C10.0977 48.2212 10.0819 47.5385 10.1111 46.9384C9.86471 46.5883 9.18265 45.6968 9 45.3746C9.18629 45.1131 10.207 43.7114 10.3975 43.5518C11.1408 43.5336 12.1554 43.5214 12.8957 43.5499C13.1021 43.7654 13.4388 44.2787 13.6336 44.5397C13.8217 44.7921 14.1051 45.1495 14.2671 45.3989C13.9425 45.9104 13.5469 46.3935 13.2107 46.9099C13.241 48.5744 13.218 50.2947 13.2167 51.964L13.2204 62.0687C13.8236 62.0341 14.7198 62.0584 15.3461 62.0547L15.3764 36.1225L15.3843 31.032C15.3849 30.7535 15.4092 29.0331 15.3594 28.8487Z" fill="#002C6E"/>
<path d="M15.3594 28.8487C15.272 28.6757 15.3078 28.0847 15.3157 27.8547C15.3672 25.8328 15.7101 23.8291 16.3339 21.9055C17.9844 16.7961 21.6095 12.5587 26.4015 10.137C31.0461 7.77462 36.4389 7.35228 41.3947 8.96277C49.3955 11.5836 55.0553 19.1791 55.2992 27.5877C55.3071 27.8553 55.3623 28.7619 55.2386 28.9184C55.2167 29.217 55.2355 29.7558 55.2361 30.0684L55.2404 32.3797L55.2452 39.5395L55.2671 62.0802C54.2318 62.0535 53.0819 62.079 52.0376 62.0796L52.0546 29.0404C52.0546 27.9148 52.0285 26.9038 51.8762 25.7855C51.4108 22.1749 49.7784 18.8156 47.2268 16.219C40.4966 9.48827 30.1165 9.48281 23.396 16.2397C21.2315 18.437 19.7272 21.198 19.0555 24.2084C18.5512 26.4797 18.6744 28.6824 18.6811 31.0016L18.6974 37.841L18.7053 62.0669C17.6883 62.0602 16.6713 62.0608 15.6543 62.0681C14.9576 62.0784 13.8988 62.1142 13.2197 62.0687C13.8229 62.0341 14.7192 62.0584 15.3454 62.0547L15.3757 36.1225L15.3836 31.032C15.3842 30.7535 15.4085 29.0331 15.3587 28.8487H15.3594Z" fill="#FFB700"/>
<path d="M15.3594 28.8487C15.272 28.6757 15.3078 28.0847 15.3157 27.8547C15.3673 25.8328 15.7101 23.8291 16.3339 21.9055C17.9845 16.7961 21.6096 12.5587 26.4016 10.137C31.0461 7.77462 36.4389 7.35228 41.3947 8.96277C49.3956 11.5836 55.0553 19.1791 55.2993 27.5877C55.3072 27.8553 55.3624 28.7619 55.2386 28.9184C55.1961 28.8948 55.1627 28.8839 55.1591 28.8414C55.1288 28.4931 55.1227 27.9366 55.1087 27.6017C54.9971 25.2199 54.4861 22.8734 53.5972 20.6609C51.574 15.7251 47.6795 11.7905 42.7649 9.71643C38.0506 7.74186 32.7464 7.71576 28.0133 9.64422C21.6636 12.2159 17.0779 17.8665 15.8691 24.6095C15.7089 25.5245 15.5985 26.4475 15.539 27.3747C15.5129 27.7691 15.5493 28.3875 15.488 28.7807C15.4832 28.8123 15.4031 28.8317 15.3588 28.8493L15.3594 28.8487Z" fill="#002C6E"/>
<path d="M51.8126 35.7656C51.8247 37.5302 51.8278 39.2949 51.8211 41.0595C51.3399 41.5261 50.866 42.0577 50.3975 42.5425C48.8265 44.1712 47.273 45.8157 45.736 47.4765L37.0889 56.495L34.3182 59.401C33.9693 59.7675 33.4407 60.3683 33.0918 60.7002C33.1088 60.4836 33.1428 59.9508 33.1974 59.7663C33.3837 59.1298 33.715 58.5011 33.9468 57.8609C34.4838 56.3785 34.84 55.2468 34.9523 53.6836C35.2757 53.251 36.2612 52.2461 36.6684 51.8061C38.0998 50.2679 39.5428 48.7405 40.9974 47.2241L48.1268 39.6583C49.3635 38.3476 50.5371 37.0496 51.8132 35.7656H51.8126Z" fill="#FFB700"/>
<path d="M25.0472 15.04C27.7772 12.8281 31.7707 11.265 35.3132 11.3997L35.3157 16.6244C34.6057 16.6244 28.9435 16.571 28.7433 16.6735C28.7069 16.7694 28.6911 16.8653 28.6911 16.9684C28.6941 18.9054 28.6929 20.8423 28.6923 22.7793C28.6923 22.8806 28.7002 23.0062 28.7396 23.0984C28.9733 23.1901 31.304 23.1525 31.7828 23.1531L37.0669 23.1488L40.3632 23.1452C40.8298 23.1452 41.6702 23.1694 42.1059 23.1343C42.1502 21.3041 42.1023 19.4527 42.1302 17.6201C42.135 17.3034 42.1369 16.9496 42.1138 16.6353C41.7971 16.6183 41.4858 16.6256 41.169 16.6231C39.2939 16.6122 37.4134 16.6468 35.539 16.625C35.4935 15.0017 35.5038 13.0369 35.5311 11.4033C39.0822 11.4385 42.9816 12.7662 45.6758 15.1079L45.6831 22.6719C45.6819 24.1009 45.6527 25.6471 45.6861 27.07H51.784C51.8435 27.9681 51.8156 28.8128 51.8119 29.7121C51.4041 30.0659 50.8264 30.7273 50.4448 31.1381L48.1037 33.6412L40.8019 41.3787C39.9396 42.3126 39.0725 43.2422 38.2005 44.1664C37.6944 44.7107 37.2071 45.2666 36.678 45.7884C36.2356 44.258 35.9729 42.6767 35.5693 41.176L35.5268 40.9424C35.3327 39.9733 34.8745 39.8829 33.9983 39.9108C33.883 39.9272 33.8496 39.9321 33.7343 39.9284C33.4637 39.9648 33.2203 39.9782 32.9485 39.9946L32.8714 39.4879C33.9473 38.9933 33.3818 37.7858 32.8441 37.1001C32.8678 36.8416 32.8654 36.6607 32.6754 36.4629C32.2191 35.9878 31.8332 36.7524 31.6796 37.0442C31.1918 37.0922 30.7233 37.1468 30.3738 37.554C30.2197 37.733 30.1869 37.8938 30.1966 38.1207C30.2063 38.3465 30.5097 38.7809 30.6869 38.892C31.6347 39.4867 31.5304 38.9151 31.7403 40.0983C31.2688 40.1572 30.7864 40.2112 30.3186 40.3004C29.3367 40.4879 29.3386 41.4449 29.216 42.2756C29.0952 43.1233 28.9672 43.9692 28.8307 44.8145C28.7985 45.0111 28.722 45.593 28.6777 45.7623C28.6607 45.9068 28.6492 46.0336 28.6158 46.1756C28.5078 47.0603 28.3264 47.9396 28.1935 48.8213C28.0011 48.9426 27.9556 48.9918 27.844 49.1914C27.844 49.3031 27.8379 49.4615 27.8531 49.5683C27.8464 49.6484 27.8379 49.8031 27.8221 49.8759C27.7651 50.3935 27.7117 50.9421 27.6425 51.4561L26.7359 51.4543C26.5132 53.4404 25.8342 55.4635 25.5617 57.4496C25.5399 57.6073 25.5708 57.7603 25.6121 57.9101C24.9082 58.7409 24.1934 59.5631 23.4688 60.3762C22.9816 60.9266 22.4688 61.5237 21.9664 62.0571C20.9475 62.0656 19.9287 62.0668 18.9105 62.062C18.9032 61.4521 18.8643 60.216 18.9086 59.6493C18.9001 59.5182 18.905 59.4593 18.9159 59.3271L18.9171 56.8233L18.9183 56.5363C18.8995 54.0939 18.8965 51.6509 18.9092 49.2078C18.908 49.1035 18.9135 48.9973 18.9165 48.8923C18.9232 48.0889 18.8953 47.286 18.9099 46.4784C18.8771 45.1604 18.8977 43.7671 18.8971 42.4449C18.8965 40.9169 18.8777 39.3477 18.9014 37.8222L18.8947 31.1849C18.8923 29.8517 18.8631 28.3905 18.9062 27.0652L22.9342 27.0616C23.5811 27.0616 24.4064 27.0858 25.0332 27.0512C25.0933 24.965 25.0441 22.6603 25.0447 20.5559L25.0502 16.9897C25.0514 16.3604 25.0678 15.6626 25.0472 15.0387V15.04Z" fill="#FBFCFF"/>
<path d="M18.9091 46.4797C19.8454 45.5391 20.8636 44.3807 21.7568 43.3989L25.7127 39.0881C26.6514 38.0626 27.6217 36.9655 28.5908 35.9733C29.1393 35.4126 29.7 34.8641 30.2735 34.3288C30.4045 34.2057 30.9525 33.7766 30.9628 33.6425C30.8226 33.5163 30.0744 33.5624 29.8463 33.563L27.7194 33.5667C27.4299 33.5667 26.7849 33.6025 26.5573 33.5066C25.9311 33.2439 25.7915 32.5139 26.2916 32.0412C26.4269 31.9131 26.6119 31.8737 26.7904 31.8446C27.5246 31.8106 28.3201 31.8342 29.0544 31.8336L31.2298 31.83C31.6376 31.8294 32.0429 31.83 32.4501 31.8361C33.3852 31.8518 33.8373 32.8385 33.1922 33.5527C32.4434 34.3829 31.6455 35.1741 30.8797 35.9921L25.6429 41.6264C24.0354 43.371 22.4298 45.1532 20.8084 46.8802L19.6069 48.1533C19.4291 48.3444 19.0893 48.7358 18.9157 48.8918C18.9224 48.0884 18.8945 47.2855 18.9091 46.4779V46.4797Z" fill="#FBFCFF"/>
<path d="M27.8216 49.8771C27.7645 50.3947 27.7111 50.9432 27.642 51.4572L26.7354 51.4554C26.5127 53.4415 25.8337 55.4646 25.5612 57.4507C25.5393 57.6085 25.5703 57.7614 25.6116 57.9113C24.9077 58.742 24.1928 59.5642 23.4683 60.3774C22.981 60.9278 22.4683 61.5249 21.9658 62.0583C20.947 62.0668 19.9281 62.068 18.9099 62.0631C18.9026 61.4533 18.8638 60.2172 18.9081 59.6504C19.5634 58.9004 20.3353 58.1079 21.0192 57.3724L23.8852 54.2443C25.1935 52.8159 26.4933 51.2758 27.8228 49.8777L27.8216 49.8771Z" fill="#FBFCFF"/>
<path d="M18.9166 56.8246C19.7795 55.9872 20.8961 54.7002 21.7116 53.8003C23.1109 52.2711 24.5011 50.7347 25.8835 49.1903L27.6123 47.2776C27.8368 47.0264 28.3884 46.368 28.6166 46.1769C28.5085 47.0616 28.3271 47.9409 28.1942 48.8226C28.0018 48.9439 27.9563 48.9931 27.8447 49.1927C27.8447 49.3044 27.8386 49.4628 27.8538 49.5696C27.8471 49.6497 27.8386 49.8044 27.8228 49.8772C26.4939 51.2753 25.1941 52.816 23.8852 54.2439L21.0192 57.372C20.3354 58.1074 19.5641 58.8999 18.9081 59.65C18.8996 59.5189 18.9045 59.46 18.9154 59.3277L18.9166 56.824V56.8246Z" fill="#FBFCFF"/>
<path d="M18.9154 59.3275C19.1223 59.154 19.5659 58.6424 19.768 58.4185C20.2061 57.9294 20.6497 57.4452 21.0993 56.9664C21.7632 56.254 22.4186 55.5343 23.0788 54.8189C24.6832 53.0791 26.2215 51.2848 27.8538 49.5693C27.8471 49.6494 27.8386 49.8042 27.8228 49.877C26.4939 51.2751 25.1941 52.8158 23.8852 54.2436L21.0192 57.3717C20.3354 58.1072 19.5641 58.8997 18.9081 59.6497C18.8996 59.5187 18.9045 59.4598 18.9154 59.3275Z" fill="#FFB700"/>
<path d="M33.9982 39.9119C34.5188 39.4186 35.0188 38.8743 35.5219 38.3597C36.8854 36.9598 38.2374 35.5483 39.5778 34.1266L40.7708 32.8832C41.1234 32.5142 41.5809 31.8862 42.1192 31.9123C42.3497 31.9244 42.5646 32.0306 42.7138 32.2066C43.0112 32.5561 42.9547 33.0646 42.6604 33.3972C42.0615 34.0738 41.4256 34.7237 40.8012 35.3772L37.3775 38.9665C36.7561 39.6206 36.1068 40.2566 35.5261 40.9435C35.3319 39.9744 34.8738 39.884 33.9976 39.9119H33.9982Z" fill="#FBFCFF"/>
<path d="M30.5549 33.7803C29.7169 33.7682 28.8789 33.767 28.0409 33.7761C27.6349 33.7773 27.0488 33.8161 26.6616 33.7409C25.4377 33.5042 25.5263 31.7347 26.7872 31.651C27.1859 31.6207 27.5906 31.6352 27.9905 31.637L30.1374 31.6455L31.7346 31.6401C31.9834 31.6389 32.4397 31.6243 32.6672 31.6559C32.9901 31.6983 33.2795 31.8749 33.4658 32.1413C34.2195 33.2038 32.964 34.105 32.2953 34.8034L30.5143 36.6888C29.03 38.2683 27.5548 39.8569 26.0894 41.4547C24.3569 43.371 22.6063 45.2703 20.8368 47.1521C20.4284 47.5841 20.0237 48.0186 19.6226 48.4567C19.4266 48.6691 19.1153 49.0235 18.909 49.2085C18.9077 49.1042 18.9132 48.998 18.9162 48.893C19.0898 48.7371 19.4296 48.3457 19.6074 48.1545L20.8089 46.8814C22.4303 45.1544 24.0359 43.3722 25.6434 41.6276L30.8802 35.9934C31.646 35.1754 32.4439 34.3835 33.1927 33.554C33.8372 32.8397 33.3851 31.8531 32.4506 31.8373C32.0428 31.8306 31.6375 31.83 31.2303 31.8312L29.0549 31.8349C28.3206 31.8349 27.5251 31.8112 26.7909 31.8458C26.6131 31.8749 26.4274 31.9144 26.2921 32.0424C25.7927 32.5151 25.9316 33.2457 26.5578 33.5078C26.7854 33.6031 27.4304 33.5679 27.7199 33.5679L29.8468 33.5643C30.0755 33.5643 30.8237 33.5176 30.9633 33.6438C30.953 33.7779 30.4044 34.2075 30.274 34.3301C29.7005 34.8653 29.1392 35.4138 28.5913 35.9745C27.6222 36.9667 26.6519 38.0632 25.7132 39.0893L21.7573 43.4001C20.8641 44.382 19.8459 45.5404 18.9096 46.4809C18.8768 45.1629 18.8974 43.7697 18.8968 42.4474C18.8962 40.9195 18.8774 39.3503 18.9011 37.8247C18.9605 38.4789 18.9187 39.7981 18.9187 40.4947L18.9247 46.1545C19.1632 45.9633 19.8198 45.189 20.0577 44.9311L22.8508 41.8928C24.562 40.0432 26.2854 38.1063 28.0233 36.2919C28.5088 35.784 29.0021 35.284 29.5033 34.7925C29.8255 34.4812 30.2546 34.1019 30.5549 33.7821V33.7803Z" fill="#FFB700"/>
<path d="M33.7345 39.9298C34.3443 39.2599 35.1253 38.4923 35.7655 37.8333L38.535 34.9351L40.4046 32.9806C40.7638 32.6031 41.1176 32.2014 41.5145 31.8634C41.637 31.7663 41.8476 31.7142 41.9975 31.7057C42.8883 31.6553 43.4927 32.6675 42.9119 33.395C42.3409 34.1099 41.6473 34.7974 41.0132 35.4624L37.535 39.0876C36.9136 39.735 36.135 40.5039 35.5683 41.178L35.5258 40.9444C36.1071 40.2575 36.7564 39.6216 37.3772 38.9674L40.8008 35.3781C41.4253 34.724 42.0612 34.0747 42.6601 33.3981C42.9544 33.0655 43.0109 32.557 42.7135 32.2075C42.5642 32.0321 42.3488 31.9253 42.1188 31.9132C41.5812 31.8871 41.1231 32.5152 40.7705 32.8841L39.5775 34.1275C38.2371 35.5492 36.8851 36.9607 35.5216 38.3606C35.0185 38.8752 34.5185 39.4195 33.9979 39.9128C33.8826 39.9292 33.8492 39.9341 33.7339 39.9304L33.7345 39.9298Z" fill="#FFB700"/>
<path d="M28.6778 45.7629C28.6608 45.9074 28.6493 46.0342 28.6159 46.1762C28.3884 46.3673 27.8362 47.0257 27.6117 47.2769L25.8828 49.1896C24.5011 50.734 23.1103 52.271 21.711 53.7996C20.8954 54.6995 19.7789 55.9859 18.916 56.8239L18.9172 56.5369C21.0095 54.268 23.0879 51.9858 25.1522 49.6908C26.3313 48.3935 27.5443 47.0973 28.6772 45.7629H28.6778Z" fill="#FFB700"/>
<path d="M51.7701 30.0951C51.7701 30.0951 51.7743 30.0981 51.7756 30.1006C51.8538 30.2013 51.812 34.929 51.8126 35.4982C51.3308 35.8889 50.463 36.8338 50.0273 37.2955L46.8288 40.7143L37.7927 50.2814C36.8546 51.2717 35.9147 52.3318 34.9692 53.3057C35.036 52.1801 35.0973 50.873 35.1258 49.7486C35.3855 49.7116 35.5597 49.6976 35.7836 49.5495C35.8291 49.0532 35.4104 47.2485 35.5372 47.0361C35.6634 47.1211 36.3946 49.8299 36.5233 50.1545C36.5646 50.2589 36.6653 50.3882 36.763 50.4513C36.8461 50.5047 36.9481 50.5314 37.0458 50.5077C37.1859 50.4737 37.3018 50.3784 37.3746 50.2583C37.6149 49.8602 37.4365 49.552 37.3534 49.1515C37.3249 49.0149 37.3807 48.8086 37.3479 48.6424C37.2854 48.3268 37.2005 48.0149 37.1234 47.703C36.9887 47.1629 36.8619 46.6211 36.7436 46.0767C36.8995 45.8638 37.1817 45.5858 37.371 45.385L38.4123 44.2709C39.8699 42.6889 41.3414 41.1209 42.8275 39.5656L48.182 33.8695C49.3295 32.6419 50.5747 31.2662 51.7695 30.0945L51.7701 30.0951Z" fill="#FBFCFF"/>
<path d="M28.93 16.8561C29.4397 16.8464 29.9683 16.8488 30.4786 16.8543C34.2766 16.8974 38.0941 16.8009 41.8903 16.8585C41.9213 18.2469 41.8758 19.6857 41.8958 21.0795C41.8994 21.3435 41.911 22.7592 41.8752 22.9285L28.9173 22.9133C28.9039 20.9788 28.8663 18.7797 28.93 16.8555V16.8561Z" fill="#FBFCFF"/>
<path d="M36.551 18.6711C37.0704 18.6645 38.0237 18.5437 38.1621 19.2203C38.2033 19.4296 38.1554 19.6469 38.0298 19.8198C37.8617 20.0498 37.7021 20.1002 37.4375 20.1433L36.8586 20.1493C36.8599 20.3605 36.9224 20.6633 36.7743 20.8023C36.6754 20.8217 36.6821 20.8205 36.5825 20.8035C36.4994 20.656 36.5467 18.9673 36.5504 18.6705L36.551 18.6711Z" fill="#FFB700"/>
<path d="M36.8738 18.9666C37.346 18.9605 38.2325 18.9824 37.6991 19.7142C37.4552 19.8932 37.1651 19.8465 36.8647 19.8386L36.8745 18.9666H36.8738Z" fill="#FBFCFF"/>
<path d="M33.0073 18.674L33.3933 18.6674C33.6184 19.2632 33.8472 19.8688 34.1129 20.4471C34.3144 20.04 34.6506 19.026 34.8757 18.7147C34.957 18.6698 35.1039 18.6449 35.1779 18.7092L35.0656 18.9914C34.7895 19.6103 34.5329 20.1735 34.3065 20.8094L33.9315 20.8112C33.8429 20.5552 33.6997 20.2736 33.5923 20.0199C33.4018 19.5697 33.2076 19.12 33.0079 18.6734L33.0073 18.674Z" fill="#FFB700"/>
<path d="M35.5983 18.6675C35.6862 18.6675 35.8191 18.656 35.8762 18.7118C35.9193 19.1523 35.8871 20.3113 35.8853 20.8023C35.7645 20.8047 35.7008 20.8199 35.6128 20.761C35.5843 20.5498 35.5989 20.1821 35.5995 19.9588L35.5976 18.6675H35.5983Z" fill="#FFB700"/>
<path d="M24.8031 15.2356C24.8529 15.2999 24.8353 25.8057 24.8201 26.8324C22.8832 26.8567 20.9031 26.8415 18.9644 26.8433C18.9025 26.7638 18.9176 26.6631 18.9255 26.5508C19.1677 23.0938 20.5415 19.8559 22.7891 17.2259C23.4596 16.4413 24.0446 15.9116 24.8037 15.235L24.8031 15.2356Z" fill="#FBFCFF"/>
<path d="M45.8983 15.3113C45.9972 15.3629 46.2138 15.5552 46.3018 15.6329C49.5161 18.514 51.4761 22.5378 51.7625 26.845L45.9074 26.8529C45.8758 25.4517 45.9013 23.9547 45.9013 22.5469L45.8983 15.3113Z" fill="#FBFCFF"/>
<path d="M32.8147 50.0484C32.8481 50.0417 32.9749 50.0205 32.9876 50.0569C33.1879 50.6036 33.2941 51.3476 33.2971 51.9271C33.3032 53.3579 33.1897 54.7912 33.109 56.2185C33.0271 57.9709 32.9312 59.7228 32.8214 61.4741C32.379 61.4753 31.9767 61.4795 31.5349 61.4334C31.4172 61.4176 31.2995 61.4 31.1818 61.3812C31.1715 59.7355 31.0877 58.0638 31.0707 56.4145C31.0495 54.378 31.0258 52.3221 30.9111 50.2881C31.5465 50.2159 32.1806 50.1358 32.8135 50.0484H32.8147Z" fill="#FBFCFF"/>
<path d="M30.7759 53.1283C30.8299 53.2054 30.8785 57.3372 30.8876 57.7892C29.7704 58.873 28.7473 60.1667 27.6702 61.2948C27.4221 61.5545 27.2097 61.81 26.9421 62.0563C25.419 62.0843 23.8073 62.0642 22.2817 62.0551L22.4966 61.8294C22.6525 61.6389 22.8157 61.4495 22.9808 61.2657C23.888 60.2523 24.7642 59.1952 25.6951 58.2049C25.7114 58.228 25.7284 58.2504 25.7454 58.2723C26.1277 58.7638 26.6799 58.4282 27.0695 58.2692C27.132 58.2437 27.8238 58.2625 27.9312 58.2607C28.2674 58.2541 28.2048 58.4913 28.5422 58.5083C28.7152 58.5095 29.112 58.5174 29.2358 58.3784C29.7468 57.805 29.6776 56.8936 29.6885 56.2109L29.7273 54.2454C30.0799 53.8814 30.4246 53.4972 30.7765 53.1289L30.7759 53.1283Z" fill="#FBFCFF"/>
<path d="M26.9478 51.6721C27.6609 51.6757 28.3745 51.6745 29.0875 51.6685C29.0432 53.262 28.7622 55.0393 28.6233 56.6474L27.997 56.6364C27.3107 56.6298 26.6238 56.6298 25.9375 56.6364C26.1748 55.3664 26.5006 54.0933 26.75 52.8238C26.8271 52.4306 26.9072 52.0738 26.9478 51.6721Z" fill="#FFB700"/>
<path d="M57.7677 43.7206L60.155 43.7254C60.4474 44.203 60.9984 44.8942 61.3479 45.3566C61.2242 45.555 60.3085 46.8463 60.1883 46.9185L57.6142 46.924C57.2926 46.4421 56.8824 45.8499 56.5195 45.4021C56.8284 44.8905 57.3933 44.1896 57.7677 43.7206Z" fill="#FBFCFF"/>
<path d="M10.4715 43.7579C11.2337 43.7421 12.0365 43.7536 12.8017 43.753C12.9728 44.0467 13.7841 45.1384 14.005 45.4011C13.8339 45.6511 13.059 46.8362 12.8872 46.9145L10.3611 46.9115C9.9988 46.4151 9.6068 45.8932 9.27002 45.3823C9.66566 44.8374 10.0662 44.2961 10.4715 43.7585V43.7579Z" fill="#FBFCFF"/>
<path d="M34.7251 49.8062L34.8397 49.7965L34.878 49.8366C34.9047 50.2407 34.8228 51.2923 34.807 51.7413C34.7706 52.7699 34.7518 53.989 34.5673 54.9969C34.3962 55.9308 33.9987 57.037 33.6601 57.9308C33.5903 58.1147 33.3166 58.8945 33.2274 59.0146L33.2111 58.9345C33.228 57.6226 33.3458 56.2767 33.4107 54.9672C33.5005 53.1643 33.7311 51.7523 33.2104 49.9864L34.7257 49.8068L34.7251 49.8062Z" fill="#FBFCFF"/>
<path d="M30.8761 58.1493C30.915 59.1572 30.9162 60.19 30.9635 61.19C30.9696 61.5626 30.9544 61.7137 30.8628 62.0742C29.6686 62.0614 28.475 62.0566 27.2808 62.0596C27.5423 61.7556 27.7911 61.4661 28.066 61.1749C28.9592 60.244 29.9568 58.9976 30.8761 58.1493Z" fill="#FFB700"/>
<path d="M28.066 61.1755C29.0029 61.2028 30.063 61.1482 30.9635 61.1907C30.9696 61.5633 30.9544 61.7144 30.8628 62.0748C29.6686 62.0621 28.475 62.0572 27.2808 62.0602C27.5423 61.7562 27.7911 61.4668 28.066 61.1755Z" fill="#FBFCFF"/>
<path d="M29.5847 48.1495C29.7339 48.3079 29.5768 50.0331 29.7127 50.2995C29.9312 50.4518 30.3911 50.3656 30.6642 50.3359C30.7467 50.9985 30.7704 52.0592 30.8031 52.7449C30.5598 52.9871 30.2837 53.3068 30.0373 53.5653C29.9348 53.6673 29.8304 53.7874 29.7321 53.8955C29.7491 53.5623 29.8553 51.8772 29.7873 51.4882C29.7728 51.4045 29.4439 51.419 29.311 51.4221C29.2758 50.686 29.2643 50.0252 29.0938 49.3055C29.4469 49.0148 29.4785 48.5986 29.5841 48.1489L29.5847 48.1495Z" fill="#FBFCFF"/>
<path d="M25.8638 56.8684C26.7085 56.8484 27.7541 56.8587 28.5933 56.8799C28.5508 57.2902 28.5314 57.4825 28.3105 57.8387L28.1788 58.0317C27.7413 58.0408 27.2838 58.0238 26.8444 58.0135C26.8032 57.9637 26.7595 57.9152 26.714 57.8691C26.4603 57.6142 26.1205 57.6682 25.771 57.67C25.7825 57.4267 25.8317 57.1148 25.8638 56.8684Z" fill="#FFB700"/>
<path d="M29.3234 51.6401C29.4205 51.6394 29.4982 51.6212 29.5576 51.6965C29.5789 52.6996 29.5048 53.8549 29.4891 54.8768L29.4563 56.6353C29.4502 56.9685 29.4618 57.3823 29.4084 57.7046C29.2306 57.7306 29.0467 57.7367 28.8671 57.7464C28.7633 57.7634 28.7985 57.7689 28.7026 57.7476C28.824 56.8453 28.9096 55.9933 29.0073 55.0886C29.1298 53.9478 29.2925 52.7888 29.3234 51.6394V51.6401Z" fill="#FFB700"/>
<path d="M32.778 37.4617C33.247 37.796 33.5462 39.2141 32.6772 39.2888C32.3289 39.3185 32.173 39.2645 31.9078 39.08C31.7895 39.0254 31.7955 39.0497 31.6378 39.077C31.4533 38.9029 31.355 38.5042 31.2955 38.2651C31.21 37.8221 31.6068 37.8549 31.8969 37.85C32.2901 37.8434 32.5189 37.8148 32.7537 37.4963L32.7786 37.4617H32.778Z" fill="#FBFCFF"/>
<path d="M28.9457 49.813C29.018 50.0145 29.0301 50.5873 29.0301 50.8082C28.8905 51.0029 28.7079 51.2384 28.6096 51.4508C28.4409 51.4508 28.064 51.5024 27.9421 51.4132L27.9312 51.3118C27.9821 50.8349 28.0058 50.3494 28.0816 49.8779C28.45 50.3106 28.6769 50.3361 28.9457 49.813Z" fill="#FBFCFF"/>
<path d="M37.0352 49.1035L37.1038 49.1017C37.2767 49.3432 37.4412 50.4846 36.821 50.2734C36.6444 50.0392 36.5801 49.5228 36.5225 49.2176L37.0352 49.1029V49.1035Z" fill="#FBFCFF"/>
<path d="M31.8057 39.3113C32.1801 39.5182 32.2632 39.5358 32.6855 39.5218C32.6983 39.7112 32.7189 39.9102 32.7359 40.0995C32.4853 40.1238 32.2347 40.1432 31.9835 40.1578L31.8057 39.3107V39.3113Z" fill="#FBFCFF"/>
<path d="M28.2912 49.0677C29.0843 49.0276 28.8695 49.4985 28.5946 49.9591L28.5267 49.9858C28.2894 49.9439 28.0776 49.5768 28.0958 49.345C28.1073 49.2 28.1887 49.1478 28.2912 49.0683V49.0677Z" fill="#FBFCFF"/>
<path d="M51.809 47.5056C51.826 48.5596 51.8321 49.6137 51.8284 50.6677C51.8284 51.2278 51.846 51.9323 51.8145 52.4839C50.9765 53.4451 49.9898 54.3984 49.1002 55.3226L44.1807 60.4562C43.6898 60.9732 43.1334 61.4902 42.6655 62.0194C41.0466 62.0054 39.4276 62.006 37.8086 62.0194C41.2389 58.4234 44.688 54.8456 48.156 51.2861L50.7198 48.6167C50.9419 48.3867 51.593 47.6707 51.8084 47.5044L51.809 47.5056Z" fill="#FFB700"/>
<path d="M15.3594 28.8487C15.272 28.6757 15.3078 28.0847 15.3157 27.8547C15.3673 25.8328 15.7101 23.8291 16.334 21.9055C17.9845 16.7961 21.6096 12.5587 26.4016 10.137C31.0462 7.77462 36.4389 7.35228 41.3948 8.96277C49.3956 11.5836 55.0554 19.1791 55.2993 27.5877C55.3072 27.8553 55.3624 28.7619 55.2386 28.9184C55.2168 29.217 55.2356 29.7558 55.2362 30.0684L55.2404 32.3797L55.2453 39.5395L55.2671 62.0802C55.9413 62.0924 56.6555 62.0802 57.3327 62.0796L57.357 51.4161L57.3497 48.5847C57.3473 48.1927 57.3188 47.3019 57.3697 46.9493C57.0566 46.4626 56.5038 45.8243 56.2538 45.3783C56.5924 44.8024 57.1288 44.2017 57.5342 43.6628C57.7059 43.434 58.3249 43.5062 58.6046 43.5075L60.2381 43.5196C60.6174 43.9686 61.2916 44.8764 61.6229 45.3631C61.28 45.9074 60.8298 46.3995 60.4882 46.9657C60.5136 48.6156 60.49 50.3372 60.49 51.9913L60.4936 62.0796C60.7133 62.0766 61.149 62.0389 61.3134 62.1858L61.2952 62.2319C61.0052 62.3563 59.0567 62.2981 58.6258 62.2993L47.3591 62.3023C46.9422 62.3023 44.2389 62.3424 44.0817 62.2799C44.0283 62.2586 44.0356 62.2483 44.0132 62.1998L44.0544 62.1415C44.3263 62.0292 46.563 62.0832 46.9762 62.0845L51.8125 62.082L51.815 52.4841C51.8465 51.9325 51.8289 51.2273 51.8289 50.6679C51.8326 49.6138 51.8259 48.5598 51.8095 47.5058C51.7573 45.391 51.8405 43.1846 51.8216 41.0596C51.3404 41.5262 50.8665 42.0578 50.3981 42.5426C48.827 44.1713 47.2736 45.8158 45.7365 47.4766L37.0894 56.4951L34.3187 59.4011C33.9698 59.7676 33.4412 60.3684 33.0923 60.7003C33.0529 61.0213 33.0456 61.3733 33.031 61.6985C33.3223 61.7186 33.5936 61.7841 33.6597 62.1288C33.636 62.2064 33.6312 62.2392 33.5511 62.278C33.3891 62.3557 29.6183 62.2902 29.1426 62.2883L11.9273 62.2774C11.5984 62.2762 9.33496 62.3357 9.19903 62.2289C9.18022 62.1421 9.17537 62.1828 9.21421 62.1027C9.42416 62.0353 9.86046 62.0729 10.0965 62.0705L10.0941 52.0739L10.0971 48.8286C10.0977 48.2212 10.0819 47.5385 10.1111 46.9384C9.86471 46.5883 9.18265 45.6968 9 45.3746C9.18629 45.1131 10.207 43.7114 10.3975 43.5518C11.1408 43.5336 12.1554 43.5214 12.8957 43.5499C13.1021 43.7654 13.4388 44.2787 13.6336 44.5397C13.8217 44.7921 14.1051 45.1495 14.2671 45.3989C13.9425 45.9104 13.5469 46.3935 13.2107 46.9099C13.241 48.5744 13.218 50.2947 13.2167 51.964L13.2204 62.0687C13.8236 62.0341 14.7198 62.0584 15.3461 62.0547L15.3764 36.1225L15.3843 31.032C15.3849 30.7535 15.4092 29.0331 15.3594 28.8487Z" fill="#9AA5BB"/>
<path d="M15.3594 28.8487C15.272 28.6757 15.3078 28.0847 15.3157 27.8547C15.3672 25.8328 15.7101 23.8291 16.3339 21.9055C17.9844 16.7961 21.6095 12.5587 26.4015 10.137C31.0461 7.77462 36.4389 7.35228 41.3947 8.96277C49.3955 11.5836 55.0553 19.1791 55.2992 27.5877C55.3071 27.8553 55.3623 28.7619 55.2386 28.9184C55.2167 29.217 55.2355 29.7558 55.2361 30.0684L55.2404 32.3797L55.2452 39.5395L55.2671 62.0802C54.2318 62.0535 53.0819 62.079 52.0376 62.0796L52.0546 29.0404C52.0546 27.9148 52.0285 26.9038 51.8762 25.7855C51.4108 22.1749 49.7784 18.8156 47.2268 16.219C40.4966 9.48827 30.1165 9.48281 23.396 16.2397C21.2315 18.437 19.7272 21.198 19.0555 24.2084C18.5512 26.4797 18.6744 28.6824 18.6811 31.0016L18.6974 37.841L18.7053 62.0669C17.6883 62.0602 16.6713 62.0608 15.6543 62.0681C14.9576 62.0784 13.8988 62.1142 13.2197 62.0687C13.8229 62.0341 14.7192 62.0584 15.3454 62.0547L15.3757 36.1225L15.3836 31.032C15.3842 30.7535 15.4085 29.0331 15.3587 28.8487H15.3594Z" fill="#EEF3FC"/>
<path d="M15.3594 28.8487C15.272 28.6757 15.3078 28.0847 15.3157 27.8547C15.3673 25.8328 15.7101 23.8291 16.3339 21.9055C17.9845 16.7961 21.6096 12.5587 26.4016 10.137C31.0461 7.77462 36.4389 7.35228 41.3947 8.96277C49.3956 11.5836 55.0553 19.1791 55.2993 27.5877C55.3072 27.8553 55.3624 28.7619 55.2386 28.9184C55.1961 28.8948 55.1627 28.8839 55.1591 28.8414C55.1288 28.4931 55.1227 27.9366 55.1087 27.6017C54.9971 25.2199 54.4861 22.8734 53.5972 20.6609C51.574 15.7251 47.6795 11.7905 42.7649 9.71643C38.0506 7.74186 32.7464 7.71576 28.0133 9.64422C21.6636 12.2159 17.0779 17.8665 15.8691 24.6095C15.7089 25.5245 15.5985 26.4475 15.539 27.3747C15.5129 27.7691 15.5493 28.3875 15.488 28.7807C15.4832 28.8123 15.4031 28.8317 15.3588 28.8493L15.3594 28.8487Z" fill="#9AA5BB"/>
<path d="M51.8126 35.7656C51.8247 37.5302 51.8278 39.2949 51.8211 41.0595C51.3399 41.5261 50.866 42.0577 50.3975 42.5425C48.8265 44.1712 47.273 45.8157 45.736 47.4765L37.0889 56.495L34.3182 59.401C33.9693 59.7675 33.4407 60.3683 33.0918 60.7002C33.1088 60.4836 33.1428 59.9508 33.1974 59.7663C33.3837 59.1298 33.715 58.5011 33.9468 57.8609C34.4838 56.3785 34.84 55.2468 34.9523 53.6836C35.2757 53.251 36.2612 52.2461 36.6684 51.8061C38.0998 50.2679 39.5428 48.7405 40.9974 47.2241L48.1268 39.6583C49.3635 38.3476 50.5371 37.0496 51.8132 35.7656H51.8126Z" fill="#EEF3FC"/>
<path d="M25.0472 15.04C27.7772 12.8281 31.7707 11.265 35.3132 11.3997L35.3157 16.6244C34.6057 16.6244 28.9435 16.571 28.7433 16.6735C28.7069 16.7694 28.6911 16.8653 28.6911 16.9684C28.6941 18.9054 28.6929 20.8423 28.6923 22.7793C28.6923 22.8806 28.7002 23.0062 28.7396 23.0984C28.9733 23.1901 31.304 23.1525 31.7828 23.1531L37.0669 23.1488L40.3632 23.1452C40.8298 23.1452 41.6702 23.1694 42.1059 23.1343C42.1502 21.3041 42.1023 19.4527 42.1302 17.6201C42.135 17.3034 42.1369 16.9496 42.1138 16.6353C41.7971 16.6183 41.4858 16.6256 41.169 16.6231C39.2939 16.6122 37.4134 16.6468 35.539 16.625C35.4935 15.0017 35.5038 13.0369 35.5311 11.4033C39.0822 11.4385 42.9816 12.7662 45.6758 15.1079L45.6831 22.6719C45.6819 24.1009 45.6527 25.6471 45.6861 27.07H51.784C51.8435 27.9681 51.8156 28.8128 51.8119 29.7121C51.4041 30.0659 50.8264 30.7273 50.4448 31.1381L48.1037 33.6412L40.8019 41.3787C39.9396 42.3126 39.0725 43.2422 38.2005 44.1664C37.6944 44.7107 37.2071 45.2666 36.678 45.7884C36.2356 44.258 35.9729 42.6767 35.5693 41.176L35.5268 40.9424C35.3327 39.9733 34.8745 39.8829 33.9983 39.9108C33.883 39.9272 33.8496 39.9321 33.7343 39.9284C33.4637 39.9648 33.2203 39.9782 32.9485 39.9946L32.8714 39.4879C33.9473 38.9933 33.3818 37.7858 32.8441 37.1001C32.8678 36.8416 32.8654 36.6607 32.6754 36.4629C32.2191 35.9878 31.8332 36.7524 31.6796 37.0442C31.1918 37.0922 30.7233 37.1468 30.3738 37.554C30.2197 37.733 30.1869 37.8938 30.1966 38.1207C30.2063 38.3465 30.5097 38.7809 30.6869 38.892C31.6347 39.4867 31.5304 38.9151 31.7403 40.0983C31.2688 40.1572 30.7864 40.2112 30.3186 40.3004C29.3367 40.4879 29.3386 41.4449 29.216 42.2756C29.0952 43.1233 28.9672 43.9692 28.8307 44.8145C28.7985 45.0111 28.722 45.593 28.6777 45.7623C28.6607 45.9068 28.6492 46.0336 28.6158 46.1756C28.5078 47.0603 28.3264 47.9396 28.1935 48.8213C28.0011 48.9426 27.9556 48.9918 27.844 49.1914C27.844 49.3031 27.8379 49.4615 27.8531 49.5683C27.8464 49.6484 27.8379 49.8031 27.8221 49.8759C27.7651 50.3935 27.7117 50.9421 27.6425 51.4561L26.7359 51.4543C26.5132 53.4404 25.8342 55.4635 25.5617 57.4496C25.5399 57.6073 25.5708 57.7603 25.6121 57.9101C24.9082 58.7409 24.1934 59.5631 23.4688 60.3762C22.9816 60.9266 22.4688 61.5237 21.9664 62.0571C20.9475 62.0656 19.9287 62.0668 18.9105 62.062C18.9032 61.4521 18.8643 60.216 18.9086 59.6493C18.9001 59.5182 18.905 59.4593 18.9159 59.3271L18.9171 56.8233L18.9183 56.5363C18.8995 54.0939 18.8965 51.6509 18.9092 49.2078C18.908 49.1035 18.9135 48.9973 18.9165 48.8923C18.9232 48.0889 18.8953 47.286 18.9099 46.4784C18.8771 45.1604 18.8977 43.7671 18.8971 42.4449C18.8965 40.9169 18.8777 39.3477 18.9014 37.8222L18.8947 31.1849C18.8923 29.8517 18.8631 28.3905 18.9062 27.0652L22.9342 27.0616C23.5811 27.0616 24.4064 27.0858 25.0332 27.0512C25.0933 24.965 25.0441 22.6603 25.0447 20.5559L25.0502 16.9897C25.0514 16.3604 25.0678 15.6626 25.0472 15.0387V15.04Z" fill="#ECEFF6"/>
<path d="M18.9091 46.4797C19.8454 45.5391 20.8636 44.3807 21.7568 43.3989L25.7127 39.0881C26.6514 38.0626 27.6217 36.9655 28.5908 35.9733C29.1393 35.4126 29.7 34.8641 30.2735 34.3288C30.4045 34.2057 30.9525 33.7766 30.9628 33.6425C30.8226 33.5163 30.0744 33.5624 29.8463 33.563L27.7194 33.5667C27.4299 33.5667 26.7849 33.6025 26.5573 33.5066C25.9311 33.2439 25.7915 32.5139 26.2916 32.0412C26.4269 31.9131 26.6119 31.8737 26.7904 31.8446C27.5246 31.8106 28.3201 31.8342 29.0544 31.8336L31.2298 31.83C31.6376 31.8294 32.0429 31.83 32.4501 31.8361C33.3852 31.8518 33.8373 32.8385 33.1922 33.5527C32.4434 34.3829 31.6455 35.1741 30.8797 35.9921L25.6429 41.6264C24.0354 43.371 22.4298 45.1532 20.8084 46.8802L19.6069 48.1533C19.4291 48.3444 19.0893 48.7358 18.9157 48.8918C18.9224 48.0884 18.8945 47.2855 18.9091 46.4779V46.4797Z" fill="#ECEFF6"/>
<path d="M27.8216 49.8771C27.7645 50.3947 27.7111 50.9432 27.642 51.4572L26.7354 51.4554C26.5127 53.4415 25.8337 55.4646 25.5612 57.4507C25.5393 57.6085 25.5703 57.7614 25.6116 57.9113C24.9077 58.742 24.1928 59.5642 23.4683 60.3774C22.981 60.9278 22.4683 61.5249 21.9658 62.0583C20.947 62.0668 19.9281 62.068 18.9099 62.0631C18.9026 61.4533 18.8638 60.2172 18.9081 59.6504C19.5634 58.9004 20.3353 58.1079 21.0192 57.3724L23.8852 54.2443C25.1935 52.8159 26.4933 51.2758 27.8228 49.8777L27.8216 49.8771Z" fill="#ECEFF6"/>
<path d="M18.9166 56.8246C19.7795 55.9872 20.8961 54.7002 21.7116 53.8003C23.1109 52.2711 24.5011 50.7347 25.8835 49.1903L27.6123 47.2776C27.8368 47.0264 28.3884 46.368 28.6166 46.1769C28.5085 47.0616 28.3271 47.9409 28.1942 48.8226C28.0018 48.9439 27.9563 48.9931 27.8447 49.1927C27.8447 49.3044 27.8386 49.4628 27.8538 49.5696C27.8471 49.6497 27.8386 49.8044 27.8228 49.8772C26.4939 51.2753 25.1941 52.816 23.8852 54.2439L21.0192 57.372C20.3354 58.1074 19.5641 58.8999 18.9081 59.65C18.8996 59.5189 18.9045 59.46 18.9154 59.3277L18.9166 56.824V56.8246Z" fill="#ECEFF6"/>
<path d="M18.9154 59.3275C19.1223 59.154 19.5659 58.6424 19.768 58.4185C20.2061 57.9294 20.6497 57.4452 21.0993 56.9664C21.7632 56.254 22.4186 55.5343 23.0788 54.8189C24.6832 53.0791 26.2215 51.2848 27.8538 49.5693C27.8471 49.6494 27.8386 49.8042 27.8228 49.877C26.4939 51.2751 25.1941 52.8158 23.8852 54.2436L21.0192 57.3717C20.3354 58.1072 19.5641 58.8997 18.9081 59.6497C18.8996 59.5187 18.9045 59.4598 18.9154 59.3275Z" fill="#EEF3FC"/>
<path d="M33.9982 39.9119C34.5188 39.4186 35.0188 38.8743 35.5219 38.3597C36.8854 36.9598 38.2374 35.5483 39.5778 34.1266L40.7708 32.8832C41.1234 32.5142 41.5809 31.8862 42.1192 31.9123C42.3497 31.9244 42.5646 32.0306 42.7138 32.2066C43.0112 32.5561 42.9547 33.0646 42.6604 33.3972C42.0615 34.0738 41.4256 34.7237 40.8012 35.3772L37.3775 38.9665C36.7561 39.6206 36.1068 40.2566 35.5261 40.9435C35.3319 39.9744 34.8738 39.884 33.9976 39.9119H33.9982Z" fill="#ECEFF6"/>
<path d="M30.5549 33.7803C29.7169 33.7682 28.8789 33.767 28.0409 33.7761C27.6349 33.7773 27.0488 33.8161 26.6616 33.7409C25.4377 33.5042 25.5263 31.7347 26.7872 31.651C27.1859 31.6207 27.5906 31.6352 27.9905 31.637L30.1374 31.6455L31.7346 31.6401C31.9834 31.6389 32.4397 31.6243 32.6672 31.6559C32.9901 31.6983 33.2795 31.8749 33.4658 32.1413C34.2195 33.2038 32.964 34.105 32.2953 34.8034L30.5143 36.6888C29.03 38.2683 27.5548 39.8569 26.0894 41.4547C24.3569 43.371 22.6063 45.2703 20.8368 47.1521C20.4284 47.5841 20.0237 48.0186 19.6226 48.4567C19.4266 48.6691 19.1153 49.0235 18.909 49.2085C18.9077 49.1042 18.9132 48.998 18.9162 48.893C19.0898 48.7371 19.4296 48.3457 19.6074 48.1545L20.8089 46.8814C22.4303 45.1544 24.0359 43.3722 25.6434 41.6276L30.8802 35.9934C31.646 35.1754 32.4439 34.3835 33.1927 33.554C33.8372 32.8397 33.3851 31.8531 32.4506 31.8373C32.0428 31.8306 31.6375 31.83 31.2303 31.8312L29.0549 31.8349C28.3206 31.8349 27.5251 31.8112 26.7909 31.8458C26.6131 31.8749 26.4274 31.9144 26.2921 32.0424C25.7927 32.5151 25.9316 33.2457 26.5578 33.5078C26.7854 33.6031 27.4304 33.5679 27.7199 33.5679L29.8468 33.5643C30.0755 33.5643 30.8237 33.5176 30.9633 33.6438C30.953 33.7779 30.4044 34.2075 30.274 34.3301C29.7005 34.8653 29.1392 35.4138 28.5913 35.9745C27.6222 36.9667 26.6519 38.0632 25.7132 39.0893L21.7573 43.4001C20.8641 44.382 19.8459 45.5404 18.9096 46.4809C18.8768 45.1629 18.8974 43.7697 18.8968 42.4474C18.8962 40.9195 18.8774 39.3503 18.9011 37.8247C18.9605 38.4789 18.9187 39.7981 18.9187 40.4947L18.9247 46.1545C19.1632 45.9633 19.8198 45.189 20.0577 44.9311L22.8508 41.8928C24.562 40.0432 26.2854 38.1063 28.0233 36.2919C28.5088 35.784 29.0021 35.284 29.5033 34.7925C29.8255 34.4812 30.2546 34.1019 30.5549 33.7821V33.7803Z" fill="#EEF3FC"/>
<path d="M33.7345 39.9298C34.3443 39.2599 35.1253 38.4923 35.7655 37.8333L38.535 34.9351L40.4046 32.9806C40.7638 32.6031 41.1176 32.2014 41.5145 31.8634C41.637 31.7663 41.8476 31.7142 41.9975 31.7057C42.8883 31.6553 43.4927 32.6675 42.9119 33.395C42.3409 34.1099 41.6473 34.7974 41.0132 35.4624L37.535 39.0876C36.9136 39.735 36.135 40.5039 35.5683 41.178L35.5258 40.9444C36.1071 40.2575 36.7564 39.6216 37.3772 38.9674L40.8008 35.3781C41.4253 34.724 42.0612 34.0747 42.6601 33.3981C42.9544 33.0655 43.0109 32.557 42.7135 32.2075C42.5642 32.0321 42.3488 31.9253 42.1188 31.9132C41.5812 31.8871 41.1231 32.5152 40.7705 32.8841L39.5775 34.1275C38.2371 35.5492 36.8851 36.9607 35.5216 38.3606C35.0185 38.8752 34.5185 39.4195 33.9979 39.9128C33.8826 39.9292 33.8492 39.9341 33.7339 39.9304L33.7345 39.9298Z" fill="#EEF3FC"/>
<path d="M28.6778 45.7629C28.6608 45.9074 28.6493 46.0342 28.6159 46.1762C28.3884 46.3673 27.8362 47.0257 27.6117 47.2769L25.8828 49.1896C24.5011 50.734 23.1103 52.271 21.711 53.7996C20.8954 54.6995 19.7789 55.9859 18.916 56.8239L18.9172 56.5369C21.0095 54.268 23.0879 51.9858 25.1522 49.6908C26.3313 48.3935 27.5443 47.0973 28.6772 45.7629H28.6778Z" fill="#EEF3FC"/>
<path d="M51.7701 30.0951C51.7701 30.0951 51.7743 30.0981 51.7756 30.1006C51.8538 30.2013 51.812 34.929 51.8126 35.4982C51.3308 35.8889 50.463 36.8338 50.0273 37.2955L46.8288 40.7143L37.7927 50.2814C36.8546 51.2717 35.9147 52.3318 34.9692 53.3057C35.036 52.1801 35.0973 50.873 35.1258 49.7486C35.3855 49.7116 35.5597 49.6976 35.7836 49.5495C35.8291 49.0532 35.4104 47.2485 35.5372 47.0361C35.6634 47.1211 36.3946 49.8299 36.5233 50.1545C36.5646 50.2589 36.6653 50.3882 36.763 50.4513C36.8461 50.5047 36.9481 50.5314 37.0458 50.5077C37.1859 50.4737 37.3018 50.3784 37.3746 50.2583C37.6149 49.8602 37.4365 49.552 37.3534 49.1515C37.3249 49.0149 37.3807 48.8086 37.3479 48.6424C37.2854 48.3268 37.2005 48.0149 37.1234 47.703C36.9887 47.1629 36.8619 46.6211 36.7436 46.0767C36.8995 45.8638 37.1817 45.5858 37.371 45.385L38.4123 44.2709C39.8699 42.6889 41.3414 41.1209 42.8275 39.5656L48.182 33.8695C49.3295 32.6419 50.5747 31.2662 51.7695 30.0945L51.7701 30.0951Z" fill="#ECEFF6"/>
<path d="M28.93 16.8561C29.4397 16.8464 29.9683 16.8488 30.4786 16.8543C34.2766 16.8974 38.0941 16.8009 41.8903 16.8585C41.9213 18.2469 41.8758 19.6857 41.8958 21.0795C41.8994 21.3435 41.911 22.7592 41.8752 22.9285L28.9173 22.9133C28.9039 20.9788 28.8663 18.7797 28.93 16.8555V16.8561Z" fill="#ECEFF6"/>
<path d="M36.551 18.6711C37.0704 18.6645 38.0237 18.5437 38.1621 19.2203C38.2033 19.4296 38.1554 19.6469 38.0298 19.8198C37.8617 20.0498 37.7021 20.1002 37.4375 20.1433L36.8586 20.1493C36.8599 20.3605 36.9224 20.6633 36.7743 20.8023C36.6754 20.8217 36.6821 20.8205 36.5825 20.8035C36.4994 20.656 36.5467 18.9673 36.5504 18.6705L36.551 18.6711Z" fill="#EEF3FC"/>
<path d="M36.8738 18.9666C37.346 18.9605 38.2325 18.9824 37.6991 19.7142C37.4552 19.8932 37.1651 19.8465 36.8647 19.8386L36.8745 18.9666H36.8738Z" fill="#ECEFF6"/>
<path d="M33.0073 18.674L33.3933 18.6674C33.6184 19.2632 33.8472 19.8688 34.1129 20.4471C34.3144 20.04 34.6506 19.026 34.8757 18.7147C34.957 18.6698 35.1039 18.6449 35.1779 18.7092L35.0656 18.9914C34.7895 19.6103 34.5329 20.1735 34.3065 20.8094L33.9315 20.8112C33.8429 20.5552 33.6997 20.2736 33.5923 20.0199C33.4018 19.5697 33.2076 19.12 33.0079 18.6734L33.0073 18.674Z" fill="#EEF3FC"/>
<path d="M35.5983 18.6675C35.6862 18.6675 35.8191 18.656 35.8762 18.7118C35.9193 19.1523 35.8871 20.3113 35.8853 20.8023C35.7645 20.8047 35.7008 20.8199 35.6128 20.761C35.5843 20.5498 35.5989 20.1821 35.5995 19.9588L35.5976 18.6675H35.5983Z" fill="#EEF3FC"/>
<path d="M24.8031 15.2356C24.8529 15.2999 24.8353 25.8057 24.8201 26.8324C22.8832 26.8567 20.9031 26.8415 18.9644 26.8433C18.9025 26.7638 18.9176 26.6631 18.9255 26.5508C19.1677 23.0938 20.5415 19.8559 22.7891 17.2259C23.4596 16.4413 24.0446 15.9116 24.8037 15.235L24.8031 15.2356Z" fill="#ECEFF6"/>
<path d="M45.8983 15.3113C45.9972 15.3629 46.2138 15.5552 46.3018 15.6329C49.5161 18.514 51.4761 22.5378 51.7625 26.845L45.9074 26.8529C45.8758 25.4517 45.9013 23.9547 45.9013 22.5469L45.8983 15.3113Z" fill="#ECEFF6"/>
<path d="M32.8147 50.0484C32.8481 50.0417 32.9749 50.0205 32.9876 50.0569C33.1879 50.6036 33.2941 51.3476 33.2971 51.9271C33.3032 53.3579 33.1897 54.7912 33.109 56.2185C33.0271 57.9709 32.9312 59.7228 32.8214 61.4741C32.379 61.4753 31.9767 61.4795 31.5349 61.4334C31.4172 61.4176 31.2995 61.4 31.1818 61.3812C31.1715 59.7355 31.0877 58.0638 31.0707 56.4145C31.0495 54.378 31.0258 52.3221 30.9111 50.2881C31.5465 50.2159 32.1806 50.1358 32.8135 50.0484H32.8147Z" fill="#ECEFF6"/>
<path d="M30.7759 53.1283C30.8299 53.2054 30.8785 57.3372 30.8876 57.7892C29.7704 58.873 28.7473 60.1667 27.6702 61.2948C27.4221 61.5545 27.2097 61.81 26.9421 62.0563C25.419 62.0843 23.8073 62.0642 22.2817 62.0551L22.4966 61.8294C22.6525 61.6389 22.8157 61.4495 22.9808 61.2657C23.888 60.2523 24.7642 59.1952 25.6951 58.2049C25.7114 58.228 25.7284 58.2504 25.7454 58.2723C26.1277 58.7638 26.6799 58.4282 27.0695 58.2692C27.132 58.2437 27.8238 58.2625 27.9312 58.2607C28.2674 58.2541 28.2048 58.4913 28.5422 58.5083C28.7152 58.5095 29.112 58.5174 29.2358 58.3784C29.7468 57.805 29.6776 56.8936 29.6885 56.2109L29.7273 54.2454C30.0799 53.8814 30.4246 53.4972 30.7765 53.1289L30.7759 53.1283Z" fill="#ECEFF6"/>
<path d="M26.9478 51.6721C27.6609 51.6757 28.3745 51.6745 29.0875 51.6685C29.0432 53.262 28.7622 55.0393 28.6233 56.6474L27.997 56.6364C27.3107 56.6298 26.6238 56.6298 25.9375 56.6364C26.1748 55.3664 26.5006 54.0933 26.75 52.8238C26.8271 52.4306 26.9072 52.0738 26.9478 51.6721Z" fill="#EEF3FC"/>
<path d="M57.7677 43.7206L60.155 43.7254C60.4474 44.203 60.9984 44.8942 61.3479 45.3566C61.2242 45.555 60.3085 46.8463 60.1883 46.9185L57.6142 46.924C57.2926 46.4421 56.8824 45.8499 56.5195 45.4021C56.8284 44.8905 57.3933 44.1896 57.7677 43.7206Z" fill="#ECEFF6"/>
<path d="M10.4715 43.7579C11.2337 43.7421 12.0365 43.7536 12.8017 43.753C12.9728 44.0467 13.7841 45.1384 14.005 45.4011C13.8339 45.6511 13.059 46.8362 12.8872 46.9145L10.3611 46.9115C9.9988 46.4151 9.6068 45.8932 9.27002 45.3823C9.66566 44.8374 10.0662 44.2961 10.4715 43.7585V43.7579Z" fill="#ECEFF6"/>
<path d="M34.7251 49.8062L34.8397 49.7965L34.878 49.8366C34.9047 50.2407 34.8228 51.2923 34.807 51.7413C34.7706 52.7699 34.7518 53.989 34.5673 54.9969C34.3962 55.9308 33.9987 57.037 33.6601 57.9308C33.5903 58.1147 33.3166 58.8945 33.2274 59.0146L33.2111 58.9345C33.228 57.6226 33.3458 56.2767 33.4107 54.9672C33.5005 53.1643 33.7311 51.7523 33.2104 49.9864L34.7257 49.8068L34.7251 49.8062Z" fill="#ECEFF6"/>
<path d="M30.8761 58.1493C30.915 59.1572 30.9162 60.19 30.9635 61.19C30.9696 61.5626 30.9544 61.7137 30.8628 62.0742C29.6686 62.0614 28.475 62.0566 27.2808 62.0596C27.5423 61.7556 27.7911 61.4661 28.066 61.1749C28.9592 60.244 29.9568 58.9976 30.8761 58.1493Z" fill="#EEF3FC"/>
<path d="M28.066 61.1755C29.0029 61.2028 30.063 61.1482 30.9635 61.1907C30.9696 61.5633 30.9544 61.7144 30.8628 62.0748C29.6686 62.0621 28.475 62.0572 27.2808 62.0602C27.5423 61.7562 27.7911 61.4668 28.066 61.1755Z" fill="#ECEFF6"/>
<path d="M29.5847 48.1495C29.7339 48.3079 29.5768 50.0331 29.7127 50.2995C29.9312 50.4518 30.3911 50.3656 30.6642 50.3359C30.7467 50.9985 30.7704 52.0592 30.8031 52.7449C30.5598 52.9871 30.2837 53.3068 30.0373 53.5653C29.9348 53.6673 29.8304 53.7874 29.7321 53.8955C29.7491 53.5623 29.8553 51.8772 29.7873 51.4882C29.7728 51.4045 29.4439 51.419 29.311 51.4221C29.2758 50.686 29.2643 50.0252 29.0938 49.3055C29.4469 49.0148 29.4785 48.5986 29.5841 48.1489L29.5847 48.1495Z" fill="#ECEFF6"/>
<path d="M25.8638 56.8684C26.7085 56.8484 27.7541 56.8587 28.5933 56.8799C28.5508 57.2902 28.5314 57.4825 28.3105 57.8387L28.1788 58.0317C27.7413 58.0408 27.2838 58.0238 26.8444 58.0135C26.8032 57.9637 26.7595 57.9152 26.714 57.8691C26.4603 57.6142 26.1205 57.6682 25.771 57.67C25.7825 57.4267 25.8317 57.1148 25.8638 56.8684Z" fill="#EEF3FC"/>
<path d="M29.3234 51.6401C29.4205 51.6394 29.4982 51.6212 29.5576 51.6965C29.5789 52.6996 29.5048 53.8549 29.4891 54.8768L29.4563 56.6353C29.4502 56.9685 29.4618 57.3823 29.4084 57.7046C29.2306 57.7306 29.0467 57.7367 28.8671 57.7464C28.7633 57.7634 28.7985 57.7689 28.7026 57.7476C28.824 56.8453 28.9096 55.9933 29.0073 55.0886C29.1298 53.9478 29.2925 52.7888 29.3234 51.6394V51.6401Z" fill="#EEF3FC"/>
<path d="M32.778 37.4617C33.247 37.796 33.5462 39.2141 32.6772 39.2888C32.3289 39.3185 32.173 39.2645 31.9078 39.08C31.7895 39.0254 31.7955 39.0497 31.6378 39.077C31.4533 38.9029 31.355 38.5042 31.2955 38.2651C31.21 37.8221 31.6068 37.8549 31.8969 37.85C32.2901 37.8434 32.5189 37.8148 32.7537 37.4963L32.7786 37.4617H32.778Z" fill="#ECEFF6"/>
<path d="M28.9457 49.813C29.018 50.0145 29.0301 50.5873 29.0301 50.8082C28.8905 51.0029 28.7079 51.2384 28.6096 51.4508C28.4409 51.4508 28.064 51.5024 27.9421 51.4132L27.9312 51.3118C27.9821 50.8349 28.0058 50.3494 28.0816 49.8779C28.45 50.3106 28.6769 50.3361 28.9457 49.813Z" fill="#ECEFF6"/>
<path d="M37.0352 49.1035L37.1038 49.1017C37.2767 49.3432 37.4412 50.4846 36.821 50.2734C36.6444 50.0392 36.5801 49.5228 36.5225 49.2176L37.0352 49.1029V49.1035Z" fill="#ECEFF6"/>
<path d="M31.8057 39.3113C32.1801 39.5182 32.2632 39.5358 32.6855 39.5218C32.6983 39.7112 32.7189 39.9102 32.7359 40.0995C32.4853 40.1238 32.2347 40.1432 31.9835 40.1578L31.8057 39.3107V39.3113Z" fill="#ECEFF6"/>
<path d="M28.2912 49.0677C29.0843 49.0276 28.8695 49.4985 28.5946 49.9591L28.5267 49.9858C28.2894 49.9439 28.0776 49.5768 28.0958 49.345C28.1073 49.2 28.1887 49.1478 28.2912 49.0683V49.0677Z" fill="#ECEFF6"/>
<path d="M51.809 47.5056C51.826 48.5596 51.8321 49.6137 51.8284 50.6677C51.8284 51.2278 51.846 51.9323 51.8145 52.4839C50.9765 53.4451 49.9898 54.3984 49.1002 55.3226L44.1807 60.4562C43.6898 60.9732 43.1334 61.4902 42.6655 62.0194C41.0466 62.0054 39.4276 62.006 37.8086 62.0194C41.2389 58.4234 44.688 54.8456 48.156 51.2861L50.7198 48.6167C50.9419 48.3867 51.593 47.6707 51.8084 47.5044L51.809 47.5056Z" fill="#EEF3FC"/>
</svg>
