<svg width="70" height="70" viewBox="0 0 70 70" fill="none" xmlns="http://www.w3.org/2000/svg">
<path d="M30.3398 21.1925C28.7974 19.6022 30.4879 18.1806 32.1659 18.3094C33.1519 18.3851 33.5975 18.7191 34.1472 19.5046C36.962 20.2636 35.9978 23.4926 33.6824 24.4508C33.6977 24.9163 33.7063 25.3824 33.7083 25.8479C34.1692 25.9322 34.4613 26.0484 34.8352 26.3319C36.3371 27.472 36.8245 29.0882 37.5377 30.7595C38.1426 32.1765 39.5549 36.0888 37.0715 36.5125C37.1432 37.0742 37.6897 41.1266 37.6233 41.2946C37.5416 41.357 37.5018 41.3604 37.4042 41.3869C37.3199 41.5031 37.3697 41.5669 37.4088 41.705C38.1492 41.9646 38.5682 42.3716 38.8092 43.1206C39.199 44.3324 39.8285 45.5834 40.2056 46.782C40.5894 46.6326 40.9746 46.4871 41.361 46.3464C42.1332 46.0635 43.1771 45.6578 43.8245 46.5967C44.2003 47.1419 44.3789 47.9778 44.6751 48.5741C45.3258 50.185 45.9055 51.8311 46.594 53.4253C47.1956 53.0608 47.5064 52.9167 48.1883 52.7434L48.1903 40.0098C48.1903 37.9693 48.1531 35.8949 48.1737 33.8611H49.5097L49.5104 35.389L49.5084 36.5676L49.523 52.7155C50.2182 52.9207 51.0409 53.2786 51.5097 53.918C51.5608 53.9878 51.5435 54.0409 51.521 54.104C51.1126 54.1438 50.3981 54.1225 49.9652 54.1219C48.9406 54.1159 47.9154 54.1192 46.8908 54.1312C47.3244 55.4804 47.9313 56.7958 48.4194 58.1272C48.4679 58.2593 48.5349 58.5302 48.527 58.657C48.592 58.8489 48.092 59.4206 48.092 59.4658C48.0954 60.0773 47.9493 60.5475 47.2189 60.4379C46.9931 60.404 46.8185 60.1896 46.6877 59.9552C46.1943 60.076 45.5496 60.2971 45.0515 60.4545C44.2083 60.7168 43.367 60.985 42.5277 61.2599C42.6412 61.6583 42.5941 62.0614 42.1572 62.2307C41.9845 62.2991 41.7913 62.2958 41.6213 62.2208C41.3378 62.0946 41.2501 61.8914 41.1432 61.6285C40.6286 61.6982 40.3564 61.5494 40.0157 61.1915L39.9772 61.1982C39.44 61.2832 38.0974 61.4611 37.4952 61.5116C37.4786 61.4996 37.4613 61.487 37.4447 61.4751L37.4341 61.3961C37.5695 61.2181 37.9135 60.9259 38.0954 60.7586L39.3358 59.6079C38.8796 58.3058 38.3604 57.0076 37.8829 55.7082C37.5908 54.9127 37.3033 54.0409 36.962 53.2673C36.9268 53.187 36.5702 52.847 36.4839 52.7514C36.1665 52.3988 35.7727 51.8503 35.5935 51.4114C34.7542 49.357 33.9587 47.2839 33.1386 45.2215C32.7203 44.1698 32.3299 43.0263 31.8358 42.0104L28.2422 52.3968C27.8087 53.671 27.3671 54.9426 26.9169 56.2115C26.7396 56.7228 26.5968 57.3403 26.3717 57.823C26.3385 57.8941 26.2715 57.9366 26.2111 57.9824C25.9972 58.1438 25.3193 60.6524 25.0338 61.1856C25.0145 61.2214 24.9973 61.2533 24.9541 61.2573C24.8332 61.2686 18.6215 58.7009 18.0312 58.4299C17.9555 58.3954 17.8718 58.3576 17.816 58.2952C17.7808 58.256 17.7974 58.2181 17.8008 58.169C17.9654 58.076 22.3406 57.8675 22.9329 57.8011L23.2629 56.9818C23.1274 56.9233 23.0105 56.8582 22.8811 56.7892C23.1321 55.8529 23.5305 55.0282 23.7748 54.1544C23.2821 54.1046 22.6307 54.1179 22.1234 54.1172H19.6294C19.2151 54.1186 18.6899 54.1371 18.2875 54.0973L18.2556 54.0422C18.2702 53.918 18.3539 53.8018 18.4322 53.7029C18.9415 53.0575 19.6327 52.8145 20.409 52.6983L20.393 36.5437V35.3531L20.3937 33.8969L21.6985 33.8956C21.7828 35.7376 21.6985 38.0237 21.6938 39.9082L21.6892 52.6724C22.721 52.9234 23.158 53.1212 23.81 53.9977C24.6301 51.6684 25.3678 49.0236 26.1108 46.6478C26.5238 45.351 26.9215 44.0496 27.3033 42.7428C27.4674 42.187 27.7768 41.1997 27.8843 40.6373C27.897 40.6605 27.8007 40.4792 27.8179 40.5323C27.7389 40.292 27.7336 39.7475 27.723 39.4952L27.7117 39.5197C27.5729 39.8238 27.1407 41.3272 26.9481 41.4274C26.8638 41.4161 26.8644 41.4055 26.7841 41.4287C26.6998 41.6167 26.6081 41.8597 26.5099 42.0343C26.3651 42.292 26.15 42.9673 25.7828 42.6419C25.5842 42.9135 25.4308 43.2747 25.1606 42.9168H25.1081C25.0411 43.019 24.9229 43.2315 24.7987 43.2362C24.5995 43.2435 24.549 43.0263 24.5617 42.8769C24.6002 42.3896 24.6792 41.9042 24.7562 41.4214C24.7921 41.1963 25.0676 40.9082 25.1128 40.7196C25.2854 39.9972 25.567 39.3219 25.8146 38.622L26.9913 35.3066C27.235 34.6307 27.5198 33.9361 27.7535 33.2621C27.8863 32.8777 27.9567 32.1486 28.0357 31.723C28.2097 30.79 28.4766 29.877 28.8319 28.9972C29.1659 28.1798 29.7104 27.1546 30.3618 26.5603C30.7927 26.1672 31.1227 26.0497 31.6791 25.9494L31.6891 24.8492C29.9574 24.2204 29.9487 22.7343 30.3405 21.1905L30.3398 21.1925Z" fill="#002C6E"/>
<path d="M33.6495 26.0748C33.9861 26.1485 34.354 26.2342 34.6282 26.4546C36.0107 27.5669 36.5658 34.2501 36.8048 36.1803L37.4336 41.1531C36.8705 41.2049 36.3108 41.333 35.7537 41.347C35.5173 40.2806 35.348 38.9253 35.1714 37.8284L34.1521 31.4466C34.0698 30.9101 33.7218 28.0981 33.5485 27.8165L33.5001 27.8085C33.3507 28.0868 33.6926 29.9221 33.761 30.3703C34.3314 33.6989 34.7929 37.0774 35.3666 40.424L30.7504 40.4167C29.8693 40.42 28.8726 40.4459 28.0001 40.412C27.9589 39.3901 27.852 38.3563 27.8367 37.3271C27.7943 34.4108 28.0194 31.1299 29.3162 28.4706C29.7318 27.6186 30.5671 26.1864 31.6315 26.2222C32.4662 26.2508 32.8214 26.3537 33.6495 26.0748Z" fill="#FBFCFF"/>
<path d="M28.1484 40.6385L35.3907 40.6351C35.4956 41.0388 35.4133 41.3768 35.805 41.6059C35.8376 41.835 35.8874 42.0893 35.9279 42.3191C35.4491 42.9346 35.4027 43.2533 35.6643 43.9844C36.1404 45.3164 36.6025 46.649 37.1244 47.9644C36.5633 48.1835 36.1039 48.2997 35.8396 48.8974C35.7194 49.1689 35.6736 49.4684 35.7068 49.7639C35.7619 50.2386 36.6038 52.2559 36.823 52.8117C35.8157 51.8077 35.323 50.1537 34.8064 48.8336L32.831 43.8124C32.6922 43.4605 32.1039 41.7606 31.8051 41.6783C31.5992 41.8084 31.0508 43.6271 30.9379 43.9651L26.165 57.7373C25.1903 57.3561 24.1411 57.0374 23.1484 56.645L28.1497 40.6378L28.1484 40.6385Z" fill="#FBFCFF"/>
<path d="M42.4786 46.2235C42.7183 46.2016 42.96 46.2401 43.1805 46.3364C43.8 46.608 43.9839 47.4174 44.2263 48.0163C44.5769 48.8789 44.9168 49.7454 45.2462 50.6159L48.0948 57.8476C48.2183 58.1637 48.4122 58.6895 48.2063 58.9664C47.8717 59.4166 46.5224 59.752 46.0211 59.9166C45.12 60.2128 44.2615 60.5003 43.3843 60.742C43.0689 59.8529 42.719 58.9485 42.395 58.0587C42.1453 57.256 41.7117 56.1763 41.4129 55.3562L39.5762 50.2613C39.3319 49.5794 38.8299 48.2965 38.6553 47.6305C39.2024 47.3888 40.314 46.934 40.8565 46.7594C41.2349 47.7607 41.5749 48.7832 41.9541 49.7852C42.0205 49.9599 42.0656 50.1425 42.1606 50.3038C42.2595 50.3563 42.2084 50.351 42.3199 50.3164C42.3797 50.1385 42.128 49.6405 42.0556 49.4233C41.7529 48.5157 41.3644 47.6046 41.0982 46.6876C41.5729 46.5223 41.9726 46.3165 42.4786 46.2235Z" fill="#FFB700"/>
<path d="M43.0923 52.3697C43.1414 52.3783 43.1713 52.3889 43.2191 52.4035C43.3194 52.5616 43.9256 54.2123 44.0179 54.4573L45.069 57.2495C45.1786 57.5416 45.6733 58.7594 45.654 58.9852C45.5564 58.9692 45.5026 58.9732 45.4635 58.8749C45.3612 58.6233 45.2662 58.3683 45.17 58.114L44.5571 56.4925L43.6135 53.9965C43.502 53.701 43.0352 52.5848 43.0916 52.369L43.0923 52.3697Z" fill="#002C6E"/>
<path d="M38.0016 47.8409L38.0428 47.8589C37.8243 48.1291 37.6198 48.2287 37.7413 48.6205C37.902 49.1377 38.0932 49.645 38.2765 50.155L39.2951 52.9637L42.226 61.054C41.7121 61.1994 41.0872 61.5228 40.6092 61.4053C40.2878 61.2366 40.1563 61.0918 40.0255 60.7612C39.7712 60.1177 39.5288 59.4664 39.2838 58.819L37.3622 53.6258L36.408 51.1477C36.2865 50.833 36.0142 50.1869 35.9485 49.8921C35.8808 49.5933 35.9107 49.2805 36.0342 49.0003C36.3097 48.3655 37.3409 48.1026 38.0023 47.8409H38.0016Z" fill="#FFB700"/>
<path d="M48.3838 37.5151C48.6985 37.5105 49.0239 37.5144 49.3393 37.5138L49.3439 48.0648L49.3459 51.1179C49.3459 51.5037 49.3685 52.3297 49.332 52.6876C48.9774 52.6471 48.7417 52.671 48.3845 52.6996V37.5151H48.3838Z" fill="#FBFCFF"/>
<path d="M20.626 37.5641L21.4879 37.5681L21.4766 47.6742C21.4772 49.2234 21.5337 51.1576 21.4726 52.6775C21.195 52.6636 20.9049 52.6735 20.626 52.6788C20.5802 49.1988 20.6479 45.6995 20.62 42.2168C20.608 40.6736 20.6014 39.1059 20.6266 37.5641H20.626Z" fill="#FBFCFF"/>
<path d="M30.543 21.3367C31.0728 21.587 31.4878 21.5777 32.043 21.4588C32.0549 21.577 32.0675 21.6946 32.0947 21.8108C32.1904 22.2291 32.4493 22.591 32.8139 22.8167C33.2747 23.0996 33.6996 23.0598 34.193 22.9396L34.1904 22.9761C34.1439 23.5525 33.8836 23.8725 33.4639 24.2297L33.4805 25.7716C33.4799 25.8041 33.4659 25.8327 33.4546 25.8659C33.102 26.0763 32.3059 26.0265 31.9068 25.9967C31.9015 25.7058 31.8969 25.4143 31.8995 25.1228C31.9035 24.6985 32.0855 24.9987 32.3159 24.8001L32.3198 24.7178C32.2541 24.6521 31.8889 24.674 31.7501 24.6308C30.1725 24.1441 30.195 22.6175 30.543 21.3367Z" fill="#FBFCFF"/>
<path d="M22.7393 58.0476C23.2593 58.0018 24.9246 58.8311 25.5627 59.0655L24.8436 61.0303C24.0375 60.6704 23.163 60.3212 22.3449 59.9739C21.0076 59.444 19.6896 58.8484 18.333 58.3165C19.7945 58.2123 21.2659 58.1538 22.74 58.0476H22.7393Z" fill="#FBFCFF"/>
<path d="M37.5628 42.5381C37.687 42.5913 37.9951 42.7759 38.0608 42.8834C38.3776 43.4033 38.5867 44.0554 38.8065 44.6225L39.7135 46.9783C39.007 47.2479 38.3849 47.4976 37.6651 47.7519C37.6412 47.7586 37.6604 47.7559 37.5867 47.7473C37.5117 47.6457 37.4287 47.3548 37.3782 47.22C37.1438 46.5813 36.9154 45.9405 36.6943 45.2977C36.523 44.8117 36.3457 44.3256 36.1937 43.8336C36.1292 43.6271 35.9964 43.2134 36.278 43.1158C36.4294 43.161 36.511 43.4279 36.61 43.4638C36.9446 43.5859 37.525 43.4737 37.6611 43.0992C37.7335 42.8987 37.6345 42.7114 37.5635 42.5375L37.5628 42.5381Z" fill="#FBFCFF"/>
<path d="M27.6802 34.1193C27.72 34.3098 27.5899 35.8324 27.6031 36.2042C27.6184 36.6465 27.6005 37.2301 27.6343 37.7022C27.6536 37.9698 27.6968 38.8032 27.637 39.019C27.4584 39.6611 27.1436 40.4778 26.88 41.0907C26.556 40.9857 26.1662 40.8131 25.8455 40.681L25.4053 40.5083C25.5168 40.0356 26.0195 38.683 26.2047 38.179C26.6881 36.8636 27.147 35.3981 27.6802 34.1193Z" fill="#FBFCFF"/>
<path d="M20.5567 52.9008C21.6749 52.7873 22.7566 52.9885 23.4631 53.9227C22.8104 53.9167 22.1577 53.9148 21.5049 53.9161C20.5202 53.9227 19.5355 53.9247 18.5508 53.9207C19.0282 53.2202 19.752 52.9925 20.5567 52.9008Z" fill="#FBFCFF"/>
<path d="M48.5379 52.8982C49.6043 52.7926 50.5054 53.1844 51.2637 53.9234H49.4821L46.8075 53.9261C46.7677 53.8504 46.7159 53.7276 46.6787 53.6459C47.2976 53.2057 47.7889 53.0197 48.5379 52.8976V52.8982Z" fill="#FBFCFF"/>
<path d="M23.4776 57.0375C24.2983 57.3177 25.1509 57.6006 25.965 57.8914C25.8541 58.2101 25.7392 58.5275 25.6197 58.8436C24.8102 58.5541 24.0181 58.1537 23.1748 57.8575C23.2644 57.5375 23.3501 57.3409 23.4776 57.0375Z" fill="#FBFCFF"/>
<path d="M37.0309 41.4136C37.0681 41.4136 37.0455 41.4103 37.0953 41.4355C37.1465 41.5736 37.4911 43.0185 37.3888 43.1081C37.2155 43.2602 36.8211 43.3837 36.5721 43.1719C36.2328 42.5537 36.1485 42.2595 35.9971 41.5696C36.3337 41.5132 36.6916 41.4647 37.0309 41.4136Z" fill="#FBFCFF"/>
<path d="M36.5718 42.0457C36.609 42.0596 36.6595 42.0789 36.6694 42.1214C36.7159 42.3219 36.9011 42.8743 36.858 43.0523L36.7425 43.0111C36.5838 42.7986 36.4251 42.2893 36.5718 42.0457Z" fill="#002C6E"/>
<path d="M39.4108 59.8865C39.5244 59.9821 39.8019 60.7835 39.8716 60.9708C39.4208 61.0684 38.7408 61.1414 38.2647 61.2098L37.8438 61.2749C38.371 60.8247 38.8696 60.3128 39.4108 59.8865Z" fill="#FBFCFF"/>
<path d="M25.3511 40.7861C25.6798 40.8159 26.2621 41.1028 26.5829 41.2442C26.4434 41.6234 26.3458 41.8525 26.128 42.1957C26.2243 41.9102 26.4062 41.4886 26.2767 41.2057C26.0271 41.045 25.7402 41.5776 25.6293 41.7575L25.7024 41.4109C25.6453 41.3239 25.6413 41.2987 25.549 41.2515C25.3206 41.3472 24.879 42.804 24.7734 43.1094C24.81 42.2509 24.8724 41.4946 25.3511 40.7854V40.7861Z" fill="#FBFCFF"/>
<path d="M25.7003 42.2894L25.7228 42.3127C25.7208 42.4315 25.6365 42.5537 25.5768 42.6699L25.5469 42.6141C25.5967 42.4993 25.6438 42.4023 25.7009 42.2901L25.7003 42.2894Z" fill="#002C6E"/>
<path d="M62.0775 33.8293L63.4122 33.8346L63.3922 52.707C64.2203 52.8703 64.8617 53.0841 65.3783 53.8165C65.442 53.9075 65.4746 53.9706 65.4712 54.0821L65.4241 54.1379C64.4845 54.1977 63.2408 54.1147 62.2721 54.1392C61.8703 54.1492 60.377 54.1545 60.0503 54.1027C60.0211 53.9579 60.0974 53.8444 60.1804 53.7269C60.6094 53.116 61.3644 52.8006 62.0888 52.7428L62.0709 36.551L62.0662 35.3591C62.0682 34.8718 62.0569 34.3094 62.0775 33.8286V33.8293Z" fill="#002C6E"/>
<path d="M62.5971 37.4657C62.7897 37.4631 62.9975 37.469 63.1914 37.4717L63.1954 48.627L63.1921 51.4364C63.1921 51.6309 63.202 52.5167 63.1688 52.6641C63.0672 52.7398 63.0314 52.7106 62.8707 52.7119L62.3043 52.7206C62.2698 51.702 62.2904 50.5858 62.2924 49.5579L62.2997 44.0779L62.285 39.2638C62.285 39.0288 62.2552 37.6609 62.3063 37.5089C62.4092 37.4445 62.4517 37.4684 62.5958 37.4657H62.5971Z" fill="#FBFCFF"/>
<path d="M62.3144 52.9344C63.5527 52.8461 64.3867 52.9231 65.1995 53.9497L63.2055 53.9477C62.232 53.9523 61.2586 53.9497 60.2852 53.9397C60.7898 53.1921 61.4485 52.9895 62.3137 52.9344H62.3144Z" fill="#FBFCFF"/>
<path d="M6.58053 33.8337C7.03272 33.8357 7.48557 33.841 7.93776 33.8503C7.94506 34.347 7.93709 34.861 7.93577 35.359L7.93178 36.5661C7.90323 38.509 7.89128 40.4525 7.89725 42.3954L7.89393 52.6689C8.77042 52.7778 9.54266 53.1377 9.98555 53.9445C10.0294 54.0242 10.0214 54.064 9.98754 54.1364C9.50216 54.1922 8.46431 54.1543 7.93577 54.159C6.90191 54.1689 5.82688 54.1603 4.79104 54.1424C4.67351 54.1404 4.67815 54.1536 4.62238 54.0926C4.61574 53.9159 4.71799 53.7977 4.80365 53.655C5.19807 52.9969 5.89461 52.8124 6.59381 52.6789C6.55397 49.3177 6.5885 45.8695 6.59381 42.5057L6.58119 33.8337H6.58053Z" fill="#002C6E"/>
<path d="M6.78433 37.4771C7.07251 37.4665 7.41049 37.4758 7.70265 37.4764L7.68406 52.5905L7.67476 52.6118C7.5984 52.6609 6.95498 52.651 6.81023 52.6543C6.73055 47.5959 6.83612 42.5302 6.785 37.4771H6.78433Z" fill="#FBFCFF"/>
<path d="M7.14004 52.8686C8.25225 52.8673 9.07097 52.9788 9.74294 53.9496L7.46275 53.9516L4.86914 53.9469C5.36183 53.0704 6.21774 52.9098 7.1407 52.8679L7.14004 52.8686Z" fill="#FBFCFF"/>
<path d="M20.394 35.3524V36.543C19.1702 36.5005 17.7778 36.5317 16.5448 36.5343L7.93262 36.5662L7.9366 35.3591L20.3947 35.3531L20.394 35.3524Z" fill="#FFB700"/>
<path d="M49.5101 35.3895L57.85 35.3868L60.3898 35.3682C60.9084 35.3676 61.5678 35.3882 62.0665 35.3596L62.0711 36.5515L49.5088 36.5674L49.5108 35.3888L49.5101 35.3895Z" fill="#FFB700"/>
<path d="M53.5564 9.73875C53.5989 9.76465 53.6574 9.79719 53.67 9.85164C53.7935 10.4054 53.8479 10.9778 53.9482 11.5362C53.998 11.8138 54.0266 12.078 54.1069 12.3496C54.3805 12.4273 55.8307 12.8051 55.8685 13.0143C55.7443 13.167 54.4588 13.501 54.1275 13.6278C53.9635 14.25 53.919 15.0123 53.8161 15.6524C53.7709 15.9346 53.747 16.3297 53.6361 16.5866L53.5173 16.5501C53.3825 16.3682 53.0943 14.0276 53.0153 13.6053C52.7138 13.5116 51.3705 13.2015 51.3154 12.9831C51.4303 12.8025 52.7291 12.4247 53.0372 12.3144C53.1315 11.8197 53.2205 11.3244 53.3055 10.8277C53.3486 10.5721 53.4203 9.89546 53.5578 9.73743L53.5564 9.73875Z" fill="#FFB700"/>
<path d="M47.3195 4C47.5167 4.11487 47.5532 5.0053 47.5831 5.25563C47.6588 5.89109 47.7405 6.52588 47.8288 7.16C48.0944 7.26226 49.1269 7.4847 49.2073 7.71046C49.1103 7.87647 48.0426 8.17261 47.8016 8.25096C47.6522 8.72174 47.5452 10.237 47.3746 10.4435L47.275 10.3904C47.1429 10.2158 46.9795 8.63742 46.8753 8.23304C46.6296 8.13543 45.5207 7.86983 45.4775 7.69054C45.6024 7.54048 46.5831 7.2357 46.8407 7.14274C46.9377 6.64739 47.1947 4.22643 47.3202 4.00066L47.3195 4Z" fill="#FFB700"/>
<path d="M30.3398 21.1925C28.7974 19.6022 30.4879 18.1806 32.1659 18.3094C33.1519 18.3851 33.5975 18.7191 34.1472 19.5046C36.962 20.2636 35.9978 23.4926 33.6824 24.4508C33.6977 24.9163 33.7063 25.3824 33.7083 25.8479C34.1692 25.9322 34.4613 26.0484 34.8352 26.3319C36.3371 27.472 36.8245 29.0882 37.5377 30.7595C38.1426 32.1765 39.5549 36.0888 37.0715 36.5125C37.1432 37.0742 37.6897 41.1266 37.6233 41.2946C37.5416 41.357 37.5018 41.3604 37.4042 41.3869C37.3199 41.5031 37.3697 41.5669 37.4088 41.705C38.1492 41.9646 38.5682 42.3716 38.8092 43.1206C39.199 44.3324 39.8285 45.5834 40.2056 46.782C40.5894 46.6326 40.9746 46.4871 41.361 46.3464C42.1332 46.0635 43.1771 45.6578 43.8245 46.5967C44.2003 47.1419 44.3789 47.9778 44.6751 48.5741C45.3258 50.185 45.9055 51.8311 46.594 53.4253C47.1956 53.0608 47.5064 52.9167 48.1883 52.7434L48.1903 40.0098C48.1903 37.9693 48.1531 35.8949 48.1737 33.8611H49.5097L49.5104 35.389L49.5084 36.5676L49.523 52.7155C50.2182 52.9207 51.0409 53.2786 51.5097 53.918C51.5608 53.9878 51.5435 54.0409 51.521 54.104C51.1126 54.1438 50.3981 54.1225 49.9652 54.1219C48.9406 54.1159 47.9154 54.1192 46.8908 54.1312C47.3244 55.4804 47.9313 56.7958 48.4194 58.1272C48.4679 58.2593 48.5349 58.5302 48.527 58.657C48.592 58.8489 48.092 59.4206 48.092 59.4658C48.0954 60.0773 47.9493 60.5475 47.2189 60.4379C46.9931 60.404 46.8185 60.1896 46.6877 59.9552C46.1943 60.076 45.5496 60.2971 45.0515 60.4545C44.2083 60.7168 43.367 60.985 42.5277 61.2599C42.6412 61.6583 42.5941 62.0614 42.1572 62.2307C41.9845 62.2991 41.7913 62.2958 41.6213 62.2208C41.3378 62.0946 41.2501 61.8914 41.1432 61.6285C40.6286 61.6982 40.3564 61.5494 40.0157 61.1915L39.9772 61.1982C39.44 61.2832 38.0974 61.4611 37.4952 61.5116C37.4786 61.4996 37.4613 61.487 37.4447 61.4751L37.4341 61.3961C37.5695 61.2181 37.9135 60.9259 38.0954 60.7586L39.3358 59.6079C38.8796 58.3058 38.3604 57.0076 37.8829 55.7082C37.5908 54.9127 37.3033 54.0409 36.962 53.2673C36.9268 53.187 36.5702 52.847 36.4839 52.7514C36.1665 52.3988 35.7727 51.8503 35.5935 51.4114C34.7542 49.357 33.9587 47.2839 33.1386 45.2215C32.7203 44.1698 32.3299 43.0263 31.8358 42.0104L28.2422 52.3968C27.8087 53.671 27.3671 54.9426 26.9169 56.2115C26.7396 56.7228 26.5968 57.3403 26.3717 57.823C26.3385 57.8941 26.2715 57.9366 26.2111 57.9824C25.9972 58.1438 25.3193 60.6524 25.0338 61.1856C25.0145 61.2214 24.9973 61.2533 24.9541 61.2573C24.8332 61.2686 18.6215 58.7009 18.0312 58.4299C17.9555 58.3954 17.8718 58.3576 17.816 58.2952C17.7808 58.256 17.7974 58.2181 17.8008 58.169C17.9654 58.076 22.3406 57.8675 22.9329 57.8011L23.2629 56.9818C23.1274 56.9233 23.0105 56.8582 22.8811 56.7892C23.1321 55.8529 23.5305 55.0282 23.7748 54.1544C23.2821 54.1046 22.6307 54.1179 22.1234 54.1172H19.6294C19.2151 54.1186 18.6899 54.1371 18.2875 54.0973L18.2556 54.0422C18.2702 53.918 18.3539 53.8018 18.4322 53.7029C18.9415 53.0575 19.6327 52.8145 20.409 52.6983L20.393 36.5437V35.3531L20.3937 33.8969L21.6985 33.8956C21.7828 35.7376 21.6985 38.0237 21.6938 39.9082L21.6892 52.6724C22.721 52.9234 23.158 53.1212 23.81 53.9977C24.6301 51.6684 25.3678 49.0236 26.1108 46.6478C26.5238 45.351 26.9215 44.0496 27.3033 42.7428C27.4674 42.187 27.7768 41.1997 27.8843 40.6373C27.897 40.6605 27.8007 40.4792 27.8179 40.5323C27.7389 40.292 27.7336 39.7475 27.723 39.4952L27.7117 39.5197C27.5729 39.8238 27.1407 41.3272 26.9481 41.4274C26.8638 41.4161 26.8644 41.4055 26.7841 41.4287C26.6998 41.6167 26.6081 41.8597 26.5099 42.0343C26.3651 42.292 26.15 42.9673 25.7828 42.6419C25.5842 42.9135 25.4308 43.2747 25.1606 42.9168H25.1081C25.0411 43.019 24.9229 43.2315 24.7987 43.2362C24.5995 43.2435 24.549 43.0263 24.5617 42.8769C24.6002 42.3896 24.6792 41.9042 24.7562 41.4214C24.7921 41.1963 25.0676 40.9082 25.1128 40.7196C25.2854 39.9972 25.567 39.3219 25.8146 38.622L26.9913 35.3066C27.235 34.6307 27.5198 33.9361 27.7535 33.2621C27.8863 32.8777 27.9567 32.1486 28.0357 31.723C28.2097 30.79 28.4766 29.877 28.8319 28.9972C29.1659 28.1798 29.7104 27.1546 30.3618 26.5603C30.7927 26.1672 31.1227 26.0497 31.6791 25.9494L31.6891 24.8492C29.9574 24.2204 29.9487 22.7343 30.3405 21.1905L30.3398 21.1925Z" fill="#9AA5BB"/>
<path d="M33.6495 26.0748C33.9861 26.1485 34.354 26.2342 34.6282 26.4546C36.0107 27.5669 36.5658 34.2501 36.8048 36.1803L37.4336 41.1531C36.8705 41.2049 36.3108 41.333 35.7537 41.347C35.5173 40.2806 35.348 38.9253 35.1714 37.8284L34.1521 31.4466C34.0698 30.9101 33.7218 28.0981 33.5485 27.8165L33.5001 27.8085C33.3507 28.0868 33.6926 29.9221 33.761 30.3703C34.3314 33.6989 34.7929 37.0774 35.3666 40.424L30.7504 40.4167C29.8693 40.42 28.8726 40.4459 28.0001 40.412C27.9589 39.3901 27.852 38.3563 27.8367 37.3271C27.7943 34.4108 28.0194 31.1299 29.3162 28.4706C29.7318 27.6186 30.5671 26.1864 31.6315 26.2222C32.4662 26.2508 32.8214 26.3537 33.6495 26.0748Z" fill="#ECEFF6"/>
<path d="M28.1484 40.6385L35.3907 40.6351C35.4956 41.0388 35.4133 41.3768 35.805 41.6059C35.8376 41.835 35.8874 42.0893 35.9279 42.3191C35.4491 42.9346 35.4027 43.2533 35.6643 43.9844C36.1404 45.3164 36.6025 46.649 37.1244 47.9644C36.5633 48.1835 36.1039 48.2997 35.8396 48.8974C35.7194 49.1689 35.6736 49.4684 35.7068 49.7639C35.7619 50.2386 36.6038 52.2559 36.823 52.8117C35.8157 51.8077 35.323 50.1537 34.8064 48.8336L32.831 43.8124C32.6922 43.4605 32.1039 41.7606 31.8051 41.6783C31.5992 41.8084 31.0508 43.6271 30.9379 43.9651L26.165 57.7373C25.1903 57.3561 24.1411 57.0374 23.1484 56.645L28.1497 40.6378L28.1484 40.6385Z" fill="#ECEFF6"/>
<path d="M42.4786 46.2235C42.7183 46.2016 42.96 46.2401 43.1805 46.3364C43.8 46.608 43.9839 47.4174 44.2263 48.0163C44.5769 48.8789 44.9168 49.7454 45.2462 50.6159L48.0948 57.8476C48.2183 58.1637 48.4122 58.6895 48.2063 58.9664C47.8717 59.4166 46.5224 59.752 46.0211 59.9166C45.12 60.2128 44.2615 60.5003 43.3843 60.742C43.0689 59.8529 42.719 58.9485 42.395 58.0587C42.1453 57.256 41.7117 56.1763 41.4129 55.3562L39.5762 50.2613C39.3319 49.5794 38.8299 48.2965 38.6553 47.6305C39.2024 47.3888 40.314 46.934 40.8565 46.7594C41.2349 47.7607 41.5749 48.7832 41.9541 49.7852C42.0205 49.9599 42.0656 50.1425 42.1606 50.3038C42.2595 50.3563 42.2084 50.351 42.3199 50.3164C42.3797 50.1385 42.128 49.6405 42.0556 49.4233C41.7529 48.5157 41.3644 47.6046 41.0982 46.6876C41.5729 46.5223 41.9726 46.3165 42.4786 46.2235Z" fill="#EEF3FC"/>
<path d="M43.0923 52.3697C43.1414 52.3783 43.1713 52.3889 43.2191 52.4035C43.3194 52.5616 43.9256 54.2123 44.0179 54.4573L45.069 57.2495C45.1786 57.5416 45.6733 58.7594 45.654 58.9852C45.5564 58.9692 45.5026 58.9732 45.4635 58.8749C45.3612 58.6233 45.2662 58.3683 45.17 58.114L44.5571 56.4925L43.6135 53.9965C43.502 53.701 43.0352 52.5848 43.0916 52.369L43.0923 52.3697Z" fill="#9AA5BB"/>
<path d="M38.0016 47.8409L38.0428 47.8589C37.8243 48.1291 37.6198 48.2287 37.7413 48.6205C37.902 49.1377 38.0932 49.645 38.2765 50.155L39.2951 52.9637L42.226 61.054C41.7121 61.1994 41.0872 61.5228 40.6092 61.4053C40.2878 61.2366 40.1563 61.0918 40.0255 60.7612C39.7712 60.1177 39.5288 59.4664 39.2838 58.819L37.3622 53.6258L36.408 51.1477C36.2865 50.833 36.0142 50.1869 35.9485 49.8921C35.8808 49.5933 35.9107 49.2805 36.0342 49.0003C36.3097 48.3655 37.3409 48.1026 38.0023 47.8409H38.0016Z" fill="#EEF3FC"/>
<path d="M48.3838 37.5151C48.6985 37.5105 49.0239 37.5144 49.3393 37.5138L49.3439 48.0648L49.3459 51.1179C49.3459 51.5037 49.3685 52.3297 49.332 52.6876C48.9774 52.6471 48.7417 52.671 48.3845 52.6996V37.5151H48.3838Z" fill="#ECEFF6"/>
<path d="M20.626 37.5641L21.4879 37.5681L21.4766 47.6742C21.4772 49.2234 21.5337 51.1576 21.4726 52.6775C21.195 52.6636 20.9049 52.6735 20.626 52.6788C20.5802 49.1988 20.6479 45.6995 20.62 42.2168C20.608 40.6736 20.6014 39.1059 20.6266 37.5641H20.626Z" fill="#ECEFF6"/>
<path d="M30.543 21.3367C31.0728 21.587 31.4878 21.5777 32.043 21.4588C32.0549 21.577 32.0675 21.6946 32.0947 21.8108C32.1904 22.2291 32.4493 22.591 32.8139 22.8167C33.2747 23.0996 33.6996 23.0598 34.193 22.9396L34.1904 22.9761C34.1439 23.5525 33.8836 23.8725 33.4639 24.2297L33.4805 25.7716C33.4799 25.8041 33.4659 25.8327 33.4546 25.8659C33.102 26.0763 32.3059 26.0265 31.9068 25.9967C31.9015 25.7058 31.8969 25.4143 31.8995 25.1228C31.9035 24.6985 32.0855 24.9987 32.3159 24.8001L32.3198 24.7178C32.2541 24.6521 31.8889 24.674 31.7501 24.6308C30.1725 24.1441 30.195 22.6175 30.543 21.3367Z" fill="#ECEFF6"/>
<path d="M22.7393 58.0476C23.2593 58.0018 24.9246 58.8311 25.5627 59.0655L24.8436 61.0303C24.0375 60.6704 23.163 60.3212 22.3449 59.9739C21.0076 59.444 19.6896 58.8484 18.333 58.3165C19.7945 58.2123 21.2659 58.1538 22.74 58.0476H22.7393Z" fill="#ECEFF6"/>
<path d="M37.5628 42.5381C37.687 42.5913 37.9951 42.7759 38.0608 42.8834C38.3776 43.4033 38.5867 44.0554 38.8065 44.6225L39.7135 46.9783C39.007 47.2479 38.3849 47.4976 37.6651 47.7519C37.6412 47.7586 37.6604 47.7559 37.5867 47.7473C37.5117 47.6457 37.4287 47.3548 37.3782 47.22C37.1438 46.5813 36.9154 45.9405 36.6943 45.2977C36.523 44.8117 36.3457 44.3256 36.1937 43.8336C36.1292 43.6271 35.9964 43.2134 36.278 43.1158C36.4294 43.161 36.511 43.4279 36.61 43.4638C36.9446 43.5859 37.525 43.4737 37.6611 43.0992C37.7335 42.8987 37.6345 42.7114 37.5635 42.5375L37.5628 42.5381Z" fill="#ECEFF6"/>
<path d="M27.6802 34.1193C27.72 34.3098 27.5899 35.8324 27.6031 36.2042C27.6184 36.6465 27.6005 37.2301 27.6343 37.7022C27.6536 37.9698 27.6968 38.8032 27.637 39.019C27.4584 39.6611 27.1436 40.4778 26.88 41.0907C26.556 40.9857 26.1662 40.8131 25.8455 40.681L25.4053 40.5083C25.5168 40.0356 26.0195 38.683 26.2047 38.179C26.6881 36.8636 27.147 35.3981 27.6802 34.1193Z" fill="#ECEFF6"/>
<path d="M20.5567 52.9008C21.6749 52.7873 22.7566 52.9885 23.4631 53.9227C22.8104 53.9167 22.1577 53.9148 21.5049 53.9161C20.5202 53.9227 19.5355 53.9247 18.5508 53.9207C19.0282 53.2202 19.752 52.9925 20.5567 52.9008Z" fill="#ECEFF6"/>
<path d="M48.5379 52.8982C49.6043 52.7926 50.5054 53.1844 51.2637 53.9234H49.4821L46.8075 53.9261C46.7677 53.8504 46.7159 53.7276 46.6787 53.6459C47.2976 53.2057 47.7889 53.0197 48.5379 52.8976V52.8982Z" fill="#ECEFF6"/>
<path d="M23.4776 57.0375C24.2983 57.3177 25.1509 57.6006 25.965 57.8914C25.8541 58.2101 25.7392 58.5275 25.6197 58.8436C24.8102 58.5541 24.0181 58.1537 23.1748 57.8575C23.2644 57.5375 23.3501 57.3409 23.4776 57.0375Z" fill="#ECEFF6"/>
<path d="M37.0309 41.4136C37.0681 41.4136 37.0455 41.4103 37.0953 41.4355C37.1465 41.5736 37.4911 43.0185 37.3888 43.1081C37.2155 43.2602 36.8211 43.3837 36.5721 43.1719C36.2328 42.5537 36.1485 42.2595 35.9971 41.5696C36.3337 41.5132 36.6916 41.4647 37.0309 41.4136Z" fill="#ECEFF6"/>
<path d="M36.5718 42.0457C36.609 42.0596 36.6595 42.0789 36.6694 42.1214C36.7159 42.3219 36.9011 42.8743 36.858 43.0523L36.7425 43.0111C36.5838 42.7986 36.4251 42.2893 36.5718 42.0457Z" fill="#9AA5BB"/>
<path d="M39.4108 59.8865C39.5244 59.9821 39.8019 60.7835 39.8716 60.9708C39.4208 61.0684 38.7408 61.1414 38.2647 61.2098L37.8438 61.2749C38.371 60.8247 38.8696 60.3128 39.4108 59.8865Z" fill="#ECEFF6"/>
<path d="M25.3511 40.7861C25.6798 40.8159 26.2621 41.1028 26.5829 41.2442C26.4434 41.6234 26.3458 41.8525 26.128 42.1957C26.2243 41.9102 26.4062 41.4886 26.2767 41.2057C26.0271 41.045 25.7402 41.5776 25.6293 41.7575L25.7024 41.4109C25.6453 41.3239 25.6413 41.2987 25.549 41.2515C25.3206 41.3472 24.879 42.804 24.7734 43.1094C24.81 42.2509 24.8724 41.4946 25.3511 40.7854V40.7861Z" fill="#ECEFF6"/>
<path d="M25.7003 42.2894L25.7228 42.3127C25.7208 42.4315 25.6365 42.5537 25.5768 42.6699L25.5469 42.6141C25.5967 42.4993 25.6438 42.4023 25.7009 42.2901L25.7003 42.2894Z" fill="#9AA5BB"/>
<path d="M62.0775 33.8293L63.4122 33.8346L63.3922 52.707C64.2203 52.8703 64.8617 53.0841 65.3783 53.8165C65.442 53.9075 65.4746 53.9706 65.4712 54.0821L65.4241 54.1379C64.4845 54.1977 63.2408 54.1147 62.2721 54.1392C61.8703 54.1492 60.377 54.1545 60.0503 54.1027C60.0211 53.9579 60.0974 53.8444 60.1804 53.7269C60.6094 53.116 61.3644 52.8006 62.0888 52.7428L62.0709 36.551L62.0662 35.3591C62.0682 34.8718 62.0569 34.3094 62.0775 33.8286V33.8293Z" fill="#9AA5BB"/>
<path d="M62.5971 37.4657C62.7897 37.4631 62.9975 37.469 63.1914 37.4717L63.1954 48.627L63.1921 51.4364C63.1921 51.6309 63.202 52.5167 63.1688 52.6641C63.0672 52.7398 63.0314 52.7106 62.8707 52.7119L62.3043 52.7206C62.2698 51.702 62.2904 50.5858 62.2924 49.5579L62.2997 44.0779L62.285 39.2638C62.285 39.0288 62.2552 37.6609 62.3063 37.5089C62.4092 37.4445 62.4517 37.4684 62.5958 37.4657H62.5971Z" fill="#ECEFF6"/>
<path d="M62.3144 52.9344C63.5527 52.8461 64.3867 52.9231 65.1995 53.9497L63.2055 53.9477C62.232 53.9523 61.2586 53.9497 60.2852 53.9397C60.7898 53.1921 61.4485 52.9895 62.3137 52.9344H62.3144Z" fill="#ECEFF6"/>
<path d="M6.58053 33.8337C7.03272 33.8357 7.48557 33.841 7.93776 33.8503C7.94506 34.347 7.93709 34.861 7.93577 35.359L7.93178 36.5661C7.90323 38.509 7.89128 40.4525 7.89725 42.3954L7.89393 52.6689C8.77042 52.7778 9.54266 53.1377 9.98555 53.9445C10.0294 54.0242 10.0214 54.064 9.98754 54.1364C9.50216 54.1922 8.46431 54.1543 7.93577 54.159C6.90191 54.1689 5.82688 54.1603 4.79104 54.1424C4.67351 54.1404 4.67815 54.1536 4.62238 54.0926C4.61574 53.9159 4.71799 53.7977 4.80365 53.655C5.19807 52.9969 5.89461 52.8124 6.59381 52.6789C6.55397 49.3177 6.5885 45.8695 6.59381 42.5057L6.58119 33.8337H6.58053Z" fill="#9AA5BB"/>
<path d="M6.78433 37.4771C7.07251 37.4665 7.41049 37.4758 7.70265 37.4764L7.68406 52.5905L7.67476 52.6118C7.5984 52.6609 6.95498 52.651 6.81023 52.6543C6.73055 47.5959 6.83612 42.5302 6.785 37.4771H6.78433Z" fill="#ECEFF6"/>
<path d="M7.14004 52.8686C8.25225 52.8673 9.07097 52.9788 9.74294 53.9496L7.46275 53.9516L4.86914 53.9469C5.36183 53.0704 6.21774 52.9098 7.1407 52.8679L7.14004 52.8686Z" fill="#ECEFF6"/>
<path d="M20.394 35.3524V36.543C19.1702 36.5005 17.7778 36.5317 16.5448 36.5343L7.93262 36.5662L7.9366 35.3591L20.3947 35.3531L20.394 35.3524Z" fill="#EEF3FC"/>
<path d="M49.5101 35.3895L57.85 35.3868L60.3898 35.3682C60.9084 35.3676 61.5678 35.3882 62.0665 35.3596L62.0711 36.5515L49.5088 36.5674L49.5108 35.3888L49.5101 35.3895Z" fill="#EEF3FC"/>
<path d="M53.5564 9.73875C53.5989 9.76465 53.6574 9.79719 53.67 9.85164C53.7935 10.4054 53.8479 10.9778 53.9482 11.5362C53.998 11.8138 54.0266 12.078 54.1069 12.3496C54.3805 12.4273 55.8307 12.8051 55.8685 13.0143C55.7443 13.167 54.4588 13.501 54.1275 13.6278C53.9635 14.25 53.919 15.0123 53.8161 15.6524C53.7709 15.9346 53.747 16.3297 53.6361 16.5866L53.5173 16.5501C53.3825 16.3682 53.0943 14.0276 53.0153 13.6053C52.7138 13.5116 51.3705 13.2015 51.3154 12.9831C51.4303 12.8025 52.7291 12.4247 53.0372 12.3144C53.1315 11.8197 53.2205 11.3244 53.3055 10.8277C53.3486 10.5721 53.4203 9.89546 53.5578 9.73743L53.5564 9.73875Z" fill="#EEF3FC"/>
<path d="M47.3195 4C47.5167 4.11487 47.5532 5.0053 47.5831 5.25563C47.6588 5.89109 47.7405 6.52588 47.8288 7.16C48.0944 7.26226 49.1269 7.4847 49.2073 7.71046C49.1103 7.87647 48.0426 8.17261 47.8016 8.25096C47.6522 8.72174 47.5452 10.237 47.3746 10.4435L47.275 10.3904C47.1429 10.2158 46.9795 8.63742 46.8753 8.23304C46.6296 8.13543 45.5207 7.86983 45.4775 7.69054C45.6024 7.54048 46.5831 7.2357 46.8407 7.14274C46.9377 6.64739 47.1947 4.22643 47.3202 4.00066L47.3195 4Z" fill="#EEF3FC"/>
</svg>
