<svg width="70" height="70" viewBox="0 0 70 70" fill="none" xmlns="http://www.w3.org/2000/svg">
<g clip-path="url(#clip0_4979_53067)">
<path d="M29.4861 19.1754C29.4817 18.5933 29.4253 16.1962 29.5249 15.8001C29.5996 15.5072 29.7519 15.2393 29.9649 15.0248C30.4819 14.5108 31.124 14.6272 31.7866 14.6125C32.2266 14.603 32.671 14.6111 33.1118 14.6089L38.2406 14.6016L46.4862 14.6089C48.0428 14.6067 49.5987 14.614 51.1552 14.603C51.6919 14.5979 52.1795 14.7216 52.5507 15.1382C52.7104 15.3169 52.9029 15.6515 52.9249 15.8894C52.99 16.6077 52.9476 17.4006 52.9461 18.1196C52.941 19.6513 52.9446 21.183 52.9578 22.7147L64.6007 27.8032C65.5737 28.2301 66.5497 28.6489 67.5294 29.0596C68.0631 29.2814 68.7792 29.5297 69.2712 29.8086C70.6791 30.6074 69.6856 32.038 69.2887 33.0836C68.9256 34.0398 68.5368 34.9484 68.1392 35.8812L65.1952 42.8441L60.2678 54.4986C59.3774 56.6351 58.4703 58.7642 57.547 60.8868C57.3127 61.4125 57.1443 61.6533 56.5886 61.8964C55.8543 62.2171 54.9852 61.7141 54.2999 61.4176L52.2857 60.5375L48.8855 59.0835C47.6972 58.5673 46.3918 57.9772 45.1918 57.4998C45.1808 58.9099 45.1918 60.4196 45.1398 61.8203C44.4874 61.8239 43.8072 61.8174 43.1571 61.832C42.843 62.018 21.3174 61.9118 19.1377 61.9023L16.2749 61.895C16.0385 61.895 15.1181 61.9074 14.9402 61.8723C14.9278 60.8275 14.9241 59.7827 14.9292 58.7371C14.837 58.5607 14.957 57.0663 14.875 56.6885L14.7894 56.6556C14.2307 56.6944 13.6662 56.668 13.1552 56.4206C12.0445 55.8839 11.7509 54.6795 11.2413 53.664C10.5509 52.2868 9.88755 50.8986 9.25935 49.4921C9.00163 48.9144 8.68314 48.3521 8.40418 47.7832L6.69677 44.2915L3.86184 38.5536C3.45182 37.7131 3.09306 36.8923 2.66694 36.0503L0.976377 32.6392C0.542936 31.7752 -0.7281 30.0524 0.568562 29.2309C1.01811 28.9461 1.68218 28.6642 2.1742 28.4153L5.52312 26.7167L9.1854 24.8606C9.76308 24.5656 10.5209 24.1138 11.1205 23.911C12.0174 23.6079 12.803 24.4023 13.0344 25.1857C13.4554 26.0702 13.8559 26.9634 14.2359 27.8654C14.3303 28.0873 14.6818 28.9805 14.7725 29.1328C14.8245 28.3758 14.7872 27.2204 14.7791 26.4428C14.7674 25.1865 14.7645 23.9301 14.7703 22.6729C14.7725 21.5469 14.5192 19.8841 15.761 19.3665C16.272 19.1534 17.3029 19.212 17.8579 19.2127C18.5564 19.2157 19.2549 19.2142 19.9526 19.2076L20.5047 19.2105C21.116 19.2179 21.7933 19.2296 22.4039 19.2047C22.5979 19.1798 22.7795 19.1827 22.975 19.1805C23.8177 19.2201 24.7534 19.2017 25.6005 19.1981L29.4861 19.1747V19.1754Z" fill="#002C6E"/>
<path d="M22.9745 19.1816C23.8172 19.2212 24.7529 19.2029 25.6 19.1992L29.4856 19.1758L29.4475 44.0481C29.192 44.043 28.9467 44.0386 28.6912 44.0598C26.5928 44.2348 25.2911 45.8324 25.2647 47.9008C25.2625 48.2917 25.2625 48.6827 25.2647 49.0737L22.9869 49.0781H22.4019C21.7833 49.0737 21.1646 49.0744 20.5466 49.0817L19.9558 49.0839C17.4598 49.0598 15.3607 50.4985 14.9631 53.1328C14.9075 53.4996 14.947 53.8943 14.9104 54.2611L14.8804 54.0495L14.8453 54.0656L14.865 54.111C14.8365 54.0202 14.8182 53.9484 14.7955 53.8562C14.7889 54.1681 14.7655 56.5996 14.7874 56.6567C14.2288 56.6955 13.6643 56.6692 13.1532 56.4217C12.0425 55.885 11.7489 54.6806 11.2394 53.6651C10.5489 52.2879 9.88559 50.8997 9.25739 49.4932C8.99967 48.9155 8.68118 48.3532 8.40223 47.7844L6.69482 44.2927L3.85988 38.5547C3.44987 37.7142 3.09111 36.8934 2.66499 36.0514L0.974424 32.6403C0.540983 31.7763 -0.730053 30.0535 0.566609 29.2321C1.01616 28.9472 1.68023 28.6654 2.17224 28.4164L5.52116 26.7178L9.18345 24.8618C9.76112 24.5667 10.5189 24.115 11.1186 23.9121C12.0155 23.609 12.8011 24.4034 13.0324 25.1868C13.4534 26.0713 13.8539 26.9645 14.2339 27.8666C14.3284 28.0884 14.6798 28.9817 14.7706 29.1339C14.8226 28.3769 14.7852 27.2215 14.7772 26.444C14.7655 25.1876 14.7625 23.9312 14.7684 22.6741C14.7706 21.548 14.5173 19.8852 15.759 19.3676C16.2701 19.1545 17.3009 19.2131 17.8559 19.2139C18.5544 19.2168 19.2529 19.2153 19.9506 19.2087L20.5027 19.2117C21.1141 19.219 21.7913 19.2307 22.4019 19.2058C22.596 19.1809 22.7775 19.1838 22.973 19.1816H22.9745Z" fill="#D9E4F8"/>
<path d="M14.7884 56.6568C14.2298 56.6956 13.6653 56.6693 13.1542 56.4218C12.0435 55.8851 11.7499 54.6807 11.2403 53.6652C10.5499 52.288 9.88657 50.8998 9.25837 49.4933C9.00065 48.9157 8.68216 48.3533 8.4032 47.7845L6.6958 44.2928L3.86086 38.5548C3.45085 37.7143 3.09209 36.8935 2.66597 36.0515L0.975401 32.6404C0.54196 31.7764 -0.729077 30.0536 0.567586 29.2322C1.01713 28.9473 1.68121 28.6655 2.17322 28.4165L5.52214 26.7179L9.18442 24.8619C9.7621 24.5668 10.5199 24.1151 11.1195 23.9123C12.0164 23.6091 12.802 24.4035 13.0334 25.187C13.4544 26.0714 13.8549 26.9646 14.2349 27.8667C14.3293 28.0885 14.6808 28.9818 14.7716 29.134C14.7555 30.3421 14.7847 31.529 14.7877 32.7348C14.7891 33.1749 14.795 33.6259 14.7899 34.0644C14.7913 34.3998 14.8104 35.0075 14.7657 35.3208C14.8192 35.8019 14.795 36.6204 14.795 37.1322L14.8009 40.3208C14.825 44.8133 14.7232 49.385 14.7957 53.8578C14.7891 54.1697 14.7657 56.6012 14.7877 56.6583L14.7884 56.6568Z" fill="#809DCA"/>
<path d="M11.0052 44.2013L11.4478 44.6613L12.0221 44.3825L11.7213 44.9456L12.1639 45.4056L11.5355 45.2936L11.2348 45.8566L11.1471 45.2243L10.5187 45.1123L11.0929 44.8336L11.0052 44.2013Z" fill="#FFB700"/>
<path d="M8.03648 37.7223L8.47906 38.1823L9.05331 37.9035L8.75259 38.4666L9.19517 38.9266L8.56673 38.8145L8.26601 39.3776L8.17834 38.7453L7.5499 38.6333L8.12415 38.3546L8.03648 37.7223Z" fill="#FFB700"/>
<path d="M9.44468 41.0528L9.88726 41.5128L10.4615 41.2341L10.1608 41.7971L10.6034 42.2571L9.97494 42.1451L9.67422 42.7082L9.58654 42.0759L8.95811 41.9639L9.53236 41.6851L9.44468 41.0528Z" fill="#FFB700"/>
<path d="M4.69859 31.2638L5.14117 31.7238L5.71542 31.445L5.4147 32.0081L5.85728 32.4681L5.22884 32.3561L4.92812 32.9191L4.84045 32.2868L4.21201 32.1748L4.78626 31.8961L4.69859 31.2638Z" fill="#FFB700"/>
<path d="M6.43492 34.4791L6.8775 34.9391L7.45175 34.6603L7.15103 35.2234L7.59361 35.6834L6.96517 35.5714L6.66445 36.1345L6.57678 35.5022L5.94834 35.3902L6.52259 35.1114L6.43492 34.4791Z" fill="#FFB700"/>
<path d="M10.7352 35.7061C10.7864 35.6695 10.8538 35.6651 10.9087 35.6951C10.9644 35.7251 10.9973 35.7837 10.9951 35.8467C10.9929 35.9096 10.9548 35.9653 10.897 35.9909C10.8201 36.0253 10.7293 35.9953 10.6876 35.9221C10.6459 35.8489 10.6664 35.7559 10.7345 35.7068L10.7352 35.7061Z" fill="#FBFCFF"/>
<path d="M19.9526 19.2088L20.5047 19.2118L20.5464 49.0819L19.9555 49.0841C17.4596 49.0599 15.3605 50.4986 14.9629 53.1329C14.9073 53.4997 14.9468 53.8944 14.9102 54.2612L14.8802 54.0496L14.845 54.0657L14.8648 54.1111C14.8362 54.0203 14.8179 53.9486 14.7952 53.8563C14.7228 49.3835 14.8245 44.8119 14.8004 40.3193L14.7945 37.1307C14.7945 36.6197 14.8179 35.8011 14.7652 35.3194C14.8099 35.006 14.7909 34.3983 14.7894 34.063C14.7945 33.6237 14.7887 33.1734 14.7872 32.7334C14.7843 31.5275 14.755 30.3407 14.7711 29.1326C14.8231 28.3755 14.7857 27.2202 14.7777 26.4426C14.766 25.1862 14.763 23.9298 14.7689 22.6727C14.7711 21.5466 14.5178 19.8839 15.7595 19.3663C16.2706 19.1532 17.3014 19.2118 17.8564 19.2125C18.5549 19.2154 19.2534 19.214 19.9511 19.2074L19.9526 19.2088Z" fill="#D9E4F8"/>
<path d="M19.9529 19.209L20.5049 19.2119L20.5467 49.082L19.9558 49.0842L19.9521 19.209H19.9529Z" fill="#002C6E"/>
<path d="M20.5049 19.2119C21.1162 19.2192 21.7935 19.2309 22.4041 19.2061L22.4027 49.0783C21.784 49.0732 21.1653 49.0747 20.5473 49.082L20.5056 19.2119H20.5049Z" fill="#002C6E"/>
<path d="M22.4038 19.2058C22.5978 19.1809 22.7794 19.1838 22.9749 19.1816L22.9903 39.1375V45.8287L22.9917 47.9776C22.9917 48.2903 23.0093 48.786 22.9873 49.0781H22.4023L22.4038 19.2065V19.2058Z" fill="#6496FF" fill-opacity="0.18"/>
<path d="M17.5394 60.6775C24.7351 60.7558 31.9469 60.6379 39.1441 60.6892C40.3111 60.6972 41.4826 60.6731 42.6489 60.698C42.6504 61.0838 42.6489 61.4411 42.6775 61.827L43.1563 61.8328C42.8422 62.0188 21.3166 61.9126 19.1369 61.9031L16.2742 61.8958C16.0377 61.8958 15.1174 61.9082 14.9395 61.8731C15.586 61.8174 16.8402 61.8584 17.535 61.8599L17.5394 60.6775Z" fill="#FFB700"/>
<path d="M14.7958 53.8564C14.8185 53.9487 14.8368 54.0204 14.8654 54.1112L14.8456 54.0658L14.8807 54.0497L14.9108 54.2613C14.9093 55.2168 14.9144 56.1715 14.9261 57.127C14.9305 57.5561 14.9584 58.3212 14.9283 58.7385C14.8361 58.5621 14.9562 57.0677 14.8742 56.6899L14.7885 56.657C14.7665 56.5999 14.79 54.1683 14.7965 53.8564H14.7958Z" fill="#FFB700"/>
<path d="M49.224 21.6263C49.4891 21.6153 49.6758 21.6732 49.9189 21.7742C51.6021 22.4698 53.2692 23.1983 54.9378 23.9261C57.7018 25.1122 60.4562 26.3224 63.1988 27.5569C65.1134 28.4135 67.0881 29.1749 69.0064 30.0257C69.5775 30.3061 69.841 30.8531 69.6177 31.4512C69.0283 33.032 68.313 34.5659 67.679 36.1232C65.7907 40.6897 63.868 45.2423 61.9117 49.781L58.3724 58.1174C57.9939 58.9865 57.5275 60.2699 57.1072 61.0687C56.2631 62.1567 55.3413 61.5234 54.3419 61.0819C53.6829 60.789 53.021 60.5006 52.3577 60.2172C50.0074 59.2039 47.5737 58.1533 45.2088 57.178C45.009 54.7699 45.7433 52.2147 43.7965 50.3689C42.3878 49.0334 41.4323 49.0737 39.6305 49.0627C38.8141 49.0539 37.9978 49.051 37.1807 49.0539C37.4699 48.1922 38.0849 46.9299 38.4554 46.0586L41.3862 39.2451L48.2766 22.7092C48.5409 22.0854 48.6024 21.8775 49.2226 21.6271L49.224 21.6263Z" fill="#FBFCFF"/>
<path d="M51.6052 37.5966C54.8069 37.303 57.6441 39.6517 57.9545 42.852C58.2649 46.0523 55.9315 48.9019 52.7327 49.2284C49.5105 49.5579 46.6345 47.2033 46.3226 43.9796C46.01 40.7551 48.38 37.8924 51.6059 37.5966H51.6052Z" fill="#002C6E"/>
<path d="M50.2184 38.1704C50.2836 38.2034 50.4849 38.5079 50.5625 38.5995C50.7968 38.8748 50.9945 39.0571 51.2669 39.2914C50.5479 40.2534 50.0793 40.9885 49.5573 42.0538C49.2922 41.9279 48.9913 41.8078 48.7182 41.6929C48.2167 41.4622 47.7108 41.2411 47.2012 41.0302C47.8455 39.5857 48.8149 38.8125 50.2184 38.1704Z" fill="#FBFCFF"/>
<path d="M54.9017 44.7412L57.2454 45.5481C56.7717 46.6566 56.1384 47.3909 55.1543 48.0594C54.8212 48.2688 54.5415 48.3845 54.1784 48.5309C53.8731 48.0682 53.5897 47.7797 53.209 47.3836C53.9668 46.4332 54.3563 45.8314 54.9017 44.7412Z" fill="#FBFCFF"/>
<path d="M47.0593 41.345C47.6765 41.5668 48.8618 42.0823 49.4337 42.3766C49.0207 43.2977 48.826 43.8373 48.5814 44.8088L48.4877 45.2555C47.9693 45.1757 47.4715 45.1595 46.9502 45.1405C46.4794 43.7179 46.5753 42.7127 47.0593 41.3442V41.345Z" fill="#FBFCFF"/>
<path d="M55.8425 41.3599C56.3389 41.458 56.7811 41.5883 57.2944 41.6718C57.8245 42.7729 57.741 44.0916 57.3756 45.2301L56.9451 45.1107C56.3023 44.905 55.6499 44.6568 55.0137 44.4247C55.4808 43.1815 55.6543 42.6843 55.8417 41.3599H55.8425Z" fill="#FBFCFF"/>
<path d="M51.5016 39.5281C52.2536 40.0472 52.4666 40.2244 53.3328 40.5297C52.993 41.398 52.5332 42.3198 52.1664 43.2094L51.8941 43.0783C51.2256 42.7657 50.5352 42.5058 49.8652 42.1741C50.4144 41.0766 50.7782 40.4923 51.5016 39.5273V39.5281Z" fill="#FBFCFF"/>
<path d="M53.6283 40.6296C54.2572 40.8508 54.8876 41.0667 55.5202 41.2761C55.4433 41.7616 55.0164 44.0349 54.6225 44.2656L54.5061 44.2282C53.9204 43.9881 53.0103 43.6352 52.4707 43.3423C52.85 42.4183 53.2468 41.5441 53.629 40.6289L53.6283 40.6296Z" fill="#FBFCFF"/>
<path d="M49.7372 42.5107C50.4943 42.8095 51.2784 43.177 52.0208 43.5153C51.6701 44.2709 51.3304 45.0806 50.9973 45.8465C50.9614 45.9182 50.9775 45.8926 50.9131 45.9468C50.1121 45.6722 49.6647 45.5214 48.8213 45.3625C48.9099 44.5022 49.3763 43.2986 49.7372 42.5107Z" fill="#FBFCFF"/>
<path d="M52.3373 43.6836C53.0511 43.9113 53.8719 44.2935 54.5696 44.5995C54.1713 45.5243 53.825 46.0895 53.199 46.8641L52.9567 47.1577C52.3951 46.6891 51.9177 46.4043 51.2617 46.0997C51.641 45.2775 51.9236 44.5219 52.338 43.6843L52.3373 43.6836Z" fill="#FBFCFF"/>
<path d="M48.7818 45.6655C49.4708 45.8178 50.1502 45.9767 50.8048 46.2476C50.5866 46.7857 50.3589 47.3202 50.1239 47.851L49.8654 48.4617C49.451 48.2925 49.0915 48.0582 48.7437 47.7793C48.6354 46.908 48.6822 46.5251 48.7818 45.6655Z" fill="#FBFCFF"/>
<path d="M51.11 46.3882C51.7375 46.6752 52.2822 46.9644 52.7823 47.4418C52.4206 47.8635 52.0413 48.2698 51.646 48.6594C51.553 48.7436 51.4541 48.808 51.3516 48.8805C50.9189 48.7992 50.5638 48.7004 50.1465 48.5686L51.1093 46.3882H51.11Z" fill="#FBFCFF"/>
<path d="M53.206 38.0205C53.4513 38.022 53.9082 38.1918 54.1564 38.2775C53.9675 38.8962 53.679 39.6159 53.4462 40.2199L53.0047 40.0574C52.5398 39.8582 52.1312 39.591 51.7402 39.2725C52.2125 38.7483 52.6071 38.3888 53.2068 38.0205H53.206Z" fill="#FBFCFF"/>
<path d="M54.4795 38.4404C54.7687 38.5751 55.0235 38.6967 55.2526 38.9244C55.6597 39.3285 55.5916 40.3982 55.558 40.9474L55.0315 40.7834C54.6054 40.6347 54.183 40.4751 53.7656 40.3038C53.9948 39.68 54.2327 39.0584 54.4788 38.4404H54.4795Z" fill="#FBFCFF"/>
<path d="M47.1172 45.5095C47.6275 45.4766 47.9504 45.5007 48.4505 45.5761C48.3772 46.2812 48.3399 46.6707 48.3677 47.3802C48.0082 47.3677 47.1501 45.9144 47.1172 45.5095Z" fill="#FBFCFF"/>
<path d="M51.5041 37.8938C51.8233 37.8498 52.4149 37.8762 52.7502 37.8857C52.3673 38.1837 52.062 38.4824 51.7289 38.8273L51.4924 39.0828C51.1343 38.7841 50.8488 38.4839 50.6094 38.0834C50.9352 37.9823 51.1688 37.9362 51.5041 37.893V37.8938Z" fill="#FBFCFF"/>
<path d="M55.8689 39.4072C56.2489 39.6986 57.1626 40.8196 57.1311 41.3116C56.6867 41.2369 56.2972 41.1373 55.8623 41.0275C55.9406 40.2807 55.8843 40.1357 55.8689 39.4072Z" fill="#FBFCFF"/>
<path d="M53.0216 47.6489C53.3137 47.9469 53.6095 48.324 53.8775 48.6491C53.485 48.7757 53.0626 48.8343 52.6547 48.8936C52.3297 48.9266 52.1708 48.9353 51.8486 48.8958C52.2989 48.4704 52.6159 48.1131 53.0208 47.6489H53.0216Z" fill="#FBFCFF"/>
<path d="M50.8436 28.9526C51.1262 28.9731 51.8752 29.3092 51.7705 29.665C51.5062 29.7873 51.0413 28.987 50.6035 29.3568C50.3494 29.8327 51.0677 29.9769 51.2954 30.2478C51.7888 30.8358 51.3722 31.4727 50.632 31.4003C50.2725 31.2838 49.8845 30.9683 49.7871 30.592C49.8171 30.4448 49.7842 30.5056 49.8881 30.4001C50.1459 30.3738 50.2462 30.8856 50.5039 31.0386C50.6921 31.1506 50.9944 31.2143 51.1189 30.9676C51.4696 30.2735 50.3706 30.2471 50.2652 29.7397C50.1744 29.3033 50.4417 29.0515 50.8443 28.9526H50.8436Z" fill="#002C6E"/>
<path d="M62.8261 34.804C63.4601 34.763 64.1044 35.1869 63.8072 35.8839C63.4762 36.1548 62.9564 35.5222 62.6379 35.6284C62.5559 35.7741 62.5932 35.8737 62.6247 36.045C62.8451 36.242 63.001 36.2288 63.3012 36.2932L63.3488 36.3679L63.3261 36.4404C63.1899 36.5268 62.9549 36.518 62.7997 36.488C62.3092 36.3928 62.2213 35.8568 62.3267 35.4432C62.408 35.1247 62.5522 34.9673 62.8253 34.804H62.8261Z" fill="#002C6E"/>
<path d="M62.8889 35.0641C63.2447 35.0378 63.7601 35.3365 63.5544 35.6601L63.4731 35.6616C63.2337 35.5583 62.8486 35.4749 62.7227 35.2852C62.7571 35.1483 62.7629 35.1798 62.8889 35.0641Z" fill="#FBFCFF"/>
<path d="M59.758 33.4568C60.1168 33.4524 60.4807 33.5856 60.611 33.9547C60.6689 34.1223 60.6579 34.3068 60.581 34.4664C60.2266 34.763 59.7954 34.1831 59.4183 34.2812L59.3861 34.361C59.4256 34.6275 59.4937 34.6553 59.7068 34.8303C59.974 34.8948 60.1205 34.8757 60.3943 34.8669C60.324 34.946 60.1944 35.1012 60.1036 35.1349C59.3956 35.4029 58.8868 34.4555 59.2155 33.8778C59.3656 33.6142 59.4923 33.5417 59.7588 33.4561L59.758 33.4568Z" fill="#002C6E"/>
<path d="M59.7473 33.7388C60.0284 33.7498 60.497 33.9291 60.2825 34.2725H60.2114C59.9881 34.1429 59.6879 34.0807 59.5752 33.9343C59.6059 33.8127 59.6191 33.8376 59.7473 33.7388Z" fill="#FBFCFF"/>
<path d="M53.2679 30.6602C53.4158 30.6726 53.5622 30.7026 53.7035 30.7495C53.8734 30.8044 54.26 30.9845 54.2944 31.1602C54.3471 31.4311 54.0118 32.331 53.877 32.555L53.7636 32.5667C53.6318 32.484 53.6508 32.4474 53.612 32.2885C53.4304 32.3207 53.3601 32.3229 53.1749 32.3244C52.9355 32.1765 52.7458 32.0425 52.7869 31.7328C52.8689 31.1141 53.5629 31.4626 53.9232 31.5424L53.973 31.5036C54.1728 30.9926 53.6149 30.986 53.2554 30.9376C53.2606 30.8454 53.2642 30.7531 53.2672 30.6609L53.2679 30.6602Z" fill="#002C6E"/>
<path d="M53.1307 31.603C53.4075 31.603 53.6037 31.688 53.8695 31.7722C53.8182 31.8944 53.7618 32.0204 53.7084 32.1426C53.4001 32.2642 52.9879 32.0306 53.1307 31.6038V31.603Z" fill="#FBFCFF"/>
<path d="M58.3525 31.9697C58.4528 32.0063 58.4638 32.0137 58.5553 32.0693C58.6029 32.2253 58.0098 33.6823 57.9015 33.9956C58.1687 34.1142 58.7588 34.2929 58.8753 34.5221C58.8533 34.6465 58.8592 34.6399 58.7808 34.7373C58.422 34.5272 57.9381 34.38 57.5244 34.1479C57.624 33.7511 58.1775 32.3336 58.3525 31.9697Z" fill="#002C6E"/>
<path d="M52.3516 29.7317C52.4665 29.7529 52.5112 29.7493 52.5917 29.8335C52.6349 29.9557 52.5741 30.0678 52.5419 30.2098C52.5961 30.3167 52.7403 30.3247 52.8882 30.447C52.908 30.5598 52.9139 30.5041 52.8465 30.6176C52.7433 30.6418 52.5785 30.5437 52.4724 30.4946C52.3838 30.5444 52.2959 30.8138 52.2615 30.9207C52.0704 31.5116 51.954 31.5643 52.591 31.7481C52.5441 31.8652 52.5514 31.8747 52.4438 31.9458C51.2548 32.0702 52.1553 30.6667 52.0726 30.4067C51.9708 30.3518 51.9101 30.3321 51.8464 30.2354C51.861 30.119 51.8354 30.1644 51.9174 30.0904C52.0477 30.0963 52.0616 30.1029 52.1905 30.0692C52.293 29.9872 52.2974 29.9133 52.3355 29.7837L52.3508 29.731L52.3516 29.7317Z" fill="#002C6E"/>
<path d="M60.9244 33.8706C61.0349 33.9094 61.0445 33.9219 61.1389 33.9856C61.2875 34.2081 61.2063 35.0245 61.2363 35.4008C61.5745 35.1211 61.8703 34.7455 62.1544 34.408C62.2562 34.4644 62.407 34.5252 62.4363 34.6181L62.3601 34.6723C62.0204 34.9791 61.5892 35.5802 61.1865 35.7142C60.8856 35.6666 60.9346 35.2156 60.9288 34.9659C60.9207 34.6028 60.9251 34.2345 60.9244 33.8706Z" fill="#002C6E"/>
<path d="M56.2461 31.3777C56.4174 31.4099 56.3823 31.3792 56.4994 31.4795C56.5294 31.6083 56.4635 31.7357 56.4159 31.8653C56.5572 31.9261 56.6956 31.9671 56.7586 32.1062L56.7271 32.1706C56.5177 32.2329 56.4503 32.1743 56.2768 32.0645C56.137 32.4049 55.839 32.9804 55.9539 33.2989C55.9715 33.3238 55.9913 33.3926 56.0023 33.4255C55.8639 33.5742 55.612 33.3501 55.5 33.255C55.5637 33.0646 55.9093 32.2065 55.9525 31.9685C55.9825 31.8023 55.8624 32.0527 55.8331 31.8067L55.8851 31.7416C56.1963 31.6684 56.1524 31.6684 56.2453 31.377L56.2461 31.3777Z" fill="#002C6E"/>
<path d="M64.8346 34.3491C64.9298 34.3982 64.9444 34.4099 65.0293 34.4758C65.0506 34.6449 64.202 36.6906 64.0526 36.949L63.751 36.7609C64.1544 36.1275 64.4568 35.0381 64.8339 34.3491H64.8346Z" fill="#002C6E"/>
<path d="M54.9212 31.228C55.0969 31.2829 55.0618 31.2881 55.1196 31.4477C55.3466 31.4631 55.6204 31.4352 55.7617 31.6227C55.7551 31.7486 55.7785 31.6973 55.717 31.794C55.5618 31.7984 55.37 31.7471 55.2133 31.7142C54.9395 31.9075 54.9241 31.9858 54.8048 32.2911C54.7272 32.513 54.6905 32.7421 54.4965 32.8439C54.3625 32.808 54.4123 32.8439 54.3281 32.7546C54.3618 32.4032 54.7557 31.5743 54.9204 31.2288L54.9212 31.228Z" fill="#002C6E"/>
<path d="M30.8549 14.9351C30.8775 14.9329 30.9251 14.9278 30.9566 14.9278C32.3865 14.9256 33.8238 14.9278 35.253 14.9278L43.5557 14.9226H48.7987C49.6693 14.9226 50.5479 14.9029 51.414 14.9373C51.9082 14.9563 52.4713 15.3392 52.5569 15.8496C52.6785 16.5744 52.636 17.4127 52.6382 18.15L52.636 22.576C51.6337 22.1886 50.6211 21.6381 49.5982 21.3218C49.1765 21.1914 48.5513 21.4777 48.336 21.8694C47.8762 22.7055 47.5775 23.6683 47.185 24.5418C46.2244 26.7947 45.3488 29.0886 44.3743 31.3341C41.778 31.3063 39.1818 31.3033 36.5855 31.3268L33.9439 31.329C33.6583 31.329 32.8119 31.2484 32.6552 31.4139C32.6626 31.5413 32.645 31.4827 32.7175 31.5947C32.9474 31.7053 36.0349 31.627 36.5445 31.6336C39.0976 31.6636 41.677 31.5625 44.2308 31.6541C43.8815 32.5839 43.3895 33.729 42.9758 34.6318C40.8562 34.653 38.722 34.6091 36.6009 34.6164C36.3981 34.6164 36.196 34.593 36.0884 34.8053L36.1206 34.8756C36.3812 34.9883 38.5821 34.9327 39.0397 34.9327C40.3078 34.9246 41.5759 34.9298 42.844 34.9466C42.4377 35.9409 42.0211 36.9315 41.5942 37.9177C41.1703 37.9221 38.227 37.8635 38.0579 37.9543C38.0139 38.0751 38.0147 38.0166 38.0476 38.1344C38.2058 38.2706 38.995 38.2084 39.2425 38.2084C39.9783 38.2113 40.7142 38.2208 41.45 38.2362C40.9184 39.5124 40.3635 40.768 39.848 42.0522C39.1466 42.0061 32.9994 41.9805 32.8397 42.0405C32.7548 42.0728 32.6955 42.1196 32.6589 42.2031L32.6926 42.2748C32.8895 42.3956 34.8942 42.3473 35.2508 42.3466L39.6891 42.3495C39.4322 43.026 39.0734 43.7845 38.7864 44.4655C38.1465 46.0074 37.4831 47.5398 36.7956 49.0613L34.7895 49.0547C34.7075 47.4798 35.0289 46.4218 33.7125 45.0834C32.5418 43.8929 31.3293 44.0635 29.7939 44.0694L29.8005 26.5436L29.7954 19.7557C29.7954 18.82 29.7925 17.8806 29.7954 16.9449C29.7983 15.9228 29.698 15.2653 30.8519 14.9358L30.8549 14.9351Z" fill="#FBFCFF"/>
<path d="M39.1551 19.1996C41.2784 18.9199 43.2252 20.4186 43.4976 22.5426C43.77 24.6667 42.2646 26.6084 40.1399 26.8734C38.0247 27.1377 36.0947 25.6412 35.8238 23.5267C35.5529 21.4122 37.0428 19.4771 39.1559 19.1989L39.1551 19.1996Z" fill="#002C6E"/>
<path d="M39.4621 19.4959C41.4111 19.3868 43.0819 20.8738 43.1984 22.8221C43.3155 24.7704 41.8343 26.447 39.8868 26.5715C37.9275 26.6967 36.2399 25.206 36.1227 23.2467C36.0048 21.2875 37.5021 19.6057 39.4621 19.4951V19.4959Z" fill="#FBFCFF"/>
<path d="M41.3356 21.6067C41.4249 21.6279 41.4 21.6243 41.4813 21.6799C41.5047 21.729 41.5347 21.759 41.5194 21.8154C41.4469 22.0833 39.4378 24.0682 39.1142 24.3047C38.7942 23.9364 38.2239 23.4005 37.8644 23.0403C37.7773 22.9575 37.5239 22.7269 37.6477 22.5856C37.961 22.5812 38.8404 23.5704 39.1501 23.8559C39.7409 23.3426 40.7667 22.2093 41.3341 21.606L41.3356 21.6067Z" fill="#002C6E"/>
<path d="M32.0103 50.3933L36.4816 50.3904C37.4444 50.3918 38.7037 50.3179 39.6211 50.5083C40.2245 50.6335 40.9896 51.1123 41.4252 51.5509C42.8529 52.9881 42.653 53.5579 42.6538 55.3956L42.6611 58.3835L28.1884 58.4077L17.534 58.404L17.5281 54.9914C17.5281 54.3025 17.4842 54.0519 17.6416 53.4245C17.8254 52.7179 18.1929 52.0729 18.7069 51.5545C19.9142 50.3406 20.8324 50.394 22.3926 50.3977L24.7809 50.4043L32.0103 50.3933Z" fill="#FFB700"/>
<path d="M37.6369 52.2324C38.4898 52.1761 39.2264 52.8218 39.2828 53.6748C39.3384 54.5278 38.6919 55.2643 37.839 55.3185C36.9874 55.3727 36.2524 54.7276 36.1967 53.8761C36.1411 53.0246 36.7854 52.2895 37.6369 52.2324Z" fill="#0746A7"/>
<path d="M30.6323 45.3282C31.4779 45.3091 32.1178 45.3487 32.7753 45.9695C33.6261 46.7727 33.5009 47.9713 33.5089 49.06L32.7577 49.0666H29.7969L29.7881 45.3465L30.6315 45.3282H30.6323Z" fill="#FBFCFF"/>
<path d="M29.2066 45.3291C29.3377 45.335 29.3311 45.3137 29.4263 45.376C29.4629 45.7677 29.4409 46.3234 29.4395 46.7349L29.4409 49.0778C28.5579 49.069 27.675 49.0653 26.792 49.0675C26.6258 49.0624 26.6851 49.0954 26.5899 49.0031C26.5643 48.916 26.5547 48.8808 26.5569 48.7878C26.5848 47.7877 26.4764 46.8147 27.2598 46.0452C27.8492 45.466 28.4188 45.3357 29.2059 45.3291H29.2066Z" fill="#D9E4F8"/>
</g>
<defs>
<clipPath id="clip0_4979_53067">
<rect width="70" height="70" fill="white"/>
</clipPath>
</defs>
</svg>
