<svg width="125" height="71" viewBox="0 0 125 71" fill="none" xmlns="http://www.w3.org/2000/svg">
<path d="M60.1084 5.81006H97.3111C97.3065 8.30487 97.2301 11.2706 97.3285 13.7268C96.2048 13.7415 95.0802 13.7498 93.9556 13.7516C93.356 13.7516 92.4944 13.7231 91.9234 13.7589L91.9252 14.2188L91.9298 26.0329C91.9298 27.9448 91.9804 30.1184 91.9243 32.012L92.0264 32.0799C92.4319 31.8146 92.7105 31.4741 93.1749 31.1932C95.3791 29.8623 97.9612 29.5199 100.454 30.0303C105.896 31.1437 108.753 36.4233 109.215 41.5681C109.249 41.9527 109.26 43.7407 109.369 43.9555C110.389 43.8747 110.61 44.4952 110.946 45.3231C109.232 45.7812 109.698 48.2365 109.898 49.5096C110.846 51.6262 111.902 52.8948 113.31 54.6158C115.021 56.704 115.754 59.2768 114.64 61.8092C114.246 62.7987 113.827 63.0778 113.325 63.8727C113.77 63.8745 116.59 63.8295 116.787 63.9718C116.13 64.1682 111.796 64.0929 110.823 64.0939L95.4959 64.0727L68.5702 64.0957L59.77 64.0984C58.3291 64.0984 56.6334 64.1379 55.2044 64.0874C55.186 64.2637 55.1621 64.4133 55.1805 64.5895C54.9874 65.233 54.7474 65.4064 54.5175 65.9783C54.4127 66.2399 54.4973 66.7979 54.3455 67.1541C54.7382 67.4138 57.2467 67.1991 57.5502 67.5882C56.958 68.3519 38.3066 68.2822 35.9405 68.2574C33.6738 68.2399 31.408 68.1812 29.1432 68.0811C27.4953 68.0068 25.7307 67.9279 24.1095 67.6332C24.8755 67.3982 26.276 67.3331 27.0971 67.2835C28.4912 67.1926 29.8862 67.1275 31.283 67.0889C31.6039 67.0788 32.998 67.0669 33.2214 66.9742C32.7543 66.1297 32.7524 65.6891 32.6016 64.7621C32.3984 64.5565 32.1244 64.2967 31.9671 64.0645C30.883 64.126 29.6029 64.1076 28.5123 64.0939C27.396 64.1407 26.0121 64.1049 24.8746 64.1067L17.1824 64.1003L12.7538 64.1076C12.2049 64.1076 10.9929 64.1416 10.5083 64.0727L10.4586 63.9039C10.9993 63.8185 13.1778 63.8644 13.815 63.8653C12.7069 62.4527 12.0384 61.5293 11.3901 59.8211C10.6637 57.8963 10.3979 55.8292 10.614 53.7842C10.9395 50.8102 12.2269 48.4201 14.8045 46.9175C18.7043 44.6448 21.6717 42.5933 23.6672 38.3656C25.1982 35.1199 25.3012 32.0845 25.7518 28.6066C26.0396 26.3844 27.8705 21.8923 27.8705 21.8923C27.8705 21.8923 27.9489 21.7382 28.0001 21.6399C28.6092 20.4718 29.0963 19.6701 29.7731 18.7697C32.4573 15.2395 37.2574 12.6042 41.6372 12.015C43.0717 11.8222 44.5274 11.8479 45.9546 12.0893C47.8709 12.4152 49.8185 13.099 51.6558 13.725C52.9533 14.1674 54.2711 14.5355 55.5419 15.0412C56.7143 15.5075 57.8555 16.0536 59.0325 16.5071C59.4868 16.6851 59.747 16.7659 60.1397 17.0661C60.1535 15.9591 60.1489 14.8521 60.1259 13.7452C60.0735 11.1274 60.1195 8.43521 60.1103 5.81006H60.1084Z" fill="#7BE0FA"/>
<path d="M27.9815 21.6611C28.4831 20.6528 29.0765 19.6921 29.7527 18.7921C32.4343 15.2635 37.2298 12.6294 41.6055 12.0403C43.0386 11.8477 44.4929 11.8734 45.9187 12.1147C47.8332 12.4404 49.7789 13.1239 51.6145 13.7496C52.9107 14.1918 54.2272 14.5597 55.4968 15.0653C56.6681 15.5314 57.8082 16.0773 58.9841 16.5305C59.4379 16.7085 59.6979 16.7892 60.0902 17.0892L60.0351 29.6542C60.5973 29.6523 62.1159 29.6762 62.566 29.5863C62.1774 30.2946 62.0479 31.1166 62.6064 31.7625L62.6854 31.9038C62.8793 32.8709 63.346 33.4874 63.7263 34.3765C63.911 34.8086 64.0671 35.4215 64.193 35.883C64.1002 35.9132 64.0083 35.9454 63.9174 35.9793C63.38 36.1793 63.4737 36.9381 63.7998 37.3482L63.9716 37.3821C63.4158 38.4042 63.8081 39.9933 63.9284 41.0291L63.798 41.0484L63.3469 41.0328L63.3019 41.0392L63.2128 41.0227C62.8416 41.0264 62.4558 41.0245 62.0855 41.0346L62.0791 42.6173C61.4967 42.6788 60.6873 42.6411 60.07 42.6696C59.2542 42.5925 57.1963 42.7301 56.2042 42.7375C56.206 43.099 56.2161 43.4962 56.2042 43.8541C56.7388 43.8467 58.2464 43.799 58.725 43.8697L58.7746 43.8715C58.838 45.1312 58.7994 46.6487 58.7976 47.9277C60.3943 47.6662 61.9771 47.313 63.5674 47.0148C63.7787 46.9753 63.99 46.9258 64.204 46.9019C62.9114 49.6957 61.9101 52.638 63.0529 55.6584C63.2918 56.2896 63.7153 57.1374 64.1489 57.6466C62.5412 57.575 60.4035 57.6374 58.7452 57.6365L58.7811 57.842C58.7076 59.6146 58.7342 62.0789 58.7811 63.8744L55.1357 63.8763L55.1615 64.091C55.1431 64.2671 55.1192 64.4167 55.1376 64.5928C54.9447 65.236 54.7049 65.4094 54.4752 65.981C54.3705 66.2425 54.455 66.8003 54.3034 67.1563C54.6957 67.4159 57.2019 67.2012 57.505 67.5903C56.9134 68.3536 38.2799 68.2839 35.9161 68.2591C33.6516 68.2417 31.3879 68.1829 29.1252 68.0829C27.479 68.0086 25.716 67.9297 24.0964 67.6352C24.8616 67.4003 26.2608 67.3352 27.0812 67.2856C28.4739 67.1948 29.8675 67.1297 31.263 67.0911C31.5836 67.0811 32.9763 67.0691 33.1996 66.9765C32.7329 66.1324 32.731 65.692 32.5804 64.7653C32.3773 64.5598 32.1036 64.3002 31.9465 64.068C30.8634 64.1295 29.5846 64.1112 28.495 64.0974C27.3797 64.1442 25.9971 64.1084 24.8607 64.1102L17.176 64.1038L12.7516 64.1112C12.2032 64.1112 10.9924 64.1451 10.5082 64.0763L10.4586 63.9075C10.9988 63.8222 13.1751 63.868 13.8118 63.8689C12.7048 62.4569 12.0369 61.534 11.3892 59.8265C10.6635 57.9026 10.398 55.8364 10.6139 53.7922C10.9391 50.8196 12.2252 48.4305 14.8003 46.9285C18.6964 44.6569 21.661 42.6063 23.6545 38.3804C25.1841 35.1361 25.287 32.102 25.7371 28.6257C26.0247 26.4044 26.6144 24.3676 27.8538 21.9143C27.9037 21.8154 27.9833 21.662 27.9833 21.662L27.9815 21.6611Z" fill="#CDF6FB"/>
<path d="M50.5134 49.9885L50.7375 49.9968C51.1932 49.9858 51.6296 49.9683 52.0761 50.0878C52.9249 50.3361 53.1105 50.9382 53.1436 51.7638C53.1813 52.697 53.1647 53.6347 53.1656 54.5688L53.1684 59.6152C53.1684 60.37 53.2621 65.204 53.0131 65.4789C52.8588 65.6481 52.7678 65.7538 52.5841 65.8945C52.2644 65.9735 52.1725 65.9873 51.8455 65.9974C51.6204 65.9616 51.6222 65.9239 51.4403 66.0121C51.2943 66.2392 51.3347 66.6824 51.2557 67.0317L53.0104 67.1099C53.534 67.6017 53.7435 67.541 54.3204 67.1531C54.7127 67.4133 57.2189 67.1981 57.5221 67.5879C56.9305 68.3528 38.2965 68.283 35.9327 68.2582C33.6682 68.2407 31.4045 68.1818 29.1417 68.0816C27.4954 68.0072 25.7325 67.9281 24.1128 67.633C24.8781 67.3976 26.2772 67.3323 27.0976 67.2827C28.4904 67.1917 29.884 67.1264 31.2795 67.0878C31.6002 67.0777 32.9929 67.0657 33.2162 66.9729C32.7495 66.1271 32.7476 65.6858 32.597 64.7572C32.3939 64.5513 32.1201 64.2911 31.9631 64.0585C31.9263 63.9546 31.8473 63.9178 31.7545 63.8516C31.5901 63.6531 31.5303 63.5878 31.5441 63.3644C31.8592 62.8762 32.8496 61.7445 33.4284 61.6084C34.642 60.1852 34.6778 59.5205 35.4569 57.8344C35.6057 57.5292 35.828 57.1182 35.8987 56.7974C36.2194 56.7974 36.3902 56.8111 36.71 56.8516C38.3186 57.075 39.5423 57.1725 41.1684 57.1467C41.704 57.1357 42.4472 57.0474 42.9957 56.9987L43.037 56.813C42.9745 56.2871 42.9883 54.9991 42.992 54.4043C42.9975 53.5612 42.9001 52.0415 42.9993 51.2609C43.207 50.7075 43.5074 50.3195 44.0577 50.0851L44.2212 50.052L44.518 50.0409L45.7793 50.0649C46.0081 50.0391 46.2304 50.018 46.4555 49.9692C46.8092 50.0079 46.9892 50.0023 47.3475 49.9885L47.4045 50.0069L48.7853 50.0033L48.8432 50.0069C49.4008 50.0134 49.9576 50.0069 50.5152 49.9895L50.5134 49.9885Z" fill="#FEC202"/>
<path d="M35.8997 56.6519C36.2203 56.6519 36.3912 56.6655 36.7109 56.7054C38.3195 56.926 39.5432 57.0222 41.1693 56.9968C41.2667 58.1796 41.1436 63.0241 41.3484 63.6314L41.399 63.8211C41.9474 63.8493 42.4472 63.8538 42.9975 63.8538C42.9929 63.9954 42.9929 64.1924 42.9755 64.3286C43.8124 64.3694 44.2488 64.3721 44.6208 65.1891C45.6893 65.1882 48.2469 65.1219 49.2134 65.2399C49.2272 65.3516 49.2529 65.6194 49.2796 65.7156C49.4688 65.7156 49.8528 65.6865 49.9824 65.7855C49.8648 66.1404 49.7968 66.0687 49.7453 66.4599C49.7628 66.7277 49.7646 66.8884 49.9833 67.0826C50.1229 67.2061 50.3067 67.2705 50.4941 67.2623C50.8533 67.2424 51.071 67.0381 51.2557 66.7577L53.0104 66.8348C53.534 67.3204 53.7435 67.2605 54.3204 66.8775C54.7127 67.1344 57.2189 66.9219 57.5221 67.3068C56.9305 68.0621 38.2965 67.9931 35.9327 67.9686C33.6682 67.9513 31.4045 67.8932 29.1417 67.7943C27.4954 67.7208 25.7325 67.6427 24.1128 67.3513C24.8781 67.1189 26.2772 67.0545 27.0976 67.0055C28.4904 66.9156 29.884 66.8511 31.2795 66.813C31.6002 66.803 32.9929 66.7912 33.2162 66.6996C32.7495 65.8644 32.7476 65.4287 32.597 64.5119C32.3939 64.3086 32.1201 64.0517 31.963 63.822C31.9263 63.7195 31.8473 63.6832 31.7545 63.6178C31.5901 63.4217 31.5303 63.3573 31.5441 63.1367C31.8592 62.6547 32.8496 61.5373 33.4284 61.4029C34.642 59.9978 34.6778 59.3415 35.4569 57.6767C35.6057 57.3753 35.828 56.9696 35.8987 56.6528L35.8997 56.6519Z" fill="#CDF6FB"/>
<path d="M41.399 63.9131C41.9474 63.9426 42.4472 63.9473 42.9975 63.9473C42.9929 64.0956 42.9929 64.3019 42.9755 64.4445C43.8124 64.4873 44.2488 64.4901 44.6208 65.3458C45.6893 65.3448 48.2469 65.2754 49.2134 65.399C49.2272 65.5159 49.2529 65.7964 49.2796 65.8972C49.4688 65.8972 49.8528 65.8667 49.9824 65.9704C49.8648 66.3421 49.7968 66.267 49.7453 66.6767C49.7628 66.9572 49.7646 67.1255 49.9833 67.3289C50.1229 67.4582 50.3067 67.5257 50.4941 67.5171C50.8533 67.4962 51.071 67.2823 51.2557 66.9886L53.0104 67.0694C53.534 67.578 53.7435 67.5152 54.3204 67.1141C54.7127 67.3831 57.2189 67.1606 57.5221 67.5637C56.9305 68.3547 38.2965 68.2825 35.9327 68.2568C33.6682 68.2387 31.4045 68.1779 29.1417 68.0743C27.4954 67.9972 25.7325 67.9155 24.1128 67.6103C24.8781 67.3669 26.2772 67.2994 27.0976 67.2481C28.4904 67.154 29.884 67.0865 31.2795 67.0466C31.6002 67.0361 32.9929 67.0237 33.2162 66.9277C33.3778 67.0912 33.5478 67.2652 33.7343 67.4002C34.2938 67.8033 36.1229 68.3167 35.8142 66.9629C36.1257 66.8764 38.7384 66.9154 39.2189 66.9211C39.2318 66.228 39.3191 65.5606 39.4477 64.8818C39.7279 64.9037 39.8776 64.9075 40.1431 65.0016C41.082 65.3334 41.7508 66.8165 42.7835 66.3069C42.0825 66.228 41.4651 64.5833 41.3962 63.915L41.399 63.9131Z" fill="#7BE0FA"/>
<path d="M44.449 65.3858C45.4911 65.3848 47.9856 65.3179 48.9283 65.4371C48.9417 65.5498 48.9668 65.8201 48.9928 65.9172C49.1774 65.9172 49.5519 65.8879 49.6783 65.9878C49.5636 66.3461 49.4973 66.2737 49.4471 66.6686L49.4032 66.8895C49.0689 67.0636 47.9588 66.939 47.5385 66.905C47.0815 67.5437 46.5896 67.5813 46.1443 66.917L44.8818 66.9206C44.9382 66.6072 44.9472 66.205 44.9633 65.8806L44.6497 65.8403C44.4714 65.6671 44.518 65.6707 44.449 65.3848V65.3858Z" fill="#F9A301"/>
<path d="M47.7369 65.9468C48.2537 65.9655 48.7082 65.9754 49.224 65.9645C49.4245 65.9645 49.8313 65.933 49.9685 66.0405C49.844 66.4263 49.7719 66.3484 49.7174 66.7736L49.6697 67.0114C49.3067 67.1989 48.1009 67.0647 47.6444 67.0282C47.7281 66.5921 47.7301 66.3819 47.7369 65.9468Z" fill="white"/>
<path d="M46.5477 65.9539C46.7757 65.953 47.4508 65.9363 47.6446 65.9574C47.6385 66.3452 47.6367 66.5339 47.5613 66.9234C47.1141 67.5378 46.6328 67.5739 46.197 66.9349C46.1777 66.4008 46.1988 66.3602 46.5477 65.9539Z" fill="#010102"/>
<path d="M45.1175 65.9668C45.553 65.9537 46.3451 65.9215 46.7729 65.9839C46.3894 66.4482 46.3663 66.4945 46.3875 67.1048L45.0298 67.1088C45.0905 66.7644 45.1001 66.3223 45.1175 65.9658V65.9668Z" fill="white"/>
<path d="M41.2533 63.914C41.8058 63.9427 42.3092 63.9473 42.8636 63.9473C42.8589 64.0914 42.8589 64.292 42.8413 64.4306C43.6844 64.4722 44.124 64.475 44.4988 65.3067C44.571 65.595 44.5219 65.5904 44.7061 65.766L45.03 65.8067C45.0133 66.1338 45.0041 66.5395 44.9458 66.8556C44.8107 67.1069 44.6719 67.2964 44.3757 67.375C44.1592 67.4295 43.9306 67.3916 43.7436 67.2687C43.5752 67.1596 43.5095 67.058 43.416 66.8888L43.3078 66.9388C43.1514 66.4397 43.1338 66.4406 42.6507 66.2382C41.9446 66.1615 41.3227 64.5628 41.2533 63.9131V63.914Z" fill="white"/>
<path d="M42.9962 64.4955C43.7796 64.5362 44.188 64.5389 44.5363 65.3526C44.6033 65.6347 44.5578 65.6302 44.7289 65.802L45.0298 65.8417C45.0143 66.1618 45.0057 66.5587 44.9516 66.8679C44.826 67.1138 44.6971 67.2991 44.4219 67.376C44.2207 67.4293 44.0083 67.3923 43.8346 67.272C43.6781 67.1653 43.617 67.0659 43.5302 66.9004C43.5173 66.3959 43.5741 66.3462 43.8355 65.9132C43.4915 65.4593 43.0917 65.057 42.9962 64.4946V64.4955Z" fill="#010102"/>
<path d="M39.4568 65.0762C39.7463 65.0976 39.901 65.1013 40.1753 65.1933C41.1454 65.5178 41.8364 66.968 42.9033 66.4697C43.3997 66.6733 43.4178 66.6724 43.5772 67.1744L43.5003 67.3073C42.9935 67.6058 42.0329 67.7527 41.4301 67.6048C41.3305 67.5797 41.2365 67.3055 40.8511 67.3129C40.8008 67.4329 40.7866 67.4803 40.7543 67.6058C40.3633 67.7127 39.6884 67.7024 39.2859 67.6634C39.2014 67.524 39.2252 67.259 39.2195 67.0703C39.2328 66.3926 39.3229 65.7399 39.4558 65.0762H39.4568Z" fill="#010102"/>
<path d="M40.6721 66.5283C40.8714 66.6014 40.9792 66.7347 40.9605 67.0685C40.8304 67.1168 40.8879 67.1322 40.78 67.0591C40.6879 66.8692 40.6901 66.763 40.6721 66.5295V66.5283Z" fill="#00020E"/>
<path d="M35.8801 56.6519C36.1979 56.6519 36.3672 56.6655 36.6841 56.7056C38.2786 56.9269 39.4915 57.0235 41.1032 56.998C41.1998 58.1849 41.0777 63.0462 41.2808 63.6556L41.3309 63.846C41.3992 64.4863 42.0111 66.0621 42.7059 66.1377C41.6824 66.626 41.0195 65.205 40.0888 64.8871C39.8257 64.7969 39.6773 64.7933 39.3995 64.7723C39.4305 64.4617 39.4478 64.1985 39.4587 63.887L39.466 63.6674C39.4186 62.3503 38.7958 59.7106 38.3915 58.4007L37.3862 59.543C36.8927 58.6121 36.3991 58.0892 35.443 57.6793C35.5905 57.3769 35.8109 56.9698 35.881 56.6519H35.8801Z" fill="#ED7761"/>
<path d="M33.2834 61.5907C34.2659 63.0219 33.9424 64.4531 34.8385 65.6598C35.0142 65.9345 35.4892 66.6349 35.6983 66.862C36.0107 68.1397 34.1599 67.6557 33.5938 67.275C33.4042 67.1484 33.2332 66.9841 33.0696 66.8288C32.5974 66.0028 32.5955 65.5718 32.4431 64.665C32.2376 64.4639 31.9606 64.2098 31.8017 63.9826C31.7645 63.8812 31.6845 63.8452 31.5907 63.7806C31.4243 63.5867 31.3638 63.5229 31.3778 63.3047C31.6966 62.828 32.6987 61.7227 33.2843 61.5898L33.2834 61.5907Z" fill="#010102"/>
<path d="M34.281 65.3662C34.3477 65.4255 34.728 65.942 34.81 66.0503C35.1169 66.4548 35.3809 66.7446 35.7336 67.1093C35.1083 66.9556 34.4383 65.9448 34.281 65.3662Z" fill="#031050"/>
<path d="M31.666 63.3335C32.1068 63.3465 32.6493 64.073 32.8281 64.4956C32.6738 64.4407 31.7887 63.4969 31.666 63.3335Z" fill="#000F67"/>
<path d="M35.0133 63.9131C36.365 64.0215 38.1209 63.9275 39.5102 63.9619C39.4989 64.2709 39.4811 64.5321 39.4491 64.8402C39.3175 65.4854 39.2282 66.1197 39.215 66.7785C38.7234 66.7731 36.0501 66.7351 35.7314 66.8182C35.5199 66.5887 35.0396 65.8839 34.8619 65.6083C34.8939 65.1194 34.9221 64.3748 35.0133 63.914V63.9131Z" fill="white"/>
<path d="M33.4092 61.5406C34.6466 60.1347 34.6831 59.4781 35.4774 57.8125C36.461 58.2212 36.9687 58.7434 37.4764 59.6706C35.8756 61.5941 35.6629 61.2627 35.0934 63.7829L35.1271 63.9536C35.0363 64.4168 35.0082 65.1651 34.9763 65.6564C34.0733 64.4358 34.3993 62.9882 33.4092 61.5406Z" fill="#FEA686"/>
<path d="M35.1523 63.9463C36.4843 63.8994 38.1736 63.9046 39.5101 63.9463L39.5029 64.1974C38.1682 64.1578 36.4834 64.2662 35.1857 64.1412L35.1532 63.9453L35.1523 63.9463Z" fill="#008CB3"/>
<path d="M45.5361 50.0648C45.7589 50.0391 45.9754 50.0179 46.1947 49.9692C46.5392 50.0078 46.7146 50.0023 47.0636 49.9885C46.3611 50.6133 46.3647 51.3262 46.3638 52.2229C46.3638 53.1609 46.3719 54.0999 46.3781 55.0389C45.9468 55.1068 45.3607 55.2676 44.9732 55.3016C44.9795 54.0044 44.975 52.708 44.958 51.4107L44.8479 51.4153L44.8461 55.3705C44.5258 55.4036 43.8734 55.4394 43.5951 55.489C43.5727 54.1596 43.5602 52.2918 43.6291 50.9826C43.7267 50.6022 43.8439 50.3965 44.0184 50.0528L44.3074 50.0418L45.5361 50.0657V50.0648Z" fill="#FDD535"/>
<path d="M45.0917 50.6977C45.1679 50.3838 45.3648 50.141 45.6108 49.9692C45.2705 50.445 45.2131 50.5168 45.1226 51.1272L45.0298 51.1313L45.0924 50.6977H45.0917Z" fill="#AB7D0C"/>
<path d="M42.9718 56.9419L42.9831 61.4452C42.9839 61.983 43.0176 63.2094 42.9744 63.6983L42.9718 63.9143C42.4546 63.9143 41.9848 63.9098 41.4692 63.8817L41.4217 63.6929C41.2291 63.0882 41.3448 58.2641 41.2533 57.0874C41.7568 57.0766 42.4554 56.9898 42.971 56.9419H42.9718Z" fill="#CDF6FB"/>
<path d="M41.2543 63.9147C41.8272 63.9171 42.4263 63.9064 42.9964 63.9206L42.9935 64.2036C42.4128 64.2036 41.8854 64.1977 41.3066 64.161L41.2533 63.9135L41.2543 63.9147Z" fill="#008CB3"/>
<path d="M50.5109 49.9701L50.7381 49.9783C51.2001 49.9674 51.6426 49.9503 52.0953 50.0676C52.2788 50.232 52.4241 50.3322 52.4679 50.5678C52.5247 50.8666 52.6691 51.4192 52.5135 51.6864C52.3552 51.7009 52.4259 51.7198 52.2965 51.6178C52.2639 51.2919 52.3431 50.9181 52.2844 50.6987L52.1512 50.8901C51.9826 50.7475 51.8652 50.6482 51.7106 50.4893C51.2691 51.4472 50.5956 52.1559 49.8914 52.9377L49.8635 53.0894C49.7787 52.7526 49.8709 52.4132 49.7629 51.9861L49.7452 53.2158C49.272 53.4289 48.6572 54.0112 48.2902 54.0365C48.2586 52.5378 47.9968 51.2115 48.8174 49.9864C49.3828 49.9927 49.9473 49.9864 50.5127 49.9692L50.5109 49.9701Z" fill="#FDD535"/>
<path d="M49.6942 51.8032C49.6447 51.4034 49.6774 50.0972 50.2591 49.9692C50.2591 50.3786 49.8169 50.4663 49.8056 50.774C49.7831 51.4008 49.854 52.0942 49.8495 52.7271L49.8158 52.8744C49.7134 52.5474 49.8248 52.2178 49.6942 51.8032Z" fill="#AB7D0C"/>
<path d="M47.422 49.973L48.8068 49.9692C48.2227 50.6965 48.2171 51.121 48.207 52.0397C48.1987 52.8051 48.2236 53.5881 48.2061 54.3516C47.7288 54.5578 47.2884 54.7575 46.7899 54.908C46.7816 53.8445 46.7669 52.7698 46.7761 51.7062C46.7826 50.9938 46.9051 50.468 47.422 49.973Z" fill="#FDD535"/>
<path d="M49.0972 65.5458C49.1327 65.3156 49.1381 65.1288 49.2847 64.9564C49.627 64.7118 51.1884 64.7879 51.6563 64.838C51.8174 64.8553 51.8247 64.9006 51.9358 65.0152C52.0059 65.228 52.0041 65.2627 52.0014 65.489C51.9058 65.7779 51.8921 65.8376 51.7073 66.0716C51.4842 66.034 51.4861 65.9946 51.3058 66.087C51.1611 66.3249 51.2011 66.789 51.1228 67.155C50.9389 67.4525 50.7231 67.6692 50.3681 67.6904C50.1824 67.7 50.0003 67.6317 49.8619 67.4997C49.6452 67.2936 49.6434 67.1232 49.6261 66.8391C49.6771 66.4241 49.7445 66.5001 49.861 66.1236C49.7317 66.0186 49.3521 66.0504 49.1645 66.0495C49.1381 65.9483 49.1126 65.6643 49.099 65.5448L49.0972 65.5458Z" fill="#010102"/>
<path d="M43.0434 51.1371C43.2621 50.5874 43.5786 50.2021 44.1583 49.9692C43.4818 51.4283 43.7354 53.8032 43.7421 55.4267C43.4247 55.4093 43.4354 55.3655 43.1886 55.4833C42.9931 55.7563 43.2534 56.1964 43.0831 56.6511C43.0173 56.1288 43.0318 54.8496 43.0357 54.2589C43.0415 53.4216 42.9389 51.9123 43.0434 51.1371Z" fill="#FDD535"/>
<path d="M44.0021 50.0023L44.1584 49.9692C43.9872 50.3131 43.8722 50.5191 43.7765 50.8998C43.708 52.21 43.7212 54.0793 43.7432 55.4098C43.7344 57.0483 43.737 58.6877 43.7502 60.3263C43.7528 60.9533 43.7862 62.8116 43.6606 63.333C43.5342 60.8448 43.665 58.0257 43.6246 55.499C43.6185 53.8642 43.3885 51.4726 44.0021 50.0033V50.0023Z" fill="#79550A"/>
<path d="M47.29 49.9692L47.3541 49.9875C46.7741 50.4724 46.6366 50.9892 46.6294 51.6883C46.6191 52.732 46.6356 53.7865 46.6449 54.8302L46.6418 61.5697C46.5963 61.9635 46.5581 62.3573 46.5271 62.7519C46.4899 60.1615 46.4795 57.571 46.4992 54.9806C46.4919 54.05 46.4816 53.1184 46.4826 52.1869C46.4826 51.2973 46.4795 50.59 47.291 49.9702L47.29 49.9692Z" fill="#79550A"/>
<path d="M48.7555 49.9692L48.8067 49.9729C48.0898 51.2054 48.3182 52.5415 48.3467 54.0503C48.3508 56.4981 48.3979 59.1576 48.3345 61.5899L48.2296 61.099C48.2719 60.5491 48.2353 59.4357 48.2337 58.8204L48.2264 54.2576C48.2426 53.5104 48.2199 52.7442 48.2272 51.9952C48.2361 51.0963 48.241 50.6818 48.7563 49.9692H48.7555Z" fill="#79550A"/>
<path d="M49.7281 52.0024C49.9279 52.4406 49.7574 52.7889 49.9141 53.1344C50.0019 55.1891 49.9382 57.3317 49.9485 59.3919C49.9537 60.3979 50.0398 62.3858 49.8108 63.3326C49.6093 62.5637 49.6972 60.7184 49.6972 59.8551V53.2641L49.7281 52.0024Z" fill="#463005"/>
<path d="M45.2842 51.4214C45.3177 52.7219 45.3283 54.0234 45.3142 55.3248L45.2948 61.88C45.2613 61.6975 45.1696 61.5297 45.0868 61.3509C44.9704 59.4734 45.0691 57.2954 45.0639 55.3939L45.0674 51.426L45.2842 51.4214Z" fill="#463005"/>
<path d="M52.2548 54.3262C52.1881 56.3532 52.329 58.4365 52.2815 60.4662C52.2637 61.2326 52.3601 62.6111 52.1896 63.3322C52.1911 63.3222 52.194 63.3131 52.1955 63.3031C52.197 63.2478 52.1955 63.2741 52.1614 63.2233C51.7417 62.6193 52.3112 55.829 52.0872 54.4794L52.2563 54.3271L52.2548 54.3262Z" fill="#79550A"/>
<path d="M52.004 51.0432L52.2478 50.8408C52.3551 51.0719 52.212 51.468 52.2699 51.8127C52.275 52.5984 52.3313 53.6953 52.246 54.4571L52.0517 54.6175C51.9444 53.5617 52.2563 52.0313 52.0023 51.0432H52.004Z" fill="#D49E04"/>
<path d="M51.7117 65.9472C51.8982 65.7139 51.911 65.6543 52.007 65.3662C52.3398 65.3998 52.54 65.4133 52.8737 65.4046C52.7201 65.5813 52.6296 65.6918 52.4468 65.8387C52.1286 65.9213 52.0372 65.9357 51.7117 65.9463V65.9472Z" fill="#F9A301"/>
<path d="M42.0003 29.0536C42.2961 29.1523 42.3895 29.24 42.6404 29.4329L42.8519 29.5713L43.4078 29.7863C42.3409 29.9921 41.8721 30.3843 41.5424 31.4798L41.6551 31.6403L41.6056 32.0409L41.5095 32.0529C41.612 32.7007 41.5864 33.6928 41.6276 34.384C41.8171 37.5226 42.7027 38.9945 44.5076 41.4807C44.5039 41.6689 44.5213 41.8959 44.5479 42.0574C44.6917 42.9572 45.2484 49.6349 44.9362 50.0474C44.7585 50.077 44.666 50.088 44.4856 50.0936L44.1898 50.1046L44.0268 50.1379C43.4783 50.3732 43.1789 50.7636 42.9719 51.3182C42.873 52.1017 42.9691 53.6272 42.9646 54.4734C42.9609 55.0696 42.9472 56.3625 43.0094 56.8913L42.9682 57.0777C42.4224 57.1266 41.6807 57.2161 41.1468 57.2262C39.5269 57.2521 38.3062 57.1543 36.7027 56.93C36.384 56.8894 36.2137 56.8746 35.8941 56.8756L35.7815 56.8423C35.2934 56.7593 34.8822 56.6928 34.3914 56.6458C34.3263 56.7584 34.1926 57.098 34.1368 57.2318C33.1542 56.9669 31.3859 56.0173 30.504 55.459C31.5461 52.8944 32.7504 50.2588 33.5196 47.5963C33.7906 46.6587 34.819 43.7195 34.797 42.8714C34.8181 42.6803 35.0351 42.2752 35.0919 41.9439C35.6643 39.7845 35.8721 38.7739 35.8904 36.4613C35.895 35.8697 35.9426 33.3319 36.0305 32.9268L36.102 32.4395C37.1697 32.84 37.5754 32.8437 38.7128 32.8493C39.0232 32.889 39.1285 32.9074 39.3858 32.7348C39.6999 32.5844 40.0836 32.553 40.4655 32.3768C41.2668 32.1581 41.6779 30.7479 41.7952 29.9894C41.8364 29.7199 41.8126 29.4384 41.8629 29.1487L41.9756 29.1071L42.0012 29.0518L42.0003 29.0536Z" fill="url(#paint0_linear_4753_49661)"/>
<path d="M36.6059 56.6466C38.0546 56.6293 40.8479 53.9638 41.6859 52.8437C42.0024 52.421 42.6195 51.4007 42.9583 51.1313C42.858 51.9014 42.9555 53.4006 42.9509 54.2322C42.9471 54.8181 42.9332 56.0888 42.9963 56.6085L42.9546 56.7917C42.4015 56.8397 41.6498 56.9277 41.1087 56.9377C39.467 56.9631 38.23 56.8669 36.605 56.6466H36.6059Z" fill="#0042D0"/>
<path d="M37.3501 47.3554L37.4767 47.4028C37.2226 48.5065 37.017 49.9021 36.8134 51.0327C36.4622 53.0048 36.1006 54.9741 35.7256 56.9415C35.2184 56.8578 34.7911 56.7909 34.281 56.7435C34.3343 56.2711 35.4097 53.3879 35.6523 52.6952C36.2709 50.9314 36.8372 49.1508 37.3511 47.3545L37.3501 47.3554Z" fill="#010102"/>
<path d="M41.8608 29.0518C42.1544 29.1555 42.2471 29.2477 42.4961 29.4504L42.706 29.5959L42.6215 29.6328C42.377 29.625 42.0262 29.2816 41.8345 29.1109L41.8599 29.0527L41.8608 29.0518Z" fill="#0725BA"/>
<path d="M41.6588 31.3769L41.8342 31.5394L41.7572 31.9449L41.6075 31.957C41.4734 31.7608 41.5804 31.5843 41.6588 31.376V31.3769Z" fill="#031050"/>
<path d="M37.1858 47.3105C37.2416 47.127 37.2695 46.9129 37.448 46.7729C37.5247 46.9538 37.4271 47.162 37.3713 47.354L37.1858 47.3105Z" fill="#0725BA"/>
<path d="M43.7021 42.1255C43.7473 42.2108 43.7765 42.4398 43.7584 42.5233C43.5284 43.6054 43.447 44.3037 43.5485 45.4202C43.5997 45.9784 44.1713 46.9159 44.1582 47.0643C42.9628 46.3502 43.1898 43.2633 43.7021 42.1255Z" fill="#000F67"/>
<path d="M37.1858 35.755L37.2446 35.7339C37.6239 36.0065 37.9097 36.0147 38.3479 36.0735L37.8128 36.0854C37.9867 37.631 38.0522 38.5479 37.8923 40.1422C37.8882 40.2257 37.8236 40.5717 37.8062 40.6727C37.7656 40.5809 37.947 37.2703 37.8103 36.7022C37.6074 35.8596 38.0397 36.291 37.1858 35.7541V35.755Z" fill="#0725BA"/>
<path d="M19.801 59.9412C20.1302 58.26 21.3437 56.2027 20.9544 54.4716C20.5514 52.6758 17.9417 50.9881 18.3446 49.0122C18.6275 47.6247 20.0029 46.3942 21.2354 45.8465C21.321 45.8086 21.2673 45.6174 21.4992 45.6118L21.5866 45.7836C22.2379 45.7568 22.7145 45.4575 23.3167 45.9647C23.7688 46.3453 23.9416 47.2903 23.9343 47.8353C23.8934 50.7729 23.404 51.7807 25.6954 53.9848C26.8406 55.0859 28.1587 55.6882 28.1177 57.4461C28.1005 58.1934 28.226 59.3916 28.1614 60.126C28.1659 61.3804 28.1569 62.6598 28.1769 63.9115L27.9385 63.9143C27.2236 63.8653 26.0947 63.9014 25.3452 63.9014H20.3858C19.3452 62.1878 19.4507 61.7656 19.7255 59.9966L19.801 59.9403V59.9412Z" fill="#A4ECFA"/>
<path d="M25.7203 56.6528C26.4849 57.7463 26.4959 59.103 28.0653 59.3003L28.1021 59.3049C28.1158 59.5497 28.1268 59.938 28.1645 60.1682C28.1691 61.4088 28.1599 62.6741 28.1801 63.912L27.9396 63.9147C27.2182 63.8663 26.0792 63.902 25.3229 63.902H20.3189C19.2689 62.2073 19.3754 61.7898 19.6526 60.0403L19.7288 59.9846C20.7081 59.4766 21.8609 58.7065 22.853 58.268C23.0173 59.4081 23.2807 60.1691 23.7406 61.2151C23.8516 61.4682 23.8406 61.6354 24.0086 61.9807C24.0838 61.7706 23.3707 59.9371 23.255 59.5177C23.1293 59.0655 23.0366 58.6042 22.9779 58.1382C23.8599 57.6175 24.8741 57.1762 25.7203 56.6519V56.6528Z" fill="#7BE0FA"/>
<path d="M22.9741 58.1662C22.8299 56.8119 22.7056 55.4147 22.4507 54.0815C22.1435 52.4741 21.7093 50.9234 21.5759 49.2804C21.5444 48.8957 21.4021 47.3167 21.6057 47.0645C21.7939 47.6657 21.6723 48.9323 21.803 49.6615C22.1561 51.6389 22.4714 53.7297 22.8777 55.6898C22.9065 56.4793 22.9921 57.2551 23.0957 58.0373C23.1534 58.5034 23.2443 58.9648 23.3678 59.4172C23.4813 59.8366 24.1812 61.6697 24.1074 61.8808C23.9425 61.5353 23.9533 61.3681 23.8443 61.115C23.393 60.0687 23.1344 59.3075 22.9732 58.1671L22.9741 58.1662Z" fill="#CDF6FB"/>
<path d="M35.8904 27.5266C36.2943 27.1763 37.5824 26.3172 37.5733 25.8055L37.2834 26.2072L37.2387 26.1842C37.298 26.0164 37.5505 25.3563 37.5569 25.2426C37.6681 23.4032 37.8778 22.3909 39.9353 22.0801C40.6099 22.0957 42.1478 22.6119 42.6337 23.0126C43.6274 23.8305 42.3146 24.9895 41.8415 25.4562L41.7585 25.4296L41.785 25.6579L41.7439 25.7065L41.5917 25.7478C41.7458 25.8697 41.7704 25.8486 41.8032 26.0641C41.8378 26.297 41.7531 27.1681 41.6409 27.3396L41.4139 27.3588C41.5799 27.8035 41.6893 28.8204 42.0074 29.0295L41.9819 29.0845L41.8698 29.1257C41.8196 29.4136 41.8442 29.6933 41.8023 29.961C41.6856 30.7148 41.2763 32.1158 40.4786 32.3331C40.0985 32.5083 39.7165 32.5394 39.4038 32.6889C39.1486 32.8604 39.0437 32.842 38.7338 32.8026C37.6016 32.798 37.1977 32.7943 36.1348 32.3955C35.8987 32.2689 35.6297 32.1507 35.3854 32.037C34.946 31.7454 34.6971 31.5473 34.379 31.1274C34.6525 29.2275 35.5541 28.6948 36.7939 27.3827C35.6808 28.0804 34.3899 28.8103 33.925 30.1298C33.8612 30.3104 33.8038 30.4956 33.6998 30.657C33.7108 29.6383 34.4018 28.8066 35.0973 28.1419C35.2696 27.9401 35.6315 27.5816 35.8895 27.5275L35.8904 27.5266Z" fill="#010102"/>
<path d="M41.1258 27.0181C41.1682 27.0843 41.2436 27.1909 41.2704 27.259C41.4281 27.7049 41.532 28.7247 41.8343 28.9343L41.81 28.9895L41.7035 29.0309C41.6559 29.3196 41.6792 29.6001 41.6394 29.8686C41.5285 30.6244 41.1396 32.0294 40.3817 32.2473L40.4242 32.1618C40.9378 31.0511 41.3137 30.1251 41.1968 28.835C41.124 28.0323 40.9092 27.7868 41.1266 27.019L41.1258 27.0181Z" fill="#0042D0"/>
<path d="M41.2704 27.3096C41.4281 27.7511 41.532 28.7607 41.8343 28.9683L41.81 29.0229L41.7035 29.0639C41.6559 29.3497 41.6792 29.6274 41.6394 29.8932C41.5285 30.6415 41.1396 32.0326 40.3817 32.2483L40.4242 32.1637C41.1439 31.7449 41.4939 29.9815 41.4601 29.1385C41.441 28.6615 41.1604 27.5781 41.2713 27.3105L41.2704 27.3096Z" fill="#00020E"/>
<path d="M41.1911 26.4988C40.8558 26.1218 40.4527 25.6391 40.8143 25.0718C41.1528 24.8584 41.2981 25.0626 41.4977 25.3734L41.5208 25.6023L41.4849 25.651L41.3516 25.6924C41.4865 25.8147 41.5081 25.7936 41.5368 26.0097C41.5671 26.2432 41.4929 27.1168 41.3947 27.2887L41.1959 27.308C41.1704 27.24 41.1017 27.1333 41.0626 27.0671C41.0817 26.9273 41.156 26.6469 41.1911 26.4988Z" fill="#FEA686"/>
<path d="M41.3956 25.5659C41.2339 25.4804 41.0668 25.4123 40.9629 25.2814C41.2143 25.2368 41.3609 25.4509 41.5439 25.5311L41.3956 25.5651V25.5659Z" fill="#5A221E"/>
<path d="M40.6581 28.7617C40.8385 30.3753 39.2211 32.3021 39.2853 32.6893C39.0389 32.86 38.9377 32.8418 38.6385 32.8025C39.0882 32.723 39.0662 32.5742 39.3003 32.1952C39.7764 31.4263 40.1864 30.6164 40.432 29.7361C40.5191 29.4247 40.5569 29.1042 40.6467 28.7973L40.6572 28.7617H40.6581Z" fill="#0042D0"/>
<path d="M35.6939 27.5416C36.1808 27.4425 37.029 26.7267 37.4766 26.437C36.8172 27.1642 35.7993 27.8828 34.8619 28.1801C35.0431 27.9704 35.4236 27.5978 35.6948 27.5416H35.6939Z" fill="#CFD5D7"/>
<path d="M58.6842 43.8682L58.7342 43.87C58.798 45.1451 58.7592 46.6811 58.7573 47.9756C60.3659 47.711 61.9605 47.3534 63.5626 47.0516C63.7755 47.0117 63.9884 46.9615 64.204 46.9374C62.9018 49.7652 61.893 52.7434 63.0443 55.8005C63.285 56.4394 63.7116 57.2975 64.1485 57.8129C62.5288 57.7405 60.3751 57.8036 58.7046 57.8027C58.7397 57.4535 58.7147 56.7134 58.7147 56.3215V53.4817C58.7212 50.2768 58.711 47.073 58.6842 43.8682Z" fill="#41C9F0"/>
<path d="M59.8508 29.4096C60.4002 29.4078 61.884 29.4316 62.3238 29.3418C61.9441 30.0495 61.8176 30.871 62.3633 31.5164L62.4405 31.6576C62.6299 32.6239 63.0859 33.2399 63.4575 34.1283C63.638 34.5601 63.7906 35.1725 63.9135 35.6336C63.8229 35.6639 63.7331 35.696 63.6442 35.7299C63.1191 35.9297 63.2107 36.6879 63.5293 37.0977L63.6972 37.1316C63.1541 38.1529 63.5374 39.7408 63.655 40.7758L63.5275 40.7951L63.0868 40.7795L63.0428 40.7859L62.9558 40.7694C62.5931 40.7731 62.2161 40.7712 61.8544 40.7813L61.8481 42.3627C61.279 42.4242 60.4882 42.3866 59.885 42.415C59.7826 38.1318 59.9244 33.7166 59.8508 29.4106V29.4096Z" fill="#7BE0FA"/>
<path d="M63.0737 39.5107C62.665 39.3591 62.2367 39.1811 62.1703 38.7212C62.2713 38.4163 62.5088 38.2836 62.8773 38.3792C63.0363 38.4212 63.1672 38.5201 63.2392 38.6512C63.4159 38.9668 63.3084 39.2041 63.1868 39.5049L63.0737 39.5099V39.5107Z" fill="#0725BA"/>
<path d="M63.7925 37.186L63.9134 37.2207C63.5222 38.2639 63.7983 39.8858 63.883 40.9431L63.7912 40.9627C63.6011 39.4775 63.5345 38.7134 63.7925 37.186Z" fill="#1886E6"/>
<path d="M63.0419 39.5164L63.1848 39.5107C63.317 39.9934 63.2769 40.4655 63.3324 40.9567L63.2745 40.9633L63.16 40.9462C63.1352 40.4693 63.0962 39.9924 63.0431 39.5164H63.0419Z" fill="#25BDE4"/>
<path d="M43.4895 29.9233C43.6228 29.9705 43.7815 30.0213 43.9082 30.0786C44.677 30.8336 44.5662 31.8344 44.6807 32.8102C44.8337 34.1077 44.8497 35.516 45.1744 36.7792C45.1613 36.8938 45.1472 37.0491 45.1228 37.1581C45.5246 37.7236 45.8737 38.4962 46.2492 39.095C46.7824 39.9443 47.3559 40.8268 47.935 41.6455C47.7623 41.9385 46.1769 42.8773 45.8071 42.9965C45.4054 42.5465 45.0083 42.0928 44.6169 41.6344C42.7668 39.1449 41.8591 37.671 41.6648 34.5281C41.6216 33.8369 41.6488 32.8426 41.5437 32.1938L41.6423 32.1818L41.6929 31.7808L41.5775 31.62C41.9154 30.5231 42.396 30.1303 43.4895 29.9243V29.9233Z" fill="#005DFB"/>
<path d="M41.5446 31.9695L41.6432 31.9575C41.7793 34.3059 41.9361 36.9812 43.1573 39.0412C43.8941 40.2838 44.7361 41.486 45.8362 42.4458L45.9169 42.5165C46.3778 42.218 47.4479 41.4355 47.935 41.3639C47.7623 41.655 46.1769 42.5881 45.8071 42.7066C45.4054 42.2593 45.0083 41.8084 44.6169 41.3529C42.7668 38.8787 41.8591 37.4138 41.6648 34.2903C41.6216 33.6033 41.6488 32.6151 41.5437 31.9704L41.5446 31.9695Z" fill="#000F67"/>
<path d="M43.4504 29.9233C43.5833 29.9676 43.7415 30.0153 43.8678 30.0691C42.4797 30.1064 42.0211 30.3702 41.6588 31.6664L41.5437 31.5155C41.8807 30.4856 42.3599 30.1168 43.4504 29.9233Z" fill="#000F67"/>
<path d="M45.03 36.6054C45.0188 36.7199 45.0069 36.8751 44.9861 36.9841C44.8919 37.1392 44.6956 38.1902 44.449 38.6381C44.5743 38.0775 44.7419 37.0016 45.03 36.6045V36.6054Z" fill="#0725BA"/>
<path d="M44.4488 36.896C44.4171 37.274 43.3639 37.9356 42.998 38.0581L42.9962 37.9802C43.4798 37.5803 43.938 37.3746 44.4488 36.896Z" fill="#000F67"/>
<path d="M49.3522 43.5781C49.6639 43.5901 50.8557 43.5542 51.0281 43.7512C51.3658 44.1379 51.1431 44.6996 51.0488 45.1166C51.0299 46.6984 51.0452 48.2793 51.038 49.8592C51.5688 49.7635 52.1121 49.8325 52.6456 49.8951C52.8414 49.908 53.0381 49.9135 53.2285 49.9633L53.2824 50.1078C54.5622 51.348 53.7198 53.8975 54.0063 55.5345C54.2928 55.5787 54.3413 55.5197 54.5478 55.6615C54.7598 56.074 54.6682 59.3204 54.679 60.0497C54.7292 60.2669 54.7373 60.3065 54.8568 60.5026C54.8747 61.2917 54.9511 63.0871 54.8729 63.7997L54.8981 64.0152C54.8801 64.1919 54.8568 64.342 54.8747 64.5188C54.6861 65.1642 54.4517 65.3382 54.2272 65.9118C54.1248 66.1742 54.2074 66.734 54.0593 67.0912C53.4943 67.4798 53.2905 67.5415 52.7785 67.048L51.0631 66.9697C51.1413 66.6208 51.1018 66.1761 51.2437 65.9486C51.4215 65.8603 51.4197 65.898 51.6397 65.9339C51.9604 65.9238 52.0493 65.9091 52.3618 65.8308C52.5414 65.6908 52.6304 65.584 52.7812 65.4146C53.0237 65.1393 52.933 60.2982 52.933 59.5423L52.9303 54.4886C52.9294 53.5531 52.9456 52.614 52.9088 51.6795C52.8764 50.8527 52.695 50.2496 51.8652 50.001C51.4287 49.8813 51.0021 49.8997 50.5566 49.9099C50.5665 48.3281 50.6123 46.7168 50.5386 45.1406C50.4901 44.1094 49.8462 44.2687 49.0972 44.2788C49.1133 44.0864 49.2229 43.7402 49.3513 43.5781H49.3522Z" fill="#010102"/>
<path d="M54.697 60.1372C54.7433 60.3548 54.7508 60.3944 54.8608 60.5908C54.8774 61.3809 54.9477 63.1786 54.8757 63.8922L54.8989 64.1079C54.8824 64.285 54.8608 64.4352 54.8774 64.6122C54.3296 64.6325 54.4231 64.6482 54.0466 65.076C54.0226 63.9448 54.0466 62.726 54.0499 61.5883C54.1045 61.3357 54.0532 60.8895 54.1558 60.7521C54.342 60.7669 54.4231 60.7835 54.6084 60.7263C54.7351 60.5106 54.6904 60.4405 54.697 60.1372Z" fill="#FEC202"/>
<path d="M52.8739 49.9692C53.0623 49.9821 53.2515 49.9876 53.4346 50.037L53.4865 50.1808C53.7526 50.7129 54.0679 51.3265 53.9919 51.93C53.7621 53.7552 54.3159 64.3931 53.8269 65.3483L53.7552 65.3666C53.8761 63.6046 53.839 62.0001 53.8329 60.2335L53.8347 55.0675C53.8321 54.3715 53.8563 53.6608 53.8373 52.9648C53.7992 51.6049 54.1086 50.7852 52.8748 49.9692H52.8739Z" fill="#F9A301"/>
<path d="M52.4521 65.9468C52.6548 65.9626 53.0237 65.9635 53.1643 66.0725C52.8822 66.6043 52.8155 66.4636 52.8749 67.1088L51.1307 67.0341C51.2102 66.701 51.17 66.2764 51.3143 66.0593C51.4951 65.9749 51.4933 66.0109 51.717 66.0452C52.043 66.0356 52.1334 66.0215 52.4512 65.9468H52.4521Z" fill="white"/>
<path d="M54.0483 61.2996C54.0113 60.9182 54.0688 60.2138 54.0771 59.8046C54.0825 58.8578 54.1127 57.9102 54.1661 56.9634L54.2072 56.9419C54.3263 57.4705 54.388 59.9158 54.2387 60.4336L54.2236 60.4857C54.0551 60.6194 54.1387 61.0537 54.0483 61.2996Z" fill="#AB7D0C"/>
<path d="M16.5147 55.1992C16.5845 56.7788 17.8575 56.6628 18.4366 57.7355C19.0588 58.8889 18.4632 58.9606 19.7573 59.8238C19.4798 61.5612 19.3722 61.9747 20.4246 63.6586H25.4356C26.193 63.6577 27.3336 63.6233 28.056 63.6704L28.2969 63.6677C29.4338 63.6886 30.6084 63.6659 31.7481 63.6577C31.841 63.723 31.9209 63.7593 31.9568 63.8617C30.8731 63.9225 29.5937 63.9044 28.5037 63.8908C27.3878 63.937 26.0046 63.9016 24.8676 63.9035L17.1792 63.8971L12.7527 63.9044C12.204 63.9044 10.9926 63.9379 10.5082 63.8699L10.4586 63.7031C10.9991 63.6187 13.1764 63.6641 13.8134 63.665C14.2518 63.6668 16.5211 63.7167 16.7628 63.5888C16.92 62.964 15.7215 62.3601 15.4522 61.7562C15.1213 61.0135 15.2215 60.5293 15.4632 59.8211C15.7546 58.9669 15.5919 58.986 15.182 58.3213C14.9485 57.9432 15.011 57.1017 15.1737 56.6873C15.5083 55.8367 15.7435 55.5882 16.5138 55.2001L16.5147 55.1992Z" fill="#25BDE4"/>
<path d="M31.7458 63.9131C31.8396 63.99 31.9203 64.0327 31.9566 64.1535C30.862 64.2251 29.5697 64.2037 28.4686 64.1877C27.1327 63.8949 20.7296 64.4056 20.0454 64.0498C20.349 63.9921 20.5969 63.99 20.8986 63.9708C23.1713 63.8287 25.7745 64.1877 28.0165 63.928L28.2597 63.9248C29.4081 63.9494 30.5946 63.9227 31.7458 63.9131Z" fill="#008CB3"/>
<path d="M10.4586 63.9487C12.4493 64.0582 15.6296 63.7368 17.431 64.0665C17.1181 64.1953 16.1176 64.187 15.7514 64.187L12.276 64.1662C11.8731 64.1648 10.8848 64.1302 10.5092 64.2036L10.4586 63.9487Z" fill="#008CB3"/>
<path d="M35.2759 31.9575C35.5197 32.0712 35.7881 32.1895 36.0238 32.3161L35.9528 32.8003C35.8655 33.2028 35.8181 35.7247 35.8136 36.3125C35.7954 38.6115 35.5898 39.6147 35.0203 41.7606C34.9639 42.0898 34.7483 42.4924 34.7273 42.6822C34.5936 43.0527 34.4262 43.4809 34.3261 43.856C34.2179 44.2136 34.136 44.6731 33.8267 44.8693C33.7221 44.8657 33.6174 44.8629 33.5128 44.8611L33.3909 45.0307C32.7313 44.8813 32.4639 44.7033 31.9681 44.2843L31.666 43.9798C31.7852 43.7111 31.9016 43.3966 32.0117 43.1215C32.3774 41.8468 33.128 40.3429 33.4837 38.9169C33.9122 37.202 34.5545 33.488 35.2759 31.9594V31.9575Z" fill="#0042D0"/>
<path d="M34.8986 41.8356L34.8619 41.758C34.8994 41.1695 35.169 40.3146 35.2765 39.7069C35.3759 39.1431 35.3784 38.383 35.4354 37.8629C35.5339 36.9597 35.4574 33.1841 35.6406 32.5391C35.7156 32.6002 35.7148 32.7854 35.7335 32.9195C35.6553 33.3201 35.6129 35.8292 35.6089 36.414C35.5926 38.7015 35.4085 39.6996 34.8986 41.8347V41.8356Z" fill="#000F67"/>
<path d="M31.9568 43.2866C32.5142 43.5305 32.8525 43.6115 33.4633 43.7116C33.8178 43.7697 34.0932 43.6811 34.2809 43.8225C33.6263 43.9532 32.3179 43.8079 31.9568 43.2866Z" fill="#000F67"/>
<path d="M35.4197 38.0576L35.4431 38.0768L35.4242 38.1529C35.1366 38.3603 34.6791 38.5382 34.3188 38.6386L34.281 38.5929C34.3125 38.519 35.2534 38.1344 35.4197 38.0576Z" fill="#000F67"/>
<path d="M47.4119 43.58L47.5931 43.6265C47.8022 43.9203 47.9407 44.0877 47.7288 44.4393C48.2278 44.8382 48.9323 44.8503 49.3059 44.27C50.0809 44.2598 50.7473 44.0989 50.7975 45.1404C50.8737 46.7325 50.8272 48.3599 50.816 49.9576L50.5893 49.9492C50.0261 49.9678 49.462 49.9734 48.8979 49.9669L48.8393 49.9631L47.4426 49.9669L47.3849 49.9483C47.0225 49.9631 46.8403 49.9678 46.4825 49.9287C46.6619 49.7493 46.7855 49.7604 46.976 49.5456C47.0467 48.8946 47.1089 45.0372 46.8487 44.6541C46.8376 44.6373 46.8255 44.6225 46.8152 44.6057C46.6991 44.4132 46.7948 44.1231 46.8376 43.9166C47.0048 43.806 47.2325 43.6813 47.411 43.5781L47.4119 43.58Z" fill="#CDF6FB"/>
<path d="M47.4029 43.5809L47.5824 43.6274C47.7895 43.9213 47.9266 44.0887 47.7168 44.4402C47.6846 44.6801 47.6432 44.7322 47.4959 44.9135C47.3468 46.0536 47.4775 48.2846 47.4462 49.5344C48.3684 49.5298 49.8788 49.3633 50.5498 49.9492C49.992 49.9678 49.4333 49.9734 48.8746 49.9669L48.8167 49.9631L47.4333 49.9669L47.3762 49.9483C47.0173 49.9631 46.8369 49.9678 46.4825 49.9287C46.6602 49.7493 46.7826 49.7604 46.9713 49.5456C47.0412 48.8946 47.1029 45.0372 46.8452 44.6541C46.8341 44.6373 46.8222 44.6225 46.812 44.6057C46.697 44.4132 46.7918 44.1231 46.8341 43.9166C46.9998 43.806 47.2253 43.6813 47.402 43.5781L47.4029 43.5809Z" fill="#010102"/>
<path d="M53.4548 49.9692C54.5958 50.2926 55.1269 50.6709 55.1715 51.9179C55.2162 53.1731 55.1687 54.4357 55.1829 55.6918C55.1497 57.2349 55.2333 58.9031 55.1792 60.4278C55.0518 60.2323 55.0442 60.1939 54.991 59.9783C54.9796 59.2548 55.0765 56.0335 54.8523 55.6242C54.6329 55.4826 54.5825 55.5411 54.2795 55.4982C53.9764 53.8729 54.8675 51.3442 53.5137 50.1136L53.4567 49.9702L53.4548 49.9692Z" fill="#FEC202"/>
<path d="M31.9542 44.4497C32.4613 44.8591 32.7348 45.0342 33.4093 45.1805L33.3721 45.5181C33.2809 45.7973 32.9116 47.1539 32.652 47.2176C32.5524 46.9187 32.7627 46.538 32.6604 46.2767C32.064 46.6601 32.2221 47.3882 32.3422 47.9359C31.7439 47.3828 31.4834 47.0641 31.0852 46.3791C31.2052 45.6986 31.3215 45.2748 31.7458 44.719L31.9551 44.4497H31.9542Z" fill="#FEA686"/>
<path d="M31.8844 44.4497C32.4157 44.895 32.7023 45.0854 33.4091 45.2446L33.3701 45.6118C33.2249 45.4751 33.1283 45.4243 32.9314 45.3862C32.405 45.2846 32.0745 45.062 31.666 44.7427L31.8854 44.4497H31.8844Z" fill="#ED7761"/>
<path d="M47.7464 41.5439L48.2256 42.2356C47.5053 42.7608 46.9282 43.0938 46.2183 43.5776C46.0243 43.3344 45.8172 43.0639 45.611 42.8321C45.9829 42.7176 47.5731 41.8233 47.7454 41.5439H47.7464Z" fill="#0042D0"/>
<path d="M47.3541 43.6027C48.4197 43.4968 48.396 43.4236 49.3877 42.9971L49.3678 43.5372C49.2324 43.7067 49.1178 44.0687 49.0998 44.2699C48.719 44.8707 48.0011 44.8582 47.4924 44.4451C47.7093 44.0802 47.5672 43.9079 47.3541 43.6036V43.6027Z" fill="#ED7761"/>
<path d="M48.0282 42.4155C48.4213 42.5264 48.9339 42.5903 49.2913 42.7446C49.4006 42.7915 49.3804 42.9262 49.3877 43.0413C48.4259 43.419 48.4498 43.4847 47.4154 43.5776L47.2363 43.535L47.0636 43.3568C47.0875 43.1061 47.7452 42.6687 48.0282 42.4155Z" fill="#FEA686"/>
<path d="M41.7754 25.6201C42.0004 25.4976 42.0266 25.3542 42.3175 25.2754C42.4891 26.1311 42.4629 27.1378 42.0097 27.89L41.7365 27.7666L41.5894 27.5719C41.6934 27.3943 41.772 26.492 41.7399 26.2508C41.7103 26.0276 41.6866 26.0494 41.5437 25.9231L41.6849 25.8804L41.723 25.83L41.6985 25.5936L41.7754 25.6211V25.6201Z" fill="#FEA686"/>
<path d="M41.804 25.597C42.0577 25.4827 42.0872 25.3489 42.4152 25.2754C42.2312 25.4951 42.1168 25.6041 41.9013 25.799C41.9766 26.3582 41.8507 27.0369 41.7611 27.5995L41.5952 27.4179C41.7125 27.2522 41.8012 26.4104 41.7649 26.1854C41.7316 25.9771 41.7049 25.9975 41.5437 25.8797L41.7029 25.8398L41.7459 25.7928L41.7182 25.5722L41.805 25.5979L41.804 25.597Z" fill="#010102"/>
<path d="M41.2533 27.3285L41.5046 27.3096L41.6802 27.4946L42.0063 27.6119C42.729 28.2311 42.8087 28.483 42.6159 29.3432C42.3394 29.1554 42.2364 29.0688 41.9104 28.9722C41.5581 28.7673 41.437 27.7654 41.2533 27.3276V27.3285Z" fill="#0042D0"/>
<path d="M50.2021 26.8223C50.1838 25.8904 50.1324 20.4835 50.3259 19.9364C50.58 19.701 56.8127 19.7257 56.9411 19.8384C56.0607 20.073 51.0844 19.7367 50.4772 20.0061C50.0609 20.7354 50.546 32.1679 50.2773 32.5381C50.0581 31.2736 50.3351 29.7452 50.2021 28.6695C49.8545 28.5513 49.7509 28.4285 49.4895 28.1738C49.4015 27.7542 49.4005 27.5214 49.3877 27.0981C49.6766 27.0624 49.8408 27.0413 50.1205 26.9662L50.2012 26.8232L50.2021 26.8223Z" fill="#7BE0FA"/>
<path d="M50.2592 26.728C50.2543 27.1026 50.2131 28.1485 50.2592 28.4711C49.8873 28.3595 49.7764 28.2436 49.4966 28.0031C49.4024 27.6069 49.4014 27.3872 49.3877 26.9875C49.6969 26.9538 49.8725 26.9339 50.1719 26.863L50.2583 26.728H50.2592Z" fill="#A4ECFA"/>
<path d="M50.3311 32.8281L50.3858 32.8406C50.5551 33.5234 50.6332 35.6599 50.4223 36.3143C50.0602 36.103 50.4288 33.4852 50.3311 32.8281Z" fill="#7BE0FA"/>
<path d="M91.9321 31.8383L92.0341 31.9062C92.4395 31.6411 92.718 31.3009 93.1823 31.0202C95.3858 29.6904 97.9671 29.3483 100.459 29.8582C105.899 30.9707 108.756 36.2461 109.217 41.3867C109.251 41.771 109.262 43.5576 109.372 43.7722C110.391 43.6915 110.612 44.3115 110.948 45.1388C109.235 45.5964 109.701 48.0498 109.9 49.3219C110.848 51.4368 111.903 52.7043 113.312 54.424C115.021 56.5105 115.754 59.0812 114.641 61.6116C114.246 62.6003 113.828 62.8791 113.326 63.6734C113.771 63.6752 116.59 63.6303 116.787 63.7724C116.13 63.9687 111.798 63.8935 110.825 63.8944L95.5025 63.8733L68.5853 63.8962L59.7879 63.899C58.3474 63.899 56.6523 63.9384 55.2237 63.888L55.198 63.6734L58.8457 63.6715C58.7988 61.8776 58.773 59.4132 58.8457 57.6413L58.8098 57.4359C60.4691 57.4359 62.6082 57.3744 64.217 57.4459C63.7831 56.9369 63.3593 56.0895 63.1203 55.4585C61.9767 52.4392 62.9787 49.498 64.2721 46.7053L64.3512 46.6456C64.9368 46.6071 66.0757 46.3815 66.6861 46.2769L70.9957 45.5432C71.5399 45.446 72.0924 45.3534 72.6301 45.2296C73.178 45.1498 74.6056 45.1791 75.2418 45.1782L80.5644 45.1764C83.6163 45.1745 86.7446 45.2085 89.7929 45.17C89.8177 44.6545 89.8325 44.1382 89.8371 43.6227L97.1351 43.6016C97.3291 43.542 99.5758 43.5796 99.9932 43.5741L99.9656 42.4341C98.5747 42.4258 97.1829 42.4314 95.7912 42.4524C94.7974 42.457 92.1977 42.524 91.318 42.413C91.4798 42.2158 91.7684 41.9416 91.9551 41.7527C91.9587 38.5142 92.0001 35.0648 91.9348 31.8392L91.9321 31.8383Z" fill="#CDF6FB"/>
<path d="M89.4707 45.3203L89.4762 45.3562C89.4113 49.0859 89.5045 52.8331 89.4716 56.5646C89.4698 56.8157 89.4753 57.1302 89.4479 57.3775L89.4725 57.658L89.4744 57.8125L88.7296 57.7987C88.5396 57.7031 87.7592 57.8116 87.4165 57.727L87.4513 57.6598C85.7809 57.726 83.6362 57.6598 81.9393 57.6562C78.774 57.6056 75.5812 57.6654 72.4113 57.6359C72.1508 57.624 71.8804 57.635 71.6181 57.6323C69.0979 57.6111 66.5676 57.67 64.0483 57.6286C63.617 57.1182 63.1958 56.2685 62.9582 55.6359C61.8214 52.6087 62.8175 49.6597 64.1032 46.8597L64.1817 46.7999C64.7638 46.7613 65.896 46.535 66.5027 46.4302L70.7866 45.6946C71.3275 45.5971 71.8767 45.5042 72.4113 45.3801C72.9559 45.3001 74.375 45.3295 75.0073 45.3286L80.2981 45.3268C83.3319 45.3249 86.4415 45.3589 89.4716 45.3203H89.4707Z" fill="#CDF6FB"/>
<path d="M70.7257 45.6332C71.2627 45.5362 71.8078 45.4438 72.3385 45.3203V57.5142C72.0799 57.5023 71.8114 57.5133 71.5511 57.5106C69.0493 57.4895 66.5376 57.5481 64.0367 57.5069C63.6086 56.9992 63.1904 56.1539 62.9545 55.5244C61.8261 52.5128 62.8148 49.5789 64.0911 46.7932L64.1691 46.7337C64.747 46.6953 65.8709 46.4703 66.4732 46.366L70.7257 45.6341V45.6332Z" fill="#7BE0FA"/>
<path d="M72.6288 45.3758C73.18 45.2966 74.6164 45.3257 75.2564 45.3248L80.6115 45.323C80.4478 45.414 80.1713 45.3912 79.9687 45.393C79.9197 47.44 80.1343 51.6331 80.8834 53.4981C81.1683 54.1986 81.5882 54.8382 82.1209 55.3804C82.5029 55.7761 82.9228 56.1037 83.3779 56.4139C82.9339 56.7842 82.6592 57.0917 82.2735 57.522C79.0697 57.4719 75.8382 57.5311 72.6297 57.502V45.3758H72.6288Z" fill="#A4ECFA"/>
<path d="M83.3115 56.3612C84.2916 56.4181 85.4943 56.9732 86.5331 57.0176C87.3117 57.0511 89.031 56.5035 89.6521 56.6333C89.7419 56.8292 89.6713 57.0017 89.7428 57.1264L89.7675 57.3818L89.7694 57.5224L89.0228 57.5099C88.8323 57.4228 88.05 57.5216 87.7065 57.4446L87.7413 57.3834C86.0668 57.4437 83.917 57.3834 82.2159 57.3801C82.5988 56.9849 82.8709 56.7011 83.3097 56.3604L83.3115 56.3612Z" fill="#7BE0FA"/>
<path d="M87.7703 57.5636C88.285 57.5485 89.2865 57.4809 89.7678 57.5605L89.7696 57.813L89.0336 57.7904C88.8458 57.6342 88.0746 57.8115 87.736 57.6732L87.7703 57.5636Z" fill="#41C9F0"/>
<path d="M58.8089 57.5466C60.4682 57.5466 62.6073 57.4862 64.216 57.5565C66.7505 57.5971 69.2959 57.5394 71.8313 57.5601C72.0951 57.5619 72.3672 57.552 72.6292 57.5637C75.8182 57.5926 79.0301 57.5349 82.2145 57.5836C83.9215 57.5881 86.0791 57.6521 87.7595 57.5872L87.7246 57.653C88.0684 57.7359 88.8534 57.6295 89.0456 57.7233L89.7948 57.7368C92.2391 57.6728 94.7974 57.7143 97.2565 57.7035C97.3098 58.2922 97.2997 58.9784 97.2896 59.5743C97.2657 60.9322 97.3365 62.3387 97.2703 63.6902C97.7042 63.7479 101.682 63.7759 101.906 63.637C102.043 63.1447 101.573 62.3107 102.016 61.7932C101.855 62.1133 101.874 63.426 102.131 63.6794C102.499 63.7831 103.908 63.7425 104.276 63.6785H113.326C113.771 63.6785 116.59 63.6343 116.787 63.775C116.13 63.9679 111.798 63.894 110.825 63.8949L95.5025 63.8741L68.5853 63.8967L59.7879 63.8994C58.3474 63.8994 56.6523 63.9382 55.2237 63.8886L55.198 63.6776L58.8457 63.6758C58.7988 61.9122 58.773 59.4896 58.8457 57.7477L58.8098 57.5457L58.8089 57.5466Z" fill="#A4ECFA"/>
<path d="M58.6937 57.5474C60.3512 57.5474 62.488 57.4849 64.095 57.5577C66.6267 57.5997 69.1694 57.54 71.7021 57.5614C71.9656 57.5633 72.2374 57.553 72.4991 57.5652C75.6847 57.595 78.8931 57.5353 82.0741 57.5857C83.7793 57.5904 85.9345 57.6566 87.6132 57.5894L87.5783 57.6576C87.9217 57.7434 88.7059 57.6333 88.8978 57.7304L82.0777 57.7285C78.906 57.6912 75.6736 57.7304 72.4955 57.7285C72.4964 59.6539 72.5662 61.9461 72.5046 63.8389L72.5175 63.893C67.9481 63.9462 63.3108 63.879 58.7295 63.893C58.6826 62.0674 58.6569 59.5596 58.7295 57.7565L58.6937 57.5474Z" fill="#41C9F0"/>
<path d="M58.6842 57.5466C60.3422 57.5466 62.4797 57.4862 64.0872 57.5565C66.6197 57.5971 69.1633 57.5394 71.6967 57.5601C71.9603 57.5619 72.2322 57.552 72.494 57.5637C75.6805 57.5926 78.89 57.5349 82.0719 57.5836C83.7777 57.5881 85.9336 57.6521 87.6128 57.5872L87.5779 57.653C87.9214 57.7359 88.7059 57.6295 88.8978 57.7233L82.0756 57.7215C78.9029 57.6854 75.6695 57.7233 72.4903 57.7215C72.4912 59.5812 72.5611 61.7951 72.4995 63.6233C72.4389 63.3952 72.449 62.0304 72.4435 61.6951C69.2276 61.7194 66.2422 60.1103 64.1901 57.7368C62.4724 57.7945 60.4497 57.7674 58.72 57.7494L58.6842 57.5475V57.5466Z" fill="#7BE0FA"/>
<path d="M58.6842 57.5506C60.3422 57.5506 62.4797 57.4802 64.0872 57.5621C66.6197 57.6094 69.1633 57.5422 71.6967 57.5663C71.9603 57.5684 72.2322 57.5569 72.494 57.5705C75.6805 57.6042 78.89 57.5369 82.0719 57.5937C83.7777 57.5989 85.9336 57.6735 87.6128 57.5979L87.5779 57.6745C87.9214 57.7712 88.7059 57.6472 88.8978 57.7565L82.0756 57.7544C78.9029 57.7124 75.6695 57.7565 72.4903 57.7544L64.1901 57.7722C62.4724 57.8395 60.4497 57.808 58.72 57.787L58.6842 57.5516V57.5506Z" fill="#25BDE4"/>
<path d="M97.2797 57.8159C97.3333 58.4156 97.3231 59.1144 97.313 59.7214C97.2889 61.1043 97.3601 62.5368 97.2935 63.9133C96.5052 63.8711 95.4081 63.8977 94.5967 63.8977L89.7823 63.9051L89.7694 63.445L89.7777 57.8499C92.2352 57.7847 94.8074 57.827 97.2797 57.8159Z" fill="#FDD535"/>
<path d="M82.2159 57.8125L89.0224 57.8143L89.7694 57.8279L89.7611 63.3323C89.5934 63.1092 89.444 63.1119 89.1746 63.0613C87.2573 62.6999 85.2916 62.0395 83.7657 60.8001C82.7356 59.9635 82.3598 59.1053 82.2159 57.8125Z" fill="#7BE0FA"/>
<path d="M97.2703 63.6996C97.7042 63.7549 101.682 63.7817 101.906 63.6485C102.043 63.1764 101.573 62.3767 102.016 61.8804C101.855 62.1873 101.874 63.4462 102.131 63.6892C102.499 63.7886 103.908 63.7497 104.276 63.6883H113.326C113.771 63.6883 116.59 63.6459 116.787 63.7808C116.13 63.9659 111.798 63.895 110.825 63.8958L95.5025 63.8759L68.5853 63.8976L59.7879 63.9001C58.3474 63.9001 56.6523 63.9373 55.2237 63.8898L55.198 63.6874L58.8457 63.6857C63.4319 63.6727 68.0733 63.7341 72.6485 63.6857L89.8003 63.6918L94.5888 63.6849C95.3959 63.6849 96.4871 63.6598 97.2712 63.6996H97.2703Z" fill="#008CB3"/>
<path d="M89.8358 43.5991L97.1522 43.5781L97.2766 43.6492C97.3227 44.0504 97.295 44.746 97.2886 45.1717C97.3181 48.0899 97.3255 51.0082 97.3098 53.9264C97.3098 54.4907 97.3522 57.0206 97.284 57.387L97.2766 57.4891C94.8114 57.5001 92.2466 57.4582 89.7961 57.5229L89.7943 57.3697L89.7694 57.0917C89.7971 56.8464 89.7906 56.5346 89.7934 56.2858C89.8265 52.5862 89.7325 48.8712 89.798 45.1735L89.7924 45.138C89.8173 44.6256 89.8321 44.1124 89.8367 43.6L89.8358 43.5991Z" fill="#FDD535"/>
<path d="M89.8139 43.6011L97.1715 43.5781L97.2966 43.6559C97.3429 44.0947 97.3151 44.8555 97.3086 45.3212H89.775L89.7694 45.2823C89.7944 44.7219 89.8093 44.1605 89.8139 43.6001V43.6011Z" fill="#BDAA34"/>
<path d="M89.7694 57.5397C90.447 57.6162 91.3504 57.5576 92.0493 57.5479L95.5188 57.5316C96.0198 57.5316 96.8377 57.4942 97.3228 57.5706L97.3154 57.7528C94.8292 57.7723 92.2426 57.6975 89.7713 57.813L89.7694 57.5397Z" fill="#BDAA34"/>
<path d="M109.793 49.3882C110.737 51.5281 111.789 52.8106 113.192 54.5506C114.895 56.6617 115.625 59.2629 114.516 61.8232C114.123 62.8236 113.706 63.1057 113.206 63.9093H104.19C103.996 63.9149 103.907 63.9251 103.714 63.8722V63.8035C105.842 62.3865 107.13 61.0901 107.362 58.3006C107.452 57.225 107.363 55.7161 107.734 54.6972C108.586 52.3577 109.766 52.1898 109.793 49.3882Z" fill="#CDF6FB"/>
<path d="M109.115 43.8753C110.131 43.7943 110.351 44.4165 110.687 45.2467C108.979 45.706 109.443 48.168 109.642 49.4447C109.615 52.2234 108.434 52.3909 107.582 54.7103C107.211 55.72 107.3 57.2166 107.21 58.2843C106.978 61.051 105.689 62.3368 103.561 63.7423V63.8104C103.753 63.8629 103.843 63.8527 104.036 63.8481C103.67 63.9135 102.265 63.9549 101.899 63.8491C101.642 63.5904 101.623 62.2494 101.783 61.9236C101.848 61.8389 101.912 61.5499 101.962 61.4265C102.134 61.0124 102.389 60.5936 102.648 60.2383C103.015 59.7376 105.156 58.7804 105.152 58.1775C104.891 58.2953 104.68 58.6616 104.445 58.8117C103.815 59.2157 103.186 59.5627 102.624 60.0671C102.559 60.126 102.505 60.0873 102.428 60.0616C101.995 59.1043 104.361 57.3648 102.733 54.8548C103.373 53.7678 103.227 52.3817 103.887 51.2707C104.655 49.9214 106.565 49.4741 107.123 47.9656C107.704 46.3953 107.394 44.8352 109.115 43.8753Z" fill="#41C9F0"/>
<path d="M102.736 54.9077C104.372 57.4054 101.995 59.135 102.431 60.0872C102.508 60.1129 102.562 60.1504 102.628 60.0927C103.192 59.591 103.823 59.2467 104.456 58.8438C104.693 58.6937 104.904 58.3302 105.167 58.213C105.17 58.8127 103.02 59.764 102.652 60.263C102.391 60.6164 102.135 61.033 101.962 61.445C101.912 61.5677 101.848 61.8552 101.783 61.9395C101.34 62.4659 101.81 63.3119 101.673 63.8118C101.449 63.9519 97.4666 63.9245 97.0322 63.8659C98.1467 63.8027 99.61 63.8457 100.749 63.8476C99.6357 62.9494 99.159 62.2416 98.8029 60.8499C98.4541 59.4884 98.9492 57.7222 100.135 56.9422C101.279 56.1886 101.869 56.2362 102.736 54.9077Z" fill="#25BDE4"/>
<path d="M92.6879 41.2796C93.634 41.239 94.6284 41.2575 95.5799 41.2621L95.5736 42.6822C94.6069 42.6868 92.078 42.7541 91.2222 42.6425C91.3796 42.4443 91.6604 42.1685 91.8419 41.9786C92.0896 41.7693 92.4321 41.4622 92.6879 41.2796Z" fill="#010102"/>
<path d="M60.1465 5.81096H97.3051C97.3006 8.26813 97.2243 11.1891 97.3226 13.6083C96.2002 13.6227 95.0769 13.6309 93.9536 13.6327C93.3548 13.6327 92.4942 13.6047 91.9238 13.6399C87.2194 13.6047 82.4617 13.696 77.7665 13.6282C75.8956 13.667 73.9309 13.6318 72.049 13.6318L60.1621 13.6255C60.1098 11.0471 60.1557 8.3956 60.1465 5.81006V5.81096Z" fill="#005DFB"/>
<path d="M67.6212 8.7246C67.6857 8.71905 67.751 8.71535 67.8154 8.71535C69.4311 8.70887 69.1201 10.3707 69.1166 11.6023C68.9085 11.581 68.7056 11.5514 68.4991 11.5227C68.4486 11.4395 68.4399 11.3802 68.426 11.2849C67.9017 11.2572 67.933 11.9715 66.8025 11.3951C66.5064 11.0536 66.4045 10.5169 66.7276 10.1209C67.1413 9.6129 68.0462 10.0515 68.3572 9.69433L68.3485 9.56201C67.9652 9.20576 67.6073 9.39453 67.1779 9.53055C67.0272 9.47503 66.8417 9.18263 66.7311 9.03458C67.0934 8.85507 67.2302 8.80418 67.6212 8.72553V8.7246Z" fill="white"/>
<path d="M67.3964 10.4647C67.6936 10.4647 68.1738 10.3854 68.2711 10.7921C68.2032 11.0501 68.1176 11.1217 67.9596 11.3025C67.6177 11.3731 67.1688 11.3389 67.109 10.8263C67.1858 10.6103 67.2304 10.5904 67.3964 10.4647Z" fill="#005DFB"/>
<path d="M82.5763 9.00983C83.8014 8.94189 83.9931 9.87927 83.9546 10.9525C83.9449 11.2298 83.9861 11.6182 83.7918 11.8183C83.6036 11.8211 83.524 11.8293 83.3385 11.7742L83.2518 11.5438C82.6218 11.5566 82.6778 12.3159 81.5567 11.6145C81.4517 11.4602 81.3844 11.2821 81.3581 11.0948C81.1752 9.79205 82.8738 10.3548 83.1626 9.95914C83.1547 9.93711 83.146 9.91416 83.1381 9.89212C83.0882 9.77644 82.9946 9.6883 82.8799 9.64882C82.585 9.54416 82.2472 9.73604 81.9698 9.86182C81.7414 9.69932 81.7003 9.62312 81.7143 9.34952C81.9313 9.04839 82.1938 9.07317 82.5763 9.00983Z" fill="white"/>
<path d="M82.087 10.4794C82.397 10.4696 82.9097 10.3926 83.0876 10.6131C83.072 10.7748 82.9629 10.8579 82.839 10.9825C82.4731 11.0611 82.1603 11.1019 81.9255 10.8058C81.9475 10.5912 81.9164 10.6751 82.087 10.4802V10.4794Z" fill="#005DFB"/>
<path d="M88.0182 7.55963C88.1183 7.54771 88.0846 7.5523 88.1901 7.58714C88.2884 7.89427 88.2456 9.60778 88.242 10.0479C88.5849 9.62429 88.9733 9.20989 89.3416 8.80649C89.5981 8.82758 89.9138 8.82024 90.1757 8.82116C89.8847 9.20439 89.3517 9.75356 89.0069 10.1661C89.4844 10.5833 89.8155 10.8876 90.2503 11.347C90.3658 11.4698 90.3403 11.4011 90.3503 11.5505C90.1466 11.6504 89.771 11.6156 89.5263 11.6128C89.1033 11.2938 88.6022 10.708 88.2338 10.2981C88.2484 10.7327 88.2393 11.1801 88.2365 11.6156L87.468 11.5679C87.4861 10.7675 87.3906 8.26099 87.4943 7.65498C87.6508 7.54313 87.8181 7.56422 88.0191 7.5578L88.0182 7.55963Z" fill="white"/>
<path d="M63.6229 7.57951C64.1081 7.58325 66.2879 7.46746 66.5039 7.6981C66.5235 7.9717 66.5637 7.95956 66.459 8.17433C66.0935 8.40031 64.9522 8.28545 64.4567 8.27611L64.4623 9.33969C64.811 9.33036 66.0328 9.26499 66.2842 9.43587C66.2842 9.6273 66.3038 9.74029 66.2104 9.90463C65.8636 10.1427 64.9092 10.0242 64.4483 10.0102C64.4511 10.5452 64.4511 11.0803 64.4483 11.6153L63.6416 11.6209L63.6248 7.57858L63.6229 7.57951Z" fill="white"/>
<path d="M75.8312 7.84473C76.9784 7.85987 78.1607 7.84473 79.3108 7.84473L79.2833 8.55091H77.9677L77.9611 10.5501L77.9488 11.6214L77.1128 11.5983L77.1175 8.5518H75.8246L75.8303 7.84473H75.8312Z" fill="white"/>
<path d="M70.4818 8.72267C70.9055 8.69401 71.4974 8.74024 71.8351 9.02411C71.9112 9.22845 71.8942 9.14523 71.8324 9.40783C71.4562 9.79618 71.0711 9.18222 70.601 9.27746C70.4612 9.42355 70.5042 9.35328 70.4648 9.59646C70.7738 10.1022 71.7536 9.71758 71.9981 10.4952C72.2273 11.2247 71.6219 11.4966 71.0684 11.6205C70.6054 11.6149 69.9212 11.6075 69.7296 11.1101C69.7914 10.8373 69.829 10.8678 70.0403 10.6321C70.3735 10.9279 71.0514 11.3292 71.3183 10.7393C71.0335 10.2419 69.8693 10.4749 69.7439 9.79063C69.6311 9.17667 70.0081 8.90483 70.4818 8.72175V8.72267Z" fill="white"/>
<path d="M73.4733 8.14662C73.558 8.12486 73.5425 8.13716 73.64 8.15987C73.7138 8.36803 73.6828 8.79098 73.6782 9.02942C74.0718 9.00671 74.3787 8.91398 74.591 9.3199C74.5172 9.80246 74.0317 9.71257 73.6801 9.69838C73.6673 10.0844 73.6072 10.6663 73.7794 10.9994C74.0262 11.4763 74.325 11.0751 74.622 11.1848C74.6985 11.4006 74.6484 11.6163 74.622 11.8529C72.2444 12.2645 73.2474 10.4156 72.8165 9.72582C72.4248 9.6312 72.157 9.34829 72.4877 9.01049C72.668 9.01049 72.7108 9.01901 72.8775 8.96035C73.0579 8.65946 72.8684 8.75597 72.9686 8.35668C73.0925 8.19961 73.2802 8.18731 73.4742 8.14662H73.4733Z" fill="white"/>
<path d="M85.8767 9.00727C86.4607 9.02023 86.6483 9.08411 87.1547 9.36741C86.6063 10.0442 86.7358 9.82938 85.9258 9.7368C85.2318 9.65718 85.1282 10.6756 85.5525 11.0524C86.0597 11.5042 86.3455 11.0116 86.7733 10.982L86.8796 11.1135C87.0877 11.3051 87.1279 11.3273 87.0368 11.5866C86.8296 11.7726 86.7108 11.7782 86.4456 11.8495C85.0907 12.217 84.0333 10.8839 84.796 9.62478C85.0336 9.23317 85.431 9.08411 85.8775 9.00635L85.8767 9.00727Z" fill="white"/>
<path d="M80.591 8.73709C80.8568 8.72401 81.1785 8.65022 81.3444 8.87813C81.1501 9.64311 80.7028 9.29658 80.3673 9.4974C79.8733 9.79163 80.1501 11.0096 80.0557 11.5588L79.9457 11.6205C79.7468 11.6177 79.4755 11.6392 79.3499 11.5103C79.2949 10.9209 79.2995 9.40587 79.3536 8.81555C79.5607 8.70066 79.4727 8.71934 79.6936 8.72308C79.8705 8.79873 79.9008 8.85198 80.008 9.00609L80.041 9.05373L80.1675 9.04345C80.338 8.85851 80.3627 8.83983 80.5901 8.73709H80.591Z" fill="white"/>
<path d="M60.1772 13.6548L72.1057 13.6612C73.9943 13.6612 75.9658 13.6972 77.8433 13.6575C77.8461 16.0036 77.8203 18.3993 77.8488 20.7407L77.8581 29.5896C76.3806 29.5859 64.0409 29.7112 63.6188 29.5528L63.4667 29.3354C63.3017 29.2488 63.2317 29.1926 63.0455 29.2295C62.8584 29.34 62.8233 29.3814 62.6759 29.5343C62.2242 29.6246 60.7007 29.6007 60.1366 29.6025L60.1919 16.9882C60.2057 15.8774 60.2011 14.7665 60.1781 13.6557L60.1772 13.6548Z" fill="url(#paint1_linear_4753_49661)"/>
<path d="M70.3049 24.7456C70.9036 23.5883 73.424 20.1177 73.424 20.1177L74.3722 20.0459L70.884 25.2752L70.3049 24.7466V24.7456Z" fill="#005DFB"/>
<path d="M68.8522 24.2234C69.4509 23.1947 71.9712 20.1097 71.9712 20.1097L72.9194 20.0459L69.4312 24.6941L68.8522 24.2243V24.2234Z" fill="#005DFB"/>
<path d="M71.1764 19.5204C70.9831 19.8246 70.8222 20.0397 70.6066 20.3219C69.2542 20.3599 67.9185 20.2748 66.5282 20.3369C66.6966 20.0517 66.9417 19.7345 67.1396 19.4653C68.4735 19.5092 69.8446 19.5649 71.1764 19.5204Z" fill="#005DFB"/>
<path d="M67.6901 23.5868C67.4968 23.891 67.3358 24.1061 67.1203 24.3883C65.7679 24.4263 64.4322 24.3412 63.0419 24.4033C63.2102 24.1181 63.4554 23.8009 63.6533 23.5317C64.9872 23.5757 66.3582 23.6314 67.6901 23.5868Z" fill="#005DFB"/>
<path d="M68.8522 22.1351C68.6589 22.4393 68.4979 22.6544 68.2824 22.9366C66.93 22.9746 65.5943 22.8896 64.204 22.9516C64.3723 22.6664 64.6175 22.3492 64.8154 22.0801C66.1493 22.124 67.5203 22.1797 68.8522 22.1351Z" fill="#005DFB"/>
<path d="M70.0142 20.6825C69.8209 20.9867 69.6599 21.2018 69.4444 21.484C68.092 21.522 66.7563 21.4369 65.366 21.499C65.5343 21.2138 65.7795 20.8966 65.9774 20.6274C67.3113 20.6714 68.6823 20.7271 70.0142 20.6825Z" fill="#005DFB"/>
<path d="M63.0588 40.9662L63.1477 40.9828L63.1926 40.9764L63.6424 40.9921L63.7725 40.9726C64.0611 40.9773 64.3497 40.9764 64.6374 40.9708H64.707L66.0501 40.9736C66.0253 41.4924 65.9823 42.102 65.9905 42.6134C67.1632 42.5189 68.8791 42.5643 70.1031 42.5587C70.5263 42.5745 71.8877 42.6254 72.2487 42.5355L72.4841 42.5717L72.6097 42.4892C73.0082 42.5958 74.0489 42.5559 74.5299 42.5689C75.1098 42.6291 80.024 42.6254 80.3181 42.5365C80.6552 42.24 80.92 42.0214 81.2791 41.7536L81.4065 41.6369C81.8673 41.4627 82.1632 41.5174 82.6424 41.573L82.7496 41.6063C82.93 41.6063 83.3936 41.6165 83.5503 41.5906L83.5832 42.5976C85.1911 42.5837 87.6738 42.6634 89.2102 42.567C89.8075 42.5717 90.4039 42.5708 91.0013 42.5643C91.878 42.6764 94.4689 42.6087 95.4592 42.6041C96.8463 42.5837 98.2333 42.5772 99.6195 42.5856L99.6469 43.7371C99.231 43.7427 96.9919 43.7047 96.7986 43.7649L89.5254 43.7862C89.5208 44.3078 89.5061 44.8285 89.4814 45.3491C86.4444 45.3881 83.3267 45.3538 80.2842 45.3556L74.9797 45.3575C74.3458 45.3575 72.923 45.3288 72.377 45.4094C71.841 45.5344 71.2904 45.628 70.7481 45.7262L66.4532 46.4674C65.8448 46.5739 64.7097 46.8009 64.1262 46.8398L64.0474 46.9C63.8339 46.925 63.6232 46.9741 63.4125 47.014C61.8266 47.315 60.2481 47.6717 58.6559 47.9358C58.6577 46.6443 58.6971 45.112 58.633 43.84L58.5835 43.8381C58.1062 43.7668 56.6028 43.815 56.0696 43.8224C56.0806 43.4611 56.0705 43.0599 56.0696 42.6949C57.059 42.6875 59.1112 42.5494 59.9247 42.6263C60.5404 42.5985 61.3475 42.6356 61.9283 42.5735L61.9347 40.9754C62.3039 40.9652 62.6878 40.9671 63.0588 40.9634V40.9662Z" fill="#25BDE4"/>
<path d="M81.6478 41.6651C82.1098 41.4865 82.4065 41.5426 82.887 41.5995L82.9945 41.6337C83.1754 41.6337 83.6403 41.6442 83.7973 41.6176L83.8304 42.6498C85.4426 42.6355 87.9321 42.7172 89.4726 42.6184C90.0715 42.6232 90.6695 42.6222 91.2685 42.6156C92.1476 42.7305 94.7455 42.6612 95.7385 42.6564C97.1293 42.6355 98.5201 42.6289 99.9099 42.6374L99.9375 43.8177C99.5204 43.8234 97.2753 43.7845 97.0815 43.8462L89.7886 43.8681L88.869 43.8662C88.4887 43.756 85.472 43.8073 84.8234 43.8063L72.378 43.8025C72.3752 43.5177 72.3201 43.2328 72.3449 42.9489C72.3706 42.6431 72.4717 42.6773 72.7004 42.6241L72.8263 42.5396C73.2259 42.6488 74.2694 42.608 74.7517 42.6213C75.3332 42.683 80.2607 42.6792 80.5555 42.588C80.8936 42.2842 81.1591 42.0601 81.5192 41.7856L81.6468 41.666L81.6478 41.6651Z" fill="white"/>
<path d="M81.5374 41.6707C81.9885 41.4839 82.2783 41.5425 82.7473 41.6021L82.8523 41.6379C83.029 41.6379 83.4828 41.6488 83.6362 41.621L83.6685 42.7013C82.759 42.6506 81.2925 42.7788 80.4728 42.6357C80.8028 42.3177 81.062 42.0831 81.4136 41.7959L81.5383 41.6707H81.5374Z" fill="#FEA686"/>
<path d="M63.0563 40.9662L63.1452 40.983L63.19 40.9765L63.6399 40.9924L63.77 40.9727C64.0586 40.9774 64.3472 40.9765 64.6348 40.9709H64.7045L66.0476 40.9737C66.0228 41.4976 65.9798 42.1133 65.988 42.6297C67.1607 42.5343 68.8767 42.5802 70.1007 42.5745C70.524 42.5905 71.8854 42.6419 72.2464 42.5512L72.4818 42.5876C72.2528 42.64 72.1529 42.6064 72.1273 42.9076C72.1035 43.1874 72.1575 43.4681 72.1603 43.7488L84.5725 43.7525C85.2184 43.7544 88.2271 43.7029 88.6073 43.8115C80.1227 43.9022 71.617 43.7441 63.1305 43.8105C62.3829 43.8161 59.0316 43.7226 58.633 43.8685L58.5835 43.8667C58.1062 43.7946 56.6028 43.8433 56.0696 43.8508C56.0806 43.4859 56.0705 43.0807 56.0696 42.7121C57.059 42.7046 59.1113 42.5652 59.9248 42.6428C60.5405 42.6148 61.3476 42.6522 61.9285 42.5895L61.9349 40.9755C62.3041 40.9653 62.688 40.9671 63.059 40.9634L63.0563 40.9662Z" fill="#A4ECFA"/>
<path d="M63.2852 40.9643L63.3729 40.9818L63.4172 40.975L63.8612 40.9915L63.9896 40.9711C64.2744 40.976 64.5593 40.975 64.8432 40.9692H64.9119L66.2375 40.9721C66.2131 41.5142 66.1706 42.1511 66.1787 42.6854C65.6805 42.7106 62.522 42.728 62.2345 42.6477L62.1703 42.6457L62.1766 40.976C62.541 40.9653 62.9199 40.9673 63.2861 40.9634L63.2852 40.9643Z" fill="#FDD535"/>
<path d="M63.24 40.9634L63.3241 40.9814C63.5955 41.3481 64.2898 42.451 64.4944 42.6804C63.9587 42.6824 62.7147 42.6514 62.2318 42.7065L62.1703 42.7045L62.1764 40.9764C62.5257 40.9654 62.8889 40.9674 63.24 40.9634Z" fill="#F9A301"/>
<path d="M64.2049 46.7738C64.9787 45.6469 65.7284 44.5585 67.2593 44.4619C68.7291 44.3688 69.7968 44.8127 70.8858 45.698L66.5521 46.414C65.9382 46.5169 64.7928 46.7362 64.204 46.7738H64.2049Z" fill="#41C9F0"/>
<path d="M66.8249 35.4438L66.8905 35.4513C67.5257 35.5172 68.594 35.4921 69.2513 35.4903L73.1393 35.4726C73.7266 35.4699 75.5944 35.3798 75.7957 35.7438C76.3219 36.6976 76.8861 38.8939 77.2462 39.9118C77.4179 40.5386 77.6229 41.1571 77.8583 41.7626C77.7771 42.0821 77.7549 42.2288 77.3782 42.292C76.6202 42.4201 75.7652 42.3087 75.0026 42.33C74.9499 42.5427 74.9185 42.6022 74.696 42.6885C74.2104 42.6755 73.1624 42.7164 72.7608 42.6087L72.6343 42.6913L72.397 42.6551C72.0332 42.7452 70.6612 42.6932 70.2347 42.6783C70.278 42.591 70.3288 42.4276 70.363 42.331C69.9124 42.3254 68.7952 42.4034 68.4924 42.1898C67.9255 40.8757 67.029 37.4257 66.5341 35.911C66.4888 35.7726 66.716 35.5674 66.8249 35.4448V35.4438Z" fill="#010102"/>
<path d="M70.9126 38.6519C71.6674 38.6398 72.3851 38.6295 73.1408 38.6519C73.2518 38.9524 73.4155 39.3596 73.5006 39.6601C73.3082 40.1067 72.5683 42.1886 72.4711 42.6538C72.1067 42.7446 70.7323 42.6922 70.3049 42.6772C70.3484 42.5892 70.3993 42.4245 70.4335 42.3271C70.6065 41.597 71.031 40.4427 71.2881 39.7172L70.9126 38.6519Z" fill="#CFD5D7"/>
<path d="M72.6288 42.416C72.6378 42.3364 72.665 42.2813 72.6949 42.2066C72.9649 42.0767 74.4981 42.1409 74.9529 42.1444C74.9013 42.3043 74.8705 42.349 74.6521 42.4139C74.1755 42.4041 73.1471 42.4349 72.7529 42.3539L72.6288 42.416Z" fill="#7BE0FA"/>
<path d="M83.8484 32.0984C84.6624 31.9488 84.7749 31.7326 85.4773 31.376L85.4745 31.7755L85.4886 32.0628C85.4867 32.2753 85.4727 32.6219 85.4886 32.8235C85.7474 32.974 86.3082 33.2348 86.3795 33.5167L86.4255 33.3853C87.216 33.4966 88.3348 33.8377 88.8206 34.5045C89.7096 35.7249 90.1157 41.2695 89.4105 42.3686C87.8368 42.4625 85.2963 42.3841 83.6505 42.3987L83.6168 41.4072C83.4564 41.4318 82.9819 41.4218 82.7971 41.4227C82.9078 40.3729 82.8187 39.5091 82.9903 38.3243C83.1207 37.4478 83.6524 34.8292 84.2854 34.2491L83.9506 34.2582L83.9122 34.2755L83.8606 34.2691C83.779 33.8505 83.749 33.3352 83.7255 32.9101L83.8118 32.6994L83.8484 32.1002V32.0984Z" fill="#005DFB"/>
<path d="M86.9529 37.7807L86.9828 37.7676C87.0009 38.7569 87.1521 39.9007 87.1549 40.8291C86.5327 40.979 83.8703 41.3172 83.5886 41.5271C83.4338 41.5523 82.9755 41.542 82.7971 41.543C82.904 40.4647 82.8179 39.5775 82.9837 38.3606L83.0299 38.5292C83.8277 39.2065 85.7865 39.2702 86.5445 38.5011C86.7528 38.2894 86.9366 38.0927 86.9529 37.7798V37.7807Z" fill="#0042D0"/>
<path d="M84.0812 32.1C84.8855 31.9501 84.9967 31.7334 85.6908 31.376L85.6881 31.7764L85.702 32.0643C85.7001 32.2773 85.6862 32.6247 85.702 32.8267C85.4434 33.548 85.1876 33.6714 84.5278 34.0617C84.4083 34.133 84.2656 34.1623 84.1813 34.2638L84.1433 34.2811L84.0923 34.2747C84.0117 33.8551 83.982 33.3386 83.9589 32.9127L84.0441 32.7015L84.0803 32.1009L84.0812 32.1Z" fill="#FEA686"/>
<path d="M83.9971 32.1686C84.8491 32.0045 84.9668 31.7673 85.702 31.376L85.699 31.8143C85.3427 32.0635 84.2994 32.8791 83.9589 32.8261L83.9971 32.1686Z" fill="#ED7761"/>
<path d="M85.4308 32.8281C85.6784 32.976 86.2148 33.2322 86.283 33.5091C86.0731 34.1516 85.8435 34.8379 85.5367 35.4428C85.1411 35.1551 84.3867 34.2725 84.2791 34.2277L83.9589 34.2367C84.0414 34.1372 84.1786 34.1086 84.2943 34.0387C84.933 33.6552 85.1806 33.5351 85.4308 32.8281Z" fill="white"/>
<path d="M87.1562 37.8731L87.1925 37.4771L87.2883 37.7889C87.32 38.3176 87.5917 40.7431 87.3377 40.9342C87.0585 41.1455 84.1068 41.536 83.6685 41.5443C83.9579 41.3394 86.6937 41.0092 87.333 40.8629C87.3293 39.9556 87.1739 38.8389 87.1562 37.874V37.8731Z" fill="#031050"/>
<path d="M87.1715 37.7665C87.1311 37.0913 87.0863 34.215 88.0262 34.2824L87.9999 34.3785C87.1224 34.8893 87.2796 36.7431 87.3244 37.6695L87.2339 37.3546L87.1997 37.7545L87.1707 37.7674L87.1715 37.7665Z" fill="#0725BA"/>
<path d="M85.8219 36.3516C86.2077 36.3209 86.6239 36.2268 86.8643 36.5429C86.8069 36.9303 86.2588 36.8736 85.9116 36.8775C85.5304 36.8912 85.0738 36.9663 84.8307 36.6593C84.9285 36.314 85.4927 36.3577 85.821 36.3516H85.8219Z" fill="white"/>
<path d="M77.5751 13.6548C82.2921 13.7228 87.0738 13.6312 91.8011 13.6666L91.8029 14.1208C88.557 15.5225 85.3184 17.0975 82.0863 18.5445C80.6106 19.2055 79.061 20.0025 77.5806 20.6272C77.5529 18.3215 77.5787 15.9641 77.5751 13.6548Z" fill="#25BDE4"/>
<path d="M83.7075 33.1215C83.7302 33.5512 83.7592 34.0703 83.8382 34.4927L83.8881 34.4991L83.9254 34.4816L84.2495 34.4724C83.6375 35.0586 83.1227 37.7007 82.9956 38.5841C82.8286 39.7795 82.9157 40.651 82.8086 41.7102L82.7024 41.6771C82.2275 41.6219 81.9342 41.5667 81.4775 41.7406L81.3513 41.8565C80.9954 42.1225 80.733 42.3406 80.3989 42.6342C80.1074 42.7225 75.2372 42.7262 74.6625 42.6664C74.8813 42.5808 74.9122 42.5219 74.9639 42.3112C75.7139 42.29 76.5546 42.4013 77.3001 42.2734C77.6705 42.2099 77.6932 42.0654 77.7722 41.7489L77.9674 41.6338C78.228 41.3062 79.5345 40.7145 79.7688 40.2571C80.635 38.5629 80.7285 36.254 81.5529 34.5543C81.8289 33.9865 82.6061 33.7068 83.1963 33.5742C83.3415 33.2705 83.4142 33.2466 83.7056 33.1196L83.7075 33.1215Z" fill="#005DFB"/>
<path d="M81.5913 36.0244C81.888 37.0629 82.0495 37.6866 82.7969 38.5256C82.7365 39.4653 82.693 40.5374 82.6996 41.4799C82.2055 41.424 81.9003 41.368 81.425 41.5442C81.4118 39.6872 81.1708 37.7919 81.5913 36.0244Z" fill="#0042D0"/>
<path d="M83.8327 33.1196C83.8547 33.5643 83.8828 34.1013 83.9592 34.5383C83.426 34.5573 83.1256 35.0401 82.7971 35.4438C82.9377 34.8125 83.1195 34.1936 83.3408 33.59C83.4814 33.2758 83.5516 33.251 83.8336 33.1196H83.8327Z" fill="white"/>
<path d="M83.9455 34.2905L84.2497 34.2812C83.6754 34.8695 83.1922 37.5207 83.0729 38.4072C82.9162 39.6068 82.998 40.4813 82.8974 41.5441L82.7977 41.5109C82.7918 40.5764 82.8309 39.5153 82.8855 38.5845C83.0397 37.2889 83.5467 35.5944 83.9106 34.3071L83.9455 34.2896V34.2905Z" fill="#000F67"/>
<path d="M81.8411 35.4596L81.9254 35.4438L81.8309 36.2193C81.324 37.9792 81.6144 39.8673 81.6304 41.7182L81.4721 41.8352C81.3559 39.6732 81.1315 37.5706 81.84 35.4606L81.8411 35.4596Z" fill="#000F67"/>
<path d="M81.6362 35.4443C81.6274 35.1477 81.6638 34.9329 81.7556 34.6446L81.8675 34.5728C82.0108 34.7466 81.8587 35.258 81.7292 35.4301L81.6362 35.4443Z" fill="#0042D0"/>
<path d="M82.8433 27.1213C84.2472 26.7022 86.2101 27.6279 87.1685 28.6616C87.7008 29.7857 87.8908 30.7253 88.0264 31.9527C87.2571 32.0026 86.4251 32.0376 85.6631 32.1032L85.6493 31.8125L85.6521 31.4082C84.9612 31.7691 84.8505 31.9878 84.0498 32.1392L83.2713 32.1041C82.9097 32.1936 82.5601 32.2278 82.1921 32.2721C82.2188 31.925 82.2336 31.578 82.2364 31.2301C82.1257 31.6343 82.0288 32.1216 81.9357 32.5379C81.8683 31.8125 82.1534 30.6228 82.3037 29.8789C81.6654 28.932 81.9311 27.7775 82.8424 27.1222L82.8433 27.1213Z" fill="#010102"/>
<path d="M82.5846 29.0987C82.883 28.3664 83.7283 28.5794 84.2571 27.8896C84.4058 28.2758 84.6115 28.6392 84.8673 28.97C85.1478 29.338 85.5041 29.3906 85.5013 29.6806L85.6434 29.7948L85.7021 31.2613C85.7021 31.2613 85.6595 31.4389 85.6633 31.5296C84.9535 31.8839 84.8398 32.0987 84.0173 32.2474L83.2176 32.2129C83.1939 32.1885 83.1702 32.164 83.1474 32.1395C82.523 31.4688 82.469 30.3205 82.522 29.4576L82.5855 29.0987H82.5846Z" fill="#FEA686"/>
<path d="M82.798 29.1769C83.0183 29.0381 82.9426 29.0409 83.1681 29.0634C83.5339 29.4761 83.3493 30.593 83.1594 31.0854L83.1229 30.9606C83.2352 30.5311 83.183 30.2807 83.2788 29.9515C83.2988 29.7415 83.3275 29.583 83.2674 29.3795C83.0898 29.206 83.0628 29.2453 82.7971 29.1769H82.798Z" fill="#993830"/>
<path d="M83.0873 30.8778C83.5045 30.9775 83.7641 30.9756 84.1653 30.7949L84.2493 30.8285C83.8576 31.1862 83.5244 31.1396 83.0873 30.8778Z" fill="#993830"/>
<path d="M65.5514 31.4795L65.7778 31.4144C65.6105 29.7108 66.9115 29.8829 68.2225 29.9801C68.2489 30.5256 68.3443 32.3139 68.1625 32.7463C67.9525 32.9362 67.4843 32.8764 67.2106 32.8381C66.9497 33.0815 66.7561 33.2936 66.3997 33.3917L66.2678 33.4095L66.1842 33.4069L66.0624 33.2722C65.696 32.9344 65.5887 32.8381 65.366 32.3906C65.366 32.1303 65.3905 31.968 65.4269 31.7095L65.5514 31.4804V31.4795Z" fill="#25BDE4"/>
<path d="M65.5545 31.6665C65.9907 31.7144 66.2763 31.814 66.5656 32.1768C66.6562 32.2896 66.7366 32.4108 66.8059 32.5376C66.8419 32.7482 66.8022 32.9868 66.67 33.1579L66.4168 33.6813L66.2828 33.7001L66.1978 33.6973L66.0739 33.5554C65.7015 33.1992 65.5924 33.0977 65.366 32.626C65.366 32.3516 65.3909 32.1805 65.4279 31.908L65.5545 31.6665Z" fill="#005DFB"/>
<path d="M65.4248 31.9575C65.6155 32.1193 65.6568 32.1687 65.9001 32.2208C66.046 32.7171 66.1839 33.1823 66.2375 33.7006L66.1567 33.6979L66.039 33.5598C65.6849 33.2134 65.5812 33.1147 65.366 32.6559C65.366 32.3889 65.3897 32.2226 65.4248 31.9575Z" fill="#005DFB"/>
<path d="M65.947 32.2565L66.0501 32.2476C66.5602 32.845 66.2607 33.0786 66.5179 33.3087C66.6178 33.2668 66.7187 33.2258 66.8186 33.1856L66.5212 33.6823L66.3638 33.7001C66.2987 33.1945 66.1272 32.7398 65.947 32.2565Z" fill="#0725BA"/>
<path d="M66.9676 32.5474C67.1213 32.3511 67.3054 32.0742 67.5262 31.9575L67.6339 31.9803C67.7887 32.2951 67.5889 32.7987 67.4613 33.1117C67.1611 33.3706 66.9383 33.5963 66.5282 33.7006L66.8148 33.1724C66.9644 32.9998 67.0094 32.7589 66.9686 32.5465L66.9676 32.5474Z" fill="#1886E6"/>
<path d="M83.1315 25.6172C85.191 25.3789 86.5798 25.9598 88.0264 27.4275C87.8019 27.8161 87.461 28.4514 87.1648 28.7611C86.197 27.71 84.2148 26.7687 82.7971 27.1948C82.853 26.7274 82.9965 26.0733 83.1315 25.6163V25.6172Z" fill="#005DFB"/>
<path d="M63.8858 40.9616C63.7585 39.8892 63.3394 38.2441 63.9318 37.186C64.2618 37.5346 64.4713 37.8462 64.9296 37.9782L64.9933 37.8006L65.0246 37.8044L65.0755 37.8927C65.0197 38.5224 64.9952 39.3127 64.9835 39.9519C64.9316 40.121 64.9022 40.1314 64.7631 40.2578C64.7142 40.4411 64.6926 40.4895 64.6946 40.6757L64.8082 40.9578C64.4997 40.9635 64.1913 40.9644 63.8838 40.9597L63.8858 40.9616Z" fill="#7BE0FA"/>
<path d="M64.9992 37.7694L65.0283 37.773L65.0757 37.8564C65.0238 38.4516 65.001 39.1985 64.9901 39.8026C64.9418 39.9624 64.9145 39.9723 64.7852 40.0917C64.9545 39.3798 64.8425 38.633 64.9382 37.9354L64.9974 37.7676L64.9992 37.7694Z" fill="#1886E6"/>
<path d="M66.8195 35.4029C67.0886 35.1726 67.6441 35.1887 68.0014 35.2029C70.4024 35.2984 73.0671 35.0467 75.4363 35.2074C75.5809 35.2181 75.7236 35.2395 75.8645 35.2699C76.2227 35.884 77.031 38.6206 77.2764 39.4471C77.2783 39.5792 77.2819 39.573 77.2128 39.6846L77.2374 39.8006L77.1601 39.6855L77.0801 39.6944C76.7255 38.7161 76.17 36.6052 75.6518 35.6885C75.4545 35.3386 73.6153 35.4252 73.0362 35.4279L69.2078 35.4448C68.5605 35.4466 67.5086 35.4707 66.8832 35.4073L66.8186 35.4002L66.8195 35.4029Z" fill="white"/>
<path d="M64.3767 35.7339C64.9042 36.0239 65.3083 36.2088 65.5822 36.7814C65.7732 37.1804 65.5774 37.7351 65.208 37.9735L65.1579 37.8862L65.127 37.8825L65.0643 38.058C64.613 37.9275 64.4066 37.6187 64.0816 37.2752L63.9012 37.2404C63.5589 36.8209 63.4605 36.0446 64.0247 35.84C64.1202 35.8052 64.2176 35.7724 64.314 35.7414L64.3777 35.7358L64.3767 35.7339Z" fill="#005DFB"/>
<path d="M65.0382 38.0526C64.961 37.8339 64.8673 37.5507 64.7686 37.345C64.6358 37.0667 64.247 36.6096 64.204 36.3145C64.8057 36.5311 65.1242 37.4464 65.0695 38.0575L65.0382 38.0536V38.0526Z" fill="#0725BA"/>
<path d="M62.5167 29.3826C62.6688 29.2227 62.704 29.1794 62.8979 29.0638C63.09 29.0252 63.1622 29.084 63.3324 29.1745C63.1232 29.7833 62.7877 30.3574 62.5947 30.9912C62.4569 31.4439 62.55 31.2474 62.5595 31.6664C61.9816 30.9883 62.1156 30.1262 62.5177 29.3816L62.5167 29.3826Z" fill="#005DFB"/>
<path d="M62.7532 31.6674L62.8788 31.7115C63.1309 32.6296 63.4578 33.1642 63.8346 34.0279C64.0171 34.4452 64.1579 34.9919 64.2728 35.4364C64.8597 34.358 65.7941 34.2201 66.1183 33.378L66.2377 33.5196C65.7959 34.2061 65.2125 34.4865 64.6825 35.0707C64.5836 35.1795 64.3654 35.5724 64.2719 35.7281L64.2131 35.7337C64.0911 35.262 63.9405 34.6365 63.7606 34.1939C63.3919 33.2851 62.9403 32.6559 62.7515 31.6665L62.7532 31.6674Z" fill="#1886E6"/>
<path d="M63.2914 29.3418L63.4514 29.563L63.4097 29.6184C63.5745 29.8762 63.6201 29.8574 63.623 30.118C63.5513 30.194 63.4863 30.2662 63.4078 30.3365C63.2352 30.6477 63.2827 30.7246 62.8833 30.6552C62.8164 31.0368 62.607 31.5852 62.6777 31.8664L62.7214 31.9564L62.5847 31.9124L62.5013 31.768C62.4916 31.3593 62.3966 31.5514 62.5372 31.1108C62.734 30.494 63.0772 29.9352 63.2895 29.3427L63.2914 29.3418Z" fill="#0042D0"/>
<path d="M63.0419 30.769C63.1363 30.3694 63.2726 29.9728 63.4554 29.6328C63.5848 29.9153 63.6206 29.8948 63.6229 30.1804C63.5665 30.2636 63.5155 30.3427 63.4538 30.4197C63.3183 30.7608 63.3556 30.845 63.0419 30.769Z" fill="#005DFB"/>
<path d="M63.4249 30.2144C63.5161 30.3105 63.6336 30.3844 63.6222 30.5214C63.5801 31.0279 63.1495 31.407 62.7645 31.6669C62.7005 31.3999 62.8899 30.8783 62.9504 30.517C63.3118 30.5828 63.2697 30.5099 63.4249 30.2144Z" fill="#005DFB"/>
<path d="M65.0578 40.0212C65.3044 39.7627 65.3201 39.7911 65.6501 39.8169C65.7131 40.8367 65.3118 40.4041 64.9632 40.9628H64.8928L64.7853 40.6981C64.7834 40.524 64.8038 40.4787 64.8502 40.3072C64.9809 40.1891 65.0087 40.1793 65.0587 40.0212H65.0578Z" fill="#005DFB"/>
<path d="M65.0599 40.0149C65.3083 39.7638 65.3242 39.7914 65.6567 39.8164C65.4699 40.1719 65.1159 40.4307 64.7853 40.6723C64.7834 40.5032 64.804 40.4592 64.8507 40.2927C64.9823 40.1779 65.0104 40.1684 65.0608 40.0149H65.0599Z" fill="#0042D0"/>
<path d="M77.4918 39.5107C77.6823 40.0823 77.9236 40.8904 78.1489 41.4324L77.9355 41.5444C77.6823 40.9602 77.462 40.3636 77.2773 39.7589L77.3647 39.7499L77.4491 39.8655L77.4223 39.749C77.4977 39.6371 77.4937 39.6433 77.4918 39.5107Z" fill="#CFD5D7"/>
<path d="M103.841 18.6047H103.898C104.894 18.5883 105.673 18.6541 106.434 19.3781C107.48 20.3745 107.436 22.0593 106.42 23.0575C105.484 23.979 104.281 23.8154 103.078 23.8062C103.019 23.809 102.96 23.8108 102.901 23.8117C101.92 23.8309 101.195 23.8611 100.428 23.1389C99.3782 22.1498 99.4078 20.3526 100.389 19.3351C101.238 18.4539 102.706 18.602 103.841 18.6047Z" fill="#7BE0FA"/>
<path d="M28.6676 8.14359C28.7056 8.14178 28.7426 8.13998 28.7806 8.13908C29.2425 8.12287 29.5127 8.14359 29.8481 8.49671C30.5341 9.28042 31.2626 10.0939 31.8836 10.9325C33.2782 12.8152 32.2795 13.3611 30.4247 13.3512C29.6781 13.3449 28.2328 13.444 27.5938 13.1828C25.1814 12.1991 27.0388 8.74083 28.6676 8.14449V8.14359Z" fill="#CDF6FB"/>
<path d="M18.078 29.0895C18.4628 29.068 19.5348 28.9719 19.7969 29.2061C20.5482 29.877 20.3805 32.7153 20.0937 33.5932C20.0507 33.7257 17.9278 33.8797 17.6401 33.9263C17.2195 34.0234 16.4078 34.0383 16.0468 33.7705C15.7664 33.5615 15.5355 33.1864 15.497 32.7974C15.4017 31.8373 15.2533 30.5833 15.7252 29.7034C15.9945 29.3274 17.6098 29.1268 18.078 29.0895Z" fill="#7BE0FA"/>
<path d="M96.3221 22.9841C97.3752 22.7385 97.574 23.9415 97.5722 24.747C97.5713 25.4025 97.7307 26.5024 97.4262 27.0707C97.0841 27.336 95.3862 27.5227 94.8337 27.5986C93.2997 27.6399 93.8011 26.6984 93.6014 25.47C93.511 24.9083 93.502 23.9415 93.7994 23.4605C94.471 22.9701 95.4391 23.1229 96.3221 22.9841Z" fill="#7BE0FA"/>
<path d="M109.548 25.8683C110.464 25.8155 111.23 25.9184 111.8 26.7706C112.097 27.2161 112.205 27.7691 112.099 28.3008C111.921 29.2327 111.246 29.9182 110.522 30.4332C110.142 30.5481 109.737 30.5249 109.373 30.3675C107.612 29.6218 107.608 26.7094 109.548 25.8683Z" fill="#CDF6FB"/>
<path d="M16.6154 36.6114C18.3856 36.4939 18.3957 37.9104 17.0806 38.6328C15.552 38.7467 15.1161 36.9841 16.6154 36.6114Z" fill="#CDF6FB"/>
<ellipse cx="83.8137" cy="29.6323" rx="0.145258" ry="0.290516" fill="#010102"/>
<ellipse cx="82.9424" cy="29.6323" rx="0.145258" ry="0.290516" fill="#010102"/>
<path d="M83.8712 29.0645L83.793 29.0679C83.775 29.0706 83.7472 29.0767 83.7226 29.0995C83.6537 29.1987 83.6393 29.2301 83.7463 29.2035C83.7658 29.1986 83.8547 29.198 84.0181 29.2214C84.1027 29.2335 84.19 29.2496 84.2393 29.2621C84.3261 29.2842 84.3689 29.3157 84.4037 29.3237C84.4574 29.3362 84.541 29.3578 84.54 29.3247C84.5385 29.2728 84.5208 29.2002 84.431 29.1258C84.3792 29.0829 84.3248 29.0485 84.1894 29.052C84.1036 29.0542 83.9523 29.0609 83.8741 29.0643L83.8712 29.0645Z" fill="#993830"/>
<defs>
<linearGradient id="paint0_linear_4753_49661" x1="43.6147" y1="29.7291" x2="36.0191" y2="57.5963" gradientUnits="userSpaceOnUse">
<stop stop-color="#004CDE"/>
<stop offset="1" stop-color="#0064FF"/>
</linearGradient>
<linearGradient id="paint1_linear_4753_49661" x1="77.2285" y1="29.842" x2="60.7245" y2="13.3712" gradientUnits="userSpaceOnUse">
<stop stop-color="#FFB900"/>
<stop offset="1" stop-color="#FDDD35"/>
</linearGradient>
</defs>
</svg>
