<svg width="90" height="82" viewBox="0 0 90 82" fill="none" xmlns="http://www.w3.org/2000/svg">
<path d="M14.462 71.8025C13.1238 71.5822 9.4813 69.1049 8.37271 68.1209C7.76011 67.5811 7.21011 66.9765 6.73132 66.3168C3.1011 61.2521 6.20588 54.6207 8.80485 49.8265C10.31 47.0505 12.2313 44.5427 12.785 41.3555C13.3435 38.4596 13.087 35.3092 12.4167 32.4574C10.9336 26.1504 7.72082 20.0955 12.1662 14.2193C13.1177 12.9378 14.2717 11.8179 15.5816 10.9024C18.8644 8.59278 22.8077 8.00895 26.7166 8.77148C31.2835 9.66251 35.789 10.7298 40.4824 9.96972C45.8842 9.09582 49.8581 5.77157 55.3102 4.87809C61.0852 3.93197 67.0062 5.67978 70.4904 10.5878C73.7007 15.0222 73.0881 20.3109 73.217 25.4662C73.2894 28.0989 73.7302 31.7365 74.5576 34.2113C75.1665 36.0179 76.0885 37.7045 77.2831 39.194C78.7305 40.9736 80.4296 42.3653 82.0341 43.9576C85.1868 47.086 87.1204 50.9231 86.2733 55.4297C85.4851 59.623 82.9095 63.7085 79.8685 66.6582C79.3468 67.165 78.6102 67.9226 78.0307 68.3216C77.9828 68.3546 69.5242 73.3116 69.4738 73.3434C70.7015 73.4891 75.5029 73.3434 77.9153 73.0522C78.5058 73.3349 79.1921 72.7939 79.6156 73.4891C79.5628 74.434 76.3279 74.1256 75.5029 74.1097C74.565 74.1072 67.7158 74.1709 67.377 74.0093C66.2242 74.1354 61.9789 74.1329 60.8703 73.9836C58.8643 74.3263 51.2393 73.7731 50.1454 74.3312L50.1552 74.0938C49.6359 74.303 49.0687 74.5491 48.5347 74.702C48.31 74.7657 48.2192 74.8098 47.9847 74.773C47.7429 74.6249 47.641 74.2161 47.5342 73.9285C47.5243 73.9322 47.5145 73.9346 47.5047 73.9383C46.7472 74.2345 39.8588 74.2161 38.9405 73.9787C38.7354 74.1452 38.6372 74.0338 38.4273 73.9395L36.8264 72.9861C36.6816 73.1599 36.0775 73.9248 35.929 73.9934C35.724 74.0203 35.794 74.0032 35.6196 74.199C34.9923 73.8894 31.3596 74.2957 30.2829 74.0044C29.7415 74.1121 24.465 74.1023 24.0353 73.9444C23.791 74.0362 23.5688 74.0876 23.3049 74.0889C20.2578 74.0999 17.2095 74.1158 14.1636 74.1366C13.6308 74.1403 12.9482 74.1819 12.6217 73.6923C12.8574 73.1207 13.9549 73.1562 14.4558 73.2003L14.4644 71.8025H14.462Z" fill="#E4F4FC"/>
<path d="M27.6542 24.7876H63.4678L63.4715 46.505C63.4727 49.9929 63.5424 53.6914 63.4666 57.1573L63.4605 57.2308V58.8185C63.4507 63.2926 63.3957 67.8585 63.4446 72.3253C63.771 72.324 64.1145 72.3277 64.4385 72.3142C65.1659 72.2983 66.7685 72.1513 67.2697 72.6058C67.3993 72.7259 67.4751 72.8925 67.48 73.0689C67.491 73.4413 67.3443 73.701 67.1634 74.0098C66.0155 74.136 61.7882 74.1335 60.6843 73.984C58.6867 74.3271 51.0939 73.7733 50.0047 74.332L50.0145 74.0943C49.4974 74.3038 48.9326 74.55 48.4008 74.7032C48.1771 74.7669 48.0867 74.811 47.8532 74.7742C47.6123 74.626 47.5109 74.2168 47.4045 73.9289C47.3947 73.9326 47.385 73.935 47.3752 73.9387C46.6209 74.2352 39.7616 74.2168 38.8472 73.9791C38.643 74.1458 38.5452 74.0343 38.3362 73.9399L36.7421 72.9856C36.5978 73.1596 35.9964 73.9252 35.8485 73.9938C35.6443 74.0208 35.714 74.0036 35.5404 74.1997C34.9157 73.8897 31.2984 74.2965 30.2263 74.0049C29.6872 74.1127 24.433 74.1029 24.0051 73.9448C22.7472 71.9112 25.4904 72.2897 26.6383 72.3081L27.7141 72.302C27.6237 67.883 27.6909 63.246 27.6848 58.8111C27.6762 58.2782 27.6872 57.722 27.6897 57.1867L27.675 57.1009L27.653 24.7888L27.6542 24.7876Z" fill="#E4F4FC"/>
<path d="M47.685 57.3728L57.7652 57.3631C59.5956 57.3631 61.6357 57.4046 63.4464 57.3447V58.9281C63.4365 63.3899 63.3813 67.9433 63.4304 72.3978C63.758 72.3966 64.1027 72.4002 64.4278 72.3868C65.1577 72.3709 66.766 72.2243 67.2689 72.6776C67.399 72.7973 67.475 72.9634 67.4799 73.1394C67.491 73.5108 67.3438 73.7698 67.1622 74.0777C66.0103 74.2035 61.7681 74.2011 60.6604 74.052C58.6559 74.3941 51.0365 73.8419 49.9434 74.399L49.9532 74.162L50.1311 74.0019C50.152 73.7832 49.6932 72.5859 49.5791 72.2781C48.2542 68.6849 47.4887 65.0527 46.5526 61.3594C46.506 61.1883 47.166 59.3252 47.2789 58.9269L47.6837 57.3716L47.685 57.3728Z" fill="#E4F4FC"/>
<path d="M47.7331 57.3711L57.8837 57.3619C59.7268 57.3619 61.7812 57.4009 63.6045 57.3447V58.8306C61.5242 58.9487 58.2617 58.8696 56.1148 58.8639C53.3946 58.8581 49.974 58.9556 47.3254 58.8306L47.7331 57.3711Z" fill="#FECB00"/>
<path d="M60.5005 74.2753C59.0262 72.0596 62.1921 72.4793 63.3348 72.5157C63.6701 72.5144 64.023 72.5183 64.3558 72.504C65.103 72.4871 66.7493 72.3312 67.2642 72.8133C67.3973 72.9407 67.4752 73.1174 67.4802 73.3046C67.4915 73.6996 67.3408 73.9751 67.1549 74.3026C65.9758 74.4365 61.6332 74.4339 60.4992 74.2753H60.5005Z" fill="#FECB00"/>
<path d="M27.6739 57.3447C28.435 57.4552 29.8524 57.4098 30.6658 57.4086L36.3328 57.4024C37.1426 57.4024 38.6196 57.3595 39.3685 57.4282C39.5061 57.8359 39.735 58.5899 39.8921 58.9632C40.3865 60.427 40.8723 61.5555 41.5116 62.9554C40.4632 66.1506 38.8181 68.7318 37.2071 71.6336C37.0098 71.9885 36.2914 72.8026 36.3048 73.0015C36.4254 73.0666 36.5605 73.1526 36.6908 73.1821C36.5471 73.3564 35.948 74.1239 35.8007 74.1927C35.5973 74.2197 35.6668 74.2025 35.4938 74.399C34.8716 74.0883 31.2685 74.496 30.2006 74.2037C29.6636 74.3118 24.4301 74.302 24.0039 74.1436C22.7509 72.1051 25.4833 72.4846 26.6267 72.503L27.6983 72.4968C27.6082 68.0675 27.6752 63.4196 27.6691 58.9743C27.6605 58.4401 27.6715 57.8826 27.6739 57.346V57.3447Z" fill="#E4F4FC"/>
<path d="M27.5675 57.3447C28.3395 57.4456 29.7772 57.4041 30.6023 57.403L36.3508 57.3974C37.1722 57.3974 38.6705 57.3582 39.4301 57.421C39.5697 57.7932 39.8019 58.4816 39.9612 58.8224C38.7013 58.9367 35.9605 58.8852 34.5586 58.8728C32.4156 58.8549 29.6463 58.9569 27.5613 58.8313C27.5527 58.3437 27.5638 57.8347 27.5663 57.3447H27.5675Z" fill="#FECB00"/>
<path d="M26.6233 72.5018L27.6936 72.4952C28.3869 72.4952 30.6577 72.218 30.6589 73.37C30.6589 73.659 30.3889 74.1174 30.193 74.3224C29.6567 74.438 24.4292 74.4274 24.0035 74.258C22.752 72.0775 25.4812 72.4834 26.6233 72.5031V72.5018Z" fill="#FECB00"/>
<path d="M43.9868 50.7576C44.6833 50.8043 47.5468 50.9506 48.0805 51.1658C48.2358 53.5242 47.9782 55.269 47.5788 57.5807L47.172 59.1459C47.0586 59.5468 46.3955 61.4219 46.4423 61.5941C47.3828 65.3112 48.152 68.9668 49.4833 72.5831C49.5979 72.8929 50.059 74.0979 50.038 74.318L49.8593 74.4791C49.3378 74.6894 48.7684 74.9365 48.2321 75.0902C48.0066 75.1542 47.9153 75.1984 47.6799 75.1615C47.4371 75.0128 47.3348 74.6021 47.2275 74.3131C47.2177 74.3168 47.2078 74.3193 47.1979 74.323C46.4374 74.6205 39.5208 74.6021 38.5988 74.3635C38.393 74.5308 38.2943 74.4189 38.0836 74.3242L36.4762 73.3663C36.3443 73.3356 36.2074 73.2507 36.0854 73.1856C36.0718 72.9864 36.7991 72.1724 36.9988 71.8158C38.6296 68.9102 40.295 66.3256 41.3563 63.1262C40.7091 61.7244 40.2173 60.5944 39.7168 59.1287C39.5578 58.7549 39.3261 57.9999 39.1868 57.5917C38.7245 55.8125 38.5643 54.5657 38.87 52.7323L38.9131 52.3315C39.654 52.5897 40.6722 52.977 41.4278 53.0311L41.5917 53.041L42.1526 52.8971C43.8685 53.0114 43.8303 52.1065 43.9893 50.7563L43.9868 50.7576Z" fill="#005AA8"/>
<path d="M46.3832 61.6101C47.3392 65.3228 48.121 68.974 49.4742 72.586C49.5907 72.8955 50.0593 74.099 50.038 74.3189L49.8563 74.4798C49.3263 74.6898 48.7475 74.9366 48.2024 75.0901C47.9731 75.154 47.8804 75.1982 47.6411 75.1614C47.3943 75.0128 47.2903 74.6026 47.1813 74.314C46.0624 72.107 44.525 68.9986 43.8372 66.7179C45.0625 65.0771 45.5575 63.2386 46.3844 61.6089L46.3832 61.6101Z" fill="#072445"/>
<path d="M38.7983 74.2213C38.9701 73.8819 40.5194 71.8675 40.8385 71.4369C41.998 69.897 42.8833 68.3326 43.8809 66.6831C44.5508 68.942 46.0452 72.0204 47.1317 74.2063C47.1219 74.2099 47.1122 74.2124 47.1024 74.216C46.3509 74.5104 39.7106 74.4573 38.7996 74.2213H38.7983Z" fill="#E4F4FC"/>
<path d="M38.9476 52.6951C39.9234 54.4085 40.0958 54.2575 41.464 55.3779C42.7915 56.4649 42.1976 59.8225 41.8424 61.297C41.7691 61.6003 41.4477 62.8977 41.2951 63.159C40.6838 61.7476 40.2192 60.6098 39.7464 59.1341C39.5962 58.7577 39.3773 57.9976 39.2457 57.5866C38.809 55.7951 38.6577 54.5398 38.9464 52.6938L38.9476 52.6951Z" fill="#072445"/>
<path d="M47.3459 39.1279L47.8117 39.314C48.2024 39.4372 49.1122 39.739 49.2347 40.1653C50.1178 43.2206 49.908 46.9191 50.6152 50.0914C50.8299 51.0549 51.6755 54.5155 51.5821 55.0169C51.1053 55.1364 50.6043 55.4235 50.2161 55.4063C50.1579 55.373 50.0887 55.3323 50.005 55.2843C49.4446 54.1176 48.7871 52.5185 48.2933 51.3629L48.1611 51.1596L47.9973 51.1633C47.4721 50.9477 44.654 50.8011 43.9686 50.7542C43.8134 52.107 43.8498 53.0137 42.1611 52.8991L41.6092 53.0433L41.4478 53.0334C40.7042 52.9805 39.7022 52.5911 38.9731 52.3324C37.9675 51.6893 36.7556 51.4836 35.6978 50.5694C35.7948 49.5284 36.1988 48.464 36.6124 47.5166L36.3492 47.2492C36.2946 47.1876 36.2691 47.0903 36.2376 47.0078C36.4244 45.6119 37.6909 43.6925 38.5849 42.6182C38.9962 42.1241 39.5081 41.7016 39.8368 41.1398C40.0467 40.663 40.1389 40.4622 40.4288 40.0187L40.8546 40.185C41.0208 40.2601 41.1288 40.3427 41.2877 40.3242C41.54 40.4141 41.6067 40.3895 41.7463 40.5805C41.665 41.1558 41.4563 41.088 41.6735 41.4441L41.9209 41.5759L42.0665 41.5217L42.2145 40.7086C43.1365 40.5238 44.0123 40.2885 43.4616 41.6806C43.2942 42.1044 43.1437 42.2239 43.6448 42.3447C43.8898 42.1833 43.8413 42.0354 43.9553 41.9061C43.9298 41.635 43.9735 41.5537 44.0633 41.3061C44.2574 41.2272 44.9537 40.4104 45.2667 40.1973C45.9666 39.7193 46.5744 39.4507 47.3459 39.1292V39.1279Z" fill="#FEBE01"/>
<path d="M36.6151 47.2688C37.648 47.6941 41.0216 49.2888 41.8173 48.9883C41.911 48.8998 42.0119 48.8223 42.0655 48.7084L42.2869 48.666C42.029 49.8959 41.6506 51.4785 41.4645 52.6939C40.7187 52.6418 39.7138 52.2589 38.9826 52.0044C37.974 51.3719 36.7586 51.1695 35.6978 50.2704C35.7951 49.2464 36.2002 48.1994 36.6151 47.2676V47.2688Z" fill="#FECB00"/>
<path d="M40.0094 49.2072L40.7364 49.4284C40.4535 49.7943 40.2494 50.1135 40.0584 50.533C39.9068 50.8647 39.8435 51.3538 39.5367 51.5316C39.2252 51.5111 38.4672 51.1406 38.1079 50.9947C38.0793 50.9844 38.0483 50.9411 38.0232 50.9138C38.3312 50.8533 39.1703 51.29 39.4556 51.4416C39.7814 50.8362 39.8495 50.1579 40.3819 49.7122C40.475 49.6347 40.4427 49.6609 40.475 49.5367C40.321 49.4295 40.2947 49.4272 40.1085 49.3679L40.056 49.352L40.0106 49.2061L40.0094 49.2072Z" fill="#201C02"/>
<path d="M36.8604 48.4302C37.9077 48.8076 38.8584 49.2076 39.9576 49.4524L39.9611 49.5711C39.4922 49.7454 37.4635 48.8269 36.9452 48.582L36.8615 48.4312L36.8604 48.4302Z" fill="#201C02"/>
<path d="M36.8605 48.6363C36.7329 48.8105 36.6828 49.2402 36.5505 49.5814L36.4837 49.593C36.4503 49.0137 36.4802 48.8758 36.7758 48.4302L36.8605 48.6349V48.6363Z" fill="#FEBE01"/>
<path d="M47.2255 46.1235C46.9684 45.2385 46.8393 44.4512 46.7407 43.5316L46.7794 43.4721L46.7465 43.3929C46.7524 43.3583 46.9942 44.4191 47.0025 44.5428C47.0835 45.7423 48.6438 50.1625 48.4759 51.144L48.3479 50.9398C47.9898 49.4693 47.5578 47.6893 47.3242 46.204C46.7841 47.0184 45.3835 48.7006 44.6133 49.1858C44.6039 49.0002 44.6849 48.9556 44.8105 48.7749C45.5901 48.2315 46.588 46.9095 47.2244 46.126L47.2255 46.1235Z" fill="#3E3005"/>
<path d="M43.9256 51.0383L43.8683 51.0802L43.871 51.1659C44.4436 49.1039 44.7101 45.8887 45.0022 43.3052L45.0494 43.5415C44.117 51.0482 45.1702 46.276 43.9256 51.0383Z" fill="#3E3005"/>
<path d="M42.312 48.932C42.651 47.4622 43.303 44.2373 44.4409 43.1101C44.576 42.9755 44.7325 43.0079 44.9103 43.0092L45.0003 43.1013C44.7739 43.2982 44.5108 43.0627 44.1931 43.612C42.5764 46.4072 42.5207 50.0817 41.6696 53.0824L41.512 53.0724C41.6933 51.8231 42.0619 50.1963 42.3132 48.932H42.312Z" fill="#3E3005"/>
<path d="M47.6334 39.1279L48.1008 39.3097C46.4136 39.9814 45.4153 40.4316 44.2321 41.8411C44.2065 41.5763 44.2503 41.4968 44.3404 41.2549C44.5352 41.1779 45.234 40.3798 45.548 40.1716C46.2504 39.7045 46.8603 39.4421 47.6346 39.1279H47.6334Z" fill="#C47C05"/>
<path d="M36.4729 47.2676C38.0697 47.9315 39.815 48.5327 41.4625 49.0885C41.689 49.1652 42.0381 48.9978 42.2336 48.8827L42.2869 48.9013C42.2324 49.0106 42.1297 49.085 42.0343 49.1699C41.2248 49.4571 37.7912 47.928 36.7415 47.5199L36.4729 47.2676Z" fill="#3E3005"/>
<path d="M40.6373 39.9036L41.1237 40.0735C40.9519 40.3906 40.7565 40.7757 40.5472 41.0651L39.9609 41.0475C40.2007 40.5605 40.306 40.3554 40.6373 39.9023V39.9036Z" fill="#FECB00"/>
<path d="M40.7658 39.9023C40.9032 39.9918 40.9925 40.09 41.1238 40.068C40.9082 40.4845 40.9674 40.8041 40.7227 41.0651L40.3486 41.0578C40.5001 40.7191 40.6415 40.2719 40.7658 39.9023Z" fill="#87660D"/>
<path d="M40.374 39.8908C39.6357 39.455 38.7605 38.6751 38.7996 37.7244C38.8558 36.3849 40.2139 35.6966 40.7933 34.6579C41.545 33.3086 41.7492 31.6559 42.9935 30.6123C44.2012 29.5316 46.4455 29.5415 47.548 30.7893C48.004 31.3055 47.9783 31.6992 47.9184 32.369C48.2484 33.1612 48.1861 35.8761 47.2632 36.3205C47.1703 36.3205 47.0224 36.3292 46.9344 36.3193C46.5665 36.5792 46.5102 36.9841 46.4039 37.4186C46.4797 38.0598 46.7241 38.706 47.3427 38.9982C46.5652 39.3213 45.9528 39.5912 45.2475 40.0715C44.9322 40.2857 44.2305 41.1064 44.035 41.1857C43.9445 41.4345 43.9005 41.5162 43.9262 41.7886C43.8113 41.9185 43.8602 42.0671 43.6133 42.2293C43.1084 42.108 43.26 41.9879 43.4287 41.562C43.9836 40.1631 43.1023 40.4008 42.1721 40.5853L42.023 41.4023L41.8763 41.4568L41.6269 41.3243C41.4081 40.9666 41.6184 41.0346 41.7003 40.4565C41.5597 40.2646 41.4925 40.2894 41.2382 40.199C41.0781 40.2176 40.9693 40.1347 40.8018 40.0591L40.3728 39.892L40.374 39.8908Z" fill="#072445"/>
<path d="M45.9761 37.1899C46.2392 37.2097 46.5425 37.2085 46.7776 37.3097C46.8532 37.9491 47.0968 38.5934 47.7131 38.8848C46.9384 39.2069 46.3282 39.476 45.6253 39.955C45.3111 40.1685 44.6119 40.9869 44.417 41.0659C44.6253 40.2117 44.5948 40.0093 43.8372 39.5526C44.9639 38.9304 45.3914 38.27 45.9749 37.1899H45.9761Z" fill="#FEBE01"/>
<path d="M47.9294 32.5391C48.2398 33.3155 48.1812 35.9761 47.3132 36.4116C47.2259 36.4116 47.0868 36.4201 47.004 36.4104C47.0259 36.1981 46.6982 35.3403 46.604 35.1305C46.5936 34.5845 45.8901 34.1842 46.281 33.5181C46.8914 33.0607 47.1971 33.9355 47.9294 32.5391Z" fill="#FE9B87"/>
<path d="M45.7762 37.4609C46.0518 36.7296 46.3156 35.9935 46.5667 35.2515C46.654 35.4585 46.9572 36.3047 46.937 36.5142C46.6167 36.7655 46.5678 37.1569 46.4752 37.577C46.2699 37.4777 46.005 37.4789 45.7751 37.4609H45.7762Z" fill="#FB8870"/>
<path d="M51.76 55.019C51.998 55.5258 52.4362 56.1269 52.3545 56.6459C52.1828 56.9434 51.4319 57.4906 51.0767 57.3082C50.4976 57.012 50.719 55.7291 50.4265 55.4059C50.8055 55.423 51.2958 55.1378 51.76 55.019Z" fill="#FE9B87"/>
<path d="M26.672 12.8213C29.6043 12.7378 32.566 12.793 35.5032 12.7942H50.4711L59.1515 12.7906C60.5509 12.7881 62.8656 12.723 64.1853 12.852C64.2797 14.1757 64.2343 15.7733 64.2319 17.1277L64.2221 24.0424L64.2196 44.3112C68.876 44.294 73.6856 44.2547 78.3334 44.3247L78.3187 45.5477L77.4254 45.5686C77.5075 51.8938 77.4205 58.2228 77.4707 64.5468C77.4928 67.2913 77.3543 70.3096 77.483 73.0259C77.483 73.3316 77.4989 73.7025 77.4364 73.9935C77.2085 74.1249 76.9119 74.0512 76.7159 73.8977C76.4169 73.3316 76.586 71.8028 76.5787 71.0857C76.5541 68.6543 76.6081 66.2193 76.5615 63.7879C76.6338 61.8526 76.5725 59.5134 76.5725 57.5437L76.5701 45.5256C72.4614 45.5514 68.3528 45.5563 64.2429 45.5379C64.1988 49.2132 64.1388 53.71 64.2944 57.3534C63.9917 57.3362 63.6903 57.362 63.3876 57.3792C63.4636 53.9052 63.3937 50.198 63.3925 46.702L63.3888 24.9339H27.4906L27.5126 57.3214L27.5273 57.4074C27.5237 57.944 27.5139 58.5015 27.5224 59.0357C27.5286 63.4821 27.4612 68.13 27.5518 72.558L26.4735 72.5642C25.3229 72.5457 22.5744 72.1663 23.8341 74.2047C23.5903 74.2968 23.3685 74.3484 23.105 74.3496C20.0637 74.3607 17.0211 74.3766 13.981 74.3975C13.4491 74.4012 12.7678 74.4429 12.4419 73.9518C12.6772 73.3783 13.7726 73.4139 14.2726 73.4581L14.2812 72.0558L14.2836 54.033C14.2836 51.2356 14.3535 48.307 14.3118 45.5281L13.5484 45.5477L13.519 44.3112C17.8163 44.2952 22.3759 44.3996 26.6353 44.2989L26.6757 12.8176L26.672 12.8213Z" fill="#005AA8"/>
<path d="M15.1658 45.358C18.8851 45.2873 22.8864 45.3715 26.629 45.3654V53.1869C26.629 54.0843 26.6805 56.3228 26.553 57.1093C26.8521 57.0678 27.2125 57.0654 27.519 57.0544L27.5337 57.1397C27.53 57.6726 27.5202 58.2261 27.5288 58.7565C27.5349 63.1714 27.4675 67.7863 27.5582 72.183L26.4794 72.189C25.3283 72.1708 22.5787 71.794 23.8389 73.818C23.5949 73.9094 23.373 73.9606 23.1095 73.9619C20.0668 73.9728 17.023 73.9887 13.9816 74.0094C13.4496 74.0131 12.768 74.0545 12.4419 73.5668C12.6773 72.9974 13.7732 73.0328 14.2734 73.0767L14.2709 73.4168C14.5075 73.757 14.7588 73.7851 15.0849 73.5595C15.1523 73.4571 15.1891 73.3766 15.1866 73.2522C15.14 70.7247 15.1499 68.185 15.1474 65.6575L15.1682 45.358H15.1658Z" fill="#E4F4FC"/>
<path d="M26.475 57.0123C26.7974 56.9709 27.1859 56.9685 27.5163 56.9575L27.5321 57.0428C27.5282 57.5749 27.5176 58.5154 27.5268 59.0451C27.5334 63.4547 27.4608 68.064 27.5585 72.4553L26.3958 72.4614C26.512 69.0321 26.3535 65.4458 26.4156 62.0056C26.442 60.5698 26.3416 58.4055 26.4777 57.0111L26.475 57.0123Z" fill="#072445"/>
<path d="M32.2457 15.9021C33.587 15.8753 35.9231 15.5968 36.0786 17.4841C36.1202 17.9827 35.9574 18.4777 35.627 18.8546C35.2036 19.3471 34.8144 19.4383 34.1988 19.4906H34.1107C33.7032 19.4882 33.6995 19.4602 33.4829 19.6718C33.3446 20.0573 33.4413 20.8113 33.4474 21.2989L32.209 21.288C32.3191 19.7752 32.2139 17.5121 32.2457 15.9008V15.9021Z" fill="white"/>
<path d="M33.3761 17.0385C34.3134 17.0166 35.3029 17.0462 34.7756 18.3303C34.2929 18.6282 33.9226 18.5832 33.3723 18.5819L33.3761 17.0385Z" fill="#005AA8"/>
<path d="M43.4004 17.4371C44.5469 17.3049 45.5889 18.1094 45.7537 19.2515C45.9173 20.3935 45.1434 21.4588 44.007 21.6552C43.2419 21.7874 42.4667 21.494 41.9809 20.8884C41.4951 20.2827 41.3768 19.4618 41.6726 18.744C41.9683 18.0263 42.629 17.5265 43.4004 17.4371Z" fill="white"/>
<path d="M43.3389 18.585C44.7507 18.5873 45.0766 19.863 43.8709 20.5185C42.5441 20.6097 42.2543 19.2642 43.3389 18.585Z" fill="#005AA8"/>
<path d="M54.3022 17.4277L55.5492 17.4229C55.9249 18.2934 56.1646 18.9393 56.4699 19.8306C56.6985 19.0687 57.047 18.203 57.33 17.4497L58.5658 17.4631C58.0616 18.6438 57.5784 19.9051 57.0964 21.1016C56.6379 22.0796 56.109 22.9135 54.9251 23.2212C54.7434 23.2688 54.7027 23.2016 54.5667 23.1015C54.5136 22.9074 54.5655 22.5118 54.6322 22.4495C55.2946 21.8305 55.5208 21.7646 55.9545 20.9502C55.4726 20.0223 54.5976 18.396 54.3022 17.429V17.4277Z" fill="white"/>
<path d="M52.453 16.2684L53.5869 16.2598C53.5004 17.84 53.8323 17.0764 54.2753 17.4958C54.305 17.7795 54.3334 17.8844 54.2275 18.1595C53.977 18.3951 53.9576 18.3408 53.5727 18.4444C53.2783 18.8972 53.441 20.3219 54.0622 20.4182C54.2172 20.4416 54.1681 21.0621 54.1668 21.2336C52.9993 21.3347 52.2541 21.5111 52.342 20.0395C52.3691 19.5855 52.3794 18.8935 52.2812 18.4617C51.6923 18.3322 51.3617 18.0892 51.7711 17.4687C52.0281 17.407 52.1534 17.3947 52.3562 17.2232C52.5292 16.953 52.4672 16.5965 52.4504 16.2672L52.453 16.2684Z" fill="white"/>
<path d="M46.5834 17.4589C46.9367 17.4698 47.2901 17.4103 47.5466 17.584C47.5797 17.7177 47.6093 17.8526 47.6356 17.9887C47.794 17.8392 47.9627 17.7043 48.1406 17.5828C48.356 17.4346 48.4677 17.3908 48.7014 17.4455C49.4003 18.7555 47.7838 18.3192 47.6333 19.3545V21.2988H46.5503C46.5526 20.0192 46.564 18.7397 46.5822 17.4589H46.5834Z" fill="white"/>
<path d="M37.4262 17.4905C37.5626 17.6151 37.5214 17.6708 37.5356 17.9092L37.6073 17.9431C37.8988 17.7495 38.3984 17.3138 38.7075 17.4481C38.8427 17.7603 38.7851 17.8801 38.7922 18.1984C38.8039 18.697 38.2362 18.3582 37.8377 18.7636C37.4944 19.1133 37.5767 19.797 37.5814 20.2992L37.5791 21.2988L36.4823 21.2891C36.4894 20.0342 36.4858 18.7793 36.4729 17.5244L37.4251 17.4881L37.4262 17.4905Z" fill="white"/>
<path d="M49.6662 17.4363L50.8142 17.4229L50.8019 21.2964L49.6516 21.2988C49.6503 20.0117 49.6552 18.7234 49.6662 17.4363Z" fill="white"/>
<path d="M39.6274 17.4241C39.9607 17.4498 40.3724 17.4388 40.7142 17.4388C40.7203 18.176 40.7792 20.6743 40.675 21.2988L39.5735 21.2964C39.5833 20.0056 39.6017 18.7136 39.6262 17.4229L39.6274 17.4241Z" fill="white"/>
<path d="M49.9766 15.5435C50.1673 15.4503 50.3931 15.4683 50.5669 15.5901C50.7407 15.7119 50.8339 15.9184 50.8106 16.1291C50.7873 16.3399 50.6516 16.521 50.4556 16.6025C50.1652 16.7232 49.8324 16.5909 49.7031 16.3049C49.5738 16.019 49.6947 15.6822 49.9776 15.5446L49.9766 15.5435Z" fill="white"/>
<path d="M39.8807 15.5529C40.0659 15.454 40.2915 15.4625 40.4682 15.5763C40.646 15.6902 40.7471 15.8902 40.7354 16.1009C40.7226 16.3105 40.597 16.4978 40.4075 16.5893C40.1223 16.7265 39.7806 16.6116 39.6369 16.3297C39.4932 16.0477 39.6018 15.703 39.8807 15.554V15.5529Z" fill="white"/>
<path d="M63.265 57.3759C63.6097 57.3589 63.9529 57.3333 64.2976 57.3504C64.4092 59.4046 64.3743 61.6489 64.3757 63.7153V72.45C64.0046 72.4634 63.6111 72.4598 63.2399 72.461C63.1841 68.0187 63.2469 63.4777 63.2566 59.0281V57.449L63.265 57.3759Z" fill="#072445"/>
<path d="M52.3274 76.7326C52.3274 76.7326 56.1437 77.0894 56.6276 77.7926L56.5832 77.9442C54.533 79.3773 37.2618 79.1616 33.8256 78.7185C33.2924 78.6497 30.7769 78.4386 30.319 77.964C30.2413 77.8835 30.2758 77.8637 30.2993 77.7436C31.5052 76.7722 36.2374 76.7256 36.2374 76.7256L52.3274 76.7326Z" fill="#E4F4FC"/>
<path d="M48.488 74.9782C49.013 74.8325 49.5705 74.5982 50.0809 74.3989L50.0712 74.625C50.0411 74.956 50.2764 75.5458 50.426 75.8465C50.2124 76.4328 49.9397 76.9234 49.1855 76.6437L49.2097 76.5458C49.0769 76.2195 48.6932 75.1728 48.488 74.9805V74.9782Z" fill="#FE9B87"/>
<path d="M35.7061 74.2703C35.8485 74.1999 36.4276 73.4156 36.5665 73.2358L38.1014 74.215C37.9578 74.3973 37.4164 75.0559 37.3457 75.2244C38.0225 75.5914 38.1061 76.3355 38.4463 77.0897C38.617 77.5359 39.0501 78.3366 38.6005 78.6622C38.0979 78.6345 36.7831 77.4203 36.2628 77.0193C35.6955 76.5354 35.1282 76.1168 34.5349 75.6731C34.8527 75.2684 35.1129 74.9038 35.4071 74.4815C35.5754 74.2804 35.5083 74.298 35.7037 74.2703H35.7061Z" fill="#072445"/>
<path d="M35.6989 74.216C35.8371 74.1493 36.3991 73.4061 36.5339 73.2358L38.0233 74.1636C37.884 74.3363 37.3586 74.9603 37.29 75.1199C36.4813 75.3533 36.1307 74.7876 35.6978 74.216H35.6989Z" fill="#FE9B87"/>
<path d="M50.3569 75.6615C51.0482 74.9769 53.166 75.0485 53.8659 75.668L53.9145 75.8138C53.6982 76.1105 52.714 76.592 52.3434 76.7937C51.3568 77.3364 50.5002 77.7984 49.4833 78.2761C49.2888 77.7217 49.0981 77.2427 48.8757 76.7013L49.1078 76.5517C49.8672 76.8653 50.1418 76.3174 50.3569 75.6615Z" fill="#072445"/>
</svg>
