<svg width="80" height="71" viewBox="0 0 80 71" fill="none" xmlns="http://www.w3.org/2000/svg">
<g clip-path="url(#clip0_4742_46697)">
<path d="M28.2337 28.0196C30.3602 29.5641 33.0688 30.7032 35.618 31.3039C35.8844 31.3664 36.7329 31.4836 36.9157 31.6274C36.7243 31.7493 36.0657 31.5875 35.8446 31.5391C30.1501 30.286 24.6977 26.4579 21.4735 21.6125C19.1094 18.0594 17.7665 13.3907 18.6844 9.14535C19.3165 6.22035 21.1126 3.5227 23.6555 1.92973C26.4844 0.151603 29.086 0.185197 32.2712 0.239884C34.1024 0.271134 34.9618 0.132071 36.8438 0.570352C38.8633 1.02348 40.7493 1.94223 42.3516 3.25238C42.8868 3.68598 43.5297 4.32035 43.9977 4.83676C45.1813 6.15004 46.4477 7.97817 48.4516 7.8102C48.8516 7.7766 49.5227 7.59613 49.8493 7.35317C51.7524 5.93754 53.1743 4.11488 55.1946 2.8102C58.4571 0.703166 62.6282 -0.561678 66.5024 0.246134C69.2454 0.833634 71.5758 2.4891 73.061 4.86176C74.5727 7.27738 75.0001 10.2368 74.3727 13.0086C74.2743 13.4446 73.8563 14.9782 73.5946 15.2243L73.5165 15.2422L73.4821 15.1852C73.5258 15.0071 73.5602 14.9454 73.6391 14.7758C72.4876 14.7391 71.2782 14.7563 70.1212 14.7586C70.1376 14.9797 70.204 15.9032 70.1149 16.0422L70.0633 16.068L70.0055 16.0368C69.9399 15.6883 69.9711 15.0047 69.9602 14.6157C71.2204 14.6227 72.4188 14.6352 73.6797 14.6188C74.0672 13.6922 74.4055 11.9625 74.4305 10.9727L59.0243 10.9696L53.068 10.95C52.0876 10.9493 50.8258 10.9133 49.8735 10.975C49.8735 11.5563 49.8813 12.1571 49.8712 12.736L60.9243 12.7446L63.5547 12.7407C63.8602 12.7407 64.6938 12.7125 64.943 12.7704L64.968 12.8141C64.7657 12.8907 64.2735 12.861 64.0368 12.8625C59.3149 12.8977 54.5696 12.7946 49.8508 12.8688L49.8391 14.5946L61.0376 14.6024C61.4829 14.6032 63.9094 14.5539 64.1438 14.6321L64.1344 14.6719C63.8001 14.8008 59.3571 14.7274 58.6446 14.7305C58.6266 17.4289 58.6219 20.1282 58.6313 22.8266L58.6329 25.3774C58.6313 25.8243 58.6454 26.5141 58.5782 26.9321L53.2813 26.9157C52.4469 26.9157 51.5141 26.9375 50.6883 26.9157C50.6852 26.4946 50.6188 25.1868 50.7719 24.8594C50.9758 24.7211 53.4618 24.7711 53.8641 24.7704L53.8712 14.725C52.5774 14.7172 51.1305 14.6821 49.8399 14.7282L49.8774 19.1899C49.8797 20.0836 49.8047 27.5172 49.9376 27.8407C50.0329 27.8672 50.0493 27.8688 50.1485 27.8782C50.0219 27.8969 49.9024 27.8977 49.8032 27.9719C49.729 27.8594 49.7344 27.7344 49.7344 27.5891C49.7243 25.6157 49.7454 23.6383 49.7422 21.6657L49.6922 12.0516C49.693 10.643 49.7594 9.10629 49.7126 7.71567C48.3688 8.15785 47.6469 8.1516 46.404 7.49848L46.3922 15.8586C46.3227 15.7711 46.3532 13.0829 46.354 12.7719C46.311 12.8258 46.3165 12.8321 46.2618 12.8672C46.2415 13.4305 46.2508 14.0282 46.2508 14.5946C46.0782 14.5883 45.6133 14.5555 45.4774 14.6047C45.7227 14.6125 45.9672 14.6227 46.2118 14.6352L46.2344 14.6758C45.968 14.7172 44.8391 14.7063 44.5094 14.7086L40.9329 14.7297L40.9446 24.7891C41.3407 24.8297 41.8883 24.8008 42.2962 24.8102C43.3813 24.836 44.5883 24.7579 45.6626 24.8172C45.668 25.4789 45.679 26.2352 45.6469 26.8899L37.0657 26.9125C37.0649 26.6219 36.9883 25.025 37.1274 24.8969C37.3399 24.7008 40.3102 24.8047 40.818 24.7774C40.8626 23.7344 40.8313 22.4579 40.8321 21.3899L40.8212 14.7047L33.2462 14.6954L33.2399 27.9774C31.5712 28.0055 29.9032 28.0188 28.2344 28.018L28.2337 28.0196Z" fill="#FFB700"/>
<path d="M46.2111 12.8308L46.2611 12.8675C46.2408 13.4308 46.2502 14.0284 46.2502 14.5948C46.0775 14.5886 45.6127 14.5558 45.4768 14.605C45.7221 14.6128 45.9666 14.6229 46.2111 14.6354L46.2338 14.6761C45.9674 14.7175 44.8385 14.7065 44.5088 14.7089L40.9322 14.73L40.9439 24.7894C41.34 24.83 41.8877 24.8011 42.2955 24.8104C43.3807 24.8362 44.5877 24.7581 45.6619 24.8175C45.6674 25.4792 45.6783 26.2354 45.6463 26.8901L37.065 26.9128C37.0643 26.6222 36.9877 25.0253 37.1268 24.8972C37.3393 24.7011 40.3096 24.805 40.8174 24.7776C40.8619 23.7347 40.8307 22.4581 40.8314 21.3901L40.8205 14.705L33.2455 14.6956L33.1268 14.6933C31.5393 14.7425 29.8955 14.6831 28.2932 14.7128C28.2885 15.387 28.2869 16.062 28.2893 16.7362C28.2908 17.0597 28.3104 17.6206 28.2869 17.9276C28.1807 18.8331 28.3736 24.4698 28.2244 24.7698C28.1604 24.4011 28.2033 22.3769 28.2018 21.8823L28.1721 14.7073C27.2088 14.7315 26.0197 14.7214 25.0596 14.7026C24.7182 14.669 23.8744 14.7558 23.6713 14.6151C23.358 14.5745 22.7518 14.6112 22.4104 14.6003C21.29 14.5659 19.8994 14.6698 18.8072 14.5706C18.6619 13.9831 18.6361 13.4706 18.5869 12.869C21.5385 12.7894 24.7807 12.8495 27.7471 12.8495L46.2135 12.8276L46.2111 12.8308Z" fill="#FBFCFF"/>
<path d="M23.6694 14.618L39.1718 14.5938C41.2757 14.593 43.3694 14.632 45.4765 14.6047C45.7218 14.6125 45.9663 14.6227 46.2108 14.6352L46.2335 14.6758C45.9671 14.7172 44.8382 14.7063 44.5085 14.7086L40.9319 14.7297L40.9437 24.7891C41.3397 24.8297 41.8874 24.8008 42.2952 24.8102C43.3804 24.836 44.5874 24.7578 45.6616 24.8172C45.6671 25.4789 45.678 26.2352 45.646 26.8899L37.0647 26.9125C37.064 26.6219 36.9874 25.025 37.1265 24.8969C37.339 24.7008 40.3093 24.8047 40.8171 24.7774C40.8616 23.7344 40.8304 22.4578 40.8312 21.3899L40.8202 14.7047L33.2452 14.6953L33.1265 14.693C31.539 14.7422 29.8952 14.6828 28.2929 14.7125C28.2882 15.3867 28.2866 16.0617 28.289 16.736C28.2905 17.0594 28.3101 17.6203 28.2866 17.9274C28.1804 18.8328 28.3733 24.4695 28.2241 24.7695C28.1601 24.4008 28.203 22.3766 28.2015 21.882L28.1718 14.707C27.2085 14.7313 26.0194 14.7211 25.0593 14.7024C24.7179 14.6688 23.8741 14.7555 23.671 14.6149L23.6694 14.618Z" fill="#002C6E"/>
<path d="M37.2397 24.9434C38.2788 24.9082 39.396 24.927 40.4413 24.9262L45.5241 24.9309C45.5132 25.2496 45.5647 26.5824 45.46 26.7754L37.1749 26.7832C37.1725 26.484 37.1264 25.0871 37.2389 24.9434H37.2397Z" fill="#FBFCFF"/>
<path d="M28.2923 14.7158C29.8946 14.6861 31.5384 14.7447 33.1259 14.6963C33.0884 19.0846 33.0837 23.4721 33.1134 27.8604H27.9907C27.4962 27.5588 27.129 27.29 26.6743 26.9236C27.6243 26.8408 31.2634 26.9268 32.4392 26.8721C32.4431 26.8721 32.5056 26.8033 32.5079 26.8002L32.361 26.7393C32.3243 26.3486 32.4165 25.1135 32.311 24.8994L32.3501 24.808L28.3095 24.8002L28.3071 20.3072C28.3071 19.6291 28.3384 18.5775 28.2845 17.9307C28.3079 17.6236 28.2884 17.0627 28.2868 16.7393C28.2845 16.065 28.2868 15.39 28.2907 14.7158H28.2923Z" fill="#FBFCFF"/>
<path d="M32.3508 24.8081L32.4555 24.8253C32.5469 25.0214 32.4672 26.4104 32.5094 26.8003L32.3625 26.7394C32.3258 26.3487 32.418 25.1136 32.3125 24.8995L32.3516 24.8081H32.3508Z" fill="#002C6E"/>
<path d="M46.2338 10.9604C46.2674 11.1581 46.2745 12.5487 46.2268 12.7331L18.5557 12.7433C18.5401 12.1573 18.5463 11.5714 18.5752 10.9862L46.2338 10.9604Z" fill="#FBFCFF"/>
<path d="M18.8475 9.24307C20.0146 9.19619 21.3412 9.23057 22.5139 9.24385C23.6506 9.25088 24.7865 9.25166 25.9232 9.24541L39.049 9.22666C41.4279 9.2251 43.8889 9.26182 46.2584 9.21729C46.2701 9.75088 46.2686 10.2853 46.2553 10.8188L46.2123 10.8517L18.5771 10.8313C18.6803 10.3587 18.7443 9.75557 18.8467 9.2415L18.8475 9.24307Z" fill="#FBFCFF"/>
<path d="M25.058 14.7065C26.0174 14.7245 27.2064 14.7347 28.1705 14.7112L28.2002 21.8862C28.2018 22.38 28.1588 24.4042 28.2229 24.7737C28.0822 24.8425 24.7463 24.8159 24.326 24.8245C24.0814 24.605 23.8486 24.4651 23.8096 24.1589C23.8393 23.5229 23.8166 22.7339 23.8182 22.0886L23.8158 18.0487C23.8705 17.137 23.8182 15.7034 23.8236 14.73C24.24 14.7284 24.6408 14.7261 25.058 14.7081V14.7065Z" fill="#FBFCFF"/>
<path d="M18.8022 14.7353C20.2976 14.6517 22.2124 14.7049 23.7413 14.708C23.8687 15.1697 23.6976 17.7845 23.8163 18.0478L23.8187 22.0877C23.8171 22.7338 23.8397 23.522 23.8101 24.158L23.778 24.2134L23.7007 24.1345C23.5718 24.1181 22.8874 23.2392 22.7702 23.0931C20.8077 20.6588 19.4476 17.7947 18.803 14.7345L18.8022 14.7353Z" fill="#FBFCFF"/>
<path d="M23.7403 14.7078C23.8677 15.1695 23.6966 17.7844 23.8153 18.0477L23.8177 22.0875C23.8161 22.7336 23.8388 23.5219 23.8091 24.1578L23.777 24.2133L23.6997 24.1344C23.677 22.0891 23.7145 19.9867 23.7114 17.9352L23.7052 15.9477C23.7044 15.6359 23.6895 14.9938 23.7403 14.707V14.7078Z" fill="#002C6E"/>
<path d="M32.3123 24.8994C32.4178 25.1127 32.3248 26.3486 32.3623 26.7393C32.1889 26.7822 30.9928 26.7666 30.7623 26.7658C29.3365 26.7643 27.91 26.7525 26.4842 26.7307C26.0334 26.465 24.8865 25.3689 24.5107 24.9713C26.2623 24.9369 28.0146 24.9229 29.767 24.9299C30.3357 24.9299 31.8482 24.9705 32.3123 24.8994Z" fill="#FBFCFF"/>
<path d="M46.2562 10.8198L46.3366 10.8737C46.3851 11.1972 46.3562 12.3979 46.3546 12.7722C46.3116 12.8261 46.3171 12.8323 46.2624 12.8675L46.2124 12.8308L46.2272 12.7323C46.2749 12.548 46.2679 11.1573 46.2343 10.9597L46.214 10.8526L46.2569 10.8198H46.2562Z" fill="#002C6E"/>
<path d="M29.2132 0.422944C29.503 0.398725 29.8358 0.391694 30.1288 0.396382C31.7257 0.421382 33.4366 0.299508 35.0218 0.460445C37.9366 0.747164 40.678 1.97685 42.8296 3.96435C44.0554 5.08779 44.964 6.39716 46.2569 7.43935L46.2546 9.11045L35.8632 9.10576L18.8882 9.10966C19.2733 7.41357 20.0843 5.67841 21.2179 4.34716C22.7632 2.52685 24.8491 1.24794 27.1726 0.697164C27.8913 0.533101 28.4882 0.478413 29.2124 0.422944H29.2132Z" fill="#FBFCFF"/>
<path d="M27.628 2.72109C27.6725 2.72734 27.6928 2.72813 27.7334 2.73828C28.0498 2.81875 29.5912 5.21094 29.8545 5.63828C30.76 5.95625 32.2514 6.24219 33.0725 6.66875C33.0194 6.87969 32.9037 7.35703 32.728 7.46719C32.3787 7.425 31.6522 7.20078 31.2897 7.1C30.7287 6.94688 30.1655 6.80391 29.599 6.67109C29.2858 6.81406 28.7905 7.02656 28.474 7.13984C28.0514 7.29141 25.185 8.04063 24.9537 7.68047C25.0045 7.54063 25.0186 7.56641 25.1584 7.45703C25.6733 7.09844 26.9928 6.48984 27.6131 6.18125C26.6897 5.84297 25.0217 5.35078 24.217 4.97578C24.0365 4.66719 23.4209 3.21875 23.492 2.90469C23.5155 2.89141 23.5358 2.86641 23.5623 2.86484C23.7147 2.85625 24.3951 3.95703 24.6131 4.10938C24.8483 4.27422 27.6131 5.08594 28.0514 5.19609C27.8858 4.6 27.8178 4.07422 27.735 3.46094C27.6998 3.20234 27.6342 2.97891 27.6272 2.71875L27.628 2.72109Z" fill="#FFB700"/>
<path d="M27.8931 3.15967C28.0938 3.30811 29.5853 5.56045 29.7407 5.84014C30.511 6.00186 32.1462 6.48701 32.8712 6.78701C32.8009 6.94873 32.7204 7.10185 32.6399 7.25889C32.0251 7.12764 30.3313 6.63779 29.6384 6.4706C29.5353 6.4456 28.8399 6.83545 28.6478 6.89404C27.5743 7.21904 26.4431 7.4792 25.3345 7.58311C25.4665 7.48936 25.6204 7.39639 25.7587 7.30889C26.2946 7.05107 27.5407 6.4831 27.9657 6.17295C27.6321 5.94951 26.9798 5.75732 26.586 5.61279C25.8501 5.34326 25.0571 5.1042 24.3423 4.78779C24.0532 4.2667 23.9501 3.90576 23.7642 3.3417C24.0071 3.58076 24.2563 4.15342 24.4829 4.25811C24.9681 4.48232 25.5728 4.61592 26.0907 4.78545C26.8001 5.0167 27.5048 5.27685 28.229 5.45342C28.1884 4.8206 27.9931 3.82139 27.8915 3.15967H27.8931Z" fill="#FBFCFF"/>
<path d="M63.1842 0.263561C65.5748 -0.0239387 68.467 0.766686 70.3748 2.23622C72.5576 3.91434 73.9897 6.38544 74.3608 9.11356C72.1264 9.14325 69.8912 9.14247 67.6569 9.11044L61.0358 9.11434L49.8365 9.14012C49.8381 8.67294 49.8241 8.07919 49.8764 7.62606C51.2647 6.52294 52.2826 5.4534 53.5991 4.30653C56.0834 2.14169 59.853 0.376061 63.185 0.263561H63.1842Z" fill="#FBFCFF"/>
<path d="M54.0179 14.7344L58.5062 14.7359C58.4382 15.4992 58.4944 16.8375 58.4812 17.6398C58.4429 20.0047 58.5335 22.4258 58.4757 24.7852L53.9819 24.7711L54.0171 14.7344H54.0179Z" fill="#FBFCFF"/>
<path d="M61.6313 9.24805L74.3828 9.26055C74.4516 9.80977 74.4563 10.2848 74.4523 10.8316C70.5945 10.9051 66.6617 10.8324 62.793 10.8395L49.868 10.8348C49.8773 10.3129 49.8703 9.79102 49.8477 9.26992L61.6313 9.24883V9.24805Z" fill="#FBFCFF"/>
<path d="M52.0125 24.9121L58.4742 24.9004C58.4805 25.5348 58.4695 26.1691 58.4422 26.8027L57.2969 26.8012L50.8203 26.7707L50.8273 24.9309L52.0125 24.9121Z" fill="#FBFCFF"/>
<path d="M64.9734 15.8828C65.9265 15.768 66.7812 16.0071 67.5366 16.5078C69.7585 17.9821 69.4273 20.6157 69.6702 22.9157C69.8202 23.5993 70.221 24.2641 70.3523 24.9485C70.4648 25.5344 69.882 26.1164 69.5241 26.5782C70.3476 27.0571 71.4609 28.0141 72.0781 28.7266C74.0218 30.9711 75.0523 33.7321 75.632 36.6102C75.7874 37.3805 76.0015 38.4985 75.9374 39.2735C75.8054 40.8555 74.4062 42.4844 73.389 43.6422C73.1257 43.9422 72.6859 44.4407 72.3968 44.6899C72.3648 45.3485 72.3937 46.1735 72.3835 46.8586C72.2187 46.8766 72.1867 46.8828 72.0281 46.9321C71.9507 47.0133 71.9554 47.0172 71.9593 47.143C72.0163 49.1039 72.1554 51.0641 72.146 53.0266C71.7906 53.5133 71.1984 53.9993 70.7452 54.3954C67.9741 56.8149 64.6796 58.0578 61.1968 59.0727C59.9851 59.4258 58.5351 59.8735 57.2827 60.0829C57.2335 59.3532 57.3585 57.7157 57.4101 56.9297C57.5304 54.8571 57.7101 52.7883 57.9499 50.7266C58.0984 49.5094 58.2945 48.2907 58.4562 47.0766C58.4906 46.8211 58.3609 46.2079 58.3898 45.7969C58.5874 42.9844 58.7476 40.1696 58.871 37.3532C58.3304 38.2235 57.864 39.1407 57.3023 40.0032C56.6984 40.9313 56.4156 41.5578 55.3835 42.0352C55.0624 42.8321 54.7601 43.636 54.4773 44.4477C54.3335 44.9328 53.4913 47.0664 53.5085 47.411C53.6148 47.5703 53.7038 47.5743 53.8671 47.6828C54.496 48.1 54.7437 48.5172 54.9046 49.2336C55.5242 49.8274 55.7046 50.2149 55.4851 51.0563C55.0695 52.65 54.5913 54.225 54.1398 55.8094L53.3187 58.6453C53.2023 59.0446 52.9812 59.9914 52.7546 60.318C52.1374 61.2071 51.2656 60.5125 50.5976 60.575C50.4632 60.7118 50.3148 60.8594 50.1304 60.9227C49.6781 61.0774 49.2835 60.6047 49.1656 60.2172C48.5538 60.186 47.5515 59.9704 46.9156 59.8493C46.1851 59.7094 45.2343 59.5563 44.5406 59.3618C44.2468 59.975 43.8312 59.9157 43.4148 59.4008C43.1367 59.0579 43.1195 58.7977 43.1741 58.3836C42.6273 58.2633 42.1351 57.9149 41.9827 57.3758C41.8156 56.7844 42.2757 55.6227 42.4515 55.0282C43.014 53.1618 43.6007 51.3032 44.2124 49.4524C44.4718 48.6532 44.7085 47.8282 44.9741 47.0422C45.132 46.575 45.7757 46.1539 46.2523 46.15C46.9492 46.1446 47.7031 46.3352 48.4101 46.393C48.5156 45.9157 48.7554 45.3039 48.9077 44.8243C49.3367 43.4633 49.7929 42.111 50.2749 40.768C49.7109 40.2477 49.7226 39.7047 50.1695 39.0844C50.9195 38.0453 52.221 39.1211 53.2452 38.8891C53.9374 38.7321 54.2359 38.4055 54.5148 37.7618C54.7796 37.136 54.9843 36.4907 55.2413 35.8625C57.0163 31.5203 59.1132 27.4922 64.1898 26.5891C64.1632 25.9508 64.0866 25.218 64.0241 24.5805C63.8265 24.5899 63.5866 24.6047 63.3913 24.5922C62.4085 24.5289 61.7984 23.4188 61.6351 22.5461C61.4695 22.3547 61.3437 22.2977 61.1265 22.1774C61.2241 21.925 61.4952 21.4977 61.5288 21.2594C61.6148 20.6438 61.5046 20.0977 61.5781 19.4414C61.196 18.8032 60.7312 18.3102 61.3452 17.5625C62.1304 16.6063 63.7952 16.0297 64.9734 15.8852V15.8828Z" fill="#002C6E"/>
<path d="M64.1749 24.8362C64.2428 24.9659 64.3553 25.2589 64.4006 25.4065C64.796 26.7112 65.7038 27.8776 67.1694 27.9425C68.1686 27.987 68.7796 27.3026 69.4577 26.6581C69.8749 26.9534 70.3131 27.2675 70.7092 27.5956C73.9061 30.2433 75.2975 34.5112 75.7921 38.4995C76.0866 40.8737 73.7733 42.8808 72.3952 44.5433C72.328 42.8972 72.3217 41.0394 72.3631 39.4019C72.5405 39.1933 72.61 39.13 72.6592 38.8675L72.6202 38.8394C72.4881 38.9456 72.428 39.1198 72.3514 39.2784C72.3147 38.4058 72.3366 37.0581 72.4116 36.1948C72.467 35.6073 72.5163 35.0198 72.56 34.4315C72.578 34.1933 72.6295 33.7995 72.61 33.5839L72.5577 33.5558L72.4983 33.6159C72.4475 33.8065 72.3811 34.9214 72.3546 35.2003C72.1233 37.6011 72.1788 40.1526 72.2202 42.5683L72.2725 46.7526C71.7327 46.7878 70.7686 47.0323 70.0999 47.0979C68.1811 47.2854 66.4311 47.3292 64.5124 47.3144C63.0428 47.3214 61.4616 47.0925 60.003 46.8948C59.5413 46.8323 58.4796 46.8581 58.5225 46.2784C58.5975 45.2683 58.6381 44.2519 58.7053 43.2417C58.8413 41.1917 58.8288 39.1034 59.0733 37.069C59.0889 36.9417 59.5952 36.1683 59.6952 36.0073L60.7014 34.3761C60.9022 34.0472 61.1577 33.6651 61.2663 33.298C60.9772 33.5519 60.3788 34.5956 60.1327 35.0073C59.6506 35.8159 59.1631 36.5964 58.6686 37.4081C57.9342 38.6136 57.0788 40.3347 56.1506 41.3815C55.6678 41.9261 54.0553 42.3425 53.3116 42.2854C52.7116 42.2659 51.8108 42.0909 51.3991 41.5987C50.735 40.805 51.3858 39.6097 52.0069 39.0362C52.9217 38.9956 53.8186 39.2519 54.4116 38.2636C54.86 37.5167 55.0671 36.6253 55.41 35.8237C56.0671 34.2901 56.7171 32.7409 57.6335 31.3394C59.4421 28.5987 61.1546 27.373 64.3467 26.6753C64.3389 26.0667 64.2296 25.444 64.1741 24.8354L64.1749 24.8362Z" fill="#FBFCFF"/>
<path d="M46.0657 46.3052L46.1258 46.3005C46.6086 46.2653 47.3836 46.4059 47.886 46.477L50.3477 46.8309C51.1649 46.9513 52 47.0614 52.8063 47.2239C53.4711 47.3684 53.9453 48.2325 53.9188 48.8778C53.8938 49.4864 53.5594 50.3755 53.3758 50.9778L52.6391 53.4294C52.1524 55.0864 51.6907 56.752 51.1813 58.4028C50.9789 59.0591 50.7914 59.4427 50.0196 59.4106C48.2774 59.1739 46.4336 58.7591 44.6891 58.4645C44.1071 58.3661 43.4446 58.2395 42.8672 58.1341C42.5696 58.0356 42.3 57.7434 42.1735 57.4622C41.911 56.8802 42.3492 55.9052 42.5328 55.2958L43.6477 51.7036L44.6211 48.645C44.7805 48.1356 44.9336 47.5942 45.111 47.0934C45.2539 46.6903 45.6907 46.4622 46.0641 46.3059L46.0657 46.3052Z" fill="#FBFCFF"/>
<path d="M45.4751 50.2698L49.029 50.9065C49.5892 51.0042 51.2712 51.2261 51.6595 51.4347C51.7103 51.5769 51.6618 51.8417 51.622 51.9894C51.0923 53.9386 50.315 55.8925 49.8126 57.8409C49.572 57.8144 49.3165 57.7667 49.0782 57.7214C47.3962 57.4034 45.7032 57.144 44.0197 56.8354C43.8743 56.8089 43.7017 56.7472 43.5806 56.6636C43.5728 56.1292 45.2173 51.1003 45.4743 50.269L45.4751 50.2698Z" fill="#002C6E"/>
<path d="M45.5837 50.4236C46.8501 50.7041 48.2548 50.8908 49.5407 51.1502C50.2048 51.2846 50.8923 51.3471 51.5704 51.5018C51.5001 52.0096 51.1126 53.151 50.9438 53.69L49.7017 57.683C47.7993 57.2869 45.6438 56.9596 43.7134 56.6377C43.829 56.0205 44.1727 54.9955 44.3681 54.3588L45.5829 50.4229L45.5837 50.4236Z" fill="#FBFCFF"/>
<path d="M50.896 41.1973C51.0624 41.3379 51.1405 41.6223 51.3757 41.7941C52.3358 42.4949 53.3608 42.4965 54.4757 42.3371C53.9101 43.9199 53.3585 45.5074 52.8202 47.0996C51.6765 46.8629 50.2921 46.6816 49.1265 46.5184C49.6397 44.8426 50.2608 42.8098 50.8952 41.198L50.896 41.1973Z" fill="#FBFCFF"/>
<path d="M65.1539 16.0021C65.4477 15.9748 65.7211 15.9967 66.0102 16.0467C67.0305 16.2334 67.9344 16.8177 68.5227 17.6709C69.6148 19.2443 69.3078 21.1849 69.5656 22.9756C69.6383 23.4795 70.5711 25.2693 70.0625 25.5451C69.893 25.3771 69.743 25.0943 69.6125 24.8912C68.6172 23.3388 68.6727 21.5763 68.318 19.8404C68.1016 18.9513 67.7492 17.9482 66.9969 17.3709C65.7867 16.442 63.4242 16.806 63.2313 18.5631C63.1617 19.1951 63.2578 19.8373 63.3742 20.4568C62.7 20.1474 61.2414 19.1779 61.2117 18.406C61.1555 16.9162 64.1344 16.1006 65.1516 16.0029L65.1539 16.0021Z" fill="#FBFCFF"/>
<path d="M54.9118 49.452C54.9931 49.5309 55.0704 49.6137 55.1431 49.7004C55.6306 50.2871 55.397 50.8801 55.2196 51.5293C54.8915 52.7355 54.5228 53.9316 54.1743 55.1324L53.3118 58.1395C53.154 58.6918 53.0071 59.2465 52.8235 59.791C52.4946 60.7652 51.9837 60.673 51.1407 60.5238C50.8735 60.4731 50.7274 60.4285 50.4829 60.3121C50.7993 60.2652 51.4384 60.1941 51.6384 59.984C52.0806 59.5199 52.3321 58.3277 52.5001 57.7426C52.7282 56.9527 52.9626 56.1645 53.2032 55.3777L54.3392 51.5535C54.5438 50.8676 54.8509 50.1512 54.9103 49.4512L54.9118 49.452Z" fill="#FBFCFF"/>
<path d="M53.7829 47.8496C53.8751 47.8809 53.961 47.927 54.0384 47.9863C55.2938 48.966 54.4985 50.552 54.1368 51.748C53.822 52.8191 53.5017 53.8879 53.1751 54.9551C52.7626 56.302 52.3907 57.6566 51.9829 59.0035C51.8126 59.5668 51.6235 60.0191 50.9681 60.0848C50.8071 60.1098 50.6462 60.1449 50.4868 60.1777C50.4423 60.0504 50.3642 59.7152 50.3267 59.5715C50.697 59.4621 50.9767 59.3512 51.1181 58.9699C51.3759 58.2746 51.5892 57.5637 51.7954 56.852L52.6735 53.8324C52.9946 52.7793 53.3095 51.7246 53.6188 50.6684C53.9728 49.4699 54.2899 49.0785 53.7821 47.8496H53.7829Z" fill="#FBFCFF"/>
<path d="M61.6866 19.5176C62.2476 19.8465 62.6858 20.3426 63.3499 20.5488C63.8194 20.6941 63.7835 20.2895 64.0593 20.5238C64.221 20.8863 63.871 22.2582 63.9288 22.8223C63.9616 23.1426 64.114 24.1449 64.0522 24.377C63.7991 24.5785 63.1757 24.4254 62.8913 24.309C62.5179 24.102 62.3835 23.8723 62.1647 23.527C62.5132 23.4691 62.9796 23.3246 63.1632 22.998C63.1663 22.852 63.1827 22.9215 63.0936 22.7887C62.8093 22.6418 62.3233 23.0676 62.0038 22.9902C61.5999 22.8926 61.8804 22.4566 61.7249 22.2371L61.6124 22.2926C61.4835 22.2598 61.5077 22.2387 61.4054 22.0941C61.3733 22.0895 61.3421 22.0848 61.3101 22.0809C61.3405 21.8684 61.6983 21.4652 61.714 21.2355C61.7546 20.6363 61.6468 20.1371 61.6858 19.5184L61.6866 19.5176Z" fill="#FBFCFF"/>
<path d="M62.22 21.1087C62.4747 21.0916 62.5825 21.09 62.8114 21.2009L62.82 21.2447L62.7224 21.2705C62.5325 21.3322 62.3302 21.4275 62.1591 21.3416C62.1497 21.1908 62.1419 21.2666 62.22 21.1095V21.1087Z" fill="#002C6E"/>
<path d="M44.4673 58.5823L49.029 59.4112C49.022 59.694 49.0134 59.8105 49.0626 60.0901C48.1556 59.9292 47.2493 59.7612 46.3446 59.5855C45.811 59.4839 45.0915 59.3636 44.5813 59.2128C44.5509 58.998 44.5095 58.794 44.4673 58.5815V58.5823Z" fill="#FBFCFF"/>
<path d="M51.0446 38.7298C51.3883 38.7751 51.6118 38.8423 51.9383 38.9493C51.1836 39.5595 51.0672 40.1313 50.9547 41.0306C50.6258 40.8321 50.0766 40.5189 50.0211 40.1189C49.9274 39.4423 50.4008 38.8579 51.0454 38.729L51.0446 38.7298Z" fill="#FBFCFF"/>
<path d="M62.7986 22.9418C62.8361 22.9394 62.8979 22.9425 62.9369 22.9441L62.9572 23.0089C62.8119 23.2457 62.4143 23.3246 62.1596 23.3722C62.1346 23.366 62.0283 23.3129 61.9979 23.2996L61.9854 23.155C62.0986 23.1019 62.6291 22.9871 62.7986 22.9418Z" fill="#FBFCFF"/>
<path d="M14.4937 13.7336C14.6734 13.7188 14.8539 13.7172 15.0335 13.7289C15.889 13.7789 16.3171 14.1547 16.95 14.6493C17.3046 14.8383 17.5781 14.8469 17.8304 15.2016C18.4187 16.0266 18.4265 16.7461 17.6085 17.3485C17.6687 17.8313 17.7078 18.3172 17.7257 18.8039C17.7703 19.9891 17.7195 21.3149 16.8539 22.225C16.3273 22.7789 15.8101 23.0055 15.0554 23.0274C14.9726 23.7461 14.95 24.1961 14.9578 24.9196C16.3906 25.6407 17.6343 27.0938 18.5617 28.375C18.9437 28.9024 19.4468 29.4649 19.7015 30.0547C20.307 31.4579 20.9445 34.7594 22.4359 35.4789C24.6328 36.5399 28.6812 36.3774 31.1679 36.4344C31.5195 36.4422 33.0617 36.4524 33.2835 36.3704C33.882 36.15 34.9195 35.4618 35.4914 35.0907C35.6671 34.9954 36.1953 34.411 36.3898 34.4219C37.557 34.486 36.2718 35.7164 36.1117 35.8813C36.7273 35.7297 37.1328 35.5844 37.7218 35.2954C38.1992 35.0618 38.7164 34.6844 39.1937 34.4571C39.3203 34.3969 39.6039 34.5961 39.7031 34.5914C40.0257 34.575 40.1679 34.3938 40.4656 34.6235C40.5539 34.6914 41.0679 34.5868 41.2171 34.6579C41.482 34.7875 41.2789 35.2321 41.3859 35.4329C41.5921 35.8196 41.046 36.3641 40.7656 36.6227C39.3781 37.9016 37.4906 38.6922 35.6453 39.0188C35.0742 39.1204 34.3695 39.079 33.7898 39.0547C33.5812 39.2477 33.4062 39.5079 33.1679 39.6641C32.532 40.0797 24.7101 39.8899 23.532 39.7961C22.4117 39.7032 21.2976 39.543 20.196 39.318C20.4218 45.3922 20.0781 51.8227 19.7312 57.9008C19.7226 58.3149 19.6953 59.1 19.6328 59.4985L19.589 59.479C19.4921 59.2157 19.5914 58.0047 19.6093 57.6649L19.7562 54.8282C19.8937 52.2047 19.9968 49.5797 20.0648 46.9539C19.5937 46.7977 19.0539 46.5164 18.896 46.0063L18.9421 45.9821C19.1023 46.0454 19.3453 46.4399 19.557 46.5696C19.7601 46.6946 19.832 46.7133 20.0554 46.7938C20.0882 46.1938 20.1093 45.5938 20.121 44.993C16.8125 45.4368 11.6109 45.4485 8.31324 45.0438C8.44839 46.0524 8.69995 47.336 8.76011 48.3125C9.25152 48.8594 10.4218 50.679 10.6601 51.4415C10.6585 51.5172 10.571 51.6821 10.5203 51.7219C10.0039 52.1282 9.26714 50.8414 9.03042 50.5016C9.03433 51.0063 9.06558 51.511 9.12495 52.0125C9.19683 52.611 9.5687 54.0586 9.30777 54.5118C8.84527 54.8391 7.95777 54.2821 7.58902 53.968C6.19839 52.7844 5.89839 50.4157 5.72261 48.711C5.5937 48.7336 5.57574 48.7313 5.44917 48.7289C5.22183 48.6024 4.85699 46.6563 4.78042 46.286C3.89058 41.979 3.78511 37.3586 4.98511 33.0977C5.72808 30.4594 7.23667 27.7555 9.40464 26.0297C9.81558 25.7102 11.4398 24.6914 11.9257 24.4204C12.05 23.2071 12.0289 22.1063 11.9085 20.8985C11.4 20.7289 10.9617 20.5196 10.696 20.0196C10.525 19.6977 10.4593 19.3079 10.3734 18.9555C10.2312 18.3719 10.1929 17.7961 10.3632 17.2149C10.5664 16.5211 11.0085 16.2907 11.6015 15.9891C12.2468 14.5704 12.8804 13.9461 14.4945 13.7321L14.4937 13.7336Z" fill="#002C6E"/>
<path d="M11.0493 25.1602C11.7102 25.5945 12.3368 26.0766 12.9797 26.5352C13.411 26.8422 13.8399 27.1195 14.2672 27.4359C14.3524 27.0742 14.5735 26.5344 14.704 26.1586C14.7946 26.4937 14.8055 26.6398 15.0602 26.882C15.086 27.2609 15.1282 27.6539 15.1836 28.0297C15.5016 30.1914 15.6774 32.3242 15.6875 34.5117C15.6844 35.8953 15.6422 37.2781 15.5602 38.6594C15.443 40.4812 15.1485 41.5594 15.8688 43.3039C16.004 43.1695 16.1383 43.0344 16.2711 42.8977C16.5805 42.5789 16.9524 42.1609 17.0477 41.7211C17.2336 40.868 17.1993 39.7469 17.1782 38.8766C17.1329 35.7203 16.8188 32.5742 16.2391 29.4719C16.1172 28.8477 16.0024 28.2547 15.8344 27.6414C15.7821 27.4492 15.5297 26.8211 15.5282 26.725C15.5922 26.6031 15.554 26.6156 15.6375 26.5891C15.8563 26.7586 16.0985 27.0797 16.3586 27.3102C16.2704 26.7125 16.1446 26.3516 15.9086 25.8008C16.6352 26.1492 18.0696 27.7977 18.4118 28.5297C18.7 29.1461 18.9094 29.8211 19.2547 30.4609C18.9438 30.4781 17.6805 30.4461 17.5219 30.6016C17.4774 30.9664 17.6032 31.6703 17.6485 32.0609C17.7141 32.6281 17.6977 33.5383 17.9563 34.0383C18.3672 34.3016 19.2938 34.1062 19.8 34.0367C20.0383 37.6211 20.1454 41.2125 20.1219 44.8047L20.075 44.8422C19.725 44.9203 18.3875 45.0305 18.0063 45.0562C14.8618 45.2695 11.4204 45.2914 8.2938 44.8836C7.95005 42.2328 7.81958 39.6148 8.21958 36.9625C8.26567 36.6586 8.63286 34.7992 8.58598 34.6656L8.52583 34.6578C8.51723 34.668 8.50942 34.6781 8.50083 34.6883C7.7102 37.6008 7.64223 41.2414 8.03286 44.1555C8.26489 45.882 8.43208 46.7367 8.59223 48.0266C7.5438 48.0875 6.51723 48.3313 5.48989 48.5508C5.21333 47.7961 4.93755 46.3742 4.7938 45.5805C3.95395 40.9398 3.9563 35.6781 5.79614 31.268C6.28442 30.0969 6.85942 29.1563 7.57348 28.1203C7.80005 28.3031 8.38442 28.7219 8.6188 28.4445C9.27895 27.6641 10.3993 27.007 11.0219 26.2641C11.0125 25.9055 10.6907 25.743 10.425 25.55L11.0493 25.1602Z" fill="#FFB700"/>
<path d="M11.8172 31.9402C12.118 31.9293 13.2383 31.8316 13.3891 32.0137C14.2766 33.0894 12.1883 32.9144 11.8844 32.9285C11.479 32.9316 10.4071 33.073 10.2196 32.8472C9.34537 31.7949 11.5844 31.9496 11.8165 31.9394L11.8172 31.9402Z" fill="#002C6E"/>
<path d="M11.9671 32.1016C12.1413 32.093 14.0452 31.8695 13.2444 32.6774C13.1632 32.7586 11.8538 32.7867 11.5546 32.7992C11.1858 32.8219 9.79677 33.0344 10.2593 32.257C10.4952 32.0891 11.6093 32.1125 11.9671 32.1016Z" fill="#FBFCFF"/>
<path d="M18.7891 28.9463C20.4703 30.3486 20.1023 35.2018 23.1305 35.94C26.2953 36.7119 29.5422 36.5588 32.7703 36.5963C32.5055 37.8119 32.4617 38.4189 32.8984 39.6018C32.5391 39.6963 30.9102 39.7353 30.468 39.7439C27.9812 39.7908 25.4383 39.851 22.9641 39.5963C22.0445 39.5018 21.1047 39.3236 20.1953 39.158C20.175 36.4596 20.0094 33.4564 19.4875 30.8025C19.382 30.2674 18.9734 29.5666 18.8047 29.001L18.7891 28.9471V28.9463Z" fill="#FFB700"/>
<path d="M17.0376 15.9297C17.3978 16.2945 17.4884 17.7508 17.5361 18.2773C17.7228 20.3266 17.5087 22.6992 14.9493 22.8914C14.8259 23.5016 14.7993 24.107 14.7954 24.7273C14.7939 24.9594 14.9946 25.5367 14.7704 25.6297C14.2243 25.4883 12.6556 24.7484 12.0673 24.4828C12.0689 24.1766 12.097 23.825 12.1142 23.5164C12.1907 22.5922 12.1142 21.6664 12.0493 20.7445C11.6376 20.6641 11.3736 20.5648 11.0673 20.2586C10.7673 19.9594 10.4314 19.4805 10.8626 19.1289C11.229 18.8313 11.4743 19.3492 11.7728 19.368C11.8712 19.268 11.9275 18.9398 12.0056 18.7852C12.4517 17.9016 12.6462 17.3734 12.3415 16.3875C13.9611 17.0672 15.9501 18.0375 17.0361 15.9305L17.0376 15.9297Z" fill="#FBFCFF"/>
<path d="M14.4297 20.5283C15.2547 20.6838 16.1633 20.6064 16.9929 20.5463C16.8781 20.9447 16.8312 21.158 16.5836 21.5002C15.6367 22.4908 14.3 21.6447 14.4297 20.5283Z" fill="#002C6E"/>
<path d="M14.5781 20.7089C15.3172 20.7854 16.0625 20.7847 16.8008 20.7065C16.6789 21.0253 16.6109 21.1644 16.418 21.437C15.6664 22.2495 14.7914 21.6644 14.5781 20.7089Z" fill="#FBFCFF"/>
<path d="M16.0154 19.5391C16.5998 19.6414 16.499 20.2945 16.0303 20.4477L15.9771 20.425L15.9639 20.3687C16.5756 19.8094 16.1029 19.9516 16.0146 19.5391H16.0154Z" fill="#002C6E"/>
<path d="M14.4462 18.7109C14.6205 18.7648 14.6603 18.7883 14.7158 18.9531C14.6642 19.1195 14.6806 19.068 14.5408 19.2031C14.4314 19.1953 14.4283 19.1953 14.3236 19.1617C14.1673 18.9602 14.2759 18.8539 14.4455 18.7117L14.4462 18.7109Z" fill="#002C6E"/>
<path d="M16.4226 18.7485C16.6148 18.7532 16.6976 18.7509 16.8328 18.897C16.8383 19.0563 16.8429 18.9993 16.7554 19.154C16.5984 19.2298 16.5773 19.2407 16.4554 19.1337C16.4008 18.9767 16.4148 18.9204 16.4226 18.7485Z" fill="#002C6E"/>
<path d="M16.5242 17.5488C16.7789 17.5543 16.8906 17.5684 17.1031 17.716L17.0828 17.7598L16.9445 17.7457C16.7391 17.6973 16.3758 17.777 16.2891 17.7074C16.3367 17.6176 16.4266 17.5941 16.5242 17.5488Z" fill="#002C6E"/>
<path d="M14.1499 17.6035C14.4062 17.6019 14.6632 17.5613 14.8187 17.7839C14.5851 17.755 14.4022 17.7308 14.1702 17.6847L14.1499 17.6027V17.6035Z" fill="#002C6E"/>
<path d="M36.3813 34.5706C36.4946 34.5729 36.4961 34.5784 36.6086 34.6019C37.0047 34.9472 35.8688 35.9128 35.6172 36.1401C36.243 36.0394 36.7368 35.9151 37.3219 35.6659C37.5829 35.5542 37.8383 35.4284 38.0852 35.2886C38.3594 35.1339 39.2383 34.4479 39.4805 34.6901C39.386 35.2503 37.1969 36.044 36.7797 36.3019L36.7696 36.373L36.8344 36.4081C37.668 36.2878 39.0883 35.2737 39.7829 34.8089C39.9196 34.7175 40.086 34.6229 40.2516 34.6628C40.3626 34.7487 40.3305 34.694 40.3555 34.8292C40.229 35.3409 38.4626 36.2456 37.9579 36.48C37.6102 36.6409 37.0899 36.7683 36.8235 36.9901L36.8415 37.0284C36.9618 37.0284 37.061 37.0128 37.1758 36.9769C37.9086 36.7487 40.2157 35.6089 40.5516 34.9104C40.5586 34.8964 40.5649 34.8815 40.5711 34.8667C40.7657 34.7214 40.9704 34.7362 41.1711 34.8542C41.4868 35.3378 40.7836 35.2815 40.5688 35.5058C39.7399 36.3464 38.7329 36.898 37.6579 37.3495C37.4696 37.4284 37.2743 37.5112 37.1102 37.6339L37.1141 37.6847C37.5969 37.744 39.5024 36.6097 39.9094 36.2909C40.2032 36.0612 40.7946 35.3964 41.1313 35.4737C41.5352 35.9222 40.2946 36.8151 40.0001 37.048C39.511 37.4409 38.979 37.7097 38.4235 37.9831C36.5172 38.9222 34.8922 39.0683 32.8157 38.787C32.654 38.0558 32.729 37.5909 32.8907 36.8729C33.5657 36.4354 34.1751 36.0948 34.8602 35.6847C35.3586 35.3862 35.9211 34.9276 36.3813 34.5698V34.5706Z" fill="#FBFCFF"/>
<path d="M8.26865 48.1899L8.41553 48.186C8.78662 48.3868 10.5108 51.1149 10.5022 51.5157C10.421 51.6298 10.4718 51.5837 10.3351 51.6485C9.78584 51.636 9.23896 50.3517 9.00068 50.2134L8.96787 50.2267C8.58584 50.8446 9.35381 53.7681 9.24756 54.2892C9.16865 54.3923 9.17725 54.3993 9.06084 54.4485C8.60147 54.3157 8.29365 51.8259 8.13584 51.6454L8.08428 51.6642C7.99053 51.9048 8.2499 52.786 8.32021 53.0649C8.45146 53.5267 8.59131 53.986 8.73818 54.4439C7.54131 53.9298 7.57725 52.0603 7.20225 51.797L7.15225 51.8306C7.11865 52.2313 7.78037 53.6368 7.99365 54.0446C7.80615 53.9415 7.6335 53.8134 7.47959 53.6642C6.40771 52.6071 5.9124 50.0837 5.89209 48.6329C6.70068 48.454 7.446 48.2837 8.26787 48.1907L8.26865 48.1899Z" fill="#FBFCFF"/>
<path d="M11.864 24.6479C12.2288 24.6776 13.1546 25.1464 13.546 25.3136C13.9319 25.48 14.3249 25.63 14.7241 25.7636C14.5663 26.3011 14.3663 26.7003 14.146 27.2112C13.4116 26.6198 11.9999 25.5714 11.189 25.0659C11.4179 24.9417 11.6452 24.7894 11.8647 24.6479H11.864Z" fill="#FFB700"/>
<path d="M15.0837 25.201C15.2103 25.233 15.3415 25.2791 15.4665 25.3205L15.4993 25.3627C15.6681 25.5768 16.1704 26.6463 16.0821 26.8463C15.6946 26.2807 15.5188 25.9854 14.9126 25.6604L15.0829 25.2002L15.0837 25.201Z" fill="#FFB700"/>
<path d="M32.874 38.9526C33.1412 38.9815 33.3076 39.0112 33.5709 39.0675L33.3131 39.3355C33.2287 39.4136 33.1264 39.4901 33.0357 39.562C32.9537 39.319 32.924 39.2034 32.874 38.9526Z" fill="#FFB700"/>
<path d="M34.8025 20.5276C35.158 20.5253 35.4463 20.6347 35.6854 20.9019C35.7666 20.9886 35.9619 21.287 35.9651 21.4003C35.9861 22.1097 35.9768 22.8347 35.9768 23.5433L35.9783 26.33C35.9783 26.8112 35.9994 27.4714 35.9643 27.9292C35.8893 28.0104 35.758 28.0104 35.6393 28.0292C35.6244 28.619 35.6408 29.1964 35.0268 29.4784C33.7666 29.4519 34.3244 28.4573 34.0807 28.0355C33.9752 28.0315 33.9104 28.0386 33.8166 27.9894C33.8127 27.9761 33.8088 27.962 33.8049 27.9487C33.7768 25.9104 33.783 23.8058 33.801 21.7722C33.808 20.9761 34.1057 20.6854 34.8025 20.5269V20.5276Z" fill="#FFB700"/>
<path d="M34.6928 20.7515C34.7303 20.7483 34.767 20.746 34.8045 20.7436C35.0834 20.7304 35.3076 20.8077 35.5123 21.0015C35.7904 21.2671 35.8014 21.6804 35.8115 22.0413C35.8264 22.5819 35.8232 23.1288 35.8232 23.6694C35.8318 25.0663 35.8201 26.4632 35.7881 27.86H35.0904L33.9467 27.8522C33.9404 26.9022 33.8389 21.8155 34.0514 21.2913C34.1693 20.9999 34.424 20.8725 34.6928 20.7515Z" fill="#FBFCFF"/>
<path d="M35.1537 28.036L35.4349 28.0344C35.4365 28.136 35.4381 28.2375 35.4381 28.3383C35.4381 28.9305 35.3334 29.2727 34.6826 29.2656C34.3193 29.0446 34.1357 28.5078 34.406 28.1274C34.492 28.0063 34.9881 28.0375 35.1537 28.0352V28.036Z" fill="#FBFCFF"/>
<path d="M47.7556 20.5262C49.1947 20.4269 49.0751 21.6543 49.0689 22.6785C49.0666 23.0691 49.0759 23.4722 49.0798 23.8637L49.0939 26.2558C49.0955 26.6144 49.147 27.7496 48.9822 27.9887C48.908 28.0269 48.8525 28.0566 48.7814 28.1004C48.5978 28.7199 48.9158 28.9465 48.2783 29.4113C48.1267 29.4277 47.8955 29.4215 47.7376 29.4215C47.1986 29.0746 47.3447 28.8199 47.2564 28.2613C47.2056 27.9371 47.1212 28.1199 46.9408 27.9394C46.8837 27.6332 46.9087 25.7676 46.9087 25.3988L46.9103 22.909C46.9111 21.9465 46.6634 20.8918 47.7556 20.5254V20.5262Z" fill="#FFB700"/>
<path d="M47.9882 20.719C48.2921 20.7128 48.521 20.8425 48.7078 21.0815C48.939 21.3714 48.9312 21.7964 48.9343 22.1534C48.9468 23.6198 48.946 25.0878 48.9437 26.5542C48.9437 26.9972 48.9593 27.5042 48.907 27.9401H48.0788C47.8359 27.944 47.3679 27.98 47.1687 27.8737C47.1187 27.8472 47.1039 27.8151 47.1007 27.7526C47.0476 26.8308 47.0687 25.8276 47.0679 24.9073V22.755C47.0703 21.8136 46.8414 20.9222 47.989 20.7183L47.9882 20.719Z" fill="#FBFCFF"/>
<path d="M47.4131 28.0923L48.5451 28.0938C48.5451 28.4634 48.5717 28.7267 48.4045 29.061C47.5803 29.711 47.4529 28.6563 47.4131 28.0931V28.0923Z" fill="#FBFCFF"/>
<path d="M46.225 27.8496L46.3391 27.9535C45.7469 28.0215 43.9414 27.9793 43.2562 27.9785C43.2562 28.4293 43.2883 28.9184 42.9789 29.2855C42.7523 29.5551 42.3734 29.627 42.1133 29.3652C41.7758 29.0262 41.8297 28.4207 41.8281 27.9762L38.6391 27.9777C38.2281 27.9777 37.1813 28.0012 36.8164 27.9277C37.1383 27.8043 39.9508 27.8676 40.557 27.8613C42.4219 27.8426 44.3508 27.8871 46.2242 27.8504L46.225 27.8496Z" fill="#002C6E"/>
<path d="M42.0664 27.9934C42.3781 27.9738 42.775 27.9816 43.0929 27.9785C43.0812 28.4684 43.1367 28.8137 42.8492 29.1965C42.4226 29.4348 42.1992 29.241 41.9937 28.8707C41.9867 28.6152 41.9539 28.2191 42.0671 27.9941L42.0664 27.9934Z" fill="#FBFCFF"/>
<path d="M50.15 27.8792C50.6672 27.8401 51.3812 27.862 51.918 27.8628H54.8742L57.5469 27.862C58.0039 27.862 58.6789 27.8417 59.1195 27.8854L59.1375 27.9081C58.6078 28.0229 56.6016 27.9776 55.9438 27.9792C55.9711 28.4135 56.0531 29.3901 55.3203 29.4885C55.057 29.5237 54.7375 29.2026 54.5836 28.994C54.5633 28.6565 54.5539 28.319 54.5547 27.9815L51.3961 27.9862C50.9727 27.9862 50.2078 28.0112 49.8047 27.9729C49.9039 27.8995 50.0234 27.8979 50.15 27.8792Z" fill="#002C6E"/>
<path d="M54.7241 27.9886L55.7577 27.98C55.7835 28.4089 55.8546 28.78 55.632 29.1472C54.6991 29.6784 54.7132 28.5581 54.7241 27.9886Z" fill="#FBFCFF"/>
<path d="M46.3541 12.772C46.3541 13.0837 46.3229 15.7712 46.3924 15.8587C46.4041 18.961 46.3979 22.0634 46.3736 25.1657C46.3713 25.5938 46.4127 27.7009 46.3393 27.9532L46.2252 27.8493C46.1814 27.6524 46.2127 25.6165 46.2143 25.2696C46.2221 23.3649 46.1814 21.4204 46.2182 19.5188C46.2463 18.4649 46.2588 17.4103 46.2564 16.3556C46.258 15.861 46.2775 15.1532 46.2346 14.6767L46.2119 14.636C45.9674 14.6228 45.7221 14.6126 45.4775 14.6056C45.6127 14.5563 46.0783 14.5892 46.251 14.5954C46.251 14.029 46.2416 13.4313 46.2619 12.8681C46.3166 12.8329 46.3111 12.8267 46.3541 12.7728V12.772Z" fill="#002E75"/>
<path d="M15.3562 47.8338L15.4226 47.8721C15.4726 47.9744 15.332 49.658 15.3125 49.983C15.2335 51.4049 15.1976 52.8291 15.2054 54.2533C15.2132 55.3916 15.2617 56.6682 15.2164 57.7963L15.1445 57.7697C14.907 57.3541 15.1773 48.6439 15.3562 47.833V47.8338Z" fill="#002C6E"/>
<path d="M49.6499 35.7352L49.7148 35.7961C49.7523 36.0031 49.7257 36.2414 49.714 36.4555L46.0069 36.4539C46.0062 36.6555 46.0163 36.7641 45.9601 36.9594C45.8054 36.7914 45.8562 36.5367 45.8655 36.2945C47.0163 36.2508 48.4343 36.2898 49.603 36.2977C49.603 36.0891 49.5898 35.9336 49.6507 35.7344L49.6499 35.7352Z" fill="#FFB700"/>
<path d="M10.3268 46.207C10.3932 46.2797 10.3721 46.2375 10.3713 46.3445C10.1697 46.6727 9.56426 46.9445 9.19395 47.043L9.15723 47.0008C9.20566 46.8922 9.69316 46.6734 9.83223 46.5867C10.0361 46.4594 10.1479 46.3672 10.3268 46.207Z" fill="#002C6E"/>
</g>
<defs>
<clipPath id="clip0_4742_46697">
<rect width="80" height="70.4" fill="white"/>
</clipPath>
</defs>
</svg>
