<svg width="80" height="69" viewBox="0 0 80 69" fill="none" xmlns="http://www.w3.org/2000/svg">
<path d="M30.1201 3.99649C30.1186 3.53867 30.0717 2.06758 30.1694 1.69102C30.2319 1.45039 30.3569 1.23086 30.5311 1.05352C30.7311 0.847265 30.9834 0.711328 31.2709 0.696485C31.9405 0.66211 32.6436 0.678515 33.3147 0.680078L36.9303 0.678516L44.7506 0.681641C45.9287 0.682422 47.1131 0.672266 48.2865 0.676173C49.0865 0.679298 49.8381 1.00742 49.8897 1.88711C49.9162 2.34102 49.9014 2.76758 49.9037 3.21914L49.9225 5.46055V13.1246C55.5576 14.5129 60.0998 18.177 63.0819 23.0965C65.1069 26.4371 66.2131 30.2527 66.2889 34.1582C66.3014 34.8551 66.2936 35.5527 66.2662 36.2488C66.2522 36.548 66.0615 38.1473 66.1272 38.2863C66.8944 38.0887 67.9748 37.7113 68.5108 37.098C68.5201 36.8621 68.517 36.5902 68.585 36.3684C68.0686 35.9879 67.7451 35.5285 68.1108 34.8793C68.5264 34.141 69.7389 34.4012 69.8803 35.2223C69.9576 35.6699 69.6319 36.0074 69.3959 36.3598C69.4162 36.6316 69.4069 36.9043 69.4037 37.1777C70.9842 38.7137 74.4201 38.7371 76.4865 38.384C76.7647 38.3363 78.0287 37.9395 78.2014 38.0129L78.1944 38.0824C77.8467 38.3637 76.178 38.6215 75.6834 38.6762C73.6694 38.8988 71.0022 38.7199 69.378 37.4199L69.3998 41.709C69.3998 42.6723 69.378 43.6926 69.4108 44.6512C70.2639 44.8449 70.4022 44.9105 70.9803 45.5566C71.6451 45.5785 72.4381 45.5465 73.1147 45.5426C74.3467 45.5363 75.5787 45.5387 76.8108 45.5473C77.1123 45.5488 78.8748 45.5238 78.9694 45.6332C78.7123 45.8035 77.4303 45.727 77.0459 45.7254L73.2069 45.7277C68.0912 45.7652 62.9756 45.7738 57.8592 45.7543C58.1092 46.3473 58.4014 46.966 58.667 47.5551C60.3631 47.4559 61.96 47.4957 63.6553 47.4887L72.6944 47.4746C73.4342 47.473 78.66 47.3777 78.999 47.498L79.0092 47.5715C78.9069 47.6363 78.9436 47.6301 78.8037 47.6293C77.2686 47.6238 75.7264 47.6293 74.192 47.634L63.8303 47.6629C62.3475 47.6676 60.2155 47.5824 58.8069 47.7418L58.7553 47.748C59.149 48.6582 59.778 50.1043 60.2155 50.9598C61.849 54.1543 60.7725 53.7871 58.4264 55.266C58.5936 55.6895 58.7037 56.0754 58.5115 56.5184C58.3748 56.8293 58.1131 57.0691 57.7905 57.1777C57.478 57.2871 57.1334 57.2551 56.8451 57.091C56.1631 56.7105 56.0155 55.9371 56.4155 55.2926C56.0459 54.8496 55.5256 53.6223 55.2545 53.0598C54.417 51.3238 53.6506 49.4457 52.7834 47.7309C51.1928 47.716 49.603 47.7223 48.0123 47.748C48.3608 49.4754 48.6951 51.2051 49.0155 52.9379C49.1358 53.5801 49.2295 54.223 49.3623 54.8629C49.8061 54.7871 52.3108 54.7004 52.2858 55.3051C52.0451 55.6723 49.553 56.8644 49.0436 57.2004C48.3584 57.6527 47.9225 57.2145 47.6115 56.6121C47.5155 56.4262 47.6389 56.2902 47.7131 56.1293C47.5709 55.627 47.2225 54.7629 47.0319 54.2449L45.9428 51.202L45.1569 48.9512C45.0303 48.5871 44.8795 48.0715 44.6998 47.7418L42.5326 47.7488C42.1342 48.2895 41.7467 48.9176 41.3272 49.441C39.9451 51.1652 38.5506 52.8715 37.1873 54.6113C37.4608 55.034 38.9545 56.8004 38.8819 57.166C38.8639 57.2566 38.8092 57.366 38.7225 57.4074C38.5389 57.4949 38.2561 57.3816 38.0881 57.3043C37.3655 56.9746 34.7428 55.0699 34.4928 54.323C34.3662 53.9441 35.3803 53.4176 35.6139 53.1934C35.7467 53.066 35.8436 52.8863 35.9397 52.7309C36.9826 51.0348 37.8389 49.2324 38.7053 47.4418C34.2045 47.4012 29.7037 47.3941 25.203 47.4207C25.2006 47.9582 25.3084 50.7504 25.1092 51.0215C24.924 51.2738 24.6287 51.2762 24.3459 51.3066C24.2123 52.4184 24.0709 53.5293 23.9217 54.6395C23.8569 55.1504 23.817 55.6738 23.7405 56.1801C24.2233 56.259 25.6803 56.6207 25.7162 57.2098L25.6545 57.2738C25.4006 57.3121 24.8358 57.2895 24.5483 57.2887L22.3889 57.2855C22.2147 56.4004 22.5256 56.459 22.5092 55.8285C22.4686 54.316 22.4006 52.7902 22.3537 51.277C21.7826 51.2707 21.2108 51.2754 20.6397 51.2895C20.4842 51.5754 20.1576 52.0395 19.9709 52.3277C19.3467 53.2918 18.703 54.2426 18.0405 55.1809C18.0975 55.2324 18.1522 55.2855 18.2069 55.3402C18.524 55.6613 19.8733 56.8949 19.367 57.3535C19.1194 57.3434 16.7405 55.7902 16.3514 55.5168C16.4819 55.323 17.1342 54.448 17.1889 54.3309C17.6287 53.3793 17.9217 52.2668 18.342 51.2848C18.1647 51.059 18.0819 51.1418 18.0444 50.759C18.0022 50.3293 18.0209 49.9051 18.0217 49.4738L18.0186 47.4043C12.6155 47.3496 7.19202 47.4637 1.78655 47.4113C1.62561 47.4098 1.27561 47.4316 1.1467 47.3863C1.10999 47.2832 1.10764 47.3324 1.15374 47.234C1.61858 47.1895 2.44983 47.2246 2.95842 47.223C4.25452 47.2168 5.55139 47.2184 6.84749 47.2285L18.0264 47.2184C18.0451 46.7527 18.0295 46.2152 18.0264 45.7434C16.8006 45.6941 15.278 45.7324 14.0303 45.7301L5.39827 45.734L2.63342 45.7301C2.28264 45.7324 1.45139 45.773 1.16467 45.7301C1.11624 45.641 1.12874 45.6902 1.15686 45.5723C1.35686 45.4676 7.39905 45.5488 8.29592 45.552C8.79514 44.9738 9.01233 44.8543 9.7592 44.7363C9.70686 43.6871 9.75217 42.352 9.74827 41.2762C9.74358 40.0738 9.6967 38.5637 9.76155 37.3762C8.82249 38.1051 7.52014 38.4684 6.35842 38.6316C4.8803 38.8449 3.37483 38.7449 1.93811 38.3379C1.71077 38.2738 1.35842 38.191 1.17874 38.0566L1.17483 37.9863C1.33499 37.9012 1.86624 38.1324 2.07327 38.1887C2.78733 38.3863 3.5217 38.5059 4.26155 38.5434C5.83889 38.6387 8.4678 38.2809 9.68186 37.1902L9.72327 37.152C9.77092 36.866 9.7678 36.566 9.77327 36.2754C8.82795 35.6277 9.11545 34.4418 10.1678 34.4332C10.4405 34.4309 10.7022 34.5418 10.8889 34.7402C11.3928 35.2723 11.0615 35.8543 10.6076 36.2652C10.6303 36.6496 10.6225 36.9379 10.6108 37.3207C10.7592 37.4574 10.8787 37.548 11.0615 37.6395C12.8326 38.527 15.0037 38.6832 16.9412 38.3715C17.5561 38.2723 18.16 38.0871 18.7436 37.9098C18.81 37.7441 18.8834 37.5098 18.942 37.3355C18.503 36.8988 18.2248 36.4293 17.8944 35.909C16.6053 33.9168 15.7061 31.698 15.242 29.3707C14.1436 24.1738 14.9608 18.7543 17.5412 14.1113C19.8678 9.84648 23.5897 6.50742 28.0975 4.68086C28.7576 4.41289 29.4233 4.13945 30.1233 3.99649H30.1201Z" fill="#D9E4F8"/>
<path d="M42.5762 28.1534C42.3168 28.0784 42.1254 27.9792 42.0114 27.712C41.7207 27.0284 41.302 26.0269 41.4848 25.2823C41.8317 23.869 43.5098 24.2815 44.5746 24.0214C44.9121 23.9394 45.6051 23.4151 45.8629 23.9479C46.0981 24.5698 46.0426 25.3448 45.4793 25.7511C45.652 26.4581 46.1809 28.3862 45.102 28.6886C44.7965 28.7745 43.9567 28.5636 43.6715 28.394L43.641 28.319C43.6996 28.2229 43.6574 28.2503 43.7645 28.2245C44.2614 28.4284 45.2301 28.8464 45.502 28.0917C45.7371 27.4394 45.5059 26.4745 45.2723 25.8448C44.9176 25.9292 44.7481 25.9651 44.4168 26.1034C44.3395 26.2386 44.2504 26.4042 44.1629 26.5292C43.9215 26.6104 43.7926 26.644 43.5442 26.6956L43.3262 27.0659C43.2473 26.7792 43.2012 26.3854 42.7567 26.5276C42.6926 26.5479 42.691 26.5831 42.6528 26.6417C42.5723 27.2854 43.3535 27.3854 43.3559 27.8378C43.22 28.0542 43.0379 28.0347 42.8035 28.0651C42.8215 28.1995 42.8559 28.6229 42.9621 28.6597C43.491 28.8417 44.2801 28.9276 44.7223 29.3698C45.9145 30.5636 46.0754 32.5987 46.6145 34.1144C46.766 34.5401 47.1824 35.2347 47.3903 35.6675C47.6028 36.1097 47.8559 36.6526 48.0848 37.0714L48.1012 36.2956C47.5989 36.0628 47.3449 35.5026 47.5926 34.9933C47.7129 34.7526 47.927 34.5729 48.1848 34.4972C48.7528 34.3261 49.2512 34.6558 49.359 35.2245C49.4473 35.6901 49.1817 36.0034 48.859 36.2909C48.9504 36.7433 48.7379 37.1683 49.1653 37.4362C50.9395 38.5472 53.3067 38.7534 55.3301 38.3714C56.2754 38.1808 57.3598 37.8636 58.0254 37.162C58.0176 36.8089 58.0262 36.6081 58.0606 36.2565C57.5356 35.862 57.3098 35.3644 57.7512 34.7808C57.8949 34.5878 58.1121 34.462 58.352 34.4339C58.6168 34.4019 58.884 34.4823 59.0864 34.6565C59.2887 34.8315 59.4074 35.0839 59.4129 35.3511C59.4184 35.7331 59.2075 36.019 58.9465 36.2737L58.916 36.3034C58.9418 36.5597 58.9137 36.9565 58.9176 37.23C60.3809 38.4456 62.7856 38.7128 64.6184 38.5487C65.1262 38.505 65.6293 38.4175 66.1223 38.287C66.8895 38.0894 67.9699 37.712 68.5059 37.0987C68.5153 36.8628 68.5121 36.5909 68.5801 36.369C68.0637 35.9886 67.7403 35.5292 68.1059 34.88C68.5215 34.1417 69.734 34.4019 69.8754 35.2229C69.9528 35.6706 69.627 36.0081 69.391 36.3604C69.4114 36.6323 69.402 36.905 69.3989 37.1784C70.9793 38.7144 74.4153 38.7378 76.4817 38.3847C76.7598 38.337 78.0239 37.9401 78.1965 38.0136L78.1895 38.0831C77.8418 38.3644 76.1731 38.6222 75.6785 38.6769C73.6645 38.8995 70.9973 38.7206 69.3731 37.4206L69.395 41.7097C69.395 42.6729 69.3731 43.6933 69.4059 44.6519C70.259 44.8456 70.3973 44.9112 70.9754 45.5573C71.6403 45.5792 72.4332 45.5472 73.1098 45.5433C74.3418 45.537 75.5739 45.5394 76.8059 45.5479C77.1075 45.5495 78.8699 45.5245 78.9645 45.6339C78.7075 45.8042 77.4254 45.7276 77.041 45.7261L73.202 45.7284C68.0864 45.7659 62.9707 45.7745 57.8543 45.755C58.1043 46.3479 58.3965 46.9667 58.6621 47.5558C60.3582 47.4565 61.9551 47.4964 63.6504 47.4894L72.6895 47.4753C73.4293 47.4737 78.6551 47.3784 78.9942 47.4987L79.0043 47.5722C78.902 47.637 78.9387 47.6308 78.7989 47.63C77.2637 47.6245 75.7215 47.63 74.1871 47.6347L63.8254 47.6636C62.3426 47.6683 60.2106 47.5831 58.802 47.7425L58.7504 47.7487C59.1442 48.6589 59.7731 50.105 60.2106 50.9604C61.8442 54.155 60.7676 53.7878 58.4215 55.2667C58.5887 55.6901 58.6989 56.0761 58.5067 56.519C58.3699 56.83 58.1082 57.0698 57.7856 57.1784C57.4731 57.2878 57.1285 57.2558 56.8403 57.0917C56.1582 56.7112 56.0106 55.9378 56.4106 55.2933C56.041 54.8503 55.5207 53.6229 55.2496 53.0604C54.4121 51.3245 53.6457 49.4464 52.7785 47.7315C51.1879 47.7167 49.5981 47.7229 48.0075 47.7487C48.3559 49.4761 48.6903 51.2058 49.0106 52.9386C49.1309 53.5808 49.2246 54.2237 49.3575 54.8636C49.8012 54.7878 52.3059 54.7011 52.2809 55.3058C52.0403 55.6729 49.5481 56.8651 49.0387 57.2011C48.3535 57.6534 47.9176 57.2151 47.6067 56.6128C47.5106 56.4269 47.634 56.2909 47.7082 56.13C47.566 55.6276 47.2176 54.7636 47.027 54.2456L45.9379 51.2026L45.152 48.9519C45.0254 48.5878 44.8746 48.0722 44.6949 47.7425L42.5278 47.7495C42.1293 48.2901 41.7418 48.9183 41.3223 49.4417C39.9403 51.1659 38.5457 52.8722 37.1824 54.612C37.4559 55.0347 38.9496 56.8011 38.877 57.1667C38.859 57.2573 38.8043 57.3667 38.7176 57.4081C38.534 57.4956 38.2512 57.3823 38.0832 57.305C37.3606 56.9753 34.7379 55.0706 34.4879 54.3237C34.3614 53.9448 35.3754 53.4183 35.609 53.194C35.7418 53.0667 35.8387 52.887 35.9348 52.7315C36.9778 51.0354 37.834 49.2331 38.7004 47.4425C34.1996 47.4019 29.6989 47.3948 25.1981 47.4214C25.1957 47.9589 25.3035 50.7511 25.1043 51.0222C24.9192 51.2745 24.6239 51.2769 24.341 51.3073C24.2074 52.419 24.066 53.53 23.9168 54.6401C23.852 55.1511 23.8121 55.6745 23.7356 56.1808C24.2184 56.2597 25.6754 56.6214 25.7114 57.2104L25.6496 57.2745C25.3957 57.3128 24.8309 57.2901 24.5434 57.2894L22.384 57.2862C22.2098 56.4011 22.5207 56.4597 22.5043 55.8292C22.4637 54.3167 22.3957 52.7909 22.3489 51.2776C21.7778 51.2714 21.2059 51.2761 20.6348 51.2901C20.4793 51.5761 20.1528 52.0401 19.966 52.3284C19.3418 53.2925 18.6981 54.2433 18.0356 55.1815C18.0926 55.2331 18.1473 55.2862 18.202 55.3409C18.5192 55.662 19.8684 56.8956 19.3621 57.3542C19.1145 57.344 16.7356 55.7909 16.3465 55.5175C16.477 55.3237 17.1293 54.4487 17.184 54.3315C17.6239 53.38 17.9168 52.2675 18.3371 51.2854C18.1598 51.0597 18.077 51.1425 18.0395 50.7597C17.9973 50.33 18.016 49.9058 18.0168 49.4745L18.0137 47.405C12.6106 47.3503 7.18713 47.4644 1.78167 47.412C1.62073 47.4104 1.27073 47.4323 1.14182 47.387C1.1051 47.2839 1.10276 47.3331 1.14885 47.2347C1.6137 47.1901 2.44495 47.2253 2.95354 47.2237C4.24963 47.2175 5.54651 47.219 6.8426 47.2292L18.0215 47.219C18.0403 46.7534 18.0246 46.2159 18.0215 45.744C16.7957 45.6948 15.2731 45.7331 14.0254 45.7308L5.39338 45.7347L2.62854 45.7308C2.27776 45.7331 1.44651 45.7737 1.15979 45.7308C1.11135 45.6417 1.12385 45.6909 1.15198 45.5729C1.35198 45.4683 7.39417 45.5495 8.29104 45.5526C8.79026 44.9745 9.00745 44.855 9.75432 44.737C9.70198 43.6878 9.74729 42.3526 9.74338 41.2769C9.7387 40.0745 9.69182 38.5644 9.75667 37.3769C8.8176 38.1058 7.51526 38.469 6.35354 38.6323C4.87542 38.8456 3.36995 38.7456 1.93323 38.3386C1.70588 38.2745 1.35354 38.1917 1.17385 38.0573L1.16995 37.987C1.3301 37.9019 1.86135 38.1331 2.06838 38.1894C2.78245 38.387 3.51682 38.5065 4.25667 38.544C5.83401 38.6394 8.46292 38.2815 9.67698 37.1909L9.71838 37.1526C9.76604 36.8667 9.76292 36.5667 9.76838 36.2761C8.82307 35.6284 9.11057 34.4425 10.1629 34.4339C10.4356 34.4315 10.6973 34.5425 10.884 34.7409C11.3879 35.2729 11.0567 35.855 10.6028 36.2659C10.6254 36.6503 10.6176 36.9386 10.6059 37.3214C10.7543 37.4581 10.8739 37.5487 11.0567 37.6401C12.8278 38.5276 14.9989 38.6839 16.9364 38.3722C17.5512 38.273 18.1551 38.0878 18.7387 37.9104C18.8051 37.7448 18.8785 37.5104 18.9371 37.3362C18.9957 37.1917 19.0504 37.0526 19.1184 36.912L19.1121 36.8683C19.0504 36.4605 18.9364 36.0737 18.8778 35.6573C18.6879 34.3073 18.541 32.3206 19.3778 31.1526C19.4582 31.0409 19.6582 30.8222 19.7512 30.7183C19.4223 30.6667 18.1989 30.5558 18.3473 30.0519C18.6098 29.162 18.8676 28.2854 19.0106 27.3659C19.2246 26.0487 20.0809 25.7901 21.2489 26.1003C22.3785 26.4003 22.4801 27.005 22.3434 28.0651C22.2356 28.9019 22.5317 29.4683 22.734 30.2229C22.8199 30.5425 21.8059 30.7534 21.5114 30.7815C23.0051 32.555 23.0481 33.3628 22.916 35.7237C22.8567 36.7815 22.5801 36.7034 22.8731 37.7769C25.7278 39.1034 28.9239 38.8972 31.4496 36.9792C31.4684 36.7065 31.4981 36.58 31.5567 36.3144C31.3067 36.1917 31.0403 36.0394 30.9535 35.7526C30.5574 34.4433 32.3989 33.9722 32.7731 35.2058C32.9028 35.6347 32.5293 36.1128 32.2035 36.3714C32.2535 36.6503 32.266 36.7573 32.2715 37.0401C34.2668 38.8175 38.0278 38.9651 40.352 37.794C40.3207 36.5534 40.3043 35.312 40.3028 34.0714C40.2879 32.5534 40.077 30.7854 41.2176 29.5714C41.6379 29.1237 42.1832 28.8815 42.7817 28.7675C42.6778 28.5229 42.6457 28.4073 42.5778 28.1534H42.5762Z" fill="#002C6E"/>
<path d="M40.3193 38.0282L40.4037 37.9923C40.449 37.8056 40.4521 36.9814 40.4576 36.7509C40.4818 35.8493 40.4928 34.9478 40.492 34.0454C40.4896 32.4103 40.2725 30.154 41.8639 29.2728C43.7318 28.2392 45.1865 29.6837 45.6514 31.4228C45.9248 32.4439 46.1756 33.3548 46.5107 34.3368C47.1498 35.697 47.8857 37.0337 48.4834 38.4173C48.6357 38.7696 48.8592 39.2103 48.9631 39.5696C48.6498 39.8939 48.3014 40.1142 48.0084 40.4165C47.7881 40.254 47.4482 39.8314 47.2709 39.6017C45.824 37.7321 44.0029 36.0501 43.2607 33.7478C43.1873 33.5189 42.542 31.4673 42.5357 31.4611L42.4693 31.4736C42.4115 31.7001 42.5584 32.1228 42.6201 32.3571C42.91 33.454 43.3264 34.6454 43.8912 35.6275C44.2178 36.1946 44.7396 36.8095 45.1592 37.3251L46.7834 39.3009C46.8279 40.4212 46.9154 41.4634 46.8131 42.5751C46.7936 42.4384 46.817 42.422 46.7381 42.3517C46.4553 42.3095 45.0654 42.3032 44.8021 42.3501L44.7576 42.4298C44.7107 42.354 44.7396 42.3884 44.6498 42.3439L44.5561 42.3923C44.535 42.3743 44.5139 42.3564 44.4936 42.3376C43.5201 42.3267 41.7295 42.2876 40.835 42.3376C40.7693 42.3986 40.7865 42.3665 40.7662 42.4243L40.7162 42.3587L40.6068 42.3603C40.5654 42.354 40.492 42.3321 40.449 42.3204C40.2256 42.0462 40.4865 38.6392 40.3193 38.0259V38.0282Z" fill="#FFB700"/>
<path d="M19.1719 37.1265L20.1414 37.164C20.2954 37.8741 21.1985 41.9382 21.0641 42.3171C20.8844 42.3226 20.6485 42.3444 20.5446 42.5062C20.2086 43.0288 20.111 43.9827 20.0086 44.5882C19.6625 44.5858 19.0664 44.5983 18.7383 44.5741L18.6383 44.5679C18.1032 44.7437 18.036 45.0335 18.0055 45.5499C16.0469 45.5577 14.0875 45.5554 12.1289 45.5437C11.7297 44.9569 11.261 44.839 10.6016 44.7819C10.5743 42.4147 10.5883 39.9718 10.6016 37.603C12.5821 38.6858 14.8219 38.9116 17.0282 38.5358C17.5446 38.4476 18.1555 38.2694 18.6766 38.1436C18.6375 38.3905 18.6102 38.671 18.5805 38.9218C18.6016 39.0288 18.6102 39.1319 18.6586 39.2249C18.7649 38.4093 18.875 37.9124 19.1727 37.1272L19.1719 37.1265Z" fill="#FBFCFF"/>
<path d="M19.1721 37.1265L20.1416 37.164C20.2955 37.8741 21.1986 41.9382 21.0642 42.3171C20.8846 42.3226 20.6486 42.3444 20.5447 42.5062C20.2088 43.0288 20.1111 43.9827 20.0088 44.5882C19.6627 44.5858 19.0666 44.5983 18.7385 44.5741C18.6307 42.8257 18.5424 40.9647 18.658 39.2249C18.7643 38.4093 18.8744 37.9124 19.1721 37.1272V37.1265Z" fill="#FFB700"/>
<path d="M18.5799 38.9219C18.601 39.0289 18.6096 39.132 18.658 39.225C18.5424 40.9648 18.6307 42.8258 18.7385 44.5742L18.6385 44.568C18.5729 42.5031 18.4033 41.0156 18.5799 38.9219Z" fill="#002C6E"/>
<path d="M65.859 38.5563C66.8199 38.3157 67.7144 38.0204 68.5098 37.4048V44.6751C67.8176 44.779 67.3965 44.8438 67.2238 45.597L66.1613 45.5907C65.6051 45.6212 64.7363 45.5962 64.1519 45.597H60.1332C60.0988 45.4556 60.0488 45.3048 60.0066 45.1634C59.6629 44.8392 59.3449 44.7462 58.9137 44.5759C58.8973 42.2251 58.8629 39.7587 58.8832 37.4173C58.9809 37.5071 59.0832 37.5915 59.191 37.6696C59.6519 38.0024 60.2715 38.236 60.8137 38.3923C62.5777 38.9009 64.0777 38.8517 65.8598 38.5563H65.859Z" fill="#D9E4F8"/>
<path d="M65.8594 38.5563C66.8203 38.3157 67.7148 38.0204 68.5102 37.4048V44.6751C67.818 44.779 67.3969 44.8438 67.2242 45.597L66.1617 45.5907C66.0516 45.5142 63.6594 45.5478 63.2891 45.5478C63.4188 45.2087 63.7727 44.6009 63.9523 44.2563C64.3258 43.5548 64.65 42.8282 64.9219 42.0821C65.2805 41.0993 65.6008 40.0845 65.8578 39.0696C65.9086 38.8681 65.9477 38.7493 65.8586 38.5571L65.8594 38.5563Z" fill="#FBFCFF"/>
<path d="M32.2557 37.3267C34.8596 38.9728 37.4596 39.1704 40.3197 38.0282C40.4869 38.6415 40.226 42.0485 40.4494 42.3228C40.4924 42.3345 40.5658 42.3563 40.6072 42.3626C40.4627 43.4532 40.2111 44.5376 39.7557 45.5392C37.6666 45.5579 35.5338 45.5282 33.4424 45.5196C33.2979 44.7603 32.9916 44.8688 32.3096 44.8571C32.2424 44.2821 32.2697 42.9892 32.2674 42.3665L32.2549 37.3267H32.2557Z" fill="#D9E4F8"/>
<path d="M22.9033 38.0016C25.8939 39.2437 28.7736 39.075 31.4666 37.2266C31.4854 39.7398 31.5166 42.3797 31.4822 44.8914C30.6682 44.8594 30.3041 44.6836 29.99 45.5398L25.1979 45.5219C25.1439 44.4055 24.7783 44.6781 23.9439 44.5688C23.9197 44.0695 23.7947 43.3273 23.7221 42.8258C23.583 41.5937 23.1994 39.2234 22.9033 38.0008V38.0016Z" fill="#D9E4F8"/>
<path d="M55.6535 42.9569C56.4082 42.9264 56.5301 43.1944 56.8137 43.8366C57.0809 44.4421 57.3215 45.0702 57.5973 45.6718L59.6566 50.2022C60.0215 50.9991 60.4207 51.8061 60.7543 52.6155C60.8355 52.8194 60.8355 53.0077 60.7941 53.2163C60.6598 53.8944 60.1191 54.121 59.5684 54.4093C59.1754 54.6147 58.7637 54.8155 58.3871 55.0569L58.3238 55.0983L58.0777 54.9264C57.873 54.8272 57.6855 54.7835 57.4668 54.7233C56.2723 52.3694 55.2402 49.778 54.0809 47.3991C53.752 46.7241 53.0363 45.0116 52.6309 44.5171C53.1957 44.1241 55.0113 43.0921 55.6535 42.9569Z" fill="#FFB700"/>
<path d="M18.6167 44.7861C19.9987 44.8025 21.3769 44.7838 22.7605 44.79C23.3503 44.7924 24.0167 44.7666 24.6058 44.8361C24.6956 44.8471 24.8847 44.9064 24.9214 45.0025C24.9753 45.1424 24.9995 45.3025 25.0058 45.4525C25.0011 47.1564 25.0112 48.8611 25.0097 50.565C25.0097 50.6963 24.9925 50.8244 24.9433 50.9463C24.8378 51.0486 24.7816 51.0486 24.6386 51.0838C23.2409 51.076 21.8433 51.076 20.4456 51.083C19.8464 51.0861 19.1472 51.1064 18.5456 51.0713C18.4112 51.0635 18.3284 50.965 18.2558 50.8635C18.1792 50.5213 18.1675 45.5268 18.2394 45.2478C18.2995 45.0166 18.4144 44.9033 18.6159 44.7861H18.6167Z" fill="#FFB700"/>
<path d="M57.9996 37.4365C58.0426 37.5154 58.0137 43.9279 58.0129 44.6123C57.7645 44.7623 57.727 44.7732 57.5199 44.9795C57.2691 44.4646 57.0848 43.9193 56.8277 43.4139C56.1762 42.1303 54.8629 43.067 54.0074 43.4936C53.2566 43.8678 52.6121 44.2826 51.9074 44.6873C51.6879 44.0756 51.1027 42.9271 50.8035 42.2943C50.6645 42.0389 50.6168 41.6678 50.5246 41.5787C50.2613 41.3232 50.1262 41.1998 49.9043 40.892L49.8582 40.8272C50.0113 40.9303 50.5309 41.3209 50.7402 41.2818C51.034 41.2272 51.0809 40.7514 50.8715 40.5248C50.4723 40.0912 49.6285 39.7014 49.0996 39.4154C48.8691 38.6709 48.927 38.267 48.9082 37.4904C51.1035 39.0443 55.2855 39.1357 57.6199 37.742C57.7441 37.6678 57.8895 37.5357 57.9988 37.4381L57.9996 37.4365Z" fill="#D9E4F8"/>
<path d="M40.7666 42.4269C40.7869 42.3683 40.7697 42.4011 40.8354 42.3401C41.7307 42.2894 43.5213 42.3292 44.4939 42.3401C44.515 42.3581 44.5361 42.3761 44.5564 42.3948C44.3494 43.4362 44.0705 44.8573 43.6127 45.8175C43.2908 46.3917 42.8846 46.9191 42.5158 47.4644C41.3479 49.1948 40.0182 50.7847 38.7064 52.4073C38.1682 53.073 37.6033 53.8745 36.9674 54.4456C36.8869 54.5175 36.7666 54.505 36.6705 54.4831C36.1838 54.3222 35.865 53.8308 35.7236 53.3737C36.9291 51.5808 37.8275 49.6253 38.8096 47.705C39.2611 46.823 39.8572 45.8909 40.201 44.9675C40.4705 44.2456 40.6603 43.1964 40.765 42.4276L40.7666 42.4269Z" fill="#FBFCFF"/>
<path d="M44.7578 42.4302L44.8023 42.3506C45.0656 42.3037 46.4555 42.3099 46.7383 42.3521C46.8172 42.4224 46.7937 42.4388 46.8133 42.5756C46.9789 43.6146 47.2141 44.6951 47.4195 45.7295L48.5836 51.6263C48.7602 52.5584 49.1391 54.4357 49.2 55.3287C48.9852 55.5881 48.2906 56.0693 47.9461 55.999C47.7047 55.7162 46.9898 53.5826 46.8336 53.1435L45.2969 48.8123C44.907 47.6927 44.4859 46.3881 43.9961 45.3232C44.3359 44.2701 44.5141 43.5068 44.7586 42.4302H44.7578Z" fill="#FBFCFF"/>
<path d="M25.3298 45.7373L39.6313 45.7397C39.454 46.1334 39.2587 46.4912 39.0555 46.8717L38.8594 47.242L25.1977 47.2139C25.1962 46.9389 25.1493 45.9553 25.229 45.7631L25.3298 45.7373Z" fill="#FBFCFF"/>
<path d="M20.4842 31.8213C20.9818 31.8299 21.5256 32.1174 21.574 32.6432C21.8428 35.5307 21.9272 38.4807 22.1998 41.3658C21.8342 41.2744 21.5576 41.2752 21.2053 41.3955L21.2146 41.4643C21.1764 41.415 21.0654 40.7658 21.0443 40.6518L20.6404 38.5439L19.9732 35.1627C19.8334 34.4744 19.6811 33.7971 19.5795 33.1018C19.4826 32.4346 19.8303 31.9705 20.4842 31.8213Z" fill="#FBFCFF"/>
<path d="M48.1658 40.9414C48.6471 41.6305 49.215 42.1758 50.0822 42.2758C50.4799 42.8414 51.1322 44.1875 51.4713 44.8609C51.2049 45.1867 51.2275 45.2125 51.4314 45.5594L50.8502 45.5617C48.8643 45.5766 49.1439 45.4898 47.4658 44.5922C47.7236 43.3344 47.9416 42.2102 48.1658 40.9414Z" fill="#D9E4F8"/>
<path d="M52.4933 44.5811C52.8667 44.9709 55.03 49.9373 55.3698 50.6889L57.2269 54.7154C56.955 54.8326 56.8644 54.8771 56.6175 55.0381C56.5698 55.0787 56.6011 55.0592 56.5136 55.0795C56.1433 54.7818 54.4589 50.7881 54.0995 50.067C53.4659 48.7959 52.7597 47.1709 52.13 45.8506C52.0667 45.7186 51.9964 45.5147 52.0081 45.3693C52.0144 44.8654 52.1011 44.8006 52.4925 44.5811H52.4933Z" fill="#FFB700"/>
<path d="M20.0362 30.75L21.2784 30.8062C21.6128 31.1617 21.9135 31.5469 22.1768 31.9578C23.0292 33.3023 22.8792 35.4828 22.5409 36.968L22.0753 36.9797C22.0143 36.1937 21.8995 32.9766 21.7221 32.4828C21.5956 32.1305 21.255 31.8461 20.9221 31.7C20.162 31.5414 19.3714 32.0609 19.38 32.8656C19.3878 33.5789 19.6128 34.418 19.7635 35.1227C19.8956 35.7359 20.0135 36.3523 20.1151 36.9711C19.8948 36.9727 19.5323 36.9961 19.3448 36.9062C19.0526 36.5445 18.869 33.8695 18.9401 33.3047C19.0987 32.0406 19.0596 31.6031 20.0362 30.75Z" fill="#FBFCFF"/>
<path d="M47.6092 45.7346C48.9279 45.6932 50.4803 45.7315 51.8209 45.73C52.1209 46.28 52.4342 46.9823 52.7037 47.5542L47.9654 47.5526C47.8592 46.9542 47.6928 46.3198 47.6084 45.7346H47.6092Z" fill="#FBFCFF"/>
<path d="M22.5371 51.2766C23.0754 51.2672 23.6129 51.2688 24.1512 51.2805C24.0051 52.7039 23.7184 54.3 23.6262 55.6953C23.6074 55.8539 23.5988 56.0274 23.5879 56.1875C23.2809 56.1563 23.0035 56.1516 22.6949 56.1453C22.6738 54.5125 22.5605 52.8766 22.5371 51.2758V51.2766Z" fill="#FBFCFF"/>
<path d="M22.084 37.1771L22.5746 37.167C23.0098 39.0287 23.366 40.9068 23.6426 42.7982L23.7207 42.8264C23.7934 43.3279 23.9176 44.0701 23.9426 44.5693L23.8457 44.599C23.8059 44.5975 23.5652 44.5842 23.5559 44.5529C23.3363 43.8217 23.3699 43.0186 22.9629 42.3482C22.7723 42.2857 22.6723 42.2654 22.5059 42.1498C22.4676 42.0318 22.452 41.935 22.3629 41.8522C22.4527 41.6397 22.127 37.7068 22.084 37.1771Z" fill="#FFB700"/>
<path d="M23.6436 42.7983L23.7217 42.8265C23.7943 43.328 23.9186 44.0702 23.9436 44.5694L23.8467 44.5991C23.7865 43.9983 23.7186 43.3976 23.6436 42.7983Z" fill="#002C6E"/>
<path d="M18.5613 51.2861L20.427 51.2885C19.7324 52.2893 19.116 53.3275 18.3934 54.3229C18.1988 54.6025 18.0574 54.8221 17.8855 55.1166C17.6621 54.9924 17.4559 54.8346 17.248 54.6846C17.6988 53.6979 18.1285 52.3455 18.5613 51.2869V51.2861Z" fill="#FBFCFF"/>
<path d="M35.5404 53.4837L35.5904 53.5142C35.9373 54.3938 36.0959 54.4681 36.9803 54.7188C37.2865 55.0313 38.6154 56.7485 38.6553 57.1118C38.5967 57.236 38.642 57.1931 38.5154 57.2454C38.3318 57.2306 38.235 57.1618 38.0717 57.0759C37.1803 56.6149 35.1271 55.0884 34.624 54.2298C34.9264 53.9056 35.1756 53.7345 35.5412 53.4829L35.5404 53.4837Z" fill="#FBFCFF"/>
<path d="M49.6529 55.027L49.7006 55.0231C50.0779 54.9957 51.8076 55.009 52.0615 55.2293C52.0084 55.3692 49.9404 56.5004 49.66 56.6598C49.4795 56.7653 49.2982 56.8676 49.1154 56.9684C48.2975 57.409 48.0717 57.0661 47.7217 56.3598C48.5693 55.9661 49.1357 56.0082 49.449 55.0973C49.467 55.0457 49.5904 55.0395 49.6529 55.0262V55.027Z" fill="#FBFCFF"/>
<path d="M58.6595 36.8359L58.665 36.8383C58.7376 36.9281 58.7064 39.35 58.7064 39.6461C58.7079 41.3625 58.7087 43.0828 58.7103 44.8L58.2556 44.8047L58.2243 44.7758C58.1767 44.5438 58.204 42.8234 58.2048 42.4297C58.2009 40.575 58.2087 38.7195 58.229 36.8648L58.6587 36.8359H58.6595Z" fill="#FBFCFF"/>
<path d="M68.7104 36.8452C68.8752 36.8351 69.0385 36.8499 69.2041 36.8593C69.1768 37.7726 69.1963 38.7694 69.1955 39.689L69.194 44.8522L68.7104 44.8647C68.6502 42.2663 68.7018 39.4577 68.7104 36.8452Z" fill="#FBFCFF"/>
<path d="M9.95409 36.8148L10.4189 36.8125C10.3924 39.4789 10.3869 42.1453 10.4017 44.8109L9.95018 44.7844C9.90096 42.8008 9.96502 40.793 9.93534 38.807C9.92596 38.1547 9.92205 37.4656 9.95487 36.8141L9.95409 36.8148Z" fill="#FBFCFF"/>
<path d="M23.0394 43.4017L23.0511 43.4048C23.1488 43.5353 23.291 44.3524 23.3371 44.5845L20.4972 44.5892C20.4051 44.5892 20.3902 44.5845 20.2988 44.5712C20.1801 44.3813 20.3957 43.6603 20.4535 43.4149C21.3152 43.4188 22.1777 43.4149 23.0394 43.4009V43.4017Z" fill="#FFB700"/>
<path d="M31.681 36.6429C31.806 36.6413 31.8849 36.6265 31.9942 36.6859C32.0958 36.8874 32.063 44.1757 32.081 44.896C31.9419 44.896 31.8114 44.9171 31.7067 44.8398C31.6599 44.6429 31.6771 42.9773 31.6763 42.6304L31.6817 36.6421L31.681 36.6429Z" fill="#FBFCFF"/>
<path d="M49.1305 39.6943C49.2836 39.7217 49.7078 39.9506 49.8625 40.049C50.1367 40.2232 51.0367 40.6279 50.7695 41.0592C50.4602 41.1428 50.0227 40.6092 49.6688 40.667L49.643 40.7584C49.6875 41.0139 49.9117 41.2162 50.0906 41.4412C49.9641 41.5318 49.8687 41.61 49.7492 41.7107C49.7062 41.8693 49.8578 41.8193 49.8648 42.0123C49.7688 42.0381 49.6617 42.0396 49.5742 41.9904C48.9148 41.6178 48.45 41.1662 48.1641 40.4873C48.4453 40.2389 48.8281 39.9459 49.1289 39.6951L49.1305 39.6943Z" fill="#FBFCFF"/>
<path d="M47.0082 39.6092C47.3082 39.8045 47.4855 40.2982 48.0207 40.6256L47.4488 43.7576L47.3457 44.1646C47.2566 43.8709 46.966 42.6514 46.9512 42.36C46.9676 42.3522 47.023 42.3287 47.0355 42.3178C47.1184 42.2451 47.0082 39.9193 47.0074 39.6084L47.0082 39.6092Z" fill="#FBFCFF"/>
<path d="M43.9203 45.6279C44.1437 45.9404 44.5094 47.1396 44.6375 47.5498L43.418 47.5514L42.6719 47.5498C43.0531 46.9842 43.6078 46.2068 43.9195 45.6279H43.9203Z" fill="#FBFCFF"/>
<path d="M68.7498 34.6492C69.1654 34.5547 69.5787 34.8156 69.6724 35.2313C69.7662 35.6469 69.506 36.0602 69.0904 36.1539C68.6748 36.2477 68.2623 35.9875 68.1685 35.5719C68.0748 35.1563 68.3349 34.7438 68.7498 34.6492Z" fill="#FBFCFF"/>
<path d="M17.0535 54.8174C17.3949 55.108 17.8777 55.3205 18.1934 55.6439C18.3598 55.8143 19.5066 56.8424 19.2277 57.1072L19.0863 57.0314C18.352 56.5666 17.3066 55.9713 16.6387 55.4728L17.0535 54.8174Z" fill="#FBFCFF"/>
<path d="M10.0636 34.612C10.3401 34.5784 10.6136 34.698 10.7776 34.9238C10.9417 35.1495 10.9714 35.4456 10.8542 35.6995C10.737 35.9527 10.4925 36.123 10.2144 36.1448C9.7964 36.1769 9.42999 35.8698 9.38858 35.4534C9.34718 35.0363 9.64718 34.6636 10.0628 34.6136L10.0636 34.612Z" fill="#FBFCFF"/>
<path d="M58.397 34.644C58.8048 34.5979 59.1743 34.8893 59.2228 35.2971C59.272 35.7049 58.9821 36.0752 58.5751 36.1268C58.1642 36.1783 57.7899 35.8861 57.7407 35.4752C57.6915 35.0643 57.986 34.6908 58.3978 34.644H58.397Z" fill="#FBFCFF"/>
<path d="M48.2073 34.6845C48.5901 34.5525 49.0081 34.7501 49.1487 35.129C49.2893 35.5087 49.101 35.9314 48.7252 36.0798C48.4745 36.179 48.1893 36.1353 47.9799 35.9642C47.7706 35.7939 47.6706 35.5228 47.7174 35.2571C47.7643 34.9915 47.9518 34.772 48.2073 34.6837V34.6845Z" fill="#FBFCFF"/>
<path d="M31.6501 34.6946C32.0439 34.5876 32.4509 34.8188 32.5603 35.2118C32.6697 35.6055 32.44 36.0134 32.047 36.1243C31.6509 36.236 31.24 36.0048 31.1298 35.6087C31.0197 35.2126 31.2532 34.8024 31.6501 34.6938V34.6946Z" fill="#FBFCFF"/>
<path d="M21.1862 42.9111C21.1737 42.7143 21.1636 42.5174 21.1558 42.3205C21.137 41.7455 21.294 41.4322 21.9058 41.4979C22.1878 41.5283 22.2144 41.6463 22.3636 41.8526C22.4526 41.9354 22.4683 42.0315 22.5065 42.1502C22.4972 42.5432 22.4831 42.5744 22.3003 42.9244L22.3425 42.8268L22.2956 42.9229L22.3253 42.8471L22.2909 42.9088L21.1854 42.9127L21.1862 42.9111Z" fill="#FBFCFF"/>
<path d="M22.6137 56.3267C23.5669 56.386 24.6669 56.3899 25.4153 57.0415L25.3848 57.0915C24.9934 57.0923 22.7036 57.1587 22.52 56.9985C22.47 56.7673 22.5465 56.5485 22.6137 56.3267Z" fill="#FBFCFF"/>
<path d="M68.0129 45.0307C68.0504 45.0284 68.0879 45.026 68.1254 45.0252C68.5066 45.0159 68.9121 45.0338 69.2887 45.0268C70.0059 45.0135 70.2512 45.0979 70.7598 45.5854L70.0957 45.5877C69.6738 45.5877 67.7793 45.6159 67.466 45.5549L67.4512 45.4877C67.5918 45.126 67.6301 45.0963 68.0129 45.0307Z" fill="#FBFCFF"/>
<path d="M57.2019 55.3764C57.5472 55.2662 57.9168 55.4576 58.0269 55.8029C58.1371 56.1482 57.9464 56.5178 57.6011 56.6279C57.2558 56.7389 56.8855 56.5482 56.7754 56.2021C56.6652 55.856 56.8558 55.4865 57.2019 55.3764Z" fill="#FBFCFF"/>
<path d="M30.5387 45.0727C31.041 45.0719 33.0129 44.8875 33.2332 45.3172C33.2348 45.4813 33.266 45.425 33.1855 45.5219L32.9387 45.5321C32.0168 45.5399 31.0957 45.5407 30.1738 45.5336C30.1949 45.4883 30.2168 45.4438 30.2387 45.3993C30.3238 45.2266 30.3496 45.1368 30.5387 45.0727Z" fill="#FBFCFF"/>
<path d="M9.60566 44.9873C10.5354 44.9521 11.1932 44.9084 11.8799 45.5256L10.9182 45.5279L8.56738 45.5341C8.92832 45.192 9.09941 45.0654 9.60488 44.9873H9.60566Z" fill="#FBFCFF"/>
<path d="M57.92 44.9954C58.4684 45.0017 59.4965 44.8157 59.8661 45.3384C59.9278 45.4259 59.895 45.4743 59.8614 45.5563C59.6973 45.6329 59.6903 45.6001 59.4817 45.5868C59.0356 45.5743 58.2114 45.5509 57.7848 45.597C57.6981 45.4142 57.6075 45.2907 57.6457 45.1063C57.7309 45.0212 57.8004 45.0204 57.9192 44.9954H57.92Z" fill="#FBFCFF"/>
<path d="M48.2988 36.7633C48.4543 36.7579 48.5168 36.7586 48.6715 36.7743L48.7121 36.8266C48.7355 36.9915 48.6215 37.0594 48.5816 37.2282C48.6277 37.2696 48.6637 37.3032 48.7074 37.3477C48.7395 37.554 48.7426 38.2711 48.7098 38.4696C48.5879 38.1586 48.3629 37.7875 48.3082 37.4758C48.3551 37.3102 48.3449 37.3586 48.4965 37.2243L48.4816 37.1516C48.2668 36.9829 48.3152 37.0336 48.2996 36.7641L48.2988 36.7633Z" fill="#FBFCFF"/>
<path d="M58.2139 36.336C58.3662 36.3336 58.4646 36.325 58.6131 36.3547C58.7178 36.4532 58.685 36.4344 58.7162 36.611C58.5662 36.6258 58.4514 36.6493 58.3061 36.6118C58.2068 36.5055 58.2381 36.5149 58.2146 36.3352L58.2139 36.336Z" fill="#FBFCFF"/>
<path d="M9.96754 36.3405C10.123 36.3366 10.2011 36.3272 10.3519 36.3569C10.4504 36.4561 10.4144 36.3936 10.4168 36.5756C10.2863 36.6014 10.1465 36.6452 10.0238 36.6108C9.94098 36.5061 9.97067 36.5108 9.96754 36.3405Z" fill="#FBFCFF"/>
<path d="M47.5137 45.1196C47.627 45.2024 47.902 45.4149 47.9434 45.536C47.8074 45.5493 47.7027 45.5798 47.5918 45.511C47.5121 45.4063 47.5223 45.2579 47.5145 45.1196H47.5137Z" fill="#FBFCFF"/>
<path d="M30.12 3.99649C30.1185 3.53867 30.0716 2.06758 30.1692 1.69102C30.2317 1.45039 30.3567 1.23086 30.531 1.05352C30.731 0.847265 30.9833 0.711328 31.2708 0.696485C31.9403 0.66211 32.6435 0.678515 33.3146 0.680078L36.9302 0.678516L44.7505 0.681641C45.9286 0.682422 47.113 0.672266 48.2864 0.676173C49.0864 0.679298 49.838 1.00742 49.8896 1.88711C49.9161 2.34102 49.9013 2.76758 49.9036 3.21914L49.9224 5.46055V13.1246C49.9146 13.8934 49.9138 14.6621 49.9208 15.4309C49.9231 16.352 50.0567 17.4613 48.9778 17.8566C48.8403 17.9074 48.5981 17.9191 48.4505 17.9176C47.2966 17.909 46.1278 17.9059 44.9755 17.9066L37.0856 17.909H33.3716C32.7302 17.9105 32.0919 17.9137 31.4497 17.9012C29.8669 17.8707 30.1286 16.4176 30.1286 15.2621L30.1239 12.7371L30.1224 3.9957L30.12 3.99649Z" fill="#002C6E"/>
<path d="M38.1734 0.855469L45.1172 0.861719H47.3023C47.8836 0.864844 48.8789 0.782032 49.3352 1.17344C49.8883 1.64766 49.7281 2.68359 49.7266 3.37188L49.7328 6.15547L49.7352 16.1063C49.7352 16.6414 49.7633 16.9945 49.3437 17.3938C49.1953 17.5352 48.9539 17.6867 48.7508 17.7008C48.0242 17.7484 47.2156 17.7258 46.4859 17.725L41.9242 17.7219L34.8359 17.7352C33.7273 17.7391 32.6156 17.7594 31.5086 17.7375C30.7609 17.7227 30.3219 17.3703 30.3148 16.5969C30.3047 15.4367 30.3047 14.2781 30.3047 13.118L30.3102 6.94844L30.3133 3.65391C30.3109 3.06328 30.2984 2.47266 30.325 1.88281C30.3453 1.43281 30.7945 0.938281 31.2422 0.895312C31.9297 0.828906 32.6586 0.876563 33.3555 0.874219L38.1734 0.85625V0.855469Z" fill="#FBFCFF"/>
<path d="M39.813 4.7493C40.6201 4.68211 40.8732 5.17743 41.3912 5.70477L42.9029 7.2493C43.4498 7.81883 44.0107 8.37118 44.5279 8.96727C44.8584 9.34852 44.8466 9.89227 44.5123 10.2673C44.3529 10.447 44.1263 10.554 43.8857 10.5618C43.6966 10.5696 43.4146 10.4876 43.2732 10.3766C42.4748 9.75243 41.7498 8.87977 40.9943 8.19149C40.9943 9.14383 41.0896 14.1774 40.863 14.6821C40.7295 14.979 40.4693 15.1055 40.1771 15.2102C39.6552 15.247 39.1545 14.9954 39.0873 14.4493C39.0037 13.7649 39.0365 13.0079 39.0357 12.3181L39.0459 8.17586C38.4287 8.76258 37.4115 10.0673 36.7271 10.429C36.4857 10.5571 36.206 10.6063 35.9427 10.5188C35.6888 10.4345 35.4654 10.2079 35.3552 9.96805C35.2576 9.75633 35.2396 9.49696 35.3318 9.28055C35.4779 8.93602 38.8224 5.46883 39.3091 5.04461C39.4693 4.90477 39.6162 4.82743 39.8138 4.7493H39.813Z" fill="#002C6E"/>
</svg>
