<svg width="80" height="75" viewBox="0 0 80 75" fill="none" xmlns="http://www.w3.org/2000/svg">
<path d="M7.30508 10.2905L52.8324 10.3093L67.3816 10.3108L71.6074 10.3187C72.159 10.3194 73.3043 10.289 73.7941 10.3452L73.8902 10.3812C73.9465 10.6671 73.923 12.4069 73.923 12.8538L73.9262 18.7366L73.9387 40.4632H75.9652C76.2496 40.4632 76.7957 40.4007 77.0105 40.5765L76.9809 40.6218C76.666 40.6804 75.7879 40.6272 75.4098 40.6233H72.0613L64.573 40.6179C63.2363 40.6194 61.7715 40.6577 60.4449 40.6226L59.2645 40.6335C59.3012 41.4218 59.0996 41.7468 59.1629 42.5171C59.2793 43.9397 59.4246 45.3624 59.5527 46.7843L60.2379 54.4858L60.5059 57.4976C60.5449 57.9405 60.6137 58.4663 60.6316 58.8968L60.127 59.0038C60.4605 61.5726 60.873 64.4608 61.1129 67.0226L61.1488 67.164C61.7832 67.521 63.9824 65.7819 64.6769 67.8976C64.0301 68.1702 62.8371 68.4382 62.1191 68.6358C60.8668 68.9804 59.4387 69.4632 58.1777 69.7327C58.0832 69.403 57.827 68.7069 57.916 68.3944C57.9504 68.2749 58.1215 68.2218 58.2394 68.1632C58.0777 67.6499 57.927 66.8491 57.8137 66.3054C57.5996 65.2812 57.3926 64.2554 57.1918 63.228C56.966 62.0827 56.5652 60.4733 56.4254 59.3686C55.2043 59.3522 54.3152 59.3554 53.1137 59.064C53.1777 58.9632 53.2324 58.8522 53.2691 58.7382C53.8684 56.8733 54.3816 54.9812 54.9394 53.103C55.0496 52.7327 55.1785 52.303 55.2285 51.9194C55.2566 51.7046 55.1246 51.4265 55.0332 51.2312C55.1066 50.6937 55.5949 47.9585 55.5277 47.6515C55.2676 47.8343 54.8801 50.4437 54.7902 50.9546C54.5785 50.8468 54.2199 50.6866 53.9988 50.8202V50.8569L54.2934 50.9624C54.3871 50.9952 54.4809 51.0249 54.5629 51.0812C54.7832 51.2319 54.9777 51.5499 54.9965 51.8194C55.0168 52.1093 53.2738 57.9858 53.0184 58.6944C52.9488 58.8874 52.8223 59.2327 52.673 59.3726C52.3488 59.6765 51.4184 59.3179 51.0246 59.2601C49.673 61.2905 48.1699 63.6624 46.9176 65.7655C47.327 66.1233 47.2949 66.2757 47.5254 66.6608C47.6848 66.928 48.4496 66.6772 48.041 67.5296C48.7832 67.9069 49.8324 68.4608 49.7043 69.478C49.6832 69.6429 49.6543 69.7358 49.5191 69.839C49.2762 69.8991 46.5762 68.6194 46.0746 68.4569L46.023 68.4405C45.641 68.5296 45.1457 68.7022 44.7707 68.8327C43.3527 69.3233 41.8043 69.6272 40.4027 70.1405C40.2137 69.0265 39.9934 67.9108 39.8395 66.7897C39.7527 66.1546 39.5676 65.8632 39.2926 65.303C39.0137 64.7296 38.727 64.1593 38.4316 63.5937C37.7801 62.3327 37.1441 61.0632 36.5238 59.7866C35.0004 56.6499 33.534 53.503 31.9441 50.3976L30.909 48.3796C30.734 48.0312 30.5652 47.6655 30.3762 47.3241C30.1176 46.8585 29.6559 46.6663 29.3129 46.2976C28.0785 44.9726 28.1926 43.5593 28.2184 41.9155L28.7941 41.928L28.7887 40.5851C28.5543 40.5819 28.3418 40.6046 28.109 40.6249L28.1465 40.5616C27.627 41.6647 27.1605 42.7812 26.6762 43.8991C26.3965 44.5444 26.0285 44.9343 25.3324 44.5749C25.098 44.9921 24.8668 45.5015 24.6465 45.9374C24.2051 46.7937 23.773 47.6554 23.3504 48.5218C22.7277 49.7772 22.0605 51.0038 21.4379 52.2562C23.7512 53.3202 24.2426 53.603 22.8488 56.1312C22.4566 56.8421 22.0176 57.7147 21.6293 58.4452C20.0723 61.3718 18.5348 64.3093 17.0168 67.2562C16.7676 67.7382 16.5215 68.2335 16.2473 68.6999C16.1684 68.8585 15.9402 69.0468 15.9527 69.2296C16.052 70.2397 14.8168 70.9468 14.091 70.1616C13.5293 69.5538 13.6801 68.9296 14.284 68.4694L7.88477 65.1655C7.8082 65.6272 7.6207 65.9608 7.16367 66.1491C6.65273 66.3585 6.01289 66.0788 5.81523 65.5616C5.56133 64.8976 6.02852 64.4632 6.35117 63.9444C6.49727 63.7077 6.61289 63.4233 6.72305 63.1608C6.88633 63.2483 6.92695 63.2812 7.06914 63.4007C7.55664 62.3335 8.24883 61.0687 8.8043 60.0218L11.3668 55.1749C11.9762 53.9921 12.5973 52.8155 13.2285 51.6444C13.7293 50.6936 14.2152 49.1124 15.573 49.521C16.416 49.7741 17.6215 50.4476 18.4434 50.8366C19.1309 51.1249 20.066 51.5968 20.7793 51.9194C21.9098 49.4608 23.348 46.7655 24.5871 44.328C24.3957 44.1147 24.2621 43.9788 24.152 43.7069C24.0465 43.4515 24.0168 43.171 24.066 42.8983C24.1238 42.5788 24.8434 41.1257 25.0402 40.6405C19.6988 40.5765 14.2316 40.6179 8.88633 40.628L4.68086 40.6358C4.24961 40.6366 3.29023 40.7147 2.95352 40.5655L2.95117 40.5155C3.17852 40.4569 4.19727 40.471 4.4832 40.471L7.31289 40.4733L7.3082 10.2921L7.30508 10.2905Z" fill="#002C6E"/>
<path d="M41.0895 10.464L48.9543 10.4523C51.6566 10.4421 54.359 10.446 57.0605 10.464C57.0957 12.7374 57.109 15.0117 57.1027 17.2859C57.1012 18.5093 57.141 20.0265 57.0863 21.2304C57.8137 21.6499 58.2066 21.9234 58.5582 22.7343C58.6707 23.3546 58.6832 23.5827 58.523 24.1952C58.5676 24.5273 58.5355 24.9148 58.541 25.2523C58.5691 26.9718 58.4918 28.739 58.5504 30.4538C58.0074 30.3281 57.4535 30.1156 56.9504 29.8804C56.7926 29.7921 56.2902 29.3382 56.198 29.1827L56.1707 29.2046C56.0965 29.1523 56.1129 29.1617 56.0527 29.0898C55.8535 29.064 54.3551 28.4023 54.0855 28.282L54.0051 28.3484C54.0145 28.3554 54.0238 28.3617 54.0332 28.3679C54.6082 28.7585 55.341 28.8906 55.9363 29.2421C56.3176 29.4679 56.5738 29.8242 56.8504 30.1609C57.7582 31.2679 58.4168 32.2781 58.7066 33.7085C58.8082 34.2109 58.866 34.7226 58.909 35.2335C58.9832 36.1062 59.2871 41.257 59.0066 41.6921C58.4941 42.4882 57.0176 42.9351 56.1457 43.0726C54.4676 43.3382 52.7621 43.1679 51.1105 42.8249C51.7348 39.8734 52.2262 36.7406 53.7621 34.1062C54.223 33.3163 54.7184 32.5898 55.2191 31.8265C55.5535 31.3179 55.6254 30.7202 55.2816 30.1913C55.0699 29.8679 54.7363 29.6437 54.3574 29.5695C53.9137 29.4757 53.4512 29.5695 53.0793 29.8296C52.584 30.1773 52.2379 30.8195 51.9066 31.3171C50.2715 33.7718 49.5238 35.946 49.0762 38.8648C48.9965 39.3992 48.923 39.9351 48.8559 40.471L45.9434 40.464C44.3496 39.4132 42.6652 38.132 41.0676 37.039C40.5754 36.6749 40.0832 36.3531 39.6035 35.9671C39.6559 35.6531 39.6199 34.1304 39.6215 33.7038L39.634 27.9374L39.6293 17.9226V13.4976C39.6293 12.5109 39.652 11.446 39.6238 10.4656C40.109 10.4679 40.6074 10.4773 41.091 10.4624L41.0895 10.464Z" fill="#FBFCFF"/>
<path d="M54.0051 28.3485C53.2895 28.6212 52.4996 28.3665 51.7723 28.1899C51.4012 28.0774 51.0942 27.8798 50.9387 27.5056C50.5043 26.4595 50.8965 24.9173 51.2457 23.9103C51.6449 22.7579 52.3934 21.8532 53.5199 21.3751C54.6402 20.8993 55.9332 20.7829 57.0863 21.2306C57.8137 21.6501 58.2067 21.9235 58.5582 22.7345C58.6707 23.3548 58.6832 23.5829 58.5231 24.1954C58.5676 24.5274 58.5356 24.9149 58.541 25.2524C58.5692 26.972 58.4918 28.7392 58.5504 30.454C58.0074 30.3282 57.4535 30.1157 56.9504 29.8806C56.7926 29.7923 56.2902 29.3384 56.1981 29.1829L56.1707 29.2048C56.0965 29.1524 56.1129 29.1618 56.0527 29.0899C55.8535 29.0642 54.3551 28.4024 54.0856 28.2821L54.0051 28.3485Z" fill="#002C6E"/>
<path d="M58.5238 24.1951C58.5684 24.5271 58.5363 24.9146 58.5418 25.2521C58.5699 26.9717 58.4926 28.7389 58.5512 30.4537C58.0082 30.3279 57.4543 30.1154 56.9512 29.8803C56.9816 29.317 56.9816 28.3795 56.9652 27.8154C57.866 27.7084 57.9246 27.0467 57.9395 26.2756C57.9488 25.7975 57.9043 25.3404 57.8621 24.8654C58.216 24.642 58.2902 24.5357 58.5246 24.1943L58.5238 24.1951Z" fill="#FFB700"/>
<path d="M54.0859 28.2819L54.1195 28.2537C54.5109 27.9241 54.5016 27.6506 54.593 27.1819C54.6258 27.0131 54.7125 26.2389 54.8836 26.2452C55.3898 26.9452 55.1852 27.1444 56.1805 27.6537C56.1242 28.0553 56.0625 28.6811 56.0539 29.0897C55.8547 29.0639 54.3563 28.4022 54.0867 28.2819H54.0859Z" fill="#FBFCFF"/>
<path d="M56.2984 27.7236C56.5336 27.7744 56.7266 27.7916 56.9656 27.8158C56.982 28.3791 56.9828 29.3166 56.9516 29.8807C56.7938 29.7924 56.2914 29.3385 56.1992 29.183C56.2227 28.6963 56.2555 28.2096 56.2984 27.7244V27.7236Z" fill="#FBFCFF"/>
<path d="M55.4676 21.1104C56.888 21.1011 58.4528 21.7605 58.5083 23.4714C58.5247 23.9745 58.2317 24.3487 57.8841 24.6847C57.92 22.7628 57.2856 23.3722 56.4122 24.155C56.127 24.4104 55.3161 24.2753 54.92 24.3362C54.6825 24.4948 54.5512 25.0784 54.4356 25.3847C54.4911 25.573 54.5887 25.8042 54.6614 25.9909L54.4294 27.3347C54.3075 27.8425 54.0966 28.3097 53.4614 28.3136C53.0176 28.3323 51.5997 28.1183 51.3114 27.7737C50.2731 26.5339 51.388 23.3519 52.3317 22.3745C53.2184 21.4558 54.377 21.1675 55.47 21.1112L55.4676 21.1104Z" fill="#FBFCFF"/>
<path d="M55.0206 24.4129C55.2253 24.4129 55.5706 24.3699 55.6527 24.5762C55.6027 24.7027 55.5894 24.691 55.6066 24.816C55.9816 25.034 57.0113 24.5145 57.3058 24.8293C57.3199 24.9816 57.3097 25.0895 57.4074 25.2012C57.5566 25.2402 57.5519 25.2106 57.7269 25.1582C57.905 25.3137 57.7941 26.2691 57.7722 26.527C57.7183 27.1723 57.5941 27.6309 56.8988 27.6668C56.8433 27.6629 56.7878 27.6574 56.7331 27.6504C55.8222 27.5379 55.5042 27.002 55.0863 26.2895C54.9089 25.9863 54.3308 25.5512 54.7175 25.1668C55.1566 25.3121 54.6683 25.6762 54.805 25.7027C54.805 25.7027 55.2034 25.5835 55.0863 25.3121C54.9691 25.0407 54.8848 25.1426 54.7511 24.8645C54.7894 24.6551 54.88 24.5684 55.0222 24.4121L55.0206 24.4129Z" fill="#FBFCFF"/>
<path d="M56.709 25.9561C57.0809 26.1271 56.6949 26.5271 57.609 26.3123L57.6801 26.3678C57.2348 26.7475 56.8215 26.4803 56.709 25.9561Z" fill="#002C6E"/>
<path d="M57.3629 23.5088C57.7238 23.7205 57.8645 24.2221 57.677 24.5752C57.259 24.6643 56.6824 24.6158 56.1981 24.7002L56.1418 24.7104C56.0043 24.7322 55.8988 24.7471 55.777 24.6791L55.7598 24.6111C55.8699 24.3635 56.2965 24.4072 56.5832 24.2041C56.8941 23.9846 57.0941 23.7744 57.3629 23.5088Z" fill="#FBFCFF"/>
<path d="M39.6229 10.467C40.108 10.4693 40.6064 10.4787 41.09 10.4639L41.0947 28.5896L41.0979 34.4295C41.0947 35.0896 41.1291 36.4553 41.0666 37.0404C40.5744 36.6764 40.0822 36.3545 39.6025 35.9686C39.6549 35.6545 39.6189 34.1318 39.6205 33.7053L39.633 27.9389L39.6283 17.924V13.499C39.6283 12.5123 39.651 11.4475 39.6229 10.467Z" fill="#FFB700"/>
<path d="M19.5893 10.44C20.8697 10.4127 22.1619 10.4494 23.4432 10.4533C25.2791 10.458 27.201 10.3885 29.0299 10.44L36.2314 10.4517C37.2822 10.4557 38.5986 10.4221 39.6221 10.4674C39.651 11.4471 39.6283 12.5127 39.6268 13.4994V17.9244L39.633 27.9392L39.6205 33.7056C39.6189 34.1322 39.6549 35.6549 39.6025 35.9689C38.9846 35.5182 38.3205 34.9549 37.7221 34.5361C37.8354 35.683 38.015 37.7049 38.008 38.8416C38.5236 39.165 38.9721 39.4455 39.5307 39.701C39.8627 39.8369 40.9572 40.3025 41.2127 40.4853C41.8275 40.6963 42.8072 41.2947 43.3182 41.6924C43.7049 41.9931 44.0291 42.3369 44.4783 42.5588C44.5619 42.4853 44.6635 42.4017 44.7377 42.3221C45.0463 42.515 45.4096 43.0322 45.7689 43.0049C45.8807 42.9549 45.8947 42.9017 45.9502 42.7908C46.0346 42.6228 46.1385 42.6861 46.3635 42.6174C46.4768 42.5017 46.4424 42.5705 46.4564 42.3971C46.9166 41.8611 46.5604 41.7252 46.1244 41.3486C46.2619 41.2174 46.3447 41.1431 46.3736 40.9619C46.3447 40.7978 46.3057 40.7775 46.1861 40.6486C47.0182 40.6189 48.001 40.6252 48.8393 40.6416C48.7541 41.29 48.6283 42.0127 48.6252 42.6674C48.6236 42.9299 48.7213 43.0939 48.9674 43.2025L49.0799 43.2291C48.5057 44.4189 48.3643 44.6846 48.3189 46.0127L48.3025 46.0236L48.2627 46.001L48.2729 45.8838C48.1182 45.9385 48.0283 45.8963 47.8768 45.8978C47.5463 45.901 47.6783 45.5299 47.3135 45.5408C47.0057 45.5502 46.9033 45.6892 46.7025 45.8869L46.6689 45.8408C46.508 46.0135 45.8002 48.3002 45.7041 48.6635C44.9314 48.5119 43.0244 47.751 42.3635 48.0861C42.1885 48.1744 42.0307 48.301 41.9338 48.4736C41.6166 49.0385 41.4283 49.9681 41.2307 50.6033C40.9307 51.5611 40.6135 52.5127 40.2783 53.458C40.5619 54.4885 40.8408 55.5213 41.1143 56.5549C42.9861 56.9775 45.5213 57.6322 47.3393 58.2064C46.1471 60.4603 44.8861 63.2072 43.7713 65.5244C43.4689 65.5666 43.1682 65.6181 42.8697 65.6791C42.7853 65.3916 42.6744 65.0916 42.5744 64.8072C42.7127 64.7588 42.8088 64.7416 42.9025 64.6322C43.0182 64.3533 42.733 63.5853 42.6447 63.2502L41.9979 60.7369C41.2275 57.8103 40.4307 54.8908 39.6088 51.9783C39.2064 50.5932 38.815 49.2041 38.4354 47.8127C38.2244 47.0533 37.9666 46.1924 37.8025 45.4275C37.6986 44.7611 37.8424 44.0564 37.8525 43.3853C37.8947 40.4885 37.7463 37.6338 37.5057 34.7463C37.426 33.8775 37.326 33.0103 37.2064 32.1463C36.9846 30.451 37.0354 29.5041 35.6846 28.3603C35.683 28.0275 35.6846 27.7861 35.715 27.4588C35.7408 27.1846 35.8424 26.7096 35.8244 26.4603L35.7236 26.3869L35.5314 27.3486C34.751 27.1072 33.9424 26.8603 33.1439 26.6892C33.2557 25.9439 33.2768 25.5103 33.5721 24.8182L33.4939 24.8346C33.4338 24.9283 33.4189 24.9549 33.3736 25.0564C33.2932 25.0861 33.0025 25.1439 32.8838 25.176C32.9533 25.1994 33.0885 25.226 33.1072 25.2767C33.2322 25.6275 33.0236 26.2658 32.9854 26.6478C32.7471 26.6088 32.5924 26.5799 32.351 26.576C32.215 26.9181 32.1244 27.3556 32.0361 27.7197C31.058 28.6635 30.5002 29.2791 30.1611 30.6408C30.4408 30.2447 30.7791 29.8924 31.0471 29.5088C31.7549 28.4947 33.126 27.2736 34.4268 28.2416C34.7744 28.5017 34.9963 28.8963 35.0369 29.3283C35.1244 30.1846 34.4986 30.851 34.0221 31.4955C33.6455 32.0033 33.2744 32.5158 32.9096 33.033C31.8557 34.5424 30.8385 36.0775 29.8604 37.6369C29.4057 38.3541 28.9799 39.0963 28.6541 39.8783C28.5736 40.0713 28.5182 40.3236 28.3275 40.4361L28.2666 40.4142C28.2291 40.1635 28.5416 39.6619 28.6627 39.4158C30.1627 36.3767 32.1674 33.6119 34.1682 30.883C34.6939 30.1658 35.2533 29.1338 34.2455 28.4127C33.0596 27.5635 31.8291 28.8049 31.1908 29.7135C30.4182 30.6869 29.6814 31.5783 29.0135 32.5931C28.0721 34.0353 27.2494 35.5517 26.5533 37.1275C26.0768 38.2096 25.6283 39.426 25.1158 40.4822C24.7439 40.476 24.3713 40.4728 23.9994 40.4736C23.5205 40.4783 23.0408 40.4767 22.5619 40.4697C22.6619 32.6049 22.5252 24.7182 22.59 16.8517C22.6072 14.7353 22.626 12.5869 22.5846 10.4721C21.8799 10.4705 20.2143 10.508 19.5869 10.4416L19.5893 10.44Z" fill="#FBFCFF"/>
<path d="M19.5889 10.44C20.8693 10.4127 22.1615 10.4494 23.4428 10.4533C25.2787 10.458 27.2006 10.3885 29.0295 10.44C28.6826 10.4838 27.71 10.4642 27.324 10.4642L23.9842 10.4689L24.0014 40.4721C23.5225 40.4767 23.0428 40.4752 22.5639 40.4682C22.6639 32.6033 22.5271 24.7166 22.592 16.8502C22.6092 14.7338 22.6279 12.5853 22.5865 10.4705C21.8818 10.4689 20.2162 10.5064 19.5889 10.44Z" fill="#FFB700"/>
<path d="M33.6269 20.1777C34.3855 19.4105 35.712 19.2066 36.7316 19.459C37.5433 19.6605 38.1425 20.3699 37.9245 21.2238C37.8245 21.6144 37.2987 21.834 36.9769 21.9949L36.9441 22.0941C37.1105 22.4972 37.1308 23.1074 37.3011 23.5301C37.3745 23.7129 37.7011 23.948 37.7097 24.1301C37.6128 24.2926 37.4066 24.2605 37.4019 24.3011C37.3066 25.0347 37.473 26.1949 36.5308 26.4363C36.2964 26.4965 36.1144 26.4761 35.8269 26.4582L35.7261 26.3847L35.5339 27.3465C34.7534 27.1051 33.9448 26.8582 33.1464 26.6871C33.2581 25.9418 33.2792 25.5082 33.5745 24.816L33.4964 24.8324C33.4362 24.9261 33.4214 24.9527 33.3761 25.0543C33.2956 25.084 33.005 25.1418 32.8862 25.1738C32.6933 25.1433 32.4581 25.0441 32.3073 24.9254C30.8105 23.7441 30.93 21.0144 32.8698 20.3472C33.1339 20.2566 33.3527 20.2215 33.6261 20.1769L33.6269 20.1777Z" fill="#002C6E"/>
<path d="M36.8066 22.1029L36.8863 22.0225L36.9441 22.0936C37.1105 22.4967 37.1309 23.1068 37.3012 23.5295C37.3746 23.7123 37.7012 23.9475 37.7098 24.1295C37.6129 24.292 37.4066 24.26 37.402 24.3006C37.3066 25.0342 37.473 26.1943 36.5309 26.4357C36.2965 26.4959 36.1145 26.4756 35.827 26.4576L35.7262 26.3842L35.534 27.3459C34.7535 27.1045 33.9449 26.8576 33.1465 26.6865C33.2582 25.9412 33.2793 25.5076 33.5746 24.8154C33.609 24.7537 33.6449 24.692 33.6816 24.6318L33.7637 24.6271C34.002 24.8443 34.1785 24.9615 34.4637 24.7264V24.6537L34.3809 24.6061C33.791 24.7373 33.7402 24.4178 33.6113 23.9092C33.8285 23.1756 33.984 23.1709 34.6254 23.4646C35.2809 23.1092 35.334 22.8311 35.5707 22.1396C35.9527 22.1326 36.2488 22.0998 36.627 22.0475C36.7551 22.0295 36.7262 22.0326 36.8066 22.1014V22.1029Z" fill="#FBFCFF"/>
<path d="M36.8066 22.1029L36.8863 22.0225L36.9441 22.0936C37.1105 22.4967 37.1309 23.1068 37.3012 23.5295C37.3746 23.7123 37.7012 23.9475 37.7098 24.1295C37.6129 24.292 37.4066 24.26 37.402 24.3006C37.3066 25.0342 37.473 26.1943 36.5309 26.4357C36.2965 26.4959 36.1145 26.4756 35.827 26.4576L35.7262 26.3842C35.6035 26.2256 35.3809 26.2287 35.2715 25.9936C35.4051 25.9373 35.9379 26.3014 36.2145 26.3131C37.3199 26.3607 37.1902 24.942 37.2348 24.1717C37.3402 24.16 37.3762 24.1631 37.473 24.1193C37.4418 23.9225 37.1566 23.6928 37.1043 23.4818C36.991 23.024 36.9191 22.5639 36.8074 22.1014L36.8066 22.1029Z" fill="#002C6E"/>
<path d="M36.327 23.125C36.4973 23.1352 36.5684 23.1344 36.6973 23.243C36.8832 23.6383 36.4645 23.7727 36.1465 23.6898L36.152 23.5695L36.227 23.5039C36.4465 23.5117 36.5043 23.5516 36.6098 23.357L36.5863 23.3023C36.4691 23.2625 36.384 23.2672 36.2613 23.2633L36.248 23.2086L36.3262 23.125H36.327Z" fill="#002C6E"/>
<path d="M36.6646 22.3174C36.7498 22.3197 36.7084 22.3072 36.7818 22.3846L36.7646 22.4525C36.5889 22.5385 36.2951 22.5713 36.0928 22.6057C36.0053 22.615 36.049 22.6166 35.9615 22.576L35.9521 22.5486C36.0717 22.3822 36.4686 22.3463 36.6646 22.3174Z" fill="#002C6E"/>
<path d="M33.9936 23.4312C34.1795 23.4741 34.5006 23.589 34.4498 23.8343L34.3881 23.8733C34.2217 23.671 33.924 23.5757 33.8936 23.5163L33.9936 23.4312Z" fill="#002C6E"/>
<path d="M39.5312 39.7002C39.8633 39.8361 40.9578 40.3018 41.2133 40.4846C40.8375 40.3721 39.9891 40.4713 39.5312 40.4104V39.7002Z" fill="#FFB700"/>
<path d="M48.9684 43.2007L49.0809 43.2272C48.5066 44.4171 48.3652 44.6827 48.3199 46.0108L48.3035 46.0218L48.2637 45.9991L48.2738 45.8819C48.1191 45.9366 48.0293 45.8944 47.8777 45.896C47.5473 45.8991 47.6793 45.528 47.3145 45.539C47.0066 45.5483 46.9043 45.6874 46.7035 45.8851L46.6699 45.839C46.7074 45.7499 46.834 45.6163 46.9152 45.5687C47.3738 45.2976 47.7309 45.7694 48.1059 45.8374C48.2629 45.7546 48.2074 45.5187 48.2105 45.3179C48.2215 44.5265 48.6051 43.8741 48.9684 43.2015V43.2007Z" fill="#002C6E"/>
<path d="M39.5314 40.4098C39.9893 40.4708 40.8377 40.3715 41.2135 40.484L41.1588 40.5606C40.8721 40.6168 38.4057 40.6067 38.1119 40.5606L38.083 40.4825L38.1283 40.4247C38.3135 40.3661 39.2658 40.3911 39.4838 40.4059L39.5314 40.4098Z" fill="#002C6E"/>
<path d="M7.45508 10.4365C11.4637 10.3904 15.577 10.4318 19.5895 10.4396C20.2168 10.5068 21.8824 10.4685 22.5871 10.4701C22.6285 12.5849 22.6098 14.7341 22.5926 16.8498C22.5285 24.7162 22.6645 32.6029 22.5645 40.4677C20.8676 40.4232 19.0105 40.4591 17.3043 40.4599L7.46289 40.4701L7.45508 10.4357V10.4365Z" fill="#FBFCFF"/>
<path d="M73.7953 10.3462L73.8914 10.3821C73.9477 10.6681 73.9242 12.4079 73.9242 12.8548L73.9273 18.7376L73.9398 40.4642H75.9664C76.2508 40.4642 76.7969 40.4017 77.0117 40.5774L76.982 40.6228C76.6672 40.6813 75.7891 40.6282 75.4109 40.6243H72.0625L64.5742 40.6188C63.2375 40.6204 61.7727 40.6587 60.4461 40.6235C60.1836 40.5056 59.6789 40.6188 59.3305 40.5704L59.2586 40.4743C59.2133 38.1962 59.2156 35.9673 58.8773 33.711C59.5531 33.7282 60.1641 33.7321 60.8328 33.6368C63.6453 33.2353 66.0258 31.5696 68.0844 29.7103C68.4336 29.3946 69.3687 28.5165 69.7734 28.3876C69.6469 28.3735 69.7047 28.397 69.6031 28.2954C69.475 28.1376 69.2711 27.947 69.3609 27.7392C69.4945 27.7024 69.5016 27.704 69.6266 27.6313C69.8445 27.2438 69.0797 27.0892 69.5609 26.6446L69.6266 26.7399C69.8102 26.5938 69.8648 26.5548 70.0727 26.4478C70.0859 26.4188 70.1133 26.3993 70.1383 26.3743C70.3359 25.9228 71.475 25.5399 71.1453 25.0173C70.5609 24.7321 68.0937 26.7728 67.6359 27.2626C67.4812 27.4282 67.1937 27.5149 67.0164 27.6556C66.7203 27.8524 66.4039 28.0712 66.1172 28.2735C63.7141 29.9759 61.5672 31.0938 58.5523 30.454C58.4937 28.7392 58.5711 26.972 58.543 25.2524C58.5375 24.9142 58.5695 24.5274 58.525 24.1954C58.6852 23.5829 58.6727 23.3548 58.5602 22.7345C58.2078 21.9235 57.8156 21.6493 57.0883 21.2306C57.143 20.0274 57.1031 18.5095 57.1047 17.286C57.1117 15.0118 57.0977 12.7376 57.0625 10.4642C58.0602 10.4728 59.0492 10.4415 60.0477 10.4392L67.6281 10.4353L70.4797 10.4415C70.9539 10.4431 71.6305 10.4267 72.0836 10.461H73.7711L73.7961 10.347L73.7953 10.3462Z" fill="#FBFCFF"/>
<path d="M57.0615 10.464C58.0592 10.4726 59.0482 10.4413 60.0467 10.439L67.6271 10.4351L70.4787 10.4413C70.9529 10.4429 71.6295 10.4265 72.0826 10.4608C70.685 10.5233 68.8342 10.4663 67.4068 10.4655L58.5607 10.4726L58.5561 18.5976C58.5592 19.8772 58.6068 21.4749 58.5592 22.7351C58.2068 21.9241 57.8146 21.6499 57.0873 21.2312C57.142 20.028 57.1021 18.5101 57.1037 17.2866C57.1107 15.0124 57.0967 12.7382 57.0615 10.4647V10.464Z" fill="#FFB700"/>
<path d="M73.7955 10.3462L73.8916 10.3821C73.9479 10.6681 73.9244 12.4079 73.9244 12.8548L73.9275 18.7376L73.94 40.4642H75.9666C76.251 40.4642 76.7971 40.4017 77.0119 40.5774L76.9822 40.6228C76.6674 40.6813 75.7893 40.6282 75.4111 40.6243H72.0627L64.5744 40.6188C63.2377 40.6204 61.7729 40.6587 60.4463 40.6235C60.1838 40.5056 59.6791 40.6188 59.3307 40.5704L59.2588 40.4743C60.8197 40.4368 62.5166 40.4649 64.0846 40.4642L73.79 40.4595L73.7822 20.5517L73.7869 13.9157C73.7869 12.8235 73.8182 11.5392 73.7721 10.4626L73.7971 10.3478L73.7955 10.3462Z" fill="#002C6E"/>
<path d="M70.0698 26.447C70.0831 26.4181 70.1105 26.3985 70.1355 26.3735C70.5776 26.5196 70.6815 27.2243 70.8565 27.6337C70.669 27.929 70.1409 28.4649 69.7706 28.3868C69.644 28.3728 69.7019 28.3962 69.6003 28.2946C69.4722 28.1368 69.2683 27.9462 69.3581 27.7384C69.4917 27.7017 69.4987 27.7032 69.6237 27.6306C69.8417 27.2431 69.0769 27.0884 69.5581 26.6438L69.6237 26.7392C69.8073 26.5931 69.862 26.554 70.0698 26.447Z" fill="#002C6E"/>
<path d="M70.0699 26.4471L70.1309 26.5096C70.0715 26.6697 69.7434 26.8439 69.5941 26.9088L69.5527 26.883C69.5832 26.7885 69.5668 26.8182 69.6246 26.7385C69.8082 26.5924 69.8629 26.5533 70.0707 26.4463L70.0699 26.4471Z" fill="#F1F7FF"/>
<path d="M70.4356 27.0688L70.4755 27.0915C70.6966 27.4993 69.9614 27.5478 69.8989 27.8438C70.0458 27.9063 70.4005 27.4962 70.6575 27.5126L70.6809 27.5993C70.6341 27.7196 70.6192 27.7204 70.538 27.8228C70.2825 28.0251 70.1403 28.097 69.8505 28.2501C69.727 28.1415 69.5317 28.0087 69.5403 27.8376C69.7411 27.4853 70.0567 27.2142 70.4348 27.0688H70.4356Z" fill="#FBFCFF"/>
<path d="M70.2415 26.6307C70.336 26.6596 70.343 26.6861 70.4204 26.7596C70.4407 27.0377 70.0547 27.0182 69.8157 27.3244C69.668 27.2838 69.5907 27.251 69.5993 27.1025C69.7297 26.9494 70.0516 26.7627 70.2415 26.6299V26.6307Z" fill="#FBFCFF"/>
<path d="M7.06641 63.3994C7.55391 62.3322 8.24609 61.0674 8.80156 60.0205L11.3641 55.1736C11.9734 53.9908 12.5945 52.8142 13.2258 51.6431C13.7266 50.6924 14.2125 49.1111 15.5703 49.5197C16.4133 49.7728 17.6187 50.4463 18.4406 50.8353L18.3172 50.9236C18.325 50.9572 18.332 50.99 18.3398 51.0236C18.025 51.7572 17.3367 53.0041 16.9883 53.6767L12.9258 61.5783C12.2023 62.9752 11.0953 64.9392 10.5148 66.3385C9.62812 65.958 8.75234 65.4385 7.89219 64.9939C7.85234 64.5244 7.84063 64.1455 7.66484 63.7064C7.53984 63.6619 7.38047 63.6111 7.26172 63.5572L7.21875 63.5635C7.15391 63.4971 7.15156 63.4869 7.07109 63.4377L7.06641 63.4002V63.3994Z" fill="#FFB700"/>
<path d="M7.06641 63.3994C7.55391 62.3322 8.24609 61.0674 8.80156 60.0205L11.3641 55.1736C11.9734 53.9908 12.5945 52.8142 13.2258 51.6431C13.7266 50.6924 14.2125 49.1111 15.5703 49.5197C16.4133 49.7728 17.6187 50.4463 18.4406 50.8353L18.3172 50.9236C17.8078 50.7221 17.3523 50.4752 16.8578 50.2392C16.1914 49.9213 15.45 49.3994 14.6906 49.7385C14.5094 49.8197 14.2969 49.9775 14.1789 50.1455C13.7789 50.8619 13.4016 51.6299 13.018 52.3556L10.2891 57.5392L8.20625 61.4775C7.88828 62.0846 7.52969 62.7588 7.24609 63.3846C7.22422 63.4322 7.24219 63.5096 7.26172 63.5572L7.21875 63.5635C7.15391 63.4971 7.15156 63.4869 7.07109 63.4377L7.06641 63.4002V63.3994Z" fill="#002C6E"/>
<path d="M56.5684 59.3478C57.7121 59.3064 58.852 59.1962 59.9824 59.0181L60.677 64.6212C60.7824 65.4704 60.9176 66.3743 60.9926 67.2228L60.9973 67.3235C60.8285 67.4642 58.6754 68.0759 58.4004 68.1032L58.341 68.0485C58.2621 67.4751 58.0012 66.411 57.8746 65.8165L57.1066 62.0478C56.9316 61.2017 56.6902 60.1884 56.5691 59.3478H56.5684Z" fill="#FBFCFF"/>
<path d="M40.9463 37.1521C42.1979 38.0764 43.5424 38.924 44.7971 39.8498C45.1775 40.1311 45.576 40.4287 45.9689 40.6881C46.1432 40.6029 45.9932 40.7303 46.1869 40.6467C46.3072 40.7756 46.3455 40.7951 46.3744 40.96C46.3447 41.1412 46.2627 41.2154 46.1252 41.3467C46.5611 41.7232 46.9174 41.86 46.4572 42.3951C46.4432 42.5686 46.4775 42.4998 46.3643 42.6154C46.1385 42.6842 46.0353 42.6209 45.951 42.7889C45.8947 42.8998 45.8814 42.9529 45.7697 43.0029C45.4103 43.0303 45.0471 42.5139 44.7385 42.3201L44.6463 42.2318L44.4963 42.3568C44.2283 42.3404 43.4455 41.5131 43.1197 41.3162C42.3033 40.8225 41.4729 40.3842 40.6041 39.9889C40.1408 39.7779 39.5463 39.5373 39.126 39.2811C39.5924 38.649 40.4135 37.7615 40.9471 37.1514L40.9463 37.1521Z" fill="#FBFCFF"/>
<path d="M44.6455 42.233C44.4627 41.9689 43.8346 41.5158 43.8057 41.3721L43.9127 41.3025C44.1994 41.4025 45.5025 42.9979 45.8096 42.7807C45.826 42.4033 44.3346 41.4088 44.1361 41.1494C44.1588 41.04 44.1314 41.083 44.2197 41.0166C44.651 41.2213 45.8846 42.7604 46.2728 42.4549C46.2041 42.1377 44.4971 41.0611 44.4783 40.6924L44.54 40.6635C44.9236 40.8721 46.0947 42.1932 46.4588 42.1604L46.5033 42.0877C46.4275 41.5721 44.8432 40.6549 44.7666 40.3963L44.8088 40.3291C45.1369 40.3268 45.6783 41.165 46.0861 41.1744C46.2166 41.0877 46.1627 41.1447 46.2307 40.9775C46.2033 40.8572 46.0713 40.7736 45.9697 40.6885C46.1439 40.6033 45.9939 40.7307 46.1877 40.6471C46.308 40.776 46.3463 40.7955 46.3752 40.9604C46.3455 41.1416 46.2635 41.2158 46.126 41.3471C46.5619 41.7236 46.9182 41.8604 46.458 42.3955C46.4439 42.5689 46.4783 42.5002 46.365 42.6158C46.1393 42.6846 46.0361 42.6213 45.9518 42.7893C45.8955 42.9002 45.8822 42.9533 45.7705 43.0033C45.4111 43.0307 45.0478 42.5143 44.7393 42.3205L44.6471 42.2322L44.6455 42.233Z" fill="#002C6E"/>
<path d="M61.1119 67.0202L61.1478 67.1616C61.7822 67.5186 63.9814 65.7795 64.6759 67.8952C64.0291 68.1678 62.8361 68.4358 62.1181 68.6334C60.8658 68.978 59.4376 69.4608 58.1767 69.7303C58.0822 69.4006 57.8259 68.7045 57.915 68.392C57.9494 68.2725 58.1205 68.2194 58.2384 68.1608L58.2978 68.1538L58.3416 68.0483L58.4009 68.103C58.6752 68.0764 60.8291 67.4639 60.9978 67.3233L60.9931 67.2225C61.0853 67.1584 61.0642 67.1475 61.1119 67.0202Z" fill="#002C6E"/>
<path d="M49.0801 43.2273C49.4973 43.2719 50.4988 43.2914 50.7207 43.6547C51.2027 44.4445 51.0965 45.4227 50.7473 46.2187C50.634 45.8914 50.502 45.543 50.3004 45.2578C50.0285 45.8508 49.9363 46.1461 49.8402 46.7969C47.8418 46.4063 48.723 46.2617 49.0379 44.7883C48.6965 45.1992 48.5184 45.9047 48.3746 46.0344L48.3184 46.0102C48.3645 44.682 48.5051 44.4164 49.0793 43.2266L49.0801 43.2273Z" fill="#FBFCFF"/>
<path d="M67.5918 27.5505C68.3449 26.7786 69.0777 26.1247 70.0207 25.5896C70.2434 25.463 70.8402 25.0075 71.0832 25.138L71.0777 25.2497C71.0309 25.3458 69.7043 26.5419 69.5582 26.6442C69.077 27.0888 69.841 27.2435 69.6238 27.631C69.4988 27.7036 69.4918 27.7013 69.3582 27.7388C69.2684 27.9474 69.4723 28.1372 69.6004 28.295L68.6332 28.9888C68.2754 28.5528 67.9668 28.02 67.5926 27.5513L67.5918 27.5505Z" fill="#FBFCFF"/>
<path d="M20.3504 51.9188C21.1465 52.318 21.9926 52.6508 22.7777 53.0727C23.0574 53.2305 23.334 53.4914 23.4043 53.8133C23.5957 54.6883 22.8637 55.7422 22.4582 56.5148L20.7668 59.725C19.848 61.5094 18.9168 63.2867 17.973 65.0578C17.4488 66.0594 16.9168 67.1898 16.3465 68.1516C16.2918 68.1281 16.2371 68.1055 16.1824 68.0844C15.991 68.0086 15.5316 67.7836 15.3684 67.8539C15.0715 68.0023 14.7441 68.2055 14.4551 68.375C14.0418 68.2172 12.7848 67.5328 12.3613 67.2969L20.3512 51.918L20.3504 51.9188Z" fill="#FFB700"/>
<path d="M53.8187 29.6982C54.2289 29.6771 54.6 29.738 54.925 30.0114C55.1687 30.2122 55.318 30.5052 55.3383 30.82C55.3812 31.5021 54.775 32.2325 54.4078 32.7763C54.1062 33.22 53.8234 33.6755 53.5594 34.1427C53.0312 35.0716 52.607 36.0552 52.2953 37.0771C51.7047 38.9857 51.3773 40.9622 50.9234 42.9036C50.8906 43.0427 50.8508 43.1552 50.7562 43.2638C50.5969 43.32 50.6492 43.3036 50.4578 43.2591C48.7578 42.8997 48.6648 43.4825 48.8601 41.6505C49.2492 38.0091 49.8445 34.5614 51.9742 31.4903C52.5156 30.7099 52.7883 29.9333 53.8172 29.6982H53.8187Z" fill="#FBFCFF"/>
<path d="M67.3809 27.5757C67.6324 27.778 68.3082 28.7976 68.5207 29.1062C65.8863 31.5382 62.659 33.9546 58.8512 33.521C58.7551 33.1507 58.6684 32.8897 58.5387 32.5288C58.1223 31.4522 57.6418 30.8952 56.9316 30.0069C57.5543 30.3233 58.2184 30.5499 58.9051 30.6788C62.3215 31.3046 64.791 29.3788 67.3809 27.5765V27.5757Z" fill="#FBFCFF"/>
<path d="M47.5187 58.251C48.4383 58.483 49.9875 58.9002 50.8664 59.1885C49.582 61.2244 48.1758 63.351 46.9578 65.4104L46.7734 65.7252C45.8687 65.4393 44.8961 65.4893 43.957 65.508C44.775 63.651 45.7797 61.8424 46.6203 59.9924C46.8805 59.4197 47.1867 58.7822 47.5203 58.251H47.5187Z" fill="#FBFCFF"/>
<path d="M44.648 65.6437C45.2316 65.6422 46.1582 65.6461 46.7012 65.8812C47.1152 66.0609 47.2379 66.357 47.3754 66.7429C46.7145 66.9429 46.0371 67.2101 45.3644 67.4172C44.3137 67.7406 43.2621 68.0476 42.2074 68.3578C41.584 68.5539 40.9582 68.7422 40.3309 68.9226C40.2262 68.4617 40.0723 67.357 40.0215 66.8804C40.6113 66.6929 41.3613 66.4422 41.9324 66.2094C42.9926 65.7773 43.516 65.6789 44.6488 65.6437H44.648Z" fill="#FBFCFF"/>
<path d="M25.9648 38.9282C26.4289 39.022 27.757 39.5915 28.2773 39.7923C27.9523 40.5954 27.5961 41.4017 27.2398 42.1993C26.9195 42.8767 26.7078 43.6392 26.2875 44.2618C26.0968 44.5431 25.8148 44.6735 25.5257 44.4501C25.4593 44.3196 25.4687 44.3884 25.5125 44.236C25.657 43.9352 26.2164 43.0579 25.5664 43.0071C25.214 43.136 24.9539 43.8134 24.6867 44.1259C23.6976 43.3134 24.3867 42.4837 24.7968 41.5759L25.9648 38.929V38.9282Z" fill="#FBFCFF"/>
<path d="M47.2559 46.5977C47.9348 46.7281 48.6582 46.8773 49.3215 47.0695C49.7012 47.1797 50.0605 47.3328 50.4645 47.4484C50.3879 47.7664 49.9043 49.6 49.7934 49.7203L46.5059 48.8945C46.7582 48.1227 46.9902 47.3687 47.2559 46.5977Z" fill="#F1F7FF"/>
<path d="M47.5416 66.8857C47.7541 66.8896 47.8471 66.9014 47.9736 67.085C47.9814 67.1709 47.9893 67.2029 47.9455 67.2818C47.5221 68.042 41.9689 69.4873 40.79 69.8396L40.6244 69.8904L40.558 69.8521C40.44 69.6389 40.4104 69.3232 40.3643 69.0709C41.9877 68.5967 43.608 68.1131 45.2252 67.6186C45.7604 67.4506 47.0604 66.9631 47.5416 66.8857Z" fill="#FBFCFF"/>
<path d="M31.3125 40.5587C32.1398 40.5462 32.9672 40.5439 33.7945 40.5525C33.8063 40.9962 33.8008 41.4665 33.8023 41.9126C32.9711 41.9267 32.1398 41.9314 31.3086 41.9267L31.3125 40.5579V40.5587Z" fill="#FBFCFF"/>
<path d="M34.0667 40.5625C34.762 40.5391 35.7112 40.5437 36.4034 40.5703L36.4073 41.9203C35.6261 41.9234 34.8441 41.9219 34.0628 41.9164C34.0573 41.4648 34.0589 41.0133 34.0667 40.5625Z" fill="#FBFCFF"/>
<path d="M42.36 64.8455L42.3834 64.8486C42.535 64.94 42.6826 65.558 42.7342 65.7408C41.9561 66.0689 40.9107 66.408 40.0896 66.7025L40.0467 66.7049C39.967 66.6252 39.7811 65.8728 39.7373 65.7158C40.6162 65.4502 41.467 65.108 42.36 64.8447V64.8455Z" fill="#FBFCFF"/>
<path d="M29.0527 40.5498L31.0598 40.5537L31.0645 41.9186L29.0543 41.9232V40.5506L29.0527 40.5498Z" fill="#FBFCFF"/>
<path d="M53.1125 50.6087L53.175 50.6321C53.1781 50.8009 52.8773 51.4446 52.8093 51.6821C52.314 53.4134 51.7789 55.1415 51.2765 56.8704C51.182 57.1962 50.7226 58.8181 50.5812 59.0306C50.5086 58.961 50.4296 58.9181 50.4507 58.836C50.5382 58.4985 50.6609 58.0821 50.7546 57.7524C51.1781 56.2603 51.6171 54.772 52.0711 53.2884C52.3007 52.5298 52.5359 51.7368 52.7945 50.986C52.8586 50.7993 52.957 50.7282 53.1125 50.6079V50.6087Z" fill="#FBFCFF"/>
<path d="M37.1545 40.5654L37.5834 40.5717L37.5904 41.9139L37.2357 41.9209H36.6779L36.6709 40.5748L37.1537 40.5662L37.1545 40.5654Z" fill="#FBFCFF"/>
<path d="M52.1377 47.2007L52.2455 47.2655C52.3971 47.5601 52.0517 48.446 51.9549 48.7655C51.808 49.2577 51.665 49.7507 51.5275 50.2452C51.4213 50.2054 51.4127 50.1999 51.3166 50.1382C51.3033 49.9944 52.0455 47.5577 52.1377 47.2007Z" fill="#FBFCFF"/>
<path d="M6.80938 63.3936C7.17578 63.7787 7.64141 63.8029 7.6375 64.3764L7.59141 64.3943L7.42422 64.2443C7.09609 64.0303 6.77578 64.017 6.41406 64.1459C6.55234 63.899 6.68438 63.6475 6.80938 63.3936Z" fill="#FFB700"/>
<path d="M15.4824 67.999C15.7934 68.0928 16.0012 68.1545 16.2949 68.285L16.0504 68.7311C15.9832 68.835 16.027 68.799 15.9191 68.8475C15.7902 68.7936 15.5887 68.5686 15.4707 68.4576L15.4824 67.999Z" fill="#FFB700"/>
<path d="M14.7338 69.0074C14.9049 68.9339 15.1033 69.0105 15.1807 69.1792C15.258 69.3488 15.1854 69.5488 15.0182 69.6292C14.9064 69.6832 14.7744 69.6722 14.6729 69.6011C14.5713 69.53 14.5166 69.4097 14.5291 69.2863C14.5416 69.1628 14.6197 69.0558 14.7338 69.0066V69.0074Z" fill="#FBFCFF"/>
<path d="M6.70089 64.7791C6.81651 64.7284 6.95167 64.7471 7.04855 64.8284C7.14542 64.9096 7.18839 65.0385 7.1587 65.162C7.12901 65.2846 7.03214 65.3807 6.9087 65.4088C6.74151 65.4471 6.57276 65.3518 6.51886 65.1893C6.46495 65.0268 6.54386 64.8495 6.70011 64.7807L6.70089 64.7791Z" fill="#FBFCFF"/>
<path d="M50.28 45.6475C50.3995 45.7662 50.4628 45.9209 50.5409 46.0732C50.5113 46.2365 50.4792 46.51 50.348 46.6123C50.2417 46.599 50.1691 46.6045 50.0917 46.5342C50.0113 46.2568 50.1761 45.9318 50.28 45.6482V45.6475Z" fill="#FBFCFF"/>
<path d="M46.1322 0.441332L63.0736 0.435082C66.5096 0.435082 70.0346 0.396801 73.4635 0.44602L73.4588 9.0554L46.1025 9.07805L46.1322 0.441332Z" fill="#809DCA"/>
<path d="M53.818 1.73599C54.493 1.72661 57.9508 1.62974 58.3438 1.8438C58.436 2.06099 58.4204 7.12505 58.3563 7.34927C58.2563 7.45552 58.3149 7.41958 58.1735 7.46021C57.6102 7.45865 53.9555 7.50005 53.6368 7.40943C53.5391 7.06489 53.5477 2.29458 53.5993 1.85474C53.6829 1.74693 53.6571 1.78052 53.818 1.73521V1.73599Z" fill="#FFB700"/>
<path d="M55.8854 2.97656C55.9471 2.9875 55.9947 3.00234 56.0549 3.01953C56.1314 3.18828 56.0627 5.95781 56.0627 5.95781L57.3221 4.78437L56 6.5L54.6768 4.86406L55.8127 5.92109C55.8127 5.92109 55.8104 3.46563 55.8854 2.97656Z" fill="#002C6E"/>
<path d="M50.2168 3.02051L51.6105 4.68301C51.6105 4.68301 50.7489 4.46382 50.4676 4.27598C50.4488 4.96582 50.4277 6.76113 50.4277 6.76113L50.0522 6.75732C50.0522 6.75732 49.9863 4.6916 49.9848 4.31348C49.6699 4.52754 48.9199 4.8541 48.9199 4.8541L50.2168 3.02051Z" fill="#FBFCFF"/>
<path d="M61.3115 5.84497C61.7334 5.85044 63.3701 5.7434 63.5904 5.99731C63.6037 6.127 63.6069 6.07934 63.4998 6.21528C63.1506 6.27544 61.4623 6.34028 61.2451 6.1145C61.2194 5.96059 61.224 6.01372 61.3115 5.84575V5.84497Z" fill="#FBFCFF"/>
<path d="M61.2564 3.24638C61.6407 3.2206 63.3384 3.12607 63.5392 3.36357C63.5454 3.52138 63.5579 3.44403 63.4775 3.5995C63.1251 3.61357 61.4087 3.69091 61.2415 3.5245C61.1962 3.40497 61.2204 3.36982 61.2564 3.24716V3.24638Z" fill="#FBFCFF"/>
<path d="M65.0242 3.22011C65.4672 3.21308 66.7844 3.14277 67.1281 3.30292C67.2187 3.4123 67.2 3.35136 67.1898 3.49198C67.1008 3.59589 67.1555 3.5537 67.0023 3.59745C66.4617 3.59511 65.9156 3.62011 65.375 3.61386C65.1586 3.61152 64.9359 3.61464 64.8594 3.39198C64.9203 3.24433 64.8719 3.3037 65.0242 3.22011Z" fill="#FBFCFF"/>
<path d="M64.9657 5.86284C65.3353 5.84174 67.0173 5.76205 67.215 5.97846C67.2306 6.13549 67.2415 6.05893 67.1587 6.21284C66.7767 6.21284 66.3946 6.21596 66.0126 6.22377C65.7431 6.2269 65.0923 6.28159 64.9095 6.10346C64.8861 5.94877 64.8806 6.02768 64.9657 5.86284Z" fill="#FBFCFF"/>
<path d="M68.7404 3.22261C69.0217 3.21167 69.7326 3.13277 69.9115 3.33902C69.9209 3.49136 69.9287 3.41402 69.8436 3.57339L69.7357 3.59917C69.442 3.59917 68.6553 3.68433 68.499 3.43589C68.5389 3.26792 68.592 3.26558 68.7396 3.22183L68.7404 3.22261Z" fill="#FBFCFF"/>
<path d="M68.5914 5.86011C68.9094 5.85464 69.607 5.7562 69.8242 5.94839C69.8711 6.09448 69.8602 6.04214 69.8211 6.20933C69.4945 6.22573 68.8203 6.31323 68.5906 6.11323C68.5399 5.97808 68.5539 6.02495 68.5906 5.86089L68.5914 5.86011Z" fill="#FBFCFF"/>
<path d="M33.3162 0.448047C33.9381 0.429297 34.6115 0.439453 35.2373 0.43789L35.2529 9.06367L9.7959 9.06992H7.85059L7.84668 0.466797H24.4279C27.3045 0.468359 30.4631 0.531641 33.317 0.447266L33.3162 0.448047Z" fill="#809DCA"/>
<path d="M15.494 1.72453C16.0472 1.69484 19.53 1.67062 19.8151 1.78937C19.9667 2.06984 19.9464 2.62453 19.944 2.95031C19.9323 4.36047 19.9784 5.77765 19.9245 7.18625C19.919 7.33078 19.7847 7.40343 19.6784 7.47531C19.1581 7.51906 15.5628 7.53859 15.3972 7.38C15.3456 7.22297 15.3003 7.0214 15.298 6.85344C15.2792 5.25422 15.3183 3.65343 15.2823 2.05422C15.2784 1.89406 15.3855 1.82531 15.4948 1.72531L15.494 1.72453Z" fill="#FFB700"/>
<path d="M17.5553 3.08447C17.617 3.09541 17.6646 3.11025 17.7248 3.12744C17.8014 3.29619 17.7326 6.06572 17.7326 6.06572L18.992 4.89229L17.6699 6.60791L16.3467 4.97197L17.4826 6.029C17.4826 6.029 17.4803 3.57354 17.5553 3.08447Z" fill="#002C6E"/>
<path d="M12.1455 3.23193L13.5393 4.89443C13.5393 4.89443 12.6776 4.67525 12.3963 4.4874C12.3775 5.17725 12.3564 6.97256 12.3564 6.97256L11.981 6.96875C11.981 6.96875 11.915 4.90303 11.9135 4.5249C11.5986 4.73896 10.8486 5.06553 10.8486 5.06553L12.1455 3.23193Z" fill="#FBFCFF"/>
<path d="M26.7811 3.24874C27.3811 3.22921 27.9952 3.24014 28.596 3.23546C28.7835 3.23389 28.9788 3.24796 29.103 3.39483C29.1147 3.52608 29.1093 3.51671 29.0413 3.63233C28.5999 3.64171 26.9616 3.76905 26.7069 3.50733C26.696 3.35577 26.6975 3.40421 26.7811 3.24952V3.24874Z" fill="#FBFCFF"/>
<path d="M23.1812 3.24589C23.5843 3.23027 25.1921 3.15996 25.439 3.34433C25.4945 3.48417 25.482 3.40761 25.4288 3.58652C25.1601 3.64902 23.353 3.69199 23.1905 3.57636C23.1273 3.46386 23.1593 3.37792 23.1804 3.24589H23.1812Z" fill="#FBFCFF"/>
<path d="M26.9199 5.82498C27.4863 5.81639 28.0637 5.7992 28.6301 5.81248C28.8309 5.81717 29.0379 5.82733 29.0848 6.04452C29.0309 6.1828 29.0738 6.12733 28.9434 6.21092C28.3629 6.21561 27.7684 6.22733 27.1879 6.21483C27.0098 6.21092 26.8387 6.1992 26.7598 6.03045C26.8012 5.8828 26.7762 5.93436 26.9191 5.8242L26.9199 5.82498Z" fill="#FBFCFF"/>
<path d="M23.241 5.82347C23.6629 5.81878 25.1926 5.71644 25.4301 5.9719C25.4348 6.13519 25.4504 6.05784 25.3707 6.21097C24.7543 6.218 23.9223 6.24534 23.2949 6.20394C23.2137 6.19847 23.1855 6.13206 23.1543 6.07425C23.1559 5.94065 23.1715 5.93597 23.241 5.82425V5.82347Z" fill="#FBFCFF"/>
<path d="M30.4499 5.82018C30.7756 5.80143 31.8358 5.7069 32.021 5.9569C32.0358 6.11549 32.0381 6.05768 31.9616 6.21706C31.585 6.21549 30.6092 6.32721 30.3756 6.0858C30.3686 5.92018 30.3631 5.98034 30.4499 5.82096V5.82018Z" fill="#FBFCFF"/>
<path d="M30.4754 3.24822C30.7973 3.24197 31.9348 3.13103 32.0504 3.44431C32.0012 3.59197 32.0379 3.52243 31.9043 3.64275C31.5449 3.649 30.5574 3.76853 30.3691 3.49822C30.3871 3.33415 30.373 3.39275 30.4754 3.24822Z" fill="#FBFCFF"/>
<path d="M29.6848 46.9639C29.8762 47.0201 30.009 47.1943 30.1035 47.3623C30.5691 48.185 30.9871 49.0568 31.4223 49.8943C31.8824 50.7748 32.3332 51.6592 32.7754 52.549C33.016 53.0256 33.3441 53.6342 33.5379 54.1217C33.2363 54.4779 32.7582 55.224 32.4777 55.6334L30.3605 58.7498L26.7145 64.0896C26.2449 64.7811 25.6395 65.5818 25.2191 66.26C25.591 66.549 25.9035 67.1873 26.2223 67.6295C26.866 67.7795 27.4668 67.9303 27.9426 68.4217C28.5559 69.0553 28.502 69.7107 28.4902 70.5045C28.1285 70.4998 27.7551 70.4842 27.3926 70.4732C26.4348 70.4514 25.1879 70.4686 24.2637 70.4068C23.7926 70.0076 23.273 69.5021 22.8129 69.0748L20.2051 66.6459C20.4496 66.2443 20.6707 65.9506 20.9637 65.6068C21.2684 65.2498 22.5816 64.0584 22.6848 63.7303C22.5246 63.5467 22.5855 63.5381 22.6832 63.3357C24.8926 58.735 26.7699 53.985 28.7199 49.2717C29.0379 48.5021 29.3332 47.7178 29.6848 46.9646V46.9639Z" fill="#002C6E"/>
<path d="M20.976 65.7937C21.4033 65.4172 21.8658 64.8891 22.2861 64.4844C22.5744 64.7602 24.1369 66.3438 24.2846 66.3594C25.8299 66.5273 25.1455 66.4531 26.1229 67.7578C27.0143 67.9672 28.2463 68.357 28.2893 69.4906L28.3111 69.5625L28.2846 69.5961C28.3627 69.7297 28.3338 70.1719 28.3314 70.3453C27.0049 70.3203 25.6885 70.2633 24.3611 70.2687C23.9111 69.9234 23.3744 69.3773 22.9494 68.982C22.1064 68.1984 21.2736 67.3922 20.4072 66.6352C20.5385 66.4141 20.7479 66.0984 20.9143 65.907C20.9182 65.8648 20.9486 65.8359 20.9775 65.793L20.976 65.7937Z" fill="#FBFCFF"/>
<path d="M20.9758 65.7937C21.918 66.5656 22.8742 67.5625 23.7937 68.3766C24.1187 68.6641 24.6133 69.1766 24.9508 69.4172C25.8727 69.4398 27.4383 69.4031 28.2883 69.4906L28.3102 69.5625L28.2836 69.5961C28.3617 69.7297 28.3328 70.1719 28.3305 70.3453C27.0039 70.3203 25.6875 70.2633 24.3602 70.2687C23.9102 69.9234 23.3734 69.3773 22.9484 68.982C22.1055 68.1984 21.2727 67.3922 20.4062 66.6352C20.5375 66.4141 20.7469 66.0984 20.9133 65.907C20.9172 65.8648 20.9477 65.8359 20.9766 65.793L20.9758 65.7937Z" fill="#FBFCFF"/>
<path d="M20.9754 65.7939C21.9176 66.5658 22.8738 67.5627 23.7934 68.3768C24.1184 68.6643 24.6129 69.1768 24.9504 69.4174C25.8723 69.44 27.4379 69.4033 28.2879 69.4908L28.3098 69.5627L28.2832 69.5963C27.2949 69.6322 25.9387 69.5721 24.9168 69.5658C24.5074 69.2627 23.9137 68.6986 23.5184 68.3369L20.9121 65.908C20.916 65.8658 20.9465 65.8369 20.9754 65.7939Z" fill="#002C6E"/>
<path d="M22.9063 63.8164C23.7773 64.3648 24.6555 64.9 25.5422 65.4234C25.3922 65.7016 25.2031 65.975 25.0398 66.2781C24.732 66.282 24.607 66.275 24.3023 66.2336C23.7133 65.6969 23.0117 64.9547 22.4062 64.3781C22.5617 64.1906 22.7422 63.9977 22.907 63.8164H22.9063Z" fill="#FBFCFF"/>
</svg>
