<svg width="40" height="40" viewBox="0 0 40 40" fill="none" xmlns="http://www.w3.org/2000/svg">
<path d="M20.6712 10.0078C21.4346 9.9567 22.1563 10.1569 22.7671 10.6213C23.4372 11.1303 23.8761 11.8815 23.988 12.7107C24.0392 13.1065 24.0161 13.6673 24.0181 14.0772C24.0195 14.3651 24.0392 14.9927 23.992 15.2333C23.9585 15.4036 23.8839 15.5636 23.775 15.6996C23.5844 15.9429 23.3036 16.1001 22.995 16.1367C22.6833 16.1757 22.3693 16.087 22.1254 15.8908C21.6638 15.5206 21.6862 15.1214 21.6879 14.5859L21.6913 13.6757C21.6927 13.2544 21.7422 12.7658 21.3684 12.4786C21.2531 12.3895 21.0934 12.3106 20.9421 12.315C20.5884 12.325 20.2239 12.3667 19.8715 12.3976L14.6599 12.8438C14.12 12.8902 13.5737 12.9274 13.0361 12.9869C12.6017 13.035 12.3409 13.4153 12.3361 13.8302C12.3324 14.1467 12.3321 14.4686 12.3324 14.7888L12.3321 25.7747C12.3321 25.9192 12.3321 26.0677 12.3371 26.2058C12.3483 26.5777 12.6078 26.958 13.0002 27.0067C13.4322 27.0605 13.8731 27.0897 14.3082 27.1267L19.6378 27.5843C19.8054 27.5987 19.9668 27.6142 20.1452 27.628C20.7485 27.6747 21.379 27.8558 21.6367 27.1277C21.7072 26.9285 21.6916 26.6667 21.691 26.4527L21.6879 25.5526C21.6862 25.0654 21.634 24.7174 21.9321 24.2994C22.1468 24.0538 22.3835 23.8999 22.7169 23.8636C23.0302 23.8274 23.3456 23.9164 23.5925 24.1113C24.1898 24.5914 23.992 25.3786 24.0198 26.0526C24.0636 27.1149 23.9988 28.0291 23.2866 28.8835C22.7606 29.5206 21.9972 29.92 21.1694 29.9909C20.7577 30.0289 19.9939 29.9378 19.5473 29.8995L14.0617 29.4285C13.6194 29.3912 12.8008 29.3455 12.4002 29.2511C11.9339 29.1392 11.4998 28.9218 11.1325 28.6161C10.5126 28.1014 10.0873 27.3058 10.0184 26.5068C9.99233 26.2017 10.0015 25.8258 10.0018 25.5146L10.0011 14.2515C10.0011 13.9411 9.99267 13.6246 10.0402 13.3172C10.13 12.7406 10.379 12.1997 10.7598 11.7542C11.1359 11.311 11.6311 10.9825 12.1883 10.8067C12.6359 10.667 13.1314 10.6495 13.6004 10.6102L20.6712 10.0078Z" fill="#002E75"/>
<path d="M26.4117 15.0074C26.2164 14.9711 25.7931 15.0739 25.6507 15.2016C25.299 15.5171 24.9541 15.9881 24.658 16.3543L22.5292 18.9834C22.2817 19.2891 21.9687 19.5955 21.912 19.9987C21.8635 20.3451 21.952 20.6347 22.1698 20.9069C22.4112 21.2089 22.6561 21.51 22.8999 21.8113L25.0331 24.4471C25.1959 24.648 25.4126 24.9464 25.6063 25.0966C26.3161 25.6479 27.3722 25.1937 27.4732 24.3127C27.5441 23.6972 27.1158 23.3162 26.7671 22.8861L26.0217 21.9662C25.8498 21.7509 25.6751 21.5375 25.4977 21.3265C27.0012 21.308 28.5341 21.3218 30.0395 21.3221L31.2265 21.3242C31.4968 21.3248 31.8057 21.3403 32.0696 21.2956C32.6139 21.2035 32.9897 20.7201 32.9999 20.1875C33.0046 19.8811 32.8876 19.5848 32.6739 19.363C32.5034 19.1893 32.2822 19.0734 32.0415 19.0311C31.8956 19.0059 31.5199 19.0133 31.3611 19.0133L30.1307 19.0146C28.5975 19.0156 27.0351 19.0291 25.5042 19.0092L26.7024 17.5319C26.9947 17.1711 27.4261 16.7521 27.4732 16.2858C27.54 15.6273 27.0775 15.0682 26.4117 15.0074Z" fill="#002E75"/>
<path d="M20.6712 10.0078C21.4346 9.9567 22.1563 10.1569 22.7671 10.6213C23.4372 11.1303 23.8761 11.8815 23.988 12.7107C24.0392 13.1065 24.0161 13.6673 24.0181 14.0772C24.0195 14.3651 24.0392 14.9927 23.992 15.2333C23.9585 15.4036 23.8839 15.5636 23.775 15.6996C23.5844 15.9429 23.3036 16.1001 22.995 16.1367C22.6833 16.1757 22.3693 16.087 22.1254 15.8908C21.6638 15.5206 21.6862 15.1214 21.6879 14.5859L21.6913 13.6757C21.6927 13.2544 21.7422 12.7658 21.3684 12.4786C21.2531 12.3895 21.0934 12.3106 20.9421 12.315C20.5884 12.325 20.2239 12.3667 19.8715 12.3976L14.6599 12.8438C14.12 12.8902 13.5737 12.9274 13.0361 12.9869C12.6017 13.035 12.3409 13.4153 12.3361 13.8302C12.3324 14.1467 12.3321 14.4686 12.3324 14.7888L12.3321 25.7747C12.3321 25.9192 12.3321 26.0677 12.3371 26.2058C12.3483 26.5777 12.6078 26.958 13.0002 27.0067C13.4322 27.0605 13.8731 27.0897 14.3082 27.1267L19.6378 27.5843C19.8054 27.5987 19.9668 27.6142 20.1452 27.628C20.7485 27.6747 21.379 27.8558 21.6367 27.1277C21.7072 26.9285 21.6916 26.6667 21.691 26.4527L21.6879 25.5526C21.6862 25.0654 21.634 24.7174 21.9321 24.2994C22.1468 24.0538 22.3835 23.8999 22.7169 23.8636C23.0302 23.8274 23.3456 23.9164 23.5925 24.1113C24.1898 24.5914 23.992 25.3786 24.0198 26.0526C24.0636 27.1149 23.9988 28.0291 23.2866 28.8835C22.7606 29.5206 21.9972 29.92 21.1694 29.9909C20.7577 30.0289 19.9939 29.9378 19.5473 29.8995L14.0617 29.4285C13.6194 29.3912 12.8008 29.3455 12.4002 29.2511C11.9339 29.1392 11.4998 28.9218 11.1325 28.6161C10.5126 28.1014 10.0873 27.3058 10.0184 26.5068C9.99233 26.2017 10.0015 25.8258 10.0018 25.5146L10.0011 14.2515C10.0011 13.9411 9.99267 13.6246 10.0402 13.3172C10.13 12.7406 10.379 12.1997 10.7598 11.7542C11.1359 11.311 11.6311 10.9825 12.1883 10.8067C12.6359 10.667 13.1314 10.6495 13.6004 10.6102L20.6712 10.0078Z" fill="#F6F9FF"/>
<path d="M26.4117 15.0074C26.2164 14.9711 25.7931 15.0739 25.6507 15.2016C25.299 15.5171 24.9541 15.9881 24.658 16.3543L22.5292 18.9834C22.2817 19.2891 21.9687 19.5955 21.912 19.9987C21.8635 20.3451 21.952 20.6347 22.1698 20.9069C22.4112 21.2089 22.6561 21.51 22.8999 21.8113L25.0331 24.4471C25.1959 24.648 25.4126 24.9464 25.6063 25.0966C26.3161 25.6479 27.3722 25.1937 27.4732 24.3127C27.5441 23.6972 27.1158 23.3162 26.7671 22.8861L26.0217 21.9662C25.8498 21.7509 25.6751 21.5375 25.4977 21.3265C27.0012 21.308 28.5341 21.3218 30.0395 21.3221L31.2265 21.3242C31.4968 21.3248 31.8057 21.3403 32.0696 21.2956C32.6139 21.2035 32.9897 20.7201 32.9999 20.1875C33.0046 19.8811 32.8876 19.5848 32.6739 19.363C32.5034 19.1893 32.2822 19.0734 32.0415 19.0311C31.8956 19.0059 31.5199 19.0133 31.3611 19.0133L30.1307 19.0146C28.5975 19.0156 27.0351 19.0291 25.5042 19.0092L26.7024 17.5319C26.9947 17.1711 27.4261 16.7521 27.4732 16.2858C27.54 15.6273 27.0775 15.0682 26.4117 15.0074Z" fill="#F6F9FF"/>
</svg>
