<svg width="24" height="26" viewBox="0 0 24 26" fill="none" xmlns="http://www.w3.org/2000/svg">
<path d="M12.1455 26C12.9211 26.0003 13.6701 25.7115 14.2519 25.1879C14.8337 24.6643 15.2083 23.9418 15.3052 23.1562C15.3323 22.9336 15.1508 22.75 14.9312 22.75H9.35976C9.14009 22.75 8.95862 22.9336 8.98568 23.1562C9.08264 23.9418 9.45718 24.6643 10.039 25.1879C10.6208 25.7115 11.3698 26.0003 12.1455 26ZM4.18632 8.125C4.18632 5.97012 5.02487 3.90349 6.5175 2.37976C8.01013 0.856024 10.0346 0 12.1455 0C14.2564 0 16.2808 0.856024 17.7734 2.37976C19.2661 3.90349 20.1046 5.97012 20.1046 8.125V12.9139C20.1046 12.9962 20.1269 13.0715 20.1715 13.1398L22.8824 17.2916C23.1239 17.6632 23.2624 18.0947 23.283 18.5402C23.3036 18.9857 23.2056 19.4285 22.9994 19.8217C22.7932 20.2149 22.4865 20.5437 22.1119 20.7732C21.7373 21.0027 21.3088 21.1242 20.8719 21.125H3.41906C2.98127 21.1261 2.55144 21.0056 2.17561 20.7764C1.79978 20.5472 1.4921 20.2179 1.28553 19.8239C1.07896 19.4299 0.981285 18.9859 1.00296 18.5395C1.02463 18.0932 1.16485 17.6612 1.40858 17.29L4.11946 13.1398C4.16231 13.0725 4.1855 12.9941 4.18632 12.9139V8.125ZM12.1455 2.4375C10.6678 2.4375 9.25073 3.03672 8.20589 4.10333C7.16105 5.16994 6.57406 6.61658 6.57406 8.125V12.9139C6.57406 13.4761 6.41169 14.0237 6.10606 14.4901L3.39518 18.6436L3.3904 18.6599L3.39199 18.6696C3.39199 18.6729 3.39412 18.6761 3.39836 18.6794L3.40791 18.6859L3.41906 18.6875H20.8719L20.883 18.6859L20.8926 18.6794L20.8989 18.6696L20.9005 18.6583L20.8957 18.642L18.1849 14.4918C17.88 14.025 17.7171 13.4765 17.7169 12.9155V8.125C17.7169 6.61658 17.1299 5.16994 16.085 4.10333C15.0402 3.03672 13.6231 2.4375 12.1455 2.4375Z" fill="#002E75"/>
<path d="M12.1455 26C12.9211 26.0003 13.6701 25.7115 14.2519 25.1879C14.8337 24.6643 15.2083 23.9418 15.3052 23.1562C15.3323 22.9336 15.1508 22.75 14.9312 22.75H9.35976C9.14009 22.75 8.95862 22.9336 8.98568 23.1562C9.08264 23.9418 9.45718 24.6643 10.039 25.1879C10.6208 25.7115 11.3698 26.0003 12.1455 26ZM4.18632 8.125C4.18632 5.97012 5.02487 3.90349 6.5175 2.37976C8.01013 0.856024 10.0346 0 12.1455 0C14.2564 0 16.2808 0.856024 17.7734 2.37976C19.2661 3.90349 20.1046 5.97012 20.1046 8.125V12.9139C20.1046 12.9962 20.1269 13.0715 20.1715 13.1398L22.8824 17.2916C23.1239 17.6632 23.2624 18.0947 23.283 18.5402C23.3036 18.9857 23.2056 19.4285 22.9994 19.8217C22.7932 20.2149 22.4865 20.5437 22.1119 20.7732C21.7373 21.0027 21.3088 21.1242 20.8719 21.125H3.41906C2.98127 21.1261 2.55144 21.0056 2.17561 20.7764C1.79978 20.5472 1.4921 20.2179 1.28553 19.8239C1.07896 19.4299 0.981285 18.9859 1.00296 18.5395C1.02463 18.0932 1.16485 17.6612 1.40858 17.29L4.11946 13.1398C4.16231 13.0725 4.1855 12.9941 4.18632 12.9139V8.125ZM12.1455 2.4375C10.6678 2.4375 9.25073 3.03672 8.20589 4.10333C7.16105 5.16994 6.57406 6.61658 6.57406 8.125V12.9139C6.57406 13.4761 6.41169 14.0237 6.10606 14.4901L3.39518 18.6436L3.3904 18.6599L3.39199 18.6696C3.39199 18.6729 3.39412 18.6761 3.39836 18.6794L3.40791 18.6859L3.41906 18.6875H20.8719L20.883 18.6859L20.8926 18.6794L20.8989 18.6696L20.9005 18.6583L20.8957 18.642L18.1849 14.4918C17.88 14.025 17.7171 13.4765 17.7169 12.9155V8.125C17.7169 6.61658 17.1299 5.16994 16.085 4.10333C15.0402 3.03672 13.6231 2.4375 12.1455 2.4375Z" fill="#F6F9FF"/>
</svg>
